<?xml version="1.0" encoding="UTF-8"?>
<svg id="Layer_1" data-name="Layer 1" xmlns="http://www.w3.org/2000/svg" viewBox="0 0 740.81 328.6">
  <defs>
    <style>
      .cls-1 {
        fill: #055064;
      }
    </style>
  </defs>
  <path class="cls-1" d="M65.51,284.73c2.23-2.75,3.99-2.73,6.37-.81l-5.75,7.08c-2.41-1.91-2.71-3.67-.61-6.26M64.65,268.05c-3.2,3.93-.2,7.9,2.15,10.37-2.84-1.61-7.2-2.62-9.64.38-3.33,4.09-1.58,8.17,3.34,12.14l11.68,9.41,18.44-22.66-11.42-9.19c-4.28-3.46-10.79-5.09-14.56-.45M73.16,274.94c2.41-2.97,5.1-2.76,7.04-1.18l-6.57,8.06c-2.41-1.95-3.02-3.73-.46-6.88h-.01ZM68.5,259.15l-22.4,18.78-6.83-8.07,19.18-16.08-6.31-7.46,3.25-2.73,13.13,15.53v.03ZM53.78,241.32l-25.27,14.74-10.31-17.52,3.63-2.1,4.96,8.4,6.81-3.97-4.76-8.09,3.61-2.11,4.75,8.07,7.58-4.41-4.94-8.41,3.64-2.14,10.31,17.52v.02ZM36.94,206.61l-5.81,7.49,7.5-2.59,3.46,9.97-27.72,9.53-3.45-10,10.17-3.5-12.83-4.16-2.83-8.15,15.73,6.9,11.77-16.95,3.95,11.4.04.07ZM33.08,192.65l-28.89,4.92-1.76-10.41,28.86-4.89,1.79,10.4v-.02ZM30.25,160.02l-15.33,11.71,15.36-.03.02,7.31-29.28.06v-9.11l14.97-11.7-15,.04-.04-7.3,29.3-.05.03,9.11v-.04ZM34.81,132.09c-1.96,8.24-8.61,15.46-18.76,13.06-10.16-2.41-12.9-11.42-10.84-20.04,1.26-5.31,2.49-8.02,4.25-10.37l4.92,2.1-.85,3.64c-2.29.11-4.05,1.15-4.77,4.15-1.11,4.57,3.4,8.35,9.81,9.87,6.39,1.5,11.82.43,12.94-4.25.19-.78.28-1.91.28-1.91l-10.23-2.41,2.44-10.27,11.8,2.79c.69,2.7.46,7.51-1.02,13.67h.03ZM38.86,116.26l-26.51-12.42,8.69-18.36,3.79,1.77-4.17,8.82,7.14,3.36,4.01-8.48,3.79,1.79-4,8.46,7.94,3.74,4.18-8.82,3.83,1.79-8.7,18.36.02-.03ZM51.01,52.7l18.5,16.9-7.2,7.81-18.5-16.9-5.23,5.67-3.05-2.83,17.67-19.17,3.08,2.83-5.23,5.67h-.04ZM76.89,62.37l-17.49-23.4,16.36-12.11,2.5,3.34-7.86,5.82,4.72,6.31,7.54-5.57,2.5,3.36-7.54,5.6,5.25,7.02,7.85-5.81,2.52,3.38-16.38,12.13.03-.06ZM109.7,41.84l-8.17-4.89,3.4,7.13-9.56,4.54-12.58-26.36,9.57-4.53,4.62,9.68,2.73-13.14,7.83-3.74-5.15,16.34,18.23,9.77-10.93,5.17v.03ZM141.18,31.93l-14.76-12.39,3.31,14.93-7.17,1.57-6.33-28.47,8.93-1.97,14.69,12.05-3.23-14.57,7.16-1.57,6.33,28.47-8.93,1.97h0ZM153.33,30.27l-1.52-29.13,10.59-.53,1.51,29.12-10.59.53h0ZM167.1,27.98l1.68-6.11,3.09.28c-.06,2.65,2.34,4.66,5.03,4.9,2.48.23,4.51-.42,4.73-2.58.4-4.2-13.17-6.33-12.26-15.76.52-5.54,6.34-8.46,12.52-7.86,3.28.31,7.5,1.57,9.89,3.15l-1.72,5-2.62-.27c-.11-2.21-1.72-4.05-4.2-4.29-2.13-.2-4.45.39-4.66,2.59-.38,3.89,13.59,5.5,12.68,15.16-.58,6.15-6.39,9.35-14.3,8.6-3.79-.36-7.92-1.79-9.85-2.86l-.02.05ZM208.15,36.53l-2.68-9.11-2.36,7.56-10.12-3.13,8.69-27.85,10.12,3.13-3.19,10.24,10.97-7.83,8.27,2.56-14.9,8.54,6.76,19.48-11.55-3.57v-.02ZM241.46,38.14l-4.16-2.44,5.83-5.1-1.68,7.54h0ZM248.29,56.58l5.39-30.72-8.32-4.91-24.43,19.51,6.36,3.74,6.92-5.9,6.53,3.86-1.87,8.88,9.43,5.55h0ZM273.29,82.55l10.08-8.21-5.23-6.36-10.08,8.21-6.71-8.17,22.69-18.46,6.71,8.17-9.39,7.64,5.23,6.38,9.35-7.63,6.7,8.15-22.69,18.46-6.71-8.17h.05ZM304.79,107.83c-6.67,3.06-11.35,3.1-13.23-.95-1.82-3.93,1.18-7.58,7.85-10.64,7.23-3.32,11.62-3.09,13.43.84,1.82,3.93-.82,7.41-8.06,10.74v.02ZM323.47,99.91c1.41-.65,2.02-2.25,1.37-3.67-.65-1.39-2.29-1.99-3.67-1.36-1.39.65-2,2.29-1.36,3.68.66,1.41,2.29,1.99,3.68,1.35M319.75,91.81c1.39-.65,2-2.29,1.36-3.67-.67-1.41-2.31-2.01-3.69-1.36-1.39.64-2.02,2.24-1.36,3.67.62,1.37,2.29,1.99,3.67,1.36M309.39,117.77c9.48-4.35,10.98-12.41,6.5-22.07-4.47-9.62-11.63-13.76-21.1-9.41-9.47,4.35-10.36,13.84-6.53,22.1,4.49,9.69,11.65,13.73,21.13,9.38ZM298.82,142.48c-1.49-8.33,1.72-17.58,12-19.39,10.27-1.82,16.39,5.36,17.94,14.1.95,5.36.92,8.34.23,11.2h-5.35s-.65-3.67-.65-3.67c2.02-1.01,3.25-2.65,2.69-5.69-.82-4.62-6.44-6.31-12.95-5.17-6.46,1.16-11.02,4.28-10.17,9.02.14.78.5,1.87.5,1.87l10.35-1.85,1.86,10.38-11.93,2.13c-1.71-2.2-3.41-6.71-4.52-12.94v.02ZM300.6,168.25c.14-3.8,1.36-7.98,2.32-9.94l6.2,1.32-.11,3.08c-2.63.11-4.51,2.63-4.62,5.31-.08,2.44.69,4.46,2.86,4.54,4.24.16,5.6-13.44,15.1-13.08,5.6.21,8.86,5.83,8.61,12.01-.13,3.28-1.15,7.54-2.61,10.02l-5.12-1.44.11-2.62c2.22-.25,3.97-1.94,4.09-4.43.08-2.12-.65-4.39-2.86-4.48-3.96-.15-4.77,13.82-14.53,13.45-6.2-.23-9.74-5.84-9.43-13.73l-.03-.03ZM296.63,199.61l8.98-3.19-7.7-1.91,2.57-10.24,28.43,7.05-2.56,10.23-10.45-2.58,8.48,10.45-2.09,8.36-9.42-14.32-19.15,7.82,2.92-11.67ZM296.89,237.74c-6.54-3.28-9.48-6.91-7.46-10.88,1.97-3.86,6.71-3.78,13.25-.46,7.12,3.57,9.65,7.14,7.69,11.01-1.97,3.86-6.35,3.95-13.47.37v-.04ZM291.92,247.51c9.32,4.7,16.59.88,21.41-8.63,4.81-9.43,3.63-17.6-5.69-22.3-9.32-4.7-17.33.5-21.46,8.63-4.85,9.54-3.59,17.64,5.73,22.33v-.04ZM276.84,242.51l22.66,18.48-6.73,8.17-19.38-15.82-6.18,7.55-3.26-2.67,12.93-15.69-.04-.02ZM257.95,279.85l3.74-3.02,2.75,7.22-6.53-4.2h.04ZM238.17,279.74l27,15.81,7.54-6.03-9.74-29.63-5.73,4.59,3.12,8.53-5.91,4.74-7.7-4.87-8.55,6.83-.02.03ZM137.99,304.89c-.65,3.47-2.2,4.29-5.2,3.74l1.65-8.95c3.05.55,4.15,1.92,3.55,5.2ZM146.78,319.16c.92-4.96-3.61-7.03-6.86-8.07,3.26.07,7.59-1.13,8.28-4.93.96-5.15-2.55-7.93-8.77-9.07l-14.78-2.71-5.31,28.68,14.42,2.65c5.46,1.03,11.95-.65,13.02-6.53M136.01,317.19c-.69,3.78-3.13,4.85-5.61,4.43l1.91-10.22c3.05.56,4.47,1.83,3.72,5.82l-.02-.03ZM170.91,303.64l-.27,24.97-10.63-.08.24-25-7.75-.08.04-4.18,26.1.24-.04,4.18-7.74-.08.05.02ZM205.23,324.29l-2.67-12.68-8.09,1.7,2.67,12.68-10.37,2.17-6.01-28.54,10.37-2.16,2.48,11.77,8.09-1.68-2.48-11.79,10.38-2.16,6.01,28.55-10.38,2.18v-.03ZM100.47,304.63c3.08,0,5.57-2.48,5.57-5.56s-2.5-5.55-5.57-5.55-5.57,2.52-5.57,5.57,2.49,5.55,5.57,5.55v-.02ZM232.95,304.77c3.08,0,5.57-2.49,5.57-5.55s-2.49-5.55-5.57-5.55-5.57,2.48-5.57,5.55,2.5,5.55,5.57,5.55ZM50.42,158.63l11.97.04s1.15-.1,2.19.41c1.06.51,2.56,1.5,3,1.84.43.34,2.24,2.15,2.67,3.25.44,1.07.28,2.03.28,2.03v10.5h-12.76s-1.37-.09-1.78-.24c-.41-.15-1.75-.6-2.88-1.59,0,0-1.69-1.92-1.91-2.7,0,0-.79-1.68-.78-1.91.04-.21,0-11.61,0-11.61v-.03ZM121.51,180.25l11.97.03s1.13-.09,2.19.42c1.05.5,2.56,1.49,2.99,1.85.44.34,2.25,2.16,2.69,3.23.43,1.09.27,2.06.27,2.06v10.46h-12.75s-1.38-.09-1.79-.24c-.4-.14-1.74-.6-2.87-1.6,0,0-1.69-1.91-1.91-2.69,0,0-.79-1.68-.78-1.9.02-.23,0-11.62,0-11.62h0ZM212.43,180.15l-11.98.04s-1.13-.1-2.18.41c-1.05.5-2.57,1.51-2.99,1.84-.42.36-2.21,2.15-2.67,3.25-.42,1.09-.27,2.05-.27,2.05v10.48h12.75s1.4-.08,1.79-.24c.41-.15,1.75-.61,2.86-1.57,0,0,1.72-1.92,1.93-2.7,0,0,.78-1.68.78-1.91-.03-.21,0-11.61,0-11.61l-.03-.04ZM145.18,180.23l11.95.04s1.12-.08,2.18.41c1.05.51,2.56,1.49,3,1.85.43.34,2.24,2.14,2.68,3.25.43,1.07.27,2.02.27,2.02v10.46h-12.74s-1.37-.09-1.78-.24c-.4-.15-1.75-.6-2.87-1.59,0,0-1.68-1.91-1.91-2.69,0,0-.78-1.7-.76-1.91v-11.62.02ZM188.81,180.23l-11.99.04s-1.13-.08-2.18.41c-1.06.51-2.56,1.49-3,1.85-.44.34-2.25,2.14-2.68,3.25-.44,1.07-.27,2.02-.27,2.02v10.46h12.75s1.39-.09,1.79-.24c.4-.15,1.74-.6,2.86-1.59,0,0,1.71-1.91,1.92-2.69,0,0,.78-1.7.77-1.91-.02-.22,0-11.62,0-11.62l.02.02ZM74.06,180.28l11.96.04s1.15-.11,2.19.38c1.05.5,2.57,1.5,3,1.85.44.34,2.25,2.15,2.67,3.23.44,1.07.27,2.05.27,2.05v10.46h-12.75s-1.37-.08-1.78-.23c-.4-.15-1.75-.61-2.88-1.6,0,0-1.7-1.91-1.91-2.69,0,0-.79-1.7-.78-1.91.02-.21,0-11.61,0-11.61v.02ZM97.73,180.28h11.96s1.13-.1,2.19.42c1.05.5,2.56,1.49,2.99,1.83.44.34,2.25,2.18,2.68,3.25.43,1.07.27,2.06.27,2.06v10.46h-12.75s-1.37-.1-1.78-.25c-.41-.15-1.75-.6-2.88-1.6,0,0-1.69-1.91-1.91-2.69,0,0-.8-1.7-.76-1.91v-11.61.04ZM259.76,180.13h-11.97s-1.13-.08-2.18.42c-1.07.5-2.56,1.49-3.01,1.85-.44.34-2.24,2.15-2.68,3.23-.42,1.09-.27,2.06-.27,2.06v10.46h12.75s1.39-.09,1.79-.23c.39-.15,1.74-.6,2.86-1.6,0,0,1.7-1.89,1.91-2.68,0,0,.8-1.7.79-1.91,0-.23,0-11.61,0-11.61h0ZM236.16,180.2l-11.97.04s-1.14-.11-2.19.38c-1.06.52-2.56,1.5-3,1.85-.43.34-2.24,2.15-2.67,3.25-.44,1.09-.27,2.04-.27,2.04v10.47h12.75s1.37-.08,1.78-.23c.39-.15,1.74-.6,2.86-1.58,0,0,1.7-1.93,1.91-2.7,0,0,.8-1.7.79-1.91-.02-.21,0-11.61,0-11.61h.02ZM50.31,180.1l11.96.02s1.13-.09,2.19.42c1.05.51,2.56,1.5,3,1.85.42.36,2.23,2.16,2.67,3.25.44,1.07.27,2.05.27,2.05v10.46h-12.72s-1.39-.08-1.79-.23c-.4-.15-1.74-.6-2.87-1.6,0,0-1.7-1.91-1.91-2.68,0,0-.79-1.69-.78-1.91.01-.21,0-11.61,0-11.61h0ZM283.28,180.04l-11.97.02s-1.14-.1-2.19.42c-1.04.5-2.56,1.5-2.99,1.83-.42.36-2.23,2.17-2.67,3.25-.44,1.09-.27,2.05-.27,2.05v10.47h12.75s1.39-.1,1.79-.24c.4-.15,1.74-.6,2.87-1.6,0,0,1.69-1.91,1.91-2.69,0,0,.79-1.68.78-1.91-.03-.21,0-11.61,0-11.61h-.01ZM166.8,200.85h-22.93v27.55s-.07,5.78-4.72,5.78-51.75-.06-51.75-.06v10.4h160.16l.05-10.51-53.07-.02c-4.65,0-4.58-5.59-4.58-5.59v-27.55h-23.16ZM121.41,201.93l11.97.03s1.13-.08,2.18.42c1.05.51,2.56,1.51,3,1.83.44.37,2.24,2.18,2.67,3.25.44,1.1.28,2.06.28,2.06v10.46h-12.75s-1.37-.09-1.79-.24c-.39-.15-1.76-.61-2.87-1.6,0,0-1.7-1.91-1.92-2.7,0,0-.78-1.68-.76-1.91.02-.19,0-11.61,0-11.61h0ZM73.99,201.95l11.96.04s1.13-.09,2.19.42c1.06.5,2.56,1.5,3,1.83.43.37,2.24,2.18,2.67,3.25.44,1.09.28,2.05.28,2.05v10.46h-12.75s-1.37-.08-1.79-.23c-.4-.16-1.75-.6-2.86-1.6,0,0-1.71-1.91-1.92-2.69,0,0-.79-1.68-.76-1.91,0-.23,0-11.61,0-11.61h0ZM97.66,201.95l11.97.04s1.13-.1,2.18.4c1.05.5,2.56,1.49,2.99,1.84.44.34,2.24,2.14,2.68,3.25.44,1.07.27,2.02.27,2.02v10.48h-12.75s-1.37-.1-1.78-.26c-.39-.15-1.74-.61-2.86-1.59,0,0-1.7-1.92-1.91-2.7,0,0-.79-1.68-.78-1.91.02-.21,0-11.61,0-11.61v.03ZM212.46,201.88l-11.98.02s-1.12-.09-2.18.42c-1.06.5-2.57,1.5-3,1.84-.44.34-2.25,2.14-2.68,3.22-.45,1.1-.28,2.06-.28,2.06v10.46h12.75s1.39-.08,1.79-.23c.4-.15,1.74-.6,2.86-1.6,0,0,1.71-1.91,1.92-2.69,0,0,.8-1.68.79-1.91-.03-.21,0-11.61,0-11.61v.02ZM259.82,201.85l-11.96.03s-1.14-.09-2.19.42c-1.06.51-2.56,1.5-3,1.83-.44.36-2.24,2.18-2.68,3.25-.42,1.09-.26,2.06-.26,2.06v10.46h12.74s1.37-.09,1.79-.24c.4-.15,1.74-.61,2.87-1.6,0,0,1.7-1.91,1.91-2.7,0,0,.8-1.69.78-1.91v-11.61ZM236.23,201.92l-11.95.04s-1.15-.09-2.2.4c-1.05.51-2.56,1.5-3,1.85-.42.34-2.23,2.15-2.67,3.23-.43,1.1-.27,2.06-.27,2.06v10.47h12.75s1.37-.1,1.78-.26c.4-.15,1.76-.6,2.87-1.6,0,0,1.7-1.91,1.91-2.69,0,0,.8-1.68.78-1.89v-11.61h0ZM121.55,158.78l11.96.04s1.13-.09,2.19.42c1.03.5,2.56,1.49,2.98,1.83.42.34,2.24,2.16,2.67,3.25.44,1.09.27,2.05.27,2.05v10.46h-12.75s-1.37-.08-1.77-.24c-.41-.15-1.76-.59-2.89-1.6,0,0-1.7-1.91-1.91-2.69,0,0-.79-1.69-.77-1.91.01-.22,0-11.61,0-11.61h.02ZM212.47,158.69l-11.97.03s-1.13-.09-2.19.42c-1.06.51-2.56,1.5-3,1.85-.44.34-2.25,2.15-2.68,3.25-.44,1.07-.27,2.03-.27,2.03v10.5h12.74s1.39-.09,1.79-.23c.4-.15,1.74-.61,2.87-1.6,0,0,1.71-1.91,1.93-2.69,0,0,.79-1.7.77-1.91-.02-.22,0-11.61,0-11.61v-.03ZM145.22,158.77l11.97.03s1.13-.08,2.18.42c1.03.52,2.56,1.5,2.98,1.85.43.36,2.25,2.16,2.67,3.25.44,1.08.27,2.05.27,2.05v10.47h-12.75s-1.38-.08-1.78-.24c-.4-.15-1.74-.6-2.88-1.6,0,0-1.68-1.91-1.91-2.69,0,0-.78-1.68-.76-1.91.02-.21,0-11.61,0-11.61h.02ZM188.87,158.77l-11.97.03s-1.11-.08-2.18.42c-1.04.52-2.56,1.5-2.98,1.85-.44.36-2.25,2.16-2.68,3.25-.43,1.08-.27,2.05-.27,2.05v10.47h12.75s1.39-.08,1.79-.24c.4-.15,1.75-.6,2.88-1.6,0,0,1.69-1.91,1.91-2.69,0,0,.79-1.68.78-1.91-.02-.21,0-11.61,0-11.61h-.04ZM74.12,158.82h11.98s1.13-.11,2.19.41c1.05.51,2.56,1.5,2.99,1.86.43.34,2.24,2.16,2.68,3.23.44,1.08.27,2.05.27,2.05v10.46h-12.74s-1.39-.08-1.79-.23c-.4-.15-1.74-.6-2.88-1.6,0,0-1.7-1.91-1.92-2.67,0,0-.79-1.7-.77-1.91.02-.22,0-11.61,0-11.61v.02ZM97.79,158.78l11.99.04s1.12-.11,2.18.42c1.05.5,2.56,1.49,2.99,1.83s2.24,2.15,2.68,3.25c.44,1.08.27,2.06.27,2.06v10.46h-12.76s-1.37-.08-1.78-.26c-.42-.14-1.76-.58-2.89-1.58,0,0-1.7-1.91-1.91-2.68,0,0-.79-1.7-.78-1.91,0-.23,0-11.61,0-11.61h.01ZM259.82,158.64l-11.96.04s-1.13-.1-2.19.4c-1.06.5-2.56,1.51-2.99,1.85-.44.35-2.25,2.16-2.68,3.25-.44,1.08-.27,2.04-.27,2.04v10.47h12.75s1.37-.1,1.78-.25c.4-.15,1.74-.6,2.87-1.59,0,0,1.7-1.91,1.92-2.69,0,0,.79-1.68.78-1.91-.01-.23,0-11.62,0-11.62v.02ZM236.23,158.74l-11.96.03s-1.13-.1-2.19.4c-1.05.5-2.56,1.49-2.99,1.84-.44.34-2.25,2.16-2.68,3.23-.44,1.1-.28,2.05-.28,2.05v10.48h12.75s1.39-.09,1.78-.23c.42-.15,1.76-.61,2.89-1.6,0,0,1.7-1.91,1.91-2.69,0,0,.79-1.7.77-1.91-.02-.22,0-11.61,0-11.61h-.02ZM283.36,158.58l-11.97.04s-1.15-.1-2.18.42c-1.05.48-2.57,1.49-3,1.83s-2.23,2.16-2.67,3.25c-.43,1.08-.27,2.04-.27,2.04v10.46h12.75s1.39-.08,1.78-.23c.41-.15,1.74-.61,2.88-1.6,0,0,1.7-1.91,1.91-2.7,0,0,.79-1.68.78-1.91v-11.61h0ZM121.6,137.22l11.97.04s1.12-.1,2.18.42c1.04.5,2.56,1.49,2.98,1.83.43.34,2.25,2.18,2.67,3.25.44,1.09.27,2.05.27,2.05v10.46h-12.75s-1.39-.08-1.79-.23c-.4-.15-1.74-.6-2.88-1.59,0,0-1.7-1.91-1.91-2.68,0,0-.78-1.7-.76-1.92.01-.2,0-11.61,0-11.61l.02-.02ZM212.51,137.13l-11.97.02s-1.11-.08-2.18.42c-1.05.51-2.56,1.5-2.99,1.85-.44.36-2.24,2.15-2.67,3.25-.45,1.08-.29,2.05-.29,2.05v10.48h12.75s1.39-.09,1.79-.24c.4-.15,1.76-.6,2.87-1.6,0,0,1.71-1.91,1.92-2.68,0,0,.8-1.69.79-1.91-.02-.22,0-11.61,0-11.61l-.04-.02ZM145.27,137.22l11.96.03s1.11-.1,2.18.41c1.05.52,2.56,1.49,3,1.86.43.34,2.24,2.15,2.68,3.23.43,1.09.27,2.05.27,2.05v10.46h-12.75s-1.37-.09-1.79-.24c-.4-.15-1.74-.6-2.86-1.59,0,0-1.71-1.91-1.91-2.7,0,0-.8-1.68-.78-1.9v-11.61h.01ZM188.91,137.22l-11.96.03s-1.13-.1-2.2.41c-1.07.52-2.56,1.49-3.01,1.86-.44.34-2.25,2.15-2.68,3.23-.42,1.09-.27,2.05-.27,2.05v10.46h12.75s1.37-.09,1.79-.24c.4-.15,1.74-.6,2.87-1.59,0,0,1.71-1.91,1.92-2.7,0,0,.79-1.68.77-1.9-.02-.22,0-11.61,0-11.61h0ZM74.17,137.26l11.99.02s1.14-.09,2.18.42c1.07.51,2.56,1.51,3,1.85.42.34,2.23,2.16,2.67,3.25.43,1.07.27,2.03.27,2.03v10.48h-12.75s-1.37-.09-1.79-.24c-.4-.13-1.74-.58-2.88-1.6,0,0-1.7-1.91-1.91-2.67,0,0-.79-1.69-.78-1.91.03-.22,0-11.61,0-11.61v-.02ZM97.84,137.23l11.99.04s1.13-.11,2.19.4c1.05.5,2.56,1.49,2.99,1.83.43.35,2.25,2.16,2.67,3.25.44,1.08.27,2.05.27,2.05v10.47h-12.75s-1.39-.09-1.79-.23c-.39-.15-1.74-.61-2.87-1.6,0,0-1.69-1.92-1.92-2.7,0,0-.79-1.68-.77-1.91.02-.21,0-11.61,0-11.61v.02ZM259.89,137.12h-11.97s-1.13-.08-2.19.43c-1.07.5-2.56,1.49-3.01,1.83-.43.34-2.24,2.18-2.68,3.25-.43,1.09-.27,2.05-.27,2.05v10.46h12.75s1.37-.09,1.79-.23c.39-.15,1.73-.61,2.87-1.6,0,0,1.69-1.92,1.9-2.69,0,0,.8-1.71.79-1.93-.01-.22,0-11.6,0-11.6v.03ZM236.3,137.2l-11.97.02s-1.13-.1-2.19.4c-1.04.52-2.56,1.49-2.98,1.85-.43.34-2.24,2.15-2.67,3.25-.45,1.07-.29,2.03-.29,2.03v10.48h12.76s1.37-.08,1.78-.23c.4-.15,1.74-.6,2.87-1.6,0,0,1.69-1.91,1.91-2.68,0,0,.79-1.7.78-1.91-.02-.23,0-11.61,0-11.61h-.01ZM121.52,115.74l11.97.02s1.13-.08,2.18.42c1.05.51,2.56,1.49,2.99,1.86.44.34,2.25,2.15,2.69,3.25.43,1.08.27,2.03.27,2.03v10.46h-12.76s-1.37-.08-1.78-.23c-.4-.15-1.74-.61-2.87-1.6,0,0-1.72-1.91-1.94-2.7,0,0-.78-1.7-.76-1.91.02-.23,0-11.61,0-11.61h.01ZM212.44,115.64l-11.97.04s-1.13-.09-2.2.41c-1.06.51-2.56,1.5-3,1.85-.42.34-2.24,2.15-2.67,3.25-.43,1.08-.27,2.04-.27,2.04v10.48h12.75s1.37-.08,1.78-.24c.4-.15,1.75-.61,2.87-1.6,0,0,1.7-1.92,1.91-2.7,0,0,.79-1.69.78-1.91-.02-.21,0-11.61,0-11.61h0ZM145.19,115.72l11.97.02s1.13-.08,2.18.42c1.05.51,2.56,1.5,2.99,1.86.43.34,2.24,2.15,2.67,3.23.44,1.08.27,2.04.27,2.04v10.47h-12.74s-1.39-.08-1.79-.23c-.4-.15-1.74-.6-2.87-1.6,0,0-1.7-1.91-1.92-2.67,0,0-.78-1.68-.76-1.91.02-.22,0-11.61,0-11.61v-.02ZM188.84,115.72l-11.97.02s-1.14-.08-2.18.42c-1.07.51-2.57,1.5-3.01,1.86-.43.34-2.25,2.15-2.67,3.23-.44,1.08-.27,2.04-.27,2.04v10.47h12.75s1.39-.08,1.78-.23c.4-.15,1.76-.6,2.87-1.6,0,0,1.7-1.91,1.91-2.67,0,0,.79-1.68.78-1.91-.02-.22,0-11.61,0-11.61v-.02ZM74.1,115.76l11.97.04s1.13-.11,2.19.4c1.05.51,2.56,1.49,2.99,1.84.44.34,2.25,2.15,2.67,3.25.45,1.09.29,2.04.29,2.04v10.46h-12.75s-1.37-.08-1.77-.23c-.4-.15-1.74-.6-2.88-1.59,0,0-1.7-1.91-1.92-2.68,0,0-.78-1.7-.76-1.91.01-.22,0-11.61,0-11.61h-.03ZM97.77,115.74l11.97.04s1.13-.1,2.19.42c1.05.5,2.56,1.49,3,1.83.44.36,2.25,2.16,2.67,3.25.45,1.08.29,2.06.29,2.06v10.44h-12.75s-1.38-.08-1.79-.23c-.41-.15-1.75-.6-2.89-1.6,0,0-1.68-1.9-1.91-2.69,0,0-.78-1.7-.77-1.91.02-.23,0-11.61,0-11.61h0ZM259.8,115.62l-11.97.02s-1.15-.09-2.2.41c-1.04.51-2.56,1.5-2.99,1.86-.43.34-2.24,2.15-2.68,3.23-.42,1.11-.27,2.06-.27,2.06v10.46h12.75s1.4-.09,1.79-.24c.41-.15,1.76-.6,2.86-1.6,0,0,1.72-1.91,1.91-2.7,0,0,.8-1.68.8-1.91-.01-.23,0-11.61,0-11.61h-.03ZM224.23,115.74s-1.13-.11-2.18.4c-1.04.51-2.56,1.5-2.99,1.84-.42.34-2.24,2.15-2.67,3.25-.44,1.08-.27,2.04-.27,2.04v10.46h12.75s1.38-.1,1.79-.24c.39-.15,1.73-.61,2.86-1.58,0,0,1.7-1.92,1.91-2.71,0,0,.79-1.68.79-1.9-.02-.22,0-11.61,0-11.61l-11.98.04-.02.02ZM121.52,94.36l11.96.04s1.13-.09,2.18.4c1.06.51,2.57,1.5,3,1.84.44.36,2.24,2.16,2.67,3.25.44,1.09.27,2.05.27,2.05v10.48h-12.76s-1.37-.08-1.77-.23c-.4-.15-1.74-.61-2.87-1.6,0,0-1.7-1.91-1.92-2.7,0,0-.76-1.68-.76-1.9.03-.21,0-11.62,0-11.62h.01ZM212.42,94.28l-11.97.04s-1.15-.11-2.21.4c-1.04.5-2.56,1.49-2.98,1.83-.43.34-2.25,2.15-2.67,3.25-.44,1.08-.27,2.04-.27,2.04v10.46h12.75s1.37-.08,1.78-.23c.4-.15,1.74-.61,2.87-1.59,0,0,1.7-1.91,1.91-2.69,0,0,.79-1.7.76-1.91v-11.61h.02ZM145.17,94.36l11.97.04s1.13-.11,2.19.4c1.05.5,2.56,1.5,2.99,1.83.45.35,2.25,2.16,2.7,3.25.43,1.08.27,2.03.27,2.03v10.47h-12.78s-1.38-.09-1.78-.24c-.4-.15-1.74-.61-2.87-1.6,0,0-1.7-1.91-1.92-2.69,0,0-.78-1.69-.77-1.91.02-.22,0-11.61,0-11.61l.02.02ZM188.82,94.36l-11.97.04s-1.15-.11-2.21.4c-1.05.5-2.56,1.5-2.99,1.83-.45.35-2.25,2.16-2.67,3.25-.46,1.08-.29,2.03-.29,2.03v10.47h12.75s1.39-.09,1.79-.24c.41-.15,1.76-.61,2.89-1.6,0,0,1.7-1.91,1.92-2.69,0,0,.77-1.69.76-1.91-.02-.22,0-11.61,0-11.61l.02.02ZM97.75,94.4h11.97s1.13-.08,2.19.43c1.03.5,2.56,1.49,2.98,1.84.42.34,2.22,2.15,2.67,3.23.42,1.08.27,2.04.27,2.04v10.47h-12.75s-1.37-.1-1.79-.23c-.4-.15-1.74-.61-2.88-1.6,0,0-1.7-1.92-1.91-2.7,0,0-.79-1.68-.78-1.91.02-.21,0-11.61,0-11.61l.04.03ZM236.2,94.34l-11.99.03s-1.13-.08-2.18.42c-1.07.51-2.56,1.49-3.02,1.86-.42.34-2.24,2.15-2.67,3.24-.44,1.09-.27,2.05-.27,2.05v10.46h12.75s1.38-.08,1.79-.23c.39-.15,1.73-.6,2.86-1.6,0,0,1.7-1.89,1.92-2.68,0,0,.79-1.69.78-1.91-.04-.22,0-11.61,0-11.61v-.03ZM145.21,72.96l11.97.03s1.13-.08,2.19.42c1.06.5,2.56,1.49,3,1.83.42.34,2.23,2.18,2.67,3.25.44,1.1.27,2.05.27,2.05v10.46h-12.75s-1.37-.1-1.78-.26c-.41-.14-1.75-.6-2.88-1.58,0,0-1.7-1.91-1.92-2.7,0,0-.8-1.69-.79-1.91.02-.21,0-11.61,0-11.61h.03ZM188.86,72.96l-11.97.03s-1.12-.08-2.18.42c-1.05.5-2.56,1.49-3,1.83-.43.34-2.24,2.18-2.68,3.25-.42,1.1-.27,2.05-.27,2.05v10.46h12.75s1.37-.1,1.77-.26c.39-.14,1.74-.6,2.87-1.58,0,0,1.7-1.91,1.92-2.7,0,0,.78-1.69.76-1.91-.01-.21,0-11.61,0-11.61h.02Z"/>
  <g>
    <path class="cls-1" d="M417.9,110.55v-42.91h15c2.99,0,5.45.51,7.4,1.54,1.94,1.03,3.39,2.4,4.34,4.13.95,1.72,1.42,3.63,1.42,5.73,0,1.84-.33,3.37-.97,4.57-.65,1.2-1.5,2.15-2.56,2.85-1.06.7-2.2,1.22-3.43,1.55v.42c1.31.08,2.63.54,3.96,1.38,1.33.84,2.44,2.04,3.33,3.6.89,1.56,1.34,3.48,1.34,5.74s-.49,4.08-1.47,5.8c-.98,1.72-2.52,3.08-4.63,4.08-2.11,1.01-4.85,1.51-8.23,1.51h-15.5ZM423.09,86.5h9.64c1.56,0,2.98-.31,4.24-.92,1.26-.61,2.27-1.48,3.02-2.6.75-1.12,1.12-2.43,1.12-3.94,0-1.89-.66-3.49-1.97-4.81-1.31-1.32-3.39-1.98-6.24-1.98h-9.81v14.25ZM423.09,105.94h10.31c3.39,0,5.81-.66,7.24-1.98,1.43-1.32,2.15-2.92,2.15-4.81,0-1.45-.37-2.8-1.11-4.03-.74-1.24-1.79-2.23-3.16-2.98-1.37-.75-2.99-1.12-4.86-1.12h-10.56v14.92Z"/>
    <path class="cls-1" d="M461.77,110.55v-42.91h5.2v38.3h19.95v4.61h-25.14Z"/>
    <path class="cls-1" d="M500.44,110.55v-42.91h25.9v4.61h-20.7v14.5h19.36v4.61h-19.36v14.58h21.04v4.61h-26.23Z"/>
    <path class="cls-1" d="M541.21,110.55v-42.91h5.2v21.29h.5l19.28-21.29h6.79l-18.02,19.36,18.02,23.55h-6.29l-14.92-19.95-5.36,6.03v13.91h-5.2Z"/>
    <path class="cls-1" d="M590.36,67.64v42.91h-5.2v-42.91h5.2Z"/>
    <path class="cls-1" d="M640.26,67.64v42.91h-5.03l-23.38-33.69h-.42v33.69h-5.2v-42.91h5.03l23.47,33.77h.42v-33.77h5.11Z"/>
    <path class="cls-1" d="M685.48,81.05c-.46-1.41-1.07-2.68-1.81-3.8-.75-1.12-1.63-2.08-2.66-2.88-1.03-.8-2.19-1.4-3.49-1.82-1.3-.42-2.72-.63-4.27-.63-2.54,0-4.85.66-6.94,1.97-2.08,1.31-3.74,3.25-4.97,5.8-1.23,2.56-1.84,5.69-1.84,9.41s.62,6.85,1.87,9.41c1.24,2.56,2.93,4.49,5.05,5.8,2.12,1.31,4.51,1.97,7.17,1.97,2.46,0,4.63-.53,6.51-1.58,1.88-1.05,3.34-2.55,4.4-4.48s1.58-4.21,1.58-6.84l1.59.34h-12.91v-4.61h16.34v4.61c0,3.53-.75,6.61-2.25,9.22-1.5,2.61-3.57,4.63-6.2,6.07s-5.65,2.15-9.06,2.15c-3.8,0-7.13-.89-10-2.68-2.87-1.79-5.11-4.33-6.7-7.63-1.6-3.3-2.4-7.21-2.4-11.73,0-3.39.46-6.45,1.37-9.17.91-2.72,2.21-5.03,3.89-6.95,1.68-1.91,3.66-3.38,5.95-4.4,2.29-1.02,4.81-1.53,7.56-1.53,2.26,0,4.38.34,6.34,1.02,1.96.68,3.71,1.63,5.26,2.87,1.54,1.24,2.83,2.71,3.87,4.42,1.03,1.71,1.75,3.61,2.14,5.69h-5.36Z"/>
    <path class="cls-1" d="M705.46,110.55v-42.91h25.9v4.61h-20.7v14.5h19.36v4.61h-19.36v14.58h21.04v4.61h-26.23Z"/>
    <path class="cls-1" d="M415.55,143.05v-4.61h32.18v4.61h-13.49v38.3h-5.2v-38.3h-13.49Z"/>
    <path class="cls-1" d="M461.38,181.35v-42.91h25.9v4.61h-20.7v14.5h19.36v4.61h-19.36v14.58h21.04v4.61h-26.23Z"/>
    <path class="cls-1" d="M502.27,181.35v-42.91h5.2v21.29h.5l19.28-21.29h6.79l-18.02,19.36,18.02,23.55h-6.29l-14.92-19.95-5.36,6.03v13.91h-5.2Z"/>
    <path class="cls-1" d="M580.37,138.44v42.91h-5.03l-23.38-33.69h-.42v33.69h-5.2v-42.91h5.03l23.47,33.77h.42v-33.77h5.11Z"/>
    <path class="cls-1" d="M601.56,138.44v42.91h-5.2v-42.91h5.2Z"/>
    <path class="cls-1" d="M641.02,149.17c-.25-2.12-1.27-3.77-3.06-4.94-1.79-1.17-3.98-1.76-6.58-1.76-1.9,0-3.56.31-4.98.92-1.42.62-2.52,1.46-3.31,2.54-.79,1.08-1.18,2.3-1.18,3.67,0,1.15.28,2.13.83,2.94.55.82,1.26,1.5,2.13,2.03.87.54,1.77.98,2.72,1.32.95.34,1.82.62,2.62.83l4.36,1.17c1.12.29,2.36.7,3.74,1.21,1.38.52,2.7,1.22,3.96,2.11,1.26.89,2.31,2.02,3.13,3.41s1.24,3.08,1.24,5.09c0,2.32-.6,4.41-1.81,6.29-1.21,1.87-2.97,3.36-5.28,4.46-2.31,1.1-5.12,1.66-8.41,1.66-3.07,0-5.73-.5-7.97-1.49-2.24-.99-4-2.37-5.28-4.15-1.28-1.77-2-3.83-2.17-6.18h5.36c.14,1.62.69,2.96,1.64,4.01s2.17,1.84,3.65,2.35c1.47.51,3.06.77,4.77.77,1.98,0,3.76-.33,5.34-.97s2.83-1.56,3.75-2.72,1.38-2.53,1.38-4.1c0-1.42-.4-2.58-1.19-3.48-.8-.89-1.84-1.62-3.14-2.18-1.3-.56-2.7-1.05-4.21-1.47l-5.28-1.51c-3.35-.96-6.01-2.34-7.96-4.13-1.96-1.79-2.93-4.13-2.93-7.02,0-2.4.65-4.5,1.96-6.3,1.31-1.79,3.07-3.19,5.28-4.19,2.21-1,4.69-1.5,7.43-1.5s5.22.49,7.38,1.48c2.15.98,3.86,2.33,5.12,4.03,1.26,1.7,1.93,3.64,2,5.8h-5.03Z"/>
    <path class="cls-1" d="M660.79,181.35v-42.91h5.2v21.29h.5l19.28-21.29h6.79l-18.02,19.36,18.02,23.55h-6.29l-14.92-19.95-5.36,6.03v13.91h-5.2Z"/>
    <path class="cls-1" d="M706.62,181.35h-5.45l15.76-42.91h5.36l15.76,42.91h-5.45l-12.82-36.12h-.33l-12.82,36.12ZM708.63,164.59h21.96v4.61h-21.96v-4.61Z"/>
    <path class="cls-1" d="M417.9,252.15v-42.91h5.2v19.11h22.88v-19.11h5.2v42.91h-5.2v-19.19h-22.88v19.19h-5.2Z"/>
    <path class="cls-1" d="M497.76,230.69c0,4.53-.82,8.44-2.45,11.73-1.63,3.3-3.88,5.84-6.73,7.63s-6.1,2.68-9.76,2.68-6.91-.89-9.76-2.68c-2.85-1.79-5.09-4.33-6.72-7.63-1.63-3.3-2.45-7.21-2.45-11.73s.82-8.44,2.45-11.73c1.63-3.3,3.88-5.84,6.72-7.63,2.85-1.79,6.1-2.68,9.76-2.68s6.91.89,9.76,2.68,5.09,4.33,6.73,7.63c1.63,3.3,2.45,7.21,2.45,11.73ZM492.74,230.69c0-3.72-.62-6.85-1.85-9.41-1.24-2.56-2.91-4.49-5.01-5.8-2.1-1.31-4.45-1.97-7.05-1.97s-4.95.66-7.05,1.97c-2.1,1.31-3.77,3.25-5.01,5.8-1.24,2.56-1.85,5.69-1.85,9.41s.62,6.85,1.85,9.41c1.24,2.56,2.91,4.49,5.01,5.8,2.1,1.31,4.45,1.97,7.05,1.97s4.95-.66,7.05-1.97c2.1-1.31,3.77-3.25,5.01-5.8,1.24-2.56,1.85-5.69,1.85-9.41ZM472.79,203.88c-.88,0-1.66-.34-2.34-1.02-.68-.68-1.02-1.46-1.02-2.34,0-.96.34-1.76,1.02-2.4.68-.63,1.46-.95,2.34-.95.96,0,1.76.32,2.4.95.64.64.95,1.44.95,2.4,0,.88-.32,1.66-.95,2.34-.64.68-1.44,1.02-2.4,1.02ZM484.86,203.88c-.88,0-1.66-.34-2.34-1.02-.68-.68-1.02-1.46-1.02-2.34,0-.96.34-1.76,1.02-2.4.68-.63,1.46-.95,2.34-.95.96,0,1.76.32,2.4.95.63.64.95,1.44.95,2.4,0,.88-.32,1.66-.95,2.34-.64.68-1.44,1.02-2.4,1.02Z"/>
    <path class="cls-1" d="M535.81,222.65c-.46-1.41-1.07-2.68-1.81-3.8-.75-1.12-1.63-2.08-2.66-2.88-1.03-.8-2.19-1.4-3.49-1.82-1.3-.42-2.72-.63-4.27-.63-2.54,0-4.85.66-6.94,1.97-2.08,1.31-3.74,3.25-4.97,5.8-1.23,2.56-1.84,5.69-1.84,9.41s.62,6.85,1.87,9.41c1.24,2.56,2.93,4.49,5.05,5.8,2.12,1.31,4.51,1.97,7.17,1.97,2.46,0,4.63-.53,6.51-1.58,1.88-1.05,3.34-2.55,4.4-4.48s1.58-4.21,1.58-6.84l1.59.34h-12.91v-4.61h16.34v4.61c0,3.53-.75,6.61-2.25,9.22-1.5,2.61-3.57,4.63-6.2,6.07s-5.65,2.15-9.06,2.15c-3.8,0-7.13-.89-10-2.68-2.87-1.79-5.11-4.33-6.7-7.63-1.6-3.3-2.4-7.21-2.4-11.73,0-3.39.46-6.45,1.37-9.17.91-2.72,2.21-5.03,3.89-6.95,1.68-1.91,3.66-3.38,5.95-4.4,2.29-1.02,4.81-1.53,7.56-1.53,2.26,0,4.38.34,6.34,1.02,1.96.68,3.71,1.63,5.26,2.87,1.54,1.24,2.83,2.71,3.87,4.42,1.03,1.71,1.75,3.61,2.14,5.69h-5.36Z"/>
    <path class="cls-1" d="M573.78,219.97c-.25-2.12-1.27-3.77-3.06-4.94-1.79-1.17-3.98-1.76-6.58-1.76-1.9,0-3.56.31-4.98.92-1.42.62-2.52,1.46-3.31,2.54-.79,1.08-1.18,2.3-1.18,3.67,0,1.15.28,2.13.83,2.94.55.82,1.26,1.5,2.13,2.03.87.54,1.77.98,2.72,1.32.95.34,1.82.62,2.62.83l4.36,1.17c1.12.29,2.36.7,3.74,1.21,1.38.52,2.7,1.22,3.96,2.11,1.26.89,2.31,2.02,3.13,3.41s1.24,3.08,1.24,5.09c0,2.32-.6,4.41-1.81,6.29-1.21,1.87-2.97,3.36-5.28,4.46-2.31,1.1-5.12,1.66-8.41,1.66-3.07,0-5.73-.5-7.97-1.49-2.24-.99-4-2.37-5.28-4.15-1.28-1.77-2-3.83-2.17-6.18h5.36c.14,1.62.69,2.96,1.64,4.01s2.17,1.84,3.65,2.35c1.47.51,3.06.77,4.77.77,1.98,0,3.76-.33,5.34-.97s2.83-1.56,3.75-2.72,1.38-2.53,1.38-4.1c0-1.42-.4-2.58-1.19-3.48-.8-.89-1.84-1.62-3.14-2.18-1.3-.56-2.7-1.05-4.21-1.47l-5.28-1.51c-3.35-.96-6.01-2.34-7.96-4.13-1.96-1.79-2.93-4.13-2.93-7.02,0-2.4.65-4.5,1.96-6.3,1.31-1.79,3.07-3.19,5.28-4.19,2.21-1,4.69-1.5,7.43-1.5s5.22.49,7.38,1.48c2.15.98,3.86,2.33,5.12,4.03,1.26,1.7,1.93,3.64,2,5.8h-5.03Z"/>
    <path class="cls-1" d="M587.94,252.15v-42.91h5.2v21.29h.5l19.28-21.29h6.79l-18.02,19.36,18.02,23.55h-6.29l-14.92-19.95-5.36,6.03v13.91h-5.2Z"/>
    <path class="cls-1" d="M660.6,230.69c0,4.53-.82,8.44-2.45,11.73-1.63,3.3-3.88,5.84-6.73,7.63s-6.1,2.68-9.76,2.68-6.91-.89-9.76-2.68c-2.85-1.79-5.09-4.33-6.72-7.63-1.63-3.3-2.45-7.21-2.45-11.73s.82-8.44,2.45-11.73c1.63-3.3,3.88-5.84,6.72-7.63,2.85-1.79,6.1-2.68,9.76-2.68s6.91.89,9.76,2.68,5.09,4.33,6.73,7.63c1.63,3.3,2.45,7.21,2.45,11.73ZM655.57,230.69c0-3.72-.62-6.85-1.85-9.41-1.24-2.56-2.91-4.49-5.01-5.8-2.1-1.31-4.45-1.97-7.05-1.97s-4.95.66-7.05,1.97c-2.1,1.31-3.77,3.25-5.01,5.8-1.24,2.56-1.85,5.69-1.85,9.41s.62,6.85,1.85,9.41c1.24,2.56,2.91,4.49,5.01,5.8,2.1,1.31,4.45,1.97,7.05,1.97s4.95-.66,7.05-1.97c2.1-1.31,3.77-3.25,5.01-5.8,1.24-2.56,1.85-5.69,1.85-9.41Z"/>
    <path class="cls-1" d="M669.31,252.15v-42.91h5.2v38.3h19.95v4.61h-25.14Z"/>
    <path class="cls-1" d="M706.94,252.15h-5.45l15.76-42.91h5.36l15.76,42.91h-5.45l-12.82-36.12h-.33l-12.82,36.12ZM708.95,235.39h21.96v4.61h-21.96v-4.61Z"/>
  </g>
</svg>