<?xml version="1.0" encoding="UTF-8"?>
<svg id="Layer_1" data-name="Layer 1" xmlns="http://www.w3.org/2000/svg" viewBox="0 0 740.81 170.84">
  <defs>
    <style>
      .cls-1 {
        fill: #1f191a;
      }

      .cls-2 {
        fill: #522682;
      }
    </style>
  </defs>
  <path class="cls-2" d="M151.94,165.81c-16.8,1.38-33.89-1.8-49.16-8.8-3.08-1.41-5.99-3.26-9.11-4.51-2.67,1.09-5.15,2.73-7.78,3.98-15.54,7.39-33.02,11.02-50.27,9.51-8.35-18.27-9.33-39.69-5.11-59.19C16.94,94.66,5.09,78.05.54,60.18c-.28-1.11-.97-2.95-.53-4,.2-.47,3.96-3.3,4.69-3.85,14.38-10.74,31.96-16.97,49.84-18.61,4.88-12.39,12.9-23.68,22.62-32.74,6.14,2.19,11.25,6.39,16.52,10.09,2.82-1.87,5.46-4.01,8.32-5.82,1.11-.7,7.54-4.61,8.34-4.21,9.54,8.97,16.96,20.03,22.15,32.04,17.34,1.79,33.9,7.47,48.13,17.52,1.74,1.23,4.43,3.07,5.91,4.5.36.35.87.64.95,1.21.11.78-1.21,4.86-1.54,5.93-5.36,17.28-15.89,32.65-29.39,44.55,4.28,19.51,3.12,40.53-4.62,59.01ZM68.43,51.61c2.88-10.62,7.75-20.75,14.41-29.5-.34-.87-1.77-2.19-2.73-1.98-.38.08-3.97,5.51-4.46,6.28-4.38,6.88-7.45,14.22-10.13,21.91-6.05-.29-12.2.21-18.15,1.31-10.58,1.95-20.65,6.27-29.63,12.06,5.2,16.13,17.06,29.55,30.68,39.22-5.6,15.87-6.54,33.47-1.81,49.69,14.17-.3,28.29-4.92,40.24-12.4,1-.63,6.43-4.61,6.84-4.66.3-.03.59.07.85.21,8.32,6.07,17.49,11.18,27.5,13.87,6.13,1.65,12.42,2.41,18.73,3.01,2.9-10.18,3.92-20.78,2.64-31.32-.78-6.39-2.57-12.57-4.52-18.67,9.82-6.31,18.17-15.21,24.31-25.13,2.19-3.54,4.49-7.86,5.8-11.82.24-.72.82-1.78.48-2.47s-8.03-4.78-9.3-5.39c-12.11-5.77-25.21-8.1-38.62-8.08-3.16-10-7.36-19.53-14.18-27.58-.82-.48-2.77,1.49-2.59,2.16.1.36,3.73,5.09,4.35,6.08,4.4,7.02,7.74,15.14,9.78,23.18,13.22-.94,26.85,1.34,38.86,6.9,1.1.51,7.61,3.78,7.79,4.5-5.82,15.01-17.24,27.63-30.68,36.28-.16.66,2.17,6.53,2.55,7.83,3.24,11.07,4.12,24.2,1.92,35.54-.27,1.37-.58,2.72-.95,4.06-.21.31-4.89-.29-5.73-.42-14.36-2.07-27.61-8.42-38.95-17.27-12.69,10.28-27.91,16.83-44.33,18.13-3.89-13.98-2.73-28.4,1.31-42.18.32-1.09,1.93-5,1.7-5.69-.1-.31-4.63-3.12-5.39-3.7-11.14-8.36-19.99-19.39-25.25-32.35,13.78-9.02,30.24-12.48,46.65-11.66ZM106.08,69.25c-.2-12.94-4.34-25.73-12.14-36.02-7.92,10.39-11.7,23.57-12.14,36.55-12.17-3.76-26.2-4.43-38.15.4,7.41,10.69,18.73,17.73,30.68,22.42-7.41,10.46-11.75,23.25-11.47,36.16,10.91-3.15,20.78-9.84,28.16-18.41.44-.51,2.46-3.42,2.67-3.47.34-.08.59.33.8.53,1.63,1.57,3.25,4.08,4.92,5.75,5.03,5.04,12.11,9.96,18.6,12.89.87.39,6.65,2.82,7.03,2.44.34-12.85-4.09-25.52-11.47-35.9,3.45-1.64,7.04-2.97,10.4-4.8,7.9-4.28,15.27-10.38,20.27-17.89-.04-.57-5.76-1.95-6.66-2.14-10.53-2.2-21.19-1.34-31.49,1.47Z"/>
  <path class="cls-1" d="M212.29,82.33l2.13-2.27c1.57-1.83,1.8-4.1,2.14-6.4-.71-15.14.95-31.14.02-46.18-.24-3.9-.63-5.97-3.94-8.06-.27-.17-.47.02-.34-.6,8.08.26,16.38-.35,24.43-.01,15.39.65,30,6.74,33.83,23.01,3.31,14.05-1.95,28.31-14.58,35.49-13.32,7.57-29.01,4.34-43.68,5.02ZM226.44,26.82l.11,47.78c12.74,2.66,28.79-1.85,32.78-15.56,2.09-7.19,1.22-17.48-3.06-23.77-6.51-9.59-19.38-10.39-29.84-8.45Z"/>
  <path class="cls-1" d="M537.6,18.81c.59,2.01,2.26,3.56,3.36,5.31l34.53,43.53V26.42c0-1.38-1.52-4.46-2.54-5.47-.68-.67-2.15-1.09-2.27-2.14h16.81c.11.5-.17.52-.44.76-.83.71-1.73,1.06-2.49,2.05-1.26,1.62-2.14,4.96-2.14,6.94v56.71c-4.51-1.15-8.27-4.09-11.35-7.47l-35.62-45.1v40.96c0,3,1.69,5.71,3.87,7.61.52.45,1.36.33,1.2,1.07h-17.08c-.05-.72,1.04-.96,1.6-1.47,2.62-2.36,3.26-4.5,3.48-8,.91-14.69-.71-30.32-.02-45.11-.25-3.33-1.11-5.4-3.6-7.61-.62-.55-1.45-.26-1.2-1.33h13.88Z"/>
  <path class="cls-1" d="M295.02,103.41c.41,1.76,1.99,2.95,2.82,4.51l35.07,44.06v-40.7c0-1.53-1.23-4.3-2.27-5.47-.84-.96-2.14-1.33-2.54-2.4h16.81c.05.72-1.04.96-1.6,1.47-1.7,1.53-2.63,2.88-3.08,5.19-.1.54-.39,2.38-.39,2.82v56.98c-4.18-1.25-7.87-3.76-10.81-6.93l-36.16-45.64v40.96c0,.94.74,3.49,1.19,4.41.8,1.63,2.22,2.82,3.75,3.72.26.15-.24.54-.27.54h-16.68c-.12-.51.19-.51.45-.75,3.53-3.22,4.31-3.73,4.63-8.98.91-14.6-.7-30.14-.02-44.84-.29-2.52-.76-4.88-2.56-6.78-.66-.69-2.03-1.21-2.24-2.16h13.88Z"/>
  <path class="cls-1" d="M229.37,103.41c.19.76-.6.56-1.05.94-3.98,3.38-2.96,8.72-2.94,13.32.03,9.19-.64,19.55-.02,28.58.37,5.42,2.86,11.51,8.1,13.78,8.31,3.6,20.55-.11,22.84-9.54-.05-12.24,1.04-25.42.29-37.6-.21-3.32-.58-6.29-3.21-8.53-.46-.39-1.24-.19-1.05-.94h18.15c.06.73-1.05.94-1.61,1.46-1.56,1.46-2.06,3.84-2.39,5.88.77,15.72-1.03,32.44-.02,48.04.25,3.78.9,5.45,3.93,7.53.24.16.49-.05.35.6h-14.14v-5.87l-5.26,3.95c-14.08,7.12-33.87,3.25-35.84-14.76-1.4-12.86.97-27.29-.3-39.99-.23-2.35-.99-4.21-2.77-5.77-.51-.45-1.36-.32-1.2-1.07h18.15Z"/>
  <path class="cls-1" d="M494.37,166.92c.18-.92,1.28-1.09,2.01-1.86,1.4-1.49,1.88-4.01,2.01-6,1.02-15.7-.79-32.5-.02-48.31-.25-1.58-.51-3.17-1.27-4.6l-2.72-2.75c8.11.36,16.63-.48,24.7-.01,6.3.36,13.09,2.75,16.27,8.55,5.63,10.27-2.87,21.68-13.22,23.76l.04.62c6.98,8.17,12.77,17.62,21.03,24.6,2.36,1.99,5.05,3.54,7.41,5.39.22.17.49-.01.34.61h-10.01c-3.22,0-6.86-1.69-9.08-4-3.82-3.98-9.22-10.96-12.52-15.51-3.08-4.25-5.51-9.01-8.67-13.22-.15-.45.18-.4.5-.5,4.54-1.33,8.31-1.57,12.14-4.95,4.84-4.27,5.4-12.27.27-16.53-4.3-3.57-10.14-3-15.22-1.89l-.13.67c.72,15.24-.92,31.3.02,46.44.15,2.36.59,5.84,2.26,7.61.72.77,1.83.95,2.01,1.86h-18.15Z"/>
  <path class="cls-1" d="M463.15,82.33c-.13-.63.07-.43.34-.6.57-.36,1.08-.41,1.67-.99,1.66-1.64,2.14-5.34,2.27-7.6.92-15.66-.45-32.53-.35-48.25-.57-3-1.34-3.72-3.6-5.46-.22-.17-.49,0-.34-.61,9.49.68,20.71-1.28,29.94.88,17.46,4.09,16.53,23.56,1.11,30.57-.94.43-2.11.61-2.96,1.05-.25.13-.43-.07-.33.45,7.12,8.17,12.89,17.65,21.22,24.68l7.87,5.88h-11.34c-2.42,0-6.05-2.03-7.75-3.73-3.7-3.7-9.33-11.13-12.51-15.51s-5.64-8.96-8.64-13.24l-.05-.61c5.87-.81,13.54-3.42,15.69-9.54,1.44-4.1.63-8.91-2.74-11.82-4.23-3.65-10.29-3.36-15.37-1.96l.02,49.07c.34,3.33,1.43,5.55,4.27,7.34h-18.41Z"/>
  <path class="cls-1" d="M628.07,18.81l21.92,54.27c1.94,4.18,3.28,6.05,7.09,8.65.24.16.49-.05.35.6h-19.75c1.41-1.34,3.9-1.9,3.45-4.38l-7.23-19.33h-24.2c-1.6,4.88-3.8,9.61-5.38,14.49-.86,2.65-2.25,5.83.41,7.88.63.48,1.81.58,1.73,1.34h-17.61c1.33-1.3,2.87-2.02,4.14-3.47s2.16-3.27,3.03-4.98c5.5-15.67,13.29-31.08,18.65-46.73.71-2.06,1.92-4.64.34-6.61-.56-.7-1.18-.74-1.8-1.13-.27-.17-.47.03-.34-.6h15.21ZM612.32,51.37h18.68l-9.21-23.75-9.47,23.75Z"/>
  <path class="cls-1" d="M307.7,18.81l22.32,54.8c2.05,4.32,3.23,5.27,6.83,8.1.22.17.49-.01.34.61h-19.48c-.13-.76,1.01-.78,1.58-1.22,1.02-.78,1.89-1.77,1.59-3.15-2.04-6.53-4.8-12.84-7.17-19.26l-23.91-.14-.42.18c-1.4,4.41-3.32,8.66-4.78,13.05-.94,2.82-3.01,6.93-.13,9.21.65.51,1.59.6,2,1.33h-17.61c.15-.94,1.51-1.25,2.26-1.87,2.24-1.87,3.71-4.48,4.91-7.1,7.25-15.87,12.84-33.45,19.49-49.63.3-2.91-.53-3.02-2.56-4.31-.27-.17-.47.03-.34-.6h15.08ZM310.77,51.37l-9.08-24.02-9.6,24.02h18.68Z"/>
  <path class="cls-1" d="M428.59,18.81c.35.11,1.35,2.66,1.59,3.21,7.26,16.72,13.06,34.93,20.73,51.32,1.44,3.07,3.06,5.74,5.86,7.75.58.42,1.7.49,1.58,1.23h-19.75c-.13-.63.08-.43.34-.6.76-.49,1.68-.59,2.33-1.4,1.33-1.65.31-3.58-.27-5.35-1.78-5.48-4.52-10.82-6.17-16.38l-24.26.1c-1.74,4.7-3.8,9.37-5.34,14.14-.74,2.29-2.18,5.53-.38,7.59.68.78,1.44.81,2.17,1.29.26.17.47-.03.34.6h-17.61c-.14-.64.11-.43.35-.6,3.7-2.53,4.9-4.01,6.82-8.12,7.29-15.6,12.62-33.23,19.46-49.13.11-1.31.31-2.99-.62-4.05-.63-.71-1.91-.66-1.98-1.62h14.81ZM431.92,51.37l-9.6-24.02-9.08,24.02h18.68Z"/>
  <path class="cls-1" d="M592.31,103.94v10.67l-4.36-2.98c-6.69-4.82-26.38-3.61-22.68,8.26,2.09,6.69,17.52,11.42,23.54,15.15,9.16,5.68,12.55,14.3,5.47,23.57-8.86,11.61-26.69,11.27-39.28,6.9l-2.74-11.55.14-.4c7.18,5.85,18.46,10.01,27.49,6.41,8.34-3.32,9.54-11.57,2.24-16.93-9-6.61-26.85-8.76-28.23-22.47-1.96-19.4,25.31-21.16,38.4-16.65Z"/>
  <path class="cls-1" d="M479.69,102.87v11.48l-3.64-2.64c-5.61-2.09-11.92-1.35-17.71-.57v17.61l16.01-.27v10.14l-2.57-1.83c-.49-.22-2.23-.83-2.63-.83h-10.81v22.68l14.01,1.36c4.3-.3,8.47-1.1,12.22-3.28l3.92-2.62-4.27,12.81h-40.03c.18-.92,1.28-1.09,2.01-1.86,1.2-1.28,1.59-3.07,1.92-4.75,0-15.42,1.16-31.21.35-46.64-.21-4.1-.38-7.24-3.93-9.67-.24-.16-.49.05-.35-.6h34.03c.27,0,.99-.67,1.47-.53Z"/>
  <path class="cls-1" d="M393.23,103.41l.07,2.73c5.36,16.52,11.72,32.73,17.68,49.04,4.32-12.35,9.68-24.39,13.94-36.76,1.5-4.35,4.24-10.51.05-14.07-.46-.39-1.24-.19-1.05-.94h14.14l-25.22,66.19c-3.93-2.23-7.91-4.76-10.1-8.84-.64-1.18-1.19-2.65-1.7-3.9-6.8-16.59-11.41-34.26-19.33-50.32l-2.62-3.11h14.14Z"/>
  <path class="cls-1" d="M693.32,103.41c1.8.21,4,1.16,5.05,2.69l14.88,24.35.62.44,11.99-17.9c1.89-3.36,2.57-5.9-.66-8.64-.46-.39-1.24-.19-1.05-.94h16.81l-23.42,35.42c.4,6.47-.77,14.12-.04,20.46.2,1.74,1.11,3.64,2.24,4.97.81.96,2.16,1.58,2.54,2.67h-18.68c.01-.87,1.07-1.13,1.61-1.72,2.87-3.13,2.12-7.68,2.11-11.48,0-4.96.08-9.93-.05-14.89-7.15-10.89-13.11-22.75-21.28-32.89l-3.47-2.53c3.42.29,7.47-.4,10.81,0Z"/>
  <path class="cls-1" d="M648.88,110.35c-5.34.13-10.96-.6-16.01,1.47l-4.01,2.26c.78-3.76,2.02-7.46,3.19-11.09.39-.27,3.28.39,4.13.43,12.99.62,26.47-.49,39.52,0l3.33-.54-2.94,11.21c-.32.29-1.59-1.53-1.99-1.87-1.19-1-3.81-1.86-5.34-1.86h-10.01v48.44c0,2.5,1.62,4.88,3.33,6.55.52.51,1.49.78,1.47,1.59h-18.95l2.72-2.75c.65-1.03,1.55-3.96,1.55-5.12v-48.7Z"/>
  <path class="cls-1" d="M360.14,18.81c-.18.92-1.28,1.09-2.01,1.86-1.96,2.09-1.87,5.23-2.26,7.88l.03,45.59.63.44c7.92-.07,16.06,2.34,23.53-1.29l6.22-3.78-4.8,12.81h-39.76c.58-.69,1.32-.91,2.01-1.59,1.63-1.61,2.13-4.04,2.27-6.27,1.02-15.69-.79-32.5-.02-48.31-.44-2.69-1.26-6.04-4.26-6.81-.08-.1.35-.53.4-.53h18.01Z"/>
  <path class="cls-1" d="M622.46,103.41c.43.34-1.35,1.23-1.61,1.46-1.51,1.41-2.23,4.13-2.39,6.15-1.25,15.33.94,32.28-.02,47.78.13,1.96.76,4.95,2.15,6.39.6.62,1.8.83,1.87,1.74h-18.15c.29-1.01,1.51-1.19,2.27-2.13,1.43-1.76,1.86-5.38,1.99-7.61.92-15.32-.45-31.81-.3-47.2-.39-2.45-1.01-4.01-2.92-5.63-.46-.39-1.24-.19-1.05-.94h18.15Z"/>
  <path class="cls-1" d="M372.41,103.41c.42.33-1.47,1.31-1.75,1.59-1.6,1.61-1.88,4.15-2.25,6.29.75,15.46-1.02,31.9-.02,47.24.14,2.2.7,5.17,2.31,6.76.57.57,1.68.77,1.71,1.63h-18.15c-.19-.76.6-.56,1.05-.94,1.69-1.43,2.46-2.95,2.88-5.13-.13-15.78,1.31-32.8.35-48.51-.24-3.95-.57-6.19-3.94-8.33-.27-.17-.47.03-.34-.6h18.15Z"/>
</svg>