<?xml version="1.0" encoding="UTF-8" standalone="no"?>
<svg
   xmlns:dc="http://purl.org/dc/elements/1.1/"
   xmlns:cc="http://creativecommons.org/ns#"
   xmlns:rdf="http://www.w3.org/1999/02/22-rdf-syntax-ns#"
   xmlns:svg="http://www.w3.org/2000/svg"
   xmlns="http://www.w3.org/2000/svg"
   viewBox="0 0 455.77332 214.75999"
   height="214.75999"
   width="455.77332"
   xml:space="preserve"
   id="svg2"
   version="1.1"><metadata
     id="metadata8"><rdf:RDF><cc:Work
         rdf:about=""><dc:format>image/svg+xml</dc:format><dc:type
           rdf:resource="http://purl.org/dc/dcmitype/StillImage" /></cc:Work></rdf:RDF></metadata><defs
     id="defs6" /><g
     transform="matrix(1.3333333,0,0,-1.3333333,0,214.76)"
     id="g10"><g
       transform="scale(0.1)"
       id="g12"><path
         id="path14"
         style="fill:#01465A;fill-opacity:1;fill-rule:nonzero;stroke:none"
         d="m 1257.59,1208.16 c 14.7,-21.55 49.49,-43.61 94.56,-43.61 35.28,0 59.28,15.68 59.28,41.16 0,30.87 -34.29,40.18 -89.17,54.39 -65.16,17.15 -99.45,47.03 -99.45,99.46 0,59.28 48.01,106.32 130.32,106.32 50.96,0 99.46,-17.15 129.84,-52.43 l -47.53,-44.58 c -19.1,21.56 -48.99,37.73 -85.24,37.73 -37.24,0 -52.93,-15.68 -52.93,-37.24 0,-23.52 21.56,-36.26 67.62,-48.51 89.66,-23.51 120.05,-52.92 120.05,-106.31 0,-71.06 -61.74,-109.76 -134.74,-109.76 -69.58,0 -116.62,23.52 -140.62,54.88 l 48.01,48.5" /><path
         id="path16"
         style="fill:#01465A;fill-opacity:1;fill-rule:nonzero;stroke:none"
         d="m 1495.27,1358.58 h 72.02 l 41.65,-182.26 37.72,182.26 h 71.53 l 37.73,-182.26 41.16,182.26 h 71.53 l -76.92,-245.96 h -72.02 l -37.73,153.36 -37.73,-153.36 h -72.02 l -76.92,245.96" /><path
         id="path18"
         style="fill:#01465A;fill-opacity:1;fill-rule:nonzero;stroke:none"
         d="m 1950.49,1258.13 h 99.46 c 0,30.87 -14.69,58.8 -48.5,58.8 -30.38,0 -47.03,-22.05 -50.96,-58.8 z m 0,-38.21 c 4.91,-45.56 27.93,-65.16 59.77,-65.16 24.02,0 41.16,10.78 53.41,32.83 l 49.48,-27.93 c -22.53,-35.77 -59.77,-54.88 -106.31,-54.88 -81.34,0 -124.44,56.84 -124.44,129.85 0,73.97 43.59,131.3 120.52,131.3 74.47,0 114.65,-54.88 114.65,-131.8 0,-8.33 -0.49,-12.25 -0.49,-14.21 h -166.59" /><path
         id="path20"
         style="fill:#01465A;fill-opacity:1;fill-rule:nonzero;stroke:none"
         d="m 2313.59,1244.42 c 0,33.8 -13.72,67.12 -47.53,67.12 -32.34,0 -48.01,-29.88 -48.01,-73 0,-47.52 19.11,-77.9 48.99,-77.9 32.34,0 46.55,33.8 46.55,73.49 z m 3.91,-92.12 c -13.21,-28.41 -36.25,-45.07 -70.54,-45.07 -59.29,0 -98.48,48.51 -98.48,130.33 0,90.15 47.52,127.88 97.98,127.88 34.31,0 57.34,-17.15 67.13,-37.73 v 130.82 h 67.12 v -345.91 h -63.21 v 39.68" /><path
         id="path22"
         style="fill:#01465A;fill-opacity:1;fill-rule:nonzero;stroke:none"
         d="m 2569.89,1186.61 c 15.19,-17.15 44.59,-32.83 73.99,-32.83 17.63,0 36.25,6.86 36.25,24.01 0,45.57 -132.78,20.09 -132.78,111.21 0,53.41 48.02,76.93 98.49,76.93 41.16,0 72.51,-10.78 97.49,-29.89 l -30.87,-44.09 c -13.21,12.73 -42.62,25.47 -69.07,25.47 -15.2,0 -28.42,-5.88 -28.42,-21.06 0,-41.65 132.28,-23.04 132.28,-110.25 0,-54.88 -51.44,-81.33 -100.43,-81.33 -44.1,0 -81.34,12.74 -108.29,36.75 l 31.36,45.08" /><path
         id="path24"
         style="fill:#01465A;fill-opacity:1;fill-rule:nonzero;stroke:none"
         d="m 2786.48,1458.53 h 66.64 v -138.17 c 11.76,24.5 37.24,45.57 76.93,45.57 53.89,0 78.88,-36.75 78.88,-100.93 v -152.38 h -66.63 v 141.11 c 0,34.29 -13.23,53.9 -40.67,53.9 -28.42,0 -48.51,-23.52 -48.51,-70.56 v -124.45 h -66.64 v 345.91" /><path
         id="path26"
         style="fill:#01465A;fill-opacity:1;fill-rule:nonzero;stroke:none"
         d="m 2434.15,1358.58 h 66.64 v -245.96 h -66.64 v 245.96" /><path
         id="path28"
         style="fill:#01465A;fill-opacity:1;fill-rule:nonzero;stroke:none"
         d="m 2467.47,1397.78 c 19.15,0 34.67,15.52 34.67,34.67 0,19.15 -15.52,34.67 -34.67,34.67 -19.15,0 -34.67,-15.52 -34.67,-34.67 0,-19.15 15.52,-34.67 34.67,-34.67" /><path
         id="path30"
         style="fill:#01465A;fill-opacity:1;fill-rule:nonzero;stroke:none"
         d="m 1367.51,663.633 c 80.84,0 102.4,55.847 102.4,119.051 0,62.714 -21.56,118.078 -104.36,118.078 H 1319 V 663.633 Z m -120.05,291.519 h 118.58 c 119.05,0 180.78,-52.918 180.78,-172.957 0,-114.16 -64.66,-172.957 -176.87,-172.957 h -122.49 v 345.914" /><path
         id="path32"
         style="fill:#01465A;fill-opacity:1;fill-rule:nonzero;stroke:none"
         d="m 1646.35,754.758 h 99.45 c 0,30.867 -14.69,58.797 -48.5,58.797 -30.37,0 -47.03,-22.051 -50.95,-58.797 z m 0,-38.215 c 4.9,-45.566 27.92,-65.164 59.77,-65.164 24.01,0 41.15,10.777 53.41,32.828 l 49.48,-27.93 c -22.53,-35.761 -59.77,-54.879 -106.31,-54.879 -81.34,0 -124.45,56.844 -124.45,129.84 0,73.985 43.59,131.317 120.52,131.317 74.48,0 114.65,-54.879 114.65,-131.801 0,-8.332 -0.49,-12.246 -0.49,-14.211 h -166.58" /><path
         id="path34"
         style="fill:#01465A;fill-opacity:1;fill-rule:nonzero;stroke:none"
         d="m 1872.75,812.078 h -41.15 v 43.121 h 38.71 c -5.4,16.66 -7.85,34.293 -7.85,47.035 0,33.317 14.7,62.223 73.98,62.223 24.02,0 41.16,-2.934 56.85,-8.816 L 1983,905.664 c -7.35,3.922 -21.57,6.859 -30.87,6.859 -14.22,0 -22.54,-6.371 -22.54,-21.558 0,-13.227 4.41,-27.93 7.84,-35.766 h 48.02 v -43.121 h -45.57 v -202.84 h -67.13 v 202.84" /><path
         id="path36"
         style="fill:#01465A;fill-opacity:1;fill-rule:nonzero;stroke:none"
         d="m 2068.76,754.758 h 99.46 c 0,30.867 -14.7,58.797 -48.5,58.797 -30.38,0 -47.03,-22.051 -50.96,-58.797 z m 0,-38.215 c 4.91,-45.566 27.93,-65.164 59.77,-65.164 24.02,0 41.16,10.777 53.41,32.828 l 49.48,-27.93 c -22.52,-35.761 -59.77,-54.879 -106.31,-54.879 -81.34,0 -124.44,56.844 -124.44,129.84 0,73.985 43.59,131.317 120.52,131.317 74.47,0 114.65,-54.879 114.65,-131.801 0,-8.332 -0.49,-12.246 -0.49,-14.211 h -166.59" /><path
         id="path38"
         style="fill:#01465A;fill-opacity:1;fill-rule:nonzero;stroke:none"
         d="m 2278.5,855.199 h 59.29 l 5.39,-39.683 c 13.72,25.476 42.62,47.039 78.88,47.039 53.41,0 78.88,-34.301 78.88,-99.469 V 609.238 h -66.62 v 137.688 c 0,40.664 -14.22,57.32 -40.68,57.32 -27.92,0 -48.5,-21.07 -48.5,-73.492 V 609.238 h -66.64 v 245.961" /><path
         id="path40"
         style="fill:#01465A;fill-opacity:1;fill-rule:nonzero;stroke:none"
         d="m 2770.95,661.672 c -22.54,-41.156 -59.78,-60.274 -107.79,-60.274 -84.27,0 -121.01,57.821 -121.01,129.84 0,77.903 43.59,131.317 121.01,131.317 49.97,0 83.78,-22.051 106.32,-61.746 l -55.37,-26.942 c -10.29,25.965 -27.43,37.723 -48.99,37.723 -37.73,0 -53.9,-32.82 -53.9,-76.426 0,-38.223 12.74,-82.312 57.81,-82.312 25.97,0 42.14,14.699 51.94,38.699 l 49.98,-29.879" /><path
         id="path42"
         style="fill:#01465A;fill-opacity:1;fill-rule:nonzero;stroke:none"
         d="m 2858.2,754.758 h 99.46 c 0,30.867 -14.69,58.797 -48.5,58.797 -30.38,0 -47.03,-22.051 -50.96,-58.797 z m 0,-38.215 c 4.91,-45.566 27.93,-65.164 59.77,-65.164 24.02,0 41.16,10.777 53.41,32.828 l 49.48,-27.93 c -22.53,-35.761 -59.77,-54.879 -106.31,-54.879 -81.34,0 -124.44,56.844 -124.44,129.84 0,73.985 43.59,131.317 120.52,131.317 74.47,0 114.65,-54.879 114.65,-131.801 0,-8.332 -0.49,-12.246 -0.49,-14.211 H 2858.2" /><path
         id="path44"
         style="fill:#01465A;fill-opacity:1;fill-rule:nonzero;stroke:none"
         d="M 1247.46,452.281 H 1319 v -220 c 0,-50.461 24.01,-71.531 65.65,-71.531 41.65,0 65.66,21.07 65.66,70.059 v 221.472 h 71.53 v -225.39 c 0,-53.891 -17.65,-128.3715 -137.19,-128.3715 -119.54,0 -137.19,74.9685 -137.19,128.3715 v 225.39" /><path
         id="path46"
         style="fill:#01465A;fill-opacity:1;fill-rule:nonzero;stroke:none"
         d="m 1580.2,352.32 h 59.28 l 5.4,-39.679 c 13.71,25.468 42.62,47.039 78.87,47.039 53.41,0 78.89,-34.309 78.89,-99.469 V 106.371 H 1736 v 137.668 c 0,40.672 -14.21,57.332 -40.66,57.332 -27.92,0 -48.5,-21.07 -48.5,-73.5 v -121.5 H 1580.2 V 352.32" /><path
         id="path48"
         style="fill:#01465A;fill-opacity:1;fill-rule:nonzero;stroke:none"
         d="m 1953.12,352.32 h 74.46 l 47.54,-183.73 46.53,183.73 h 71.55 l -81.34,-245.949 h -78.39 l -80.35,245.949" /><path
         id="path50"
         style="fill:#01465A;fill-opacity:1;fill-rule:nonzero;stroke:none"
         d="m 2276.53,251.879 h 99.45 c 0,30.859 -14.69,58.793 -48.5,58.793 -30.38,0 -47.03,-22.051 -50.95,-58.793 z m 0,-38.219 c 4.9,-45.558 27.92,-65.148 59.77,-65.148 24.01,0 41.15,10.769 53.4,32.816 l 49.48,-27.93 c -22.52,-35.757 -59.77,-54.8785 -106.3,-54.8785 -81.35,0 -124.45,56.8395 -124.45,129.8515 0,73.981 43.6,131.309 120.52,131.309 74.48,0 114.65,-54.891 114.65,-131.809 0,-8.332 -0.49,-12.25 -0.49,-14.211 h -166.58" /><path
         id="path52"
         style="fill:#01465A;fill-opacity:1;fill-rule:nonzero;stroke:none"
         d="m 2486.26,352.32 h 59.3 l 4.89,-48.5 c 14.7,31.84 42.63,55.86 86.23,55.86 v -68.11 c -4.9,0.981 -12.25,1.95 -21.55,1.95 -28.42,0 -62.23,-11.75 -62.23,-71.032 V 106.371 h -66.64 V 352.32" /><path
         id="path54"
         style="fill:#01465A;fill-opacity:1;fill-rule:nonzero;stroke:none"
         d="m 2681.8,180.352 c 15.18,-17.153 44.59,-32.832 73.98,-32.832 17.64,0 36.25,6.859 36.25,24.011 0,45.571 -132.77,20.09 -132.77,111.207 0,53.41 48.01,76.942 98.48,76.942 41.16,0 72.52,-10.782 97.5,-29.899 l -30.87,-44.09 c -13.22,12.739 -42.63,25.481 -69.08,25.481 -15.19,0 -28.41,-5.891 -28.41,-21.07 0,-41.641 132.28,-23.032 132.28,-110.243 0,-54.879 -51.45,-81.3395 -100.44,-81.3395 -44.09,0 -81.34,12.7505 -108.28,36.7505 l 31.36,45.082" /><path
         id="path56"
         style="fill:#01465A;fill-opacity:1;fill-rule:nonzero;stroke:none"
         d="m 3038.05,309.211 h -40.18 v 43.109 h 7.85 c 45.07,0 49.48,29.891 56.82,70.551 h 41.65 V 352.32 h 51.94 v -43.109 h -51.94 V 180.352 c 0,-19.602 5.39,-30.383 25.97,-30.383 6.37,0 14.7,0.98 23.52,4.902 l 4.9,-47.031 c -16.16,-6.86 -32.83,-9.3205 -49.97,-9.3205 -55.86,0 -70.56,30.8715 -70.56,73.0115 v 137.68" /><path
         id="path58"
         style="fill:#01465A;fill-opacity:1;fill-rule:nonzero;stroke:none"
         d="m 3199.24,71.5781 c 10.3,-3.4375 22.54,-5.8789 32.34,-5.8789 17.64,0 25,7.8321 32.83,33.3125 L 3177.68,352.32 h 71.54 l 49,-179.32 48.5,179.32 h 71.53 l -81.82,-237.621 c -21.56,-62.7185 -34.3,-98.9802 -102.89,-98.9802 -11.27,0 -33.32,0.9804 -43.12,3.9296 l 8.82,51.9297" /><path
         id="path60"
         style="fill:#01465A;fill-opacity:1;fill-rule:nonzero;stroke:none"
         d="m 1855.1,352.32 h 66.64 V 106.371 H 1855.1 V 352.32" /><path
         id="path62"
         style="fill:#01465A;fill-opacity:1;fill-rule:nonzero;stroke:none"
         d="m 1888.42,391.52 c 19.15,0 34.67,15.519 34.67,34.671 0,19.149 -15.52,34.668 -34.67,34.668 -19.14,0 -34.67,-15.519 -34.67,-34.668 0,-19.152 15.53,-34.671 34.67,-34.671" /><path
         id="path64"
         style="fill:#01465A;fill-opacity:1;fill-rule:nonzero;stroke:none"
         d="m 2898.38,352.32 h 66.63 V 106.371 h -66.63 V 352.32" /><path
         id="path66"
         style="fill:#01465A;fill-opacity:1;fill-rule:nonzero;stroke:none"
         d="m 2931.7,391.52 c 19.14,0 34.67,15.519 34.67,34.671 0,19.149 -15.53,34.668 -34.67,34.668 -19.15,0 -34.67,-15.519 -34.67,-34.668 0,-19.152 15.52,-34.671 34.67,-34.671" /><path
         id="path68"
         style="fill:#01465A;fill-opacity:1;fill-rule:nonzero;stroke:none"
         d="m 193.859,1079.16 c -19.05,0 -37.339,12.2 -44.203,28.2 -6.855,-16 -25.144,-28.2 -44.203,-28.2 -34.2967,0 -39.6288,25.16 -39.6288,32.78 0,4.57 0.7578,9.15 2.2852,15.25 12.1953,-6.86 24.3945,-9.15 35.0546,-9.15 21.348,0 33.535,19.05 33.535,30.49 0,23.64 -16.761,37.36 -38.867,37.36 -4.5664,0 -9.1406,-0.77 -12.1875,-3.05 2.2852,3.81 3.8047,10.67 3.8047,15.24 0,8.22 -3.4062,15.62 -9.0703,21.51 l 50.4261,25.83 c 31.758,51.59 85.883,111.19 190.562,142.96 -72.926,-49.3 -113.07,-140.67 -113.07,-140.67 l 19.367,-21.24 c -10.996,-6.16 -17.801,-16.53 -17.801,-28.39 0,-4.57 1.528,-11.43 3.809,-15.24 -3.047,2.28 -7.613,3.05 -12.188,3.05 -22.101,0 -38.875,-13.72 -38.875,-37.36 0,-11.44 12.2,-30.49 33.536,-30.49 10.671,0 22.867,2.29 35.054,9.15 1.531,-6.1 2.289,-10.68 2.289,-15.25 0,-7.62 -5.336,-32.78 -39.629,-32.78" /><path
         id="path70"
         style="fill:#01465A;fill-opacity:1;fill-rule:nonzero;stroke:none"
         d="m 398.105,1079.16 c -19.046,0 -37.339,12.2 -44.207,28.2 -6.847,-16 -25.14,-28.2 -44.203,-28.2 -34.293,0 -39.617,25.16 -39.617,32.78 0,4.57 0.75,9.15 2.277,15.25 12.2,-6.86 24.399,-9.15 35.055,-9.15 21.348,0 33.535,19.05 33.535,30.49 0,23.64 -16.761,37.36 -38.859,37.36 -4.578,0 -9.152,-0.77 -12.199,-3.05 2.289,3.81 3.808,10.67 3.808,15.24 0,10.81 -5.765,20.27 -15.082,26.55 l 31.063,20.79 c 0,0 38.625,99.51 102.144,148.81 -8.129,-44.98 -10.414,-106.89 -10.414,-148.81 l 26.442,-21.73 c -8.524,-6.27 -13.739,-15.33 -13.739,-25.61 0,-4.57 1.532,-11.43 3.821,-15.24 -3.047,2.28 -7.621,3.05 -12.203,3.05 -22.094,0 -38.868,-13.72 -38.868,-37.36 0,-11.44 12.2,-30.49 33.536,-30.49 10.668,0 22.867,2.29 35.054,9.15 1.528,-6.1 2.289,-10.68 2.289,-15.25 0,-7.62 -5.336,-32.78 -39.633,-32.78" /><path
         id="path72"
         style="fill:#01465A;fill-opacity:1;fill-rule:nonzero;stroke:none"
         d="m 602.352,1079.16 c -19.047,0 -37.336,12.2 -44.204,28.2 -6.851,-16 -25.14,-28.2 -44.203,-28.2 -34.293,0 -39.629,25.16 -39.629,32.78 0,4.57 0.77,9.15 2.289,15.25 12.2,-6.86 24.395,-9.15 35.055,-9.15 21.348,0 33.535,19.05 33.535,30.49 0,23.64 -16.761,37.36 -38.863,37.36 -4.574,0 -9.148,-0.77 -12.195,-3.05 2.289,3.81 3.804,10.67 3.804,15.24 0,10.28 -5.211,19.34 -13.722,25.61 l 26.437,21.73 c 0,41.92 -2.285,103.83 -10.418,148.81 63.528,-49.3 102.145,-148.81 102.145,-148.81 l 31.066,-20.79 c -9.32,-6.28 -15.09,-15.74 -15.09,-26.55 0,-4.57 1.528,-11.43 3.813,-15.24 -3.047,2.28 -7.621,3.05 -12.195,3.05 -22.098,0 -38.872,-13.72 -38.872,-37.36 0,-11.44 12.2,-30.49 33.54,-30.49 10.668,0 22.863,2.29 35.05,9.15 1.532,-6.1 2.285,-10.68 2.285,-15.25 0,-7.62 -5.332,-32.78 -39.628,-32.78" /><path
         id="path74"
         style="fill:#01465A;fill-opacity:1;fill-rule:nonzero;stroke:none"
         d="m 806.602,1079.16 c -19.055,0 -37.344,12.2 -44.207,28.2 -6.852,-16 -25.145,-28.2 -44.204,-28.2 -34.296,0 -39.628,25.16 -39.628,32.78 0,4.57 0.765,9.15 2.285,15.25 12.199,-6.86 24.394,-9.15 35.062,-9.15 21.34,0 33.528,19.05 33.528,30.49 0,23.64 -16.762,37.36 -38.86,37.36 -4.574,0 -9.148,-0.77 -12.195,-3.05 2.285,3.81 3.805,10.67 3.805,15.24 0,11.86 -6.793,22.23 -17.79,28.39 l 19.36,21.24 c 0,0 -40.141,91.37 -113.067,140.67 104.684,-31.77 158.809,-91.37 190.563,-142.96 l 50.422,-25.83 c -5.664,-5.89 -9.074,-13.29 -9.074,-21.51 0,-4.57 1.527,-11.43 3.82,-15.24 -3.047,2.28 -7.625,3.05 -12.199,3.05 -22.098,0 -38.871,-13.72 -38.871,-37.36 0,-11.44 12.195,-30.49 33.535,-30.49 10.668,0 22.867,2.29 35.051,9.15 1.531,-6.1 2.292,-10.68 2.292,-15.25 0,-7.62 -5.335,-32.78 -39.628,-32.78" /><path
         id="path76"
         style="fill:#01465A;fill-opacity:1;fill-rule:nonzero;stroke:none"
         d="M 850.695,1001.6 H 61.3594 l -45.836,219.36 c 4.9454,4.45 11.5977,7.76 19.1211,9.66 l -7.5,14.79 c 76.1795,118.44 220.8285,186.72 406.5275,192.61 h 44.711 c 185.699,-5.89 330.351,-74.17 406.535,-192.61 l -7.508,-14.79 c 7.528,-1.9 14.176,-5.21 19.121,-9.66 z M 77.4414,924.629 64.3164,987.438 H 847.738 L 834.613,924.629 Z M 417.754,1493.78 c 0,21.22 17.254,38.47 38.473,38.47 21.214,0 38.468,-17.25 38.468,-38.47 0,-21.22 -17.254,-38.47 -38.468,-38.47 -21.219,0 -38.473,17.25 -38.473,38.47 z M 455.758,0 c 131.734,0.160156 405.078,53.8789 405.078,310.191 v 614.438 h -11.762 l 62.981,301.391 c -4.817,5.1 -8.891,8.08 -15.055,11.92 l 4.215,8.31 c -56.363,100.88 -206.988,200.88 -413.695,205.46 12.875,9.6 21.335,24.81 21.335,42.07 0,24.7 -17.175,45.35 -40.175,50.98 v 16.08 h 24.644 v 21.61 H 468.68 v 28.21 h -24.907 v -28.21 h -24.632 v -21.61 h 24.632 v -16.07 c -23,-5.64 -40.179,-26.28 -40.179,-50.99 0,-17.26 8.465,-32.47 21.336,-42.07 C 188.813,1444.43 64.2266,1333.18 10.8398,1246.25 l 4.211,-8.31 C 10.1211,1235.8 1.95703,1230.23 0,1226.02 L 62.9805,924.629 H 50.6914 L 50.6719,310.191 C 50.6719,53.8086 323.887,0 455.758,0" /><path
         id="path78"
         style="fill:#ffffff;fill-opacity:1;fill-rule:nonzero;stroke:none"
         d="m 247.965,360.59 c 0,0.988 -1.004,1.988 -2.004,1.988 -1.996,0 -4,-1 -4,-1 -6,0 -7.996,7 -7.996,14.012 0,2.988 0.996,6.988 0.996,10 0,22.988 -14,17.988 -14,33.988 0,6.012 -16,25 -21,25 -0.996,0 -0.996,-1 -0.996,-2 0,-3 0.996,-5 0.996,-8 0,-7 -3,-13.988 -21.996,-13.988 2.996,-7.012 16.996,-11.012 16.996,-22.012 0,-12 -13,-21 -14,-21 3.004,-3 3.004,-10 3.004,-14 0,-2 0,-2.988 -1,-6 0,-1 1,-3 2.996,-3 3.004,2 6,4 10,4 8.004,0 15,-6 15,-15 0,-6 -6.504,-19 -4,-19 3,0 5.57,6 13,6 7,0 13.004,-19 13.004,-12 0,5 -3.004,12 -3.004,17.012 0,16.988 18.004,10 18.004,25 z m -21.004,-81.012 c -8.996,3 -18.996,7 -27.996,7 -14.004,0 -20,-10 -20,-20 0,-14 12.996,-21 29,-28 1.996,5 11,21 18.996,41 z m 9,-17 -5,3 c -4,-12 -14,-30 -15,-34 2.004,-3 5,-4 7.004,-4 3.996,0 11,3 13.996,9 -2.996,3 -8.996,6.871 -8.996,14 0,5.043 4.336,9.582 7.996,12 z m -19,32 c 1.004,4 8,24 3,24 -1.996,0 -5,-5 -11.996,-5 -9,0 -12.004,6 -12.004,12 0,4 4,12 4,17 0,3.012 -0.996,5 -3,5 -4.508,0 -6,-16 -22,-16 -15,0 -10,25 -14,28 0,-2 -5,-8.988 -10,-8.988 -7.996,0 -12.996,8.988 -17.996,8.988 -1.004,-1 -1.004,-2 -1.004,-3 0,-2 5,-7 5,-14 0,-1.988 -2,-5 -2,-6.988 0,-8.012 14.004,-14.012 14.004,-26.012 0,-18 22.996,-26 22.996,-26 3,6 12.004,14 27.004,14 5.996,0 11.996,-1 17.996,-3 z m 161.004,-77 c 0,-8 -9,-13 -16.004,-13 -5.996,0 -11.996,2 -13.996,2 -3,0 -4,-1 -4,-2 0,-4 6,-7 6,-13 0,-9 -16,-10 -16,-16 0,-2 1,-3 2.996,-3 5,0 7.004,2 10,2 4.004,0 9.004,-5 12.004,-5 5,0 9,5 16,5 4,0 8,-4 13,-4 7,0 22,13 28.996,13 l -1.996,28 z M 296.961,754.59 c 0,-2.356 2.48,-3.684 4.98,-3.684 5.336,0 8.918,5.793 11.438,11.574 3.262,7.5 8.598,16.102 21.586,16.102 0.996,0 3,-0.992 4,-0.992 10,2 19,3.992 27,3.992 8,0 14,-1.992 19,-3.992 5,0.992 16.996,8.687 16.996,12.691 0,1.035 -0.633,1.321 -1.43,1.321 -1.578,0 -4.843,-2.012 -9.566,-2.012 -7,0 -13,3.992 -13,11.992 0,2 2,4.004 2,5 0,1.008 -1,1.008 -1,1.008 -6,0 -11,-11.008 -22.004,-11.008 -15,0 -7.996,17 -11.996,17 -8.004,0 -7,-2.996 -33.004,-28.992 3.004,-4.004 2.902,-8.008 2.902,-11.008 0,-8.094 -17.902,-10.992 -17.902,-18.992 z M 173.523,352.57 c -0.195,-4.019 1.223,-9.761 3.661,-10.98 0.613,1.129 1.218,2.441 1.218,3.66 0,2.441 -2.441,4.879 -4.879,7.32 z M 337.965,193.578 c 0,6 -5,7 -5,12 0,15 33.996,1 33.996,14 l -23.996,4 c -4,-1 -9,-2 -13,-2 -18.004,0 -23.004,31 -29.004,31 -9,0 0,-18 -14,-18 -15,0 -16.996,26 -21,26 -1.996,0 0,-14 -10,-14 -5.996,0 -11.68,7 -15.68,7 -0.808,0 -1.316,-0.828 -1.316,-2 0,-3 11.996,-8 11.996,-18 0,-9 -6.996,-8 -6.996,-11 0,-7 26.996,-1 26.996,-12 0,-8 -6.996,-9 -6.996,-14 0,-2 5,-4 17.996,-5 15,-2 24,-21 33.004,-21 4,0 23,19 23,23 z M 209.961,653.582 c 3.004,0 12,0.996 16,3 -1.996,2 -11,2.996 -11,14.004 0,18.992 28.004,7.996 28.004,17.996 0,8 -24,-4.004 -24,15.996 0,13.012 15,17.004 15,20 -2.004,3.012 -8.004,4.004 -8.004,12.004 0,4.004 3.004,10 3.004,13.008 -17.004,0 -29.004,-28.008 -35,-29.004 -13.004,-2.004 -12.004,-10 -15,-29.004 9,-3 21.996,-10.996 30.996,-38 z m -60,-291.004 c 1,2 3.004,7 10,8.012 8.004,0 10,-4.012 12,-9.012 0.559,0.934 1.004,4 1.004,6 0,3.012 -4,6 -4,9 0,9.012 14,14.012 14,22 0,5 -16.004,10.012 -16.004,20.082 0,2.371 3,3.918 3,4.918 0,1 -0.996,2.012 -1.996,2.012 -5,0 -10,-10 -18.004,-10 -10,0 -13,6.988 -13,15 0,2.988 2,10.988 2,15.988 0,2 0,3 -0.996,3 -4.004,0 -4.004,-6 -10,-6 -8.004,0 -12.004,13 -17.004,13 -1,0 -2.996,-0.988 -2.996,-3 0,-2.988 3.996,-6 3.996,-10 0,-2.988 -3,-7 -3,-9 0,-7 9.004,-12 9.004,-21 0,-4 -3.004,-6 -3.004,-10 0,-12 26,-41 35,-41 z m 86,349.004 c -4,-3 -6,-5 -6,-5.996 0,0 0,-1.008 1,-1.008 1,0 2.004,1.008 4,1.008 3.004,0 8.004,-1.008 15.004,-7.004 0,10 30.996,9.008 30.996,12.004 0,3.992 -7.996,3.992 -7.996,12.004 0,10.992 6,11.988 12.996,11.988 h 8.004 c 1.996,0 6,1.008 6,4.004 0,9.008 -15,-2.996 -15,16.008 0,13.992 20,15.996 20,20 0,3 -6,5.996 -6,10 0,5 6,8 6,10 0,1.992 -2,1.992 -3.004,1.992 -2.996,0 -10,-5.996 -16,-5.996 -1.996,0 -5,0.996 -6.996,0.996 -23.004,0 -37.004,-40.996 -42.004,-53.992 3,-2.004 8,-8.012 8,-13.012 0,-5.996 -5.996,-10.996 -9,-12.996 z m -125,-234.004 c 0,-9 11,-16.988 18,-21.988 2,1.988 4.004,5 9.004,5 11,0 11.996,-8.012 11.996,-13.012 0,-5 -1.996,-11.988 -1.996,-18 0,-2 1,-2 1.996,-2 3.004,0 10,6 11,6 -7.996,8 -11,16 -11,24 0,20 23.004,28.012 23.004,28.012 -1.004,5.988 -20,-1.012 -20,11.988 0,12 15,18.012 15,24 0,1 -1.004,2 -4,2 -4.004,0 -8.004,-7 -16,-7 -7.004,0 -12.004,6 -12.004,12 0,7.012 7.004,18 7.004,22.012 0,0 0,0.988 -1.004,0.988 -3,0 -5,-3.988 -8.996,-3.988 -12.004,0 -10,15.988 -12.004,15.988 -2,0 -10,-19 -10,-24 0,-3 1,-7 1,-11 0,-7 -6,-9 -6,-17.988 0,-10 8,-15 8,-24.012 0,-4 -3,-7 -3,-9 z m 89,168.008 c -6.996,25.996 -18,35 -30.996,35 -10,0 -15,-15 -15,-27.996 0,-6.008 0.996,-13.012 1.996,-18.012 z m -66,-84.008 c 0,0 0,-0.988 0,-2 0,0 11,4 16,4 3.004,0 5,-0.988 7,-2 -2.996,5 -3.996,18 -3.996,22 0,9.012 11.996,10.742 11.996,16 -10,3.012 -16.996,9 -20,21.008 0,2.996 0,5 1,7.004 -2,8.992 -2.996,15.992 -2.996,21.988 -4.004,-8.992 -15,-34.129 -15,-40 0,-10.609 5,-13 5,-18 0,-7 -7.004,-8.988 -7.004,-13.988 0,-4.012 7.004,-11.012 8,-16.012 z m 121.004,-299 c 0,2 1.996,9 9,9 15,0 16.996,-25 22.996,-25 1.418,0 -1,17 13.004,17 15,0 15,-26 26.996,-30 v 37 c -2.996,-2 -5,-3 -7.996,-3 -23.004,0 -10,38 -35,38 -10,0 -12.004,23 -20,23 -4,0 -6,-3 -8.004,-3 -4,1 -11,14 -14,14 -1,0 -1,-1 -1,-3 0,-5 4,-11 4,-17 -1.996,-8 -10,-8 -10,-12 0,-3 15.004,-4 15.004,-17 0,-12 -13.004,-13 -13.004,-13 0,-6 11.004,-4 18.004,-15 z m 426,2 c -1.996,0 -5,-1 -6,-2 5,-3 8.004,-8 8.004,-12 0,-6 -6,-11 -10,-15 4,-6 9,-9 16,-9 3,0 5.996,1 8,2 -5,10 -12.004,23 -16.004,36 z m -118.996,-72 c 0,6 5,9 5,11 0,3 -1.004,3 -3.004,3 -1.996,0 -9,-2 -15,-2 -6,0 -16,4 -16,13 l -35.996,-6 -2.004,-28 c 8,0 21,-13 27.004,-13 5.996,0 10,4 15,4 7.996,0 11,-5 15,-5 1.996,0 7.996,5 11.996,5 2,0 7,-3 10,-3 2,0 3.004,1 3.004,4 0,8 -15,8 -15,17 z m 237,336 c 0,4 1,8 1,12.012 0,7.988 -4.004,22 -8,22 -7,0 -4,-15 -14,-15 -2.004,0 -4,3.988 -7.004,3.988 -0.996,0 -1.996,-0.988 -1.996,-2 0,-3.988 6,-11 6,-20 0,-7 -4.004,-12 -12,-12 -5,0 -11,6 -17.004,6 -1,0 -2.996,-1 -2.996,-2.988 0,-10 15,-13.012 15,-23.012 0,-11.988 -19,-5 -19,-10 0,-3 4,-5 8,-8 7,-2 13.996,-8.988 13.996,-21 0,-7.988 -3.996,-16 -11.996,-24 2.386,-2.617 8,-7 11.996,-7 1.004,0 2.004,1 2.004,2 v 18 c 0,6 0,13.012 9,13.012 5,0 8,-5 11,-5 2.996,0 17,11.988 17,20 0,3.988 -3,5 -3,10 0,8.988 8.996,13.988 8.996,23.988 0,8 -6.996,12 -6.996,19 z m -37,-177.988 c -6.004,0 -9,7.988 -12,7.988 -4.004,0 2,-27 -16,-27 -14.004,0 -13.004,16 -19.004,16 -1.996,0 -2.996,-1.988 -2.996,-4 0,-6 3.996,-12 3.996,-19 0,-6 -5,-11 -11.996,-11 -4.004,0 -8.004,5 -12,5 -1.004,0 -1.004,-1 -1.004,-3 0,-7 3.004,-15 3.004,-21 5.996,2 11.996,3 18,3 16,0 23.996,-8 27,-14 8,8 23,8 23,29 0,10 13.996,16 13.996,23.012 0,1.988 -0.996,3.988 -0.996,6.988 0,6 4,11 4,15 0,1 0,2 -1,2 -6,0 -11,-8.988 -16,-8.988 z m 32,100 c -4,-4.012 -7,-7.012 -11,-7.012 -6,0 -7.004,6 -10,6 0,0 -1,-1 -1,-2 0,-6 2,-11.988 2,-18 0,-7 -3.004,-13.988 -13.004,-13.988 -6.996,0 -8.996,10 -17.996,10 1,-2.012 1,-4.012 1,-5 0,-12.012 -16,-17.012 -16,-22.012 5,-10 15,-14 15,-22 0,-5 -5,-5 -5,-8 0,-1 1.996,-4 2.996,-4 3.004,0 5,6.012 11.004,6.012 6,-1.012 5,-8.012 10,-8.012 11,0 33.996,36 33.996,42 0,5 -1.996,7 -1.996,10 0,8 8,14 8,21.012 0,2.988 -3,5.988 -3,8.988 0,4 1.996,6.012 1.996,9 0,1 0,2.012 -0.996,2.012 -1,0 -3,-2.012 -6,-5 z M 654.965,246.578 c -11,0 -7.996,14 -10,14 -2.996,0 -9,-26 -21,-26 -14,0 -8,17 -13,17 -8.996,0 -7.996,-30 -30,-30 -3.996,0 -8.996,1 -12.996,2 l -24.004,-4 c 0,-3 3.004,-3 7,-3 5,0 11.004,1 13,1 5,0 14.004,-3 14.004,-13 0,-5 -3.004,-7 -3.004,-10 0,-6 18.004,-22 22.004,-22 2.996,0 15,19 31.996,19 13.004,0 19.004,1 19.004,4 0,4 -8.004,3 -8.004,12 0,18 27.004,10 27.004,16 0,4 -6.004,4 -6.004,11 0,8 10,14 10,16 0,1 -1,2 -1.996,2 -5,0 -9.004,-6 -14.004,-6 z m 93.004,252.793 c 0,3.75 -12.004,19.207 -16,19.207 -4,0 -6.004,-4 -10,-4 -9,0 -11.004,8 -11.004,14 0,6 1.004,11 1.004,17.012 0,2 0,3.988 -1.004,3.988 -1.996,0 -10,-6.988 -13.996,-6.988 -8,0 -14,13.988 -19,13.988 -2.004,0 -2.004,-0.988 -2.004,-2 0,-3.988 6.004,-11 6.004,-15 0,-7 -2.004,-13.988 -2.004,-21 0,-6 2.004,-12 10,-16 4.004,2 7.004,2 11,2 10,0 19,-3.988 27.004,-11 1,2.012 2.996,5 9,5 8.996,0 11,-1.949 11,0.793 z M 684.082,292.289 c 0,2.461 0,4.902 -1.223,8.57 -4.89,-11.007 -11.007,-3.668 -11.007,-11.007 0,-1.223 1.222,-2.454 2.445,-2.454 2.445,0 7.34,3.672 9.785,4.891 z m 8.887,413.297 c 0,-15 -25,-9.004 -25,-17.004 0,-10 27.996,0.996 27.996,-19.004 0,-7.996 -10,-10 -10,-12.996 0,-3.992 11.004,-3.992 16.004,-3.992 7,21.988 17.996,35 31,37.996 -7.004,20 -1,27.996 -15,30 -14,2.004 -5,20 -19,20 -12,0 -11,9.004 -17,9.004 -1.004,0 -1.004,0 -1.004,-1.008 0,-2 5,-7.996 5,-12 0,-8.992 -7.996,-8 -7.996,-10.996 0,-7.004 15,-11.008 15,-20 z m 57,-247.008 c 0,5 -5.082,9.613 -7.082,11.613 -5.996,-5 -21.766,-26.351 -25.293,-32.472 2,-4 6.375,-6.141 10.375,-6.141 11,0 22,17 22,27 z M 739.965,682.59 c -11.996,0 -22.996,-15 -29,-38.012 16.004,-5 31.004,-3.992 45,-10 1.004,4.004 2.004,10 2.004,16.008 0,15 -4,32.004 -18.004,32.004 z m 21,-154.012 c 2.004,0 3.004,2.012 3.004,3 0,6.383 -4,18 -8.004,18 -0.996,0 -1.996,-1.988 -3.996,-1.988 -7.004,0 -9,5 -9,10.988 0,8 4,17.012 4,25 0,8 -9,8 -16.004,15 -6.996,7.012 -11,17.008 -16,18.004 -6.996,1.008 -12.996,-8.004 -21.996,-8.004 -18.004,0 -11,19.012 -14,19.012 -2,0 -10,-10 -14.004,-10 -5.996,0 -11.996,6.988 -17.996,6.988 -2.004,0 -2.004,-1.988 -2.004,-2.996 0,-13.004 22.004,-30.992 22.004,-42.004 0,-3.988 0,-11.988 7,-11.988 0.996,0 1.996,0.988 3,0.988 10,0 15,-15 21,-15 4,0 6.996,7.012 14,7.012 10,0 11,-8 11,-15 0,-7.012 -1,-11.012 -1,-16.012 0,-2 0,-3.988 1,-3.988 2.023,0 8.285,12 16.996,12 9.004,0 16,-9.012 21,-9.012 z m -23.996,80 c 10,0 16,4.012 18,14.012 -8,6.988 -50.004,11.988 -50.004,11.988 -0.996,-5 0,-6.988 2.004,-10 1,1.008 7.996,1.008 8.996,1.008 10,0 19,-12.996 21.004,-17.008 z M 716.297,455.25 c 5.293,6.469 12.121,14.238 16.672,19.328 -12.004,12 -23.004,19 -32.004,19 -8.996,0 -16,-9 -16,-17 0,-9 5,-20 12.004,-28 8.035,15.262 19.328,6.672 19.328,6.672 z m 16.672,-35.672 c 0,5 -22.004,-3 -22.004,20 0,1.012 1.004,4 1.004,6.012 0,1.988 -1.004,2.988 -2.004,2.988 -15,0 -9,-15 -14,-20 -1,-1 -20,-32 -20,-41 0,-4 1.004,-6.988 1.004,-11.988 0,-7.012 -2.004,-14.012 -9,-14.012 -2.004,0 -2.004,1 -4,1 -2,0 -3.004,-1.988 -3.004,-4 0,-12 20,-5 20,-22 0,-6 -2.996,-13 -2.996,-15 0,-0.769 0.312,-1 1,-1 3,0 3,10 11.996,10 6.004,0 9.312,-6 12.047,-6 0.543,0 0.781,0.512 0.781,1.371 0,5.61 -3.828,12.391 -3.828,17.629 0,11 7.004,15 15,15 11,0 12.004,-16 20,-16 3.004,0 3.004,4 3.004,6 0,8 -11,13 -11,19 0,5 3.996,8.012 3.996,10 0,4 -13.996,13.012 -13.996,22 0,8 16,18 16,20 z m 14,180 c 8,-8 12,-8.988 12,-16.988 0,-6.012 -6,-7 -6,-21.012 0,-0.988 0,-2 1,-2 2.562,0 5.035,4 8,4 5.625,0 7,-4 15,-4 3,0 8,7.281 8,21.012 0,3.988 -6,7 -6,10.988 0,7 4,13 4,18 0,25.606 -12.004,38.012 -15,41.008 l -3,-21.008 c 0.996,-2.996 0.996,-5.996 0.996,-7.996 0,-10 -6.996,-18.004 -18.996,-22.004 z M 351.961,743.582 c 6.004,0 10,-3.992 11.004,-10 0,-2.996 3.996,-2.996 3.996,-2.996 2.004,0 4.004,0.996 8.004,0 10,5 16.996,12.004 16.996,22.004 0,12 -10.996,17 -25.996,17 -5,0 -12,-1.008 -20,-2 2,-6.008 5.996,-16.008 5.996,-24.008 z m 198.004,-39.004 c 0,-5.996 2.004,-6.988 6,-6.988 4,0 8,0.992 12.004,0.992 15,0 16.996,-15 39,-15 6.996,0 3.996,13 15,13 15,0 13.996,-18.992 20,-18.992 3.996,0 7.996,15 7.996,18.992 0,4.004 -6.996,5 -11,5 -3,0 -6.996,-0.996 -10,-0.996 -5.996,0 -10.996,0.996 -10.996,7.004 0,7.996 10,10.992 10,15 0,0.992 -5,0.992 -11,0.992 -19,0 -21.004,22.004 -24,22.004 -6,0 5,-22.004 -14.004,-22.004 -9,0 -16.996,9.008 -19,9.008 -1.996,0 -1.996,-13.012 -16,-13.012 -4,0 -6,0 -6.996,-3.992 0,-6.008 12.996,-2.004 12.996,-11.008 z m 135,-35 c 0,3.012 -27.996,1.008 -27.996,18.012 0,0.992 0,1.988 -1.004,1.988 -1.996,0 1.004,-22.996 -13.996,-22.996 -9,0 -16.004,19.004 -19,19.004 -4.004,0 -2.004,-12.004 -12.004,-12.004 -3.996,0 -8.996,2.004 -11,2.004 -1,0 -1.996,-1.008 -1.996,-1.008 0,-2.996 6.996,-2.996 9,-11.988 0,-13.012 16.996,-7.004 18.996,-20 1.004,-3.012 4,-10 11.004,-11.008 1.996,2 6.996,4.004 8.996,4.004 10,0 17.004,-7.004 20,-7.004 2.004,0 6.004,10 15,10 9,0 9,-17.996 10,-19.004 2.004,-3.992 6.004,-1.988 5,1.008 -1.996,3.992 -2.996,7.004 -2.996,10.996 0,6.008 1.996,7.996 5,11.008 -12.004,0 -25,5.992 -25,11.988 0,9.004 11.996,14.004 11.996,15 z m -125,76.008 c 3.004,7.996 3.004,15 5,22.004 -6.996,0.992 -14,2 -20,2 -16,0 -26,-5 -26,-18.008 0,-8 12,-23 23.004,-23 6,0 12.996,4.008 17.996,17.004 z m 29,9.004 c 0,6.992 -5.996,10.996 -11.996,11.992 -1.004,0 -5.848,-23.328 -7.004,-25.996 1,-0.996 6,-5 9,-5 1,0 1,0 1,0.996 0,2 -1,4.004 -1,6.008 0,7.996 6,10.992 10,12 z m 25,-491.012 c 13.004,0 8.004,-18 11,-18 5,0 9,26 21,26 8.004,0 10,-6 11.004,-9 5,12 17,7 17,16 -6,0 -12,4 -12,12 0,14 13.996,14 13.996,19 0,1.5 -10,1 -10,13 0,4 4,8 4,14 0,2 -0.996,3 -2.996,3 -4,0 -6.004,-14 -13,-14 -3.004,0 -4.004,3 -7,3 -7.004,-4 -10,-23 -20,-23 -23.004,0 -12.004,-38 -34,-38 -3.004,0 -6,1 -8.004,3 v -37 c 8.004,0 16,30 29,30 z M 179.961,610.59 c 0,2 4.004,14.996 19.004,14.996 1.996,0 4,0 5.996,-1.008 1,2.004 1,4.004 1,7.004 0,1.008 0,2.996 -1,2.996 -10.996,0 -50,-12.996 -49,-11.988 4,-10 8.004,-13.012 18.004,-13.012 1.996,0 4.082,0.442 5.996,1.012 z m 9.004,-96.012 c -3.004,0 -6,2 -9.004,4 -1.996,-2 -15,-14 -15,-17.988 0,-4.012 14.004,0 18.004,-7.012 7.996,6 18.996,12.012 27.996,12.012 4,0 7.004,-1.012 10,-3.012 0,12 11,18.012 11,29 0,2 -2,5 -2,8 0,6.012 5,10 5,14 0,2.012 -0.996,2.012 -1.996,2.012 -4,0 -15,-13 -18.004,-13 -5,0 -10.996,5.988 -14,5.988 -1,0 -1.996,-2 -1.996,-5 0,-5 1.996,-12.988 1.996,-14 0,-8 -5,-15 -11.996,-15 z m 20.996,-21 c -9,0 -20.996,-7 -33,-21 5,-3 10,-10 17.004,-15 0.996,1 2.996,1 4,1 10,0 15,-4 16.996,-10 6,8 12,19 12,28 0,9.012 -7,17 -17,17 z m -23.703,-61 c 1.894,0 4.508,1.434 4.523,6.242 0,1.899 -0.316,4.309 -1.172,7.379 -8,8 -21.644,21.379 -24.648,21.379 -1.996,-1.988 -4,-6 -4,-10 0,-11.777 8.672,-25 25.297,-25 z m 145.703,302 c 4,0 5,2.004 9,6.008 -1.996,12.004 -4,24.004 -6.996,27.004 -6,-2.004 -9,-5 -11,-10 7.996,-4.008 7.996,-3 7.996,-18 0,-2 0,-4.004 1,-5.012 z M 273.965,631.582 c 30,12.996 27.996,34.004 35,37.996 1.996,1.008 5,5 5,6.008 -5,0 -9,-2.004 -14,-2.004 -11,0 -7,12.004 -11,12.004 -4,0 -8.004,-20 -19,-20 -15,0 -10,22.004 -16,22.004 -2.004,0 -3.004,-10 -6,-11.008 -6.004,-2.004 -15,0 -22.004,-7.004 1,0 13.004,-5 13.004,-15 0,-7.996 -16,-11.988 -25,-11.988 2.996,-7.004 5,-16.008 0.996,-23.012 11,0 3.004,19.004 16,19.004 7.004,0 10,-9.004 15,-9.004 7.004,0 12.004,6.008 19.004,6.008 1.996,0 6.996,0 9,-4.004 z m 59,62.996 c 2,2.004 41,4.004 41,22.004 0,7 -10,2.996 -16,6.008 -3,1.988 -4,8.992 -8,8.992 -7,0 -10,-8 -18.004,-8 -10,0 -12.996,6.848 -12.996,12.805 0,4.941 2.664,8.203 1,8.203 -12,0 0.996,-21.008 -36,-21.008 0,-4.004 9,-2.996 9,-14.004 0,-11.988 -11.34,-12.996 -21.004,-12.996 -5.395,0 -10,2.871 -10,0 0,-6.223 6.668,-18.992 8.004,-18.992 4,0 5.996,18.992 19,18.992 6.996,0 11.996,-5 11.996,-12.004 0,-5 21,-1.988 32.004,10 z m 193,83.012 c 5,2 11.004,3.992 19,3.992 8.004,0 17.004,-1.992 27.004,-3.992 1,0 1.996,2 2.996,2 20,0 22.004,-21.008 29,-28.008 2,-1.992 11,-5 11,3.008 0,5.996 -20,11.992 -20,18.992 0,6.008 3.004,10 5,11.008 -11,10.996 -21.106,29.996 -33.106,29.996 -1.23,0 -1.894,-1.004 -1.894,-1.996 0,-2.004 1,-3.094 1,-6.008 0,-5.059 -4.727,-10 -12,-10 -5,0 -14.852,11.008 -19,11.008 -2.996,0 -4,-1.008 -4,-3 0,-2 1.004,-3.008 1.004,-5 0,-9.004 -22.004,-8.008 -22.004,-12 0,-4.887 11.605,-6.25 16,-10 z M 225.961,292.07 c 0,0 7.473,-3.242 8.187,-3.511 0.813,-0.297 1.563,-0.45 2.223,-0.45 1.734,0 2.871,0.832 2.871,1.782 0,3.269 -2.289,3.668 -12.109,10.359 0,-3.5 0,-5.84 -1.172,-8.18 z m 380.004,482.52 c 0,-2 20,-8.008 20,-19.004 0,-14.004 -17,-12.004 -17,-17.004 0,-10 30,4.008 30,-14.004 0,-11.988 -8,-11.988 -8,-15 11.004,0 27.004,2.004 31.004,-10.996 6,5.996 18.996,4.008 18.996,7.004 0,3.992 -15,7.996 -15,18.992 0,7.004 6.004,12.004 8.004,13.012 0,40.992 -31,40 -35.004,47.996 -1.996,4.004 -3,5.996 -6.996,5.996 -2.004,0 -5,-0.996 -7.004,-0.996 -6.996,0 -12.996,5.996 -16,5.996 -1.996,0 -3,-0.996 -3,-1.992 0,-2 6.004,-8.008 6.004,-10 0,-7 -6.004,-8.008 -6.004,-10 z m -341,-154.004 c 0,0 0.996,3.992 -1,3.992 -6,0 -12.004,-6.988 -18.004,-6.988 -10,0 -11,8.992 -14,8.992 -3.996,0 5,-18.004 -13.996,-18.004 -11.004,0 -18.215,6 -22.004,6 -10.016,0 3.75,-11.449 -31.996,-31 -2.031,-1.109 4,-15.988 4,-24 0,-6 -3.004,-11.988 -12.004,-11.988 -1,0 -1.996,0 -2.996,0.988 0,-5.988 -6.004,-15 -6.004,-19 0,-1 0,-1 1.004,-1 6,0 15,9.012 22.996,9.012 6,0 13.004,-12 18.004,-12 1.996,0 -1,12.988 -1,20.988 0,5 1.996,14.012 11.996,14.012 5,0 11,-7.012 14.004,-7.012 2.996,0 10.996,15 20,15 0.996,0 1.996,-0.988 2.996,-0.988 3,1.988 28.004,45.992 28.004,52.996 z M 711.969,286.578 c -9,0 -19,-4 -27.004,-7 6,-15 12.004,-28 18.004,-41 16.996,7 30,15 30,28 0,12 -7.004,20 -21,20 v 0" /><path
         id="path80"
         style="fill:#ffffff;fill-opacity:1;fill-rule:nonzero;stroke:none"
         d="m 337.969,235.922 76.644,-13.434 v 35.672 l -76.644,9.649 v -31.887" /><path
         id="path82"
         style="fill:#ffffff;fill-opacity:1;fill-rule:nonzero;stroke:none"
         d="m 573.582,267.801 -76.273,-9.621 v -35.692 l 76.273,13.434 v 31.879" /><path
         id="path84"
         style="fill:#ffffff;fill-opacity:1;fill-rule:nonzero;stroke:none"
         d="M 473.98,267.738 456,284.781 438.047,267.711 Z" /><path
         id="path86"
         style="fill:#ffffff;fill-opacity:1;fill-rule:nonzero;stroke:none"
         d="m 450.313,872.574 -24.625,-30.41 V 271.879 l 24.625,23.18 v 577.515" /><path
         id="path88"
         style="fill:#ffffff;fill-opacity:1;fill-rule:nonzero;stroke:none"
         d="m 425.941,256.391 0.016,-36.352 h 59.988 v 36.391 l -60.004,-0.039" /><path
         id="path90"
         style="fill:#ffffff;fill-opacity:1;fill-rule:nonzero;stroke:none"
         d="m 483.363,179.309 -51.972,-43.809 1.644,-25.25 h 4.16 l 44.078,37.109 2.09,31.95" /><path
         id="path92"
         style="fill:#ffffff;fill-opacity:1;fill-rule:nonzero;stroke:none"
         d="M 480.246,131.641 454.848,110.25 h 24 z" /><path
         id="path94"
         style="fill:#ffffff;fill-opacity:1;fill-rule:nonzero;stroke:none"
         d="m 432.563,98.8906 -5.657,-8.7812 7.059,-26.5391 h 43.937 l 6.903,27.5 -5.403,7.8203 h -46.839" /><path
         id="path96"
         style="fill:#ffffff;fill-opacity:1;fill-rule:nonzero;stroke:none"
         d="m 486.305,842.215 0.004,-570.285 -24.629,23.191 v 577.508 l 24.625,-30.414" /><path
         id="path98"
         style="fill:#ffffff;fill-opacity:1;fill-rule:nonzero;stroke:none"
         d="m 464.789,208.641 -36.184,-30.461 1.868,-28.602 53.918,45.473 0.886,13.59 h -20.488" /><path
         id="path100"
         style="fill:#ffffff;fill-opacity:1;fill-rule:nonzero;stroke:none"
         d="m 427.684,192.27 19.453,16.371 h -20.516 z" /><path
         id="path102"
         style="fill:#01465A;fill-opacity:1;fill-rule:nonzero;stroke:none"
         d="M 1070.32,1467.79 V 16.4102 h -14.2 V 1467.79 h 14.2" /></g></g></svg>