<?xml version="1.0" encoding="utf-8"?>
<!-- Generator: Adobe Illustrator 23.0.0, SVG Export Plug-In . SVG Version: 6.00 Build 0)  -->
<svg version="1.1" id="BermanskŠp" xmlns="http://www.w3.org/2000/svg" xmlns:xlink="http://www.w3.org/1999/xlink" x="0px"
	 y="0px" viewBox="0 0 113.6 80.5" style="enable-background:new 0 0 113.6 80.5;" xml:space="preserve">
<style type="text/css">
	.st0{fill-rule:evenodd;clip-rule:evenodd;fill:#0069B4;}
	.st1{fill-rule:evenodd;clip-rule:evenodd;fill:#FFE000;stroke:#1D1D1B;stroke-width:0.1577;stroke-miterlimit:3.8637;}
	.st2{fill-rule:evenodd;clip-rule:evenodd;fill:none;stroke:#1D1D1B;stroke-width:0.1577;stroke-miterlimit:3.8637;}
	.st3{fill-rule:evenodd;clip-rule:evenodd;fill:none;stroke:#1D1D1B;stroke-width:0.1415;stroke-miterlimit:3.8637;}
	.st4{fill-rule:evenodd;clip-rule:evenodd;fill:#0069B4;stroke:#1D1D1B;stroke-width:0.1578;stroke-miterlimit:3.8637;}
	.st5{fill-rule:evenodd;clip-rule:evenodd;fill:#DC2F34;stroke:#1D1D1B;stroke-width:0.1577;stroke-miterlimit:3.8637;}
	.st6{fill:#0069B4;stroke:#1D1D1B;stroke-width:0.1577;stroke-miterlimit:3.8637;}
	.st7{fill:#FFFFFF;stroke:#1D1D1B;stroke-width:0.1577;stroke-miterlimit:3.8637;}
	.st8{fill-rule:evenodd;clip-rule:evenodd;fill:#FFFFFF;stroke:#1D1D1B;stroke-width:0.1577;stroke-miterlimit:3.8637;}
	.st9{fill:#FFE000;}
	.st10{fill:#0069B4;}
	.st11{fill-rule:evenodd;clip-rule:evenodd;fill:#FFE000;}
</style>
<polygon class="st0" points="36.9,57.4 47.1,57.4 47.1,43.4 58.8,43.4 58.8,36 47.1,36 47.1,29.3 62.2,29.3 62.2,21.9 36.9,21.9 "/>
<path class="st0" d="M81.1,28.4c3.9,0,6.2,2.3,6.2,11.4c0,9.5-2.8,11.4-6.2,11.4c-3.5,0-6.2-1.8-6.2-11.4
	C74.9,31.2,77,28.4,81.1,28.4z M98.1,39.8c0-11.3-6.4-18.4-17-18.4c-10.6,0-17,7.1-17,18.4c0,11.3,6.4,18.4,17,18.4
	C91.7,58.2,98.1,51.1,98.1,39.8z"/>
<rect x="103.4" y="22" class="st0" width="10.1" height="35.5"/>
<polygon class="st1" points="14.3,76.6 12.3,76.6 11.6,64.2 11.6,4 14.3,0.2 16.9,4 16.9,64.2 16.3,76.6 "/>
<polygon class="st1" points="12.3,76.6 11.7,77.6 12.3,80.4 16.2,80.4 16.8,77.6 16.3,76.6 "/>
<polygon class="st1" points="11.6,60.7 2.6,59.5 2.6,62.7 11.6,64.2 16.9,64.2 25.9,62.7 25.9,59.5 16.9,60.7 "/>
<line class="st2" x1="11.7" y1="65.6" x2="13.9" y2="64.2"/>
<line class="st2" x1="11.8" y1="68" x2="16.8" y2="65"/>
<line class="st2" x1="11.9" y1="70.5" x2="16.7" y2="67.6"/>
<line class="st2" x1="12.1" y1="72.9" x2="16.6" y2="70.2"/>
<line class="st2" x1="12.2" y1="75.3" x2="16.4" y2="72.9"/>
<line class="st2" x1="14.2" y1="76.6" x2="16.3" y2="75.4"/>
<line class="st3" x1="14.3" y1="58.1" x2="14.3" y2="0.2"/>
<polyline class="st2" points="11.6,60.7 14.3,58.1 16.9,60.7 "/>
<line class="st2" x1="11.6" y1="60.7" x2="11.6" y2="64.2"/>
<line class="st2" x1="16.9" y1="60.7" x2="16.9" y2="64.2"/>
<path class="st4" d="M14.3,57.4c-0.3-0.8-2.5-0.9-5.7-1.4c-4.1-0.7-6.9-1.5-6.9-5.4l0-22.4h25.3v22.4c0,3.9-2.8,4.7-6.9,5.4
	C16.8,56.6,14.5,56.7,14.3,57.4z"/>
<g>
	<path class="st5" d="M1.7,21.1c0,0,0.9-1.1,1.5-2.5C3.7,17.5,8,15,14.3,15c6.2,0,10.5,2.6,11.1,3.5c0.8,1.4,0.4,1.2,1.2,2.5
		l0.3,1.4l-0.9,1.3c0,0-23,0-23,0c0.1,0-1.2-0.7-1.2-0.7L1.7,21.1z"/>
	<path class="st6" d="M12.6,9.9c0-0.9,0.8-1.7,1.7-1.7c0.9,0,1.7,0.8,1.7,1.7c0,0.9-0.8,1.7-1.7,1.7C13.3,11.6,12.6,10.8,12.6,9.9z"
		/>
	<path class="st6" d="M14.3,9.9"/>
	<path class="st1" d="M13.9,8.2V7.4c0,0-0.4,0-0.5,0c-0.1,0-0.2,0.1-0.2,0.1l0-0.9c0,0,0.1,0.1,0.2,0.1c0.1,0,0.5,0,0.5,0
		s0-0.4,0-0.5c0-0.1-0.1-0.2-0.1-0.2h0.9c0,0-0.1,0.1-0.1,0.2c0,0.1,0,0.5,0,0.5s0.4,0,0.5,0c0.1,0,0.2-0.1,0.2-0.1l0,0.9
		c0,0-0.1-0.1-0.2-0.1c-0.1,0-0.5,0-0.5,0l0,0.9c0,0-0.2,0-0.3,0C14.2,8.2,13.9,8.2,13.9,8.2z"/>
	<path class="st1" d="M14.3,8.1c0.1,0,0.3,0,0.3,0v1.4h1.3c0,0,0,0.2,0,0.3c0,0.2-0.1,0.3-0.1,0.3c0,0-1.6,0-1.6,0s-1.7,0-1.7,0
		c0,0,0-0.1,0-0.3c0-0.2,0-0.3,0-0.3h1.3V8.2C13.9,8.2,14.2,8.1,14.3,8.1z"/>
	<path class="st1" d="M2.2,20.4c1.1-3.2,3.6-5.9,6.7-7.3l0.4,0.2c-3.2,1.4-5.7,4-6.8,7.2L2.2,20.4z"/>
	<path class="st1" d="M14.3,12c-2.7,0-4.9,2.4-4.9,5.4c0,0.4,0,0.8-0.1,1.1L8.7,19l0.2,0.3l0.9-0.7c0-0.3,0-0.7,0-1.2
		c0-2.8,2-5.1,4.5-5.1L14.3,12z"/>
	<path class="st1" d="M14.3,12c-2.7,0-4.9,2.4-4.9,5.4c0,0.4,0,0.8-0.1,1.1l-1.8,1.4l-1.2-1.2C6.4,14.9,9.9,12,14.3,12z"/>
	<polygon class="st1" points="14.3,20.3 12.6,19 12.6,18.6 14.3,19.9 	"/>
	<path class="st1" d="M26.3,20.4c-1.1-3.2-3.6-5.9-6.7-7.3l-0.4,0.2c3.2,1.4,5.7,4,6.8,7.2L26.3,20.4z"/>
	<path class="st1" d="M14.3,12c2.7,0,4.9,2.4,4.9,5.4c0,0.4,0,0.8,0.1,1.1l0.6,0.5l-0.2,0.3l-0.9-0.7c0-0.3,0-0.7,0-1.2
		c0-2.8-2-5.1-4.5-5.1L14.3,12z"/>
	<path class="st1" d="M14.3,12c2.7,0,4.9,2.4,4.9,5.4c0,0.4,0,0.8,0.1,1.1l1.8,1.4l1.2-1.2C22.1,14.9,18.6,12,14.3,12z"/>
	<polygon class="st1" points="14.3,20.3 16,19 15.9,18.6 14.3,19.9 	"/>
	<polygon class="st1" points="14.3,11.3 13.4,11.3 12.6,18.6 14.3,19.9 15.9,18.6 15.2,11.3 	"/>
	<path class="st1" d="M26.1,24.2c0.2,0,0.4,0.2,0.4,0.4c0,0.2-0.2,0.4-0.4,0.4c-0.2,0-23.6,0-23.6,0c-0.2,0-0.4-0.2-0.4-0.4
		c0-0.2,0.2-0.4,0.4-0.4C2.7,24.2,26.1,24.2,26.1,24.2z"/>
	<rect x="2.5" y="25" class="st1" width="23.5" height="2.3"/>
	<polygon class="st1" points="14.3,25 16.2,26.1 14.3,27.2 12.3,26.1 	"/>
	<polygon class="st5" points="15.5,26.1 14.3,25.4 13,26.1 14.3,26.8 	"/>
	<polygon class="st1" points="2.5,25 4.5,26.1 2.5,27.2 1.7,26.1 	"/>
	<polygon class="st5" points="3.8,26.1 2.3,25.4 1.7,26.1 2.3,26.9 	"/>
	<polygon class="st1" points="26,25 24,26.1 26,27.2 26.9,26.1 	"/>
	<polygon class="st5" points="24.7,26.1 26.3,25.4 26.9,26.1 26.2,26.9 	"/>
	<path class="st1" d="M18.9,27c-0.5,0-0.8-0.4-0.8-0.8c0-0.5,0.4-0.8,0.8-0.8h2.5c0.5,0,0.8,0.4,0.8,0.8c0,0.5-0.4,0.8-0.8,0.8
		C20.9,27,19.3,27,18.9,27z"/>
	<path class="st7" d="M22.7,25.6c0-0.2,0.2-0.4,0.4-0.4c0.2,0,0.4,0.2,0.4,0.4c0,0.2-0.2,0.4-0.4,0.4C22.9,26,22.7,25.8,22.7,25.6z"
		/>
	<path class="st7" d="M23.1,25.6"/>
	<path class="st7" d="M22.7,26.7c0-0.2,0.2-0.4,0.4-0.4c0.2,0,0.4,0.2,0.4,0.4c0,0.2-0.2,0.4-0.4,0.4C22.9,27.1,22.7,26.9,22.7,26.7
		z"/>
	<path class="st7" d="M23.1,26.7"/>
	<path class="st7" d="M16.7,25.6c0-0.2,0.2-0.4,0.4-0.4c0.2,0,0.4,0.2,0.4,0.4c0,0.2-0.2,0.4-0.4,0.4C16.9,26,16.7,25.8,16.7,25.6z"
		/>
	<path class="st7" d="M17.1,25.6"/>
	<path class="st7" d="M16.7,26.7c0-0.2,0.2-0.4,0.4-0.4c0.2,0,0.4,0.2,0.4,0.4c0,0.2-0.2,0.4-0.4,0.4C16.9,27.1,16.7,26.9,16.7,26.7
		z"/>
	<path class="st7" d="M17.1,26.7"/>
	<path class="st1" d="M9.7,27c0.5,0,0.8-0.4,0.8-0.8c0-0.5-0.4-0.8-0.8-0.8H7.2c-0.5,0-0.8,0.4-0.8,0.8c0,0.5,0.4,0.8,0.8,0.8
		C7.6,27,9.2,27,9.7,27z"/>
	<path class="st7" d="M5,25.6c0-0.2,0.2-0.4,0.4-0.4c0.2,0,0.4,0.2,0.4,0.4c0,0.2-0.2,0.4-0.4,0.4C5.2,26,5,25.8,5,25.6z"/>
	<path class="st7" d="M5.4,25.6"/>
	<path class="st7" d="M5,26.7c0-0.2,0.2-0.4,0.4-0.4c0.2,0,0.4,0.2,0.4,0.4c0,0.2-0.2,0.4-0.4,0.4C5.2,27.1,5,26.9,5,26.7z"/>
	<path class="st7" d="M5.4,26.7"/>
	<path class="st7" d="M11,25.6c0-0.2,0.2-0.4,0.4-0.4c0.2,0,0.4,0.2,0.4,0.4c0,0.2-0.2,0.4-0.4,0.4C11.2,26,11,25.8,11,25.6z"/>
	<path class="st7" d="M11.4,25.6"/>
	<path class="st7" d="M11,26.7c0-0.2,0.2-0.4,0.4-0.4c0.2,0,0.4,0.2,0.4,0.4c0,0.2-0.2,0.4-0.4,0.4C11.2,27.1,11,26.9,11,26.7z"/>
	<path class="st7" d="M11.4,26.7"/>
	<path class="st8" d="M20.4,12.6c0-0.3-0.3-0.6-0.6-0.6c-0.3,0-0.6,0.3-0.6,0.6c0,0.3,0.3,0.6,0.6,0.6
		C20.1,13.2,20.4,12.9,20.4,12.6z"/>
	<path class="st8" d="M8.2,12.6c0-0.3,0.3-0.6,0.6-0.6c0.3,0,0.6,0.3,0.6,0.6c0,0.3-0.3,0.6-0.6,0.6C8.4,13.2,8.2,12.9,8.2,12.6z"/>
	<path class="st8" d="M13.7,11.3c0-0.3,0.2-0.5,0.5-0.5c0.3,0,0.5,0.2,0.5,0.5c0,0.3-0.2,0.5-0.5,0.5C14,11.8,13.7,11.6,13.7,11.3z"
		/>
	<path class="st8" d="M14.9,12.4c0,0.4-0.3,0.7-0.7,0.7c-0.4,0-0.7-0.3-0.7-0.7s0.3-0.7,0.7-0.7C14.6,11.7,14.9,12,14.9,12.4z"/>
	<path class="st8" d="M15.1,13.8c0,0.4-0.4,0.8-0.8,0.8c-0.4,0-0.8-0.4-0.8-0.8c0-0.4,0.4-0.8,0.8-0.8C14.7,13,15.1,13.4,15.1,13.8z
		"/>
	<path class="st8" d="M15.2,15.5c0,0.5-0.4,0.9-0.9,0.9c-0.5,0-0.9-0.4-0.9-0.9c0-0.5,0.4-0.9,0.9-0.9C14.8,14.6,15.2,15,15.2,15.5z
		"/>
	<path class="st8" d="M13.2,17.4c0-0.6,0.5-1.1,1.1-1.1c0.6,0,1.1,0.5,1.1,1.1c0,0.6-0.5,1.1-1.1,1.1C13.7,18.5,13.2,18,13.2,17.4z"
		/>
	<path class="st8" d="M6.8,17.4c0-0.6,0.5-1.1,1.1-1.1c0.6,0,1.1,0.5,1.1,1.1c0,0.6-0.5,1.1-1.1,1.1C7.3,18.4,6.8,18,6.8,17.4z"/>
	<path class="st8" d="M8.3,16.3c-0.5,0-1-0.4-1-1c0-0.5,0.4-1,1-1c0.5,0,1,0.4,1,1C9.3,15.9,8.8,16.3,8.3,16.3z"/>
	<path class="st8" d="M9.2,14.6c-0.5,0-0.8-0.4-0.8-0.9c0-0.5,0.4-0.9,0.8-0.9c0.5,0,0.9,0.4,0.9,0.9C10,14.2,9.6,14.6,9.2,14.6z"/>
	<path class="st8" d="M10.2,13.3c-0.4,0-0.7-0.3-0.7-0.7c0-0.4,0.3-0.7,0.7-0.7c0.4,0,0.7,0.3,0.7,0.7C11,13,10.7,13.3,10.2,13.3z"
		/>
	<path class="st8" d="M11.4,12.4c-0.4,0-0.6-0.3-0.6-0.6c0-0.4,0.3-0.6,0.6-0.6c0.4,0,0.6,0.3,0.6,0.6C12,12.2,11.8,12.4,11.4,12.4z
		"/>
	<path class="st8" d="M12,11.4c0-0.3,0.2-0.5,0.5-0.5c0.3,0,0.5,0.2,0.5,0.5c0,0.3-0.2,0.5-0.5,0.5C12.2,12,12,11.7,12,11.4z"/>
	<path class="st8" d="M7.6,12.4c0.4,0,0.7,0.3,0.7,0.7c0,0.4-0.3,0.7-0.7,0.7c-0.4,0-0.7-0.3-0.7-0.7C6.9,12.7,7.2,12.4,7.6,12.4z"
		/>
	<path class="st8" d="M6.3,13c0.4,0,0.8,0.4,0.8,0.8c0,0.4-0.3,0.8-0.8,0.8c-0.4,0-0.8-0.3-0.8-0.8C5.5,13.4,5.9,13,6.3,13z"/>
	<path class="st8" d="M5,13.9c0.5,0,0.9,0.4,0.9,0.9S5.4,15.6,5,15.6c-0.5,0-0.9-0.4-0.9-0.9S4.5,13.9,5,13.9z"/>
	<path class="st8" d="M3.6,15c0.5,0,1,0.4,1,1c0,0.5-0.4,1-1,1c-0.5,0-1-0.4-1-1C2.7,15.5,3.1,15,3.6,15z"/>
	<path class="st8" d="M1.3,17.6c0-0.6,0.5-1.1,1.1-1.1c0.6,0,1.1,0.5,1.1,1.1c0,0.6-0.5,1.1-1.1,1.1C1.8,18.7,1.3,18.2,1.3,17.6z"/>
	<path class="st8" d="M21.7,17.4c0-0.6-0.5-1.1-1.1-1.1c-0.6,0-1.1,0.5-1.1,1.1c0,0.6,0.5,1.1,1.1,1.1C21.2,18.4,21.7,18,21.7,17.4z
		"/>
	<path class="st8" d="M20.2,16.3c0.5,0,1-0.4,1-1c0-0.5-0.4-1-1-1c-0.5,0-1,0.4-1,1C19.3,15.9,19.7,16.3,20.2,16.3z"/>
	<path class="st8" d="M19.4,14.6c0.5,0,0.9-0.4,0.9-0.9c0-0.5-0.4-0.9-0.9-0.9c-0.5,0-0.9,0.4-0.9,0.9
		C18.5,14.2,18.9,14.6,19.4,14.6z"/>
	<path class="st8" d="M18.3,13.3c0.4,0,0.7-0.3,0.7-0.7c0-0.4-0.3-0.7-0.7-0.7c-0.4,0-0.7,0.3-0.7,0.7C17.5,13,17.9,13.3,18.3,13.3z
		"/>
	<path class="st8" d="M17.1,12.4c0.4,0,0.6-0.3,0.6-0.6c0-0.4-0.3-0.6-0.6-0.6c-0.4,0-0.6,0.3-0.6,0.6
		C16.5,12.2,16.8,12.4,17.1,12.4z"/>
	<path class="st8" d="M16.5,11.4c0-0.3-0.2-0.5-0.5-0.5c-0.3,0-0.5,0.2-0.5,0.5c0,0.3,0.2,0.5,0.5,0.5C16.3,12,16.5,11.7,16.5,11.4z
		"/>
	<path class="st8" d="M21,12.4c-0.4,0-0.7,0.3-0.7,0.7c0,0.4,0.3,0.7,0.7,0.7c0.4,0,0.7-0.3,0.7-0.7C21.7,12.7,21.3,12.4,21,12.4z"
		/>
	<path class="st8" d="M22.2,13c-0.4,0-0.8,0.4-0.8,0.8c0,0.4,0.4,0.8,0.8,0.8c0.4,0,0.8-0.3,0.8-0.8C23,13.4,22.7,13,22.2,13z"/>
	<path class="st8" d="M23.6,13.9c-0.5,0-0.9,0.4-0.9,0.9s0.4,0.9,0.9,0.9c0.5,0,0.9-0.4,0.9-0.9S24.1,13.9,23.6,13.9z"/>
	<path class="st8" d="M24.9,15c-0.5,0-1,0.4-1,1c0,0.5,0.4,1,1,1c0.5,0,1-0.4,1-1C25.9,15.5,25.4,15,24.9,15z"/>
	<path class="st8" d="M27.2,17.6c0-0.6-0.5-1.1-1.1-1.1c-0.6,0-1.1,0.5-1.1,1.1c0,0.6,0.5,1.1,1.1,1.1
		C26.8,18.7,27.2,18.2,27.2,17.6z"/>
	<path class="st6" d="M18.9,25.6h2.3c0.3,0,0.5,0.2,0.5,0.5v0c0,0.3-0.2,0.5-0.5,0.5h-2.3c-0.3,0-0.5-0.2-0.5-0.5v0
		C18.4,25.8,18.6,25.6,18.9,25.6L18.9,25.6z"/>
	<path class="st6" d="M20.1,26.1"/>
	<path class="st6" d="M7.2,25.6h2.3c0.3,0,0.5,0.2,0.5,0.5v0c0,0.3-0.2,0.5-0.5,0.5H7.2c-0.3,0-0.5-0.2-0.5-0.5v0
		C6.7,25.8,7,25.6,7.2,25.6L7.2,25.6z"/>
	<path class="st6" d="M8.4,26.1"/>
	<path class="st1" d="M26.2,27.3c0.2,0,0.4,0.2,0.4,0.4c0,0.2-0.2,0.4-0.4,0.4c-0.2,0-24,0-24,0c-0.2,0-0.4-0.2-0.4-0.4
		c0-0.2,0.2-0.4,0.4-0.4C2.5,27.3,26.2,27.3,26.2,27.3z"/>
	<circle class="st7" cx="1.1" cy="21" r="0.6"/>
	<path class="st7" d="M1.1,21"/>
	<path class="st7" d="M26.9,21c0-0.3,0.3-0.6,0.6-0.6c0.3,0,0.6,0.3,0.6,0.6c0,0.3-0.3,0.6-0.6,0.6C27.2,21.6,26.9,21.3,26.9,21z"/>
	<path class="st7" d="M27.5,21"/>
	<path class="st1" d="M2.6,24.2c-0.4-0.1-0.7-0.7-0.7-0.7c-0.3-0.6-0.4-1.5-0.7-2.4c-0.4-1.1-0.5-2-1-2.8c0.5,0,1,0.4,1.3,0.9
		c0-0.2,0-0.6,0-0.9c0.5,0.2,0.6,0.6,0.7,1c0.1,0.3,0.1,0.6,0.1,0.8c0.2-0.2,0.4-0.2,0.5-0.3c0.3-0.1,0.7-0.1,1,0
		C4,20,4.1,20.2,4.1,20.2c0.1,0-0.3,0.3-0.3,0.3s0.5,0,0.5,0.5c0,0.5-0.5,0.5-0.5,0.5s0.3,0.3,0.3,0.3c0,0-0.1,0.2-0.4,0.3
		c-0.4,0.1-1,0.1-1.5-0.5c-0.1,0.3-0.1,0.5-0.1,0.7c0,0.3,0.4,0.8,1.2,0.9c0.6,0,1.2-0.4,1.4-0.9c0.2,0.5,0.7,0.9,1.4,0.9
		c0.8,0,1.2-0.5,1.2-0.9c0-0.2,0-0.4-0.1-0.7c-0.5,0.6-1.1,0.6-1.5,0.5c-0.3-0.1-0.4-0.3-0.4-0.3c-0.1,0,0.3-0.3,0.3-0.3
		s-0.5,0-0.5-0.5c0-0.5,0.5-0.5,0.5-0.5s-0.3-0.3-0.3-0.3c0,0,0.1-0.2,0.4-0.3c0.3-0.1,0.7-0.2,1,0c-0.2-0.2,0-0.6,0.1-0.9
		c0.1-0.3,0.3-0.4,0.3-0.4c0-0.1,0.3,0.3,0.3,0.3s0-0.5,0.5-0.5c0.5,0,0.5,0.5,0.5,0.5s0.3-0.3,0.3-0.3c0,0,0.2,0.1,0.3,0.4
		c0.1,0.3,0.2,0.7,0,0.9c0.2-0.2,0.7-0.1,1,0c0.3,0.1,0.4,0.3,0.4,0.3c0.1,0-0.3,0.3-0.3,0.3s0.5,0,0.5,0.5c0,0.5-0.5,0.5-0.5,0.5
		s0.3,0.3,0.3,0.3c0,0-0.1,0.2-0.4,0.3c-0.4,0.1-1,0.1-1.5-0.5c-0.1,0.3-0.1,0.5-0.1,0.7c0,0.3,0.4,0.8,1.2,0.9
		c0.6,0,1.2-0.4,1.4-0.9c0.2,0.5,0.8,0.9,1.4,0.9c0.8,0,1.2-0.5,1.2-0.9c0-0.2,0-0.4-0.1-0.7c-0.6,0.6-1.1,0.6-1.5,0.5
		c-0.3-0.1-0.4-0.3-0.4-0.3c-0.1,0,0.3-0.3,0.3-0.3s-0.5,0-0.5-0.5c0-0.5,0.5-0.5,0.5-0.5s-0.3-0.3-0.3-0.3c0,0,0.1-0.2,0.4-0.3
		c0.3-0.1,0.7-0.2,1,0c-0.2-0.2-0.1-0.6,0-0.9c0.1-0.3,0.3-0.4,0.3-0.4c0-0.1,0.3,0.3,0.3,0.3s0-0.5,0.5-0.5c0.5,0,0.5,0.5,0.5,0.5
		s0.3-0.3,0.3-0.3c0,0,0.2,0.1,0.3,0.4c0.1,0.3,0.2,0.7,0.1,0.9c0.2-0.2,0.7-0.1,1,0c0.3,0.1,0.4,0.3,0.4,0.3c0.1,0-0.3,0.3-0.3,0.3
		s0.5,0,0.5,0.5c0,0.5-0.5,0.5-0.5,0.5s0.3,0.3,0.3,0.3c0,0-0.1,0.2-0.4,0.3c-0.4,0.1-1,0.1-1.5-0.5c-0.1,0.3-0.1,0.5-0.1,0.7
		c0,0.3,0.4,0.8,1.2,0.9c0.6,0,1.2-0.4,1.4-0.9c0.2,0.5,0.8,0.9,1.4,0.9c0.8,0,1.2-0.5,1.2-0.9c0-0.2,0-0.4-0.1-0.7
		c-0.5,0.6-1.1,0.6-1.5,0.5c-0.3-0.1-0.4-0.3-0.4-0.3c-0.1,0,0.3-0.3,0.3-0.3s-0.5,0-0.5-0.5c0-0.5,0.5-0.5,0.5-0.5
		s-0.3-0.3-0.3-0.3c0,0,0.1-0.2,0.4-0.3c0.3-0.1,0.7-0.2,1,0c-0.2-0.2,0-0.6,0.1-0.9c0.1-0.3,0.3-0.4,0.3-0.4c0-0.1,0.3,0.3,0.3,0.3
		s0-0.5,0.5-0.5c0.5,0,0.5,0.5,0.5,0.5s0.3-0.3,0.3-0.3c0,0,0.2,0.1,0.3,0.4c0.1,0.3,0.2,0.7,0,0.9c0.2-0.2,0.7-0.1,1,0
		c0.3,0.1,0.4,0.3,0.4,0.3c0.1,0-0.3,0.3-0.3,0.3s0.5,0,0.5,0.5c0,0.5-0.5,0.5-0.5,0.5s0.3,0.3,0.3,0.3c0,0-0.1,0.2-0.4,0.3
		c-0.4,0.1-1,0.1-1.5-0.5c-0.1,0.3-0.1,0.5-0.1,0.7c0,0.3,0.4,0.8,1.2,0.9c0.6,0,1.2-0.4,1.4-0.9c0.2,0.5,0.8,0.9,1.4,0.9
		c0.8,0,1.2-0.5,1.3-0.9c0-0.2,0-0.4-0.1-0.7c-0.5,0.6-1.1,0.6-1.5,0.5c-0.3-0.1-0.4-0.3-0.4-0.3c-0.1,0,0.3-0.3,0.3-0.3
		s-0.5,0-0.5-0.5c0-0.5,0.5-0.5,0.5-0.5s-0.3-0.3-0.3-0.3c0,0,0.1-0.2,0.4-0.3c0.3-0.1,0.7-0.1,1,0c0.1,0,0.3,0.1,0.5,0.3
		c0-0.2-0.1-0.5,0-0.8c0.1-0.3,0.2-0.7,0.7-1c0,0.3,0,0.7,0,0.9c0.3-0.5,0.8-0.9,1.3-0.9c-0.6,0.8-0.7,1.7-1,2.8
		c-0.3,0.9-0.3,1.5-0.7,2.4c-0.2,0.4-0.7,0.7-0.7,0.7H2.6z"/>
	<path class="st7" d="M13.7,20.9c0-0.3,0.3-0.6,0.6-0.6c0.3,0,0.6,0.3,0.6,0.6c0,0.3-0.3,0.6-0.6,0.6C13.9,21.5,13.7,21.3,13.7,20.9
		z"/>
	<path class="st7" d="M14.3,20.9"/>
	<path class="st2" d="M22.5,20.9c0,0-0.6,0-1.1-0.2"/>
	<path class="st2" d="M22.5,20.9c0,0-0.6,0-1.1,0.2"/>
	<path class="st2" d="M20.6,19c0,0,0,0.6-0.2,1.1"/>
	<path class="st2" d="M20.6,19c0,0,0,0.6,0.2,1.1"/>
	<path class="st7" d="M20,20.9c0-0.3,0.3-0.6,0.6-0.6c0.3,0,0.6,0.3,0.6,0.6c0,0.3-0.3,0.6-0.6,0.6C20.3,21.5,20,21.2,20,20.9z"/>
	<path class="st7" d="M20.6,20.9"/>
	<path class="st2" d="M18.7,20.9c0,0,0.6,0,1.1,0.2"/>
	<path class="st2" d="M18.7,20.9c0,0,0.6,0,1.1-0.2"/>
	<path class="st2" d="M9.7,20.9c0,0-0.6,0-1.1-0.2"/>
	<path class="st2" d="M9.7,20.9c0,0-0.6,0-1.1,0.2"/>
	<path class="st2" d="M7.8,19c0,0,0,0.6-0.2,1.1"/>
	<path class="st2" d="M7.8,19c0,0,0,0.6,0.2,1.1"/>
	<path class="st2" d="M5.9,20.9c0,0,0.6,0,1.1,0.2"/>
	<path class="st2" d="M5.9,20.9c0,0,0.6,0,1.1-0.2"/>
	<path class="st2" d="M12.4,20.9c0,0,0.6,0,1.1-0.2"/>
	<path class="st2" d="M12.4,20.9c0,0,0.6,0,1.1,0.2"/>
	<path class="st2" d="M14.3,19c0,0,0,0.6,0.2,1.1"/>
	<path class="st2" d="M14.3,19c0,0,0,0.6-0.2,1.1"/>
	<path class="st2" d="M16.2,20.9c0,0-0.6,0-1.1,0.2"/>
	<path class="st2" d="M16.2,20.9c0,0-0.6,0-1.1-0.2"/>
	<path class="st2" d="M25.3,20.9c0,0,1,0,1.5,0.2"/>
	<path class="st2" d="M25.3,20.9c0,0,1,0,1.5-0.1"/>
	<path class="st2" d="M3.3,20.9c0,0-1,0-1.5,0.2"/>
	<path class="st2" d="M3.3,20.9c0,0-1,0-1.5-0.1"/>
	<path class="st7" d="M7.2,21c0-0.3,0.3-0.6,0.6-0.6c0.3,0,0.6,0.3,0.6,0.6c0,0.3-0.3,0.6-0.6,0.6C7.5,21.6,7.2,21.3,7.2,21z"/>
	<path class="st7" d="M7.8,21"/>
</g>
<path class="st9" d="M19.2,43.2c0-0.5,2.1-1.1,2.1-4.1c0-2.7-1.8-4-1.6-5.3c-0.3,0.3-0.4,1.1-0.4,1.4c0,1.8-0.8,2.1-0.6,3.8
	c-0.8-1.6-0.1-2.6-0.1-3.8c-0.1-3.5-2.1-3.1-2.3-4.9c-0.6,0.5-0.6,0.9-0.5,1.4c0.4,2.2-0.8,2.5-0.5,4c-1.5-2,1.3-3.3-1.5-6.8
	c0.8,2.7-5.5,6.2-2.9,10.8c-0.4-0.2-1.3-0.6-2-1.8c-0.7-1.2-0.3-2.1-1.2-3.1C8,36.7,7,37.6,7.2,40c0.2,2.4,2,2.6,2,3.2H19.2z"/>
<path class="st10" d="M13.2,38.6c-1.8,1.6-0.5,4-0.5,4l-0.1,0c-0.2-0.2-1-1-0.8-2.4c0.1-0.7,0.8-1.7,1.1-1.9
	c0.5-0.5,0.9-0.8,1.1-1.4c0.1-0.3,0.1-1,0-1.2c1.8,0.7,2.2,2.1,1.9,2.8c-0.3,0.7-0.4,1.3-0.3,1.7c0.7-0.4,1.1-1.6,1.2-1.8
	c1.7,1.7,0.2,4.2-0.7,4.2c0.6-0.4,1.5-2.4,0.8-3.6c-0.1,0.5-0.6,1.3-1.6,1.7c-0.3-0.8-0.1-1.8,0-2.3c0.2-0.6-0.1-1.5-0.8-1.9
	C14.7,37.3,14.1,37.9,13.2,38.6z"/>
<path class="st11" d="M9.9,38.3c0,0-1-0.7-0.8-3c0.1-0.9,0.5-1.1,0.8-2c0.4-1.1,0.2-2.6,0.2-2.6s1.9,1.3,0.8,3.1
	C9.1,36.5,9.9,38.3,9.9,38.3z"/>
<polygon class="st9" points="8.5,44.3 20,44.3 19.6,43.6 8.8,43.6 "/>
<path class="st11" d="M9.2,44.7h10c0,0-1.2,0.3-2.1,1.1h-5.6C11.5,45.9,10.6,45.1,9.2,44.7z"/>
<path class="st11" d="M12.1,46.3l0.9,8.9c0,0,0,0.7,1.2,0.7h0.1c1.2,0,1.2-0.7,1.2-0.7l1-8.9H12.1z"/>
<path class="st0" d="M14.9,47.7c0-0.4-0.2-0.6-0.6-0.7c0,0-0.1,0-0.1,0c0,0,0,0,0,0c-0.2,0-0.4,0.1-0.6,0.2
	c-0.1,0.1-0.2,0.3-0.2,0.5l0.4,6.6c0,0.2,0.1,0.3,0.4,0.3c0.2,0,0.3,0,0.4-0.1l0-0.1c0,0,0,0,0,0l0,0l0-0.1
	C14.7,54.3,14.9,47.7,14.9,47.7z M14.7,47.7c0,0-0.2,6.1-0.3,6.6c0,0.1-0.1,0.1-0.2,0.1c-0.1,0-0.1-0.1-0.1-0.2c0,0-0.3-6.5-0.3-6.5
	c0-0.3,0.1-0.5,0.5-0.5C14.5,47.2,14.7,47.3,14.7,47.7z"/>
</svg>
