<?xml version="1.0" encoding="UTF-8"?>
<svg id="Layer_1" data-name="Layer 1" xmlns="http://www.w3.org/2000/svg" viewBox="0 0 740.81 221.47">
  <defs>
    <style>
      .cls-1 {
        fill: none;
      }

      .cls-2 {
        fill: #d90017;
      }

      .cls-3 {
        fill: #ffbf00;
      }

      .cls-4 {
        fill: #0058a7;
      }
    </style>
  </defs>
  <rect class="cls-1" x="32.85" y="50.73" width="135" height="120"/>
  <g id="Group_307" data-name="Group 307">
    <path id="Path_427" data-name="Path 427" class="cls-4" d="M108.09.54c2.38,10.96,1.36,22.19,1.7,33.97l-.14,34.53c-1.33,29.47-5.24,58.77-11.69,87.55l-8.16,35.01c-2.79,9.66-4.83,19.59-7.55,29.18H-.19c39.37-41.31,62.66-83.39,81.98-135.64,8.55-26.31,14.34-55.28,9.72-84.6h16.59Z"/>
    <path id="Path_428" data-name="Path 428" class="cls-2" d="M135.88,80.32c13.53,0,24.49-8.08,24.49-18.04s-10.97-18.04-24.49-18.04-24.49,8.08-24.49,18.04,10.97,18.04,24.49,18.04"/>
    <path id="Path_429" data-name="Path 429" class="cls-3" d="M163.58.97c-2.38,10.96-1.36,22.19-1.7,33.97l.14,34.53c1.33,29.47,5.24,58.77,11.69,87.55l8.16,35.01c2.79,9.66,4.83,19.59,7.55,29.18h82.45c-39.37-41.31-62.66-83.39-81.98-135.64-8.56-26.31-14.34-55.27-9.72-84.6h-16.58Z"/>
  </g>
  <rect class="cls-1" x="173.17" y="-15.83" width="135" height="120"/>
  <g id="Group_307-2" data-name="Group 307">
    <path id="Path_430" data-name="Path 430" d="M339.39,80.13c6.31-.06,7.47-.06,17.83,0v-19.53l-6.5-.06v-1.81s5.34.06,11.91.06c3.67,0,7.4,0,11.07-.06v1.81l-6.5.06v42.05l6.5.06v1.82c-3.8-.06-7.66-.06-11.45-.06s-7.74,0-11.52.06v-1.82l6.5-.06v-20.38c-3.1.06-6.24.06-9.33.06-4.64,0-6.37,0-8.5-.06v20.38l6.5.06v1.82c-4.95-.06-10.36-.06-12.36-.06-3.61,0-7.27,0-10.88.06v-1.82l6.57-.06v-42.05l-6.57-.07v-1.81c3.8.06,7.6.06,11.39.06s7.85,0,11.85-.06v1.81l-6.5.06v19.54Z"/>
    <path id="Path_431" data-name="Path 431" d="M399.57,105.5c-12.81-.3-22.98-10.87-22.79-23.68,0-11.87,9.08-24.07,22.66-24.07,13.19.3,23.64,11.23,23.34,24.42-.29,12.72-10.49,22.98-23.21,23.34M399.7,59.63c-3.62-.06-6.93,2.03-8.43,5.32-2.77,5-2.96,14.08-2.96,16.94,0,7.59,1.29,21.74,11.52,21.74,9.01,0,11.26-10.64,11.26-22.32,0-8.05-1.09-21.67-11.39-21.67M392.81,55.09c-2.16,0-3.92-1.74-3.93-3.9,0-.02,0-.04,0-.05-.02-2.15,1.71-3.91,3.86-3.93s3.91,1.71,3.93,3.86c.06,2.16-1.64,3.96-3.8,4.02-.02,0-.04,0-.06,0M406.4,55.1c-2.16,0-3.92-1.74-3.93-3.9,0-.02,0-.04,0-.05-.02-2.15,1.71-3.91,3.86-3.93,2.15-.02,3.91,1.71,3.93,3.86.06,2.16-1.64,3.96-3.81,4.02-.02,0-.04,0-.06,0"/>
    <path id="Path_432" data-name="Path 432" d="M452.82,88.7c.19,0,4.89.06,10.69.06,3.67,0,7.27,0,10.94-.06v1.88l-5.09.06-.13,6.1c-5.09,8.31-14.94,8.76-17.51,8.76-12.34.18-22.5-9.68-22.68-22.02,0-.4,0-.8.01-1.19-.31-13.12,9.99-24.05,23.11-24.53,4.49.05,8.84,1.52,12.43,4.22l2.25-2.53,1.42.72c-.32,2.06-.49,4.14-.51,6.23,0,1.36.13,2.72.19,4.09l.39,4.09-1.74.39c-.42-2.05-1-4.07-1.74-6.03-1.53-5.08-6.1-8.64-11.39-8.89-9.46,0-12.75,12.38-12.75,22.38,0,12.72,4.32,21.09,11.33,21.09,2.68-.01,5.17-1.41,6.57-3.7.85-1.64,1.21-3.49,1.03-5.32v-3.83l-6.81-.06v-1.9Z"/>
    <path id="Path_433" data-name="Path 433" d="M480.9,88.9c.64,3.83,2.38,13.95,12.55,13.95,4.88.53,9.27-3,9.8-7.88.02-.2.04-.41.05-.62,0-5-3.93-6.36-8.18-7.79l-3.67-1.17c-4.18-1.49-12.49-4.41-12.49-13.89-.07-7.49,5.94-13.62,13.43-13.69.14,0,.27,0,.41,0,3.3.09,6.51,1.07,9.29,2.85l1.86-2.01,1.55.52c-.24,2.26-.37,4.54-.39,6.81-.02,2.02.11,4.03.39,6.03l-2.06.52c-.25-2.06-.73-4.08-1.42-6.03-1.55-3.88-5.28-6.45-9.46-6.5-4.16-.32-7.8,2.8-8.11,6.96,0,.08-.01.17-.02.25,0,4.67,3.99,6.03,8.88,7.66l2.96.91c4.32,1.55,12.43,4.48,12.43,14.28.22,8.23-6.26,15.08-14.49,15.31-.21,0-.42,0-.64,0-3.99-.13-7.87-1.41-11.14-3.7l-1.67,2.73-1.8-.72c.19-2.01.31-4.22.31-6.62,0-2.6-.26-6.1-.39-7.85l2.03-.33Z"/>
    <path id="Path_434" data-name="Path 434" d="M537.15,75.33l19.31,27.32,5.15.06v1.82c-3.54-.06-7.08-.06-10.69-.06-4.25,0-8.49,0-12.74.06v-1.82l5.66-.06c-.19-.4-.4-.79-.64-1.17-.71-1.24-4.7-7.01-5.6-8.31l-8.18-11.87,10.11-12.2c2.35-2.71,4.54-5.54,6.57-8.5l-5.92-.06v-1.81c2.96.06,5.92.06,8.89.06,2.32,0,4.7,0,6.95-.06v1.81l-5.99.06c-2.19,2.34-3.15,3.44-7.15,8.05l-5.72,6.68ZM529.62,102.65l6.05.06v1.82c-3.48-.06-6.95-.06-10.36-.06-4.12,0-8.24,0-12.3.06v-1.82l6.5-.06v-42.05l-6.24-.06v-1.81c3.73.06,7.47.06,11.26.06s7.53,0,11.33-.06v1.81l-6.25.06-.26,20.7.26,21.35Z"/>
    <path id="Path_435" data-name="Path 435" d="M583.32,105.5c-12.81-.3-22.99-10.87-22.79-23.68,0-11.87,9.08-24.07,22.66-24.07,13.19.3,23.64,11.23,23.34,24.42-.29,12.72-10.49,22.98-23.21,23.34M583.45,59.63c-3.62-.06-6.93,2.03-8.43,5.32-2.77,5-2.96,14.08-2.96,16.93,0,7.59,1.29,21.74,11.52,21.74,9.01,0,11.26-10.64,11.26-22.32,0-8.05-1.1-21.67-11.4-21.67"/>
    <path id="Path_436" data-name="Path 436" d="M626.48,90.84c0,1.55-.06,9.41-.06,11.22h4.12c5.73-.13,9.4-.26,11.91-2.27,2.71-2.21,3.15-5.71,3.54-9.47l.26-2.14,2,.13-.52,7.01c-.13,1.82-.19,3.63-.31,5.39-.13,3.76-.39,3.89-2.45,3.89-3.22,0-18.73-.2-22.21-.2-2.19,0-4.38,0-6.57.06-2.19,0-4.38,0-6.57.06l.06-1.82,6.57-.13c.13-4.28.19-6.42.19-11.81v-17.72c0-8.7-.06-9.93-.19-12.46l-6.63-.06.06-1.81c3.67.06,7.4.06,11.08.06,6.24,0,10.88-.06,12.36-.06v1.81l-6.63.06v30.24Z"/>
    <path id="Path_437" data-name="Path 437" d="M682.22,84.74c.97,2.72,1.93,5.52,2.83,8.31,1.86,5.57,2.12,6.36,3.41,9.6l5.09.06v1.81c-3.41-.06-6.89-.06-10.36-.06-3.8,0-7.6,0-11.39.06v-1.81l5.99-.06-4.32-14.4h-11.58l-4.25,14.4h6.12v1.88c-2.32-.06-4.64-.06-6.95-.06s-5.09,0-7.47.06v-1.88h5.21c1.55-4.15,2.77-8.05,5.66-17.39l3.48-11.29c2.83-9.54,3.41-11.61,4.5-16.03h5.61c.13.45.26.91.39,1.36.77,2.85,1.29,4.41,4.76,15.51l3.27,9.93ZM672.89,86.17l-1.24-3.89c-2.12-6.62-2.77-8.89-4.12-13.37l-5.15,17.26h10.51Z"/>
    <path id="Path_438" data-name="Path 438" d="M733.47,88.77c-.06,7.14-.06,8.5.13,15.77h-4.57c-1.8-3.05-3.22-5.39-6.31-10.25l-19.44-30.76.26,39.13,6.95.06v1.81c-2.83-.06-5.73-.06-8.56-.06-2.45,0-4.95,0-7.4.06v-1.81l6.44-.06c-.06-1.24-.06-2.48-.06-3.71,0-5.32-.06-10.64-.06-15.96,0-7.33.06-14.6.26-21.87-.96-.4-1.99-.58-3.03-.52l-3.54-.06v-1.81c2.7.06,6.37.06,9.85.06s4.76,0,7.34-.06c1.8,2.92,4.12,6.68,5.48,8.83l13.91,22.19.38-29.14-7.21-.06v-1.81c2.71.06,5.41.06,8.11.06s5.47,0,8.17-.06v1.81l-6.5.06c-.06,1.82-.31,10.64-.31,12.59l-.27,15.59Z"/>
    <path id="Path_439" data-name="Path 439" d="M421.75,170.96l6.44.06v1.82c-3.73-.06-7.53-.06-11.33-.06s-7.85,0-11.78.06v-1.82l6.5-.06v-42.05l-6.5-.06v-1.81c4.12.06,8.31.06,12.42.06,3.61,0,7.15,0,10.69-.06v1.81l-6.44.06v42.05Z"/>
    <path id="Path_440" data-name="Path 440" d="M472.43,157.01c.19,0,4.89.06,10.69.06,3.67,0,7.27,0,10.95-.06v1.88l-5.09.06-.13,6.1c-5.09,8.31-14.94,8.76-17.51,8.76-12.34.18-22.5-9.68-22.67-22.03,0-.4,0-.79.01-1.19-.31-13.12,9.99-24.06,23.11-24.53,4.49.05,8.84,1.52,12.43,4.22l2.25-2.53,1.41.72c-.32,2.06-.49,4.14-.51,6.23,0,1.36.13,2.72.2,4.09l.39,4.09-1.74.39c-.42-2.05-1-4.07-1.74-6.03-1.53-5.08-6.1-8.64-11.39-8.89-9.47,0-12.75,12.38-12.75,22.38,0,12.72,4.31,21.09,11.33,21.09,2.68,0,5.17-1.41,6.57-3.7.85-1.64,1.21-3.49,1.03-5.32v-3.83l-6.81-.06v-1.9Z"/>
    <path id="Path_441" data-name="Path 441" d="M524.13,153.05c.97,2.73,1.93,5.52,2.83,8.31,1.86,5.57,2.12,6.36,3.41,9.6l5.09.06v1.83c-3.41-.06-6.89-.06-10.36-.06-3.8,0-7.6,0-11.39.06v-1.82l5.99-.06-4.32-14.4h-11.59l-4.25,14.4h6.11v1.88c-2.32-.06-4.64-.06-6.95-.06s-5.09,0-7.47.06v-1.88h5.21c1.55-4.15,2.77-8.05,5.66-17.39l3.48-11.29c2.83-9.54,3.41-11.62,4.5-16.03h5.6c.13.45.26.91.38,1.36.77,2.85,1.29,4.41,4.76,15.51l3.3,9.93ZM514.8,154.48l-1.22-3.89c-2.12-6.62-2.77-8.89-4.12-13.37l-5.15,17.26h10.49ZM506.04,123.4c-2.16,0-3.92-1.74-3.93-3.9,0-.02,0-.04,0-.05-.02-2.15,1.71-3.91,3.86-3.93s3.91,1.71,3.93,3.86c.06,2.16-1.64,3.96-3.8,4.02-.02,0-.04,0-.06,0M519.63,123.4c-2.16,0-3.92-1.74-3.93-3.91,0-.02,0-.03,0-.05-.02-2.15,1.71-3.91,3.86-3.93,2.15-.02,3.91,1.71,3.93,3.86.06,2.16-1.64,3.96-3.81,4.02-.02,0-.04,0-.05,0"/>
    <path id="Path_442" data-name="Path 442" d="M536.56,138c-2.64-6.88-2.83-7.4-3.48-9.08l-5.92-.07v-1.82c3.99.06,7.98.06,11.97.06s8.05,0,12.04-.06l-.06,1.82-6.57.06c.96,4.02,1.67,6.42,4.5,15.25l6.19,18.23,6.95-22.39c2.19-7.92,2.77-9.86,3.02-11.09l-6.89-.06-.06-1.82c2.51.06,5.09.06,7.6.06,2.71,0,5.47,0,8.24-.06v1.82l-5.92.06-10.3,32.44c-1.29,4.28-2.06,6.75-3.54,12.91h-5.09c-2.38-7.27-2.64-8.11-4.7-13.89l-8-22.37Z"/>
    <path id="Path_443" data-name="Path 443" d="M591.54,159.15c0,1.55-.06,9.41-.06,11.22h4.12c5.73-.13,9.4-.26,11.91-2.27,2.71-2.21,3.15-5.71,3.54-9.47l.26-2.14,2,.13-.51,7.01c-.13,1.82-.19,3.63-.31,5.39-.13,3.76-.39,3.89-2.45,3.89-3.22,0-18.73-.2-22.21-.2-2.19,0-4.38,0-6.57.06-2.19,0-4.38,0-6.57.06l.06-1.82,6.57-.13c.13-4.28.19-6.42.19-11.81v-17.72c0-8.7-.06-9.93-.19-12.46l-6.63-.06.06-1.81c3.67.06,7.4.06,11.08.06,6.24,0,10.88-.06,12.36-.06v1.81l-6.63.06-.02,30.24Z"/>
    <path id="Path_444" data-name="Path 444" d="M632.29,149.74l.26,20.63h3.28c6.24-.06,9.6-.13,12.36-1.95,3.28-2.21,3.73-5.57,4.38-10.32l2.06.06-.51,6.68c-.19,3.44-.31,5.51-.45,6.81-.13,1.04-.26,1.24-2.32,1.24-.51,0-2.96-.06-3.48-.06-7.34-.06-14.68-.13-22.02-.13-3.41,0-6.76.06-10.11.13v-1.88l6.5-.06v-41.84l-6.05-.06v-1.88c11.91.06,24.4.13,35.67-.31,0,2.14,0,3.31.13,5.97l.39,6.68-1.93.31c-1.42-8.36-3.73-10.45-14.42-10.45l-3.54.06-.19,18.49,2.51-.13c5.54-.39,6.89-2.33,7.34-8.31h1.93c-.19,2.21-.31,4.33-.31,12.07,0,1.17,0,3.89.13,6.55h-1.93c-.71-6.29-.9-7.66-7.34-8.18l-2.33-.14Z"/>
  </g>
</svg>