<?xml version="1.0" encoding="UTF-8"?>
<svg id="Layer_1" data-name="Layer 1" xmlns="http://www.w3.org/2000/svg" viewBox="0 0 740.81 246.47">
  <defs>
    <style>
      .cls-1 {
        fill: #00bff2;
      }

      .cls-2 {
        fill: #85b9e4;
      }

      .cls-3 {
        fill: #004b88;
      }

      .cls-4 {
        fill: #0072b4;
      }
    </style>
  </defs>
  <g id="Symbols">
    <g id="Header_Navigation-Bar" data-name="Header/Navigation-Bar">
      <g id="Logo_Horizontal" data-name="Logo/Horizontal">
        <g id="HH-Logo-Horizontal">
          <path id="Fill-1" class="cls-3" d="M220.57,115.92c0-.86.86-1.73,1.73-1.73h5.92c.99,0,1.73.86,1.73,1.73v25.17h33.07v-25.17c0-.86.74-1.73,1.73-1.73h5.92c.86,0,1.73.86,1.73,1.73v59.85c0,.86-.86,1.73-1.73,1.73h-5.92c-.99,0-1.73-.86-1.73-1.73v-26.16h-33.07v26.16c0,.86-.74,1.73-1.73,1.73h-5.92c-.86,0-1.73-.86-1.73-1.73v-59.85Z"/>
          <path id="Fill-3" class="cls-3" d="M319.78,101.73c0-2.84,2.22-5.06,5.06-5.06s5.18,2.22,5.18,5.06-2.34,5.18-5.18,5.18-5.06-2.47-5.06-5.18M299.17,101.73c0-2.84,2.22-5.06,5.06-5.06s5.18,2.22,5.18,5.06-2.34,5.18-5.18,5.18-5.06-2.47-5.06-5.18M314.47,169.35c12.96,0,23.45-10.49,23.45-23.45s-10.61-23.57-23.45-23.57-23.45,10.74-23.45,23.57c.12,12.96,10.61,23.45,23.45,23.45M314.47,113.32c18.02,0,32.58,14.56,32.58,32.58s-14.44,32.45-32.58,32.45-32.45-14.31-32.45-32.45,14.44-32.58,32.45-32.58"/>
          <path id="Fill-5" class="cls-3" d="M385.3,113.32c8.64,0,15.79,3.21,21.96,8.39.74.74.86,1.85.12,2.47-1.36,1.48-2.71,2.84-4.07,4.2-.74.86-1.48.74-2.34-.12-4.2-3.7-9.87-6.17-15.3-6.17-12.83,0-22.71,10.86-22.71,23.45s9.87,23.45,22.71,23.45c7.53,0,12.71-2.71,13.57-3.08v-10.12h-8.88c-.99,0-1.73-.74-1.73-1.6v-5.18c0-.99.74-1.73,1.73-1.73h16.41c.86,0,1.6.86,1.6,1.73,0,7.28.12,14.68.12,21.84,0,.49-.37,1.23-.74,1.48,0,0-9.25,5.92-22.46,5.92-18.02,0-32.58-14.31-32.58-32.45,0-17.89,14.56-32.45,32.58-32.45"/>
          <path id="Fill-7" class="cls-3" d="M415.91,168.36c.86-1.23,1.48-2.59,2.34-3.7.86-1.23,2.1-1.48,3.08-.74.49.49,7.53,6.29,14.44,6.29,6.29,0,10.24-3.83,10.24-8.39,0-5.43-4.69-8.88-13.7-12.59-9.25-3.83-16.41-8.64-16.41-19.13,0-7.03,5.43-16.66,19.74-16.66,9.01,0,15.79,4.69,16.66,5.31.74.49,1.48,1.73.49,3.08-.74,1.11-1.48,2.34-2.22,3.46-.74,1.23-1.85,1.73-3.21.86-.62-.37-6.91-4.57-12.22-4.57-7.65,0-10.24,4.81-10.24,8.14,0,5.18,3.95,8.27,11.48,11.35,10.49,4.2,19.37,9.25,19.37,20.24,0,9.38-8.39,17.03-20.11,17.03-10.98,0-18.02-5.8-19.37-7.16-.62-.74-1.36-1.36-.37-2.84"/>
          <path id="Fill-9" class="cls-3" d="M465.88,116.41c0-1.23.86-2.22,2.22-2.22h5.18c1.23,0,2.22.99,2.22,2.22v25.05l25.42-26.28c.37-.49.99-.86,1.73-.86h6.79c1.6,0,2.47,1.85,1.23,3.21l-26.16,26.53,27.64,30.48c.74.86.25,2.96-1.6,2.96h-7.28c-.86,0-1.48-.37-1.6-.62l-26.28-29.62v28.13c0,1.23-.99,2.22-2.22,2.22h-5.18c-1.23,0-2.22-.99-2.22-2.22v-58.98h.12Z"/>
          <path id="Fill-11" class="cls-3" d="M544.61,169.35c12.96,0,23.45-10.49,23.45-23.45s-10.61-23.57-23.45-23.57-23.45,10.74-23.45,23.57,10.61,23.45,23.45,23.45M544.61,113.32c18.02,0,32.58,14.56,32.58,32.58s-14.44,32.45-32.58,32.45-32.45-14.31-32.45-32.45,14.44-32.58,32.45-32.58"/>
          <path id="Fill-13" class="cls-3" d="M587.43,115.92c0-.86.74-1.73,1.73-1.73h5.92c.86,0,1.73.86,1.73,1.73v53.18h24.43c.99,0,1.73.86,1.73,1.73v4.94c0,.86-.74,1.73-1.73,1.73h-32.21c-.99,0-1.73-.86-1.73-1.73v-59.85h.12Z"/>
          <path id="Fill-15" class="cls-3" d="M665.17,156.02l-11.11-24.8h-.49l-10.98,24.8h22.58ZM624.2,175.15l27.76-60.84c.25-.49,1.11-.99,1.48-.99h.86c.49,0,1.23.49,1.48.99l27.52,60.84c.49,1.23-.12,2.34-1.48,2.34h-5.68c-1.11,0-1.73-.49-2.1-1.36l-5.55-12.34h-29.49c-1.85,4.2-3.7,8.27-5.55,12.34-.25.62-.99,1.36-2.1,1.36h-5.68c-1.23,0-1.97-1.23-1.48-2.34Z"/>
          <path id="Fill-17" class="cls-3" d="M688.25,114.93c0-.86.86-1.6,1.73-1.6h2.22l39.24,45.41h.12v-42.7c0-.86.74-1.73,1.73-1.73h5.8c.86,0,1.73.86,1.73,1.73v60.84c0,.86-.86,1.6-1.73,1.6h-2.34l-39.24-46.64h-.12v44.05c0,.86-.74,1.73-1.73,1.73h-5.68c-.86,0-1.73-.86-1.73-1.73v-60.96Z"/>
          <path id="Fill-19" class="cls-3" d="M302.87,201.18c0-.62.62-1.23,1.23-1.23h4.44c.62,0,1.23.62,1.23,1.23v44.05c0,.62-.62,1.23-1.23,1.23h-4.44c-.62,0-1.23-.62-1.23-1.23v-44.05Z"/>
          <path id="Fill-21" class="cls-3" d="M335.08,201.18c0-.62.62-1.23,1.23-1.23h4.44c.74,0,1.23.62,1.23,1.23v18.51h24.31v-18.51c0-.62.49-1.23,1.23-1.23h4.44c.62,0,1.23.62,1.23,1.23v44.05c0,.62-.62,1.23-1.23,1.23h-4.32c-.74,0-1.23-.62-1.23-1.23v-19.25h-24.31v19.25c0,.62-.49,1.23-1.23,1.23h-4.44c-.62,0-1.23-.62-1.23-1.23v-44.05h-.12Z"/>
          <path id="Fill-23" class="cls-3" d="M408.87,230.68l-8.14-18.26h-.37l-8.14,18.26h16.66ZM378.76,244.74l20.36-44.79c.25-.37.74-.74,1.11-.74h.62c.37,0,.99.37,1.11.74l20.24,44.79c.37.86-.12,1.73-1.11,1.73h-4.2c-.74,0-1.23-.37-1.48-.99l-4.07-9.13h-21.72c-1.36,3.08-2.71,6.05-4.07,9.13-.25.49-.74.99-1.48.99h-4.2c-.99,0-1.48-.86-1.11-1.73Z"/>
          <path id="Fill-25" class="cls-3" d="M428,201.18c0-.62.49-1.23,1.23-1.23h4.44c.62,0,1.23.62,1.23,1.23v39.12h18.02c.74,0,1.23.62,1.23,1.23v3.7c0,.62-.49,1.23-1.23,1.23h-23.69c-.74,0-1.23-.62-1.23-1.23v-44.05h0Z"/>
          <g id="Group-29">
            <path id="Fill-27" class="cls-3" d="M465.07,200.28c.12-.49.62-.99,1.23-.99h1.11c.37,0,.99.37,1.11.74l13.94,33.93h.25l13.82-33.93c.12-.37.62-.74,1.11-.74h1.11c.49,0,1.11.49,1.23.99l8.14,44.67c.25.99-.25,1.48-1.23,1.48h-4.32c-.62,0-1.11-.49-1.23-.99l-4.94-29.74h-.25l-11.97,30.6c-.12.37-.49.74-1.11.74h-1.23c-.49,0-.99-.37-1.11-.74l-12.09-30.6h-.25l-4.81,29.86c0,.49-.62.99-1.23.99h-4.32c-.99,0-1.36-.62-1.23-1.48l8.27-44.79Z"/>
          </g>
          <g id="Group-32">
            <path id="Fill-30" class="cls-3" d="M513.61,239.77c.62-.86,1.11-1.85,1.73-2.71s1.48-1.11,2.22-.49c.37.37,5.55,4.57,10.61,4.57,4.57,0,7.53-2.84,7.53-6.17,0-3.95-3.46-6.54-10-9.25-6.79-2.84-12.09-6.42-12.09-14.07,0-5.18,3.95-12.34,14.56-12.34,6.66,0,11.6,3.46,12.34,3.95.49.37,1.11,1.23.37,2.22-.49.74-1.11,1.73-1.6,2.47-.49.86-1.36,1.23-2.34.62-.49-.25-5.06-3.33-9.01-3.33-5.55,0-7.53,3.58-7.53,5.92,0,3.83,2.96,6.17,8.39,8.39,7.77,3.08,14.31,6.79,14.31,14.93,0,6.91-6.17,12.59-14.81,12.59-8.14,0-13.2-4.2-14.31-5.31-.49-.37-.99-.86-.37-1.97"/>
          </g>
          <path id="Fill-33" class="cls-3" d="M557.57,206.24h-10.86c-.74,0-1.23-.62-1.23-1.23v-3.7c0-.62.49-1.23,1.23-1.23h28.63c.74,0,1.23.62,1.23,1.23v3.7c0,.62-.49,1.23-1.23,1.23h-10.86v38.99c0,.62-.62,1.23-1.23,1.23h-4.32c-.62,0-1.23-.62-1.23-1.23v-38.99h-.12Z"/>
          <path id="Fill-35" class="cls-3" d="M602.85,230.68l-8.14-18.26h-.37l-8.14,18.26h16.66ZM572.74,244.74l20.36-44.79c.25-.37.74-.74,1.11-.74h.62c.37,0,.99.37,1.11.74l20.24,44.79c.37.86-.12,1.73-1.11,1.73h-4.2c-.74,0-1.23-.37-1.48-.99l-4.07-9.13h-21.72c-1.36,3.08-2.71,6.05-4.07,9.13-.25.49-.74.99-1.48.99h-4.2c-.99,0-1.48-.86-1.11-1.73Z"/>
          <path id="Fill-37" class="cls-3" d="M637.41,240.18c9.75,0,16.91-7.16,16.91-17.03s-7.16-16.91-16.91-16.91h-8.76v33.93h8.76ZM621.86,201.18c0-.62.49-1.23,1.23-1.23h15.3c12.83,0,23.32,10.49,23.32,23.2s-10.49,23.32-23.32,23.32h-15.3c-.62,0-1.23-.62-1.23-1.23v-44.05Z"/>
          <g id="Group-41">
            <polygon id="Fill-39" class="cls-4" points="60.64 177 .43 141.83 60.64 106.66 60.64 177"/>
          </g>
          <polygon id="Fill-42" class="cls-3" points="121.6 71.37 181.94 106.66 121.6 141.83 121.6 71.37"/>
          <polygon id="Fill-44" class="cls-1" points="181.94 177 121.6 141.83 181.94 106.66 181.94 177"/>
          <polygon id="Fill-46" class="cls-4" points="121.6 141.83 60.64 106.66 121.6 71.37 121.6 141.83"/>
          <polygon id="Fill-48" class="cls-2" points="60.64 36.2 121.6 71.37 60.64 106.66 60.64 36.2"/>
          <polygon id="Fill-50" class="cls-2" points="121.6 212.29 60.64 177.12 121.6 141.83 121.6 212.29"/>
          <polygon id="Fill-52" class="cls-3" points="60.64 106.66 121.6 141.83 60.64 177 60.64 106.66"/>
          <g id="Group-56">
            <polygon id="Fill-54" class="cls-1" points=".43 71.36 60.64 106.65 .43 141.82 .43 71.36"/>
          </g>
          <g id="Group-59">
            <polygon id="Fill-57" class="cls-1" points=".43 141.84 .43 211.81 60.64 247.1 60.64 177.01 .43 141.84"/>
          </g>
          <g id="Group-62">
            <polygon id="Fill-60" class="cls-1" points="121.63 1 121.63 71.46 181.85 106.75 181.85 36.29 121.63 1"/>
          </g>
        </g>
      </g>
    </g>
  </g>
</svg>