<?xml version="1.0" encoding="UTF-8"?>
<svg id="Layer_1" data-name="Layer 1" xmlns="http://www.w3.org/2000/svg" viewBox="0 0 740.81 183.89">
  <defs>
    <style>
      .cls-1 {
        fill: #231f20;
      }
    </style>
  </defs>
  <g>
    <path class="cls-1" d="M229.51,30.78v33.86c0,7.4-3.74,12-9.77,12-4.83,0-8.03-2.01-11.44-7.16l-.06-.09-4.19,3.6-.06.05.04.07c3.64,5.95,8.9,8.97,15.63,8.97,4.62,0,8.52-1.52,11.29-4.39,2.94-3.06,4.5-7.59,4.5-13.12V30.78h-5.95Z"/>
    <g>
      <rect class="cls-1" x="274.15" y="19.48" width="6.67" height="7.03"/>
      <rect class="cls-1" x="286.82" y="19.48" width="6.67" height="7.03"/>
      <path class="cls-1" d="M302.52,37.7c-4.75-5.02-11.36-7.79-18.63-7.79s-13.91,2.79-18.71,7.86c-4.62,4.88-7.16,11.41-7.16,18.37s2.52,13.46,7.09,18.3c4.75,5.02,11.36,7.79,18.63,7.79s13.91-2.79,18.71-7.86c4.62-4.89,7.16-11.41,7.16-18.37s-2.52-13.46-7.09-18.3ZM303.52,56.14c0,11.77-8.44,20.64-19.63,20.64s-19.78-8.93-19.78-20.78,8.44-20.64,19.63-20.64,19.77,8.93,19.77,20.78Z"/>
    </g>
    <polygon class="cls-1" points="369.98 30.78 369.98 70.99 338.4 30.82 338.37 30.78 332.91 30.78 332.91 81.36 338.64 81.36 338.64 40.22 371.01 81.33 371.04 81.36 375.71 81.36 375.71 30.78 369.98 30.78"/>
    <polygon class="cls-1" points="421.86 52.91 443.4 30.94 443.56 30.78 435.95 30.78 407.15 60.73 407.15 30.78 401.27 30.78 401.27 81.36 407.15 81.36 407.15 67.77 417.77 57.01 437.07 81.33 437.1 81.36 444.47 81.36 421.86 52.91"/>
    <g>
      <path class="cls-1" d="M504.91,37.7c-4.74-5.02-11.36-7.79-18.63-7.79s-13.91,2.79-18.7,7.86c-4.62,4.88-7.16,11.41-7.16,18.37s2.52,13.46,7.09,18.3c4.74,5.02,11.36,7.79,18.63,7.79s13.91-2.79,18.71-7.86c4.62-4.89,7.16-11.41,7.16-18.37s-2.52-13.46-7.09-18.3ZM505.91,56.14c0,11.77-8.44,20.64-19.63,20.64s-19.78-8.93-19.78-20.78,8.44-20.64,19.63-20.64,19.78,8.93,19.78,20.78Z"/>
      <rect class="cls-1" x="489.2" y="19.48" width="6.67" height="7.03"/>
      <rect class="cls-1" x="476.53" y="19.48" width="6.67" height="7.03"/>
    </g>
    <path class="cls-1" d="M566.8,35.08c-3.35-2.81-8.11-4.3-13.76-4.3h-18.95v50.58h5.87v-17.78h12.14c5.49,0,10.46-1.49,13.98-4.19,3.87-2.97,5.91-7.28,5.91-12.46,0-4.9-1.8-9-5.2-11.85ZM566.05,47.15c0,6.62-5.52,11.06-13.73,11.06h-12.36v-21.98h12.65c8.54,0,13.44,3.98,13.44,10.92Z"/>
    <rect class="cls-1" x="596" y="30.78" width="5.88" height="50.58"/>
    <polygon class="cls-1" points="664.55 30.78 664.55 70.99 632.97 30.82 632.95 30.78 627.48 30.78 627.48 81.36 633.21 81.36 633.21 40.22 665.58 81.33 665.61 81.36 670.28 81.36 670.28 30.78 664.55 30.78"/>
    <path class="cls-1" d="M718.87,54.25v5.3h15.33v12.39c-3.86,3.13-9.26,4.99-14.45,4.99-11.87,0-19.85-8.41-19.85-20.93,0-11.57,8.37-20.64,19.06-20.64,7.63,0,11.85,2.76,15.27,5.74l.07.06,3.73-4.39.06-.07-.07-.06c-5.66-4.77-11.12-6.72-18.85-6.72-7.15,0-13.68,2.8-18.37,7.89-4.51,4.88-6.99,11.4-6.99,18.34s2.45,13.77,6.9,18.49c4.69,4.97,11.2,7.6,18.82,7.6,10.12,0,17.06-4.84,20.29-7.73l.03-.03v-20.22h-20.99Z"/>
  </g>
  <g>
    <path class="cls-1" d="M65.71,183.89v-96.4c0-7.67-6.21-13.88-13.88-13.88H.69s0,50.14,0,50.14c0,33.22,26.93,60.14,60.14,60.14h4.88Z"/>
    <path class="cls-1" d="M140.81,57.51c0-7.67-6.21-13.88-13.88-13.88h-51.14s0,140.26,0,140.26h4.88c33.22,0,60.14-26.92,60.14-60.14V57.51Z"/>
    <path class="cls-1" d="M140.81,19.66c0,7.67-6.21,13.88-13.88,13.88h-51.14s0-19.66,0-19.66c0-7.67,6.21-13.88,13.88-13.88h52.21c.07,0,.14.06.14.14,0,.05-.03.1-.07.12h0c-.64.35-1.08,1.01-1.12,1.77v17.64Z"/>
  </g>
  <g>
    <path class="cls-1" d="M240.3,112.66v29.46c0,10.53-5.51,16.57-15.13,16.57s-15.34-6.17-15.34-16.93v-29.09h-5.89v29.46c0,6.89,2.02,12.56,5.84,16.39,3.68,3.69,8.95,5.64,15.24,5.64s11.67-1.97,15.33-5.69c3.81-3.88,5.83-9.67,5.83-16.77v-29.02h-5.89Z"/>
    <polygon class="cls-1" points="307.29 112.66 307.29 152.95 275.65 112.69 275.62 112.66 270.14 112.66 270.14 163.34 275.88 163.34 275.88 122.11 308.32 163.31 308.35 163.34 313.04 163.34 313.04 112.66 307.29 112.66"/>
    <rect class="cls-1" x="338.74" y="112.66" width="5.89" height="50.69"/>
    <polygon class="cls-1" points="407.34 112.66 389.37 156.01 371.49 112.72 371.47 112.66 364.91 112.66 386.68 163.65 386.71 163.7 391.88 163.7 413.62 112.79 413.68 112.66 407.34 112.66"/>
    <polygon class="cls-1" points="438.8 157.96 438.8 140.48 466.35 140.48 466.35 135.09 438.8 135.09 438.8 118.04 469.6 118.04 469.6 112.66 432.91 112.66 432.91 163.34 469.96 163.34 469.96 157.96 438.8 157.96"/>
    <path class="cls-1" d="M518.82,142.68c8.67-1.63,13.63-7.04,13.63-14.85,0-9.22-7.2-15.17-18.35-15.17h-21.81v50.69h5.89v-19.62h14.28l14.62,19.59.03.04h7.24l-15.53-20.66ZM526.49,128.04c0,6.3-5.06,10.37-12.89,10.37h-15.42v-20.3h15.49c8.03,0,12.82,3.71,12.82,9.93Z"/>
    <path class="cls-1" d="M572.92,135.17c-11.52-2.47-13.63-5.23-13.63-9.79,0-4.79,4.38-8.13,10.66-8.13,5.33,0,9.94,1.74,14.51,5.46l.08.06,3.38-4.48.06-.07-.07-.06c-5.43-4.36-10.76-6.23-17.8-6.23-9.67,0-16.69,5.86-16.69,13.95,0,4.2,1.32,7.25,4.15,9.59,2.64,2.18,6.73,3.82,12.87,5.15,10.98,2.31,13.06,5.15,13.06,9.57,0,5.12-4.48,8.56-11.16,8.56s-11.66-2.06-17.25-7.12l-.07-.07-3.66,4.33.07.06c6.19,5.53,12.77,8.1,20.7,8.1,5,0,9.3-1.36,12.44-3.93,3.2-2.62,4.89-6.26,4.89-10.52,0-7.6-4.94-11.92-16.52-14.45Z"/>
    <rect class="cls-1" x="612.18" y="112.66" width="5.89" height="50.69"/>
    <polygon class="cls-1" points="637.75 112.66 637.75 118.11 654.7 118.11 654.7 163.34 660.66 163.34 660.66 118.11 677.62 118.11 677.62 112.66 637.75 112.66"/>
    <polygon class="cls-1" points="733.02 112.66 715.9 137.83 698.95 112.7 698.93 112.66 691.77 112.66 712.85 143.3 712.85 163.34 718.81 163.34 718.81 143.22 739.78 112.81 739.89 112.66 733.02 112.66"/>
  </g>
</svg>