<?xml version="1.0" encoding="UTF-8"?>
<svg id="Layer_1" data-name="Layer 1" xmlns="http://www.w3.org/2000/svg" viewBox="0 0 695.66 241.61">
  <defs>
    <style>
      .cls-1 {
        fill: none;
      }

      .cls-2 {
        fill: #231f20;
      }

      .cls-3 {
        fill: #ffd200;
      }

      .cls-4 {
        fill: #fff;
      }
    </style>
  </defs>
  <g>
    <path class="cls-4" d="M213.41,196.07c-30.68,37.68-77.73,50.84-120.85,40.83-42.5-9.67-78.69-45.56-88.2-88.74C-7.14,98.51,11.84,49.16,55.14,20.51c38.45-25.94,91.51-25.92,129.43-1.42,17.56,11.1,33.91,28.54,43.87,49.71,19.28,39.81,15.67,90.41-15.02,127.26Z"/>
    <path class="cls-2" d="M229.18,68.46c-10.03-21.28-26.68-38.59-44.3-49.72-38.05-24.57-91.38-24.9-130.06,1.17C11.84,48.32-7.68,99,3.74,148.23c9.56,43.4,45.98,79.47,88.73,89.2,43.38,10.06,90.72-3.17,121.59-41.05,30.4-36.47,34.2-88.56,15.12-127.91ZM211.57,194.28c-30.02,36.86-76.07,49.77-118.37,39.96-41.52-9.44-76.99-44.57-86.27-86.7C-4.21,99.6,14.78,50.29,56.62,22.64c37.56-25.34,89.5-25.03,126.47-1.16,17.17,10.83,33.39,27.7,43.13,48.37,18.58,38.28,14.86,89.02-14.66,124.43ZM118.17,14.43l.75.03c.17,0,.33.08.44.21.11.13.16.28.15.45,0,0-.23,4.5-.32,6.87-.07,1.86.37,3.19,1.35,4.06.91.82,2.31,1.25,4.3,1.34.24,0,.49.02.74.02,2.38,0,4.89-.64,5.37-5.41l.3-6.44c.02-.34.3-.61.66-.61l.45.02c.23,0,.42-.19.43-.42l.03-.93c0-.12-.04-.22-.12-.31-.08-.09-.19-.13-.3-.14l-4.88-.18c-.23,0-.42.19-.44.42l-.04.93c0,.24.18.44.42.45l.75.03c.16,0,.32.07.43.2.12.12.18.28.17.45l-.28,5.96c-.43,2.96-1.18,3.86-3.2,3.86h-.28c-2.23-.09-3.27-1.29-3.19-3.66.09-2.26.31-6.4.31-6.4.02-.33.31-.6.67-.6l.45.02c.24,0,.42-.19.43-.42l.03-.93c0-.12-.04-.22-.11-.31-.08-.08-.18-.13-.3-.14l-5.13-.19c-.23,0-.42.19-.43.42l-.04.93c0,.24.18.44.42.45ZM165.58,38.25c.06.03.13.05.2.05.16,0,.31-.09.38-.24l.42-.83c.11-.21.03-.47-.18-.58l-.57-.29c-.15-.08-.26-.21-.31-.37-.05-.16-.03-.33.04-.48l4.32-8.28c.11-.21.32-.34.56-.34.1,0,.2.02.29.07l.5.25c.06.03.13.05.2.05.16,0,.31-.09.38-.23l.43-.83c.05-.1.06-.22.02-.33-.03-.11-.11-.2-.21-.25l-4.57-2.34c-.06-.03-.13-.05-.2-.05-.16,0-.31.09-.38.24l-.43.83c-.11.22-.02.47.19.58l.57.29c.15.08.26.21.31.38.05.16.03.33-.05.48l-4.31,8.28c-.11.21-.33.34-.57.34-.1,0-.2-.02-.29-.07l-.5-.25c-.06-.03-.13-.05-.2-.05-.16,0-.31.09-.38.24l-.42.82c-.11.21-.02.48.19.58l4.57,2.34ZM87.66,25.83c.56,0,1.14-.05,1.75-.1.54-.05,1.07-.09,1.55-.09.89,0,1.95.14,2.31,1.24.23.72.11,1.36-.37,1.92-.4.46-1.03.84-1.82,1.09-.73.24-2.05.34-2.16.34-.32,0-.66-.23-.77-.52l-.31-.81c-.06-.16-.22-.28-.5-.28-.02,0-.05,0-.08,0l-1.14.37c-.11.03-.2.11-.25.21-.06.1-.06.22-.03.33l.81,2.5c.07.23.33.42.58.42h.02s2.68-.14,4.08-.59c2.08-.67,3.49-1.67,4.18-2.97.7-1.32.46-2.59.25-3.23-.74-2.28-2.51-2.57-3.98-2.57-.55,0-1.11.05-1.72.09-.53.05-1.03.09-1.5.09-.86,0-1.89-.13-2.23-1.18-.38-1.19.39-2.21,2.06-2.76.55-.17,1.48-.25,1.57-.26.32,0,.66.22.77.52l.25.63c.06.16.22.27.5.27.03,0,.05,0,.08,0l1.13-.37c.11-.04.2-.11.26-.22.05-.1.06-.22.03-.32l-.72-2.21c-.07-.23-.33-.42-.6-.42-.03,0-2.62.12-3.67.45-1.76.57-3.06,1.47-3.75,2.61-.62,1.03-.75,2.2-.36,3.39.69,2.14,2.39,2.41,3.79,2.41ZM61.71,31.64c.08.14.23.22.38.22.07,0,.15-.02.21-.06l.56-.32c.1-.05.2-.08.31-.08.23,0,.44.12.55.32l4.6,8.13c.17.3.06.69-.24.86l-.49.28c-.2.12-.28.39-.16.59l.47.81c.07.13.22.22.37.22.07,0,.15-.02.22-.06l4.92-2.83c.25-.15.65-.4.88-.57.02-.01,1.95-1.4,2.77-2.67.49-.76,1.92-3.51-.16-7.14-1.46-2.55-3.21-3.79-5.32-3.79-.87,0-1.83.21-2.85.63-.91.37-1.58.76-1.85.92l-5.47,3.14c-.2.12-.28.38-.16.59l.46.8ZM66.27,29.52l1.08-.62c.26-.15.7-.36.97-.46.05-.02,1.31-.51,2.38-.51.26,0,.49.03.68.09,1.09.32,1.89.85,2.98,2.71,1.17,1.99,1.1,3.89.67,4.91-.47,1.14-1.85,2-1.89,2.02-.2.18-1.6,1.04-1.66,1.08-.1.06-.21.09-.31.09-.23,0-.43-.12-.54-.32l-4.6-8.13c-.17-.3-.06-.69.24-.87ZM214.82,104.91l-.08-.56c-.03-.21-.21-.37-.47-.37h-.02l-.92.13c-.24.03-.4.25-.37.49l.73,5.08c.03.21.22.37.44.37h.06s.92-.14.92-.14c.24-.04.4-.25.36-.49l-.09-.63c-.02-.17.02-.33.12-.47.1-.13.25-.22.42-.24l9.34-1.27c.31,0,.59.24.63.55l.08.56c.03.21.21.36.48.36h.01l.92-.13c.11-.02.21-.07.28-.16.07-.09.1-.21.09-.32l-.73-5.09c-.03-.21-.21-.37-.47-.37h-.02l-.92.13c-.12.02-.22.08-.29.17-.07.09-.09.21-.08.32l.09.64c.02.16-.02.33-.12.47-.1.13-.25.22-.41.24l-9.34,1.26c-.31,0-.59-.24-.63-.54ZM177.25,45.7l1.48,1.16c.11.08.27.13.44.13.13,0,.24-.03.33-.08l10.75-6.07c.12-.07.27-.1.43-.1.22,0,.42.06.56.18l.24.18c.07.06.17.09.26.09.13,0,.26-.06.34-.16l.57-.73c.07-.09.1-.21.09-.32-.01-.11-.07-.22-.16-.29l-3.83-3c-.08-.06-.17-.09-.27-.09-.13,0-.26.06-.34.16l-.57.73c-.07.09-.11.2-.09.32.01.11.07.22.16.29l.53.42c.14.11.21.25.2.4,0,.15-.1.28-.25.38l-7.89,4.95c-.38.24-.47.27-.53.27-.01,0-.02,0-.03,0-.08-.04-.11-.05.09-.64l2.91-8.87c.07-.21.23-.34.42-.34.11,0,.22.04.32.12l.3.24c.08.06.17.09.27.09.13,0,.26-.06.34-.16l.57-.73c.15-.19.11-.46-.07-.61l-4-3.14c-.08-.06-.17-.09-.27-.09-.13,0-.26.06-.34.16l-.57.74c-.15.19-.12.46.07.61l.3.24c.26.2.4.62.31.95l-3.31,11.91c-.07.24.04.57.24.73ZM215.57,89.64c.13,1.75.25,3.4-1.2,3.85-.22.07-.43.1-.64.1-1.03,0-1.88-.85-2.34-2.34-.22-.73-.31-2.05-.31-2.11-.02-.34.2-.7.53-.82l.82-.3c.23-.08.36-.34.29-.57l-.36-1.14c-.05-.16-.2-.29-.48-.29-.02,0-.04,0-.06,0l-2.51.78c-.24.07-.42.34-.42.59,0,.02.1,2.68.53,4.08,1.26,4.1,3.58,4.71,4.85,4.71.43,0,.87-.07,1.29-.2,2.88-.89,2.7-3.43,2.55-5.67-.12-1.69-.24-3.29,1.14-3.72.19-.06.38-.09.56-.09.95,0,1.74.79,2.17,2.18.17.55.24,1.49.24,1.53.02.33-.21.7-.53.82l-.63.24c-.23.09-.36.34-.28.57l.35,1.14c.05.16.2.29.47.29.02,0,.04,0,.06,0l2.22-.69c.24-.07.43-.34.43-.59,0-.03-.09-2.63-.42-3.68-.86-2.79-2.56-4.39-4.66-4.39-.43,0-.86.07-1.29.2-2.72.84-2.54,3.32-2.38,5.51ZM198.35,48.2c.11.13.16.29.15.46s-.09.32-.22.43l-7.07,6.1c-.11.1-.26.15-.42.15-.18,0-.36-.08-.48-.22l-.37-.43c-.08-.09-.2-.15-.33-.15-.1,0-.2.04-.28.11l-.71.61c-.09.07-.14.18-.14.29,0,.12.03.23.11.31l6.45,7.38c.08.1.21.15.35.15.1,0,.2-.03.28-.09l2.57-1.98c.09-.07.15-.17.16-.28,0-.11-.03-.22-.1-.3l-.82-.94c-.09-.1-.24-.16-.38-.16-.1,0-.2.03-.28.08l-1.04.72c-.11.08-.25.12-.39.12-.21,0-.4-.09-.53-.23l-1.99-2.28c-.11-.13-.16-.29-.15-.46.01-.17.09-.32.22-.43l2.48-2.14c.11-.1.26-.16.41-.16.19,0,.36.08.48.22l2.03,2.31c.08.09.2.15.32.15.1,0,.21-.04.28-.11l.71-.62c.09-.07.13-.18.14-.3,0-.11-.03-.23-.1-.31l-2.01-2.3c-.11-.13-.17-.3-.15-.47.02-.17.09-.32.22-.42l2.28-1.97c.11-.1.26-.16.41-.16.18,0,.36.08.48.21l1.98,2.27c.23.26.21.67-.02.92l-.69.71c-.16.18-.17.47,0,.66l.7.8c.08.09.2.15.31.15.1,0,.2-.04.28-.11l2.19-2.04c.17-.16.18-.44.03-.62l-6.41-7.33c-.08-.09-.2-.15-.32-.15-.1,0-.2.04-.29.11l-.7.61c-.09.08-.14.18-.15.3,0,.11.03.22.11.31l.42.48ZM211.04,64.7c.08.15.1.32.05.48-.05.16-.15.3-.3.38l-8.19,4.49c-.09.05-.2.08-.3.08-.24,0-.45-.13-.56-.32l-.28-.5c-.08-.14-.22-.22-.38-.22-.07,0-.15.02-.21.05l-.82.45c-.2.12-.28.38-.16.59l2.5,4.48c.08.14.22.22.38.22.08,0,.15-.02.21-.06l.82-.45c.21-.12.28-.38.17-.59l-.31-.56c-.09-.15-.1-.32-.05-.49.05-.16.16-.29.3-.37l2.68-1.47c.14-.08.3-.12.43-.12.15,0,.27.06.31.15.08.14.23.48.34.76.01.03.31.86-1.38,3.37-1.84,2.71-1.24,4.22-1.23,4.24.11.27.31.69.46.94l.2.35c.08.14.22.22.38.22.07,0,.14-.02.21-.06l.9-.51c.21-.11.34-.18-.06-1.02-.15-.33.08-.73.43-1.35.25-.44.56-.98.83-1.67.25-.63.57-1.66.69-3l.02-.17h.09s.07,0,.48.38c0,0,.51.47.94.72.58.34,1.17.51,1.76.51s1.18-.17,1.77-.51c1.98-1.13,2.31-3.44.86-6.02l-2.72-4.86c-.07-.14-.22-.22-.38-.22-.07,0-.14.02-.21.06l-.81.46c-.1.05-.17.14-.2.25-.03.11-.02.23.04.33l.31.56ZM212.1,67.89c.09-.05.2-.08.3-.08.23,0,.45.12.56.32.02.03.54.86.66,1.6,0,.02.4,1.49-.99,2.32-.26.16-.54.24-.84.24-1.09,0-2.02-1.05-2.05-1.09-.22-.21-.53-.59-.7-.91-.08-.15-.1-.32-.06-.48.05-.16.15-.29.3-.38l2.82-1.55ZM139.77,28.56l4.51,1.29c.19,0,.37-.13.42-.31l.26-.9c.03-.11.02-.22-.04-.32-.06-.1-.15-.18-.26-.21l-.62-.18c-.16-.05-.29-.15-.38-.3-.08-.15-.1-.32-.05-.48l2.06-6.89c.15-.53.19-.57.27-.57h.02c.06.02.08.02.29.57l4.17,10.98c.09.25.38.51.64.58l1.04.31s.08.02.12.02c.2,0,.37-.13.42-.32l3.21-10.87c.08-.27.33-.45.61-.45.06,0,.12,0,.18.02l.66.17c.19,0,.36-.13.41-.31l.26-.9c.03-.11.02-.22-.04-.32-.05-.1-.15-.18-.26-.21l-4.52-1.29c-.19,0-.36.13-.42.31l-.26.89c-.06.23.07.47.3.54l.62.18c.16.05.29.15.37.3.08.15.1.32.06.48l-1.92,6.41c-.15.49-.19.56-.27.56-.02,0-.03,0-.05,0-.02-.02-.06-.04-.25-.55l-3.94-10.4c-.1-.24-.39-.51-.64-.58l-3.18-.9c-.19,0-.36.13-.42.31l-.26.9c-.03.11-.02.22.03.33.06.1.15.18.26.21l.62.18c.16.05.3.15.38.3.08.15.1.32.05.48l-2.66,8.95c-.08.26-.33.45-.61.45-.06,0-.12,0-.18-.02l-.66-.17c-.19,0-.37.13-.42.31l-.25.9c-.03.11-.02.22.04.33.06.1.15.17.26.2ZM35.49,159.46c-.07-.16-.23-.26-.4-.26-.06,0-.12.01-.17.04l-.85.38c-.22.1-.32.35-.22.57l.26.58c.14.32,0,.69-.33.83l-3.38,1.47c-.08.04-.15.06-.22.06-.09,0-.17-.04-.21-.1-.04-.06-.08-.17-.01-.37l1.97-5.48c.09-.24.22-.28.29-.28s.2.04.29.25l.09.2c.07.16.23.26.4.26.06,0,.12-.01.17-.04l.85-.37c.21-.1.31-.36.22-.57l-2.06-4.65c-.07-.15-.23-.26-.4-.26-.06,0-.12.01-.17.04l-.85.38c-.1.05-.19.13-.23.24-.04.11-.04.23,0,.33l.09.2c.13.29.15.76.04,1.06l-2.33,6.42c-.09.24-.31.4-.56.4-.08,0-.16-.02-.24-.05l-5.74-2.54c-.3-.13-.63-.46-.75-.75l-.09-.2c-.07-.16-.23-.26-.4-.26-.06,0-.12.01-.17.04l-.85.38c-.1.05-.18.13-.22.24-.04.11-.04.23,0,.33l1.97,4.45c.07.16.22.26.4.26.06,0,.12-.02.18-.04l.85-.38c.11-.05.19-.13.23-.24.04-.11.04-.22,0-.33l-.22-.5c-.08-.18-.06-.3-.02-.35l.15-.1h.06c.06,0,.13.02.22.05l5.54,2.42c.23.1.26.23.26.3,0,.07-.04.21-.26.3l-3.44,1.48c-.08.03-.16.05-.25.05-.26,0-.49-.15-.58-.38l-.23-.51c-.07-.16-.22-.26-.39-.26-.06,0-.12.02-.17.04l-.85.37c-.1.05-.19.13-.23.24-.04.11-.04.23,0,.33l2.08,4.69c.07.15.22.25.39.25.06,0,.12-.02.18-.04l.85-.38c.22-.1.31-.35.22-.57l-.26-.59c-.07-.16-.07-.33-.01-.49.06-.15.18-.28.33-.34l8.57-3.72c.08-.03.17-.05.25-.05.26,0,.48.15.58.38l.23.52c.07.16.22.26.4.26.06,0,.12,0,.17-.03l.85-.38c.22-.1.32-.35.22-.57l-2.08-4.69ZM28.33,145.44l.07.37c.04.2.22.35.42.35h.08s.91-.18.91-.18c.11-.02.21-.08.28-.18.06-.1.09-.22.07-.33l-.89-4.66c-.04-.19-.21-.34-.48-.34h-.02l-.92.17c-.23.04-.39.27-.34.51l.07.37c.03.16,0,.3-.09.4-.08.09-.19.15-.4.15h-.05l-1.83-.34c-.33-.06-.64-.36-.7-.69l-.84-3.87c-.06-.33.12-.72.42-.89l1.69-.9c.08-.05.17-.07.26-.07.23,0,.4.16.45.4l.07.38c.04.2.21.34.48.34h.02l.91-.17c.24-.05.39-.27.34-.51l-.95-4.99c-.04-.2-.21-.34-.48-.34h-.02l-.91.18c-.11.02-.21.09-.27.18-.06.1-.09.21-.07.32l.07.38c.06.33-.12.73-.4.9l-10.48,6.5c-.21.13-.35.45-.31.7l.4,2.08c.04.25.29.49.54.54l12.2,2.51c.33.07.63.38.7.71ZM22.6,141.17c-.08.09-.19.15-.4.15h-.05l-4.6-.76c-.59-.09-.6-.12-.61-.19-.01-.08-.02-.1.51-.39l4.02-2.21c.09-.05.18-.07.26-.07.23,0,.4.16.45.41l.5,2.65c.03.16,0,.3-.09.41ZM50.86,54.74c.12.3.01.74-.22.96l-.28.26c-.17.16-.18.44-.02.61l.63.68c.08.09.2.14.32.14.11,0,.22-.04.29-.11l3.47-3.23c.17-.16.18-.44.02-.61l-.63-.68c-.08-.09-.2-.14-.32-.14-.11,0-.22.04-.29.12l-.28.25c-.1.1-.22.15-.34.15-.18,0-.33-.12-.42-.31l-.68-1.73c-.13-.31-.04-.74.21-.96l2.83-2.77c.14-.13.36-.21.58-.21.14,0,.28.03.39.09l1.66.95c.15.09.25.22.26.36.02.15-.04.3-.17.41l-.28.26c-.08.08-.13.19-.14.3,0,.11.04.22.12.31l.63.68c.08.09.2.14.32.14.11,0,.21-.04.29-.11l3.72-3.46c.17-.16.18-.44.02-.61l-.63-.68c-.08-.09-.2-.14-.32-.14-.11,0-.22.04-.29.11l-.28.26c-.15.14-.38.23-.62.23-.13,0-.26-.03-.36-.08l-11.08-5.42c-.08-.04-.17-.06-.27-.06-.18,0-.37.06-.48.17l-1.55,1.44c-.18.17-.27.51-.18.75l4.37,11.67ZM48.87,43.37l.03-.02h.04s.07,0,.53.25l4.01,2.23c.15.08.24.21.26.36.02.15-.04.3-.17.42l-1.98,1.84c-.1.1-.22.15-.34.15-.18,0-.33-.11-.42-.31l-1.81-4.3c-.24-.56-.22-.57-.16-.62ZM226.53,138.87l-1-.2c-.2,0-.38.15-.42.34l-.13.63c-.06.28-.3.49-.7.49h-.05l-9.12-1.99c-.16-.03-.3-.13-.4-.27-.1-.14-.13-.31-.09-.48l.12-.56c.02-.11,0-.23-.06-.32-.07-.1-.16-.16-.27-.19l-1-.2c-.2,0-.38.14-.42.34l-2.01,9.59c-.05.23.1.49.33.55l3.25.87c.19,0,.34-.13.39-.32l.26-1.22c.05-.24-.1-.49-.34-.57l-1.2-.39c-.33-.11-.53-.47-.46-.8l.62-2.96c.06-.28.3-.49.7-.49h.05l3.2.69c.34.08.56.41.49.75l-.63,3.01c-.02.11,0,.23.06.33.06.1.16.16.27.19l1,.2c.2,0,.38-.14.42-.34l.62-2.98c.06-.28.29-.49.7-.49h.05l2.94.63c.34.08.56.41.49.75l-.62,2.95c-.06.3-.34.54-.73.54h0l-1.04-.12c-.22,0-.43.17-.48.38l-.22,1.04c-.02.11,0,.22.06.32.06.09.16.16.27.18l2.94.52h.07c.21,0,.4-.15.44-.35l2-9.52c.02-.11,0-.23-.06-.32-.06-.1-.16-.17-.28-.19ZM197.56,83.36c-6.97-14.77-18.95-27.3-31.6-35.23-26.63-17.19-64.97-17.32-91.85.91-30.71,20.3-44.58,56.32-36.25,91.61,6.64,30.11,32.71,55.96,62.5,62.69,31.46,7.3,65.01-2.36,86.83-29.35,21.13-25.36,24.04-62.77,10.36-90.64ZM167.23,68.94c2.67-2.65,4.75-6.37,5.55-11.96,8.65,7.14,16.39,16.43,21.49,26.89l-.2.11c-4.48,2.36-8.81,2.49-14.01.57-1.33-.49-6.96-2.19-8.44-2.53-10.32-2.39-16.02,3.51-16.88,5.62-.59-.61-1.52-9.36,5.13-13.59,1.01-.64,2.15-1.25,3.31-1.98,1.28-.8,2.7-1.79,4.05-3.13ZM130.81,60.65c.56-1.06,1.24-2.16,1.88-3.37.71-1.33,1.45-2.9,1.94-4.73.99-3.62.93-7.87-1.16-13.1,11.02,1.66,21.63,5.45,30.77,11.35.32.2.65.42.97.63l-.67,1.06c-2.7,4.28-4.96,6.26-10.42,7.19-1.4.24-7.12,1.59-8.58,2.03-10.79,3.27-11.75,11.91-11.81,13.28-.81-.22-6.57-7.36-2.92-14.35ZM75.88,51.7c2.33-1.58,4.75-3.01,7.24-4.31l.6,1.15c2.36,4.48,2.3,7.43.38,12.62-.49,1.33-.99,2.66-1.42,4-.47,1.46-.87,2.93-1.11,4.44-.52,3.17-.36,6.59,1.1,10.28,1.34,3.38,4,5.88,5.2,6.63-.6.58-9.73,1.97-13.96-4.68-.64-1.01-1.25-2.15-1.98-3.31-.8-1.28-1.79-2.7-3.13-4.05-2.65-2.67-6.37-4.75-11.97-5.55,5.28-6.52,11.65-12.34,19.04-17.22ZM52.65,74.58l.87.54c4.28,2.7,5.44,6.5,6.37,11.96.24,1.4.47,2.79.77,4.18.32,1.5.72,2.97,1.26,4.4,1.14,3.01,3.67,7.16,6.68,9.34,2.22,1.61,5.26,2.43,6.67,2.48-.23.8-7.43,6.57-14.42,2.92-1.06-.55-2.16-1.23-3.37-1.88-1.33-.71-2.9-1.44-4.73-1.95-3.62-.99-7.87-.93-13.1,1.16,1.83-11.87,6.25-23.17,13.01-33.16ZM44.02,150.09c-1.26-3.3-2.29-6.68-3.05-10.12-1.86-7.85-2.56-15.74-2.2-23.47l1.11.04c5.06.19,7.42,2.12,10.96,6.38.9,1.09,1.8,2.18,2.75,3.23.98,1.09,2.07,2.18,3.29,3.18,2.49,2.04,5.94,4.08,9.89,4.51,2.89.31,6.83-1.25,8.08-1.91l.14.56c.14.64-3.3,8.85-11.18,9.19-1.2.05-2.49,0-3.86.05-1.51.05-3.24.2-5.07.68-3.66.96-7.34,3.17-10.85,7.67ZM69.11,184.33c-8.83-7.21-16.27-16.22-21.49-26.25l1.11-.59c4.48-2.36,7.42-2.94,12.62-1.02,1.33.49,2.66.99,4,1.43,1.46.47,8.46,3.38,16.05.25,3.34-1.38,4.82-3.54,5.33-4.85.57.59,1.95,9.77-4.71,14-1.01.64-2.15,1.25-3.31,1.98-1.28.8-2.7,1.79-4.05,3.13-2.66,2.64-4.74,6.35-5.54,11.92ZM110.59,180.37c-.56,1.06-1.24,2.16-1.88,3.37-.71,1.33-1.45,2.9-1.95,4.73-.98,3.61-.93,7.86,1.15,13.07-2.29-.34-4.57-.77-6.84-1.29-9.3-2.1-18.22-6.16-26.26-11.67l.29-.46c2.7-4.29,7.82-5.23,13.28-6.16,1.4-.24,2.8-.47,4.18-.77,1.5-.32,2.96-.76,4.4-1.26,11.69-4.06,10.64-12.54,10.7-13.92.42.11,6.57,7.36,2.92,14.35ZM107.87,65.91c-.49,3.54.41,6.64,1.38,8.7-.84.2-9.39-3.12-9.72-10.99-.05-1.2-.01-2.49-.06-3.86-.05-1.51-.2-3.23-.68-5.07-.96-3.67-3.17-7.36-7.69-10.87,10.63-4.04,22.2-5.76,33.6-5.23l-.04,1.1c-.19,5.06-1.32,7.74-5.59,11.28-1.09.9-10.16,7.39-11.21,14.94ZM116.69,202.42l.04-1.08c.19-5.06,1.16-7.9,5.43-11.44,1.09-.9,5.42-4.82,6.42-6.04,2.04-2.49,6.28-6.24,5.1-12.63-.2-1.07-.88-3.6-1.54-4.84.82-.2,9.41,3.15,9.74,11.02.05,1.2.01,2.49.06,3.86.05,1.51.2,3.24.68,5.07.96,3.65,3.15,7.32,7.62,10.81-10.67,4.06-22.08,5.81-33.54,5.26ZM158.25,193.59l-.58-1.1c-2.36-4.48-2.3-7.42-.38-12.62.49-1.33,2.51-7.93,2.77-9.44,1.97-11.59-4.37-14.64-6.47-15.88.61-.59,8.39-1.69,12.62,4.97.64,1.01,1.25,2.15,1.98,3.31.8,1.28,1.79,2.7,3.13,4.05,2.66,2.68,7.58,4.48,13.3,5.25-7.54,9.29-16.53,16.43-26.36,21.46ZM189.83,165.07l-1.12-.71c-4.28-2.7-6.26-4.96-7.19-10.42-.24-1.4-1.63-7.1-2.03-8.58-3.26-11.97-11.93-11.76-13.32-11.81.22-.8,7.4-6.57,14.39-2.92,1.06.55,2.16,1.23,3.37,1.88,1.33.71,2.9,1.45,4.73,1.95,3.62.98,7.87.92,13.09-1.16-1.7,11.22-5.64,22.16-11.91,31.78ZM201.52,124.48c-5.06-.19-7.74-2.12-11.28-6.38-.9-1.09-4.22-5.32-6.78-7.28-7.78-5.98-15.62-2.4-16.84-1.76-.2-.84,3.09-9.38,10.97-9.71,1.2-.05,2.49-.01,3.86-.06,1.51-.05,3.24-.2,5.07-.68,3.66-.96,7.35-3.17,10.86-7.67,4.02,10.49,5.79,22.05,5.24,33.59l-1.1-.04ZM218.65,157.5c-.06-.03-.12-.04-.18-.04-.16,0-.31.09-.38.25l-.45,1.02c-.1.22,0,.48.21.6l.88.44c.31.16.45.54.31.86l-.74,1.68c-.1.23-.33.37-.58.37-.09,0-.17-.02-.25-.05l-8.51-3.83c-.32-.15-.46-.52-.32-.84l.23-.52c.09-.22,0-.48-.23-.57l-.85-.38c-.05-.02-.11-.04-.17-.04-.17,0-.32.1-.39.25l-2.08,4.7c-.05.1-.05.22,0,.33.04.11.13.2.23.24l.85.38c.05.02.11.04.17.04.17,0,.33-.1.4-.26l.26-.58c.1-.23.33-.38.58-.38.09,0,.17.02.26.06l8.5,3.84c.32.14.46.51.33.83l-.73,1.66c-.11.24-.34.4-.61.4-.08,0-.16-.02-.24-.04l-.92-.35s-.1-.03-.16-.03c-.18,0-.35.11-.43.27l-.45,1.02c-.05.11-.05.22,0,.33.04.1.13.18.23.22l2.77,1.1c.06.02.11.03.16.03.18,0,.35-.11.42-.27l4.78-10.83c.1-.22,0-.48-.22-.59l-2.68-1.31ZM31.48,65.7c.07.06.16.08.25.08.13,0,.26-.07.34-.18l.64-.91c.14-.19.09-.48-.09-.63l-.78-.61c-.28-.21-.34-.62-.13-.9l1.06-1.5c.12-.17.31-.27.51-.27.13,0,.26.04.37.12l7.6,5.43c.14.1.23.24.26.41.03.17,0,.33-.11.47l-.33.47c-.14.19-.09.46.11.6l.76.53c.07.05.16.08.25.08.14,0,.27-.07.35-.19l2.95-4.2c.14-.2.09-.46-.11-.6l-.76-.54c-.07-.05-.16-.08-.24-.08-.14,0-.27.07-.36.18l-.37.52c-.12.17-.31.27-.52.27-.13,0-.26-.04-.36-.12l-7.6-5.43c-.28-.2-.35-.6-.15-.88l1.04-1.48c.12-.17.32-.28.54-.28.12,0,.25.03.35.1l.84.53c.07.05.15.07.24.07.15,0,.29-.07.38-.19l.64-.91c.06-.09.09-.2.07-.32-.02-.11-.08-.2-.18-.26l-2.51-1.62c-.07-.05-.15-.07-.24-.07-.15,0-.29.07-.37.19l-6.8,9.68c-.14.2-.09.48.1.62l2.37,1.81ZM14.69,122.94l.02-.64c.01-.34.28-.6.65-.6h0l9.33.41c.35.01.62.31.61.66l-.02.56c0,.24.18.44.42.45l.93.04h.01c.24,0,.43-.18.44-.41l.19-5.13c0-.11-.04-.23-.12-.31-.08-.09-.19-.13-.3-.14l-.95-.03c-.23,0-.42.19-.43.42l-.02.63c-.01.34-.29.61-.65.61h0l-3.06-.13c-.22,0-.42-.08-.53-.2-.06-.06-.09-.14-.09-.21,0-.16.05-.53.1-.82,0-.04.18-.89,2.93-2.16,2.98-1.37,3.25-2.96,3.26-2.98.04-.29.09-.76.1-1.05v-.4c.02-.24-.16-.44-.4-.45l-1.07-.04c-.23,0-.33.06-.34.07.02.13-.04.63-.12.85-.06.17-.3.33-.95.76-.39.25-.91.6-1.59,1.08-.97.69-1.78,1.5-2.27,2.29l-.18.22-.04-.27c-.14-1.01-.51-1.86-1.06-2.45-.65-.7-1.77-1.02-2.54-1.02-.69,0-1.49.13-2.61,1.01-1.03.82-1.13,2.7-1.13,2.74-.06.28-.11.75-.12,1.04l-.2,5.57c0,.12.04.23.12.32.08.08.18.13.3.14l.95.03c.24,0,.43-.18.44-.42ZM14.88,117.71c0-.3.12-.77.24-1.04,0-.02.43-1.47,2.05-1.47,1.36,0,1.78.85,2,1.69.19.71.18,1.28.16,1.67-.01.33-.29.61-.65.61h0l-3.21-.14c-.35-.01-.62-.31-.61-.65l.03-.67ZM23.76,83.59c.51.22,1,.33,1.45.33,1.59,0,2.67-1.29,3.64-2.61l.28-.38c.86-1.18,1.68-2.3,2.73-2.3.22,0,.44.05.67.15.69.3,1.1.81,1.2,1.54.09.6-.04,1.33-.37,2.09-.3.71-1.09,1.77-1.13,1.81-.14.2-.41.33-.68.33-.09,0-.18-.02-.25-.04l-.82-.3s-.1-.03-.15-.03c-.18,0-.36.11-.43.28l-.47,1.1c-.09.22.01.47.23.56l2.41,1.03c.07.03.14.04.22.04.19,0,.38-.08.49-.22.02-.02,1.66-2.11,2.23-3.46,2.23-5.23-.79-7-1.77-7.41-.55-.23-1.07-.35-1.56-.35-1.65,0-2.79,1.34-3.72,2.59l-.32.43c-.84,1.15-1.64,2.24-2.64,2.24-.21,0-.42-.04-.63-.13-.46-.2-.78-.52-.96-.95-.25-.63-.18-1.47.23-2.41.23-.54.78-1.29.81-1.32.14-.2.41-.33.68-.33.09,0,.17.01.25.04l.63.23s.1.03.15.03c.19,0,.36-.11.43-.28l.47-1.1c.05-.11.05-.22,0-.33-.04-.11-.13-.19-.23-.24l-2.14-.91c-.06-.03-.14-.04-.21-.04-.19,0-.38.09-.49.22-.02.02-1.64,2.06-2.07,3.07-1.67,3.9-.15,6.2,1.83,7.04ZM228.09,117.11l-3.01-.21c-.23,0-.4.17-.41.4l-.04,1.12c0,.24.19.45.43.47l.98.09c.34.03.62.33.6.68l-.06,1.83c0,.34-.28.61-.65.61l-9.33-.37c-.17,0-.32-.07-.44-.2-.11-.13-.17-.29-.17-.45l.02-.57c0-.24-.19-.44-.42-.45l-.94-.03c-.24,0-.42.18-.43.42l-.16,5.13c0,.12.04.22.12.31.08.09.19.13.3.14l.95.03c.23,0,.42-.18.43-.42l.02-.63c0-.33.29-.61.65-.61l9.33.37c.17,0,.33.08.44.2.12.13.17.29.17.45l-.06,1.81c-.02.34-.3.63-.65.64l-.99.02c-.24,0-.44.21-.45.45l-.04,1.11c0,.11.04.22.12.3.08.08.18.12.29.12h0l2.99-.02c.24,0,.44-.2.45-.44l.38-11.83c0-.24-.18-.45-.42-.47ZM14.98,101.39l1.01.23c.2,0,.37-.13.42-.34l.15-.63c.06-.28.32-.48.61-.48l.14.02h.01l9.08,2.19c.34.08.55.42.47.76l-.13.55c-.06.23.09.46.32.52l.9.21h.1c.21.01.38-.13.42-.32l2.22-9.57c.06-.24-.09-.48-.32-.56l-3.23-.95c-.19,0-.35.13-.39.31l-.28,1.22c-.06.24.09.5.32.58l1.19.42c.32.11.52.48.44.82l-.68,2.94c-.06.29-.32.49-.61.49l-.14-.02h-.01l-9.08-2.19c-.34-.08-.55-.42-.47-.76l.13-.54c.06-.23-.09-.47-.32-.52l-1-.22c-.21,0-.38.13-.42.33l-1.16,5c-.03.11,0,.22.05.32.06.1.16.16.27.19Z"/>
    <path class="cls-3" d="M84.03,170.5c-1.02.65-2.17,1.26-3.34,1.99-1.16.72-2.32,1.54-3.39,2.6-1.88,1.87-3.52,4.51-4.31,8.72,3.73-4.44,8.73-5.38,13.63-6.22,1.34-.23,2.69-.45,4.02-.74,1.31-.28,2.6-.62,3.85-1.1,2.48-.94,4.77-2.38,6.71-4.87,1.41-1.82,2.36-3.59,2.52-5.82-2.02-.95-8.49-4.07-11.24-6.22-.2,2.47-1.72,7.37-8.45,11.65ZM155.25,147.37c10.12-12.14,11.9-32.15,4.73-46.19-3.29-7.05-9.77-13.97-16.55-18.1-13.04-8.45-33.66-8.3-46.41.64-16.16,10.68-23.25,29.25-18.58,48,3.14,14.27,16.98,28.01,31.27,31.13,17.29,4.01,34.42-1.37,45.53-15.48ZM115.43,167.82c1.06,2.24,2.19,7.25-1.49,14.3-.56,1.07-1.25,2.18-1.9,3.4-.64,1.2-1.24,2.49-1.63,3.95-.7,2.56-.8,5.66.63,9.69.97-5.71,5.13-8.96,8.87-12.19,1.03-.89,2.06-1.77,3.07-2.68,1-.91,1.95-1.86,2.81-2.88,1.72-2.04,3.08-4.39,3.7-7.4.45-2.2-.67-4.78-2.09-6.26-2.07.17-8.59.58-11.97.07ZM125.95,73.21c-1.06-2.23-2.2-7.24,1.49-14.31.56-1.07,1.25-2.18,1.9-3.4.64-1.2,1.24-2.49,1.64-3.95.7-2.56.79-5.67-.63-9.71-1.01,5.72-4.94,9.05-8.83,12.24-1.07.87-2.14,1.74-3.16,2.66-1.02.91-1.98,1.86-2.83,2.89-1.7,2.06-2.98,4.46-3.41,7.58-.31,2.25.2,5.07.95,6.24,2.17-.19,9.41-.73,12.9-.25ZM177.95,154.24c-.2-1.38-.41-2.77-.67-4.14-.26-1.35-.58-2.68-1.04-3.96-.91-2.54-2.33-4.87-4.81-6.8-1.73-1.35-4.48-1.91-6.17-1.89-.93,2-4.07,8.5-6.23,11.27,2.47.2,7.38,1.72,11.65,8.45.65,1.02,1.27,2.17,2,3.34.72,1.15,1.54,2.32,2.6,3.39,1.87,1.88,4.51,3.52,8.73,4.3-4.45-3.75-5.3-8.91-6.05-13.96ZM63.61,86.45c.62,4.47,1.2,7.1,1.68,8.35.94,2.48,2.38,4.77,4.88,6.71,1.77,1.38,4.45,1.92,5.98,2.05.95-2.02,4.07-8.49,6.22-11.25-2.47-.2-7.37-1.72-11.65-8.45-.65-1.02-1.27-2.17-2-3.34-.72-1.15-1.54-2.32-2.6-3.39-1.87-1.89-4.51-3.53-8.72-4.31,4.45,3.73,5.53,8.7,6.22,13.63ZM187.15,121.47c-.87-1.05-1.74-2.1-2.65-3.11-.91-1-1.85-1.95-2.88-2.79-2.05-1.68-4.45-2.94-7.57-3.37-2.22-.31-4.78.07-6.3.74.19,2.24.72,9.38.24,12.84,2.24-1.06,7.24-2.2,14.31,1.49,1.07.56,2.18,1.25,3.4,1.9,1.2.64,2.49,1.24,3.95,1.64,2.56.7,5.66.79,9.7-.63-5.71-1-9.02-4.87-12.2-8.69ZM54.02,119.16c.84,1.02,1.68,2.06,2.56,3.08.88,1.01,1.79,1.98,2.79,2.87,1.99,1.78,4.33,3.24,7.39,4.03,2.74.7,5.02-.02,6.87-1.01-.19-2.21-.73-9.39-.24-12.86-2.24,1.06-7.24,2.2-14.31-1.49-1.07-.56-2.18-1.25-3.4-1.9-1.2-.64-2.49-1.24-3.95-1.63-2.56-.7-5.66-.8-9.69.63,5.69.96,8.91,4.56,11.98,8.3ZM162.23,86.04c-2.02.82-3.9,3.02-4.6,4.34,1.25,1.8,5.33,7.78,6.65,11.04,1.4-2.04,5.17-5.53,13.14-5.87,1.21-.05,2.51-.01,3.89-.06,1.36-.05,2.78-.18,4.24-.56,2.57-.67,5.31-2.14,8.1-5.41-5.48,1.98-10.4.14-15.18-1.72-1.31-.51-2.62-1.03-3.94-1.48-1.31-.45-2.63-.83-3.97-1.07-2.66-.48-5.4-.41-8.32.78ZM78.63,154.4c2.17-.88,4.45-2.35,5.13-3.74-1.24-1.78-5.34-7.79-6.66-11.05-1.4,2.04-5.17,5.53-13.14,5.86-1.21.05-2.51.01-3.89.06-1.36.05-2.78.18-4.24.56-2.56.68-5.3,2.14-8.09,5.4,5.45-1.99,10.24-.3,14.9,1.43,1.28.47,2.56.96,3.85,1.37,1.28.41,2.57.76,3.89.98,2.62.43,5.32.32,8.24-.87ZM157.34,70.53c1.02-.64,2.17-1.26,3.34-1.99,1.15-.72,2.31-1.54,3.39-2.6,1.89-1.87,3.53-4.51,4.31-8.73-3.74,4.44-8.83,4.81-13.81,5.57-1.36.21-2.74.41-4.08.67-1.33.26-2.64.59-3.91,1.04-2.51.91-4.82,2.33-6.76,4.82-1.35,1.74-2.16,5.2-2.19,6.64,2,.94,8.5,4.07,11.27,6.23.2-2.46,1.72-7.37,8.45-11.65ZM90.59,83.55c1.84-1.28,7.76-5.32,11-6.63-2.03-1.41-5.52-5.18-5.86-13.14-.05-1.21-.01-2.51-.06-3.89-.05-1.36-.18-2.78-.56-4.24-.67-2.57-2.14-5.3-5.4-8.09,1.99,5.45.3,10.25-1.43,14.91-.47,1.28-.95,2.56-1.37,3.85-.41,1.28-.76,2.57-.98,3.89-.43,2.61-.32,5.32.87,8.25.84,2.08,2.48,4.14,3.79,5.09ZM150.22,157.91c-1.63,1.14-7.21,4.93-10.43,6.2,2.04,1.41,5.52,5.18,5.86,13.13.06,1.21.02,2.51.06,3.89.05,1.36.18,2.78.56,4.23.67,2.56,2.14,5.3,5.38,8.08-2.02-5.4-.58-9.98,1.07-14.51.9-2.47,1.89-4.96,2.45-7.61.55-2.62.67-5.38-.12-8.45-.65-2.52-3-4.95-4.83-4.97Z"/>
  </g>
  <g>
    <rect class="cls-1" x="287.72" y="52.47" width="452.49" height="135.59"/>
    <path d="M292.49,54.76h10.82v22.37h.19c1.02-1.98,2.09-3.91,3.15-5.8l9.98-16.57h13.03l-15.04,21.57,15.7,28.76h-12.48l-10.87-21.44-3.67,4.92v16.52h-10.82v-50.33Z"/>
    <path d="M346.36,92.6l-3.15,12.5h-11.09l14.03-50.33h13.94l13.9,50.33h-11.44l-3.35-12.5h-12.85ZM357.77,84.39l-2.7-10.65c-.75-3-1.58-7.16-2.27-10.22h-.16c-.68,3.08-1.43,7.31-2.16,10.23l-2.66,10.64h9.94Z"/>
    <path d="M380.39,55.47c3.48-.62,8.44-1.05,13.79-1.05,6.83,0,11.94,1.03,15.43,3.92,3.02,2.51,4.46,5.99,4.46,10.53,0,6.08-3.98,10.63-8.55,12.43v.21c3.47,1.4,5.36,4.69,6.54,9.55,1.38,5.66,2.85,12.12,3.81,14.04h-11.22c-.73-1.44-1.95-5.79-3.18-11.83-1.24-6.28-3.2-7.99-7.45-8.03h-2.81v19.86h-10.82v-49.62ZM391.21,77.21h3.65c5.23,0,8.32-3.05,8.32-7.43s-2.72-7.08-7.67-7.13c-2.17,0-3.57.15-4.3.36v14.2Z"/>
    <path d="M421.92,54.76h10.91v41.17h17.88v9.17h-28.79v-50.33Z"/>
    <path d="M457.01,93.86c2.72,1.48,7.07,2.8,11.31,2.8,5.04,0,7.67-2.24,7.67-5.55s-2.36-5.07-7.86-7.37c-7.94-3.35-12.56-8.14-12.56-14.65,0-8.43,6.65-15.01,18.1-15.01,5.02,0,8.85,1.08,11.37,2.32l-2.23,8.91c-1.83-.94-5.01-2.19-9.27-2.19-4.73,0-6.99,2.37-6.99,4.97,0,3.14,2.41,4.61,8.6,7.31,8.24,3.53,11.86,8.3,11.86,14.87,0,8.66-6.54,15.51-19.19,15.51-5.21,0-10.38-1.39-12.85-2.8l2.04-9.12Z"/>
    <path d="M502.56,64.17h-12.17v-9.41h35.4v9.41h-12.32v40.92h-10.91v-40.92Z"/>
    <path d="M537.55,92.6l-3.15,12.5h-11.09l14.03-50.33h13.94l13.9,50.33h-11.44l-3.35-12.5h-12.85ZM548.95,84.39l-2.7-10.65c-.75-3-1.58-7.16-2.27-10.22h-.16c-.68,3.08-1.43,7.31-2.16,10.23l-2.66,10.64h9.94Z"/>
    <path d="M571.58,55.47c3.66-.65,8.56-1.05,13.72-1.05,8.59,0,14.28,1.68,18.62,5.12,4.95,3.9,7.92,10.19,7.92,19.34,0,9.81-3.23,16.64-7.92,20.67-4.73,4.06-11.9,6.02-20.87,6.02-5.07,0-8.94-.34-11.47-.69v-49.42ZM582.46,96.77c.85.17,2.18.18,3.31.18,8.63.06,14.6-5.31,14.6-17.89.02-10.42-5.08-16.16-13.71-16.16-1.95,0-3.32.16-4.21.38v33.49Z"/>
    <path d="M618.92,93.86c2.72,1.48,7.07,2.8,11.31,2.8,5.04,0,7.67-2.24,7.67-5.55s-2.36-5.07-7.86-7.37c-7.94-3.35-12.56-8.14-12.56-14.65,0-8.43,6.65-15.01,18.1-15.01,5.02,0,8.85,1.08,11.37,2.32l-2.23,8.91c-1.83-.94-5.01-2.19-9.27-2.19-4.73,0-6.99,2.37-6.99,4.97,0,3.14,2.41,4.61,8.6,7.31,8.24,3.53,11.86,8.3,11.86,14.87,0,8.66-6.54,15.51-19.19,15.51-5.21,0-10.38-1.39-12.85-2.8l2.04-9.12Z"/>
    <path d="M303.26,130.85v30.07c0,8.3,2.99,12.09,7.82,12.09s7.93-3.56,7.93-12.09v-30.07h10.91v29.06c0,14.76-6.97,22.02-19.1,22.02s-18.47-7.12-18.47-22.08v-29h10.91Z"/>
    <path d="M339.32,181.18v-50.33h11.98l9.64,18.85c2.57,4.86,5.36,11.2,7.37,16.49l.18-.02c-.59-6.24-.94-13.61-.94-21.71v-13.61h9.89v50.33h-11.04l-9.84-19.31c-2.61-5.07-5.61-11.5-7.66-16.98l-.22.02c.33,6.19.54,13.5.54,22.29v13.99h-9.89Z"/>
    <path d="M397.87,130.85v50.33h-10.91v-50.33h10.91Z"/>
    <path d="M417.84,181.18l-14.67-50.33h11.97l5.33,21.44c1.49,5.81,2.87,11.65,3.95,17.81h.16c1.08-6.02,2.47-12.01,3.94-17.75l5.5-21.5h11.7l-15.3,50.33h-12.59Z"/>
    <path d="M478.13,159.64h-16.4v12.47h18.37v9.07h-29.28v-50.33h28.27v9.07h-17.36v10.81h16.4v8.9Z"/>
    <path d="M487.56,131.56c3.48-.62,8.44-1.05,13.79-1.05,6.83,0,11.94,1.03,15.43,3.92,3.02,2.51,4.46,5.99,4.46,10.53,0,6.08-3.98,10.63-8.55,12.43v.21c3.47,1.4,5.36,4.69,6.54,9.55,1.38,5.66,2.85,12.12,3.81,14.04h-11.22c-.73-1.44-1.95-5.79-3.18-11.83-1.24-6.28-3.2-7.99-7.45-8.03h-2.81v19.86h-10.82v-49.62ZM498.38,153.3h3.65c5.23,0,8.32-3.05,8.32-7.43s-2.72-7.08-7.67-7.13c-2.17,0-3.57.15-4.3.36v14.2Z"/>
    <path d="M529,169.95c2.72,1.48,7.07,2.8,11.31,2.8,5.04,0,7.67-2.24,7.67-5.55s-2.36-5.07-7.86-7.37c-7.94-3.35-12.56-8.14-12.56-14.65,0-8.43,6.65-15.01,18.1-15.01,5.02,0,8.85,1.08,11.37,2.32l-2.23,8.91c-1.83-.94-5.01-2.19-9.27-2.19-4.73,0-6.99,2.37-6.99,4.97,0,3.14,2.41,4.61,8.6,7.31,8.24,3.53,11.86,8.3,11.86,14.87,0,8.66-6.54,15.51-19.19,15.51-5.21,0-10.38-1.39-12.85-2.8l2.04-9.12Z"/>
    <path d="M577.03,130.85v50.33h-10.91v-50.33h10.91Z"/>
    <path d="M595.02,140.26h-12.17v-9.41h35.4v9.41h-12.32v40.92h-10.91v-40.92Z"/>
    <path d="M651.32,159.64h-16.4v12.47h18.37v9.07h-29.28v-50.33h28.27v9.07h-17.36v10.81h16.4v8.9Z"/>
    <path d="M669.4,140.26h-12.17v-9.41h35.4v9.41h-12.32v40.92h-10.91v-40.92Z"/>
  </g>
</svg>