<?xml version="1.0" encoding="UTF-8"?>
<svg id="Layer_1" data-name="Layer 1" xmlns="http://www.w3.org/2000/svg" viewBox="0 0 740.81 303.11">
  <defs>
    <style>
      .cls-1 {
        fill: #870052;
      }
    </style>
  </defs>
  <g>
    <polygon class="cls-1" points="374.67 144.37 359.82 108.84 359.61 108.84 359.61 144.37 345.87 144.37 345.87 74.62 359.61 74.62 359.61 107.1 359.82 107.1 374.95 74.62 388.63 74.62 372.52 106.96 390.15 144.37 374.67 144.37"/>
    <g>
      <path class="cls-1" d="M418.47,115.92c-8.4,1.11-12.56,3.96-12.56,11.87,0,5.55,2.71,8.75,7.91,8.75,1.8,0,3.68-.49,4.65-.9v-19.71h0ZM413.2,145.42c-13.12,0-19.71-6.32-19.71-17.14,0-14.02,10.34-18.32,24.92-20.27v-1.8c0-5.14-3.05-7.57-7.84-7.57s-8.61,1.32-11.59,2.85l-2.71-8.61c3.12-1.74,8.61-4.03,16.87-4.03,10.2,0,17.98,5.07,17.98,20.06v32.55c-3.96,2.43-9.44,3.96-17.91,3.96"/>
      <path class="cls-1" d="M464.7,99.61c-3.05-1.53-6.52-1.39-9.02-.21v45.05h-13.12v-51.64c5-2.92,11.94-4.58,24.57-3.96l-2.43,10.76Z"/>
      <path class="cls-1" d="M490.45,98.5c-5.76,0-6.8,8.33-6.8,18.25s1.11,18.05,6.8,18.05,6.87-8.12,6.87-17.98c0-9.93-1.04-18.32-6.87-18.32M490.45,145.42c-13.4,0-19.99-12.15-19.99-28.39s6.59-28.32,19.99-28.32,19.99,12.08,19.99,28.32c-.07,16.24-6.52,28.39-19.99,28.39"/>
      <polygon class="cls-1" points="520.78 144.37 520.78 68.72 534.04 64.83 534.04 144.37 520.78 144.37"/>
      <path class="cls-1" d="M545.97,89.75h13.19v54.62h-13.19v-54.62ZM552.5,80.8c-3.82,0-7.01-3.26-7.01-7.08s3.19-7.08,7.01-7.08,7.22,3.12,7.22,7.08c-.07,3.89-3.26,7.08-7.22,7.08"/>
      <path class="cls-1" d="M596.09,144.37v-38.66c0-4.79-1.94-7.43-6.59-7.43-2.71,0-4.1.28-5.48,1.04v45.05h-13.12v-51.64c4.37-2.43,10.55-4.03,18.88-4.03,13.4,0,19.57,5.48,19.57,17v38.66h-13.26Z"/>
      <path class="cls-1" d="M631.69,145.42c-6.18,0-10.48-1.32-13.6-4.03l3.26-9.65c1.53,1.39,4.79,3.05,8.33,3.05s5.69-2.01,5.69-5.07c0-3.96-1.74-5.55-6.59-9.23-5.14-3.89-9.72-8.61-9.72-15.82,0-9.3,6.18-15.89,15.34-15.89,5.9,0,10.2,1.53,13.4,4.03l-3.12,8.4c-1.32-1.25-3.82-2.64-7.22-2.64s-5.27,2.43-5.27,5.14c0,3.54,2.57,5.69,7.43,9.23,5.69,4.23,9.72,8.19,9.72,16.24-.14,9.37-7.5,16.24-17.63,16.24"/>
      <polygon class="cls-1" points="685.62 144.37 671.74 115.78 671.53 115.78 671.53 144.37 658.41 144.37 658.41 68.72 671.53 64.83 671.53 114.81 671.74 114.81 685.69 89.75 698.67 89.75 683.47 114.81 699.78 144.37 685.62 144.37"/>
      <path class="cls-1" d="M728.72,115.92c-8.47,1.11-12.56,3.96-12.56,11.87,0,5.55,2.71,8.75,7.91,8.75,1.8,0,3.68-.49,4.65-.9v-19.71h0ZM723.45,145.42c-13.05,0-19.64-6.32-19.64-17.14,0-14.02,10.34-18.32,24.99-20.27v-1.8c0-5.14-3.05-7.57-7.84-7.57s-8.61,1.32-11.52,2.85l-2.71-8.61c3.12-1.74,8.61-4.03,16.87-4.03,10.27,0,17.91,5.07,17.91,20.06v32.55c-4.1,2.43-9.58,3.96-18.05,3.96"/>
      <rect class="cls-1" x="345.87" y="160.34" width="13.88" height="69.75"/>
      <path class="cls-1" d="M397.02,230.16v-38.66c0-4.79-1.94-7.43-6.59-7.43-2.71,0-4.03.28-5.48,1.04v45.05h-13.05v-51.64c4.37-2.43,10.55-4.03,18.88-4.03,13.4,0,19.57,5.48,19.57,17v38.66h-13.33Z"/>
      <path class="cls-1" d="M432.63,231.13c-6.18,0-10.48-1.32-13.6-4.1l3.26-9.65c1.53,1.46,4.79,3.05,8.33,3.05s5.69-2.01,5.69-5.07c0-3.96-1.74-5.55-6.59-9.23-5.14-3.82-9.72-8.61-9.72-15.82,0-9.37,6.18-15.89,15.34-15.89,5.9,0,10.27,1.53,13.4,4.03l-3.12,8.4c-1.32-1.18-3.89-2.64-7.22-2.64s-5.27,2.43-5.27,5.21c0,3.54,2.5,5.69,7.36,9.23,5.69,4.23,9.72,8.19,9.72,16.24,0,9.37-7.43,16.24-17.56,16.24"/>
      <path class="cls-1" d="M475.73,230.86c-8.95,0-13.81-6.11-13.81-15.69v-29.78h-4.86v-9.86h4.86v-11.87l13.19-4.16v16.03h7.22v9.86h-7.22v28.39c0,5.07,1.74,6.8,4.44,6.8,1.25,0,2.01-.28,2.71-.49v9.3c-.76.62-3.47,1.46-6.52,1.46"/>
      <path class="cls-1" d="M491.35,175.47h13.19v54.69h-13.19v-54.69ZM497.8,166.52c-3.89,0-7.01-3.26-7.01-7.08s3.12-7.08,7.01-7.08,7.22,3.12,7.22,7.08-3.19,7.08-7.22,7.08"/>
      <path class="cls-1" d="M532.72,230.86c-8.95,0-13.81-6.11-13.81-15.69v-29.78h-4.86v-9.86h4.86v-11.87l13.19-4.16v16.03h7.22v9.86h-7.22v28.39c0,5.07,1.74,6.8,4.44,6.8,1.18,0,2.01-.28,2.71-.49v9.3c-.76.62-3.47,1.46-6.52,1.46"/>
      <path class="cls-1" d="M567.28,231.13c-12.15,0-19.16-5.27-19.16-18.95v-36.72h13.19v38.24c0,4.37,2.15,7.08,6.39,7.08,2.01,0,3.82-.49,5.27-1.32v-44h13.26v51.43c-3.96,2.5-10.34,4.23-18.95,4.23"/>
      <path class="cls-1" d="M614.13,230.86c-8.88,0-13.81-6.11-13.81-15.69v-29.78h-4.86v-9.86h4.86v-11.87l13.19-4.16v16.03h7.22v9.86h-7.22v28.39c0,5.07,1.74,6.8,4.44,6.8,1.25,0,2.01-.28,2.71-.49v9.3c-.76.62-3.47,1.46-6.52,1.46"/>
      <path class="cls-1" d="M647.52,184.01c-4.86,0-8.05,6.66-7.91,16.31l14.78-1.8c0-9.23-2.01-14.51-6.87-14.51M640.37,208.85c.83,7.91,4.23,11.87,10.76,11.87,5.55,0,9.37-1.53,11.45-2.85l2.92,9.23c-3.47,2.43-8.81,4.1-16.17,4.1-14.37,0-22.07-10.69-22.07-28.53,0-16.45,7.5-28.18,20.48-28.18,13.81,0,20.48,11.8,19.43,31.03l-26.79,3.33Z"/>
      <path class="cls-1" d="M692.98,230.86c-8.95,0-13.81-6.11-13.81-15.69v-29.78h-4.86v-9.86h4.86v-11.87l13.19-4.16v16.03h7.22v9.86h-7.22v28.39c0,5.07,1.74,6.8,4.44,6.8,1.25,0,2.01-.28,2.78-.49v9.3c-.76.62-3.54,1.46-6.59,1.46"/>
    </g>
  </g>
  <g>
    <g>
      <path class="cls-1" d="M37.98,237.94l-3.82-.69c-.07,0-.21-.07-.35-.07-.28-.07-.56-.14-.76-.14-.83,0-1.46.56-1.46,1.32,0,.62.35,1.18.9,1.39.21.07.35.14.49.14s.28,0,.42-.07l4.58-1.11v-.76Z"/>
      <path class="cls-1" d="M37.01,232.59c-.07-.07-.14-.21-.21-.28-.28-.49-.62-1.04-1.46-1.04s-1.46.62-1.46,1.39c0,.9.76,1.32,1.25,1.6l3.47,2.15.49-.56-2.08-3.26Z"/>
      <path class="cls-1" d="M41.1,241.13c1.46,0,2.64-1.25,2.64-2.78s-1.25-2.64-2.71-2.64-2.71,1.25-2.71,2.71c0,1.53,1.25,2.71,2.78,2.71"/>
      <path class="cls-1" d="M41.45,241.41h-.83l-.83,3.96c-.07.28-.21.76-.21,1.04,0,.69.69,1.39,1.39,1.39.76,0,1.53-.69,1.53-1.39,0-.21-.07-.56-.21-1.04l-.83-3.96Z"/>
      <path class="cls-1" d="M46.65,245.5c.83,0,1.46-.62,1.46-1.46s-.56-1.18-1.11-1.46c-.07-.07-.14-.07-.21-.14l-3.4-2.22-.56.56,2.57,3.96c.28.42.62.76,1.25.76"/>
      <path class="cls-1" d="M49.08,239.81c.76,0,1.39-.69,1.39-1.39,0-.76-.69-1.39-1.46-1.39-.28,0-.83.07-1.04.14l-3.89.76v.83l3.89.9c.07,0,.21,0,.28.07h0v-.07.07c.28,0,.56.07.83.07"/>
      <path class="cls-1" d="M46.93,234.26h0c.56-.35,1.11-.69,1.11-1.53,0-.76-.62-1.39-1.39-1.39-.9,0-1.25.62-1.53,1.11-.07.07-.07.14-.14.21l-2.15,3.33.56.56,3.26-2.08c.14-.14.21-.14.28-.21"/>
      <path class="cls-1" d="M41.45,235.44l.83-3.89c0-.07,0-.14.07-.28.07-.28.14-.56.14-.76,0-.76-.69-1.46-1.53-1.46-.62,0-1.11.35-1.32.9-.14.42-.07.62,0,.97l.97,4.44.83.07h0Z"/>
      <path class="cls-1" d="M35.27,242.45h0c-.07.07-.14.07-.21.14-.49.28-1.04.69-1.04,1.46s.62,1.39,1.39,1.39c.69,0,1.04-.28,1.39-.83l2.5-3.82-.62-.49-3.4,2.15Z"/>
      <path class="cls-1" d="M253.49,237.94l-3.82-.69c-.07,0-.21,0-.28-.07-.28-.07-.62-.14-.76-.14-.69,0-1.46.49-1.46,1.32,0,.62.35,1.18.9,1.39.21.07.35.14.49.14s.35,0,.49-.07l4.44-1.11v-.76Z"/>
      <path class="cls-1" d="M252.52,232.59c-.07-.07-.14-.21-.14-.28h0c-.28-.49-.62-1.04-1.46-1.04s-1.46.62-1.46,1.39c0,.83.69,1.25,1.25,1.6l3.47,2.15.49-.56-2.15-3.26Z"/>
      <path class="cls-1" d="M256.54,241.13c1.46,0,2.64-1.25,2.64-2.78s-1.25-2.64-2.71-2.64-2.71,1.25-2.71,2.71c.07,1.53,1.25,2.71,2.78,2.71"/>
      <path class="cls-1" d="M256.89,241.41h-.83l-.83,3.96v.14h.07-.07c-.07.28-.14.62-.14.83,0,.69.69,1.39,1.39,1.39.76,0,1.53-.62,1.53-1.39,0-.28-.07-.69-.14-.97l-.97-3.96Z"/>
      <path class="cls-1" d="M264.52,236.96c-.28,0-.9.14-1.04.14l-3.89.76v.83l3.89.9c.07,0,.14,0,.28.07.21.07.56.14.83.14.69,0,1.39-.69,1.39-1.39,0-.76-.69-1.46-1.46-1.46"/>
      <path class="cls-1" d="M262.51,242.59h0c-.07-.07-.14-.07-.21-.14l-3.4-2.15-.56.49,2.57,3.96c.28.42.62.69,1.25.69.76,0,1.46-.62,1.46-1.46,0-.76-.56-1.11-1.11-1.39"/>
      <path class="cls-1" d="M262.44,234.26h0c.56-.35,1.11-.69,1.11-1.53,0-.76-.62-1.39-1.39-1.39-.9,0-1.25.56-1.53,1.11-.07.07-.07.14-.14.21l-2.15,3.33.56.56,3.26-2.08c.14-.14.21-.21.28-.21"/>
      <path class="cls-1" d="M250.71,242.45h0c-.07.07-.14.07-.21.14-.49.28-1.04.69-1.04,1.46s.62,1.32,1.39,1.32c.69,0,1.04-.28,1.39-.83l2.5-3.82-.62-.49-3.4,2.22Z"/>
      <path class="cls-1" d="M256.96,235.37l.83-3.89c0-.07,0-.14.07-.21.07-.28.14-.62.14-.83,0-.76-.69-1.46-1.46-1.46-.62,0-1.11.42-1.32.9-.14.42-.07.69,0,1.04l.97,4.37.76.07h0Z"/>
      <path class="cls-1" d="M131.4,15.83l1.94-7.84c.28.56,1.11,2.15,3.61,7.22l-5.55.62ZM93.23,12.29h0c.42-.14.9-.28,1.18-.28.9-.14,1.25.21,1.6,1.11.42.97.69,1.74,2.22,6.32l1.94,5.76.14.49c.9,2.64,1.67,4.93,1.94,6.18.21.9.21,1.46-.14,1.67l-1.04.49c-.14.07-.56.21-.62.56-.07.28.14.49.28.62.07.07.21.14.35.14s.35-.07.56-.14l3.89-1.46,4.51-1.46c.35-.14.56-.28.69-.49.07-.14.07-.28,0-.49-.21-.35-.62-.35-.83-.28l-1.53.42c-.35.07-.9,0-1.32-1.11-.56-1.25-1.32-3.61-2.29-6.39l-.76-2.36c1.25.83,9.51,5.76,11.31,6.52,1.8.76,2.92,1.18,4.79.69l2.15-.69s1.87-.56,5.34-.97l3.47-.28c.28,0,.56-.07.69-.28.07-.14.14-.28.14-.49,0-.14-.07-.28-.21-.42s-.42-.14-.69-.14l-.49.07c-.42.07-.69,0-.83-.14-.14-.07-.21-.21-.21-.49,0-.35,0-1.11.28-1.94l1.25-4.86v-.07l7.29-.83h0l3.4,6.59c.07.07.07.14.07.14v.14h-.07c-.14.07-.69.14-.62.69s.62.49,1.18.42l6.32-.62c1.11-.14,1.46-.21,1.67-.49h0c.07-.07.07-.21.07-.35s-.07-.21-.07-.28c-.07-.14-.28-.28-.69-.21h-1.32c-.69-.07-1.6-.56-3.05-3.05l-10.41-19.16c-.42-.69-.69-1.18-1.25-1.11s-.76.62-1.04,1.67l-6.04,21.59c-.28,1.11-.62,2.08-1.25,2.57-.69.35-2.29.21-2.29.21-1.74-.07-3.47-.9-5.14-1.67l-.35-.14c-1.53-.69-9.23-4.86-11.31-6.11.9-1.8,3.75-7.57,4.3-8.75.76-1.53,1.6-2.57,2.5-3.4.49-.42,1.18-.76,1.6-.9.14-.07.28-.14.35-.21.14-.07.21-.28.21-.49,0-.28-.28-.56-.56-.56h0c-.14,0-.35.07-.49.07l-3.61,1.32-3.26.97c-.14,0-.21.07-.28.14-.21.07-.35.28-.35.56,0,.14.07.35.21.42.21.21.49.21.69.21.07,0,.21,0,.28.28v.21c0,.42-.28,1.18-.62,2.08l-.14.35c-.28.69-1.25,2.78-2.57,5.62l-1.32,2.92-.28-.9c-1.6-4.65-1.87-5.48-2.15-6.45-.14-.42-.14-.69-.14-.9,0-.42.14-.62.56-.83l.83-.35c.07,0,.35-.14.49-.35h.07v-.28c0-.21-.07-.35-.21-.42l-.07-.07c-.21-.07-.49-.07-.9.07l-3.68,1.39-4.44,1.39c-.35.14-.97.35-.76.9.07.21.35.35.9.14"/>
      <path class="cls-1" d="M146.67,300.89c-2.5-.07-4.65-1.04-6.32-2.78-2.08-2.22-3.19-5.62-3.05-9.44.14-3.61,1.04-6.25,2.78-7.91,1.6-1.46,3.61-1.8,5-1.8h.28c2.29.07,4.37.97,5.97,2.71,2.01,2.15,3.12,5.41,2.98,9.16h0c-.07,3.05-.97,10.06-7.36,10.06h-.28M146.39,276.74h0c-9.51-.28-14.09,6.39-14.3,12.77-.07,3.33.97,6.66,2.98,9.09,2.36,2.85,5.9,4.37,10.13,4.51h.62c3.75,0,7.08-1.25,9.51-3.54,2.57-2.43,4.1-5.9,4.23-9.79.21-7.77-4.86-12.77-13.19-13.05"/>
      <path class="cls-1" d="M191.16,295.61h0c-.28.07-1.67.28-2.15.35-.83.07-1.04-.21-1.39-1.18-.49-1.39-1.18-4.16-1.87-7.08l-1.46-5.9c-.97-3.89-1.53-6.59-1.8-7.77l-.14-.56c-.07-.35-.21-.62-.42-.69-.14-.07-.28-.14-.49-.07-.35.07-.62.42-.9.69-.9,1.11-5.9,6.52-6.11,6.66l-.07.07c-.07.14-.35.42-.28.83,0,.07.14.28.42.42.21.07.49,0,.76-.21l.83-.62c.62-.49,2.01-1.67,2.36-1.74.14,0,.21-.07.42.76v.07c.07.21.28.97,1.04,4.16l1.25,5.07c.76,3.05,1.39,5.76,1.67,7.15.14.97.07,1.32-.69,1.67-.56.28-2.08.76-2.43.83-.14,0-.28.14-.35.28-.07.07-.14.28-.07.56.07.21.21.42.62.42.14,0,.28,0,.35-.07l5.41-1.46,5.34-1.25c.28-.07.49-.14.62-.42s.14-.49,0-.69c-.07-.28-.49-.28-.49-.28"/>
      <path class="cls-1" d="M194.91,275.9c-.28-.21-.49-.49-.69-.76h0l-.07-.07c-.07-.14-.21-.35-.28-.56-.21-.49-.28-.97-.28-1.53,0-.42.07-.9.28-1.25.35-.83,1.04-1.53,2.08-1.94,1.8-.76,3.61.14,4.44,2.08,1.11,2.64-.07,4.51-.9,5.41-2.22-.28-3.61-.69-4.51-1.39h-.07ZM206.57,288.12c-.42,1.04-1.25,1.8-2.29,2.22-2.29.97-4.93-.21-5.97-2.71-1.32-3.12.07-5.69,1.04-6.94,3.12.42,5.97.83,7.15,3.75.49,1.25.49,2.57.07,3.68M202.27,277.36s0-.07,0,0c.83-.83,3.26-3.82,1.8-7.36-.56-1.32-1.39-2.15-2.57-2.64-1.6-.69-3.75-.56-5.97.42-4.93,2.01-5.48,5.48-5.48,6.87,0,.69.14,1.39.42,2.01.9,2.22,2.92,3.47,6.32,3.89-.28.35-.62.69-.9,1.04-1.32,1.74-2.08,3.54-2.08,5.34,0,.9.14,1.8.49,2.57.69,1.6,1.8,2.78,3.33,3.4.83.35,1.8.56,2.85.56,1.39,0,2.85-.35,4.37-.97,3.33-1.39,4.79-3.47,5.41-5,.76-1.8.76-3.75,0-5.48-1.6-3.89-5.97-4.44-7.98-4.65"/>
      <path class="cls-1" d="M229.61,278.05h0c-.14,0-.28,0-.42.07-.21.14-1.46.76-1.87.9-.83.28-1.11.07-1.67-.69-.83-1.11-2.15-3.33-3.61-5.69l-3.47-5.69-4.03-7.01-.21-.42c-.21-.35-.42-.56-.69-.62-.62-.07-1.04.83-1.11,1.04-.56,1.25-3.75,7.98-3.89,8.19-.21.35-.21.62,0,.9.21.21.42.28.56.28.35,0,.62-.42.69-.42.07-.07.14-.21.62-.9.35-.49,1.32-2.01,1.74-2.29l.14-.07c.14.07.28.35.49.69l4.93,8.12c1.39,2.36,3.05,5,3.68,6.39.42.9.42,1.25-.14,1.8-.49.42-1.74,1.32-2.08,1.53-.28.14-.42.49-.14.83.14.21.28.28.49.28s.42-.14.56-.21l4.79-2.98,4.72-2.71c.28-.14.42-.28.49-.56s-.07-.42-.07-.49c-.21-.14-.35-.21-.49-.28"/>
      <path class="cls-1" d="M243.08,266.74c-.07.83-.42,1.53-1.04,2.01-.69.56-1.53.83-2.5.76-2.43-.21-5.76-2.57-8.88-6.32-2.98-3.61-4.58-6.8-4.37-8.95.07-.83.42-1.53.97-2.01.62-.49,1.32-.76,2.15-.76h.42c2.92.28,6.59,3.4,8.95,6.25,2.98,3.68,4.51,6.87,4.3,9.02M232.39,248.21h0c-2.15-.21-4.1.49-5.97,2.01-4.72,3.96-4.16,10.13,1.53,16.87,3.05,3.61,6.59,5.69,9.86,5.69,1.87,0,3.61-.69,5.21-2.01,1.87-1.6,2.92-3.47,3.12-5.69.28-3.4-1.32-7.22-4.65-11.17-1.32-1.6-4.86-5.27-9.09-5.69"/>
      <path class="cls-1" d="M4.04,120.43c1.18-5.34,6.66-8.05,13.33-6.66,9.09,1.94,8.95,7.15,8.54,9.3-1.18,5.62-6.87,8.54-13.74,7.08-8.47-1.87-8.68-6.87-8.12-9.72M12.09,135.35h0c.97.21,2.01.35,2.98.35,2.36,0,4.58-.56,6.45-1.67,3.19-1.8,5.41-5,6.32-9.16.83-3.96.28-7.63-1.67-10.62-1.94-2.98-5.07-5.07-8.88-5.9-3.54-.76-6.8-.28-9.44,1.46-2.85,1.87-4.86,5-5.76,9.23-.9,4.23-.28,8.12,1.87,11.17,1.87,2.57,4.86,4.44,8.12,5.14"/>
      <path class="cls-1" d="M11.05,94.82h0c.28-.07.42-.35.49-.56l.56-.9c.56-.76.97-.76,1.94-.42.97.42,1.8.76,6.32,2.92l5.27,2.43c2.5,1.18,5,2.36,6.25,3.12.83.56,1.18.83,1.11,1.25,0,.07-.14.49-.28.76-.07.14-.07.28-.14.35h0c-.14.35-.14.56-.07.69,0,0,.07.21.28.35.07,0,.14.07.21.07s.14,0,.21-.07c.21-.07.35-.28.56-.62l.9-2.08.76-1.67,2.29-4.58,1.94-3.96c.69-1.53.76-1.94,0-2.64s-2.92-1.94-3.26-2.08c-.28-.14-.76-.35-1.04.14-.14.35,0,.69.42.9.49.35,1.11.97,1.32,1.46.42.97,0,2.01-.76,3.61-1.11,2.29-1.6,2.85-2.15,3.12-.69.35-2.98-.76-6.39-2.36l-6.25-2.92c-3.68-1.74-4.44-2.08-5.27-2.57-1.04-.56-1.18-.9-1.04-1.53l.42-1.18c.14-.21.21-.56.14-.76-.07-.14-.14-.28-.28-.35-.56-.28-.83.42-.97.69l-1.8,4.1-2.01,4.03c-.21.42-.21.69-.14.9-.14.21.14.49.49.35"/>
      <path class="cls-1" d="M81.08,32.84l1.94.28c3.19.42,4.37,1.39,5.21,2.71.83,1.46.49,3.68-1.8,5.07-1.11.69-3.33,1.46-5.34-.42-.42-.42-.83-.9-1.04-1.25-.07-.21-.28-.42-.56-.49-.14-.07-.35,0-.49.07-.56.28-.21,1.04-.07,1.39l2.08,3.82c.35.56.56.83,1.11.83h.35c1.53-.14,2.92-.69,4.65-1.74,1.87-1.11,3.12-2.36,3.96-3.96.49-1.04.76-2.08.76-3.19,0-1.67-.62-2.98-1.04-3.61-1.67-2.78-4.03-3.96-9.16-4.65l-1.11-.14c-3.19-.35-4.44-.9-5.14-2.15-.28-.49-.42-1.04-.42-1.53,0-1.11.69-2.15,2.01-2.92,1.67-.97,2.85-.69,3.61-.42.97.35,1.6,1.11,1.67,1.32.21.28.35.49.56.56.14,0,.56,0,.69-.42.07-.28,0-.56-.35-1.11l-1.67-2.98-.28-.49c-.28-.49-.76-.28-.97-.28-1.04.28-2.36.69-4.1,1.74-2.15,1.32-3.68,3.05-4.16,5.07-.42,1.6-.14,3.19.69,4.58,1.53,2.43,3.96,3.75,8.4,4.3"/>
      <path class="cls-1" d="M177.07,28.12c.21,0,.35-.07.49-.14.28-.21.21-.49.14-.69v-.07c-.14-.14-.35-.28-.62-.35l-1.6-.42c-.76-.21-.83-.69-.83-1.46.07-1.39.56-3.89,1.04-6.87l.97-5.97c.76-4.79.97-5.83,1.18-6.8.28-1.18.56-1.39,1.18-1.39l.97.07c.56.07.83-.07.9-.49v-.07l-.07-.21-.07-.07c-.14-.21-.35-.28-.83-.35l-3.96-.56-4.16-.76c-.49-.07-.76-.07-.97.07-.07.07-.14.21-.21.35,0,.21,0,.42.14.56.14.14.35.21.56.28.28.07.69.14,1.11.28.56.21.69.69.62,1.67-.07,1.04-.21,1.8-.97,6.39l-1.04,6.18c-.49,3.05-.97,5.69-1.32,7.01-.28,1.04-.56,1.25-.9,1.25l-1.18-.07c-.56-.07-.83.07-.9.42-.07.21,0,.69.83.76l4.1.56,5.07.97c.14-.07.28-.07.35-.07"/>
      <path class="cls-1" d="M216.36,43.73c0,.28.07.49.28.69.76,1.32,1.87,2.36,3.54,3.54,1.8,1.25,3.47,1.87,5.21,1.94h.21c3.26,0,5.07-1.94,5.83-3.12,1.8-2.64,1.94-5.34.35-10.2l-.35-1.11c-.97-3.05-1.04-4.37-.21-5.55,1.04-1.53,2.92-1.74,4.72-.49,1.6,1.11,1.8,2.29,1.87,3.12.07,1.04-.35,1.87-.49,2.08-.07.07-.35.49-.21.76,0,.14.14.28.28.35.14.07.42.21.76-.07.14-.14.35-.35.56-.62l2.01-2.71.35-.42c.28-.42-.07-.83-.21-.97-.62-.76-1.6-1.8-3.33-2.98-2.08-1.46-4.3-2.01-6.32-1.67-1.6.28-2.98,1.18-3.89,2.57-1.67,2.43-1.8,5.14-.49,9.44l.56,1.87c.97,3.05.62,4.58-.28,5.9-.97,1.39-3.12,2.01-5.34.49-1.04-.69-2.71-2.36-1.87-5.07.21-.56.49-1.18.69-1.46.07-.14.28-.42.21-.69,0-.14-.14-.28-.28-.35-.56-.35-1.04.35-1.25.56l-2.57,3.47c-.21.07-.35.35-.35.69"/>
      <path class="cls-1" d="M258.07,50.12c.35.35,1.04,1.18,2.57,2.85,1.32,1.46,1.67,2.36,1.67,2.92,0,.28-.07.56-.28.76l-.21.28c-.21.28-.42.49-.42.76,0,.14.07.28.21.42.35.35.76,0,.97-.14l.07-.07v-.07h0c.42-.35,2.01-1.87,2.71-2.5.21-.21.49-.49.49-.76,0-.14-.07-.28-.21-.42l-.76-.56c-.07-.07-.97-.83-1.6-1.39l-9.16-9.37c-.76-.76-1.6-1.74-2.15-2.43-.28-.35-.42-.62-.49-.9l-.21-.35-.07-.07c-.35-.35-.83-.07-1.11.14-.21.14-2.85,1.8-3.26,2.15-.28.28-.35.42-.35.62v.07c.07.28.21.42.35.42.35.14.69-.07.76-.07.14-.07.49-.28,1.11-.35.76-.14,1.39.35,2.64,1.53l3.26,3.19c-1.39,1.32-9.37,9.16-9.44,9.23l-.35.35c-1.94,1.94-3.68,3.61-4.72,4.37-.76.62-1.25.76-1.53.56l-.9-.69c-.42-.42-.69-.49-.97-.21-.14.07-.21.21-.21.35,0,.35.28.69.42.76l2.92,2.92,3.54,3.75c.28.28.49.42.69.42s.35-.07.42-.14c.14-.14.14-.28.14-.35,0-.21-.07-.42-.35-.62l-1.04-1.25c-.14-.21-.21-.42-.21-.62,0-.42.28-.76.62-1.18.9-1.11,2.92-3.12,4.93-5,7.08-6.87,8.95-8.75,9.51-9.3"/>
      <path class="cls-1" d="M254.74,78.23h0c-.9.49-1.25.49-1.53.21l-.76-.9c-.14-.21-.28-.42-.56-.49-.14,0-.28,0-.35.07-.14.07-.28.21-.28.42-.07.42.28.76.28.76l2.36,3.33,2.78,4.3c.21.35.49.49.76.49.14,0,.21,0,.35-.07s.42-.42,0-1.04l-.83-1.46c-.35-.69-.14-1.11.49-1.6,1.04-.83,3.12-2.22,5.83-4.1l5.9-3.96c3.19-2.15,3.89-2.64,4.72-3.12,1.04-.62,1.39-.56,1.8-.14l.62.76c.42.56.76.49,1.04.35.14-.07.21-.21.21-.35.07-.21-.07-.49-.28-.83l-2.29-3.26-2.29-3.61c-.21-.28-.62-.9-1.11-.62-.14.07-.21.21-.28.35-.07.35.14.69.21.69.28.42.42.69.56.97.21.56,0,.97-.76,1.6-.76.56-1.46,1.04-4.72,3.26l-6.18,4.16c-2.57,1.87-4.51,3.19-5.69,3.82"/>
      <path class="cls-1" d="M279.59,83.64c.14,0,.56-.07,1.18.07.76.14,1.18.83,1.94,2.36l1.94,4.1c-1.74.76-11.59,5.07-12.01,5.27l-.07.07c-2.71,1.18-5.07,2.22-6.32,2.64-.97.28-1.46.28-1.67,0l-.62-1.04c-.14-.28-.35-.49-.56-.49-.28-.07-.56.14-.56.14-.28.21-.14.62,0,.97l1.74,3.75,2.01,4.72c.14.35.35.56.56.62h.21c.21,0,.35-.07.42-.21.21-.28.07-.76.07-.83l-.56-1.6c0-.14-.07-.21-.07-.35,0-.49.35-.76,1.04-1.18,1.18-.69,3.54-1.74,6.25-2.92l1.25-.56c2.71-1.18,9.51-4.16,10.9-4.79.21.56.69,1.67,1.46,3.54.42,1.04.62,1.87.62,2.57,0,.83-.35,1.18-.62,1.32l-.35.14c-.35.21-.69.42-.69.69,0,.07,0,.21.07.28.21.49.76.28,1.04.21.07,0,3.54-1.46,3.54-1.46.35-.14.62-.28.69-.56v-.42l-.56-.83c-.07-.07-.62-1.11-1.04-1.94l-5.27-11.94c-.42-.9-.83-2.01-1.18-3.05-.14-.42-.14-.76-.14-1.04l-.07-.42v-.07c-.21-.49-.76-.35-1.04-.28s-3.26.69-3.82.9c-.21.07-.76.35-.56.9.07.69.42.76.83.69"/>
      <path class="cls-1" d="M281.53,117.1c-4.16.76-6.8,2.22-8.26,4.58-1.87,2.98-1.25,6.39-.97,7.77.35,1.94,1.11,4.37,3.68,6.45,1.53,1.25,3.47,1.87,5.9,1.87,1.32,0,2.71-.14,4.65-.49l3.61-.62c4.79-.9,5.69-1.04,6.73-1.18,1.18-.14,1.46.07,1.74.62l.28.9c.07.35.14.56.42.69.14.07.49.14.76-.14.14-.21.14-.49.07-.9l-.76-3.68c0-.07-.42-2.5-.62-3.75-.07-.28-.14-.49-.21-.62-.14-.21-.35-.35-.56-.28-.21,0-.35.14-.35.21-.14.21-.14.49-.07.69l.14,1.11c0,.9-.35,1.18-1.32,1.46-.97.21-1.74.42-6.11,1.18l-4.79.9c-3.54.62-6.18.97-8.12-.35-1.74-1.18-2.29-3.12-2.43-3.96-.21-1.11-.28-2.5.56-4.1,1.11-1.94,3.19-3.05,7.29-3.82l4.72-.83c4.79-.9,5.62-1.04,6.66-1.18,1.18-.14,1.53.07,1.74.62l.28.9c0,.14.14.49.42.62.14.07.21.07.28.07.21,0,.28-.07.42-.21.14-.21.07-.56,0-.9l-.83-3.96-.76-4.72c-.07-.28-.21-1.04-.83-.9-.56.14-.49.76-.42.97.07.42.14.97.14,1.18,0,.97-.35,1.18-1.32,1.46s-1.74.42-6.59,1.25l-5.14,1.04Z"/>
      <path class="cls-1" d="M300.27,148.26c-.35-.07-3.26-.83-3.82-.9-.35,0-.56,0-.76.21,0,0-.21.28-.14.56.07.21.28.42.56.49.35.07.69.28,1.04.56.49.42.69.97.69,2.57v.35s-.07,3.54-.07,4.58c-1.8-.07-11.17-.49-13.26-.62h-.14c-2.92-.14-5.41-.28-6.73-.49-.97-.14-1.39-.35-1.46-.76l-.07-1.18v-.07c0-.28-.14-.49-.28-.62-.28-.14-.56,0-.62,0h-.07c-.21.14-.28.42-.28.83l-.07,4.1-.35,5.14c0,.35.07.62.21.83.14.07.42.28.76,0,.14-.14.21-.35.28-.69l.21-1.67c.14-.76.69-.9,1.53-.97,1.25-.07,3.54,0,6.18.14h.83c9.65.49,12.35.56,13.19.62-.07.49-.14,1.46-.28,3.82-.21,2.98-1.18,3.47-1.74,3.47h-.35c-.35,0-.97,0-.97.69,0,.49.49.56.83.62,0,0,1.11.07,2.08.14,1.67.14,1.74.14,1.74.14h.28c.21,0,.42,0,.62-.14l.21-.35-.14-.97c0-.07,0-.49-.07-2.22l.62-12.98c.07-1.04.14-2.29.28-3.26.07-.42.21-.69.28-.9l.14-.42v-.07c-.07-.28-.56-.42-.9-.56"/>
      <path class="cls-1" d="M296.87,180.81c-.28-.28-.56-.21-.69-.14-.21.07-.28.28-.42.62-.14.42-.28.9-.42,1.18-.42.83-.9.9-1.8.69-.97-.14-1.74-.35-5.97-1.46l-6.52-1.67c-2.71-.69-5.27-1.32-6.52-1.8-.76-.35-1.32-.62-1.32-1.04l.14-1.11c.07-.35.07-.56-.07-.76-.21-.28-.56-.21-.76-.14-.21.14-.35.35-.42.76l-.49,2.22-.42,1.8-.9,3.26-1.53,5.48c-.35,1.25-.49,1.74.56,2.29.62.35,2.78,1.18,3.47,1.32.28.07.56.14.83,0,.21-.21.28-.42.21-.56-.07-.35-.49-.56-.62-.62-1.18-.56-1.67-.97-1.8-1.8-.14-.9.21-2.22.35-2.98.83-3.33,1.39-3.33,3.26-2.92l7.43,1.87h.07c-.21.9-.97,3.82-1.18,4.37-.35.9-.69,1.25-1.39,1.25l-.83-.07-.28-.07c-.42-.07-.62.21-.69.49-.14.56.49.76.76.83.07,0,1.53.49,2.08.69.07,0,1.18.42,2.01.69l.28.14c.21.07.35.07.49-.07.14-.07.21-.21.21-.35.07-.28-.07-.56-.28-.83-.21-.35-.21-.76-.07-1.46.07-.49.56-2.36,1.18-5h.07l7.98,2.01h.07c-.21.83-1.04,3.89-1.25,4.37-.62,1.53-1.04,1.6-1.46,1.6-.35.07-.76,0-1.11-.07h-.21c-.42-.07-.56.21-.62.28v.14h0c-.07.49.35.69.49.76l1.46.49.62.21,1.74.69.28.14h.28c.28,0,.42-.14.49-.42v-.49l.14-1.39c.14-.56,1.46-5.83,1.87-7.57l.62-2.15.76-2.78c.07-.49.07-.69-.14-.97h0Z"/>
      <path class="cls-1" d="M289.03,207.74h0c-.21-.14-2.64-2.08-3.19-2.29-.28-.14-.49-.21-.69-.14-.35.14-.42.42-.35.56,0,.28.21.49.35.62,0,0,.35.21.69.9.14.21.21.49.21.69,0,.56-.28,1.25-.69,2.29l-.14.28c-.56,1.25-1.46,3.19-1.8,3.89l-6.39-3.12c-4.23-2.08-5.21-2.5-5.41-2.64h0l-.42-.21c-2.5-1.25-4.72-2.29-5.83-2.98-.76-.49-1.11-.83-1.11-1.11v-.14l.42-1.04c.07-.21.14-.35.14-.56v-.21l-.07-.07c-.21-.28-.49-.28-.62-.28h-.07c-.21.07-.42.28-.56.62l-1.11,2.36-.62,1.39-.69,1.39-1.6,3.19c-.14.28-.35.9.14,1.18.14.07.28.07.42,0,.21-.07.35-.21.49-.49l.83-1.46c.42-.62.9-.56,1.8-.28,1.32.42,3.54,1.53,6.18,2.85l.14.07,3.05,1.46.56.28c2.98,1.46,7.22,3.54,8.33,4.03-.21.42-.76,1.39-1.74,3.33-1.39,2.71-2.43,2.78-2.98,2.57l-.35-.14c-.35-.14-.9-.35-1.18.21-.21.49.28.76.49.9l.07.07h0c.28.21,1.11.62,3.26,1.74h.07c.21.07.49.21.69.21s.35-.07.49-.28v-.14c0-.14.14-.49.14-.49l.07-.35c.07-.14.21-.56.83-2.01l5.69-11.73c.42-.9,1.04-2.01,1.6-2.85.21-.35.42-.56.62-.69l.35-.35.07-.07c.14-.42-.35-.76-.56-.97"/>
      <path class="cls-1" d="M53.46,62.61h0c1.94,2.08,2.36,2.71,2.01,3.26-.21.42-.69.83-.9,1.04-.28.21-.35.42-.35.69,0,.21.21.56.56.56h0c.28,0,.56-.21.76-.42l2.15-2.15.35-.35,3.05-2.71c.21-.21.76-.76.35-1.18-.42-.42-.9.07-1.04.21-.28.28-.76.69-1.32.97-.56.28-1.53-.28-2.98-1.8l-9.23-9.37h.35c1.53.14,6.11.49,10.34.56l13.67.35c.56,0,1.11,0,1.46-.28h.21v-.14c.07-.07.14-.21.14-.35,0-.07,0-.14-.07-.21-.07-.21-.28-.49-.56-.76l-14.02-15.27c-1.25-1.39-1.32-1.87-1.04-2.43l.62-.69c.28-.28.42-.49.42-.69,0-.14-.07-.28-.14-.35-.07-.14-.21-.21-.35-.21-.28,0-.56.21-.83.49l-1.87,1.87-.42.42-3.05,2.57c-.35.35-.56.62-.56.9h0l.14.35.28.14h.07c.21,0,.42-.14.62-.35.35-.28.83-.83,1.32-.97.62-.21,1.11-.07,2.5,1.32l9.93,9.99c-.69,0-1.87-.07-2.43-.14h-.35l-7.01-.28c-7.08-.14-14.58-.62-14.65-.62h-.49c-.62-.07-1.04-.07-1.39.21-.56.49.14,1.25.42,1.53l13.33,14.3Z"/>
      <path class="cls-1" d="M23.75,69.07c.07.21.28.28.49.28.14,0,.21-.07.28-.07.14-.07.28-.21.42-.42.21-.35.49-.62.69-.83.42-.42.9-.35,1.8.14.83.49,1.53.97,5,3.33l5.62,3.89c2.5,1.74,4.65,3.19,5.69,4.1.83.69.9.97.76,1.32l-.56,1.04c-.21.28-.28.49-.21.69,0,.14.21.42.62.42h.07c.21,0,.42-.21.69-.56l2.22-3.47,2.98-4.16c.21-.28.28-.56.28-.76,0-.14-.14-.28-.28-.35s-.28-.14-.42-.07c-.21.07-.42.21-.56.42l-1.04,1.32c-.56.56-.97.49-1.67.07-1.18-.62-3.12-2.01-5.55-3.68l-5.14-3.54c-4.03-2.78-4.86-3.33-5.69-4.03-.97-.76-1.04-1.11-.76-1.67l.49-.83c.35-.49.28-.83-.07-1.04-.14-.07-.28-.07-.42-.07-.28.07-.49.28-.69.56l-2.22,3.33-2.5,3.47c-.21.35-.35.56-.35.69v.49h0Z"/>
      <path class="cls-1" d="M12.02,159.23c0,.07-.07.07-.28.14l-9.99.28h-.14v-.07c-.07-.28-.14-.76-.14-1.67,0-1.18.42-2.36,1.25-3.19.97-1.04,2.43-1.6,4.3-1.67h.35c2.64,0,3.89,1.04,4.37,1.67.42.49.56.9.56,2.15,0,.83-.07,1.8-.28,2.36M15.21,163.74c2.92-.07,5.48-.14,6.87-.07.97.14,1.46.21,1.53.62l.14,1.11c0,.28.07.56.21.69.07.07.21.14.35.14.07,0,.21,0,.28-.07.35-.14.42-.62.35-.9l-.21-3.96-.07-4.86c0-.21,0-.56-.28-.83-.14-.07-.28-.14-.42-.14s-.28.07-.42.14c-.14.14-.21.35-.14.56l-.07,1.6c-.07.69-.42.9-1.46,1.04-1.32.21-3.82.28-6.66.35h-.69l-.07-2.78c0-.21,0-.28.07-.35l2.15-1.67,2.29-1.74c2.57-2.01,4.03-3.33,4.79-4.79.49-.97.62-1.87.56-3.68l-.07-3.12c0-.35-.07-.56-.14-.69l-.07-.14h-.07c-.07-.07-.21-.07-.28-.07h-.21c-.14,0-.42.14-.42.69l-.07.9c-.07.49-.28,1.74-2.01,3.54-1.67,1.67-3.96,3.61-6.8,6.04l-1.32,1.11c-.07-.07-.14-.14-.21-.21l-.21-.21c-2.36-2.57-4.58-3.68-7.15-3.61-2.5.07-4.16,1.67-4.65,2.57-1.25,1.94-1.32,4.23-1.25,6.25l.28,4.65.07,4.51c0,.28,0,1.04.62,1.04s.62-.69.56-.9c0-.42,0-.97.07-1.18.14-.9.56-1.11,1.53-1.25.97-.07,1.94-.14,6.39-.28l6.32-.07Z"/>
      <path class="cls-1" d="M19.31,189.07l-7.98-.9c.56-.42,2.15-1.46,6.66-4.51l1.32,5.41ZM39.02,215.73c.83-.28,1.39-.42,1.67-.07l.62.97c.14.28.35.49.49.49h.07c.35,0,.56-.14.62-.21.21-.35,0-.83-.14-.97l-1.94-3.61-2.01-4.3c-.14-.28-.35-.49-.56-.56-.14-.07-.28-.07-.42,0-.21.07-.28.28-.28.49,0,.14,0,.28.14.42h0c.07.14.21.49.56,1.39h0c0,.07.07.21.07.28,0,.42-.35.83-.97,1.18-1.18.69-3.54,1.87-6.04,3.12,0,0-1.39.69-2.22,1.11.69-1.32,4.37-10.2,4.93-12.08.49-1.87.76-3.05.07-4.79l-.97-2.01c-.28-.42-.56-1.25-.62-1.39l-.83-3.05-.21-.62-.76-3.4c-.07-.28-.14-.49-.42-.62-.14-.07-.28-.07-.49-.07-.56.14-.42.69-.35.9l.14.49c.21.9-.14,1.04-.42,1.18-.35.07-1.11.14-1.94,0l-5-.56h-.07l-1.8-7.08h0l6.11-4.3c.07-.07.14-.07.21-.07h0s.07.07.14.28c.14.28.42.35.69.28.49-.14.42-.69.28-1.25l-1.53-6.18-.07-.35c-.21-.76-.28-1.11-.69-1.25-.21-.07-.42.07-.49.14-.21.21-.21.62-.21.69l.21,1.32c0,.69-.28,1.67-2.64,3.4l-17.56,12.91c-.69.56-1.04.9-.97,1.39.14.56.76.62,1.8.83l22,2.92c1.18.14,2.15.35,2.78.97.21.21.42,1.25.42,2.22.14,1.74-.42,3.61-.97,5.34l-.07.35c-.49,1.6-3.54,9.86-4.58,12.01-1.87-.62-7.91-2.64-9.23-3.12-1.6-.56-2.78-1.18-3.68-2.01-.49-.42-.9-1.11-1.11-1.46-.07-.21-.21-.42-.49-.49h-.49l-.28.28v.07c-.07.21,0,.42.14.76l1.8,3.4,1.46,3.05c.14.35.28.49.49.56h.42c.42-.21.35-.69.28-.9,0-.07-.07-.21.21-.35.42-.21,1.46.07,2.57.35l.21.07c.76.21,2.98.9,5.14,1.53l.69.21c1.74.56,2.64.83,3.12.97l-.49.28c-.35.21-.62.35-.62.35l-.49.21c-3.61,1.8-4.44,2.22-5.34,2.57-1.11.49-1.46.35-1.8-.14,0-.07-.21-.42-.35-.62-.07-.07-.07-.14-.07-.14h0c-.28-.62-.69-.49-.9-.42-.56.28-.21.9-.07,1.18l1.87,3.47,2.01,4.16c.21.35.35.62.56.69h.42c.35-.21.42-.56.14-1.04-.21-.35-.42-.9-.49-1.11-.21-.9.07-1.25.9-1.74s1.53-.83,5.9-3.05l5.48-2.78c2.64-1.39,5-2.57,6.32-3.05"/>
      <path class="cls-1" d="M65.19,254.39c-.28.9-1.18,3.4-2.57,7.43l-.07.14-4.37-3.47,7.01-4.1ZM64.49,275.62c-.42-.56-.76-1.53.07-4.3l6.32-20.89c.21-.76.35-1.32-.07-1.67s-.97-.07-1.87.42l-19.36,10.9c-1.6.9-2.57,1.25-3.68.56l-.83-.62h-.07c-.28-.14-.56-.14-.69,0-.28.14-.28.42-.28.49v.07c0,.28.21.42.49.69l2.5,1.94.56.42,2.64,2.29c.21.14.49.42.76.28.28-.14.35-.35.35-.49.07-.35-.28-.62-.35-.69l-.42-.28c-.35-.28-.49-.49-.56-.69,0-.14.07-.28.14-.49.21-.28.83-.76,1.53-1.18l4.3-2.57h.07l5.69,4.58h0l-2.29,7.08c0,.07-.07.14-.07.21l-.07.07h-.07c-.42-.28-.69-.21-.9.07-.35.42.14.83.56,1.18l4.93,4.03c.83.62,1.11.83,1.39.83h.07c.28-.07.35-.21.42-.35.07-.35-.21-.62-.28-.69l-.9-1.18Z"/>
      <path class="cls-1" d="M101.83,269.79l.83.35c.69.35.97.07,1.11-.14.28-.56-.35-.83-.69-1.04l-2.36-1.11-.56-.21-3.47-1.87c-.07,0-.14-.07-.21-.07-.35-.14-.69-.35-.9-.07-.21.21-.21.42-.21.56.07.35.42.56.49.56.35.14,1.04.56,1.39.9.21.21.28.49.28.69,0,.42-.21,1.04-.69,2.08-.21.49-5,10.2-6.18,12.7-.28-.9-.83-2.71-.83-2.71l-2.01-6.73c-2.22-6.8-4.23-13.95-4.23-14.02l-.14-.42c-.21-.69-.42-1.11-.76-1.25-.21-.07-.35-.07-.42,0-.28.07-.56.42-.83.97l-9.16,17.14c-1.32,2.5-1.8,3.12-2.43,2.98-.42-.07-.97-.35-1.32-.49-.21-.14-.49-.21-.69-.14-.35.14-.42.49-.35.69.07.28.35.42.69.62l2.71,1.32.49.21.76.42,2.78,1.53c.42.21.69.28.9.21.35-.07.42-.42.35-.69-.07-.21-.21-.35-.56-.49-.35-.21-.9-.49-1.32-.9-.42-.49-.21-1.53.69-3.4l5.62-11.8.07.35c.69,2.57,1.74,6.39,2.92,9.93l1.87,5.9,2.29,7.15c.14.56.35,1.11.83,1.32h.21c.56,0,.97-.76,1.04-.9l9.79-18.25c1.18-1.74,1.6-1.94,2.22-1.87"/>
      <path class="cls-1" d="M131.05,276.87l-2.57-.62-.56-.14-3.82-1.18c-.42-.14-.76-.21-1.04,0,0,0-.28.21-.28.49,0,.49.49.56.69.62.35.07,1.11.28,1.53.62.35.28.49.56.49,1.04,0,.35-.07.9-.28,1.74v.14c-.28,1.25-2.78,11.04-3.4,13.6-.42-.83-1.32-2.43-1.39-2.57l-3.33-6.11c-3.19-5.48-6.52-11.94-7.01-12.84l-.21-.42c-.28-.56-.49-.9-.83-1.04-.69-.21-.97.76-1.11,1.18l-5.41,18.67c-.69,2.5-1.11,3.4-1.74,3.4-.35,0-.83-.07-1.39-.21-.21-.07-.76-.21-.97.21-.07.07-.14.28-.07.49.07.28.35.42.83.56l3.4.83,3.89,1.18c.42.14.76.21,1.04-.07.21-.21.21-.42.14-.56-.14-.35-.56-.49-.62-.49-.49-.14-1.04-.35-1.46-.62-.49-.35-.49-1.46,0-3.47l3.12-12.7.21.35c.83,1.67,2.85,5.55,4.86,9.09l2.98,5.27,3.82,6.59c.21.42.56.9.97,1.11l.14.07h0c.21,0,.42-.07.56-.21.14-.14.28-.42.42-.9l5.83-19.92c.56-1.8.9-2.15,1.53-2.15l.97.14c.42.07.69,0,.83-.14.21-.21.14-.42.14-.49-.07-.28-.49-.42-.9-.56"/>
      <path class="cls-1" d="M184.36,29.99v-.07.07l2.78,1.04.56.21,3.75,1.6c.28.07.97.35,1.25-.21.07-.14.07-.28,0-.42-.14-.28-.56-.42-.62-.49-.42-.14-.97-.42-1.39-.76-.49-.42-.35-1.53.35-3.47l4.51-12.29.14.35c.69,1.74,2.22,5.83,3.82,9.58l2.43,5.62,3.05,6.94c.21.49.49,1.04.97,1.25h.49c.28-.14.49-.42.69-.97l7.98-19.16c.69-1.74,1.18-2.01,1.8-1.94l.9.28c.35.14.62.14.83.07l.14-.07.21-.56-.07-.07c-.07-.28-.35-.42-.76-.56l-2.5-.9-.56-.21-3.68-1.53c-.42-.14-1.11-.42-1.32.14,0,.07-.07.14-.07.21,0,.42.49.62.62.69.49.21,1.11.42,1.46.76.28.28.35.49.35.9s-.14,1.04-.49,1.94c-.97,2.64-4.16,11.24-4.93,13.26-.21-.42-.49-1.25-1.04-2.57l-2.71-6.52c-2.22-5.07-4.37-10.55-5.48-13.33l-.21-.62c-.21-.56-.35-.97-.76-1.18-.14-.07-.35-.07-.49,0-.35.14-.56.62-.76,1.04l-7.43,17.98c-1.04,2.64-1.46,3.26-2.08,3.19-.35,0-.76-.14-1.32-.35-.69-.28-.9,0-.97.21-.35.56.28.76.56.9"/>
      <path class="cls-1" d="M261.75,127.65c-7.5-14.02-24.57-9.65-27-8.68-7.98,3.05-12.08,10.34-12.7,18.18-7.08-9.65-4.23-22-4.16-22.84.28-2.01.49-5.07.28-6.32.56-.21,2.29-1.04,3.54-2.22,6.52-6.73.21-8.54-2.85-4.79.35-5-2.29-2.98-3.75-2.43-.14-3.54-2.64-1.67-3.19-.76-1.53-5.27-5.62-1.04-6.73.76-6.66-1.8-7.57,1.11-7.63,1.04,2.98.97,3.33,1.53,3.4,2.29.07.9-1.39,2.15-3.4,2.22.07.28,3.89,1.46,5.34-.56,1.6-2.15.21-3.68,0-3.68,1.67.14,3.05.42,4.44.9,5.55,1.8,7.36,2.64,7.63,7.7.14,2.43-.49,5.41-.83,7.15-.9,4.37-.76,12.01,0,15.96,1.18,6.04,8.19,18.05,10.97,12.42,1.18-2.43,1.74-7.98,3.82-13.6,2.5-6.66,9.02-10.62,18.39-8.68,13.67,3.82,13.47,14.92,12.42,17.42,0,0,.21-8.05-6.94-10.48,1.53,3.19,2.08,9.58.56,14.44.62-4.58-2.29-11.17-10.9-13.12,6.39,11.59.83,26.37.28,26.93,10.27-8.33,5-20.48,5-20.48,0,0,5.34,5.21,2.29,16.59,8.33-5.69,6.18-19.23,6.25-19.16,1.94,3.4,2.36,5.55,1.6,11.8,0-.14,1.67-.07,4.03-7.01,2.22-6.87-.14-11.04-.14-11.04Z"/>
      <path class="cls-1" d="M221.98,168.18c5.55-.21,10.83-2.98,13.4-5-9.86,2.64-17.91,1.18-21.59-.35-6.52-2.71-13.67-12.35-14.78-14.3-2.36-3.89-3.4-12.01-1.53-19.23,1.39-5.62,6.39-17.07,6.66-19.85.35-2.57-2.22-3.33-2.43-3.54h-.14c-9.37,3.68-7.7,9.86-4.51,9.51.07.62-.14,2.22,1.39,2.71-.56,1.74-5.48,10.27-5.83,16.38-.83,15.76,7.29,22,9.09,24.57,3.96,5.62-.49,9.58-2.57,10.06s-3.68.56-5.41.07c-1.39-.42-3.4-1.18-4.79-1.11-2.5.07-3.61,1.87-4.23,3.12,0,0,2.43-.14,4.37.07,1.94.21,2.08.28,2.71.49,0,2.01-.28,3.12-.49,3.75s-.07,1.25-.07,1.25c1.87-.49,4.1-2.01,4.37-4.1,3.75.56,5.41.62,7.63,1.94,0-.76.76-2.22,1.67-3.05,1.32-1.18,5.76-2.29,5.83-2.22,6.39,4.93,3.26,18.74,2.92,19.36s-1.6,1.11-4.16.69c-.42.35-.83.28-1.32,1.25-2.01-.21-5.9-.76-8.26.14-3.33,1.25-6.66,4.3-7.36,5.55-.28.49-1.04,1.74-.14,2.22.76.35,4.37.21,6.18.21,1.53,0,23.95,0,25.82-.07,4.3-.07,9.02-.69,9.51-.83,1.18-.35.97-.9.97-.9,0-.42-1.8-3.89-6.87-4.37-5.62-1.04-9.72-.97-9.99-1.18.62-.69,1.74-1.39,1.87-2.08.21-.97-.07-7.15.14-9.72.49-6.73,1.25-8.88,1.94-11.45"/>
      <path class="cls-1" d="M93.3,159.58c-4.44,2.64-13.05,6.25-13.05,6.25-3.12-.07-9.09-6.66-11.52-12.08s-2.57-18.05-2.57-21.52h42.2s-7.36,2.29-8.68,10.9c-1.25,8.54,1.6,11.73-6.39,16.45ZM73.93,175.4c1.74-5.21,17.14-10.13,21.66-12.49,3.61,10.97-17.49,9.65-18.88,20.82-4.16-4.72-2.78-8.33-2.78-8.33ZM42.14,131.26c-.49-3.33-.07-9.37,5.21-13.05,5.76-4.03,14.92-4.65,20.89-3.05,2.92.76,2.22,1.87,1.46,1.74-5.41-1.04-10.34-.76-15.48,1.46-10.06,4.3-10.97,17,2.36,20.41.49,1.94.56,2.43,1.18,4.79-11.8-.62-15.2-8.95-15.62-12.29ZM115.99,128.55c-.9-2.43-65.1-1.11-65.1-1.11,0,0,1.74-11.11,19.5-7.84,7.15,1.32,9.09,4.86,20.13,4.79.62,0,.76-1.18.21-1.25-3.33-.56-3.05-1.87-2.64-2.5.49-.97,3.33.56,4.16.35.21-.07.42-.62.56-1.11.07-.28-.14-.62-.42-.76-5.76-3.4-9.02-3.82-13.4-2.98-1.74.35-7.22-1.94-9.23-2.57-7.63-2.36-18.39-2.08-24.08,1.87-7.01,4.86-11.94,14.09-4.58,25.13,3.12,4.65,9.44,6.66,17.56,7.43,3.47,15.76,14.37,19.43,16.52,20.41.07,0-4.1,2.01-5.48,5.34-.49,1.18-1.94,8.05,6.04,13.19-.76,3.05-3.68,5.41-6.59,6.32-1.87.62-3.47.56-4.72,1.67-.9.9-1.04,3.47-1.04,3.61h34.77c.35-2.15-.35-3.75-2.78-4.44-3.4-1.25-3.33-.62-6.59-3.19-3.54-2.29-3.12-12.08-2.98-13.19.49-.9,8.54-3.33,11.24-7.01,2.71-3.68,2.08-6.8,1.11-9.3,7.22-5.14,5.55-15.82,6.11-18.39.97-4.44,2.98-5.62,6.39-6.94,1.87-.69,4.65-.42,5.34-1.11.9-.49.97-5.28,0-6.39"/>
    </g>
    <path class="cls-1" d="M159.79,172.69c-.07-2.5-.07-2.98-.07-5.97,11.87-4.3,18.6-8.95,20.48-16.31,5.27-20.89-18.6-24.57-20.96-25.26-.07-1.6-.07-2.71-.07-3.89,15.06-4.65,20.06-12.35,19.3-20.41-.35-3.75-1.46-12.15-20.48-16.94-.35-12.08-.97-16.45-2.36-18.6s-3.12-2.85-4.51-2.85c-4.37-.14-6.11,5.83-6.8,11.17v.07c-.28,2.22-.56,4.86-.69,7.91-1.87-.42-3.47-.76-5.27-2.15-2.36-1.8-1.25-4.58-.21-6.04,4.51-5.07,6.32-11.59,6.39-13.67s.07-3.05-.56-4.93c-.56-1.6-1.39-2.29-2.36-2.71.42-.83.62-1.6,1.11-2.15,2.08-2.01,1.67-1.39,5.07-5.21.28-.56-.28-.76-.56-.49-1.6,1.53-3.89,2.43-4.37,2.64-1.94.76-.56-2.78-.21-5,.07-.56-.49-.49-.69-.21-.97,1.6-1.32,2.5-2.01,5.34-.56,2.08.83,2.78-.28,4.58-.9,0-1.46,0-2.5.49-2.36,1.04-10.41,7.98-8.75,16.17.76,2.57-1.74,6.59-2.22,8.68-2.57,10.55,8.75,17.77,17,19.36v.21c-.07,1.87-.14,3.33-.21,6.94-10.97,2.5-16.87,6.32-19.99,12.35-1.87,3.61-2.15,9.72,0,13.4,4.23,7.29,10.83,9.99,19.02,13.53,0,1.6-.21,7.57-.21,7.57-9.02,2.43-17,5.21-21.03,11.8-2.64,4.23-1.8,12.01.76,16.17,3.33,5.34,9.09,8.47,19.36,11.73-.07,1.67-.07,6.04-.21,7.15-6.59,2.01-10.55,5.97-11.8,10.83-2.5,10.27,4.44,15.55,11.24,18.95l-.35,16.03c-.14,2.5-.21,4.93-.14,7.15.07.76.69,2.43,4.58,3.33,3.05.69,4.79.76,8.68.62,3.75-.14,7.08-1.11,7.98-2.98.35-.69.21-1.74.28-2.57l-.35-22.56-.42-15.62c8.19-2.08,17.84-6.11,20.06-13.81,3.96-14.3-8.75-20.61-20.68-23.88ZM150.49,71.77c.14-3.26,3.12-3.61,3.33-.69.56,7.22.69,15.96.9,30.12-1.94.56-4.65.97-4.65.97,0,0,0-26.03.42-30.4ZM130.22,77.47c1.18-5.21,2.22-7.36,1.87-9.16-1.32-6.59,4.58-11.24,5.83-12.15,1.18-.83,2.64-.62,3.05.35.97,2.22.42,7.22-5.55,15.13-1.32,1.74-6.11,10.62,7.98,13.67-.07,2.43-.14,4.37-.21,6.73-8.05-1.53-14.37-8.47-12.98-14.58ZM128,120.43c0-9.37,19.09-12.29,27.69-14.09,7.43-1.53,7.29-9.79,2.64-12.08,0,0-.21-3.82-.21-6.45,7.36,1.46,13.33,4.93,15.41,9.23,2.71,5.62-.49,12.7-7.15,16.52-5.97,3.4-15.48,4.58-21.17,5.55-5.69.97-7.08,6.66-2.92,8.4,0,2.08-.21,5.14-.28,7.57-7.36-2.01-14.02-6.32-14.02-14.65ZM155.49,147.71l-5.55.97v-25.4l5.07-1.11.49,25.54ZM125.57,168.67c0-12.7,31.03-15.89,30.96-15.96,7.7-1.04,8.88-11.38,2.98-13.4,0-2.64-.21-5.9-.21-9.37,6.8,1.32,17.14,5.69,17.14,13.88,0,7.43-3.75,11.8-11.31,14.92-6.39,2.57-14.02,4.03-21.31,5.97-6.8,1.8-4.93,7.7-2.57,9.09,0,0-.14,6.11-.28,8.47-5.55-.83-15.41-3.96-15.41-13.6ZM156.11,194.14l-6.18,1.04v-26.17l5.83-1.46.35,26.58ZM149.03,245.15l.28-32.62,6.87-1.11s.42,31.86.42,33.59c0,1.46-7.7,1.94-7.57.14ZM172.21,200.66c-3.05,2.78-11.31,5.34-22.35,6.87-8.47,1.18-10.27,4.93-9.58,7.15-.07,1.6-.14,4.16-.21,5.83-2.36-1.18-6.39-4.72-6.04-8.95.9-11.31,12.91-10.83,23.39-12.77,10.48-1.74,10.62-12.91,2.5-14.78,0-2.43-.07-4.72-.07-6.94,9.3,1.87,13.12,5.21,15.34,9.02,3.26,5.41,1.53,10.48-2.98,14.58Z"/>
  </g>
</svg>