<?xml version="1.0" encoding="UTF-8"?>
<svg id="Layer_1" data-name="Layer 1" xmlns="http://www.w3.org/2000/svg" viewBox="0 0 740.81 180.88">
  <defs>
    <style>
      .cls-1 {
        fill: #fff;
      }

      .cls-2 {
        fill: #50aa00;
      }
    </style>
  </defs>
  <g>
    <rect class="cls-2" x="-.21" y="0" width="203.71" height="178.91"/>
    <polygon class="cls-1" points="58.25 85.02 98.1 85.02 98.1 67.31 91.9 67.31 91.9 27.46 98.1 27.46 98.1 8.86 58.25 8.86 58.25 27.46 63.56 27.46 63.56 38.97 45.85 38.97 45.85 27.46 50.28 27.46 50.28 8.86 9.54 8.86 9.54 27.46 14.85 27.46 14.85 67.31 9.54 67.31 9.54 85.02 50.28 85.02 50.28 67.31 45.85 67.31 45.85 54.91 63.56 54.91 63.56 67.31 58.25 67.31 58.25 85.02"/>
    <polygon class="cls-1" points="50.28 94.77 9.54 94.77 9.54 112.48 14.85 112.48 14.85 152.34 9.54 152.34 9.54 170.05 50.28 170.05 50.28 152.34 44.96 152.34 44.96 112.48 50.28 112.48 50.28 94.77"/>
    <polygon class="cls-1" points="58.25 170.05 98.1 170.05 98.1 152.34 93.67 152.34 74.19 126.65 90.13 112.48 97.22 112.48 97.22 94.77 58.25 94.77 58.25 112.48 64.45 112.48 45.85 130.19 61.79 152.34 58.25 152.34 58.25 170.05"/>
    <path class="cls-1" d="M160.1,118.68c0,1.77-.89,3.54-1.77,4.43s-2.66,1.77-4.43,1.77h-11.51v-14.17h11.51c1.77,0,3.54.89,4.43,1.77.89,2.66,1.77,3.54,1.77,6.2M190.21,152.34l-10.63-17.71c3.54-1.77,6.2-3.54,7.97-7.09,1.77-3.54,2.66-7.09,2.66-10.63,0-5.31-1.77-9.74-5.31-13.29s-7.97-6.2-13.29-7.09c-1.77,0-3.54-.89-6.2-.89s-5.31,0-7.97-.89h-50.48v17.71h6.2v39.86h-6.2v18.6h41.63v-18.6h-6.2v-12.4h8.86l16.83,31h27.46v-18.6h-5.31Z"/>
  </g>
  <g>
    <g>
      <polygon class="cls-2" points="230.95 0 238.93 0 238.93 32.77 277.01 32.77 277.01 0 284.09 0 284.09 73.51 277.01 73.51 277.01 38.97 238.93 38.97 238.93 73.51 230.95 73.51 230.95 0"/>
      <g>
        <path class="cls-2" d="M321.29,17.71c15.94,0,28.34,13.29,28.34,28.34s-12.4,28.34-28.34,28.34-28.34-13.29-28.34-28.34c0-16.83,14.17-28.34,28.34-28.34M321.29,69.08c10.63,0,21.26-7.97,21.26-23.03,0-14.17-12.4-22.14-21.26-22.14-9.74,0-21.26,7.97-21.26,23.03,0,12.4,9.74,22.14,21.26,22.14"/>
        <rect class="cls-2" x="310.67" y="0" width="7.09" height="11.51"/>
        <rect class="cls-2" x="324.84" y="0" width="7.09" height="11.51"/>
      </g>
      <path class="cls-2" d="M413.4,65.54c0,6.2,0,13.29-5.31,19.48-7.09,9.74-19.48,9.74-21.26,9.74-7.97,0-23.03-2.66-27.46-20.37h7.09c1.77,5.31,7.09,14.17,20.37,14.17,8.86,0,19.48-5.31,19.48-20.37v-4.43h0c-4.43,7.97-13.29,11.51-21.26,11.51-14.17,0-28.34-11.51-28.34-28.34,0-17.71,14.17-29.23,28.34-29.23,5.31,0,15.06,1.77,21.26,11.51h0v-9.74h7.09v46.06ZM385.06,69.08c14.17,0,21.26-13.29,21.26-22.14,0-11.51-9.74-22.14-21.26-22.14-12.4-.89-21.26,9.74-21.26,22.14,0,11.51,8.86,22.14,21.26,22.14"/>
      <path class="cls-2" d="M429.35,57.57c0,10.63,7.09,11.51,9.74,11.51,6.2,0,9.74-3.54,9.74-9.74,0-7.09-7.09-8.86-10.63-10.63-5.31-1.77-14.17-5.31-14.17-15.06,0-7.97,5.31-15.06,15.94-15.06,7.97,0,15.06,6.2,15.06,15.06h-7.09c-.89-7.09-5.31-8.86-7.97-8.86-5.31,0-7.97,4.43-7.97,7.97,0,6.2,6.2,7.97,9.74,8.86,6.2,1.77,15.94,5.31,15.94,16.83h0c0,8.86-5.31,16.83-16.83,16.83-7.09,0-16.83-5.31-16.83-16.83v-.89h5.31Z"/>
      <polygon class="cls-2" points="466.54 0 473.63 0 473.63 52.25 473.63 52.25 499.31 19.48 508.17 19.48 486.03 46.94 509.06 73.51 500.2 73.51 482.49 52.25 473.63 63.77 473.63 73.51 466.54 73.51 466.54 0"/>
      <path class="cls-2" d="M535.63,17.71c15.94,0,28.34,13.29,28.34,28.34s-12.4,28.34-28.34,28.34-28.34-13.29-28.34-28.34c0-16.83,14.17-28.34,28.34-28.34M536.51,69.08c10.63,0,21.26-7.97,21.26-23.03,0-14.17-12.4-22.14-21.26-22.14-9.74,0-21.26,7.97-21.26,23.03-.89,12.4,9.74,22.14,21.26,22.14"/>
      <rect class="cls-2" x="572.82" y="0" width="7.09" height="73.51"/>
      <path class="cls-2" d="M646.34,73.51h-7.09v-9.74h0c-6.2,8.86-15.94,10.63-21.26,10.63-16.83,0-29.23-13.29-29.23-28.34,0-14.17,11.51-28.34,29.23-28.34,6.2,0,15.06,1.77,21.26,10.63h0v-8.86h7.09v54.03ZM617.99,69.08c11.51,0,22.14-9.74,22.14-22.14,0-11.51-8.86-22.14-22.14-22.14-11.51,0-22.14,8.86-22.14,22.14,0,11.51,8.86,22.14,22.14,22.14"/>
      <path class="cls-2" d="M656.96,19.48h7.09v7.09h0c2.66-3.54,7.97-8.86,16.83-8.86,7.09,0,12.4,1.77,16.83,7.09,4.43,3.54,7.09,10.63,7.09,19.48v30.11h-7.09v-31c0-7.09-1.77-12.4-5.31-15.06-3.54-3.54-8.86-4.43-11.51-4.43s-7.97.89-11.51,4.43c-2.66,2.66-5.31,7.97-5.31,14.17v30.11h-7.09s0-53.14,0-53.14Z"/>
    </g>
    <g>
      <polygon class="cls-2" points="230.95 105.4 238.93 105.4 238.93 147.91 238.93 147.91 272.58 105.4 282.32 105.4 253.1 141.71 282.32 178.91 272.58 178.91 248.67 147.02 238.93 159.42 238.93 178.91 230.95 178.91 230.95 105.4"/>
      <path class="cls-2" d="M288.52,124.88h7.09v7.97h0c3.54-7.97,9.74-8.86,15.06-8.86v7.09c-5.31,0-8.86,1.77-11.51,5.31-2.66,2.66-3.54,7.09-3.54,11.51v31.88h-7.09v-54.91Z"/>
      <path class="cls-2" d="M318.64,105.4h7.09v12.4h-7.09v-12.4ZM318.64,124.88h7.09v54.03h-7.09v-54.03Z"/>
      <path class="cls-2" d="M340.78,162.96c0,10.63,7.09,11.51,9.74,11.51,6.2,0,9.74-3.54,9.74-9.74,0-7.09-7.09-8.86-10.63-10.63-5.31-1.77-14.17-5.31-14.17-15.06,0-7.97,5.31-15.06,15.94-15.06,7.97,0,15.06,6.2,15.06,15.06h-7.09c-.89-7.09-5.31-8.86-7.97-8.86-5.31,0-7.97,4.43-7.97,7.97,0,6.2,6.2,7.97,9.74,8.86,6.2,1.77,15.94,5.31,15.94,16.83h0c0,8.86-5.31,16.83-16.83,16.83-7.09,0-16.83-5.31-16.83-16.83v-.89s5.31,0,5.31,0Z"/>
      <polygon class="cls-2" points="381.52 131.08 370.01 131.08 370.01 124.88 381.52 124.88 381.52 105.4 388.6 105.4 388.6 124.88 401.89 124.88 401.89 131.08 388.6 131.08 388.6 178.91 381.52 178.91 381.52 131.08"/>
      <path class="cls-2" d="M408.97,105.4h7.09v12.4h-7.09v-12.4ZM408.97,124.88h7.09v54.03h-7.09v-54.03Z"/>
      <path class="cls-2" d="M482.49,178.91h-7.09v-9.74h0c-6.2,8.86-15.94,10.63-21.26,10.63-16.83,0-29.23-13.29-29.23-28.34,0-14.17,11.51-28.34,29.23-28.34,6.2,0,15.06,1.77,21.26,10.63h0v-9.74h7.09v54.91ZM454.14,174.48c11.51,0,22.14-9.74,22.14-22.14,0-11.51-8.86-22.14-22.14-22.14-11.51,0-22.14,8.86-22.14,22.14,0,12.4,8.86,22.14,22.14,22.14"/>
      <path class="cls-2" d="M492.23,124.88h7.09v7.09h0c1.77-3.54,7.09-7.97,16.83-7.97,7.09,0,12.4,1.77,16.83,7.09,4.43,3.54,7.09,10.63,7.09,19.48v30.11h-7.09v-30.11c0-7.09-2.66-12.4-5.31-15.06-3.54-3.54-8.86-4.43-11.51-4.43-3.54,0-7.97.89-11.51,4.43-2.66,2.66-5.31,7.97-5.31,14.17v30.11h-7.09s0-54.91,0-54.91Z"/>
      <path class="cls-2" d="M556,162.96c0,10.63,7.09,11.51,9.74,11.51,6.2,0,9.74-3.54,9.74-9.74,0-7.09-7.09-8.86-10.63-10.63-5.31-1.77-14.17-5.31-14.17-15.06,0-7.97,5.31-15.06,15.94-15.06,7.97,0,15.06,6.2,15.06,15.06h-7.09c-.89-7.09-5.31-8.86-7.97-8.86-5.31,0-7.97,4.43-7.97,7.97,0,6.2,6.2,7.97,9.74,8.86,6.2,1.77,15.94,5.31,15.94,16.83h0c0,8.86-5.31,16.83-16.83,16.83-7.09,0-16.83-5.31-16.83-16.83v-.89s5.31,0,5.31,0Z"/>
      <polygon class="cls-2" points="596.74 131.08 585.22 131.08 585.22 124.88 596.74 124.88 596.74 105.4 603.82 105.4 603.82 124.88 617.11 124.88 617.11 131.08 603.82 131.08 603.82 178.91 596.74 178.91 596.74 131.08"/>
      <path class="cls-2" d="M675.56,178.91h-7.09v-9.74h0c-6.2,8.86-15.94,10.63-21.26,10.63-16.83,0-29.23-13.29-29.23-28.34,0-14.17,11.51-28.34,29.23-28.34,6.2,0,15.06,1.77,21.26,10.63h0v-9.74h7.09v54.91ZM647.22,174.48c11.51,0,22.14-9.74,22.14-22.14,0-11.51-8.86-22.14-22.14-22.14-11.51,0-22.14,8.86-22.14,22.14-.89,12.4,7.97,22.14,22.14,22.14"/>
      <path class="cls-2" d="M740.22,178.91h-7.09v-9.74h0c-6.2,8.86-15.06,10.63-21.26,10.63-16.83,0-29.23-13.29-29.23-28.34,0-14.17,11.51-28.34,29.23-28.34,6.2,0,15.06,1.77,21.26,10.63h0v-28.34h7.09v73.51ZM711.88,174.48c11.51,0,22.14-9.74,22.14-22.14,0-11.51-8.86-22.14-22.14-22.14-11.51,0-22.14,8.86-22.14,22.14,0,12.4,8.86,22.14,22.14,22.14"/>
    </g>
  </g>
</svg>