<?xml version="1.0" encoding="UTF-8"?>
<svg id="Layer_1" data-name="Layer 1" xmlns="http://www.w3.org/2000/svg" viewBox="0 0 740.81 363.52">
  <defs>
    <style>
      .cls-1 {
        fill: #000061;
        fill-rule: evenodd;
      }

      .cls-2 {
        fill: #000061;
      }
    </style>
  </defs>
  <g>
    <path class="cls-1" d="M377.52,112.07c0-3.51.35-9.83-3.86-11.23v-.35h16.14v.35c-4.56,1.4-3.86,7.72-3.86,11.23v31.59c0,3.86-.7,9.83,3.86,11.58h-16.14c4.21-1.76,3.86-7.72,3.86-11.58v-31.59ZM397.88,112.42c2.8-3.86,7.72-9.13,2.1-11.58v-.35h15.09l-19.3,24.57,16.85,22.11c2.8,3.51,5.96,5.96,10.17,8.07h-7.72c-4.21,0-8.07-1.4-9.47-3.51l-18.6-24.92,10.88-14.39ZM450.88,151.03c-2.8,3.86-8.08,5.26-12.64,5.26-4.21,0-8.42-1.4-11.58-4.21-3.16-3.86-3.16-8.07-3.16-12.64v-17.2c0-2.81.35-7.37-2.81-8.78h12.29c-3.16,1.4-2.8,5.96-2.8,8.78v17.2c0,8.43,3.51,12.29,10.18,12.29,3.5,0,7.01-1.4,9.12-4.56,1.41-1.76,1.41-3.51,1.41-5.61v-19.31c0-2.81.35-7.37-2.8-8.78h12.28c-3.16,1.4-2.8,5.96-2.8,8.78v24.22c0,2.81-.35,7.37,2.8,8.78h-9.47v-4.21h0ZM471.58,147.17c0,3.51,0,5.96,3.16,8.07h-11.23c3.5-2.1,3.5-4.56,3.5-8.07v-25.62c0-3.51,0-5.96-3.5-8.07h9.47c.35.7.35,1.05,1.05,1.4l.7,1.41,23.52,29.48v-24.22c0-3.51,0-5.96-3.51-8.07h11.23c-3.16,2.1-3.16,4.56-3.16,8.07v35.8c-4.56-1.4-6.67-3.51-9.47-7.37l-21.77-27.73v24.92h0ZM543.54,120.84c-2.8-3.16-7.72-3.86-11.58-3.86-9.83,0-17.55,6.32-17.55,16.85s8.42,17.9,18.25,17.9c3.08.02,6.14-.34,9.13-1.05v-9.13c0-3.16,0-6.32-3.16-7.37v-.35h9.83v.35c-.35.7-.35,1.76-.35,2.81v14.74c0,.7,0,1.75.35,2.81-4.92,1.05-10.18,1.75-15.09,1.75-16.51,0-25.98-8.78-25.98-21.76,0-13.69,10.88-22.11,26.33-22.11,3.16,0,6.67.35,9.82,1.05v7.37ZM568.81,150.68c4.22.35,8.08-1.05,11.23-3.86h.35l-3.51,8.42h-26.32c3.51-1.05,3.16-5.96,3.16-8.78v-24.22c0-2.81.35-7.37-3.16-8.78h12.29c-3.16,1.4-2.81,5.96-2.81,8.78v28.08l8.77.35ZM395.77,218.78c0,4.92,0,8.08,4.21,10.88h-16.5c4.21-1.75,3.86-7.72,3.86-11.58v-37.21h-7.37c-3.51,0-7.37,1.05-9.83,3.51h-.35l2.81-10.18h.35c1.05.7,2.11.7,3.16.7h33c1.75,0,2.8,0,3.86-.7h.35l-2.46,10.18h-.35c-1.05-3.16-4.56-3.51-7.37-3.51h-7.37v37.91h0ZM422.79,224.39l8.08.7c4.21.35,8.43-1.05,11.93-3.86l-2.8,8.42h-26.68c3.16-1.05,2.8-5.96,2.8-8.78v-24.22c0-2.8.35-7.37-2.8-8.78h20.36c1.05,0,2.1,0,3.16-.35v7.38c-2.1-2.46-4.56-2.46-7.72-2.46-2.1,0-4.22,0-6.32.35v11.94h7.38c1.05,0,2.1,0,2.8-.35h.35v6.67h-.35c-1.05-1.75-3.51-1.75-5.61-1.75h-4.56v15.09ZM447.72,196.66c0-2.8.7-7.37-2.81-8.78h12.29c-3.16,1.05-2.8,5.97-2.8,8.78v24.22c0,2.81-.35,7.38,2.8,8.78h-12.29c3.51-1.4,2.81-5.96,2.81-8.78v-24.22ZM463.52,196.66c2.1-2.8,5.96-6.67,1.75-8.78h11.59l-14.74,18.6,12.99,17.2c1.76,2.45,4.21,4.21,7.37,5.96h-5.96c-3.16,0-5.97-1.05-7.02-2.8l-14.39-18.96,8.42-11.23ZM490.89,221.58c0,3.51,0,5.97,3.51,8.08h-11.23c3.16-2.1,3.16-4.56,3.16-8.08v-25.62c0-3.51,0-5.97-3.16-8.08h9.13c.35.7.7,1.05,1.05,1.41l1.05,1.4,23.17,29.49v-24.22c0-3.51,0-5.97-3.16-8.08h11.23c-3.5,2.1-3.5,4.56-3.5,8.08v35.8c-4.56-1.4-6.32-3.5-9.13-7.37l-22.11-27.73v24.92h0ZM531.96,196.66c0-2.8.7-7.37-2.81-8.78h12.29c-3.16,1.41-2.8,5.97-2.8,8.78v24.22c0,2.81-.35,7.38,2.8,8.78h-12.29c3.16-1.05,2.81-5.96,2.81-8.78v-24.22ZM570.92,195.25c-2.46-2.46-6.67-3.86-10.18-3.86s-8.08,1.4-8.08,5.62c0,8.78,21.76,8.78,21.76,20.7,0,6.67-7.01,12.99-16.84,12.99-3.87,0-8.08-.35-11.59-1.75l-1.75-8.08c3.51,3.16,8.77,5.26,14.04,5.26,3.51,0,9.13-2.1,9.13-6.67,0-9.83-22.11-8.07-22.11-21.76,0-8.08,8.42-10.88,16.14-10.88,3.16,0,6.31.35,9.48,1.41v7.01h0ZM579.35,196.66c0-2.8.35-7.37-2.8-8.78h12.28c-3.16,1.05-2.8,5.97-2.8,8.78v24.22c0,2.81-.35,7.38,2.8,8.78h-12.28c3.16-1.4,2.8-5.96,2.8-8.78v-24.22ZM595.14,196.66c2.1-2.8,5.96-6.67,1.75-8.78h11.59l-14.74,18.6,12.99,17.2c1.76,2.45,4.21,4.21,7.38,5.96h-5.97c-3.16,0-5.97-1.05-7.02-2.8l-14.39-18.96,8.42-11.23ZM595.14,196.66"/>
    <path class="cls-1" d="M620.41,213.86l-3.51,9.13c-1.41,3.51-1.75,5.61,1.41,6.67h-11.93c3.86-1.75,4.91-5.61,6.31-9.13l10.53-26.67c1.05-2.11,2.1-4.92-.7-5.97h9.82l13.34,32.64c1.41,3.51,2.81,7.38,6.31,9.13h-12.99c3.16-1.4,2.46-2.1.7-6.67l-3.5-9.13h-15.79ZM628.14,193.15l-6.31,16.15h12.63l-6.32-16.15ZM385.24,276.34v15.09c0,3.87-.35,9.83,3.86,11.23v.35h-15.79v-.35c4.21-1.4,3.51-7.37,3.51-11.23v-31.59c0-3.86.7-9.83-3.51-11.23v-.35h15.79v.35c-4.21,1.41-3.86,7.37-3.86,11.23v10.53h30.19v-10.53c0-3.86.7-9.83-3.51-11.23v-.35h15.8v.35c-4.21,1.41-3.51,7.37-3.51,11.23v31.59c0,3.87-.7,9.83,3.51,11.23v.35h-15.8v-.35c4.21-1.4,3.51-7.37,3.51-11.23v-15.09h-30.19ZM385.24,276.34"/>
    <path class="cls-1" d="M474.05,281.6c0,12.99-10.88,22.47-23.52,22.47s-23.17-9.13-23.17-22.11c0-12.29,10.53-22.47,23.87-22.11,13.34,0,22.81,10.18,22.81,21.76h0ZM434.73,281.26c0,9.12,6.32,18.25,16.14,18.25s15.8-7.02,15.8-16.5-5.61-18.6-15.8-18.6c-9.83,0-16.14,7.37-16.14,16.85h0ZM444.91,257.03c-2.12-.02-3.84-1.74-3.86-3.86,0-2.46,1.75-3.86,3.86-3.86s3.86,1.76,3.86,3.86c0,2.46-1.76,3.86-3.86,3.86h0ZM456.49,257.03c-2.12-.02-3.84-1.73-3.87-3.86,0-2.46,1.76-3.86,4.22-3.86,2.1,0,3.5,1.76,3.5,3.86,0,2.46-1.4,3.86-3.86,3.86h0ZM512.65,268.27c-2.8-2.8-7.37-3.5-11.58-3.5-9.82,0-17.55,6.31-17.55,16.5s8.42,18.25,18.25,18.25c3.16,0,6.31-.36,9.13-1.41v-9.12c0-2.81,0-5.97-3.16-7.02v-.35h9.83v.35c-.35.7-.35,1.75-.35,2.81v14.38c0,1.06,0,2.11.35,3.17-4.92.7-10.18,1.75-15.1,1.75-16.5,0-25.97-8.78-25.97-21.76,0-13.69,10.88-22.47,26.32-22.47,3.16,0,6.67.7,9.83,1.41v7.01ZM545.65,268.62c-2.45-2.46-6.31-3.86-9.83-3.86s-8.42,1.4-8.42,5.61c0,8.78,22.11,8.78,22.11,20.36,0,7.02-7.02,13.34-17.2,13.34-3.86,0-7.72-.7-11.23-1.75l-2.11-8.08c3.86,3.16,9.13,5.27,14.04,5.27,3.86,0,9.13-2.1,9.13-6.67,0-9.83-21.77-8.07-21.77-21.76,0-8.08,8.08-11.23,15.8-11.23,3.16,0,6.67.7,9.47,1.41v7.37h0ZM554.77,270.02c0-2.81.35-7.72-2.8-8.78v-.35h12.29v.35c-3.51,1.05-2.81,5.96-2.81,8.78v23.87c0,3.16-.7,7.72,2.81,9.13h-12.29c3.16-1.41,2.8-5.97,2.8-9.13v-23.87ZM570.57,270.02c2.1-2.81,5.97-7.02,1.41-8.78v-.35h11.58v.35l-14.74,18.6,12.99,16.85c2.1,2.8,4.56,4.56,7.72,6.32h-5.97c-3.16,0-5.96-1.05-7.37-2.8l-14.04-18.95,8.42-11.23ZM570.57,270.02"/>
    <path class="cls-1" d="M630.59,281.6c0,12.99-10.88,22.47-23.52,22.47s-23.17-9.13-23.17-22.11c0-12.29,10.53-22.47,23.87-22.11,13.34,0,22.82,10.18,22.82,21.76h0ZM591.28,281.26c0,9.12,6.32,18.25,16.15,18.25s15.79-7.02,15.79-16.5-5.61-18.6-15.79-18.6c-9.84,0-16.15,7.37-16.15,16.85h0ZM649.2,298.45c4.21.35,8.08-1.05,11.23-3.86h.35l-3.5,8.42h-26.33c3.51-1.41,3.17-5.97,3.17-8.78v-24.22c0-2.81.35-7.72-3.17-8.78v-.35h12.29v.35c-3.16,1.05-2.8,5.96-2.8,8.78v27.73l8.77.7ZM649.2,298.45"/>
    <path class="cls-1" d="M666.05,287.22l-3.16,9.13c-1.41,3.51-1.76,5.27,1.05,6.67h-11.59c3.51-2.1,4.92-5.61,6.32-9.13l10.53-26.68c.7-2.45,2.1-4.91-1.05-5.96v-.35h10.18l13.33,32.99c1.41,3.51,2.46,7.02,6.32,9.13h-13.34c3.16-1.41,2.8-2.1,1.05-6.67l-3.51-9.13h-16.14ZM674.12,266.51l-6.31,16.14h12.64l-6.33-16.14ZM674.12,266.51"/>
    <path class="cls-1" d="M705.36,294.6c0,3.86-.35,6.31,3.16,8.42h-11.23c3.51-2.1,3.51-4.56,3.51-8.42v-25.28c0-3.5,0-6.32-3.51-8.07v-.35h9.48v.35c0,.7.35,1.05.7,1.4l1.05,1.41,23.52,29.48v-24.22c0-3.5,0-6.31-3.51-8.07v-.35h11.23v.35c-3.16,1.75-3.16,4.56-3.16,8.07v35.8c-4.57-1.41-6.67-3.51-9.47-7.37l-21.77-27.73v24.57h0Z"/>
  </g>
  <g>
    <path class="cls-2" d="M169.97,348.76c3.48-3.92,7.18-8.13,9.79-10.74,5.15-5.15,10.45-5.08,10.45-5.08,0,0-6.09-2.97-12.48,3.41-1.74,1.74-5.59,6.09-9.5,10.52-1.45-1.6-2.83-3.19-4.14-4.64,1.45-1.6,2.83-3.05,3.92-4.21,5.15-5.15,10.45-5.08,10.45-5.08,0,0-6.09-2.97-12.48,3.41-.8.8-2.1,2.25-3.63,3.92-1.52-1.74-2.83-3.12-3.63-3.92-6.38-6.38-12.48-3.41-12.48-3.41,0,0,5.3-.07,10.45,5.08,1.16,1.16,2.47,2.61,3.92,4.21-1.31,1.45-2.76,3.05-4.14,4.64-3.92-4.43-7.84-8.78-9.5-10.52-6.38-6.38-12.48-3.41-12.48-3.41,0,0,5.3-.07,10.45,5.08,2.61,2.61,6.31,6.82,9.79,10.74-3.26,3.7-6.46,7.18-8.2,8.92-4.28,4.28-9.29,4.64-9.29,4.64,0,0,5.37,3.12,12.7-4.35,1.38-1.38,3.77-4.14,6.53-7.26,1.52,1.67,2.9,3.26,4.06,4.57-.87.94-1.67,1.81-2.25,2.39-4.28,4.28-9.29,4.64-9.29,4.64,0,0,5.37,3.12,12.7-4.35.22-.22.44-.44.65-.65.22.22.44.51.65.65,7.33,7.47,12.7,4.35,12.7,4.35,0,0-5.01-.36-9.29-4.64-.58-.58-1.38-1.45-2.25-2.39,1.16-1.31,2.61-2.9,4.06-4.57,2.76,3.12,5.15,5.88,6.53,7.26,7.33,7.47,12.7,4.35,12.7,4.35,0,0-5.01-.36-9.29-4.64-1.81-1.74-4.93-5.22-8.2-8.92h0ZM162.35,353.41c-1.31-1.38-2.68-2.97-4.14-4.57,1.38-1.52,2.76-3.12,4.14-4.64,1.38,1.52,2.76,3.12,4.14,4.64-1.45,1.6-2.83,3.12-4.14,4.57Z"/>
    <path class="cls-2" d="M27.98,127.7c.8,2.54,3.12,4.06,6.02,4.06.87,0,1.74-.15,2.54-.44.07.15.22.36.36.58.44.58.94,1.09,1.52,1.52.22.15.36.22.58.22.36,0,.65-.15.87-.44.36-.51.22-1.16-.29-1.52-.36-.29-.73-.58-1.02-1.02-.07-.07-.15-.15-.15-.22,1.16-.73,2.1-1.6,2.68-2.68.73-1.38.87-2.9.44-4.35-.44-1.38-1.6-1.81-2.18-1.89-.07,0-.15,0-.22.07-.07-.36-.15-.73-.29-1.09-1.09-3.34-4.06-6.02-6.38-5.8-.29-.22-.73-.51-1.31-.29-.58.15-.8.65-.87,1.02-.58.29-1.09.87-1.45,1.6-.94,1.89-1.16,4.5-.44,6.82.15.36.22.65.36,1.02-.07,0-.15.07-.22.07-.36.36-1.02,1.38-.58,2.76h0ZM39.66,124.58c.15.73,0,1.45-.36,2.18-.58,1.16-1.81,2.1-3.34,2.54-.65.22-1.31.29-1.96.29-1.74,0-3.12-.8-3.77-2.1.73.15,1.45.22,1.89.22,1.09,0,2.18-.15,3.26-.51,1.74-.51,3.34-1.52,4.28-2.61h0ZM30.81,118.05c.29-.51.51-.73.73-.8s.36-.15.51-.29c.15.07.36,0,.58-.07.87-.29,3.34,1.52,4.21,4.28.29.87.36,1.81.36,2.76-.58.44-1.45.94-2.54,1.31-.87.29-1.74.44-2.61.44h-.22c-.51-.73-.94-1.52-1.23-2.39-.65-2.1-.36-4.14.22-5.22h0Z"/>
    <path class="cls-2" d="M52.94,145.69c1.45,0,2.25-1.02,2.39-1.6v-.22c.29,0,.58.07.87.07h.22c2.39-.07,4.86-1.09,6.31-2.61.58-.58.94-1.31,1.09-1.89.29-.22.65-.51.65-1.09s-.36-.94-.73-1.16c-.58-2.25-3.99-4.28-7.55-4.21-.36,0-.73.07-1.09.07v-.22c-.22-.58-.94-1.45-2.47-1.45h0c-1.74.07-3.34.87-4.43,2.25-.58.8-1.02,1.81-1.31,2.83-.07,0-.15-.07-.22-.07-.51-.15-.87-.36-1.31-.65-.51-.36-1.16-.29-1.52.22s-.22,1.16.22,1.52c.58.44,1.23.73,1.89,1.02.29.07.51.15.65.22.15,4.06,2.68,6.97,6.09,6.97h.22ZM56.28,135.17c2.83-.07,5.37,1.74,5.44,2.61,0,.22.07.44.15.58-.07.15-.15.36-.15.58,0,.15-.15.51-.51.94-.87.87-2.68,1.89-4.79,1.89-.94,0-1.89-.15-2.68-.36-.29-.73-.51-1.67-.51-2.83s.15-2.1.36-2.83c.87-.36,1.74-.58,2.68-.58h0ZM48.87,138.58c-.07-1.38.36-2.68,1.09-3.63.44-.58,1.16-1.16,2.25-1.38-.73,1.23-1.16,3.12-1.09,4.93s.58,3.7,1.38,4.93c-2.1-.22-3.56-2.18-3.63-4.86Z"/>
    <path class="cls-2" d="M41.26,198.15c.22-.8.22-1.6,0-2.18.15-.29.29-.8,0-1.31-.29-.51-.8-.58-1.16-.65-1.6-1.67-5.66-1.67-8.63.15-.29.22-.58.36-.87.58-.07-.07-.07-.15-.15-.15-.07-.07-.65-.44-1.45-.44-.51,0-.94.15-1.45.44-1.52.94-2.47,2.39-2.76,4.21-.15,1.02,0,2.1.29,3.12-.07,0-.15,0-.22.07-.51.07-.94.15-1.45.07-.58-.07-1.16.36-1.23.94s.36,1.16.94,1.16c.22,0,.51.07.73.07.44,0,.94-.07,1.38-.15.29-.07.51-.15.65-.15,1.45,2.32,3.63,3.77,5.95,3.77,1.02,0,2.03-.29,2.9-.8,1.23-.73,1.45-1.96,1.31-2.54,0-.07-.07-.15-.07-.22.29-.15.65-.36.94-.51,2.18-1.38,3.85-3.48,4.35-5.51h0ZM32.55,195.97c2.47-1.45,5.51-1.16,5.95-.44.15.22.29.36.44.44,0,.15.07.36.15.58.07.15.15.51,0,1.09-.29,1.16-1.45,2.97-3.19,4.06-.8.51-1.67.8-2.54,1.02-.58-.51-1.31-1.23-1.89-2.18-.58-1.02-.87-1.89-1.09-2.68.65-.8,1.38-1.38,2.18-1.89h0ZM27.83,202.64c-.73-1.23-1.02-2.54-.87-3.7.07-.73.36-1.6,1.23-2.32,0,1.45.51,3.26,1.45,4.86s2.32,2.9,3.63,3.56c-1.81.87-4.14-.15-5.44-2.39h0Z"/>
    <path class="cls-2" d="M3.38,200.39c.29.29.58.51.8.73l-.15.15c-.22.58-.29,1.81.73,2.83,1.09,1.02,2.39,1.52,3.92,1.52h0c1.89,0,3.92-.94,5.44-2.54.15.07.36.22.65.29.65.29,1.38.51,2.1.58h.07c.58,0,1.02-.44,1.09-1.02s-.36-1.09-1.02-1.16c-.51-.07-.94-.15-1.38-.36-.07-.07-.15-.07-.22-.07.65-1.16,1.02-2.47.94-3.63-.07-1.52-.65-2.9-1.81-3.99-.65-.65-1.38-.8-1.81-.8-.51,0-.87.15-1.02.22-.07,0-.15.07-.15.15-.22-.29-.51-.58-.73-.8-2.54-2.39-6.46-3.26-8.42-1.96-.36-.07-.87-.07-1.31.36-.36.44-.36.94-.29,1.31-.36.58-.51,1.31-.44,2.18.07,1.96,1.23,4.35,2.97,6.02h0ZM14.27,197.71c.07,1.31-.58,2.68-1.67,3.85-1.09,1.16-2.54,1.89-3.85,1.89h0c-.73,0-1.38-.22-1.96-.65,1.38-.36,2.97-1.38,4.28-2.76s2.18-3.05,2.47-4.43c.44.58.65,1.31.73,2.1h0ZM2.88,193.14c.15-.15.22-.36.29-.51.15-.07.36-.15.51-.29.58-.65,3.7-.29,5.8,1.67.73.65,1.23,1.38,1.67,2.18-.29.73-.8,1.52-1.6,2.39-.8.8-1.6,1.38-2.32,1.74-.8-.36-1.52-.87-2.25-1.52-1.52-1.45-2.25-3.41-2.25-4.64-.15-.51,0-.87.15-1.02h0Z"/>
    <path class="cls-2" d="M50.54,258.87c-.22-.8-.58-1.45-1.09-1.89,0-.36-.15-.87-.58-1.09-.51-.29-1.02-.15-1.31,0-2.18-.73-5.73,1.23-7.47,4.28-.15.29-.36.65-.51.94-.07,0-.15-.07-.22-.07h-.29c-.94,0-1.74.51-2.25,1.38-1.45,2.47-.73,5.44,1.45,7.55-.07.07-.15.07-.22.15-.36.36-.8.58-1.23.73-.58.22-.8.87-.58,1.45.15.44.58.65,1.02.65.15,0,.29,0,.44-.07.65-.29,1.31-.65,1.81-1.16.22-.15.36-.36.51-.44,1.31.73,2.68,1.16,4.06,1.16,2.25,0,4.06-1.09,5.15-2.9.73-1.31.29-2.39-.07-2.9-.07-.07-.15-.07-.15-.15.22-.29.44-.58.58-.94,1.09-2.03,1.45-4.64.94-6.67h0ZM41.91,261.27c1.45-2.47,4.28-3.7,5.01-3.26.22.15.36.15.58.15.07.15.22.29.44.36.15.07.36.36.51.94.29,1.16.22,3.26-.87,5.08-.51.8-1.02,1.52-1.67,2.03-.8-.15-1.74-.44-2.76-1.02-1.02-.58-1.74-1.23-2.18-1.81.15-.8.44-1.67.94-2.47h0ZM40.97,269.39c-1.96-1.16-3.41-3.34-2.54-5.44.65,1.23,2.03,2.61,3.63,3.56s3.48,1.45,4.86,1.38c-1.16,1.6-3.7,1.74-5.95.51h0Z"/>
    <path class="cls-2" d="M32.48,274.04c-.22-.58-.87-.8-1.45-.58-.44.22-.87.29-1.38.36h-.22c0-1.09-.15-2.18-.58-3.05-.73-1.6-2.1-2.76-3.85-3.19-1.23-.29-2.32.36-2.76.87-.07.07-.07.15-.07.22-.36-.15-.73-.22-1.02-.29-3.41-.87-7.18.29-8.27,2.39-.36.15-.8.36-.94.94-.15.58.15.94.36,1.23,0,.65.22,1.38.65,2.1,1.09,1.81,3.26,3.34,5.59,3.92.36.07.73.15,1.09.22v.22c.07.58.58,1.74,2.03,2.1.44.15.94.15,1.38.15h0c2.9,0,5.37-2.25,6.24-5.59h0c.22,0,.44,0,.65-.07.73-.07,1.45-.22,2.1-.51.44-.22.65-.87.44-1.45h0ZM14.77,273.96c-.29-.51-.36-.87-.29-1.02.07-.22.07-.44,0-.58.15-.15.22-.29.29-.51.22-.87,3.05-2.03,5.88-1.38.94.22,1.81.65,2.54,1.16.07.73,0,1.74-.22,2.83-.29,1.09-.73,2.03-1.16,2.61-.87.07-1.81,0-2.76-.22-2.1-.51-3.7-1.81-4.28-2.9h0ZM27.04,275.49c-.58,2.39-2.25,3.99-4.14,3.99h-.36c1.09-1.02,1.96-2.83,2.39-4.5.44-1.81.44-3.7,0-5.08,1.02.44,1.6,1.23,1.89,1.81.51,1.09.58,2.39.22,3.77h0Z"/>
    <path class="cls-2" d="M85.15,321.92h.07c3.99,0,7.04-2.61,7.11-6.02,0-1.45-.94-2.25-1.52-2.47h-.22c.07-.36.07-.73.07-1.09,0-2.39-.87-4.86-2.39-6.38-.58-.58-1.23-1.02-1.89-1.16-.15-.29-.51-.73-1.09-.73s-.94.36-1.16.65c-2.25.44-4.43,3.92-4.43,7.4,0,.36,0,.73.07,1.09h-.22c-.58.22-1.52.94-1.52,2.47,0,1.74.73,3.34,2.1,4.5.8.65,1.74,1.09,2.83,1.38,0,.07-.07.15-.07.22-.15.51-.44.87-.73,1.23-.36.44-.29,1.16.15,1.52.22.15.44.22.65.22.29,0,.65-.15.87-.44.44-.58.8-1.16,1.02-1.89.15-.15.22-.36.29-.51h0ZM84.72,306.9h0c.22,0,.44-.07.58-.15.15.07.36.15.58.15.15,0,.51.15.87.58.87.87,1.74,2.76,1.74,4.86,0,.94-.22,1.89-.51,2.68-.73.22-1.67.44-2.83.44h0c-1.16,0-2.1-.22-2.83-.51-.29-.8-.51-1.74-.44-2.76.07-2.9,1.96-5.3,2.83-5.3h0ZM80.22,316.26c1.23.8,3.05,1.31,5.08,1.31,1.81,0,3.63-.44,4.79-1.16-.36,2.18-2.61,3.34-4.86,3.34h-.07c-1.38,0-2.68-.44-3.56-1.16-.65-.51-1.23-1.23-1.38-2.32Z"/>
    <path class="cls-2" d="M78.77,329.03c-.29.36-.65.73-1.02,1.02-.07.07-.15.07-.22.15-1.23-2.18-3.19-3.48-5.44-3.48-.51,0-1.02.07-1.52.22-1.38.36-1.89,1.52-1.96,2.1v.22c-.36.07-.73.15-1.09.22-3.41.94-6.17,3.85-6.09,6.17-.22.29-.51.73-.36,1.31s.58.8.94.87c.29.58.87,1.09,1.6,1.52,1.16.65,2.68,1.02,4.21,1.02.87,0,1.74-.15,2.54-.36.36-.07.73-.22,1.02-.36,0,.07.07.15.07.15.29.44,1.02.94,1.96.94.22,0,.51,0,.8-.07,1.52-.36,2.68-1.31,3.41-2.68.94-1.6,1.16-3.7.58-5.8.15-.07.36-.22.58-.36.58-.44,1.16-.87,1.6-1.45.36-.51.29-1.16-.22-1.52-.29-.36-1.02-.29-1.38.22ZM69.92,337.88c-2.03.58-4.06.15-5.15-.51-.51-.29-.73-.58-.8-.73-.07-.22-.15-.36-.29-.51.07-.15.07-.36,0-.58-.22-.87,1.67-3.26,4.43-4.06.94-.29,1.89-.36,2.76-.29.44.65.87,1.52,1.16,2.61s.36,2.1.29,2.83c-.65.58-1.45.94-2.39,1.23h0ZM75.94,336.87c-.36.65-.94,1.16-1.6,1.45.44-1.38.36-3.26-.07-5.08-.44-1.67-1.38-3.41-2.47-4.43,2.03-.22,3.92,1.38,4.57,3.85.29,1.6.22,3.12-.44,4.21h0Z"/>
    <path class="cls-2" d="M144.28,351.01c.73,0,1.38-.07,1.6-.58,0-.07.07-.15,0-.22v-.15c.07-.51.07-1.09-7.11-2.39.07-2.61-.07-7.91-3.26-9.94-.65-.44-1.31-.65-1.96-.65-1.81,0-2.76,1.52-3.41,2.54-.07.15-.22.36-.36.58-.29-.22-.44-.87-.73-2.76l-.15-1.23c-.29-2.03-.94-6.17-5.15-7.4-.51-.15-1.02-.22-1.52-.22-3.05,0-3.92,2.9-4.43,4.64-.22.65-.51,1.67-.8,1.81-.58-.44-.51-3.26-.51-4.43v-.87c0-5.66-2.68-8.92-7.26-8.92-.44,0-.94,0-1.38.07-1.38.15-2.39.65-3.19,1.52-1.38,1.74-1.09,4.28-.8,6.46.07.73.22,1.89.15,2.39-.15.07-.29.07-.44.07-.73,0-1.6-.8-2.47-2.54-1.74-3.05-4.43-4.79-7.4-4.79s-5.73,1.67-7.69,4.64-2.25,6.38-.8,9.14c1.45,2.76,4.43,4.35,7.98,4.35h1.74c2.18,0,2.97.58,3.41,1.52-.44.36-1.38.8-2.03,1.09-2.03.94-4.28,2.03-4.86,4.21-.29,1.23,0,2.54.94,3.92,2.61,3.41,5.59,4.06,7.55,4.06,2.39,0,4.86-1.02,6.89-2.9.29-.29.58-.51.8-.8,1.16-1.09,2.76-2.54,3.63-2.54.07,0,.29,0,.44.15.07.29-.29,1.16-.51,1.67-.58,1.38-1.31,3.12-.51,4.79.51,1.16,1.6,1.96,3.19,2.54.94.36,1.96.51,2.83.51,3.48,0,5.66-2.32,6.67-3.48l.15-.15c.36-.36.65-.73.94-1.09,1.02-1.16,1.6-1.74,2.18-1.74h0c.07.22.07.44.15.65.22,1.31.58,4.43,4.43,4.06,3.05-.36,5.51-3.05,7.18-8.05,2.68.22,4.64.44,5.88.44h0ZM130.79,355.29h-.58c-.15-.15-.29-.87-.29-1.31-.15-1.09-.44-2.9-2.25-3.34-.36-.07-.73-.15-1.09-.15-2.1,0-3.34,1.38-4.57,2.83-.29.29-.58.65-.87,1.02l-.22.22c-.87.94-2.25,2.47-4.28,2.47-.58,0-1.16-.15-1.81-.36-.73-.22-1.16-.58-1.31-.8-.22-.44.22-1.45.58-2.25.58-1.45,1.6-3.85-.51-5.44-.73-.58-1.52-.8-2.39-.8-2.18,0-4.06,1.74-5.88,3.48-.29.29-.51.51-.8.73-1.45,1.31-3.12,2.03-4.72,2.03-1.81,0-3.56-1.02-4.93-2.76-.22-.29-.58-.87-.44-1.16.22-.73,1.96-1.6,3.12-2.1,2.03-.94,4.79-2.25,3.77-4.93-1.45-3.92-5.3-3.92-6.6-3.92h-1.09c-2.68.22-4.79-.8-5.73-2.61-.87-1.67-.65-3.85.58-5.8,1.38-2.03,3.19-3.19,5.01-3.19s3.41,1.09,4.57,3.12c1.02,1.81,2.61,4.21,5.37,4.21.65,0,1.31-.15,1.96-.44,2.18-.87,1.81-3.41,1.6-5.66-.15-1.45-.44-3.34.15-3.99.07-.07.22-.29,1.02-.36.36-.07.73-.07,1.02-.07,1.09,0,3.99,0,4.06,5.73v.87c0,2.47,0,5.22,1.45,6.75.73.73,1.67,1.02,2.68.94,2.39-.22,3.05-2.47,3.56-4.14.73-2.47,1.02-2.47,1.96-2.18,2.1.58,2.54,2.61,2.83,4.72l.15,1.23c.36,2.47.73,5.01,3.63,5.66.15,0,.36.07.51.07h0c1.52,0,2.32-1.31,2.9-2.18.22-.36.58-.94.65-1.02,0,0,.07,0,.29.15.73.44,1.81,1.89,1.74,6.67-.8-.15-1.6-.29-2.54-.44-12.04-2.1-27.21-8.13-32.21-10.08-1.02-.44-1.6-.58-1.74-.58s-.29.07-.44.15h0q-.07.07-.07.15c0,.07-.07.07-.07.15v.22c.36,1.02,20.02,10.38,33.88,12.84.94.15,1.74.29,2.61.36-1.45,4.14-3.12,5.15-4.21,5.3h0Z"/>
    <path class="cls-2" d="M46.77,127.26l.22.29v.15h.51c.22,0,.51,0,2.03-1.67,2.03,1.09,4.72,2.32,7.33,2.32,1.09,0,2.1-.22,2.9-.73.87-.51,1.45-1.23,1.67-2.1.36-1.38-.36-2.61-.94-3.56-.07-.15-.22-.36-.29-.51.44-.15,1.38.22,2.54.58l1.38.44c.94.29,2.39.8,3.92.8,1.96,0,3.56-.73,4.79-2.1.94-.94,1.38-2.03,1.38-3.05-.07-1.81-1.38-3.05-2.47-4.14-.44-.36-1.09-1.02-1.23-1.38q.07-.07.29-.07c.94,0,2.61.87,3.99,1.52l.58.29c5.66,2.68,10.08,1.16,11.68-3.7.51-1.31.44-2.47-.07-3.56-.94-1.96-3.19-2.76-5.22-3.48-.65-.22-1.67-.58-2.1-.87.07-.65.51-1.52,3.41-1.52,3.34-.07,6.02-1.6,7.4-4.06,1.45-2.61,1.31-5.95-.51-9.14-1.67-2.97-4.5-4.72-7.47-4.72-3.41,0-6.38,2.18-7.91,5.73-1.23,2.61-2.1,3.19-3.12,3.19-.15-.51-.07-1.52-.07-2.25,0-2.1.07-4.5-1.45-6.02-.51-.51-1.45-1.09-2.9-1.09-.36,0-.73.07-1.16.15-3.12.65-5.44,2.18-6.75,4.43-1.31,2.18-1.52,4.86-.65,7.69.15.44.22.87.36,1.31.65,2.18,1.16,4.06.36,4.43-.29-.07-.87-.8-1.23-1.23-1.02-1.16-2.25-2.61-4.21-2.61-1.16,0-2.32.58-3.56,1.67-3.77,3.85-2.18,7.98-1.52,9.79l.07.22c.15.44.29.8.44,1.16.65,1.74.8,2.25.58,2.76-.22-.07-.44-.15-.58-.22-.65-.22-1.38-.44-2.18-.44-.87,0-2.47.36-3.34,2.54-1.16,2.9.22,6.31,4.14,10.16-1.23,1.96-1.09,2.32-1.02,2.61h0ZM46.63,115.73c.15-.36.29-.44.29-.44.29,0,.73.15,1.16.29.58.22,1.23.44,1.89.44,1.02,0,1.67-.51,2.03-.94,1.74-2.18.94-4.28.15-6.31-.15-.36-.29-.65-.44-1.09l-.07-.29c-.8-2.03-1.31-4.21.8-6.31.73-.65,1.16-.8,1.31-.8.44,0,1.16.8,1.74,1.45.87,1.02,2.03,2.32,3.7,2.32.44,0,.87-.07,1.31-.29,3.56-1.52,2.32-5.59,1.52-8.34-.15-.44-.22-.8-.36-1.23-.58-1.96-.51-3.7.36-5.08.87-1.45,2.47-2.47,4.57-2.9.22-.07.36-.07.58-.07.44,0,.58.15.58.15.51.51.51,2.39.51,3.7,0,2.25-.07,5.3,2.68,5.51,3.77.36,5.51-2.39,6.75-5.08,1.02-2.39,2.83-3.77,4.93-3.77,1.81,0,3.56,1.16,4.64,3.05,1.23,2.18,1.38,4.35.51,5.95-.87,1.45-2.47,2.32-4.64,2.39-5.15,0-6.46,2.61-6.6,4.86-.15,2.32,2.32,3.19,4.28,3.85,1.31.44,2.97,1.02,3.34,1.74.07.07.15.36-.07,1.09-.8,2.54-2.32,2.83-3.41,2.83s-2.39-.36-3.77-1.02l-.58-.29c-1.74-.87-3.7-1.89-5.44-1.89-1.45,0-2.61.73-3.26,2.03-1.02,2.18.8,3.85,1.96,5.01.58.58,1.45,1.38,1.45,1.81,0,.15-.15.44-.51.8-.65.73-1.38,1.02-2.39,1.02s-2.1-.36-2.9-.65l-1.31-.44c-1.23-.44-2.32-.8-3.34-.8-1.23,0-2.25.51-3.05,1.45-1.16,1.45-.22,3.05.36,3.99.15.29.44.8.51,1.02-.07,0-.07.07-.15.07-.36.22-.8.29-1.31.29-1.67,0-3.7-.87-5.08-1.6,1.16-1.38,2.68-3.19,4.57-5.51,7.26-8.85,18.72-18.79,23.8-22.85l.15-.07c1.31-.94,1.96-1.52,2.03-1.67v-.22l-.29-.36h-.29c-.22,0-.29,0-2.25,1.52-4.43,3.12-17.7,12.48-25.39,21.84-2.03,2.47-3.48,4.43-4.57,5.88-3.34-3.26-3.34-5.15-2.97-6.02h0Z"/>
    <path class="cls-2" d="M63.82,324.39h0c3.19,0,6.17-2.39,7.76-3.77,1.16.8,2.03,1.23,2.47,1.23s.58-.22.65-.36v-.07c.07-.07.15-.15.15-.22.07-.29.15-.51-1.67-2.32,1.16-1.89,4.28-7.04,2.25-10.59-.87-1.52-2.03-1.89-2.9-1.89-1.02,0-1.89.51-2.61.87-.15.07-.29.15-.51.22-.07-.36.07-1.02.65-2.54l.44-1.23c.65-1.74,2.18-5.73-.94-8.71-.94-1.02-1.96-1.6-3.12-1.6-1.74,0-3.05,1.31-4.14,2.32-.44.44-1.16,1.16-1.45,1.16-.36-.58,1.16-3.26,1.67-4.14l.29-.58c1.6-2.97,1.96-5.59,1.16-7.76-.65-1.81-2.1-3.19-4.28-4.06-.65-.29-1.38-.44-1.96-.44-3.12,0-4.35,3.12-5.22,5.44-.29.65-.65,1.67-.94,2.1-.65-.15-1.45-.65-1.52-3.26.15-2.68-.58-4.93-2.18-6.53-2.47-2.54-6.75-2.97-10.67-1.02-3.05,1.6-4.93,4.35-4.93,7.47s1.96,6.24,5.37,7.98c2.76,1.23,3.19,2.18,3.12,3.12-.36.07-1.31.07-2.25,0-.58,0-1.16-.07-1.81-.07-1.52,0-3.41.15-4.57,1.52-.8.87-1.09,2.18-.87,3.7.73,5.15,4.14,8.42,8.85,8.42.94,0,1.96-.15,2.9-.36.44-.07.87-.22,1.31-.36,1.23-.29,2.47-.65,3.41-.65.87,0,.94.22,1.02.44-.07.29-.8.87-1.23,1.16-1.16.87-2.54,2.03-2.76,3.85-.15,1.23.36,2.47,1.45,3.85,1.6,1.74,3.56,2.61,5.8,2.61,1.6,0,2.97-.44,3.92-.73l.29-.07c.44-.15.8-.29,1.16-.44.94-.36,1.74-.58,2.25-.58.15,0,.29,0,.51.15-.07.22-.15.44-.22.65-.44,1.16-1.67,4.21,1.89,5.66.51.29,1.23.44,2.03.44h0ZM59.54,314.23c-1.09,0-2.1.36-3.34.8-.36.15-.73.29-1.09.36l-.36.15c-.73.22-1.74.58-2.83.58-1.31,0-2.47-.51-3.34-1.52-.51-.58-.73-1.09-.65-1.38.07-.51.87-1.16,1.52-1.67,1.31-1.02,3.19-2.54,2.25-4.93-.36-.94-1.38-2.54-4.06-2.54-1.38,0-2.83.36-4.21.73-.44.15-.8.22-1.23.36-.73.22-1.45.29-2.1.29-3.12,0-5.08-2.03-5.66-5.59-.07-.58,0-.94.15-1.09s.58-.44,2.1-.44c.51,0,1.09,0,1.6.07.58,0,1.09.07,1.6.07,2.47,0,3.77-.87,3.99-2.47.65-3.92-2.32-5.73-4.86-6.89-2.18-1.16-3.56-3.05-3.56-5.08,0-1.89,1.16-3.56,3.19-4.64,2.61-1.38,5.37-1.23,6.82.36.94.94,1.38,2.39,1.31,4.28.07,3.99,1.6,6.24,4.72,6.6h.22c2.18,0,3.05-2.18,3.77-4.21.58-1.45,1.31-3.34,2.25-3.34.22,0,.44.07.8.22,1.31.51,2.1,1.23,2.47,2.18.51,1.23.15,3.05-.94,5.08l-.29.58c-1.23,2.18-2.54,4.57-1.96,6.6.29.87.87,1.6,1.74,2.03.44.22.94.36,1.38.36,1.52,0,2.68-1.09,3.7-2.1.58-.58,1.45-1.38,1.81-1.38.15,0,.36.15.8.58,1.52,1.52,1.02,3.34.22,5.3l-.44,1.23c-.87,2.18-1.67,4.43.36,6.46.51.44,1.02.65,1.67.65h0c.87,0,1.6-.44,2.32-.73.36-.15.87-.51.94-.51,0,0,.07.07.15.29.29.58.73,2.25-1.81,6.67-1.31-1.23-2.97-2.76-5.15-4.79-6.17-5.44-13.71-14.08-22.35-25.61-.65-.87-1.09-1.31-1.23-1.31h-.22c-.15.07-.29.22-.36.44-.22,1.09,11.75,19.3,22.2,28.59,2.1,1.89,3.85,3.48,5.37,4.72-2.03,1.67-3.7,2.54-5.15,2.54-.36,0-.65-.07-.94-.15-.29-.15-.44-.22-.44-.22-.07-.22.22-.87.36-1.23.44-1.02,1.09-2.76-.29-3.99-.8-.94-1.81-1.31-2.9-1.38h0Z"/>
    <path class="cls-2" d="M16.3,253.29c.51.07.94.15,1.38.29,1.74.29,2.25.44,2.54.87-.15.15-.36.29-.51.44-.94.8-3.41,2.83-1.16,5.8,1.23,1.67,3.26,2.47,6.02,2.47,1.74,0,3.41-.36,4.43-.58,1.16,2.47,1.6,2.54,1.81,2.54s.36-.07.51-.22l.22-.15c.15-.22.36-.51-.36-2.97,2.1-1.23,6.82-4.14,6.97-7.98,0-1.09-.29-1.89-.87-2.54-1.02-1.02-2.47-1.09-3.48-1.09h-.58c.07-.36.51-.8,1.89-1.96l.94-.8c1.52-1.31,4.72-3.92,3.56-8.13-.58-2.1-2.03-3.26-3.99-3.26-.94,0-1.89.29-2.76.51-.65.15-1.31.36-1.74.36q-.15,0-.22-.07c.15-.65,2.47-2.1,3.41-2.68l.73-.44c2.9-1.81,4.5-3.85,4.86-6.09.29-1.96-.36-3.92-1.89-5.73-1.16-1.6-2.54-1.89-3.48-1.89-1.96,0-3.77,1.45-5.3,2.68-.58.44-1.45,1.16-1.81,1.38-.51-.44-.94-1.09.51-3.7,1.67-2.83,1.81-5.88.51-8.34-1.45-2.68-4.5-4.35-8.13-4.5h-.36c-3.41,0-6.31,1.6-7.69,4.28-1.45,2.83-1.09,6.31,1.02,9.43,1.67,2.39,1.45,3.48.94,4.28-.51-.15-1.38-.73-1.96-1.09-1.52-.94-3.19-2.03-4.93-2.03-1.23,0-2.83.51-3.92,3.05-1.02,2.83-.94,5.59.22,7.91,1.16,2.25,3.41,3.99,6.24,4.79.36.07.73.22,1.09.29,2.32.65,4.14,1.16,4.14,2.1-.22.15-1.09.36-1.67.44-1.45.22-3.26.51-4.28,2.03-.73,1.02-.87,2.32-.51,3.99,1.16,5.3,5.51,6.17,7.4,6.53l.29-.22h0ZM11.8,246.03c-.22-1.02-.07-1.38,0-1.45.22-.36,1.31-.58,2.1-.65,1.52-.22,4.06-.65,4.35-3.26.36-3.7-3.63-4.79-6.46-5.59-.36-.07-.73-.22-1.02-.29-1.96-.58-3.48-1.67-4.28-3.19-.73-1.45-.8-3.34-.07-5.22.44-1.02.8-1.02.94-1.02.8,0,2.1.87,3.19,1.52,1.38.87,2.61,1.67,3.92,1.67.87,0,1.6-.36,2.18-1.09,2.61-3.63.07-7.18-.73-8.34-1.45-2.1-1.74-4.28-.8-6.02.87-1.6,2.61-2.54,4.86-2.54h.29c2.47.07,4.5,1.16,5.44,2.76.8,1.45.65,3.26-.44,5.15-.8,1.38-3.19,5.51.58,8.13.44.36,1.02.51,1.6.51h0c1.38,0,2.61-1.02,3.99-2.1,1.02-.8,2.39-1.96,3.26-1.96.15,0,.36,0,.87.65.94,1.16,1.38,2.25,1.23,3.19-.22,1.31-1.38,2.61-3.34,3.85l-.65.44c-2.1,1.31-4.5,2.76-4.93,4.86-.15.87.07,1.81.65,2.61.44.58,1.31,1.31,2.76,1.31.87,0,1.74-.22,2.54-.44.73-.15,1.38-.36,1.96-.36.36,0,.58,0,.87.87.58,2.03-.87,3.41-2.54,4.79l-.94.8c-1.89,1.52-3.77,3.12-2.83,5.95.58,1.74,2.47,1.81,3.56,1.81.36,0,.87,0,1.16.07v.15c0,.8-.73,2.47-4.64,4.86-.58-1.67-1.31-3.77-2.25-6.46-3.7-10.67-5.8-25.39-6.75-31.71-.29-2.25-.65-3.41-1.02-3.41l-.44.22c-.51.73.58,21.91,5.44,35.77,1.02,2.83,1.81,4.93,2.54,6.6-.87.15-2.03.36-3.12.36-1.67,0-2.83-.36-3.48-1.16-.22-.29-.29-.44-.29-.44.07-.22.58-.65.87-.87.8-.73,2.25-1.89,1.6-3.63-.87-2.61-3.05-2.97-5.22-3.34-.44-.07-.87-.15-1.31-.22l-.29-.07c-2.1-.51-4.21-1.16-4.93-4.06h0Z"/>
    <path class="cls-2" d="M13.4,176.74l.15.15c.36.29.73.58,1.02.8,1.38,1.16,1.81,1.52,1.81,2.03-.22.07-.44.07-.65.15-1.16.22-4.35.8-3.85,4.5.36,2.97,3.19,5.3,8.27,6.75-.07,1.96.22,2.32.36,2.54.15.15.36.29.58.29h.15c.36,0,.58,0,1.16-2.47,2.32,0,7.91-.22,10.01-3.63.58-.87.73-1.81.51-2.61-.36-1.38-1.6-2.1-2.54-2.61-.15-.07-.36-.22-.51-.29.22-.29.87-.44,2.54-.8l1.31-.29c1.81-.36,6.09-1.16,7.04-5.37,1.02-4.28-2.76-5.22-4.57-5.73-.58-.15-1.45-.36-1.74-.58v-.07c.58-.58,3.12-.65,4.5-.73h.65c3.26-.22,5.66-1.23,7.11-2.97,1.23-1.52,1.67-3.56,1.31-5.88-.22-1.45-1.16-3.92-4.86-3.92-1.09,0-2.18.22-3.19.36-.8.15-1.52.29-2.1.29h-.15c-.22-.65-.22-1.67,2.1-2.97,2.9-1.6,4.5-4.21,4.57-7.04.07-3.05-1.81-5.95-4.93-7.91-3.7-2.25-8.13-1.74-10.67,1.02-1.67,1.81-2.54,4.43-2.25,7.33.22,2.9-.15,3.85-1.09,4.35-.36-.44-.87-1.31-1.16-1.96-1.16-2.1-2.54-4.72-5.15-4.72-1.02,0-2.03.44-2.97,1.23-2.39,1.96-3.77,4.35-3.85,6.97-.15,2.61,1.02,5.15,3.19,7.33.29.29.65.58.94.94,1.67,1.6,2.97,2.97,2.32,3.7-.36,0-1.02-.22-1.6-.44-.87-.36-1.89-.73-2.97-.73-1.38,0-3.19.65-4.14,3.7-1.52,5.22,1.89,8.05,3.34,9.29h0ZM13.18,168.4c.36-1.38.8-1.38,1.02-1.38.51,0,1.16.29,1.89.51.87.29,1.81.65,2.76.65h0c1.09,0,2.03-.44,2.61-1.31,2.39-3.05-.65-6.02-2.68-7.98-.29-.29-.58-.58-.87-.87-1.52-1.45-2.32-3.19-2.25-4.86.07-1.6,1.02-3.19,2.68-4.57.58-.44.87-.51.94-.51.73,0,1.74,1.89,2.32,2.97,1.02,1.81,2.03,3.7,3.92,3.7h0c.36,0,.73-.07,1.02-.22,3.92-1.52,3.63-5.59,3.41-7.69-.15-1.96.36-3.7,1.38-4.86,1.6-1.67,4.21-1.89,6.6-.44,2.1,1.31,3.34,3.19,3.34,5.08,0,1.67-1.09,3.19-2.9,4.21-4.57,2.61-4.06,5.73-3.34,7.47.36.73,1.16,1.6,2.97,1.6.8,0,1.67-.15,2.61-.29.87-.15,1.81-.29,2.61-.29,1.31,0,1.52.36,1.6,1.16.22,1.45,0,2.54-.58,3.34-.8,1.02-2.47,1.67-4.72,1.74h-.58c-2.47.07-5.3.22-6.75,1.81-.58.65-.94,1.52-.87,2.54.22,2.39,2.61,2.97,4.14,3.41,2.54.65,2.47.87,2.18,1.81-.51,2.03-2.39,2.54-4.5,2.97l-1.31.29c-2.32.44-4.72.87-5.22,3.77-.36,1.81,1.31,2.76,2.25,3.34.29.15.73.44.94.58,0,.07-.07.07-.07.15-.44.73-1.89,1.89-6.53,2.03.36-1.81.8-4.14,1.38-7.18,1.89-10.96,7.33-24.74,9.65-30.62.87-2.25,1.16-3.48.94-3.7-.07-.07-.22-.15-.36-.15-1.31,0-10.74,20.39-13.13,33.88-.58,3.19-.94,5.59-1.23,7.4-4.35-1.38-5.22-2.97-5.37-3.92-.07-.36,0-.51,0-.51.15-.15.87-.29,1.23-.36,1.09-.22,2.83-.58,3.19-2.39.51-2.76-1.23-4.21-2.97-5.59-.29-.22-.65-.51-.94-.8l-.22-.15c-1.45-1.31-2.97-2.9-2.18-5.8h0Z"/>
    <path class="cls-2" d="M286.12,130.53c-.07.07-.07.15-.15.22-.29.44-.65.73-1.02,1.02-.51.36-.58,1.02-.29,1.52.22.29.58.44.87.44.22,0,.44-.07.58-.22.58-.36,1.09-.87,1.52-1.52.15-.22.29-.44.36-.58.87.29,1.74.44,2.54.44,2.9,0,5.22-1.6,6.02-4.06.44-1.38-.22-2.39-.73-2.83-.07-.07-.15-.07-.15-.07.15-.36.29-.65.36-1.02.73-2.25.58-4.93-.44-6.82-.36-.73-.87-1.31-1.45-1.6-.07-.36-.29-.8-.87-1.02-.58-.22-1.02.07-1.31.29-2.32-.15-5.3,2.47-6.38,5.8-.15.36-.22.73-.29,1.09-.07,0-.15-.07-.22-.07-.58.07-1.74.44-2.18,1.89-.51,1.67-.29,3.41.73,4.93.8.87,1.6,1.6,2.47,2.18h0ZM287.86,121.24c.87-2.76,3.34-4.57,4.21-4.28.22.07.44.07.58.07.15.15.29.22.51.29.15.07.44.29.73.8.58,1.09.87,3.19.29,5.15-.29.87-.73,1.74-1.23,2.39h-.29c-.8,0-1.74-.15-2.54-.44-1.09-.36-1.96-.8-2.54-1.31-.15-.87,0-1.81.29-2.68h0ZM285.03,124.58c.94,1.09,2.54,2.1,4.35,2.68,1.09.36,2.18.51,3.19.51.44,0,1.16-.07,1.89-.22-.65,1.31-2.03,2.1-3.77,2.1-.65,0-1.31-.07-1.96-.29-1.31-.44-2.47-1.16-3.12-2.18-.36-.58-.73-1.45-.58-2.61h0Z"/>
    <path class="cls-2" d="M278,138.72c.22-.07.36-.07.65-.22.73-.22,1.38-.58,1.89-1.02.51-.36.58-1.02.22-1.52s-1.02-.58-1.52-.22c-.36.29-.8.51-1.31.65-.07.07-.15.07-.22.07-.65-2.97-2.9-5.08-5.8-5.15-1.38,0-2.18.94-2.39,1.45v.22c-.36-.07-.73-.07-1.09-.07-3.56-.07-6.97,1.89-7.55,4.14-.29.15-.73.51-.73,1.09s.36.94.65,1.16c.15.65.51,1.31,1.09,1.89,1.45,1.52,3.92,2.54,6.31,2.61h.22c.29,0,.58,0,.8-.07v.22c.22.58.94,1.52,2.39,1.6h.15c3.56.07,6.09-2.83,6.24-6.82h0ZM268.27,141.77c-2.1-.07-3.92-1.02-4.79-1.89-.36-.44-.51-.73-.51-.94s0-.44-.15-.58c.07-.15.15-.36.15-.58,0-.87,2.54-2.68,5.44-2.61.94,0,1.89.22,2.68.58.22.73.44,1.67.36,2.83,0,1.16-.29,2.1-.58,2.83-.8.22-1.74.36-2.61.36h0ZM272.26,143.44c.8-1.23,1.31-3.12,1.38-4.93,0-1.89-.44-3.7-1.09-4.93,2.03.36,3.34,2.39,3.26,5.01-.07,2.68-1.52,4.64-3.56,4.86h0Z"/>
    <path class="cls-2" d="M289.82,206.78c.87.58,1.89.8,2.9.8,2.32,0,4.57-1.38,5.95-3.77.22.07.36.07.65.15.44.07.94.15,1.38.15.29,0,.51,0,.73-.07.58-.07,1.02-.58.94-1.23-.07-.58-.65-1.02-1.23-.94-.44.07-.94,0-1.45-.07-.07,0-.15,0-.29-.07.36-1.02.44-2.1.29-3.12-.22-1.81-1.23-3.26-2.76-4.21-.44-.29-.94-.44-1.45-.44-.8,0-1.38.36-1.45.44s-.07.15-.15.15c-.29-.22-.58-.44-.87-.58-2.97-1.81-6.97-1.81-8.63-.15-.36,0-.87.07-1.16.58-.29.51-.15.94,0,1.31-.22.65-.22,1.38,0,2.18.51,2.03,2.18,4.14,4.21,5.37.29.22.65.36.94.51,0,.07-.07.15-.07.22.07.8.22,2.03,1.52,2.83h0ZM297.73,199.02c.15,1.16-.15,2.47-.87,3.7-1.31,2.18-3.63,3.26-5.44,2.47,1.23-.65,2.61-1.96,3.63-3.56.94-1.6,1.52-3.48,1.52-4.86.73.65,1.09,1.52,1.16,2.25h0ZM285.54,197.56c-.15-.58-.07-.94,0-1.09.15-.22.15-.36.15-.58.15-.07.29-.22.44-.44.44-.73,3.56-1.09,6.02.44.8.51,1.52,1.09,2.1,1.81-.15.73-.44,1.67-1.09,2.68-.58,1.02-1.31,1.74-1.89,2.18-.87-.15-1.74-.51-2.54-1.02-1.74-1.02-2.9-2.76-3.19-3.99h0Z"/>
    <path class="cls-2" d="M313.04,193.21c-.07-.07-.07-.15-.15-.15-.07-.07-.44-.22-.94-.22s-1.16.15-1.81.8c-1.09,1.09-1.74,2.47-1.81,3.99,0,1.23.29,2.47.94,3.63-.07,0-.15.07-.22.07-.44.22-.87.36-1.38.36-.58.07-1.02.58-1.02,1.16.07.58.51,1.02,1.09,1.02h.07c.73-.07,1.45-.29,2.1-.58.29-.15.44-.22.65-.29,1.52,1.6,3.48,2.54,5.44,2.54,1.45,0,2.83-.51,3.85-1.52,1.09-1.02,1.02-2.25.73-2.83,0-.07-.07-.07-.15-.15.29-.22.58-.44.8-.73,1.74-1.6,2.9-4.06,2.97-6.17,0-.87-.15-1.6-.44-2.18.07-.36.15-.87-.29-1.31-.36-.44-.87-.44-1.31-.36-1.89-1.31-5.88-.44-8.42,1.96-.22.44-.44.65-.73.94h0ZM312.1,201.56c-1.09-1.16-1.67-2.54-1.67-3.85,0-.8.29-1.45.73-2.1.29,1.38,1.16,3.05,2.47,4.43s2.9,2.39,4.28,2.76c-1.6,1.16-4.06.58-5.8-1.23h0ZM321.02,192.27c.15.15.36.29.51.36.07.15.15.36.29.51.15.15.22.44.22,1.02,0,1.23-.73,3.19-2.25,4.64-.65.65-1.45,1.16-2.25,1.52-.73-.36-1.52-.94-2.25-1.74-.8-.8-1.31-1.67-1.6-2.39.36-.8.94-1.52,1.67-2.18,2.03-1.96,5.08-2.32,5.66-1.74h0Z"/>
    <path class="cls-2" d="M287.94,262.35c-.51-.87-1.31-1.38-2.25-1.38h-.29c-.07,0-.15.07-.22.07-.15-.36-.29-.65-.51-.94-1.74-3.05-5.22-4.93-7.47-4.28-.29-.15-.8-.36-1.31,0-.51.29-.65.73-.65,1.16-.51.44-.87,1.09-1.09,1.89-.58,2.03-.15,4.64,1.09,6.75.15.36.36.65.58.94-.07.07-.15.07-.15.15-.36.51-.8,1.6-.07,2.9,1.02,1.81,2.9,2.9,5.15,2.9,1.38,0,2.76-.36,4.06-1.16.15.15.29.29.51.44.58.51,1.16.87,1.81,1.16.15.07.29.07.44.07.44,0,.8-.29,1.02-.65.22-.58-.07-1.16-.58-1.45-.44-.15-.87-.44-1.23-.73-.07-.07-.15-.15-.22-.15,2.1-2.25,2.76-5.22,1.38-7.69h0ZM276.26,259.45c.15-.58.36-.87.51-.94.22-.07.36-.29.44-.36.15,0,.36-.07.58-.15.8-.44,3.63.8,5.08,3.26.51.8.8,1.74.94,2.54-.51.58-1.23,1.23-2.18,1.81-1.02.58-1.96.87-2.76,1.02-.65-.58-1.23-1.23-1.67-2.03-1.16-1.89-1.31-3.99-.94-5.15h0ZM283.66,269.39c-1.02.58-2.03.87-2.97.87-1.23,0-2.25-.44-2.97-1.38,1.45.07,3.26-.51,4.86-1.38,1.6-.94,2.97-2.25,3.63-3.56.87,2.1-.51,4.28-2.54,5.44h0Z"/>
    <path class="cls-2" d="M311.88,270.77c-1.02-2.1-4.86-3.26-8.27-2.39-.36.07-.73.22-1.02.29,0-.07-.07-.15-.07-.22-.36-.58-1.52-1.23-2.76-.87-1.74.44-3.05,1.6-3.85,3.19-.44.94-.65,1.96-.65,3.05h-.29c-.51-.07-.94-.15-1.38-.36-.58-.22-1.16,0-1.45.58-.22.58,0,1.16.58,1.45.65.29,1.38.44,2.1.51.29,0,.51.07.65.07h0c.87,3.34,3.34,5.59,6.24,5.59.44,0,.94-.07,1.38-.15,1.45-.36,1.96-1.45,2.03-2.1v-.22c.36-.07.73-.15,1.09-.22,2.32-.58,4.5-2.1,5.59-3.92.44-.73.65-1.45.65-2.1.22-.22.51-.65.36-1.23-.15-.58-.58-.8-.94-.94h0ZM297.66,275.49c-.36-1.38-.29-2.68.22-3.77.29-.65.87-1.45,1.89-1.81-.44,1.38-.44,3.26,0,5.08.44,1.67,1.31,3.48,2.39,4.5-2.1.22-3.92-1.45-4.5-3.99h0ZM309.92,273.96c-.65,1.09-2.25,2.39-4.21,2.9-.94.22-1.81.29-2.68.22-.44-.65-.87-1.52-1.16-2.61s-.29-2.1-.22-2.83c.73-.51,1.6-.87,2.54-1.16,2.76-.73,5.66.51,5.88,1.31.07.22.15.36.29.51-.07.15-.07.36,0,.58-.07.22-.15.58-.44,1.09h0Z"/>
    <path class="cls-2" d="M241.79,321.85c0-.07-.07-.15-.07-.22,2.97-.8,5.01-3.05,4.93-5.88,0-1.45-1.02-2.25-1.52-2.39h-.22c0-.36.07-.73.07-1.09-.07-3.48-2.18-6.89-4.43-7.4-.15-.29-.51-.65-1.09-.65s-.94.36-1.16.73c-.65.15-1.31.58-1.89,1.16-1.45,1.52-2.39,3.99-2.39,6.38,0,.36,0,.73.07,1.09h-.22c-.58.22-1.52,1.02-1.52,2.47.07,3.41,3.12,6.02,7.11,6.02h.07c.07.22.15.36.22.65.29.73.58,1.31,1.09,1.89.22.29.51.44.87.44.22,0,.51-.07.65-.22.44-.36.51-1.09.15-1.52-.29-.58-.51-1.02-.73-1.45h0ZM237.95,307.48c.36-.44.73-.58.87-.58.22,0,.44-.07.58-.15.15.07.36.15.51.15h.07c.87,0,2.76,2.47,2.83,5.37,0,.94-.15,1.89-.44,2.68-.73.29-1.74.51-2.9.51-1.09,0-2.03-.22-2.76-.44-.29-.8-.51-1.74-.51-2.68-.07-2.1.87-3.99,1.74-4.86ZM234.61,316.41c1.16.73,2.97,1.16,4.93,1.16h0c1.89,0,3.7-.51,4.93-1.31-.29,2.03-2.25,3.41-4.86,3.48h-.07c-2.32,0-4.64-1.16-4.93-3.34h0Z"/>
    <path class="cls-2" d="M257.1,329.39c-.36-.07-.73-.15-1.09-.22v-.22c-.07-.58-.58-1.74-1.96-2.1-.51-.15-1.02-.22-1.52-.22-2.25,0-4.21,1.38-5.44,3.48-.07,0-.15-.07-.22-.15-.44-.29-.73-.58-1.09-1.02-.36-.51-1.02-.58-1.52-.22s-.58,1.02-.22,1.52c.44.58.94,1.09,1.6,1.45.22.15.44.29.58.36-.58,2.1-.36,4.21.58,5.8.8,1.31,1.96,2.25,3.41,2.68.29.07.51.07.8.07.94,0,1.67-.51,1.96-.94.07-.07.07-.15.07-.22.36.15.65.22,1.02.36.8.22,1.67.36,2.54.36,1.52,0,3.05-.36,4.21-1.02.73-.44,1.31-.94,1.6-1.52.36-.07.8-.29.94-.87.15-.58-.07-1.02-.36-1.31.29-2.25-2.54-5.15-5.88-6.09h0ZM250.43,338.39c-.65-.29-1.23-.8-1.6-1.45-.65-1.09-.8-2.68-.36-4.21.65-2.32,2.32-3.92,4.14-3.92h.44c-1.09,1.02-2.03,2.76-2.54,4.43-.51,1.81-.51,3.77-.07,5.15h0ZM260.95,336.14c-.15.15-.22.29-.29.51-.07.15-.29.44-.8.73-1.09.58-3.12,1.02-5.15.44-.94-.22-1.74-.65-2.47-1.16-.07-.73,0-1.74.29-2.83.29-1.09.73-1.96,1.16-2.61.87-.07,1.81,0,2.76.29,2.76.73,4.72,3.19,4.43,3.99,0,.29,0,.51.07.65h0Z"/>
    <path class="cls-2" d="M231.27,323.88c-2.97,0-5.73,1.74-7.4,4.86-.94,1.74-1.74,2.54-2.54,2.54-.15,0-.29,0-.44-.07-.07-.51.07-1.6.15-2.39.29-2.18.58-4.72-.8-6.46-.73-.87-1.81-1.45-3.05-1.52-5.51-.73-8.71,2.54-8.78,8.85v.87c0,1.23,0,3.99-.58,4.43-.22-.22-.58-1.23-.73-1.81-.51-1.74-1.38-4.64-4.43-4.64-.44,0-1.02.07-1.52.22-4.28,1.23-4.86,5.37-5.15,7.4l-.15,1.23c-.29,1.89-.44,2.54-.73,2.76-.15-.15-.29-.36-.36-.58-.65-1.02-1.6-2.54-3.41-2.54-.65,0-1.31.22-2.03.65-3.19,2.03-3.34,7.33-3.26,9.94-7.18,1.31-7.18,1.89-7.11,2.39v.15c0,.07,0,.15.07.22.15.51.8.58,1.6.58,1.16,0,3.19-.15,5.95-.58,1.67,5.01,4.14,7.76,7.18,8.05h.58c3.19,0,3.63-2.83,3.85-4.06,0-.22.07-.44.15-.65h0c.58,0,1.16.58,2.18,1.74.29.36.65.73.94,1.09l.15.22c1.02,1.09,3.19,3.48,6.67,3.48.94,0,1.89-.15,2.83-.51,1.67-.58,2.68-1.38,3.19-2.54.8-1.67.07-3.41-.51-4.79-.22-.51-.58-1.38-.58-1.6.22-.15.36-.15.44-.15.87,0,2.47,1.45,3.63,2.54.29.29.58.51.8.8,2.03,1.89,4.5,2.9,6.89,2.9,2.03,0,5.01-.73,7.62-4.14.94-1.38,1.23-2.68.94-3.92-.58-2.18-2.83-3.26-4.86-4.21-.65-.36-1.6-.8-2.03-1.09.44-.94,1.23-1.52,3.41-1.52h.87c3.99.29,7.26-1.38,8.85-4.35,1.45-2.76,1.16-6.17-.8-9.14-1.96-2.9-4.79-4.64-7.69-4.64h0ZM236.86,336.14c-.87,1.67-2.76,2.61-5.08,2.61h-.65c-.36,0-.73-.07-1.09-.07-1.23,0-5.08,0-6.6,3.92-1.02,2.61,1.81,3.92,3.77,4.93,1.16.58,2.9,1.38,3.12,2.1.07.36-.22.87-.44,1.16-1.45,1.81-3.12,2.83-5.01,2.83-1.6,0-3.26-.73-4.72-2.03-.29-.22-.51-.51-.8-.73-1.81-1.67-3.63-3.48-5.88-3.48-.87,0-1.67.29-2.39.8-2.1,1.6-1.09,3.99-.51,5.44.36.8.73,1.81.58,2.25-.15.29-.58.58-1.31.8-.65.22-1.23.36-1.81.36-2.1,0-3.41-1.45-4.35-2.47l-.22-.22c-.36-.36-.65-.65-.87-1.02-1.31-1.45-2.54-2.83-4.57-2.83-.36,0-.73.07-1.09.15-1.89.36-2.18,2.25-2.32,3.34-.07.36-.15,1.09-.29,1.31,0,0-.22.07-.58,0-1.16-.15-2.76-1.16-4.28-5.3.8-.15,1.67-.29,2.61-.36,13.86-2.47,33.52-11.83,33.88-12.84v-.22c0-.07,0-.15-.07-.15,0-.07-.07-.07-.07-.15-.07-.15-.22-.15-.36-.15s-.15,0-1.74.65c-5.01,1.96-20.17,7.98-32.21,10.08-.94.15-1.74.29-2.54.44,0-4.72,1.09-6.17,1.74-6.67.07-.07.15-.07.22-.15.22.15.51.65.73,1.02.65,1.02,1.52,2.54,3.48,2.18,2.9-.65,3.26-3.19,3.63-5.66l.15-1.16c.36-2.18.8-4.14,2.83-4.72.94-.29,1.23-.29,1.96,2.18.51,1.67,1.16,3.92,3.56,4.14,1.09.07,1.96-.22,2.68-.94,1.52-1.52,1.45-4.28,1.45-6.75v-.87c0-5.73,2.9-5.73,3.99-5.73.36,0,.65,0,1.09.07.65.07.87.29.94.36.51.65.29,2.61.15,3.99-.29,2.25-.58,4.79,1.52,5.66.65.29,1.31.44,1.96.44,2.76,0,4.35-2.39,5.37-4.21,1.16-2.03,2.76-3.12,4.57-3.12s3.7,1.16,5.01,3.19c1.6,1.74,1.81,3.92.87,5.59h0Z"/>
    <path class="cls-2" d="M288.01,295.08c-.58,0-1.16,0-1.81.07-.94.07-1.89.07-2.25,0-.07-.94.29-1.89,3.19-3.19,3.34-1.74,5.3-4.72,5.3-7.98s-1.81-5.88-4.93-7.47c-3.92-2.03-8.2-1.6-10.67,1.02-1.52,1.6-2.25,3.92-2.18,6.46-.07,2.9-.94,3.26-1.52,3.41-.29-.36-.65-1.38-.94-2.1-.87-2.25-2.1-5.44-5.22-5.44-.65,0-1.31.15-1.96.44-2.18.87-3.7,2.25-4.35,4.06-.8,2.18-.44,4.79,1.16,7.84l.29.58c.51.87,1.89,3.41,1.6,4.14-.36-.15-.94-.8-1.38-1.16-1.09-1.02-2.39-2.32-4.14-2.32-1.09,0-2.18.51-3.05,1.52-3.19,3.12-1.67,7.11-1.02,8.78l.44,1.23c.58,1.6.73,2.18.65,2.54-.15-.07-.36-.15-.44-.22-.73-.36-1.6-.87-2.61-.87-.87,0-2.03.36-2.83,1.81-2.1,3.56,1.09,8.78,2.18,10.59-1.81,1.81-1.81,2.03-1.74,2.32,0,.07.07.22.22.29.07.07.07.15.15.22.07.07.36.15.51.15.44,0,1.31-.44,2.47-1.23,1.6,1.38,4.57,3.77,7.76,3.77.73,0,1.45-.15,2.18-.44,3.48-1.45,2.32-4.5,1.81-5.66-.07-.22-.15-.44-.22-.65.22-.15.36-.15.51-.15.51,0,1.31.29,2.25.58.36.15.73.29,1.16.44l.29.07c.94.29,2.25.73,3.92.73,2.25,0,4.21-.87,5.88-2.76,1.09-1.31,1.52-2.54,1.45-3.77-.22-1.81-1.6-2.97-2.76-3.85-.44-.36-1.16-.94-1.23-1.23.07-.22.15-.44,1.02-.44.94,0,2.18.36,3.41.65.44.15.87.22,1.23.29,1.02.29,1.96.36,2.9.36,4.72,0,8.13-3.19,8.85-8.42.22-1.52-.07-2.76-.87-3.7-1.23-1.09-3.12-1.31-4.64-1.31h0ZM290.26,299.86c-.65,4.43-3.48,6.46-7.76,5.3-.36-.07-.8-.22-1.23-.29-1.45-.36-2.9-.73-4.21-.73-2.68,0-3.7,1.6-4.06,2.54-.94,2.39,1.02,3.92,2.25,4.93.65.51,1.45,1.16,1.52,1.67,0,.29-.22.8-.65,1.31-1.02,1.09-2.1,1.6-3.41,1.6-1.09,0-2.1-.36-2.9-.58l-.29-.07c-.36-.15-.73-.29-1.09-.36-1.16-.44-2.25-.8-3.34-.8s-2.18.44-2.97,1.23c-1.38,1.31-.73,2.97-.29,3.99.15.36.44,1.09.36,1.23,0,0-.15.15-.36.22-1.45.58-3.56-.29-6.09-2.39,1.45-1.23,3.26-2.76,5.37-4.64,10.45-9.29,22.42-27.57,22.2-28.59,0-.15-.15-.36-.36-.44h-.22c-.22,0-.58.44-1.23,1.31-8.71,11.54-16.18,20.17-22.42,25.61-2.18,2.03-3.85,3.56-5.15,4.79-2.54-4.35-2.1-6.09-1.81-6.67.07-.07.07-.15.07-.15.22.07.73.29,1.02.51.65.36,1.45.73,2.25.73.65,0,1.23-.22,1.74-.65,2.03-1.96,1.16-4.21.36-6.46l-.44-1.23c-.73-1.96-1.31-3.85.36-5.44.36-.36.58-.51.65-.51.44,0,1.31.87,1.81,1.38,1.02,1.02,2.18,2.1,3.7,2.1.51,0,.94-.15,1.38-.36.87-.44,1.45-1.16,1.74-2.03.58-2.1-.73-4.5-1.96-6.6l-.29-.51c-1.09-2.1-1.45-3.92-.94-5.15.36-.94,1.16-1.67,2.54-2.18.29-.15.51-.15.73-.15.87,0,1.67,1.89,2.25,3.34.8,1.96,1.67,4.21,3.77,4.21h.29c2.97-.36,4.57-2.61,4.64-6.75-.07-1.74.36-3.19,1.31-4.14,1.45-1.52,4.21-1.67,6.82-.36,2.03,1.02,3.19,2.68,3.19,4.64s-1.31,3.92-3.41,5.01c-2.61,1.16-5.59,3.05-4.93,6.89.22,1.67,1.52,2.54,3.99,2.54.51,0,1.02,0,1.6-.07.51,0,1.09-.07,1.6-.07,1.52,0,1.96.29,2.1.44.22-.07.29.36.22.87h0Z"/>
    <path class="cls-2" d="M317.25,222.09c-1.74,0-3.48,1.09-4.93,2.03-.58.36-1.45.94-1.96,1.09-.51-.8-.65-1.96.94-4.28,2.1-3.05,2.47-6.6,1.02-9.36-1.38-2.68-4.28-4.28-7.69-4.28h-.36c-3.63.15-6.67,1.81-8.13,4.5-1.38,2.47-1.16,5.51.51,8.34,1.45,2.54,1.09,3.26.58,3.7-.44-.22-1.31-.87-1.81-1.31-1.52-1.23-3.34-2.68-5.3-2.68-.94,0-2.25.36-3.34,1.81-1.6,1.89-2.25,3.85-2.03,5.8.36,2.25,1.96,4.35,4.86,6.09l.73.44c1.02.58,3.34,2.03,3.41,2.76h-.22c-.44,0-1.09-.15-1.74-.36-.87-.22-1.81-.51-2.76-.51-2.03,0-3.41,1.16-3.99,3.26-1.16,4.21,2.03,6.89,3.56,8.13l.94.8c1.38,1.16,1.81,1.6,1.89,1.96h-.58c-1.09,0-2.47,0-3.48,1.09-.58.65-.87,1.45-.87,2.54.07,3.92,4.79,6.82,6.97,7.98-.73,2.54-.51,2.83-.36,2.97l.51.29h.07l.15.07c.29,0,.65,0,1.81-2.47,1.02.22,2.68.58,4.43.58,2.76,0,4.79-.8,6.09-2.47,2.25-2.97-.22-5.01-1.16-5.8-.15-.15-.36-.29-.51-.44.29-.44.8-.58,2.54-.87.44-.07.87-.15,1.38-.29l.29-.07c1.89-.36,6.24-1.23,7.4-6.53.36-1.67.22-2.97-.51-3.99-1.02-1.52-2.83-1.81-4.28-2.03-.58-.07-1.45-.22-1.6-.36-.07-.94,1.74-1.52,4.06-2.18.36-.07.73-.22,1.09-.29,2.83-.8,5.08-2.54,6.24-4.79,1.16-2.32,1.23-5.01.15-7.98-1.09-2.32-2.76-2.9-3.99-2.9h0ZM293.96,264.24l.07-.07.07.07h-.15ZM318.12,231.59c-.73,1.45-2.25,2.61-4.28,3.19-.36.07-.65.22-1.02.29-2.83.8-6.82,1.81-6.46,5.59.29,2.61,2.83,2.97,4.35,3.26.8.15,1.89.29,2.1.65.07.07.22.44,0,1.45-.65,2.97-2.76,3.63-4.86,3.99l-.29.07c-.44.07-.87.15-1.31.22-2.1.36-4.35.73-5.22,3.34-.65,1.81.8,2.97,1.6,3.63.29.29.87.73.87.87,0,0,0,.15-.29.44-.58.8-1.81,1.23-3.48,1.23-1.16,0-2.25-.22-3.12-.36.65-1.67,1.45-3.77,2.54-6.6,4.86-13.93,5.95-35.04,5.44-35.77l-.44-.22c-.36,0-.73,1.16-1.02,3.41-.87,6.31-2.97,21.04-6.75,31.71-1.02,2.76-1.74,4.86-2.25,6.53-3.99-2.39-4.64-4.06-4.64-4.86v-.22c.29-.07.8-.07,1.16-.07,1.09,0,2.97-.07,3.63-1.81.94-2.76-1.02-4.35-2.83-5.95l-.94-.8c-1.67-1.38-3.05-2.76-2.54-4.79.22-.87.51-.87.87-.87.51,0,1.23.22,1.89.36.87.22,1.67.44,2.54.44,1.52,0,2.32-.73,2.76-1.31.58-.8.8-1.74.65-2.61-.44-2.1-2.83-3.56-4.93-4.86l-.65-.44c-2.03-1.23-3.19-2.54-3.34-3.85-.15-1.02.29-2.03,1.31-3.26.44-.58.73-.58.8-.58.8,0,2.25,1.09,3.26,1.96,1.38,1.16,2.61,2.1,3.99,2.1.58,0,1.09-.15,1.52-.51,3.85-2.61,1.45-6.82.65-8.13-1.09-1.81-1.23-3.63-.44-5.15.87-1.67,2.9-2.68,5.44-2.76h.29c2.25,0,3.99.94,4.86,2.54.94,1.74.65,3.92-.8,6.02-.8,1.16-3.34,4.72-.65,8.42.51.65,1.31,1.09,2.18,1.09,1.31,0,2.54-.8,3.92-1.67,1.09-.65,2.39-1.52,3.19-1.52.15,0,.51,0,.87.87.65,1.96.65,3.77-.15,5.3h0Z"/>
    <path class="cls-2" d="M295.77,139.81c-2.61-2.83-6.97-3.26-10.67-1.02-3.12,1.89-4.93,4.86-4.93,7.91.07,2.83,1.74,5.37,4.57,7.04,2.39,1.38,2.32,2.39,2.1,2.97h-.15c-.51,0-1.31-.15-2.1-.29-1.02-.15-2.1-.36-3.19-.36-3.7,0-4.64,2.47-4.86,3.92-.36,2.39,0,4.35,1.31,5.88,1.45,1.81,3.85,2.83,7.18,2.97h.65c1.38.07,3.92.15,4.43.73v.07c-.29.22-1.16.44-1.74.58-1.81.44-5.59,1.45-4.57,5.73,1.02,4.28,5.22,5.08,7.04,5.44l1.31.29c1.67.29,2.25.51,2.54.8-.15.07-.36.22-.51.29-.87.51-2.18,1.23-2.54,2.61-.22.87-.07,1.74.51,2.68,2.1,3.41,7.69,3.56,10.01,3.63.58,2.39.8,2.39,1.16,2.39h.15c.15,0,.44-.15.58-.29s.44-.51.36-2.54c5.08-1.52,7.91-3.77,8.27-6.75.51-3.7-2.68-4.28-3.85-4.5-.22-.07-.44-.07-.65-.15,0-.51.44-.94,1.81-2.03.29-.29.65-.51,1.02-.8l.15-.15c1.45-1.23,4.86-4.06,3.34-9.29-.87-3.05-2.76-3.7-4.14-3.7-1.09,0-2.1.36-2.97.73-.58.22-1.23.44-1.74.44-.51-.65.8-2.03,2.39-3.63.36-.29.65-.65.94-.87,2.18-2.1,3.34-4.72,3.19-7.33s-1.45-5.01-3.85-6.97c-1.02-.8-2.03-1.23-2.97-1.23-2.61,0-4.06,2.61-5.15,4.72-.36.65-.8,1.52-1.16,1.96-.94-.44-1.38-1.38-1.09-4.35.29-3.12-.51-5.73-2.18-7.55h0ZM298.09,154.61c.36.15.73.22,1.09.22,1.89,0,2.9-1.89,3.92-3.7.58-1.16,1.67-2.97,2.32-2.97.07,0,.44.07.94.51,1.67,1.38,2.61,2.97,2.68,4.57.07,1.67-.73,3.34-2.25,4.86-.29.29-.58.58-.87.87-2.03,1.96-5.15,5.01-2.76,7.98.65.87,1.52,1.31,2.68,1.31.94,0,1.81-.36,2.76-.65.65-.22,1.38-.51,1.89-.51.22,0,.58,0,1.02,1.31.87,2.9-.73,4.5-2.32,5.88l-.22.15c-.36.29-.65.51-.94.8-1.74,1.38-3.48,2.83-2.97,5.51.36,1.81,2.1,2.18,3.19,2.39.36.07,1.09.22,1.23.36,0,0,.07.15,0,.58-.15.87-1.02,2.47-5.37,3.92-.22-1.81-.58-4.21-1.16-7.33-2.32-13.42-11.83-33.88-13.13-33.88-.15,0-.29.07-.36.15-.22.22.15,1.45,1.02,3.63,2.32,5.88,7.69,19.66,9.65,30.62.58,3.05,1.02,5.44,1.38,7.18-4.64-.15-6.09-1.31-6.53-2.03,0-.07-.07-.15-.07-.15.22-.15.65-.44.94-.58.94-.58,2.61-1.52,2.25-3.34-.58-2.83-2.9-3.34-5.22-3.77l-1.31-.29c-2.1-.36-3.99-.94-4.5-2.97-.22-.94-.29-1.16,2.25-1.81,1.6-.44,3.99-1.02,4.14-3.48.07-.94-.29-1.81-.87-2.47-1.45-1.6-4.28-1.67-6.75-1.81h-.58c-2.32-.15-3.99-.73-4.79-1.81-.65-.8-.8-1.89-.58-3.34.15-.8.36-1.16,1.6-1.16.8,0,1.74.15,2.61.29.94.15,1.81.29,2.61.29,1.81,0,2.61-.87,3.05-1.67.73-1.67,1.23-4.79-3.34-7.4-1.89-1.09-2.9-2.54-2.9-4.21,0-1.89,1.23-3.77,3.34-5.08,2.39-1.45,5.08-1.23,6.6.44,1.09,1.16,1.6,2.9,1.38,4.86-.29,2.25-.58,6.24,3.26,7.76h0Z"/>
    <path class="cls-2" d="M234.68,88.23c-1.81,3.19-1.96,6.53-.51,9.14,1.38,2.47,4.06,3.92,7.47,4.06,2.83,0,3.26.87,3.34,1.52-.36.29-1.38.58-2.1.87-2.03.73-4.28,1.52-5.22,3.48-.51,1.09-.51,2.25-.07,3.48,1.6,4.93,5.95,6.46,11.68,3.77l.58-.29c1.31-.65,2.97-1.52,3.99-1.52.15,0,.22,0,.29.07-.15.29-.8.94-1.23,1.38-1.09,1.02-2.47,2.32-2.47,4.14,0,1.09.44,2.1,1.31,3.05,1.23,1.45,2.9,2.1,4.86,2.1,1.52,0,2.97-.51,3.92-.8l1.38-.44c1.09-.36,2.03-.73,2.54-.58-.07.15-.22.36-.29.51-.58.87-1.31,2.1-.94,3.56.22.87.8,1.52,1.74,2.1.8.44,1.81.73,2.9.73,2.54,0,5.3-1.23,7.33-2.32,1.52,1.67,1.81,1.67,2.03,1.67.15,0,.29-.07.44-.15h.15l.15-.29c.15-.22.29-.65-.87-2.54,3.85-3.85,5.22-7.26,4.14-10.16-.87-2.18-2.47-2.54-3.34-2.54-.8,0-1.52.22-2.18.44-.15.07-.44.15-.58.22-.22-.51-.07-1.02.58-2.76.15-.36.29-.73.44-1.16l.07-.22c.65-1.74,2.25-5.95-1.6-9.79-1.16-1.09-2.32-1.67-3.48-1.67-1.96,0-3.19,1.45-4.21,2.61-.36.44-1.02,1.16-1.31,1.16-.8-.36-.29-2.18.36-4.43.15-.44.29-.87.36-1.23.87-2.83.65-5.51-.65-7.69-1.31-2.25-3.7-3.77-6.82-4.43-2.03-.36-3.41.36-3.99,1.02-1.45,1.45-1.45,3.92-1.45,6.02,0,.73,0,1.74-.07,2.25-1.02,0-1.89-.58-3.12-3.12-1.52-3.63-4.5-5.73-7.91-5.73-3.12-.22-5.95,1.52-7.62,4.5h0ZM237.51,89.82c1.09-1.89,2.83-3.05,4.64-3.05,2.03,0,3.92,1.45,4.93,3.85,1.16,2.54,2.76,5.08,6.09,5.08h.65c2.76-.29,2.76-3.26,2.68-5.51,0-1.31,0-3.19.51-3.7.07-.07.15-.15.58-.15.15,0,.36,0,.51.07,2.18.44,3.77,1.45,4.64,2.9.8,1.38.94,3.12.36,5.15-.15.36-.22.8-.36,1.16-.8,2.76-2.1,6.82,1.45,8.34.44.22.87.29,1.31.29,1.67,0,2.83-1.31,3.7-2.32.58-.65,1.23-1.45,1.74-1.45.15,0,.51.07,1.23.73,2.18,2.18,1.6,4.28.8,6.31l-.07.29c-.15.36-.29.73-.44,1.09-.8,2.03-1.6,4.14.15,6.31.36.44,1.02.94,2.03.94.65,0,1.31-.22,1.89-.44.44-.15.87-.29,1.23-.29,0,0,.15.07.29.44.36.87.36,2.76-2.97,6.24-1.09-1.45-2.54-3.41-4.57-5.88-7.69-9.36-20.97-18.79-25.39-21.84-1.89-1.52-2.03-1.52-2.25-1.52h-.22l-.36.36v.29c0,.22.65.8,2.03,1.67l.15.07c5.08,4.06,16.54,14.08,23.8,22.85,1.96,2.39,3.41,4.21,4.57,5.51-1.38.73-3.41,1.6-5.08,1.6-.51,0-.94-.07-1.31-.29-.07-.07-.15-.07-.15-.07.07-.29.36-.73.51-1.02.58-.94,1.52-2.54.36-3.99-.8-1.02-1.81-1.52-3.05-1.52-1.09,0-2.1.36-3.34.8l-1.38.44c-.8.29-1.89.65-2.9.65s-1.74-.36-2.47-1.09c-.29-.29-.44-.58-.44-.73,0-.44.87-1.31,1.45-1.81,1.16-1.16,2.97-2.83,1.96-5.01-.58-1.31-1.81-1.96-3.26-1.96-1.74,0-3.7,1.02-5.44,1.89l-.51.29c-1.45.65-2.76,1.02-3.77,1.02s-2.54-.29-3.41-2.9c-.22-.65-.15-.94-.07-1.02.36-.73,2.1-1.38,3.34-1.74,1.96-.65,4.43-1.52,4.28-3.85-.15-2.18-1.45-4.86-6.53-4.86-2.18-.07-3.85-.94-4.72-2.39-.8-1.96-.58-4.06.58-6.24h0Z"/>
    <path class="cls-2" d="M83.77,245.81l7.33-19.15h-4.14l-3.85,9.94c-.58,1.45-1.09,3.19-1.6,4.93h-.07c-.51-1.81-1.02-3.48-1.6-5.01l-3.7-9.87h-4.43l7.33,19.15h4.72Z"/>
    <polygon class="cls-2" points="107.42 242.62 100.17 242.62 100.17 237.47 107.13 237.47 107.13 234.42 100.17 234.42 100.17 229.71 107.42 229.71 107.42 226.59 96.18 226.59 96.18 245.81 107.42 245.81 107.42 242.62"/>
    <polygon class="cls-2" points="121.72 245.81 121.72 230 127.09 230 127.09 226.59 112.43 226.59 112.43 230 117.73 230 117.73 245.81 121.72 245.81"/>
    <polygon class="cls-2" points="144.06 229.71 144.06 226.59 132.75 226.59 132.75 245.81 144.06 245.81 144.06 242.62 136.74 242.62 136.74 237.47 143.7 237.47 143.7 234.42 136.74 234.42 136.74 229.71 144.06 229.71"/>
    <path class="cls-2" d="M163.36,236.82l-6.46-10.23h-5.3v19.23h3.85l-.07-10.01c0-1.74-.07-2.97-.15-3.99h.07c.51,1.16,1.23,2.54,1.96,3.63l6.6,10.38h5.3v-19.23h-3.85l.07,8.42c0,2.47.07,4.35.07,5.51h0c-.65-1.31-1.38-2.54-2.1-3.7h0Z"/>
    <path class="cls-2" d="M181.07,242.84c-1.6,0-3.12-.29-4.28-.73l-.15,3.56c1.09.29,2.61.51,3.92.51,4.93,0,8.27-2.54,8.27-6.46,0-6.02-8.56-4.57-8.56-7.84,0-1.45,1.09-2.39,3.48-2.39,1.09,0,2.61.22,3.7.58l.15-3.41c-1.09-.22-2.54-.36-3.63-.36-5.08,0-7.84,2.39-7.84,6.02,0,6.24,8.42,4.5,8.42,7.84.07,1.81-1.67,2.68-3.48,2.68h0Z"/>
    <polygon class="cls-2" points="195.87 226.59 195.87 245.81 199.93 245.81 199.93 236.74 207.04 245.81 212.26 245.81 204.07 235.8 211.9 226.59 206.97 226.59 199.93 235.15 199.93 226.59 195.87 226.59"/>
    <path class="cls-2" d="M220.82,242.04h7.98l1.38,3.7h4.43l-7.26-19.23h-4.72l-7.26,19.23h3.99l1.45-3.7h0ZM223.87,233.77c.36-1.02.73-2.1.94-2.97h0c.29.87.65,2.03,1.02,3.05l2.03,5.37h-6.09l2.1-5.44h0Z"/>
    <path class="cls-2" d="M246.65,226.44c-2.25,0-4.64.07-6.24.15v19.23h3.99v-6.31c.51.07,1.23.07,1.67.07,4.86,0,8.2-2.68,8.2-6.89,0-3.92-2.76-6.24-7.62-6.24h0ZM246.07,236.38c-.51,0-1.23,0-1.67-.15v-6.53h1.96c2.47,0,3.7,1.38,3.7,3.26,0,2.18-1.52,3.41-3.99,3.41h0Z"/>
    <path class="cls-2" d="M83.85,278.1c5.51,0,10.08-3.77,10.08-10.08s-3.85-9.72-9.43-9.72-9.94,3.77-9.94,10.08c-.07,5.73,3.05,9.72,9.29,9.72ZM84.21,261.77c3.26,0,5.44,2.25,5.44,6.53s-2.54,6.38-5.59,6.38c-3.77,0-5.3-2.9-5.3-6.53,0-4.21,2.47-6.38,5.44-6.38Z"/>
    <path class="cls-2" d="M107.93,278.03c1.89,0,3.56-.29,5.15-.87l-.36-3.56c-1.16.58-2.61.87-3.99.87-3.77,0-6.02-2.18-6.02-6.31,0-3.77,2.03-6.53,5.8-6.53,1.31,0,2.68.22,4.06.65l.36-3.48c-1.31-.36-2.9-.51-4.14-.51-7.18,0-10.3,4.86-10.3,10.23,0,5.88,3.19,9.5,9.43,9.5h0Z"/>
    <polygon class="cls-2" points="136.37 277.81 136.37 258.58 132.46 258.58 132.46 266.2 123.39 266.2 123.39 258.58 119.4 258.58 119.4 277.81 123.39 277.81 123.39 269.68 132.46 269.68 132.46 277.81 136.37 277.81"/>
    <polygon class="cls-2" points="157.49 268.74 164.6 277.81 169.89 277.81 161.55 267.8 169.46 258.58 164.52 258.58 157.49 267.14 157.49 258.58 153.5 258.58 153.5 277.81 157.49 277.81 157.49 268.74"/>
    <path class="cls-2" d="M181.86,278.1c5.51,0,10.08-3.77,10.08-10.08s-3.85-9.72-9.43-9.72-9.94,3.77-9.94,10.08c-.07,5.73,3.05,9.72,9.29,9.72ZM182.23,261.77c3.26,0,5.44,2.25,5.44,6.53s-2.47,6.38-5.59,6.38c-3.77,0-5.3-2.9-5.3-6.53-.07-4.21,2.54-6.38,5.44-6.38h0Z"/>
    <path class="cls-2" d="M203.56,267.36l6.6,10.38h5.3v-19.15h-3.85l.07,8.42c0,2.47,0,4.35.07,5.51h0c-.65-1.31-1.38-2.61-2.1-3.77l-6.46-10.23h-5.3v19.15h3.92v-10.01c0-1.81-.07-2.97-.15-3.99h.07c.36,1.23,1.02,2.54,1.81,3.7h0Z"/>
    <path class="cls-2" d="M227.14,274.83c-1.6,0-3.12-.29-4.21-.73l-.15,3.56c1.09.29,2.61.51,3.92.51,4.93,0,8.27-2.54,8.27-6.46,0-6.02-8.56-4.57-8.56-7.84,0-1.45,1.09-2.39,3.48-2.39,1.09,0,2.61.22,3.63.58l.15-3.41c-1.09-.15-2.54-.36-3.63-.36-5.08,0-7.84,2.39-7.84,6.02,0,6.24,8.42,4.43,8.42,7.84,0,1.89-1.67,2.68-3.48,2.68h0Z"/>
    <polygon class="cls-2" points="248.1 277.81 248.1 261.99 253.47 261.99 253.47 258.58 238.82 258.58 238.82 261.99 244.11 261.99 244.11 277.81 248.1 277.81"/>
    <path class="cls-2" d="M99.37,204.24l-.44-.07c-10.08-1.23-10.16-3.26-10.38-11.61v-14.58l16.83,18.28c6.38,7.04,9.94,10.88,19.3,10.88,1.74,0,3.63-.15,5.88-.36l.44-.07.07-2.25h-.51c-5.59-.22-8.71-3.41-14.8-9.79-.87-.87-1.74-1.81-2.68-2.76l-16.4-18.28,6.6-6.75,1.38-1.45c5.51-5.8,11.83-12.41,20.24-13.35l.51-.07v-2.25h-22.2v2.25l.51.07c2.18.22,3.41.73,3.7,1.6.65,1.6-1.31,4.93-5.95,10.16l-12.91,13.71v-13.86c.22-8.42.29-10.38,8.2-11.61l.44-.07v-2.25h-27.06v2.25l.51.07c9.36,1.23,9.36,3.26,9.65,11.61v28.73c-.22,8.42-.29,10.38-9.65,11.61l-.51.07v2.25h29.24v-2.1h0Z"/>
    <path class="cls-2" d="M173.16,204.24l-.51-.07c-10.52-1.23-10.96-3.63-10.96-13.57v-37.15h4.35c9.65,0,13.57,2.97,16.18,12.33l.15.51,2.1-.44-1.02-15.96h-51.8l-1.02,15.96,2.1.44.15-.51c2.61-9.29,6.53-12.33,16.18-12.33h4.35v37.15c0,9.94-.44,12.33-10.96,13.57l-.44.07v2.25h31.13v-2.25h0Z"/>
    <path class="cls-2" d="M256.3,152.22l.44-.07v-2.25h-29.24v2.25l.44.07c10.38,1.52,10.38,2.83,10.38,11.61v11.25h-29.46v-11.32c0-8.78,0-10.08,10.38-11.61l.44-.07v-2.25h-29.24v2.25l.44.07c9.36,1.23,9.43,3.26,9.65,11.61v28.73c-.29,8.42-.29,10.38-9.65,11.61l-.44.07v2.25h29.24v-2.25l-.44-.07c-10.38-1.52-10.38-2.83-10.38-11.61v-12.91h29.46v12.91c0,8.78,0,10.08-10.38,11.61l-.44.07v2.25h29.24v-2.25l-.44-.07c-9.36-1.23-9.43-3.26-9.65-11.61v-28.73c.22-8.34.29-10.3,9.65-11.54h0Z"/>
    <path class="cls-2" d="M94.73,75.82c-.22.44-1.52,3.19.44,6.17,2.1,3.26,5.73,2.68,5.88,2.68,2.47,3.12,6.67,6.89,10.08,5.95,0,0,21.48-9.94,51.22-10.01h0c29.82.07,51.29,10.01,51.29,10.01,3.41.94,7.55-2.76,10.08-5.95.15,0,3.7.58,5.88-2.68,1.96-2.97.65-5.8.44-6.17,1.81-2.9,4.5-5.44,4.5-5.44,1.31-1.16,2.03-2.83,2.03-4.64,0-3.48-2.9-6.38-6.38-6.38-.29,0-.58,0-.8.07-.07-.15-.07-.36-.15-.51,1.74-.87,2.9-2.68,2.9-4.72,0-2.97-2.39-5.37-5.37-5.37-1.02,0-1.89.29-2.68.73-.15-.15-.29-.36-.44-.51.8-.8,1.38-1.89,1.38-3.12,0-2.47-1.96-4.43-4.43-4.43-1.52,0-2.83.73-3.63,1.89-.29-.15-.51-.36-.8-.51.51-.65.8-1.45.8-2.39,0-2.18-1.81-3.99-3.99-3.99-1.74,0-3.19,1.09-3.77,2.68-.44-.15-.87-.36-1.31-.51.36-.58.51-1.16.51-1.81,0-2.03-1.6-3.63-3.63-3.63-1.81,0-3.34,1.31-3.56,3.05-.29-.07-.51-.15-.8-.22-.58-2.1-2.54-3.7-4.86-3.7-.51,0-1.02.07-1.45.22-.22-.15-.36-.29-.58-.44v-.22c0-2.39-1.96-4.28-4.28-4.28-.94,0-1.81.29-2.47.8-.15-.07-.36-.15-.51-.22v-.07c0-2.18-1.74-3.85-3.92-3.85-1.45,0-2.68.8-3.34,2.03-.29-.07-.58-.15-.87-.15v-.15c0-1.96-1.6-3.56-3.56-3.56-1.67,0-3.12,1.23-3.48,2.76-.36,0-.65-.07-1.02-.07.44-1.02.65-2.1.65-3.26,0-3.19-1.81-6.02-4.5-7.4,0,0-1.02-.51-2.39-.8v-6.38h3.56c.15-.15.36-.65.36-1.52s-.22-1.31-.36-1.52h-3.63V.58c-.15-.15-.58-.36-1.45-.36h0c-.87,0-1.38.22-1.52.36v3.56h-3.56c-.15.15-.36.65-.36,1.45s.22,1.38.36,1.52h3.56v6.38c-1.38.29-2.32.8-2.32.8-2.68,1.38-4.5,4.21-4.5,7.4,0,1.16.22,2.25.65,3.26-.36,0-.73.07-1.02.07-.36-1.6-1.74-2.83-3.41-2.83-1.96,0-3.56,1.6-3.56,3.56v.15c-.29.07-.65.15-.94.15-.65-1.16-1.89-2.03-3.34-2.03-2.1,0-3.92,1.74-3.92,3.85v.07c-.15.07-.36.15-.51.22-.73-.51-1.52-.8-2.47-.8-2.39,0-4.28,1.96-4.28,4.28v.22c-.22.15-.36.29-.58.44-.44-.15-.94-.22-1.45-.22-2.32,0-4.28,1.6-4.86,3.7-.29.07-.51.15-.8.22-.29-1.74-1.74-3.05-3.56-3.05-2.03,0-3.63,1.67-3.63,3.63,0,.65.22,1.31.51,1.81-.44.15-.87.36-1.31.51-.58-1.52-2.03-2.68-3.77-2.68-2.25,0-4.06,1.81-4.06,3.99,0,.87.29,1.67.8,2.39-.29.15-.51.36-.8.51-.8-1.16-2.1-1.89-3.63-1.89-2.47,0-4.43,1.96-4.43,4.43,0,1.23.51,2.39,1.38,3.19-.15.15-.29.36-.44.51-.8-.51-1.74-.73-2.68-.73-2.97,0-5.37,2.39-5.37,5.37,0,2.1,1.16,3.85,2.9,4.72-.07.15-.15.36-.15.51-.29-.07-.58-.07-.8-.07-3.48,0-6.38,2.9-6.38,6.38,0,1.89.8,3.48,2.03,4.64,0,.22,2.76,2.83,4.57,5.66h0ZM100.24,82.5c-2.18,0-3.92-1.74-3.92-3.92,0-.8.29-1.6.65-2.18.73-1.02,1.89-1.74,3.26-1.74s2.54.65,3.26,1.74c.44.65.65,1.38.65,2.25,0,2.1-1.74,3.85-3.92,3.85h0ZM162.35,69.65c-2.18,0-3.92-1.74-3.92-3.92s1.74-3.92,3.92-3.92,3.92,1.74,3.92,3.92-1.81,3.92-3.92,3.92ZM162.35,39.25c2.18,0,3.92,1.74,3.92,3.85s-1.74,3.85-3.92,3.85-3.85-1.74-3.85-3.85c-.07-2.18,1.67-3.85,3.85-3.85ZM159.3,34.9c0-1.67,1.38-3.05,3.05-3.05s3.05,1.38,3.05,3.05-1.38,3.05-3.05,3.05-3.05-1.38-3.05-3.05ZM162.35,48.47c2.68,0,4.79,2.18,4.79,4.79,0,1.23-.44,2.32-1.16,3.19-1.02-.8-2.25-1.23-3.63-1.23s-2.61.44-3.63,1.23c-.73-.87-1.16-1.96-1.16-3.19,0-2.61,2.1-4.79,4.79-4.79h0ZM224.45,82.5c-2.18,0-3.92-1.74-3.92-3.92,0-1.09.44-2.03,1.09-2.76.73-.73,1.74-1.23,2.83-1.23,1.67,0,3.12,1.09,3.7,2.54.15.44.29.87.29,1.38-.07,2.25-1.81,3.99-3.99,3.99h0ZM230.18,61.53c2.32,0,4.21,1.89,4.21,4.21,0,1.52-1.45,3.41-2.83,4.21-1.09-1.31-2.76-2.18-4.64-2.18h-.51c-.36-.58-.58-1.31-.58-2.1.07-2.25,1.96-4.14,4.35-4.14h0ZM226.77,50.94c1.74,0,3.19,1.45,3.19,3.19s-1.45,3.19-3.19,3.19-3.19-1.45-3.19-3.19,1.38-3.19,3.19-3.19ZM220.53,43.54c1.23,0,2.25,1.02,2.25,2.25s-1.02,2.25-2.25,2.25-2.25-1.02-2.25-2.25,1.02-2.25,2.25-2.25ZM212.92,38.6c1.02,0,1.81.8,1.81,1.81s-.8,1.81-1.81,1.81-1.81-.87-1.81-1.81.8-1.81,1.81-1.81ZM204.79,35.19c.8,0,1.45.65,1.45,1.45s-.65,1.45-1.45,1.45-1.45-.65-1.45-1.45.58-1.45,1.45-1.45ZM199.93,39.62c12.33,3.92,18.72,9.87,21.62,15.82,2.39,5.44,1.96,6.75,2.18,10.16.07,1.23.36,2.03.58,2.76-2.83,1.52-3.12,3.7-3.19,3.85-.15-.07-.22-.15-.36-.22-1.02-.87-2.32-1.38-3.77-1.38-4.5.07-7.26,4.43-5.44,8.63.44,1.02,2.9,4.72,7.84,2.9.29.36.65.73,1.02,1.09-1.38,2.76-4.72,4.06-7.69,2.9-2.9-1.16-5.01-3.56-5.8-6.38-2.18,1.96-5.22,2.9-8.34,2.25-3.34-.65-5.44-3.85-4.86-7.18.07-.29.36-1.52.51-1.96.44,2.32,2.25,4.21,4.64,4.72,3.19.65,6.38-1.45,6.97-4.64.65-3.19-1.45-6.31-4.72-6.97-.36-.07-.73,0-1.09,0,.07-.29.22-.58.22-.58.15-.73.15-1.38,0-2.1,2.9-.8,5.08-3.48,5.08-6.6,0-2.54-1.38-4.79-3.48-5.95,1.74-1.02,2.9-2.83,2.9-4.93,0-2.97-2.32-5.44-5.22-5.66.29-.15.36-.29.44-.51h0ZM195.65,58.48c-.51-.07-1.02-.15-1.45-.07-.22-.51-.29-1.09-.29-1.67,0-2.61,2.1-4.72,4.72-4.72s4.72,2.1,4.72,4.72c0,2.25-1.6,4.14-3.7,4.57-.87-1.38-2.25-2.47-3.99-2.83h0ZM202.69,45.78c0,1.96-1.6,3.56-3.56,3.56s-3.56-1.6-3.56-3.56,1.6-3.56,3.56-3.56,3.56,1.6,3.56,3.56ZM195.5,34.32c1.6,0,2.9,1.31,2.9,2.9s-1.31,2.9-2.9,2.9-2.9-1.31-2.9-2.9,1.31-2.9,2.9-2.9ZM193.54,64.87c2.18,0,3.92,1.74,3.92,3.92s-1.74,3.92-3.92,3.92-3.92-1.74-3.92-3.92,1.81-3.92,3.92-3.92ZM189.19,29.61c1.16,0,2.1.94,2.1,2.1s-.94,2.1-2.1,2.1-2.1-.94-2.1-2.1.94-2.1,2.1-2.1ZM182.3,26.27c.94,0,1.74.73,1.74,1.67s-.8,1.67-1.74,1.67-1.67-.73-1.67-1.67.73-1.67,1.67-1.67ZM174.54,24.38c.8,0,1.38.58,1.38,1.38s-.58,1.38-1.38,1.38-1.38-.58-1.38-1.38c0-.73.58-1.38,1.38-1.38ZM189.99,58.12l.87,1.52c-1.09.87-1.89,2.1-2.18,3.56v.58c-.36-.15-.65-.29-1.02-.36-3.19-.65-6.31,1.45-6.97,4.72-.65,3.19,1.45,6.31,4.72,6.97,2.47.51,4.79-.65,6.09-2.61-.07.51-.22,1.67-.29,2.03-.65,3.34-3.85,5.51-7.18,4.86-3.12-.58-5.37-2.61-6.67-5.22-1.74,2.32-4.35,3.85-7.55,3.85s-6.09-2.76-6.09-6.09c0-.29.07-1.52.07-2.03.87,2.18,3.05,3.77,5.51,3.77,3.26,0,5.95-2.68,5.95-5.95s-2.68-5.95-5.95-5.95c-.36,0-.73.15-1.09.22.07-.29.07-.65.07-.65,0-.58-.07-1.16-.22-1.67l2.1-1.38s-.36-20.1-3.99-29.09c.15-.07.22-.15.36-.22,29.38,1.6,26.84,21.98,23.43,29.17h0ZM168.44,21.19v.36c0,1.23-.36,2.32-1.02,3.26h-2.03c.07-.22.07-.51.07-.8,0-1.23-.65-2.25-1.67-2.83h4.64ZM163.8,15.68c1.74.44,3.26,1.67,4.06,3.19h-4.06v-3.19ZM162.35,22.64c.73,0,1.38.58,1.38,1.38s-.58,1.38-1.38,1.38-1.38-.58-1.38-1.38.58-1.38,1.38-1.38ZM162.35,26.7c1.16,0,2.03.94,2.03,2.03s-.94,2.03-2.03,2.03-2.03-.94-2.03-2.03c0-1.16.87-2.03,2.03-2.03ZM160.82,15.68v3.26h-3.99c.8-1.6,2.25-2.9,3.99-3.26ZM156.18,21.19h4.5c-1.02.58-1.67,1.6-1.67,2.83,0,.29.07.51.07.8h-1.96c-.58-.94-1.02-2.03-1.02-3.26.07-.15.07-.29.07-.36h0ZM150.16,24.38c.73,0,1.38.58,1.38,1.38s-.58,1.38-1.38,1.38-1.38-.58-1.38-1.38.65-1.38,1.38-1.38ZM142.32,26.27c.94,0,1.67.73,1.67,1.67s-.73,1.67-1.67,1.67-1.74-.73-1.74-1.67c.07-.94.8-1.67,1.74-1.67ZM135.5,29.61c1.16,0,2.1.94,2.1,2.1s-.94,2.1-2.1,2.1-2.1-.94-2.1-2.1.94-2.1,2.1-2.1ZM158.07,28.88c.15.07.22.15.36.22-3.56,9-3.99,29.09-3.99,29.09l2.1,1.38c-.15.51-.22,1.09-.22,1.67,0,0,.07.36.07.65-.36-.07-.73-.22-1.09-.22-3.26,0-5.95,2.68-5.95,5.95s2.68,5.95,5.95,5.95c2.47,0,4.64-1.52,5.51-3.77.07.44.07,1.67.07,2.03,0,3.41-2.76,6.09-6.09,6.09-3.12,0-5.73-1.52-7.55-3.85-1.31,2.61-3.56,4.64-6.67,5.22-3.34.65-6.53-1.52-7.18-4.86-.07-.29-.22-1.52-.29-2.03,1.31,1.96,3.63,3.12,6.09,2.61,3.19-.65,5.3-3.77,4.72-6.97-.58-3.19-3.77-5.3-6.97-4.72-.36.07-.65.29-1.02.36v-.58c-.29-1.45-1.09-2.68-2.18-3.56l.87-1.52c-3.41-7.11-5.95-27.5,23.43-29.17h0ZM134.99,68.78c0,2.18-1.74,3.92-3.92,3.92s-3.92-1.74-3.92-3.92,1.74-3.92,3.92-3.92,3.92,1.74,3.92,3.92ZM125.06,61.31c-2.1-.51-3.7-2.32-3.7-4.57,0-2.61,2.1-4.72,4.72-4.72s4.72,2.1,4.72,4.72c0,.58-.15,1.16-.29,1.67-.51,0-.94,0-1.45.07-1.74.36-3.19,1.45-3.99,2.83h0ZM129.19,34.32c1.6,0,2.9,1.31,2.9,2.9s-1.31,2.9-2.9,2.9-2.9-1.31-2.9-2.9,1.31-2.9,2.9-2.9ZM125.56,42.23c1.96,0,3.56,1.6,3.56,3.56s-1.6,3.56-3.56,3.56-3.56-1.6-3.56-3.56c-.07-1.96,1.52-3.56,3.56-3.56ZM119.9,35.19c.8,0,1.45.65,1.45,1.45s-.65,1.45-1.45,1.45-1.45-.65-1.45-1.45.65-1.45,1.45-1.45ZM111.78,38.6c1.02,0,1.81.8,1.81,1.81s-.8,1.81-1.81,1.81-1.89-.87-1.89-1.81c0-1.02.87-1.81,1.89-1.81ZM124.69,39.62c.07.15.22.36.29.51-2.9.29-5.22,2.68-5.22,5.66,0,2.1,1.16,3.99,2.9,4.93-2.1,1.16-3.48,3.41-3.48,5.95,0,3.19,2.18,5.8,5.08,6.6-.07.65-.07,1.38,0,2.1,0,0,.15.29.22.58-.36,0-.73-.07-1.09,0-3.19.65-5.3,3.77-4.72,6.97.65,3.19,3.77,5.3,6.97,4.64,2.47-.51,4.21-2.39,4.64-4.72.15.44.44,1.67.51,1.96.65,3.34-1.52,6.53-4.79,7.18-3.12.58-6.17-.29-8.34-2.25-.8,2.83-2.9,5.22-5.8,6.38-2.97,1.16-6.24-.15-7.69-2.9.36-.29.73-.65,1.02-1.09,4.93,1.74,7.4-1.89,7.84-2.9,1.81-4.21-.94-8.63-5.44-8.63-1.45,0-2.76.51-3.77,1.38-.15.07-.22.15-.36.22-.07-.15-.36-2.32-3.19-3.85.22-.73.58-1.52.58-2.76.22-3.48-.22-4.72,2.18-10.16,2.97-5.95,9.36-11.9,21.69-15.82ZM104.16,43.54c1.23,0,2.25,1.02,2.25,2.25s-1.02,2.25-2.25,2.25-2.25-1.02-2.25-2.25,1.02-2.25,2.25-2.25ZM94.73,54.13c0-1.74,1.45-3.19,3.19-3.19s3.19,1.45,3.19,3.19-1.45,3.19-3.19,3.19c-1.74,0-3.19-1.45-3.19-3.19ZM94.51,61.53c2.32,0,4.21,1.89,4.21,4.21,0,.8-.22,1.45-.58,2.1h-.51c-1.89,0-3.48.87-4.64,2.18-1.31-.8-2.76-2.68-2.76-4.21.07-2.39,1.96-4.28,4.28-4.28h0Z"/>
    <path class="cls-2" d="M205.81,107.24c.58,0,1.09-.36,1.31-.87.29-.73-.07-1.52-.8-1.74-13.86-5.15-28.44-7.76-43.46-7.76h-.94c-14.95,0-29.6,2.61-43.46,7.76-.73.29-1.09,1.09-.8,1.74.29.73,1.09,1.09,1.74.8,13.57-5.01,27.86-7.55,42.52-7.55h.94c14.66,0,28.95,2.54,42.52,7.55.07,0,.29.07.44.07h0Z"/>
    <path class="cls-2" d="M214.15,99.11l-2.03-5.37-.29-.8-2.61.44c-14.22-5.44-29.17-8.34-44.47-8.63l-2.47-1.38-2.47,1.38c-15.31.29-30.25,3.19-44.47,8.63l-2.61-.44-.29.8-2.03,5.37,5.8,3.19,1.89-2.25c13.13-4.93,26.99-7.62,41.21-7.91l2.97,1.67,2.97-1.67c14.22.29,28.01,2.97,41.21,7.91l1.89,2.25,5.8-3.19h0ZM115.84,99.69c-.8-.44-1.89-1.02-2.68-1.45.36-.87.73-2.03,1.09-2.83.94.15,2.9.44,4.64.8-1.16,1.23-2.47,2.68-3.05,3.48h0ZM140.22,92.73l-4.64.94c-1.31.29-2.54-.58-2.83-1.81-.29-1.31.58-2.54,1.81-2.76l4.64-.94c1.31-.29,2.54.58,2.83,1.81.29,1.23-.51,2.47-1.81,2.76h0ZM162.35,91.42l-4.86-2.76,4.86-2.76,4.86,2.76-4.86,2.76h0ZM191.88,91.86c-.29,1.31-1.52,2.1-2.83,1.81l-4.64-.94c-1.31-.29-2.1-1.52-1.89-2.76.29-1.31,1.52-2.1,2.83-1.81l4.64.94c1.31.22,2.18,1.45,1.89,2.76h0ZM205.88,96.06c1.74-.29,3.63-.58,4.64-.8.29.87.73,1.96,1.09,2.83-.8.44-1.89,1.02-2.68,1.45-.73-.65-1.96-2.1-3.05-3.48h0Z"/>
  </g>
</svg>