<?xml version="1.0" encoding="UTF-8"?>
<svg id="Layer_1" data-name="Layer 1" xmlns="http://www.w3.org/2000/svg" viewBox="0 0 740.81 114.17">
  <defs>
    <style>
      .cls-1 {
        fill: #fffffd;
      }

      .cls-1, .cls-2, .cls-3, .cls-4 {
        stroke: #1d1d1b;
        stroke-miterlimit: 2.61;
      }

      .cls-1, .cls-3, .cls-4 {
        stroke-width: 2.69px;
      }

      .cls-2 {
        stroke-width: 1.68px;
      }

      .cls-2, .cls-3 {
        fill: none;
      }

      .cls-5 {
        fill: #1d1d1b;
      }

      .cls-4 {
        fill: #e40428;
      }
    </style>
  </defs>
  <polygon class="cls-1" points=".64 96.07 185.84 96.07 185.84 112.73 .64 112.73 .64 96.07"/>
  <path class="cls-2" d="M18.9,96.07v-10.36M37.53,96.07v-10.36M56.16,96.07v-10.36M74.42,96.07v-10.36"/>
  <polygon class="cls-4" points="185.84 96.07 370.29 96.07 370.29 112.73 185.84 112.73 185.84 96.07"/>
  <polygon class="cls-1" points="370.29 96.07 555.49 96.07 555.49 112.73 370.29 112.73 370.29 96.07"/>
  <polygon class="cls-4" points="555.49 96.07 740.69 96.07 740.69 112.73 555.49 112.73 555.49 96.07"/>
  <path class="cls-3" d="M740.81,112.73v-16.66M.51,96.07v-17.64M93.05,96.07v-13.82M185.84,96.2v-17.77M370.29,96.07v-17.64M555.37,96.07v-17.64M740.44,96.07v-17.64"/>
  <polygon class="cls-5" points="78.49 12.54 71.95 12.54 71.95 53.38 90.34 53.38 90.34 47.21 78.49 47.21 78.49 12.54"/>
  <path class="cls-5" d="M109.96,53.38h7.16l4.44-9.87h16.9l4.44,9.87h7.03l-19.99-43.68-19.99,43.68ZM129.94,24.51l5.68,12.96h-11.35l5.68-12.96Z"/>
  <polygon class="cls-5" points="200.27 40.18 170.78 9.34 170.78 53.38 177.45 53.38 177.45 25.38 206.81 56.22 206.81 12.54 200.27 12.54 200.27 40.18"/>
  <polygon class="cls-5" points="233.71 18.59 242.96 18.59 242.96 53.38 249.63 53.38 249.63 18.59 258.88 18.59 258.88 12.54 233.71 12.54 233.71 18.59"/>
  <polygon class="cls-5" points="302.8 40.43 289.11 8.84 280.35 53.38 287.13 53.38 291.33 29.32 302.8 55.48 314.28 29.32 318.6 53.38 325.38 53.38 316.62 8.84 302.8 40.43"/>
  <path class="cls-5" d="M367.21,8.72c2.22,0,3.95-1.85,3.95-3.95,0-2.22-1.85-3.95-3.95-3.95-2.22,0-3.95,1.73-3.95,3.95s1.73,3.95,3.95,3.95h0Z"/>
  <path class="cls-5" d="M356.23,8.72c2.22,0,3.95-1.85,3.95-3.95,0-2.22-1.85-3.95-3.95-3.95-2.22,0-3.95,1.73-3.95,3.95-.12,2.22,1.73,3.95,3.95,3.95h0Z"/>
  <path class="cls-5" d="M341.67,53.38h7.16l4.44-9.87h16.9l4.44,9.87h7.16l-20.11-43.68-19.99,43.68ZM361.66,24.51l5.68,12.96h-11.35l5.68-12.96Z"/>
  <polygon class="cls-5" points="398.3 18.59 407.56 18.59 407.56 53.38 414.09 53.38 414.09 18.59 423.47 18.59 423.47 12.54 398.3 12.54 398.3 18.59"/>
  <polygon class="cls-5" points="452.84 53.38 475.54 53.38 475.54 47.21 459.38 47.21 459.38 34.14 475.17 34.14 475.17 27.97 459.38 27.97 459.38 18.59 475.54 18.59 475.54 12.54 452.84 12.54 452.84 53.38"/>
  <path class="cls-5" d="M530.44,24.51c0-4.07-2.1-7.9-5.55-10.12-3.45-1.6-7.16-2.22-10.86-1.97h-6.79v40.84h6.54v-16.53h.74l11.35,16.29.25.37h8.02l-12.46-17.52c5.31-1.11,9.01-5.92,8.76-11.35ZM524.28,24.76c0,4.44-2.71,6.29-9.5,6.29h-.74v-12.46h.49c6.66-.12,9.75,1.85,9.75,6.17Z"/>
  <rect class="cls-5" x="560.06" y="12.54" width="6.54" height="40.96"/>
  <polygon class="cls-5" points="597.94 53.38 620.76 53.38 620.76 47.21 604.6 47.21 604.6 34.14 620.27 34.14 620.27 27.97 604.6 27.97 604.6 18.59 620.76 18.59 620.76 12.54 597.94 12.54 597.94 53.38"/>
  <polygon class="cls-5" points="648.89 12.54 648.89 18.59 658.27 18.59 658.27 53.38 664.81 53.38 664.81 18.59 674.06 18.59 674.06 12.54 648.89 12.54"/>
</svg>