<?xml version="1.0" encoding="UTF-8"?>
<svg id="Layer_1" data-name="Layer 1" xmlns="http://www.w3.org/2000/svg" viewBox="0 0 740.81 194.5">
  <defs>
    <style>
      .cls-1 {
        fill: #231f20;
      }
    </style>
  </defs>
  <g>
    <rect class="cls-1" x="72.95" y="59.55" width="58.86" height="131.19"/>
    <rect class="cls-1" y=".73" width="58.86" height="190.01"/>
    <path class="cls-1" d="M201.59,164.4c0-17.3-13.99-31.45-31.39-31.45s-31.09,14.15-31.09,31.45,13.99,31.14,31.09,31.14,31.39-13.84,31.39-31.14"/>
    <path class="cls-1" d="M277.09,59.55v76.14c0,6.75-2.78,10.13-8.34,10.13s-8.46-3.38-8.46-10.13V59.55h-58.69v61.48c0,21.66,5.09,38.58,15.26,50.77,13.09,15.62,30.37,22.7,51.83,22.7s38.73-7.09,51.83-22.7c10.17-12.18,15.26-29.11,15.26-50.77v-61.48h-58.69Z"/>
  </g>
  <g>
    <g>
      <path class="cls-1" d="M459.67,115.84h-4.67l-.07-.12-27.46-46.16v46.28h-5.18v-56.29h4.59l.07.12,27.53,46.31v-46.43h5.18v56.29Z"/>
      <path class="cls-1" d="M657.33,115.84h-4.67l-.07-.12-27.46-46.16v46.28h-5.18v-56.29h4.59l.07.12,27.53,46.31v-46.43h5.18v56.29Z"/>
      <path class="cls-1" d="M399.6,115.84h-29.71v-56.29h5.17v51.27h24.53v5.02Z"/>
      <path class="cls-1" d="M410.87,115.84h-5.17v-56.29h5.17v56.29Z"/>
      <path class="cls-1" d="M529.23,116.47c-11.15,0-18.93-8.08-18.93-19.63v-18.44c0-11.61,7.79-19.71,18.93-19.71s18.93,8.11,18.93,19.71v18.44c0,11.56-7.79,19.63-18.93,19.63ZM529.23,63.69c-8.22,0-13.75,5.81-13.75,14.46v18.83c0,8.66,5.53,14.47,13.75,14.47s13.75-5.81,13.75-14.47v-18.75c0-8.7-5.53-14.54-13.75-14.54ZM536.43,56.24c-1.71,0-3.15-1.44-3.15-3.15s1.44-3.15,3.15-3.15,3.15,1.45,3.15,3.15-1.44,3.15-3.15,3.15ZM522.01,56.24c-1.71,0-3.15-1.44-3.15-3.15s1.45-3.15,3.15-3.15,3.15,1.45,3.15,3.15-1.45,3.15-3.15,3.15Z"/>
      <path class="cls-1" d="M563.58,115.84h-5.17v-56.29h16.16c11.64,0,19.16,7.55,19.16,19.24v2.06c0,11.63-7.34,18.85-19.16,18.85h-10.99v16.14ZM563.58,94.68h10.83c8.86,0,14.15-5.2,14.15-13.91v-1.98c0-8.99-5.16-14.15-14.15-14.15h-10.83v30.04Z"/>
      <path class="cls-1" d="M607.92,115.84h-5.18v-56.29h5.18v56.29Z"/>
      <path class="cls-1" d="M686.38,116.62c-11.1,0-18.85-8.07-18.85-19.64v-18.75c0-11.56,7.75-19.64,18.85-19.64s18.69,7.88,18.93,19.16v.26s-5.17,0-5.17,0v-.25c-.16-8.46-5.68-14.15-13.76-14.15-8.56,0-13.67,5.91-13.67,15.81v17.65c0,8.65,5.5,14.46,13.67,14.46s13.75-5.81,13.75-14.46v-2.92h-13.92v-4.69h19.1v7.53c0,11.57-7.78,19.64-18.93,19.64Z"/>
      <path class="cls-1" d="M509.27,115.84h-6.16l-.07-.1-19.57-26.1h-5.77v26.19h-5.17v-56.29h5.17v25.24h5.85l16.71-25.24h5.92l-18.3,27.71,21.4,28.58Z"/>
    </g>
    <g>
      <path class="cls-1" d="M456.75,190.74h-4.67l-.07-.12-27.46-46.15v46.28h-5.18v-56.29h4.59l.07.12,27.54,46.31v-46.44h5.18v56.29Z"/>
      <path class="cls-1" d="M503.39,190.74h-4.95l-.06-.17-18.38-56.12h5.44l.06.17,15.42,47.94,15.56-48.11h5.44l-.12.33-18.41,55.96Z"/>
      <path class="cls-1" d="M388.03,191.37c-11.14,0-18.92-8.07-18.92-19.64v-37.28h5.17v37.44c0,8.65,5.53,14.46,13.75,14.46s13.76-5.81,13.76-14.46v-37.44h5.17v37.28c0,11.56-7.78,19.64-18.93,19.64Z"/>
      <path class="cls-1" d="M474.06,190.74h-5.17v-56.29h5.17v56.29Z"/>
      <path class="cls-1" d="M602.05,190.73h-6.26l-.08-.1-13.45-17.63h-10.46v17.73h-5.18v-56.29h16.4c11.68,0,18.93,7.1,18.93,18.53v2.05c0,9.26-5.35,15.63-14.35,17.12l14.46,18.59ZM571.8,167.99h10.82c8.86,0,14.15-4.84,14.15-12.96v-2.21c0-8.56-5.02-13.28-14.15-13.28h-10.82v28.45Z"/>
      <path class="cls-1" d="M660,190.73h-5.17v-56.29h5.17v56.29Z"/>
      <path class="cls-1" d="M559.04,190.74h-31.44v-56.29h30.73v5.09h-25.55v20.39h18.83v4.7h-18.83v21.09h26.27v5.02Z"/>
      <path class="cls-1" d="M627.87,160.34c-7.39-1.85-14.37-3.6-14.37-11.48,0-6.48,4.43-10.35,12.44-10.35,6.11,0,12.62,3.5,12.93,13.21h5.19c-.31-13.41-9.42-18.22-17.96-18.22-11.14,0-17.7,5.89-17.7,15.36,0,11.65,9.3,14,17.51,16.08,7.15,1.8,13.91,3.51,13.91,10.91,0,8.04-6.98,10.9-13.51,10.9-8.56,0-13.67-5.58-13.67-14.94v-.25h-5.1v.25c0,12.07,7.37,19.88,18.77,19.88s18.69-6.25,18.69-15.92c0-11.13-8.71-13.31-17.13-15.42Z"/>
      <path class="cls-1" d="M684.97,190.73h-5.17v-51.19h-15.04v-5.1h34.7v5.1h-14.48v51.19Z"/>
      <path class="cls-1" d="M707,134.44l14.18,30.45,14.22-30.45h5.42l-17.25,35.27v21.02h-4.71v-21.02l-17.17-35.27h5.31Z"/>
    </g>
  </g>
</svg>