<?xml version="1.0" encoding="UTF-8"?>
<svg id="Layer_1" data-name="Layer 1" xmlns="http://www.w3.org/2000/svg" viewBox="0 0 740.81 119.73">
  <defs>
    <style>
      .cls-1 {
        fill: #271f17;
      }
    </style>
  </defs>
  <path class="cls-1" d="M677.16,19.45c-.19-3.93-3.43-7.05-7.41-7.05s-7.42,3.32-7.42,7.42,3.32,7.42,7.42,7.42c3.71,0,6.78-2.72,7.33-6.27,1.93.23,4.81.87,7.65,2.62,4.81,2.97,18.16,11.72,9.25,51.99-5.3,23.95-6.71,28.7-6.71,28.7h18.14s-2.95-14.41-3.25-36.63c1.13-40.21-11.33-46.32-24.99-48.19ZM727.07,52.71c-4.09,0-7.41,3.32-7.41,7.42s3.32,7.42,7.41,7.42,7.42-3.32,7.42-7.42-3.32-7.42-7.42-7.42ZM711.51,58.26c4.1,0,7.42-3.32,7.42-7.42s-3.32-7.41-7.42-7.41-7.42,3.32-7.42,7.41,3.32,7.42,7.42,7.42ZM712.05,61.58c-4.1,0-7.42,3.32-7.42,7.42s3.32,7.42,7.42,7.42,7.42-3.32,7.42-7.42-3.32-7.42-7.42-7.42ZM725.8,47.64c4.09,0,7.42-3.32,7.42-7.42s-3.32-7.41-7.42-7.41-7.42,3.32-7.42,7.41,3.32,7.42,7.42,7.42ZM716.71,32.89c0-4.1-3.32-7.42-7.42-7.42s-7.42,3.32-7.42,7.42,3.32,7.42,7.42,7.42,7.42-3.32,7.42-7.42ZM716.21,22.19c0,4.1,3.32,7.42,7.42,7.42s7.42-3.32,7.42-7.42-3.32-7.42-7.42-7.42-7.42,3.32-7.42,7.42ZM736.49,45.04c-2.4,0-4.34,1.94-4.34,4.34s1.94,4.34,4.34,4.34,4.34-1.94,4.34-4.34-1.95-4.34-4.34-4.34ZM698.67,9.05c2.4,0,4.34-1.94,4.34-4.34s-1.95-4.34-4.34-4.34-4.34,1.94-4.34,4.34,1.94,4.34,4.34,4.34ZM683.61,16.92c2.4,0,4.34-1.94,4.34-4.34s-1.95-4.34-4.34-4.34-4.34,1.94-4.34,4.34,1.94,4.34,4.34,4.34ZM674.9,40.97c0-2.4-1.94-4.34-4.34-4.34s-4.34,1.94-4.34,4.34,1.94,4.34,4.34,4.34,4.34-1.94,4.34-4.34ZM712.41,17.59c4.1,0,7.42-3.32,7.42-7.42s-3.32-7.42-7.42-7.42-7.42,3.32-7.42,7.42,3.32,7.42,7.42,7.42ZM698.46,27.05c4.1,0,7.42-3.32,7.42-7.42s-3.32-7.42-7.42-7.42-7.42,3.32-7.42,7.42,3.32,7.42,7.42,7.42ZM682.57,26.36c-4.1,0-7.42,3.32-7.42,7.42s3.32,7.42,7.42,7.42,7.42-3.32,7.42-7.42-3.32-7.42-7.42-7.42ZM680.39,50.79c0,4.1,3.32,7.42,7.42,7.42s7.42-3.32,7.42-7.42-3.32-7.42-7.42-7.42-7.42,3.32-7.42,7.42ZM671.21,47.36c-4.1,0-7.42,3.32-7.42,7.42s3.32,7.42,7.42,7.42,7.42-3.32,7.42-7.42-3.32-7.42-7.42-7.42ZM692.08,68.08c0-4.1-3.32-7.42-7.42-7.42s-7.42,3.32-7.42,7.42,3.32,7.42,7.42,7.42,7.42-3.32,7.42-7.42Z"/>
  <g>
    <path class="cls-1" d="M67,67.04c2.73-4.06,7.18-6.25,12.49-6.25s9.68,2.26,12.25,6.32c1.72,2.73,2.19,5.46,2.19,13.03v24.12h-11.71v-24.98c0-3.67-.23-5.07-1.01-6.48-1.17-1.87-3.28-3.04-5.78-3.04-5.39,0-7.88,3.98-7.88,12.49v22.01h-11.71v-42.54h11.16v5.31Z"/>
    <path class="cls-1" d="M110.01,67.04c2.73-4.06,7.18-6.25,12.49-6.25s9.68,2.26,12.25,6.32c1.72,2.73,2.19,5.46,2.19,13.03v24.12h-11.71v-24.98c0-3.67-.23-5.07-1.01-6.48-1.17-1.87-3.28-3.04-5.78-3.04-5.39,0-7.88,3.98-7.88,12.49v22.01h-11.71v-42.54h11.16v5.31Z"/>
    <g>
      <path class="cls-1" d="M238.04,98.96c-2.81,4.06-7.18,6.25-12.49,6.25s-9.68-2.34-12.26-6.32c-1.72-2.73-2.18-5.46-2.18-13.03v-24.12h11.71v24.98c0,3.67.23,5.07,1.01,6.48,1.17,1.95,3.28,3.04,5.78,3.04s4.92-1.33,6.32-3.67c1.17-1.87,1.56-4.21,1.56-8.82v-22.01h11.71v42.54h-11.16v-5.31Z"/>
      <path class="cls-1" d="M277.52,75.31c-.23-4.53-2.19-6.4-6.95-6.4-3.59,0-5.85,1.56-5.85,4.14,0,1.87,1.4,3.04,4.6,3.9l8.43,2.19c8.43,2.19,12.25,6.09,12.25,12.49,0,8.51-7.1,13.89-18.5,13.89-12.41,0-19.36-5.46-19.51-15.46h11.94c-.08,4.53,2.5,6.87,7.42,6.87,3.9,0,6.48-1.64,6.48-4.14,0-2.65-2.11-4.06-7.88-5.31-7.81-1.64-10.62-2.73-13.27-5.15-2.26-2.11-3.67-5.23-3.67-8.27,0-8.35,7.02-13.58,18.11-13.58s17.95,5.54,17.87,14.83h-11.47Z"/>
    </g>
    <path class="cls-1" d="M371.05,67.04c2.73-4.06,7.18-6.25,12.49-6.25s9.68,2.26,12.25,6.32c1.72,2.73,2.19,5.46,2.19,13.03v24.12h-11.71v-24.98c0-3.67-.23-5.07-1.01-6.48-1.17-1.87-3.28-3.04-5.78-3.04-5.38,0-7.88,3.98-7.88,12.49v22.01h-11.71v-42.54h11.16v5.31Z"/>
    <path class="cls-1" d="M417.34,61.73h12.72l8.27,32.24,8.43-32.24h12.49l-14.44,42.54h-13.43l-14.05-42.54Z"/>
    <path class="cls-1" d="M500.12,91.32c-2.66,9.21-9.91,14.21-20.45,14.21-13.27,0-21.7-8.9-21.7-22.87,0-13.19,8.59-22.17,21.31-22.17s20.92,8.97,20.92,23.26c0,.47,0,1.56-.08,2.81h-30.13c.31,6.24,3.98,9.84,9.91,9.84,3.9,0,6.56-1.72,7.81-5.08h12.41ZM488.1,78.05c-.16-5.23-3.75-8.74-8.74-8.74-5.31,0-8.43,2.96-9.45,8.74h18.19Z"/>
    <path class="cls-1" d="M503.79,61.73h11.16v5.54c2.26-4.21,6.48-6.56,11.79-6.56,1.33,0,2.03.08,3.12.47v10.15c-1.25-.31-2.03-.39-3.2-.39-8.04,0-11.16,4.06-11.16,14.52v18.81h-11.71v-42.54Z"/>
    <path class="cls-1" d="M555.56,75.31c-.23-4.53-2.19-6.4-6.95-6.4-3.59,0-5.85,1.56-5.85,4.14,0,1.87,1.4,3.04,4.61,3.9l8.43,2.19c8.43,2.19,12.25,6.09,12.25,12.49,0,8.51-7.1,13.89-18.5,13.89-12.41,0-19.36-5.46-19.51-15.46h11.94c-.08,4.53,2.5,6.87,7.42,6.87,3.9,0,6.48-1.64,6.48-4.14,0-2.65-2.11-4.06-7.88-5.31-7.81-1.64-10.61-2.73-13.27-5.15-2.26-2.11-3.67-5.23-3.67-8.27,0-8.35,7.02-13.58,18.11-13.58s17.95,5.54,17.88,14.83h-11.47Z"/>
    <path class="cls-1" d="M612.06,70.55h-6.87v19.05c0,4.61,1.25,6.4,4.45,6.4.55,0,1.01-.08,2.42-.23v8.74c-2.26.62-3.36.7-6.09.7-4.92,0-8.28-1.48-10.38-4.68-1.64-2.42-2.11-4.84-2.11-10.46v-19.51h-6.25v-8.82h6.25v-10.3h11.71v10.3h6.87v8.82Z"/>
    <path class="cls-1" d="M319.51,46.09v33.49c0,5.54.78,8.9,2.5,11.32,1.95,2.66,5.31,4.29,8.74,4.29,3.75,0,7.34-1.95,9.21-5.07,1.41-2.27,2.03-5.54,2.03-10.54v-33.49h12.33v32c0,9.83-.86,13.97-3.9,18.5-4.14,6.01-10.77,9.13-19.67,9.13s-15.54-3.04-19.67-9.13c-3.04-4.53-3.9-8.59-3.9-18.5v-32h12.33Z"/>
    <path class="cls-1" d="M160.5,60.45c7.18,0,11.48,2.11,14.75,7.18,3.43-5.15,7.34-7.18,13.58-7.18,11.79,0,19.67,9.06,19.67,22.48,0,.94,0,1.64-.08,3.12h-29.04c.16,6.71,3.59,10.85,9.13,10.85,3.51,0,6.17-1.87,7.57-5.23h12.33c-3.28,9.44-9.45,13.82-19.52,13.82-7.26,0-11.01-2.03-15.07-8.2-4.06,5.78-8.74,8.2-16,8.2-10.77,0-17.41-5.23-17.41-13.58,0-9.21,8.66-14.68,23.03-14.44l4.6.08h.94c-.08-5.93-2.81-8.97-8.12-8.97-4.45,0-6.87,2.11-7.1,6.09h-11.94c1.09-9.05,7.88-14.21,18.66-14.21ZM164.79,85.35c-8.12,0-12.49,2.11-12.49,6.17,0,3.2,2.73,5.39,6.79,5.39,6.01,0,9.52-3.98,10.07-11.32-1.95-.16-3.51-.23-4.37-.23ZM196.95,78.01c-.47-6.01-3.59-9.37-8.74-9.37-4.84,0-8.12,3.51-8.66,9.37h17.41Z"/>
    <path class="cls-1" d="M615.3,109.97c1.17.47,3.28.78,5.15.78,3.83,0,6.4-2.26,7.34-6.71l-14.99-42.31h12.8l8.2,29.51,8.35-29.51h12.49l-16.08,45.04c-3.28,9.37-7.65,12.96-15.69,12.96-2.65,0-4.37-.23-7.57-1.02v-8.74Z"/>
    <path class="cls-1" d="M-.06,45.97h12.33v47.08h23.39v11.23H-.06v-58.31Z"/>
    <path class="cls-1" d="M39.36,61.73h11.71v42.54h-11.71v-42.54Z"/>
    <path class="cls-1" d="M51.64,50.9c0,3.55-2.88,6.43-6.43,6.43s-6.43-2.88-6.43-6.43,2.88-6.43,6.43-6.43,6.43,2.88,6.43,6.43Z"/>
    <path class="cls-1" d="M402.79,61.73h11.71v42.54h-11.71v-42.54Z"/>
    <path class="cls-1" d="M415.08,50.9c0,3.55-2.88,6.43-6.43,6.43s-6.43-2.88-6.43-6.43,2.88-6.43,6.43-6.43,6.43,2.88,6.43,6.43Z"/>
    <path class="cls-1" d="M571.59,61.73h11.71v42.54h-11.71v-42.54Z"/>
    <path class="cls-1" d="M583.87,50.9c0,3.55-2.88,6.43-6.43,6.43s-6.43-2.88-6.43-6.43,2.88-6.43,6.43-6.43,6.43,2.88,6.43,6.43Z"/>
  </g>
</svg>