<?xml version="1.0" encoding="UTF-8"?>
<svg id="Layer_1" data-name="Layer 1" xmlns="http://www.w3.org/2000/svg" viewBox="0 0 740.81 357.8">
  <defs>
    <style>
      .cls-1 {
        fill: #002f5f;
        fill-rule: evenodd;
      }
    </style>
  </defs>
  <g id="layer1">
    <g id="g921">
      <path id="path867" class="cls-1" d="M247.16,185.82h-32.48v-1.39h2.4c3.34,0,4.57-1.09,4.57-4.79v-32.19c0-3.84-1.16-5.44-5.74-5.44h-1.02v-1.39h21.44v1.39h-2.69c-4.73,0-5.96.51-5.96,5v33.5c0,1.97.8,2.69,2.91,2.69h10.68c4.28,0,5.59-1.66,10.17-7.99h1.3l-5.59,10.62"/>
      <path id="path869" class="cls-1" d="M318.71,140.62v1.39c-4.87.06-6.62,2.03-6.62,6.68v19.61c0,9-5.73,18.68-21.5,18.68-13.88,0-21-7.91-21-18.31v-21.22c0-4.64-1.31-5.37-6.25-5.44v-1.39h18.67v1.39h-.65c-4,0-5.74,1.09-5.74,5.31v20.18c0,9.8,5.74,15.7,16.57,15.7,8.2,0,16.57-3.41,16.57-15.77v-16.94c0-6.97-1.1-8.21-7.13-8.49v-1.39h17.08"/>
      <path id="path871" class="cls-1" d="M360.77,185.82h-32.48v-1.39h2.4c3.34,0,4.58-1.09,4.58-4.79v-32.19c0-3.84-1.16-5.44-5.74-5.44h-1.03v-1.39h21.45v1.39h-2.69c-4.73,0-5.95.51-5.95,5v33.5c0,1.97.8,2.69,2.9,2.69h10.68c4.29,0,5.6-1.66,10.17-7.99h1.3l-5.59,10.62"/>
      <path id="path873" class="cls-1" d="M409.37,169.46h-1.37c-.59-5.15-1.96-5.72-4.96-5.72h-12.26v15.46c0,3.34,1.21,4,3.92,4h11.2c5.08,0,6.59-1.96,8.42-8.2h1.31l-1.16,10.83h-38.59v-1.39h2.04c5.81,0,6.82-1.6,6.82-5.95v-30.66c0-4.08-.93-5.82-5.8-5.82h-1.59v-1.39h34.87l.58,10.1h-1.31c-.93-6.17-2.75-7.48-5.37-7.48h-15.32v17.88h12.98c2.62,0,3.87-1.25,4.24-5.45h1.37v13.8"/>
      <path id="path875" class="cls-1" d="M460.21,129.23c0,3.63-2.97,6.62-6.59,6.62s-6.64-2.99-6.64-6.62,3.01-6.6,6.64-6.6,6.59,2.97,6.59,6.6ZM448.93,129.23c0,2.58,2.08,4.68,4.69,4.68s4.67-2.11,4.67-4.68-2.1-4.67-4.67-4.67-4.69,2.1-4.69,4.67ZM444.68,165.77l-4.22,11.39c-.51,1.39-1.47,3.57-1.47,4.61,0,1.95,1.9,2.67,5.9,2.67h1.17v1.39h-16.79v-1.39c4.72-.06,5.53-.88,7.86-7.2l13.22-36.11-.65-1.58h6.33l15.16,40.32c1.47,3.85,2.97,4.57,6.64,4.57v1.39h-20.01v-1.39h1.9c4.13,0,5.66-.43,5.66-2.46,0-1.17-.51-2.26-.78-2.98l-4.88-13.22h-15.03ZM452.08,145.65l-6.19,16.92h12.57l-6.38-16.92Z"/>
      <path id="path877" class="cls-1" d="M25.28,262.97c0,3.92,1.3,5.3,5.74,5.3h2.68v1.37H10.81v-1.37h2.7c4.43,0,5.74-1.38,5.74-5.3v-35.89H6.61c-2.91,0-4.22,1.66-5.31,8.04H0l1.16-11.75h1.37c.08.42.37.72.81.87.43.14.93.22,1.44.22h34.95c1.02,0,2.11-.22,2.26-1.09h1.37l1.17,11.75h-1.31c-1.09-6.38-2.39-8.04-5.3-8.04h-12.64v35.89"/>
      <path id="path879" class="cls-1" d="M90.72,253.3h-1.37c-.58-5.15-1.97-5.72-4.95-5.72h-12.27v15.46c0,3.36,1.24,4,3.92,4h11.19c5.09,0,6.61-1.95,8.43-8.2h1.31l-1.17,10.81h-38.58v-1.37h2.04c5.8,0,6.83-1.6,6.83-5.95v-30.67c0-4.06-.94-5.8-5.81-5.8h-1.6v-1.38h34.88l.58,10.09h-1.3c-.95-6.18-2.76-7.47-5.38-7.47h-15.33v17.87h13.01c2.61,0,3.85-1.24,4.21-5.44h1.37v13.79"/>
      <path id="path881" class="cls-1" d="M139.83,269.64v-1.37c3.34-.08,4.72-.66,4.72-2.03,0-1.23-1.6-3.71-8.94-11.05-5.81-5.81-7.55-6.89-10.75-6.53v13.58c0,4.57,1.31,6.03,5.82,6.03h.94v1.37h-19.91v-1.37h1.3c4.65,0,5.82-1.6,5.82-5.3v-31.9c0-4.36-1.97-5.23-5.82-5.23h-1.3v-1.38h19.61v1.38h-.64c-4.37,0-5.82,1.37-5.82,5.74v15.69c2.84-.29,5.09-1.6,8.15-4.65,5.66-5.66,10.09-12.2,10.09-14.52,0-1.66-1.09-2.25-5.01-2.25v-1.38h19.11v1.38c-5.16.06-7.42.8-9.59,2.97-2.26,2.26-6.83,11.34-14.46,17.15,1.31.22,2.61,1.31,5.82,4.51,7.63,7.63,11.69,13.31,14.09,15.7,1.24,1.24,3.13,2.1,8.07,2.1v1.37h-21.29"/>
      <path id="path883" class="cls-1" d="M217.65,270.15l-37.64-39.39v31.19c0,5.24,1.16,6.32,7.34,6.32v1.37h-16.85v-1.37h.29c4.51,0,5.96-1.52,5.96-4.88v-35.73c-1.67-1.17-3.56-1.76-6.1-1.82v-1.38h11.4l34.22,35.67v-28.93c0-4.43-1.31-5.23-7.13-5.37v-1.38h17.01v1.38c-5.45,0-6.61.94-6.61,3.79v40.52h-1.89"/>
      <path id="path885" class="cls-1" d="M258.48,269.64h-17.66v-1.37c4.51-.21,5.45-1.38,5.45-6.26v-30.94c0-3.92-1.38-5.02-5.45-5.23v-1.38h17.66v1.38c-4.58,0-6.17,1.02-6.17,5.89v30.8c0,4.29,1.15,5.74,6.17,5.74v1.37"/>
      <path id="path887" class="cls-1" d="M277.93,258.6c1.51,6.48,6.61,10.24,12.27,10.24,4.87,0,10.03-2.83,10.03-8.56,0-10.47-23.32-13.67-23.32-26.38,0-6.03,5.52-10.52,12.93-10.52,6.11,0,7.33,1.81,9.88,1.81.58,0,.87-.14,1.31-.72h1.16l1.24,9.21h-1.24c-2.04-5.21-6.69-8.56-11.71-8.56s-8.13,2.75-8.13,6.83c0,10.31,23.32,13.08,23.32,26.44,0,7.13-6.32,12.42-14.82,12.42-3.99,0-9.08-1.96-10.1-1.96-.66,0-1.16.37-1.45.8h-1.24l-1.53-11.03h1.39"/>
      <path id="path889" class="cls-1" d="M347.17,269.64v-1.37c3.34-.08,4.72-.66,4.72-2.03,0-1.23-1.59-3.71-8.93-11.05-5.8-5.81-7.55-6.89-10.76-6.53v13.58c0,4.57,1.3,6.03,5.82,6.03h.94v1.37h-19.9v-1.37h1.3c4.65,0,5.82-1.6,5.82-5.3v-31.9c0-4.36-1.97-5.23-5.82-5.23h-1.3v-1.38h19.62v1.38h-.65c-4.36,0-5.82,1.37-5.82,5.74v15.69c2.84-.29,5.09-1.6,8.14-4.65,5.67-5.66,10.1-12.2,10.1-14.52,0-1.66-1.09-2.25-5.02-2.25v-1.38h19.11v1.38c-5.16.06-7.41.8-9.59,2.97-2.25,2.26-6.83,11.34-14.46,17.15,1.31.22,2.61,1.31,5.81,4.51,7.63,7.63,11.7,13.31,14.1,15.7,1.23,1.24,3.13,2.1,8.06,2.1v1.37h-21.28"/>
      <path id="path891" class="cls-1" d="M392.8,249.59l-4.22,11.42c-.49,1.37-1.46,3.57-1.46,4.57,0,1.95,1.9,2.69,5.89,2.69h1.18v1.37h-16.81v-1.37c4.73-.08,5.54-.86,7.86-7.2l13.22-36.11-.65-1.58h6.32l15.19,40.32c1.44,3.84,2.97,4.58,6.63,4.58v1.37h-19.99v-1.37h1.9c4.12,0,5.66-.43,5.66-2.47,0-1.17-.51-2.26-.8-2.99l-4.86-13.22h-15.05ZM400.2,229.47l-6.17,16.93h12.57l-6.4-16.93Z"/>
      <path id="path893" class="cls-1" d="M142.66,308.29v1.38c-4.87.07-6.61,2.03-6.61,6.68v19.61c0,9.02-5.74,18.67-21.51,18.67-13.87,0-21-7.91-21-18.31v-21.2c0-4.66-1.3-5.37-6.24-5.45v-1.38h18.67v1.38h-.65c-3.99,0-5.73,1.08-5.73,5.29v20.2c0,9.82,5.73,15.7,16.56,15.7,8.21,0,16.57-3.42,16.57-15.78v-16.9c0-6.97-1.09-8.22-7.12-8.51v-1.38h17.07"/>
      <path id="path895" class="cls-1" d="M203.03,353.98l-37.63-39.37v31.17c0,5.23,1.16,6.32,7.34,6.32v1.39h-16.87v-1.39h.29c4.51,0,5.97-1.52,5.97-4.86v-35.76c-1.68-1.15-3.57-1.73-6.11-1.8v-1.38h11.42l34.21,35.66v-28.91c0-4.43-1.31-5.23-7.12-5.38v-1.38h17v1.38c-5.45,0-6.61.94-6.61,3.77v40.54h-1.9"/>
      <path id="path897" class="cls-1" d="M248.22,353.49h-17.65v-1.39c4.5-.21,5.45-1.38,5.45-6.24v-30.96c0-3.92-1.38-5.01-5.45-5.23v-1.38h17.65v1.38c-4.57,0-6.17,1.01-6.17,5.88v30.8c0,4.3,1.16,5.74,6.17,5.74v1.39"/>
      <path id="path899" class="cls-1" d="M287.73,354.63l-15.77-39.29c-1.81-4.59-2.69-5.68-7.12-5.68v-1.38h19.97v1.38c-6.68.14-8.28,1.66-6.9,5.02l13.07,32.55,11.48-30.02c.8-2.03,1.24-3.47,1.24-4.49,0-2.17-1.82-3.05-6.76-3.05v-1.38h16.85v1.38c-3.78,0-5.73,1.74-7.48,6.25l-14.97,38.71h-3.63"/>
      <path id="path901" class="cls-1" d="M356.97,337.12h-1.38c-.58-5.15-1.96-5.74-4.94-5.74h-12.27v15.48c0,3.34,1.23,4,3.92,4h11.2c5.08,0,6.61-1.96,8.42-8.22h1.31l-1.17,10.84h-38.57v-1.39h2.04c5.81,0,6.83-1.58,6.83-5.96v-30.66c0-4.06-.95-5.8-5.82-5.8h-1.6v-1.38h34.88l.59,10.09h-1.31c-.95-6.17-2.76-7.48-5.38-7.48h-15.33v17.88h13c2.61,0,3.85-1.25,4.22-5.45h1.38v13.8"/>
      <path id="path903" class="cls-1" d="M393.97,346.64c0,4.37,1.74,5.45,5.79,5.45h1.68v1.39h-20.57v-1.39h1.24c4.29,0,5.82-1.15,5.82-6.03v-30.59c0-4.49-1.24-5.8-5.45-5.8h-1.6v-1.38c1.74,0,6.18-.31,9.17-.45,2.96-.14,4.43-.21,9.15-.21,13.45,0,19.48,5.54,19.48,12.94,0,5.44-3.71,10.03-9.67,11.77,2.7,2.09,4.89,4.13,8.3,7.55l5.72,5.74c4.29,4.29,8.72,6.97,14.31,7.34v1.3c-12.69.59-15.97-2.17-22.44-8.63l-4.81-4.78c-3.2-3.21-5.72-5.32-7.47-6.47-1.82.06-2.97.14-4.96.14-1.58,0-2.53-.08-3.68-.14v12.26ZM393.97,332.98c1.74.22,2.81.14,4.49.14,8.08,0,13.36-3.41,13.36-12.13,0-6.76-3.04-11.99-14.23-11.99-1.38,0-2.3,0-3.62.14v23.83"/>
      <path id="path905" class="cls-1" d="M445.23,342.44c1.52,6.46,6.62,10.25,12.28,10.25,4.87,0,10.03-2.83,10.03-8.57,0-10.48-23.32-13.66-23.32-26.39,0-6.03,5.53-10.54,12.94-10.54,6.09,0,7.32,1.82,9.89,1.82.59,0,.86-.14,1.31-.72h1.15l1.23,9.22h-1.23c-2.03-5.23-6.68-8.59-11.69-8.59s-8.12,2.77-8.12,6.85c0,10.3,23.3,13.07,23.3,26.44,0,7.13-6.32,12.42-14.83,12.42-4,0-9.07-1.95-10.11-1.95-.65,0-1.15.35-1.44.8h-1.24l-1.52-11.05h1.38"/>
      <path id="path907" class="cls-1" d="M508.81,353.49h-17.67v-1.39c4.51-.21,5.47-1.38,5.47-6.24v-30.96c0-3.92-1.39-5.01-5.47-5.23v-1.38h17.67v1.38c-4.57,0-6.17,1.01-6.17,5.88v30.8c0,4.3,1.17,5.74,6.17,5.74v1.39"/>
      <path id="path909" class="cls-1" d="M548.39,346.78c0,3.93,1.31,5.31,5.72,5.31h2.7v1.39h-22.9v-1.39h2.69c4.44,0,5.76-1.38,5.76-5.31v-35.89h-12.64c-2.91,0-4.22,1.68-5.31,8.06h-1.31l1.15-11.77h1.37c.1.45.37.74.82.88.43.14.93.23,1.46.23h34.92c1.04,0,2.13-.23,2.26-1.11h1.41l1.15,11.77h-1.31c-1.08-6.38-2.4-8.06-5.3-8.06h-12.64v35.89"/>
      <path id="path911" class="cls-1" d="M612.36,337.12h-1.37c-.56-5.15-1.94-5.74-4.94-5.74h-12.25v15.48c0,3.34,1.21,4,3.9,4h11.2c5.07,0,6.6-1.96,8.44-8.22h1.28l-1.15,10.84h-38.57v-1.39h2.03c5.81,0,6.83-1.58,6.83-5.96v-30.66c0-4.06-.96-5.8-5.8-5.8h-1.6v-1.38h34.87l.59,10.09h-1.31c-.94-6.17-2.75-7.48-5.37-7.48h-15.32v17.88h12.99c2.62,0,3.85-1.25,4.21-5.45h1.37v13.8"/>
      <path id="path913" class="cls-1" d="M655.25,346.78c0,3.93,1.29,5.31,5.72,5.31h2.69v1.39h-22.89v-1.39h2.69c4.44,0,5.76-1.38,5.76-5.31v-35.89h-12.66c-2.9,0-4.21,1.68-5.31,8.06h-1.28l1.15-11.77h1.38c.06.45.37.74.81.88.43.14.94.23,1.44.23h34.95c1.04,0,2.11-.23,2.25-1.11h1.37l1.18,11.77h-1.31c-1.09-6.38-2.4-8.06-5.31-8.06h-12.64v35.89"/>
      <path id="path915" class="cls-1" d="M740.22,177.48c-26.44,27.75-34.48,64.06-21.27,86.44,0,0-67.97,30.74-132.22,2.72-67.66-29.5-123.27,11.68-123.27,11.68l-.07-16.62c57.13-12.83,48.32-30.43,49.67-92.18v-89.11c0-62.18-1.03-62.64-48.95-66.06V1.21s27.36-.07,73.14,0c45.76.12,70.28,0,70.28,0v13.13c-49.05,3.42-50.07,3.89-50.07,66.06,0,0-.26,46.7,0,90.43.24,43.46.83,60.79,23.43,78.33,16.33,12.67,34.03,15.74,51.4,15.98,17.32.22,44.3-7.95,57.96-22.56,13.65-14.62,18.15-28.51,18.15-28.51,4.84-10.43,9.56-23.58,14.51-38.7l13.81,1.62,3.5.5"/>
    </g>
  </g>
</svg>