<?xml version="1.0" encoding="UTF-8"?>
<svg id="Layer_1" data-name="Layer 1" xmlns="http://www.w3.org/2000/svg" viewBox="0 0 590.12 243.6">
  <defs>
    <style>
      .cls-1 {
        fill: #004990;
      }

      .cls-2 {
        fill: #a86d0a;
      }
    </style>
  </defs>
  <g>
    <path class="cls-2" d="M101.62,194.98v9.73c0,.49,2.22,1.34,2.22,1.34h-6.98s2.08-.85,2.08-1.27v-8.2l-2.17.36-.03-.39,4.88-1.56Z"/>
    <path class="cls-2" d="M146.34,195.19c-3.13.69-4.73,2.68-5.18,4.78.78-.41,1.48-.6,2.3-.6,2.28,0,3.8,1.33,3.8,3.27,0,2.14-1.83,3.63-4.45,3.63-2.88,0-4.83-1.81-4.83-4.51,0-3.38,3.3-6.78,8.29-6.78l.06.21ZM142.75,200.2c-.8,0-1.36.33-1.77.57-.04.22-.13.78-.13,1.65,0,1.21.16,3.22,1.86,3.22s1.7-1.57,1.7-2.79c0-1.1-.07-2.65-1.65-2.65Z"/>
    <path class="cls-2" d="M131.67,195.19c-3.13.69-4.73,2.68-5.18,4.78.78-.41,1.48-.6,2.3-.6,2.28,0,3.8,1.33,3.8,3.27,0,2.14-1.83,3.63-4.45,3.63-2.88,0-4.83-1.81-4.83-4.51,0-3.38,3.3-6.78,8.29-6.78l.06.21ZM128.08,200.2c-.8,0-1.36.33-1.77.57-.04.22-.13.78-.13,1.65,0,1.21.16,3.22,1.85,3.22s1.7-1.57,1.7-2.79c0-1.1-.07-2.65-1.65-2.65Z"/>
    <path class="cls-2" d="M116.9,195.19c-3.13.69-4.73,2.68-5.18,4.78.78-.41,1.48-.6,2.3-.6,2.28,0,3.8,1.33,3.8,3.27,0,2.14-1.83,3.63-4.45,3.63-2.88,0-4.83-1.81-4.83-4.51,0-3.38,3.3-6.78,8.29-6.78l.06.21ZM113.31,200.2c-.8,0-1.36.33-1.77.57-.04.22-.13.78-.13,1.65,0,1.21.16,3.22,1.86,3.22s1.7-1.57,1.7-2.79c0-1.1-.07-2.65-1.65-2.65Z"/>
    <path class="cls-2" d="M20.66,101.91c1.04.34,2.51,1.07,3.48,1.73-.15.31-.26.7-.34,1.16-.15.95.04,2.01-.2,3.52-.68,4.12-4.06,6.85-7.7,6.25-3.7-.61-6.04-4.48-5.33-8.78.34-2.09,1.39-3.32,1.46-3.73.03-.16-.05-.94-.05-.94l3.55.4s-3.58,2.34-3.9,4.27c-.47,2.88,1.37,5.22,4.55,5.74,3.24.53,6.09-1.27,6.57-4.15.3-1.85-2.07-5.48-2.07-5.48Z"/>
    <path class="cls-2" d="M53.79,49.35l-7.58,7.87s.5-2.34-.22-3.04l-5.87-5.65c-.87-.83-3.01-.13-3.01-.13l4.79-4.98s-.55,2.39.14,3.05l6.05,5.82c.54.52.83.49,1.38-.08l1.79-1.86c.95-.98,1-4.53,1-4.53l1.52,3.53Z"/>
    <path class="cls-2" d="M47.62,37.9l5.04-4.07s-.68,2.17-.01,3l5.07,6.28c.63.78,2.91.58,2.91.58l-5.04,4.07s.56-2.13,0-2.83l-5.12-6.34c-.67-.82-2.84-.69-2.84-.69Z"/>
    <path class="cls-2" d="M64.56,37.91c.65,1.06,3,1.03,3,1.03l-4.21,2.58s.78-1.93.34-2.65l-4.89-7.98c-.54-.03-2.04-.21-2.04-.21l3.58-2.19,11.62,3.06-3.21-5.25c-.77-1.25-3.14-1.04-3.14-1.04l4.48-2.75s-1.05,1.88-.64,2.54l5.69,9.3-.96.59-13.66-3.61,4.02,6.57Z"/>
    <path class="cls-2" d="M138.62,20.58s1.98,3.54,3.55,3.88c1.32.28,2.49-.35,2.73-1.46.63-2.97-5.79-4.23-4.96-8.17.41-1.91,2.36-2.89,4.74-2.39,1.54.33,2.62,1.1,2.92,1.16.14.03.27.02.48-.13l.42.09-.31,3.31s-1.95-3.2-3.48-3.53c-1.12-.24-2.08.18-2.25.96-.39,1.83,2.85,2.87,4.61,5.58.64.99.78,1.92.58,2.87-.44,2.07-2.66,3.31-5.03,2.81-1.59-.34-2.92-1.28-3.27-1.36-.18-.04-.34.03-.49.23l-.52-.11.27-3.73Z"/>
    <path class="cls-2" d="M155.03,15.52l6.14,2.07s-2.2.59-2.54,1.6l-2.58,7.65c-.32.95,1.07,2.77,1.07,2.77l-6.14-2.07s2.1-.67,2.38-1.52l2.61-7.72c.34-1-.94-2.77-.94-2.77Z"/>
    <path class="cls-2" d="M173.66,32.88l-1.37,2.71c-1.61-.06-3.76-.46-5.33-1.25-4.6-2.32-5.53-6.01-3.76-9.5,1.68-3.33,5.67-4.4,9.54-2.44,1.87.95,3.01,2.32,3.63,2.63.27.14.46.14.67.04l.45.23-1.68,3.33-.73-.37c.45-2.1-.39-3.89-2.28-4.85-2.58-1.3-5.39-.17-6.88,2.78-1.51,2.98-.75,6.15,1.77,7.43.69.35,1.55.55,2.19.51l1.27-2.51c.46-.91-1.31-2.97-1.31-2.97l6.04,3.05s-1.8.35-2.22,1.19Z"/>
    <path class="cls-2" d="M183.08,28.83l5.32,3.7s-2.28-.05-2.88.82l-4.61,6.62c-.57.82.25,2.96.25,2.96l-5.32-3.7s2.2-.06,2.71-.79l4.66-6.69c.61-.87-.13-2.92-.13-2.92Z"/>
    <path class="cls-2" d="M202.07,64.32l-6.86-8.5s2.26.79,3.04.16l6.34-5.12c.94-.76.5-2.98.5-2.98l4.34,5.37s-2.3-.84-3.05-.24l-6.53,5.27c-.59.47-.59.76-.09,1.38l1.63,2.01c.86,1.06,4.37,1.55,4.37,1.55l-3.69,1.07Z"/>
    <path class="cls-2" d="M193.02,53.36l-8.03-7.4s2.35.45,3.03-.28l5.53-5.99c.81-.88.07-3.02.07-3.02l5.08,4.68s-2.4-.49-3.05.21l-5.69,6.17c-.51.55-.47.84.11,1.38l1.9,1.75c1,.93,4.55.9,4.55.9l-3.5,1.6Z"/>
    <path class="cls-2" d="M212.78,61.75c.92-1.33.99-3.23.99-3.23l3.62,6.07s-2.36-1.3-3.1-.19l-4.03,5.98,7.72-.65c.74-.11.85-2.73.85-2.73l2.65,4.45s-2.07-.85-3.8-.6l-11.92,1,7.01-10.1Z"/>
    <path class="cls-2" d="M221.52,78.26v-.04s-7,2.02-7,2.02c-1.29.38-2.09,2.52-2.09,2.52l-1.52-4.26s1.74,1.11,3.37.64l7.1-2.06c1-.29,1.75-2.07,1.75-2.07l1.45,4.05-6.72,6.62,9.34.71,1.48,4.13s-1.35-1.18-2.7-.59l-6.92,2.99c-1.58.67-2.04,2.64-2.04,2.64l-2.16-6.04s1.39,1.54,2.64,1.09c.31-.11.61-.24.89-.36l6.65-2.88v-.04s-11.26-.83-11.26-.83l-.16-.46,7.91-7.77Z"/>
    <path class="cls-2" d="M222.82,123.77c-1.24-.05-2.53,1.91-2.53,1.91l.2-4.93s1.17,1.72,2.01,1.76l9.35.39c.32-.44,1.31-1.58,1.31-1.58l-.17,4.19-9.02,7.95,6.15.25c1.47.06,2.61-2.03,2.61-2.03l-.22,5.25s-.98-1.92-1.75-1.95l-10.89-.45.05-1.12,10.6-9.33-7.7-.32Z"/>
    <path class="cls-2" d="M231.61,141.07l-1.26,6.36s-.87-2.11-1.91-2.31l-7.91-1.57c-.98-.19-2.61,1.41-2.61,1.41l1.26-6.36s.93,1.99,1.81,2.17l7.99,1.59c1.04.21,2.62-1.29,2.62-1.29Z"/>
    <path class="cls-2" d="M218.45,175.41l2.03-3.97-4.08-2.09-1.5,2.94c-.51,1,.24,2.75.24,2.75l-3.61-1.85s1.8-.29,2.51-1.69l1.37-2.67-3.26-1.67c-.78-.4-1.02-.34-1.29.19l-1.55,3.03c-.6,1.18.43,3.72.43,3.72l-2.74-1.68,5.59-10.92s.02,2.73.91,3.19l7.24,3.71c.98.5,2.93-.72,2.93-.72l-5.12,9.99-2.72-1.17s2.2-.27,2.63-1.1Z"/>
    <path class="cls-2" d="M197.41,191.52s-4.05-.25-5.18.9c-.95.96-1.05,2.28-.24,3.08,2.16,2.13,6.69-2.59,9.56.25,1.39,1.37,1.16,3.55-.55,5.28-1.1,1.12-2.34,1.61-2.55,1.83-.1.1-.46.78-.46.78l-2.62-2.04s3.75.09,4.85-1.02c.8-.81.97-1.85.4-2.41-1.33-1.32-3.96.84-7.19.86-1.18,0-2.03-.38-2.73-1.06-1.51-1.49-1.35-4.03.35-5.75,1.15-1.16,2.66-1.76,2.91-2.02.13-.13.16-.3.07-.53l.37-.38,3,2.24Z"/>
    <path class="cls-2" d="M193.13,207.84l-5.11,3.99s.72-2.16.06-3l-4.97-6.36c-.62-.79-2.9-.63-2.9-.63l5.11-3.99s-.59,2.12-.04,2.83l5.02,6.42c.65.83,2.83.74,2.83.74Z"/>
    <path class="cls-2" d="M137.35,232.88l-6.45.66s1.76-1.45,1.65-2.5l-.83-8.03c-.1-.99-2.12-2.08-2.12-2.08l6.45-.66s-1.63,1.48-1.54,2.37l.83,8.11c.11,1.05,2,2.13,2,2.13Z"/>
    <path class="cls-2" d="M124.51,224.75s-2.63-3.09-4.24-3.11c-1.35-.02-2.38.82-2.39,1.97-.04,3.04,6.5,3.02,6.45,7.06-.03,1.96-1.76,3.3-4.18,3.27-1.57-.02-2.78-.57-3.09-.57-.14,0-.88.21-.88.21l-.34-3.31s2.53,2.76,4.1,2.79c1.14.02,2-.58,2.02-1.38.02-1.87-3.35-2.27-5.6-4.58-.82-.85-1.14-1.73-1.13-2.71.03-2.12,1.97-3.76,4.39-3.73,1.63.02,3.11.69,3.48.7.18,0,.96-.31.96-.31l.46,3.72Z"/>
    <path class="cls-2" d="M89.11,220.18l.8-2.93c1.59-.26,3.78-.3,5.47.16,4.97,1.36,6.62,4.79,5.58,8.56-.98,3.6-4.68,5.44-8.86,4.3-2.02-.55-3.41-1.67-4.08-1.85-.29-.08-1.15-.04-1.15-.04l.98-3.6s1.94,3.95,3.99,4.51c2.79.76,5.32-.91,6.19-4.1.88-3.22-.49-6.18-3.22-6.92-.75-.2-1.63-.23-2.24-.06l-.74,2.71c-.43,1.77,1.88,2.65,1.88,2.65l-6.53-1.78s1.69-.7,1.94-1.6Z"/>
    <path class="cls-2" d="M48.95,193.29l-2.5,2.62,4.87,4.64,2.53-2.65c.75-.78.25-2.98.25-2.98l4.73,4.52s-2.21-.37-2.92.37l-5.6,5.87c-.7.74-.23,2.93-.23,2.93l-4.73-4.52s2.14.47,2.93-.36l2.21-2.31-4.87-4.64-2.17,2.27c-.79.83-.31,2.95-.31,2.95l-4.72-4.5s2.19.45,2.95-.34l5.57-5.84c.73-.77.23-2.99.23-2.99l4.72,4.5s-2.18-.34-2.94.46Z"/>
    <path class="cls-2" d="M13.93,142.82v.04s7.26-.51,7.26-.51c1.34-.1,2.57-2.03,2.57-2.03l.6,4.48s-1.47-1.45-3.16-1.33l-7.37.53c-1.04.08-2.14,1.66-2.14,1.66l-.57-4.26,7.96-5.06-8.99-2.65-.58-4.34s1.08,1.44,2.52,1.15l7.39-1.47c1.68-.33,2.55-2.15,2.55-2.15l.84,6.36s-1.04-1.79-2.35-1.62c-.32.04-.64.11-.94.17l-7.11,1.42v.04s10.83,3.17,10.83,3.17l.06.48-9.37,5.93Z"/>
    <path class="cls-2" d="M229.64,106.33c1.4-.8,2.29-2.48,2.29-2.48l.63,7.04s-1.57-2.19-2.71-1.52l-5.54,3.18,6.71,3.06c.72.22,1.79-1.92,1.79-1.92l.46,5.16s-1.5-1.67-3.16-2.19l-10.46-4.6,9.98-5.73Z"/>
    <path class="cls-2" d="M226.51,152.26c1.6-.21,3.06-1.42,3.06-1.42l-2.08,6.76s-.62-2.62-1.94-2.43l-6.33.85,5.05,5.37c.58.48,2.39-1.1,2.39-1.1l-1.52,4.95s-.76-2.11-2.1-3.23l-7.94-8.22,11.41-1.52Z"/>
    <path class="cls-2" d="M18.68,160.37c-1.17,1.11-1.64,2.95-1.64,2.95l-2.29-6.69s2.05,1.75,3,.82l4.62-4.41-7.24-1.37c-.75-.04-1.28,2.29-1.28,2.29l-1.68-4.9s1.85,1.26,3.6,1.37l11.26,1.98-8.33,7.94Z"/>
    <path class="cls-2" d="M63.61,205.18c.6-.87-.54-3.2-.54-3.2l6.03,4.18s-2.57-.27-3.18.62l-5.64,8.22,1.98,1.37c1.29.89,3.87-.25,3.87-.25l-2.09,2.51-10.66-7.38,1.49-2.93s-.16,2.81,1.13,3.71l1.98,1.37,5.64-8.22Z"/>
    <path class="cls-2" d="M143.94,220.87c-.24-1.03-2.73-1.75-2.73-1.75l7.14-1.67s-1.92,1.73-1.67,2.78l2.23,9.4,2.34-.55c1.53-.36,2.41-3.03,2.41-3.03l.46,3.24-12.62,2.95-1.17-3.07s1.98,2.01,3.5,1.65l2.34-.55-2.23-9.4Z"/>
    <path class="cls-2" d="M172.01,209.88c-.53-.92-3.12-.87-3.12-.87l6.34-3.69s-1.33,2.21-.79,3.15l5.06,8.59,2.08-1.21c1.36-.79,1.41-3.61,1.41-3.61l1.39,2.96-11.2,6.52-2.02-2.59s2.48,1.34,3.83.55l2.08-1.21-5.06-8.59Z"/>
    <path class="cls-2" d="M222.64,100.24c0-1.11.91-1.99,2.02-1.99,1.1,0,1.99.91,1.99,2.02,0,1.11-.91,1.99-2.02,1.99-1.11,0-1.99-.91-1.99-2.02Z"/>
    <path class="cls-2" d="M106.07,226.11c0-1.11.91-1.99,2.02-1.99,1.11,0,1.99.91,1.99,2.02,0,1.11-.91,1.99-2.02,1.99-1.11,0-1.99-.91-1.99-2.02Z"/>
    <path class="cls-2" d="M14.14,121.61c0-1.1.91-1.99,2.02-1.99,1.1,0,1.99.91,1.99,2.02,0,1.11-.91,1.99-2.02,1.99-1.1,0-1.99-.91-1.99-2.02Z"/>
    <path class="cls-2" d="M32.07,64.37c-2.49-1.81-3.11-4.35-1.59-6.44,1.82-2.51,5.25-2.03,7.91-.1,2.28,1.65,3.48,4.16,1.81,6.45-1.69,2.32-4.98,2.38-8.13.09ZM31.08,67.4c2.77,2.01,6.8,1.56,9.55-2.23,2.86-3.94,1.88-8.1-1.05-10.24-3.08-2.24-7.02-1.37-9.52,2.08-2.67,3.68-2.25,8.02,1.02,10.39Z"/>
    <path class="cls-2" d="M84.18,25.19l-4.01,1.27.18-5.92,3.83,4.65ZM86.73,23.56l3.57-1.35c1.47-.55,3.47.08,3.47.08l-2.81-3.23s-.19,1.77-1.24,2.16l-3.75,1.52-3.3-4.03,5.43-1.81c.88-.33,3.08.46,3.08.46l-2.35-2.19-11.54,3.97s1.46.39,1.21,2.37l-.16,8.68c-.17,1.52-1.1,3.08-1.1,3.08l4.39-1.64s-1.9-.79-1.79-1.77l.22-2.49,4.82-1.47,2.71,3.32,10.67-4.09-2.26-2.48s.79,1.83-.45,2.29l-5.68,2.22-3.14-3.6Z"/>
    <path class="cls-2" d="M29.41,79.97c.94.44,3.01-1.05,3.01-1.05l-3.01,6.47s-.11-2.37-1.18-2.87l-7.3-3.4c-.89-.41-2.99.88-2.99.88.37-.95.66-1.67.96-2.45.41-1.07.97-2.42,1.28-3.09,1.26-2.72,2.3-4.03,3.66-4.52.89-.33,1.72-.28,2.52.09,1.4.65,2.04,2.19,1.7,4.12,1.58-.75,3.34-.71,5.27-1.42,1.11-.4,2.95-1.6,2.95-1.6-.17.42-.26.6-.51,1.15-1.07,2.29-1.84,3.08-3.11,3.54-1.35.49-3.79.66-5.36,1.37l-.68,1.46,2.81,1.31ZM25.82,78.3l.34-.72c1.04-2.24.96-3.85-1.02-4.77-1.96-.91-3.36.26-4.19,2.05l-.45.96,5.32,2.48Z"/>
    <path class="cls-2" d="M21.96,95.62l1.74,1.43c.76.62,2.49-1.29,2.49-1.29l-1.59,5.35s-.51-2.08-1.55-2.93l-9.74-8.26h0l12.82-1.99c1.28-.2,2.79-1.38,2.79-1.38l-1.95,6.56s-.5-2.45-1.45-2.29l-2.26.37-1.31,4.42ZM17.84,92.1l3.48,2.85,1.05-3.55-4.54.7Z"/>
    <path class="cls-2" d="M31.49,169.09c.92-.49.97-3.03.97-3.03l3.35,6.3s-1.96-1.34-3-.78l-7.11,3.78c-.86.46-1.1,2.92-1.1,2.92-.53-.87-.93-1.54-1.38-2.24-.61-.97-1.35-2.24-1.69-2.88-1.41-2.65-1.83-4.27-1.41-5.64.28-.91.82-1.54,1.59-1.95,1.37-.73,2.97-.31,4.31,1.12.36-1.71,1.45-3.1,2.04-5.06.35-1.13.5-3.31.5-3.31.23.39.32.57.61,1.11,1.19,2.23,1.35,3.32.95,4.62-.42,1.38-1.76,3.43-2.13,5.1l.76,1.42,2.74-1.45ZM28.06,170.81l-.37-.7c-1.16-2.18-2.49-3.08-4.42-2.06-1.91,1.01-1.82,2.83-.89,4.58l.5.94,5.18-2.75Z"/>
    <path class="cls-2" d="M30.53,188.01c-2.54-3.42-2.19-7.44.88-9.7,2.91-2.16,7.18-1.84,10.08,2.07,2.79,3.77,2.01,7.74-.74,9.78-3.24,2.4-7.51,1.5-10.21-2.15ZM40.5,180.52c-1.69-2.28-4.44-1.89-6.7-.21-2.64,1.95-4.12,5.08-2.28,7.57,1.54,2.08,4.15,2.25,6.62.42,3.13-2.32,4.06-5.47,2.35-7.78Z"/>
    <path class="cls-2" d="M74.1,223.76c-3.86-1.79-5.48-5.48-3.87-8.94,1.53-3.29,5.42-5.05,9.84-3,4.25,1.97,5.47,5.84,4.03,8.95-1.7,3.66-5.87,4.91-10,3ZM79.27,212.41c-2.57-1.19-4.8.47-5.98,3.02-1.38,2.98-1.19,6.44,1.62,7.74,2.35,1.09,4.72,0,6.02-2.8,1.64-3.53.95-6.75-1.65-7.96Z"/>
    <path class="cls-2" d="M204.01,180.72c-.83-.62-3.16.41-3.16.41l4.28-5.71s-.38,2.34.57,3.05l6.44,4.83c.78.59,3.11-.24,3.11-.24-.56.85-.99,1.5-1.45,2.2-.62.96-1.45,2.17-1.89,2.76-1.8,2.4-3.08,3.47-4.51,3.67-.94.13-1.74-.09-2.45-.61-1.24-.93-1.55-2.56-.82-4.38-1.7.4-3.42,0-5.44.3-1.17.17-3.21.95-3.21.95.25-.37.37-.53.74-1.02,1.52-2.02,2.43-2.63,3.77-2.83,1.43-.2,3.85.13,5.53-.24l.97-1.29-2.48-1.86ZM207.11,183.15l-.48.64c-1.48,1.97-1.73,3.57.01,4.87,1.73,1.3,3.34.44,4.52-1.14l.64-.85-4.7-3.52Z"/>
    <path class="cls-2" d="M163.13,216.29l.05-2.25c.01-.98-2.56-1.16-2.56-1.16l5.19-2.06s-1.32,1.69-1.35,3.03l-.48,12.76h0l-9.48-8.86c-.95-.88-2.81-1.35-2.81-1.35l6.36-2.52s-1.62,1.9-.9,2.55l1.69,1.54,4.29-1.7ZM162.9,221.7l.1-4.5-3.45,1.36,3.35,3.14Z"/>
    <path class="cls-2" d="M122.72,39.57c-.56-1.47-2.03-2.58-2.03-2.58l6.85.46s-2.34,1.17-1.87,2.37l2.21,5.79,3.95-5.97c.32-.65-1.57-2.01-1.57-2.01l5.01.34s-1.83,1.19-2.58,2.7l-6.01,9.33-3.97-10.44Z"/>
    <path class="cls-2" d="M66.45,60.51c-1.4-.71-3.23-.55-3.23-.55l5.39-4.26s-.95,2.44.21,3.01l5.53,2.81-1.08-7.08c-.2-.7-2.51-.44-2.51-.44l3.94-3.12s-.56,2.1-.1,3.74l1.81,10.95-9.96-5.07Z"/>
    <path class="cls-2" d="M172.08,56.74c.47-1.49,0-3.28,0-3.28l5.09,4.61s-2.56-.53-2.94.7l-1.91,6.26,6.85-2.58c.66-.31.02-2.55.02-2.55l3.72,3.38s-2.17-.2-3.7.52l-10.5,3.59,3.36-10.66Z"/>
    <path class="cls-2" d="M88.08,55.45c.44.93,2.95,1.11,2.95,1.11l-6.45,3.03s1.48-2.03,1.03-2.98l-4.15-8.74-2.11.99c-1.38.65-1.68,3.37-1.68,3.37l-1.09-2.98,11.39-5.35,1.73,2.68s-2.28-1.51-3.66-.86l-2.11.99,4.15,8.74Z"/>
    <path class="cls-2" d="M139.81,41.71h-.04s-2.45,6.61-2.45,6.61c-.45,1.23.76,3.08.76,3.08l-4.21-1.27s1.87-.72,2.44-2.26l2.49-6.73c.35-.95-.61-2.56-.61-2.56l4,1.21,1.29,9.07,5.95-6.89,4.07,1.23s-1.71.37-2.02,1.77l-1.66,7.13c-.39,1.62.88,3.12.88,3.12l-5.97-1.8s2-.2,2.38-1.43c.09-.3.16-.61.23-.9l1.6-6.86h-.04s-7.14,8.29-7.14,8.29l-.45-.14-1.49-10.66Z"/>
    <path class="cls-2" d="M188.58,71.81l-2.67-3.42-3.51,2.74,1.97,2.53c.67.86,2.52.92,2.52.92l-3.1,2.42s.48-1.7-.46-2.9l-1.79-2.29-2.81,2.19c-.67.52-.71.76-.36,1.21l2.03,2.61c.79,1.01,3.45,1.15,3.45,1.15l-2.6,1.72-7.33-9.39s2.42,1.1,3.18.51l6.23-4.86c.84-.66.57-2.88.57-2.88l6.71,8.6-2.14,1.92s.66-2.05.1-2.77Z"/>
    <path class="cls-2" d="M111.28,48.02c.1,1,2.38,1.98,2.38,1.98l-6.89.72s1.92-1.27,1.8-2.42l-.81-7.77c-.1-.94-2.22-2.06-2.22-2.06.98-.16,1.72-.28,2.52-.42,1.09-.19,2.51-.4,3.21-.47,2.89-.3,4.51-.09,5.59.79.72.58,1.09,1.3,1.18,2.14.16,1.5-.8,2.79-2.58,3.47,1.41.95,2.26,2.43,3.81,3.68.89.72,2.8,1.66,2.8,1.66-.43.06-.63.08-1.22.15-2.44.25-3.48,0-4.5-.82-1.09-.88-2.44-2.83-3.82-3.78l-1.55.16.31,2.99ZM110.95,44.21l.77-.08c2.38-.25,3.68-1.12,3.46-3.23-.22-2.09-1.89-2.67-3.8-2.47l-1.02.11.59,5.67Z"/>
    <path class="cls-2" d="M48.14,78.5c.57-.91,1.24-1.93,1.71-2.69.52-.84.92-1.48,1.48-2.27,2.28-3.23,3.76-4.47,5.8-4.82,1.46-.25,2.98.07,4.35,1.04,1.47,1.04,2.31,2.6,2.56,4.06.24,1.41.12,3.33-2.22,6.64l-3.63,5.14s.22-2.1-.7-2.75l-6.24-4.4c-1.15-.81-3.11.05-3.11.05ZM58.96,80.54c1.08.76,1.34.71,2.22-.54,2.57-3.64.74-6.33-1.18-7.69-1.34-.95-2.89-1.33-4.13-1.12-1.35.23-2.49,1.05-3.65,2.7-.31.44-.54.8-.81,1.32l7.55,5.33Z"/>
    <path class="cls-2" d="M49.54,95.33l1.54,1.55c.67.67,2.54-1,2.54-1l-2.07,5.01s-.29-2.06-1.21-2.99l-8.58-8.95h0l12.58-.64c1.26-.06,2.84-1.05,2.84-1.05l-2.54,6.14s-.23-2.41-1.17-2.35l-2.22.14-1.71,4.14ZM45.92,91.52l3.08,3.11,1.37-3.33-4.45.22Z"/>
    <g>
      <path class="cls-2" d="M164.45,48.12c3.63,1.98,4.96,5.66,3.18,8.91-1.69,3.09-5.58,4.55-9.73,2.28-3.99-2.18-4.93-6.01-3.33-8.92,1.88-3.44,6-4.39,9.88-2.27ZM158.71,58.78c2.41,1.32,4.68-.15,5.99-2.54,1.53-2.8,1.56-6.16-1.08-7.6-2.21-1.21-4.58-.29-6.01,2.33-1.81,3.32-1.35,6.48,1.1,7.82Z"/>
      <path class="cls-2" d="M164.8,68.44c-4.17-3.41-2.76-2.92-3.9-6.52-1.14-3.61-.36-8.72-1.17-9.29-.81-.57,1.81-.78,2.7,6.95.89,7.72,2.37,8.86,2.37,8.86Z"/>
    </g>
    <path class="cls-2" d="M61.25,224.6C26.18,203.88,2.6,165.69,2.6,122.1,2.6,56.51,55.96,3.16,121.55,3.16s118.94,53.36,118.94,118.94-53.36,118.94-118.94,118.94c-21.7,0-42.07-5.84-59.6-16.04l-1.92-1.04-1.36,1.96,1.94,1.27c17.92,10.43,38.75,16.41,60.94,16.41,67,0,121.5-54.51,121.5-121.5S188.55.6,121.55.6.04,55.1.04,122.1c0,44.52,24.06,83.52,59.87,104.68l1.47.74,1.16-2.08-1.3-.85Z"/>
    <path class="cls-2" d="M73.92,199.35c-25.83-15.99-43.13-44.71-43.13-77.25,0-42.14,29.04-77.79,68.07-87.89l.7-2.09C59.07,42.02,28.94,78.61,28.94,122.1c0,33.26,17.62,62.48,44.02,78.81l1.41.77.84-1.48-1.29-.85Z"/>
    <path class="cls-2" d="M73.81,201.43c13.95,8.42,30.29,13.28,47.74,13.28,51.07,0,92.61-41.54,92.61-92.61S172.61,29.49,121.55,29.49c-5.92,0-11.71.56-17.33,1.63l-.3,1.94c5.7-1.13,11.6-1.72,17.63-1.72,49.97,0,90.76,40.79,90.76,90.76s-40.79,90.63-90.76,90.63c-17.15,0-33.21-4.79-46.9-13.1l-1.39-.8-1.4,1.24,1.96,1.37Z"/>
    <g>
      <path class="cls-2" d="M120.61,22.44c-.83-.04-1.66-.27-2.43-.72-.73-.42-1.32-.99-1.76-1.64"/>
      <path class="cls-2" d="M121.96,15.02l3.11-3c.65.52,1.18,1.2,1.54,2.01.34.77.49,1.58.46,2.37l-4.3.35,3.86,2.04c-.29.78-.77,1.5-1.43,2.09-.63.56-1.35.95-2.11,1.17l-1.71-4-.76,4.38c-.83-.04-1.66-.27-2.43-.72-.73-.42-1.32-.99-1.76-1.64l3.28-2.95-4.19.67c-.22-.8-.25-1.66-.07-2.53.18-.82.53-1.56,1.02-2.19l3.61,2.18-1.9-3.62c.69-.46,1.5-.76,2.39-.85.84-.09,1.65.02,2.39.29l-.98,3.94Z"/>
    </g>
    <g>
      <g>
        <path class="cls-2" d="M157.98,101.33,166.14,96.99c-.79-.02-1.89-.72-2.19-1.7-.31-.98.58-1.61.58-1.61.03.04.06.08.1.11.06.07.11.13.11.13v-.03c.19.13.44.02.69.01.56-.02.67-.24.65-.75-.02-.51-.46-.98-1-.82-.48.14-1.23.25-1.65-.04-.15-.1-.18-.57-.06-.96.04-.23.25-.71.25-.83-.02-.35-.44-.61-.83-.59s-.74.33-.73.68c.02.5.34.7.56.95.33.38.21.68.1.87-.09.14-1.04.47-1.04.47l.02.04c-.07-.01-.15-.02-.23-.01-.56.02-.95.29-.93.81.02.51.33.87.89.85.36-.02.67-.2.84-.47,0,0,.83.63.72,1.44-.11.79-.17,1.44-1.67,1.9-1.23.38-1.98-.35-1.98-.35,0,0-.36,1.06-1.46.94-1.69-.19-1.99-2.23-1.99-2.23,0,0,.7.03,1.05-.88.3-.77-.21-1.24-1.04-1.35-.5-.07-1.13.71-1.83.41-.7-.3.36-1.66-.55-2.18-.84-.48-1.32.61-1.32.61,0,0,1.29,1.33,2.97,3.75,1.34,1.94,3.23,4.24,3.23,4.24l-.96.64s-1.3-2.02-3.36-4.8c-1.75-2.37-3.12-3.84-3.12-3.84,0,0-.05-.2.44-.7.62-.64,1.57-1.52,2.71-1,1.14.51.56,2.3.56,2.3,0,0,.61-.68,1.63-.54,1.1.15,2.08,1.17,1.9,2.14-.25,1.38-1.1,1.72-1.1,1.72,0,0-.13.54.92.43.64-.07,1.07-1.01,1.07-1.01.05-.02,1.59,1.41,2.42.33.08-.1.13-.23.19-.35-.13.03-.26.05-.4.05-1.05.01-1.92-.85-1.94-1.93-.01-1.08.83-1.96,1.88-1.97.4,0,.11-.03.65.07h0c-.42-.23-.96-.68-.97-1.46-.01-.9.95-1.82,1.83-1.83.88-.01,2,.8,2.01,1.71,0,.57-.3,1.02-.54,1.27h0c.24-.26.6-.4,1.15-.41,1.05-.01,1.92.85,1.94,1.93.02,1.08-.83,1.96-1.88,1.97-.09,0-.17-.01-.25-.02.01.02.03.03.04.04.37.32.84.46,1.25.53,1.29.23,1.44-.78,1.44-.78,0,0,.62.59,1.24.39,1-.33.8-.95.8-.95,0,0-.93.14-1.72-1.02-.56-.81-.5-1.72.45-2.31.88-.54,2.05-.22,2.05-.22,0,0-1.1-1.28-.26-2.22.83-.93,2.03-.51,2.85-.18.65.26,1.06.49,1.06.49,0,0-.87,1.47-1.51,4.34-.83,3.73-1.31,5.75-1.31,5.75l-1.02-.28s.58-3.24,1.16-5.62c.65-2.66,1.27-3.55,1.27-3.55,0,0-1.02-.91-1.59-.13-.62.85.81,1.49.29,2.05-.51.56-1.44,0-1.87.26-.71.44-.65.72-.23,1.31.43.6,1.28.37,1.28.37,0,0,.66,2.05-.8,2.92-.96.56-1.84-.15-1.84-.15,0,0-.3.93-2.04.89Z"/>
        <path class="cls-2" d="M157.17,100.58c-.12-1.02,3.02-2.22,7-2.66,3.98-.44,7.3.03,7.42,1.05.12,1.02-3.02,2.22-7,2.66-3.98.44-7.3-.03-7.42-1.05ZM163.86,100.64c2.42-.25,4.04-.7,3.93-1.35-.07-.41-2.06-.55-4.48-.29-2.42.25-4.35.8-4.29,1.21.05.42,2.42.68,4.84.43Z"/>
      </g>
      <g>
        <path class="cls-2" d="M182.78,97.74,190.94,93.4c-.79-.02-1.89-.72-2.2-1.7-.31-.98.58-1.61.58-1.61.03.04.06.07.1.11.06.07.11.12.11.12v-.03c.19.13.44.02.69.01.56-.02.67-.24.65-.75-.02-.51-.46-.98-1-.82-.48.14-1.23.25-1.65-.04-.15-.1-.18-.57-.06-.96.04-.23.25-.71.25-.83-.02-.35-.44-.61-.83-.59-.39.02-.74.33-.73.68.02.5.34.7.56.95.33.38.21.68.1.87-.09.14-1.04.47-1.04.47l.02.04c-.07-.01-.15-.02-.23-.01-.56.02-.95.29-.93.81.02.51.33.88.89.85.36-.02.67-.21.84-.47,0,0,.83.63.72,1.44-.11.79-.17,1.44-1.67,1.9-1.23.38-1.98-.35-1.98-.35,0,0-.36,1.06-1.46.94-1.69-.19-1.99-2.23-1.99-2.23,0,0,.7.03,1.05-.88.3-.77-.21-1.24-1.04-1.35-.5-.07-1.13.71-1.83.41-.7-.3.36-1.66-.55-2.18-.84-.48-1.32.61-1.32.61,0,0,1.29,1.33,2.97,3.75,1.34,1.94,3.23,4.24,3.23,4.24l-.96.64s-1.3-2.02-3.36-4.8c-1.75-2.37-3.12-3.84-3.12-3.84,0,0-.05-.2.44-.7.62-.64,1.57-1.52,2.71-1,1.14.51.56,2.3.56,2.3,0,0,.62-.68,1.63-.54,1.1.15,2.08,1.17,1.9,2.14-.25,1.38-1.1,1.72-1.1,1.72,0,0-.13.53.92.43.64-.07,1.07-1.01,1.07-1.01.05-.02,1.59,1.41,2.42.33.08-.1.13-.23.19-.35-.13.03-.26.05-.4.05-1.05.01-1.92-.85-1.94-1.93-.02-1.08.83-1.96,1.88-1.97.39,0,.11-.03.65.07h0c-.42-.23-.96-.68-.97-1.46-.01-.9.95-1.82,1.83-1.83.88-.01,2,.8,2.01,1.71,0,.57-.3,1.02-.54,1.27h0c.24-.26.6-.4,1.15-.41,1.05-.01,1.92.85,1.94,1.93.02,1.08-.83,1.96-1.88,1.97-.09,0-.17-.01-.25-.02.02.02.03.03.04.04.37.32.84.46,1.25.53,1.29.23,1.44-.78,1.44-.78,0,0,.62.59,1.23.39,1-.33.8-.95.8-.95,0,0-.93.14-1.72-1.02-.56-.81-.5-1.72.45-2.31.88-.54,2.05-.22,2.05-.22,0,0-1.09-1.28-.26-2.22.83-.93,2.03-.51,2.85-.18.65.26,1.06.49,1.06.49,0,0-.87,1.46-1.51,4.34-.83,3.73-1.32,5.75-1.32,5.75l-1.02-.28s.58-3.24,1.16-5.62c.65-2.66,1.27-3.55,1.27-3.55,0,0-1.02-.91-1.59-.13-.62.85.81,1.49.29,2.05-.51.56-1.44,0-1.87.26-.71.44-.65.72-.23,1.31.43.6,1.28.37,1.28.37,0,0,.66,2.05-.8,2.92-.96.56-1.84-.15-1.84-.15,0,0-.3.93-2.04.89Z"/>
        <path class="cls-2" d="M181.97,96.99c-.12-1.02,3.02-2.22,7-2.66,3.98-.44,7.3.03,7.42,1.05.12,1.02-3.02,2.22-7,2.66-3.98.44-7.3-.03-7.42-1.05ZM188.66,97.05c2.42-.25,4.04-.7,3.93-1.35-.07-.41-2.06-.55-4.48-.29-2.42.25-4.35.8-4.29,1.21.05.41,2.42.68,4.84.43Z"/>
      </g>
      <g>
        <path class="cls-2" d="M172.53,114.67,180.68,110.33c-.79-.02-1.89-.72-2.19-1.7-.31-.98.58-1.61.58-1.61.03.04.06.07.1.11.06.07.11.12.11.12v-.03c.19.13.44.02.69.01.56-.02.67-.24.65-.75-.02-.51-.46-.98-1-.82-.48.14-1.23.25-1.65-.04-.15-.1-.18-.57-.06-.96.04-.23.25-.71.25-.83-.02-.35-.44-.61-.83-.59-.39.02-.74.33-.73.68.02.5.34.7.56.94.33.38.21.68.1.87-.09.14-1.04.47-1.04.47l.02.04c-.07-.01-.15-.02-.23-.01-.56.02-.95.29-.93.81.02.51.33.87.89.85.36-.02.67-.2.84-.47,0,0,.83.63.72,1.44-.11.79-.17,1.44-1.67,1.91-1.23.38-1.98-.35-1.98-.35,0,0-.36,1.06-1.46.94-1.69-.19-1.99-2.23-1.99-2.23,0,0,.7.03,1.05-.88.3-.77-.21-1.24-1.04-1.35-.5-.07-1.13.71-1.83.41-.7-.3.36-1.66-.55-2.18-.84-.48-1.32.61-1.32.61,0,0,1.29,1.33,2.97,3.75,1.34,1.94,3.23,4.24,3.23,4.24l-.96.64s-1.3-2.02-3.36-4.8c-1.75-2.37-3.12-3.84-3.12-3.84,0,0-.05-.2.44-.7.62-.64,1.57-1.52,2.71-1,1.14.51.56,2.3.56,2.3,0,0,.62-.68,1.63-.54,1.1.15,2.08,1.17,1.9,2.14-.25,1.37-1.1,1.72-1.1,1.72,0,0-.13.53.92.43.64-.07,1.07-1.01,1.07-1.01.05-.02,1.59,1.41,2.42.33.08-.1.13-.23.19-.35-.13.03-.26.05-.4.05-1.05.01-1.92-.85-1.94-1.93-.01-1.08.83-1.96,1.88-1.97.4,0,.11-.03.65.07h0c-.42-.23-.96-.68-.97-1.46-.01-.9.95-1.82,1.83-1.83.88-.01,2,.8,2.01,1.71,0,.57-.3,1.02-.54,1.27h0c.24-.26.6-.4,1.15-.41,1.05-.01,1.92.85,1.94,1.93.02,1.08-.83,1.96-1.88,1.97-.09,0-.17-.01-.25-.02.02.02.03.03.04.04.37.32.84.46,1.25.53,1.29.23,1.44-.78,1.44-.78,0,0,.62.59,1.24.39,1-.33.8-.95.8-.95,0,0-.93.14-1.72-1.02-.56-.81-.5-1.72.45-2.31.88-.54,2.05-.22,2.05-.22,0,0-1.1-1.28-.26-2.22.83-.93,2.03-.51,2.85-.18.65.26,1.06.49,1.06.49,0,0-.87,1.46-1.51,4.34-.83,3.73-1.31,5.75-1.31,5.75l-1.02-.28s.58-3.24,1.16-5.62c.65-2.66,1.27-3.55,1.27-3.55,0,0-1.02-.91-1.59-.13-.62.85.81,1.5.29,2.05-.51.56-1.44,0-1.87.26-.71.44-.65.72-.23,1.31.43.6,1.28.37,1.28.37,0,0,.66,2.05-.8,2.92-.96.56-1.84-.15-1.84-.15,0,0-.3.93-2.04.89Z"/>
        <path class="cls-2" d="M171.72,113.92c-.12-1.02,3.02-2.21,7-2.66,3.98-.44,7.3.03,7.42,1.05.12,1.02-3.02,2.21-7,2.66-3.98.44-7.3-.03-7.42-1.05ZM178.4,113.98c2.42-.25,4.04-.7,3.93-1.35-.07-.41-2.06-.55-4.48-.29-2.42.25-4.35.8-4.29,1.21.05.42,2.42.68,4.84.43Z"/>
      </g>
    </g>
    <path class="cls-2" d="M129.74,88.63c-3.23,3.58-1.11,8.73-1.85,13.28-1.28,3.7-5.17,6.04-6.33,9.8-.29,2.19-.55,5.23.99,6.85.11-.29-.18-.45-.25-.68-.63-4.46.75-7.63,4.63-11.42,5.9-6.67-1-12.06,4.6-17.09l-1.78-.75Z"/>
    <path class="cls-2" d="M143.5,130.7c2.69-.07,4.47-.42,7.12-1.11,2.61-.79,4.71-1.52,7.12-2.36,5.21-1.61,8.13-2.85,13.58-2.94h.66c1.55.02,2.93.27,4.32.69.69.21,1.61.86,2.34,1.27,3.47,3.01,3.71,4.71,8.09,7.42,1.97.75,3.83,2.84,5.39,3.25-.65-.62-1.33-.92-2.72-2.36-2.07-1.81-5.6-6.42-9.44-9.29-2.1-1.21-4.35-1.95-6.82-2.17-4.78-.79-10.3.59-14.38,2.25-4.38,1.43-5.93,1.71-10.56,2.47-1.7.35-2.95.15-4.4-.24-.59-4.72-2.28-3.79-1.66-9.37,1.83-6.65,1.1-12.36-1.16-17.57.52-1.85.68-4.55-.85-6.05-1.3-1.28-4.8-1.59-5.48.72.39,1.82,2.79.71,3.95,1.54,1.39.36,1.28,2.03,1.05,2.93-.33,2.7-3.46,4.09-5.51,4.61.79,1.57,3.92.55,4.93-.38,1.16,2.49,1.77,2.82,2.19,5.9.26,5.38-1.29,5.14-3.32,8.6-.93,1.85-.86,4.23.56,7.92-.39-5.62.34-5.96,1.91-8.48,0,0-.56,2.3-.51,4.5.07,2.61,1.43,3.37,1.53,5.72-.46,2.08-.46,2.77-1.81,4.45-2.46,3.24-6.8,2.87-8.54,11.13,3.2-4.72,3.93-5.96,6.91-7.64,3.99-1.69,4.6-3.01,5.51-5.39Z"/>
    <path class="cls-2" d="M113.23,103.43c1.46,1.05,1.79,2.32,3.02,3.49-.58-.15-4.08-2.75-5.97-2-2.69.24-6.26,2.66-8.62.14-1.6-.68-2.69-3.41-2.96-5.07,1.5,2.54,4.15,5.11,7.57,4.44,1.79-.39,2.77-.63,4.32-.56.8-.02,2.02.08,3.01.97-1.15-1.14-2.59-1.98-4.36-1.98-3.96.08-8.09,1.85-10.55-2.88,2.29,1.78,7.01,1.96,10.94,1.9,1.32.16,2.69.58,3.59,1.54ZM107.15,96.73c-.27.64-.99,1.46-.52,2.08l1.11-1.41c-.24-.22-.47-.39-.59-.67ZM109.65,98.33c.41.45.6.96.73,1.47.52.1.67-.76,1.07-.83l-1.79-.64ZM110.38,101.4c-.37-1.14-.71-2.27-1.92-2.52-1.22-.66-2.34,2.41-2.75-.04-.5-1.42,1.17-2.48-.41-3.66-1.29-1.97.62-2.42.07-4.53-.1-1.55-.36-3.56,1.79-3.66,3.25-.77,6.57-.8,9.65.17.88-.79,1.15-1.21,1.29-1.74,0,0,1.45-.17,2.41.22.96.39,2.04.99,2.04.99-.93.12-2.53.28-2.42,1.58.62,1.52,2.06-.61,5.92,1.9.3.33.86.53.98,1.5-1.83-.82-2.79-.53-4.29-1.21-1.21-.4-1.56-.43-2.78-.22-.46.08-2.36,1.45-2.29.47,0,0,0-.49-.27-1.51-.3-.93-.72-.83-1.54-1.11-3.93-1-5.96-.66-8.15-.28-.84.21-1.23,1.44-.86,2.4.75,1.49,1.02,1.25,1.82,1.21.67-.39,1.06-1.39,2.2-1.47.85.05,1.55.02,1.8.93v.52c-.29-.68-1.21-.38-1.67-.17-.21.21-.38.42-.21.67.3.51.65.27,1.12.37-.41.71-2.3.93-3.53.78-.45-.06-.49.61-.71.73-.44.59-.17,1.12.02,1.74,1.89,2.27,5.08,2.45,7.54,4.04.64.33,1.16,1.43,1.35,1.94-1.16-.54-1.44,1.26-1.43,1.6l.52-.32c.38-.13,1.37-.63,1.42-.7.65.61.42,1.6.6,2.39.27-.7.11-1.44.5-2.28.84,2.92,2.51,8.11-1.76,14.79-2.19,4.5-1.92,5.43-1.69,11.52-2.98-6.29-.72-9.46-.1-13.35.04-.34.04-.85-.42-1.19.15,1.67-.21,2.74-1.48,4.47-2.05,2.52-2.36,5.9-1.22,8.39.97,2.81,1.74,3.92,1.42,6.86-.45,2.81-1.18,4.5-.17,8.2h0c-2.28-4.47-1.56-5.96-1.45-8.55.09-2.19-.38-4.35-1.69-6.05l.78.67c-.76,5.17-7.84,5.67-5.23,12.67.9,1.57,2.92,4.64,3.03,6.1-1.5-2.54-3.32-2.72-4.6-5.44-3.4-.65-6.1,1.82-9.4,2.84-1.89.54-3.84,1.43-7.04-1.35,5.98,2.19,10.12-1.72,13.92-3.2,2.16-.96,1.27-2.52,1.56-3.88.69-4.09,4.56-3.92,5.71-7.85.09-3.31-.42-5.33.59-7.53,1.01-2.19,2.6-1.59,2.82-4.38.95-3.24-3.84-3.55-2.9-7.55.56.75,1.62,1.23,2.56,1.69,1.64.8,3.45,2.13,4.59,3.42-.13-.63-1.38-2.59-2.02-3.09l-1.63-1.24c.15-.63.91-1,1.53-1.43-.18,1.84,2.08,2.7,2.97,3.82.62-2.54-.08-5.27-.72-7.55,0,0-.86-.12-1.37.61-.73-1.74-.23-2.63.02-3.9.02-.67-.58-.26-.92-.2-.62.34-.85.53-.85.53l-.9-1.52c-.74.31-1.56,1.18-1.77,1.93"/>
    <path class="cls-2" d="M137.87,98.66c.19.8-.18,1.67-.62,2.37-.27.47-.79.54-1.18.72.04-.69,1.51-1.47.62-2.37l-1.58-1.22c.61-.65,2.39-.69,2.77.5Z"/>
    <path class="cls-2" d="M112,108.73c-.4.05-.74.05-1.12-.22-1.45-.65.17-1.25.26-1.99.53.5.44,1.54.86,2.21Z"/>
    <path class="cls-2" d="M117.95,124.86c.08,2.92-.2,5-.77,6.7-.6,1.77-.75,2.25-2.1,4.44,1.13-2.72,1.51-4.74,1.89-7.86.29-2.76.19-6.78,1.3-9.02l.95-2.7c-1.15,4.55-1.15,6.56-1.26,8.44Z"/>
    <path class="cls-2" d="M82.46,155.35c.72-.88,1.16-.66,1.56-.8.5.5.35,1.09,1.12,1.46,1.13.55,2.7-.56,3.49-1.1,0,0,2.16,1.42,3.4,1.42s1.69-1.24,2.81-1.24,1.8,1.4,1.8,1.4c0,0,1.13-.1,7.08-1.07,5.9-.96,4.5,2.87,4.5,2.87,0,0,2.23.48,4.67-2.14,1.8-1.94,3.65-4.6,4.15-7.19.51-2.58.62-12.36.62-12.36,0,0-1.63,4.38-1.85,6.91-.23,2.53-.67,5.56-2.87,8.77-.48.71-2.36,1.52-2.36,1.52.19.03-.65-1.47-1.35-2.02-1.03-.8-1.91-.9-1.91-.9,0,0-4.38,2.98-6.01,2.87s.11-2.87.11-2.87c0,0-4.94,1.85-7.47,2.58-2.53.73-3.01-.55-3.01-.55-1.25.43-3.85,1.55-5.39,1.01-1.41-.8-2.06-1.56-2.7-.72l-1.43,1.56c-1.39-3.2,2.32-4.38,3.4-5.5l-2.37-.26c-.98-.36-1.43-1.38-1.24-2.16-1.32.03-2.55.71-3.58.86.2-2.64,3.43-1.5,4.7-3.2.33-.46,1.24-.86,2.23-.29,0,0-2.94-1.87-2.72-2.68.76-2.82,5.52,1.43,6.63,2.05-.35-.53-.77-.79-1.2-1.46-1.99-4.32-7.12-3.54-8.93.08.24.42,1.9-.91,2.06.21.34.56.78,1.15.92,1.34-1.08.62-2.18.69-2.99,1.06-3.08,1.1-3.16,5.18-3.16,5.18,0,0,3.11-.57,4.13-.98.14-.04.28-.09.42-.15.46,1.6,1.94.51.21,3.54-.93,1.61.8,4.59.8,4.59,0,0,1.05-.46,1.73-1.64Z"/>
    <path class="cls-2" d="M123.76,132.51c-.76,1.22-3.5,6.25-3.79,10.79-.91-4.1.08-7.42,3.33-12.94,4.64-6.83,2.2-13.48,2.49-15.55,3.62,12.47-.65,15.37-2.02,17.7Z"/>
    <path class="cls-2" d="M108.89,139.63c.17.93.67,2.3,1.6,4.13.67,1.16,1.52,3.29.67,7.5-.93-5.82-1.52-5.9-2.5-8.01-.82-1.58-1.54-4.2-1.04-6.4.11-.67,1.07-2.39,1.6-2.78-.71,1.24-.85,3.89-.34,5.56Z"/>
    <path class="cls-2" d="M121.74,147.43c-1.6,2.36-2.82,3.88-3.75,4.68.84-6.62,4.97-7.59,6.74-15.68,0,3.08-1.38,9.01-2.99,11Z"/>
    <path class="cls-2" d="M149.47,156.66c.87.23,1.76.47,2.4.8-1.04-.37-3.27-.75-3.99-.8-.54.05-.93.02-1.3-.04-3.04-.2-6.48-1.04-8.82-.19-3.83,1.61-7.99,4.74-8.75,6.89-2.03,4.28-7.08.73-10.45,4.78-.89-.95.39-2.47,2.29-3.65,1.41-.73,4.92.32,6.26-1.28.8-.84-1.05-2.83-3.37-1.87-3.02,1.17-3.04,2.72-4.78,3.72.12-2.12,2.14-4.89,5.01-5.15,1.54-.38,2.99.49,4.71.16,1.8-1.19,2.82-1.79,5.37-3.07,1.55-.83,2.81-1.07,4.72-1.35,3.77-.39,7.14.63,10.7,1.05Z"/>
    <path class="cls-2" d="M113.33,109.4s-.34-.04-1.15-.3c-.89-.29-1.93-.76-2.08-.8-.43-.13-.67-.22-.67-.22,0,0,.18-.29.47-.3.29,0,1.39.25,2.36.7.97.45,1.46.87,1.46.87l-.38.06Z"/>
    <path class="cls-2" d="M139.13,92.03s-.11.39.17,1.12c.28.73.51,1.29.51,1.29,0,0-3.6.11-3.31-.39.28-.51.56-.96.39-1.29-.17-.34-.62-.96-.62-.96l2.87.22Z"/>
    <path class="cls-2" d="M118.17,102.14c-.41-1.18-.73-1.85-3.15-3.15-2.42-1.29-4.38-1.69-5.23-2.02-.84-.34-2.19-.73-2.02-.62.17.11,4.83,2.75,5.73,3.15.9.39,2.19.9,2.64,1.35.45.45.56.45.79,1.07.22.62,0,1.4.39,2.19.39.79.73.79.73.79,0,0,.62-1.29.11-2.75Z"/>
    <path class="cls-2" d="M111.76,93.59c1.35,0,2.05.1,3.07.45,1.02.34,1.38,1.95,2.08,2.83,0,0-2.48-2.67-4.48-2.58-.34.01-1.32-.69-.68-.69Z"/>
    <path class="cls-2" d="M110.52,95.04c.73-.18,1.26.04,1.9.26.64.22.97.77,1.58,1.6l-.59-.28s.13,0-.72-.44c-.96-.5-1.27-.45-1.65-.65-.38-.2-.87-.4-.52-.49Z"/>
    <path class="cls-2" d="M132.67,91.92s-1.6,1.43-1.77,3.96c-.17,2.53.42,5.56.84,8.43.42,2.87.08,4.97-1.1,7-.9,1.54-1.69,3.71-1.6,5.98.1,2.78,2.21,5.49,2.21,5.49,0,0-1.8-3.51-1.12-6.8.67-3.29,2.61-5.23,2.87-7.59.25-2.36-.11-4.67-.74-7.46-.93-4.05-.93-6.66.42-9.02Z"/>
    <path class="cls-2" d="M129.68,132.95s1.8-2.87,1.85-5.45c.06-2.58-1.63-5.17-2.14-7.87-.51-2.7-.62-3.15-.06-5.11.56-1.97,2.25-2.98,2.25-2.98,0,0-1.35,2.58-1.4,4.21-.06,1.63-.23,2.61.79,5.68,1.01,3.07,2.08,6.07,1.35,8.26-.73,2.19-1.74,3.37-2.47,4.33-.73.96-1.18,1.01-.17-1.07Z"/>
    <path class="cls-2" d="M124.76,152.6c-.38.28-.83.58-1.38.91-.46.28-1.18.41-1.18.41,0,0,.66-.77,2.25-2.99,2.53-3.76,2.39-7.71,3.26-11.63.71-2.88,3.03-6.24,3.88-7.75.84-1.52.31-6.41.31-6.41-.17,8.26-4.55,7.92-5.65,14.44-.31,3.64-1.57,7.47-4.51,11.1-2.23,3.08-6.27,6.34-10.27,7.89,4.61.9,7.75-.39,11.8-.56.96,0,2.81.06,4.05.34h0c.84.39,1.12-.62,3.6-1.91,1.8-.9,3.12-1.49,4.72-1.98,2.18-.53,3.92-.99,5.53-.74-.31-.18,6.54-.29,5.55-.94-.39-1.54-2.82-.17-2.09-1.05-2.47,1.18-2.91.31-5.86.9,0,0-2.36.28-4.21.25,0,0-1.23-.05-2.06-.42-1.63-.73-1.46-2.25-1.46-2.25,0-.84,0-1.38.11-2.47.11-1.07-.21-2.91-.21-2.91,0,0-2.49,5.6-6.16,7.78Z"/>
    <path class="cls-2" d="M179.77,135s-3.54-4.13-7.33-5.06c-3.79-.93-10.87.17-15.17,2.36-4.3,2.19-5.98,5.31-8.26,9.36,0,0-1.02,1.42-1.57,3.09-.73,2.2-.79,3.15.48,3.74.65.3,3.71-1.18,3.71-1.18-.7-.98-3.23-.48-3.23-.48,0,0,1.21-1.63,2.47-2.3,1.26-.67,2.95-.34,2.95-.34l-1.43-1.01s-.08-1.01,1.35-4.21c1.43-3.2,2.87-5.73,8.43-7.16,5.56-1.43,8.34-1.77,11.72-.17,3.37,1.6,5.9,3.37,5.9,3.37Z"/>
    <path class="cls-2" d="M176.26,156.49s-1.8-1.12-3.93-1.97c-1.88-.74-4.43-1.55-4.43-1.55,0,0,6.07-1.06,9.44-1.82,2.11-.48,3.09-.76,4.38-1.4,1.35-.67,1.85-1.35,1.85-1.35,0,0,.76-.34,1.85-3.26.88-2.33-.35-6.45.17-7.14,1.01-1.35,7.59.37,10.45,4.83,2.11,3.29.25,8.68.25,8.68,0,0,1.88-.73,2.11-5.65.26-5.73-6.28-8.95-6.28-8.95,0,0,3.98.81,6.45,4.96,2.47,4.16.96,9.27-2.53,13.77-3.48,4.5-11.29,4.38-14.44,3.71,0,0,1.57,1.78,1.91,3.2.73,3.03-.28,4.78-1.46,5.45-1.02.58-6.69.96-8.48,1.01-1.8.06-2.53,0-5.17.22-2.64.22-5.5-.34-6.74-.34-.67,0-1.24.22-2.92.62-2.63.61-2.58-.06-2.58-.06,0,0,.45-1.29-2.92-.79-2.33.35-4.16.34-4.16.34,0,0-1.85,1.12-5.17.51-3.31-.62-3.6-2.7-3.6-2.7,0,0,2.53,1.18,5.23,1.12,2.7-.06,4.05-1.57,4.05-1.57,0,0,.71,1.08,3.43.17,1.52-.51,2.19-1.07,2.19-1.07,0,0,5.31.33,5.84.39,1.85.22,5.9.56,5.9.56,0,0,.45,0,3.82.23,2.31.15,4.08.31,4.21-.28.13-.55-1.69-1.25-1.69-1.25,0,0,3.2.41,4.78.46,1.16.04,2.14-.17,2.75-.56.62-.39.73-2.25.06-2.98-.88-.95-.59-.88-1.77-1.43-2.87-1.35-2.44-1.94-2.44-1.94,0,0-.81-1.08,1.01-.25.93.42-.17-1.18-.17-1.18,0,0-.42-.42-1.24-.76ZM188.45,140.7s.39,6.01-1.35,8.82c-1.74,2.81-5.96,6.24-5.96,6.24,4.61,1.8,12.92-.67,14.27-5.28,1.29-4.42-.71-8.23-2.7-9.44-2.3-1.4-4.27-.34-4.27-.34Z"/>
    <path class="cls-2" d="M163.59,151.52s.51.25,1.52.51c.75.19,4.05,1.43,4.05,1.43,0,0,1.35.17,2.07-.61,1.07-1.17-2.9.1-2.72-1.18.06-.39-.7-.9-.7-.9,0,0-1.18-.25-2.11-.17-1.85.17-2.11.93-2.11.93Z"/>
    <path class="cls-2" d="M135.06,152.95s3.27-.11,6.53-1.01c3.26-.9,3.88-1.69,5.31-2.11,1.08-.32,3.27-.18,3.27-.18,0,0-.6.21-.77,1.11-.17.9.17,1.57.17,1.57,0,0,1.18-.45,2.08-.28.9.17,1.15.73,1.15.73,0,0-.93,1.46.31,1.85,1.24.39,2.78.4,5.34,1.26,2.56.87,4.1,1.12,6.07,1.52,1.97.39,4.13,1.1,4.13,1.1,0,0,.31.28-.42.67-.73.39,1.94,1.18,1.94,1.18,0,0,.25.17-1.6,0-1.56-.14-1.8-.05-3.76-.45-3.03-.62-3.99-.62-3.99-.62,0,0-1.24-.23-2.81-.28-.84-.03-3.65-.17-6.57-.51-2.92-.34-5.17-.84-6.8-1.46-1.63-.62-3.6,0-3.6,0,0,0-.73-.79-2.25-.17-1.52.62-2.16,2.22-2.16,2.22,0,0,.76-.42,1.54-.42s1.29.22,1.29.22c0,0,.45.84-.28,1.52-.73.67-2.02,1.24-2.02,1.24,0,0-.06-.39-3.15-.39s-3.43-.45-4.5,1.07c-1.07,1.52-.56-2.47-.56-2.47,0,0,.73-1.18,4.89-3.15,4.16-1.97,7.47-1.74,9.05-1.8,1.57-.06,3.6.11,5.62.45,1.28.21,4.5,1.35,4.5,1.35,0,0-1.49-1.31-4.38-2.36-2.47-.9-9.1-.84-12.36-.11-3.26.73-4.5.06-4.16-.45.34-.51,2.96-.84,2.96-.84Z"/>
    <path class="cls-2" d="M136.76,159.02s1.46-.56,2.47-.17c.4.16.56.22.84.56.28.34.96.9.96.9,0,0-3.54.28-2.81,1.97.73,1.69,2.64,1.41,2.64,1.41,0,0-1.01.45-1.29,1.52-.28,1.07.73,1.63.73,1.63l2.87,1.12-1.74.62s-1.18-.51-1.46.23c-.28.73-.39,1.47-.39,1.47,0,0-1.18-1.19-1.35-2.77-.17-1.57,1.01-2.75,1.01-2.75,0,0-.89-.76-1.62.07-.74.83-.9,1.74-.9,1.74,0,0-1.24-1.14-1.46-2.71-.22-1.57,1.01-2.7,1.01-2.7l.51-2.14Z"/>
    <path class="cls-2" d="M110.82,120.75c-.93,6.15-3.12,8.93-3.71,11.04,0,0-.51-1.15-1.77-2-1.17-.78-3.2.45-3.2.45,0,0-1.85-2.42-6.07-4.19-3.44-1.45-3.03,1.54-3.03,1.54,0,0-2.81-3.09-3.93-4.33-1.46-1.6-2.98-.93-4.33-.51-1.35.42-5.31-.17-5.31-.17,0,0-3.03-.25-3.03-3.12,0-2.02,2.19-2.78,2.19-2.78,0,0-1.85-1.1-1.69-3.2.17-2.11,2.44-2.02,2.44-2.02,0,0-1.69-1.35-1.6-2.44.08-1.1,1.85-2.87,3.12-3.03,1.26-.17,5.75,2.27,7.84,2.78,1.9.46,1.04,2.91,4.41,4.28,1.43.58,3.94,1.19,7.05,1.19s4.21,1.18,7.75,2.02c3.54.84,3.88-.59,3.88-.59,0,0-.68,2.86-1.01,5.06ZM82.6,107.04c-1.16-.48-1.96-.29-2.92.48-.33.64-.32,1.95.44,2.22,2.41.41,2.05-1.54,4.47-1.27-.7-.33-1.4-.82-1.99-1.44ZM80.12,117.1c-.9.24-2.23,1.4-2.06,2.81h0c.44,1.23.74,1.54,2.21,1.73.72-.17,1.27-.3,1.31-.8h0s-.34-.31-.06-.59c.9-.79,1.74-.6,2.53-.62-1.18-1.18-1.76-1.14-2.3-1.52-1.46-1.3-.48-1.99.17-2.53.43-.26,1.98-.11,2.75.23l-2.52-2.99c-1.14-.72-3.03-.99-3.58.63-.11.42-.18,1.6.32,1.89.84.9,1.29,1.12,1.24,1.74ZM108.21,125.47s-.52-2.22.28-4.16c.8-1.94,2.42-3.37,2.42-3.37-1.75,1-2.55.05-7.02-1.25-4.47-1.31-6.8-.91-8.57-1.04-1.77-.13-5.9-2.57-6.53-3.12-.63-.55-.51-1.05-.91-2.35-.28-.9-1.52-1.29-2.36-1.12-.84.17-1.12.79-1.12.79,0,0-.46.11-1.35.28-.88.17-1.4,1.29-1.4,1.29,0,0,.79-.37,1.5-.28.72.08,1.27.68,1.27.68.06,1.97-.16,2.02.62,3.37,1.05,1.79,3.29,3.76,3.29,3.76,2.21,1.48,5.17,2.7,5.68,2.92.34.15,2.13,1.01,3.71,1.57,1.74.62,3.2,2.53,3.2,2.53,0,0,.02-1.94,2.7-1.07,2.08.67,4.61.56,4.61.56Z"/>
    <path class="cls-2" d="M136.07,104.45s.64,3.36.04,4.89c-1.14,2.91-2.79,3.53-3.29,6.31-.59,3.3.45,7.08,1.01,8.99.56,1.91,1.18,4.2.51,5.77-.67,1.57-1.97,3.22-2.87,5.13-.9,1.91-1.48,4.4-1.48,4.4,0,0,1.36-3.05,2.26-4.4,1.12-1.69,2.82-3.71,3.43-5.45,1.48-4.21-.73-6.91-1.18-9.33-.56-2.99.23-5.5,1.85-7.53,1.57-1.97,1.97-3.48,2.3-5.39.4-2.29.39-4.27.39-4.27l-2.99.88Z"/>
    <path class="cls-2" d="M67.15,191.11s67.31-1.7,84.5-3.27c4.62-.42,12.8-.67,17.89-1.18,5.09-.51,12.64-.84,12.64-.84,0,0-2.35,1.1-8.09,1.61-6.54.58-18.79,2.06-24.44,2.06-6.9,0-29.9,1.66-36.78,2-28.33,1.38-45.72-.37-45.72-.37Z"/>
    <path class="cls-2" d="M106.53,26.64l-17.28,76.92s-.08.97.42,1.18c.51.21.87.3,1.43.63.63.38,1.14.88,1.14.88,0,0-1.31-.04-2.82-.55-1.43-.48-1.69-1.39-1.69-1.39l17.56-77.46c.56-3.32,1.74-10.28,1.91-12.02.17-1.74-.22-1.35-.9-.51s-2.81,6.18-3.82,10.73c0,0-16.86,70.69-17.19,72.65-.34,1.97-.13,2.89-1.05,4.45-.96,1.61-1.83,1.92-2.95,1.81-.84-.08-2.01-.13-2.23.55-.15.46.56.77,1.52.88.95.11,2.18.08,3.24-.21,1.22-.34,1.73-.51,1.73-.51,0,0,.32.68.63.97.59.55,1.14,1.01,1.81,1.31.6.26,2.3.74,3.37.69,1.07-.06,1.29.56,1.46,1.01.17.45,1.03.94,2.14.39.74-.37.83-1.76.11-2.39-.86-.76-2.08.08-2.3-.31-.22-.39.87-1.54,2.51-.96,1.39.5,2.21,1.75,1.6,3.58-.63,1.9-2.71,1.87-3.83,1.7-1.12-.17-1.74-1.01-2.14-1.12-.39-.11-1.24-.17-1.24-.17,0,0-7.42-2.98-8.04-3.09-.62-.11-2.19.17-2.75.28-.56.11-.96.73-2.36.51-.78-.12-3.3-1.1-2.53-3.41.56-1.69,1.73-2.4,3.5-2.11.91.15.97,1.01,1.77,1.14,1.04.17,1.81.06,2.15-1.01.34-1.07,18.43-73.16,18.43-73.16,2.58-8.54,4.55-13.77,6.29-15.96,1.74-2.19,2.53-4.09,2.25.79-.28,4.83-.77,8.15-1.85,13.26ZM76.77,105.12c.54,0,.98-.41.98-.92s-.44-.92-.98-.92-.98.41-.98.92.44.92.98.92Z"/>
    <path class="cls-2" d="M115.63,145.03s.34-5.56,2.53-12.05c.9-2.68,2.81-5.82,3.2-8.51.45-3.09-.42-6.91-.25-8.77.17-1.85.34-3.62.34-3.62h1.18s-.51,4.21-.17,5.98c.34,1.77.9,5.02.25,7.33-1.01,3.62-2.99,6.06-3.76,9.07-.96,3.71-1.57,7.92-1.63,11.86l-1.69-1.29Z"/>
    <path class="cls-2" d="M73.28,104.63c.62,0,1.13-.48,1.13-1.07s-.51-1.07-1.13-1.07-1.13.48-1.13,1.07.51,1.07,1.13,1.07Z"/>
    <path class="cls-2" d="M81.49,129.6c.82,0,1.49-.64,1.49-1.43s-.67-1.43-1.49-1.43-1.49.64-1.49,1.43.67,1.43,1.49,1.43Z"/>
    <path class="cls-2" d="M79.81,122.19s.42-.29-.04.21c-.46.51-1.33,1.5-1.11,2.63.22,1.12,1.11,2.47,2.96,2.68,1.85.21,3.37-.59,3.75-2.28.38-1.69-.17-2.32-.63-2.78-.46-.46-2.36.17-2.36.17.8.55,1.18,1.35,1.1,2.15-.08.8-.84,1.22-1.56,1.1-.72-.13-1.5-.7-1.22-1.64.34-1.14,1.52-1.6,1.52-1.6,0,0-.04-.51.34-.76.38-.25-2.74.13-2.74.13Z"/>
    <path class="cls-2" d="M97.78,110.52c.84,0,1.52-.7,1.52-1.56s-.68-1.56-1.52-1.56-1.52.7-1.52,1.56.68,1.56,1.52,1.56Z"/>
    <path class="cls-2" d="M90.28,156.77s1.82,3.92,3.62,6.28c1.8,2.36,3.03,4.16,4.16,6.07,1.12,1.91,4.51,7.16,7.21,10.75,2.7,3.6,7.49,8.99,7.49,8.99,0,0-6.27-9.85-8.18-12.44-1.91-2.58-3.71-5.62-5.51-7.98-1.8-2.36-7.66-10.66-8.79-11.67Z"/>
    <path class="cls-2" d="M106.23,156.59s7.42,8.99,11.13,13.37,5.62,7.87,7.42,10c1.8,2.14,7.04,8.22,7.04,8.22,0,0-2.54-5.75-5.69-9.12-2.88-3.08-5.28-6.97-7.64-9.78-2.36-2.81-5.96-7.64-7.53-8.99-1.57-1.35-3.93-3.82-4.72-3.71Z"/>
    <path class="cls-2" d="M129.84,163.74s9.23,11.48,10.8,13.05c1.57,1.57,6.52,8.54,6.52,8.54,0,0,5.38,5.38,1.84.32-.86-1.23-5.45-7.08-7.47-9.66-2.02-2.58-4.38-5.28-6.29-7.53-2.11-2.48-5.06-4.27-5.39-4.72Z"/>
    <path class="cls-2" d="M152.5,168.94s1.46,2.81,3.03,4.27c1.57,1.46,4.61,4.94,5.62,6.18,1.01,1.24,6.98,6.35,6.98,6.35,0,0-2.37-3.32-4.05-5.01-1.69-1.69-3.48-3.48-4.83-5.06-1.35-1.57-5.84-6.07-6.74-6.74Z"/>
    <path class="cls-2" d="M168.93,168.37s4.58,4.87,6.83,7.47c2.25,2.6,7.51,6.97,7.51,6.97,0,0-1.13-2.54-2.77-4.04-1.64-1.5-4.83-4.96-6.15-6.59-1.31-1.63-3.29-3.58-3.29-3.58l-2.15-.24Z"/>
    <path class="cls-2" d="M94.47,180.01s7.2-.76,10.45-.93c3.25-.17,14.64-.34,18.87-.34s21.14-1.35,27-1.52c5.86-.17,15.45-1.35,17.73-1.35s22.11-.44,22.11-.44c0,0-3.07.94-9.22,1.31-1.31.08-14.03,1.15-15.98,1.15s-7.68.13-7.68.13c0,0-5.6.55-8.42.38-2.82-.17-8.24.65-8.24.65,0,0-2.66.03-6.07.37-3.42.34-9.6,0-10.25.17-.65.17-5.41.69-9.58.74-4.17.06-7.93-.07-8.42-.24-.49-.17-3.8.17-5.75.17s-6.55-.25-6.55-.25Z"/>
    <path class="cls-2" d="M136.08,167.34h-11.01c-1.91,0-8.51.53-8.51.53,0,0-5.87-.2-8.91-.2s-16.46.79-16.46.79c0,0,4.38.51,16.52.17,2.96-.08,8.96,0,10.2,0s6.82-.06,8.51-.17c9.52-.59,9.66-1.12,9.66-1.12Z"/>
    <path class="cls-2" d="M114.32,158.81s-9.23.13-12.94.29c-3.71.17-10.96.17-10.96.17,0,0,2.19-.55,5.73-.72,3.54-.17,6.74-.05,8.77-.17,3.54-.21,9.4.42,9.4.42Z"/>
    <path class="cls-2" d="M55.04,126.92c-.16-.06-.32-.04-.47.05l-.17.02c-.08.04-.14.11-.16.18l-.03.12c-.29.48-.48,1.14-.07,1.6.42.47,1.26.43,1.24,1.32l-.02.11.07-.34-.06.11c-.08.15-.15.31-.22.46l-.07.27c-.06.17-.05.35.04.51l.04.06c.37.85,1.26,1.23,2.07,1.54-.24.43-.53.84-.6,1.34l-.02.25c0,.15.04.29.11.41l.09.13c.26.58.91.81,1.4,1.19.14.11.04.33-.12.61-.41.72-.07,1.56.57,2.06.41.32.94.45,1.16.91.3.65-.25,1.3-.17,2.02.11.96.86,1.79,1.88,1.79.07,0,.2.11.18.15-.14.55-.57,1-.49,1.62.11.98.98,1.28,1.62,1.77-.13.25.14.51-.2.74-.24,1.14.58,2.4,1.83,2.49.11,0,.27.2.51.22.1.06.22.01.28-.09.05-.1,0-.23-.1-.27-.46-.57-1.14-1.01-1.22-1.81.55-1.11.18-2.56-1.11-2.99-.06-.02-.11-.16-.08-.22.31-.73.6-1.55.2-2.3-.3-.55-.93-.83-1.58-.93-.05,0-.09-.22-.08-.34.08-.69.31-1.31.15-2.02-.21-.96-.99-1.5-1.78-1.89-.05-.02-.14.04-.22.06.71-1.24.24-2.96-1.24-3.33l-.28-.34.12.41.04-.25c.32-.78.63-1.75-.2-2.42-.46-.37-1.07-.37-1.51-.74l-.21-.41.07.39.08-.25s0,.02,0,.03l.19-.36c.05-.1.08-.2.07-.32l-.02-.27c-.11-.88-.83-1.46-1.71-1.64-.25-.05-.22-.42-.17-.67l.1-.34-.1.14.22-.11c-.2-.3.11-.2.2-.28.04-.01.06-.05.05-.09-.01-.04-.05-.06-.09-.05h0Z"/>
    <path class="cls-2" d="M62.56,125.4c-.16-.06-.14.13-.28.21l-.17.02c-.08.03-.14.1-.16.18l-.03.12c-.29.48-.48,1.14-.07,1.6.42.47,1.08.26,1.05,1.16l-.02.1.07-.34-.06.11c-.08.15-.15.31-.22.46l-.07.27c-.06.17-.05.35.04.51l.04.06c.37.85,1.26,1.23,2.07,1.54-.24.43-.53.84-.6,1.34l-.02.25c0,.15.04.29.11.41l.09.13c.26.58.91.81,1.4,1.19.14.11.04.33-.12.61-.41.72-.07,1.56.57,2.06.41.32.94.45,1.16.91.3.65-.25,1.3-.17,2.02.11.96.86,1.79,1.88,1.79.07,0,.2.11.18.15-.14.55-.57,1-.49,1.62.11.98.98,1.28,1.62,1.77-.13.25.14.51-.2.74-.24,1.14.58,2.4,1.83,2.49.11,0,.27.2.51.22.11.06.22.01.28-.09.05-.1,0-.23-.1-.27-.46-.57-1.14-1.01-1.22-1.81.55-1.11.18-2.56-1.11-2.99-.06-.02-.11-.16-.08-.22.31-.73.6-1.55.2-2.3-.3-.55-.93-.83-1.58-.93-.05,0-.09-.22-.08-.34.08-.69.31-1.31.15-2.02-.21-.96-.99-1.5-1.78-1.89-.05-.02-.14.04-.22.06.71-1.24.24-2.96-1.24-3.33l-.28-.34.12.41.04-.25c.32-.78.63-1.75-.2-2.42-.46-.37-1.07-.37-1.51-.74l-.21-.41.07.39.08-.25s0,.02,0,.03l.19-.36c.05-.1.08-.2.07-.32l-.02-.27c-.11-.88-.64-1.3-1.52-1.48-.25-.05-.23-.42-.17-.67l.1-.34-.1.14.22-.11c-.2-.29.11-.2.2-.28.04-.01.06-.05.05-.09-.01-.04-.24-.22-.28-.21h0Z"/>
    <path class="cls-2" d="M69.48,124.53c-.86.98-.35,2.61.86,3.03.48.53-.07.7-.24,1.25l-.03.13c0,.11.03.22.08.31l.03.06c.16.64.63,1.14,1.27,1.39h.22s-.18-.14-.18-.14v-.03c.37.22.86.63.65,1.03-.62,1.15-.05,2.44,1.03,2.94l.11.06-.32-.29.29.32c.17.05.3.18.32.4.03.26-.08.48-.21.77-.5,1.12.52,2.13,1.47,2.77.15.1.23.27.19.45-.18.99-.65,2.09.29,2.79.62.47,1.04.97,1.32,1.66.01.18.17.32.35.31.18,0,.32-.16.32-.34.27-.67.22-1.54-.31-2.06-.31-.31-.65-.54-1.1-.74-.13-.06-.22-.44-.15-.65.32-.88.36-1.92-.27-2.63-.35-.39-.89-.53-1.17-1-.45-.74.16-1.51.08-2.3-.01-.21-.11-.39-.24-.56l.09.08c-.08-.13-.18-.22-.31-.29l-.35-.19c-.48-.18-.93-.53-1.05-1.03-.18-.72.44-1.43.06-2.16l-.03-.18c-.1-.12-.22-.2-.37-.23l-.19-.1s.09-.02.14-.03c-.19-.17-.5-.13-.63-.38l-.3-.3.08.31v-.25c-.15.03-.19-.13-.17-.18.32-.99.15-1.72-.85-2.27-.49-.27-.36-.94-.15-1.42.08-.18,0-.38-.18-.46-.18-.08-.38,0-.46.18h0Z"/>
    <path class="cls-2" d="M47.99,128.22c-.86.98-.35,2.61.86,3.03.48.53-.02,1.14-.19,1.69l-.03.13c0,.11.03.22.08.31l.03.06c.16.64.63,1.14,1.27,1.39h.22s-.18-.14-.18-.14v-.03c.37.22.86.63.65,1.03-.62,1.15-.05,2.44,1.03,2.94l.11.06-.32-.29.29.32c.17.05.29.18.32.4.03.26-.08.48-.21.77-.5,1.12.52,2.14,1.47,2.77.15.1.22.27.19.45-.18.99-.65,2.09.29,2.79.63.47,1.04.97,1.32,1.66.01.18.17.32.35.31.18,0,.32-.16.32-.34.27-.67.22-1.54-.31-2.06-.31-.31-.65-.54-1.1-.74-.13-.06-.22-.44-.15-.65.32-.88.36-1.92-.27-2.63-.35-.39-.89-.53-1.17-1-.45-.74.16-1.51.08-2.3-.01-.21-.1-.39-.24-.55l.09.08c-.08-.13-.18-.23-.31-.29l-.35-.19c-.48-.18-.93-.53-1.05-1.03-.18-.72.44-1.43.06-2.16l-.03-.18c-.1-.12-.22-.2-.37-.23l-.19-.1s.09-.02.14-.03c-.19-.17-.5-.13-.63-.38l-.3-.3.08.31v-.25c-.15.03-.19-.13-.17-.18.32-.99.1-2.16-.91-2.71-.49-.27-.36-.94-.15-1.42.08-.18,0-.38-.18-.46-.18-.08-.38,0-.46.18h0Z"/>
    <path class="cls-2" d="M55.32,147.17c-.18.67.09,1.32.71,1.72.26.17.34.59.4.95-.06-.08-.12-.18-.18-.26-.04.14-.08.29-.11.43l-.09.25c-.04.11-.04.22,0,.34l.06.2c.29.78,1.03,1.23,1.64,1.74.25.22.63.2.86-.06.22-.25.2-.64-.06-.86-.36-.33-.74-.64-1.1-.96l-.2-.39v.37s.05-.19.05-.19c.45-.94-.07-2.31-1.15-2.43-.1-.01-.25.18-.44-.13-.14-.22-.18-.49-.25-.74,0-.04-.04-.06-.08-.06-.04,0-.06.04-.06.08h0Z"/>
    <path class="cls-2" d="M60.61,156.92c-.08-.02-.17-.04-.25-.06l.03-.15c-.06,0-.13.02-.18.06l-.19.2c-.84.96,0,2.06.41,2.99.03.07-.17.29-.43.46-.69.45-.74,1.54-.14,2.09.42.39,1.07.78.83,1.37-.29.7-1.1,1.17-1.05,2.02.04.6.47,1.02.76,1.51.48.79-.52,1.43-.72,2.23-.16.66.12,1.42.77,1.74.38.85-.72,1.33-.89,2.1l-.06.09c-.06.11-.08.22-.08.34l.03.25c.03.27.18.48.32.69.24.34.75.55.7.96-.08.74-.63,1.27-1.28,1.66-.27.18-.34.54-.17.81.18.27.54.34.81.16,1.08-.47,1.85-1.43,1.92-2.63.04-.7-.43-1.29-.96-1.71l-.12-.29-.08.35.13-.34c.36-.7.96-1.3.95-2.12-.01-.72-.45-1.32-.86-1.88.52-.77.87-1.62.81-2.58-.05-.76-.89-1.14-.88-1.84,0-.49.55-.83.7-1.34.3-1.01-.39-1.86-.54-2.8.32-.51.62-1.1.36-1.76-.28-.7-1.09-1.19-.79-2.09l.09-.2-.19.06.08-.02c.06-.03.11-.06.17-.09.1-.09.1-.25,0-.34-.08-.1-.24-.11-.34-.01l.31.1Z"/>
    <path class="cls-2" d="M67.84,156.37c-.28-.08-.57.04-.76.25-.94,1.02-.45,2.31.3,3.34.07.1.05.36-.04.48-.69.91-1.07,1.9-.68,2.98.2.55.66.89.95,1.39.08.15.03.36-.09.48-1.07,1-1.26,2.74-.04,3.67.2.51.1,1.07-.38,1.35l-.15.18c-.08.09-.12.2-.14.31l-.04.24c-.15.95.35,1.71.86,2.5.08.13.08.41-.01.49-.76.72-1.51,1.57-1.23,2.66.02.37.34.65.71.63.37-.02.65-.34.63-.72,0-.21-.1-.46-.03-.61.32-.7,1.1-1.1,1.25-1.94.15-.86-.33-1.47-.81-2.14-.13-.19-.1-.44-.08-.67l.02-.24-.14.31.11-.15c.77-.54.94-1.52.7-2.4-.16-.58-.7-.89-.85-1.45-.24-.9.38-1.58.61-2.42.04-.16.04-.33-.01-.49-.21-.7-.54-1.36-.43-2.07.11-.67.64-1.17.74-1.87.15-1.03-.58-1.69-1.12-2.5-.32-.48-.13-1.02.2-1.45.04-.01.06-.06.04-.09-.01-.04-.06-.06-.09-.04h0Z"/>
    <path class="cls-2" d="M74.79,155.35c-.29,0-.57.05-.79.34-1.03,1.39-.08,2.99.6,4.26-.2.2-.22.52-.41.7-1.11,1.08-.6,3.02.34,4l.05-.06h0s.02.04.02.04c.13.18.29.34.2.62-.26.78-.93,1.36-.96,2.2-.02.62.3,1.12.59,1.66.18.34.47.83.19,1.1-1.29,1.21-.39,2.99.4,4.11.04.74-.22,1.48-.73,2.02-.2.14-.24.41-.1.6.13.2.4.24.6.11.41-.13.8-.32,1.08-.68.84-1.04.74-2.58-.15-3.58-.73-.81.03-1.64.1-2.51.07-.81-.39-1.55-.9-2.27-.24-.34-.28-.74-.13-1.14.34-.84,1.02-1.63.81-2.6l.05-.06c-.06-.16-.18-.28-.34-.34l.02-.11c-.11-.55-.51-1.14-.18-1.7-.07.06-.14.13-.21.19.97-.64,1.59-1.95,1.12-3.07-.49-1.19-2.07-2.28-1.19-3.68.04-.03.05-.08.03-.11-.03-.04-.08-.05-.11-.03h0Z"/>
    <path class="cls-2" d="M82.97,157.5c-.74-.04-1,.81-1.06,1.4-.06.67.27,1.21.67,1.76.11.14.17.35.12.5-.2.67-.88,1.11-.95,1.82-.09.98.59,1.82,1.28,2.44l.15.1-.28-.35.02.06c.06.86-.89,1.33-1.14,2.12-.3.97.44,1.71.93,2.5.04.06.06.18.02.23-.51.65-1,1.27-.93,2.11.08.98.9,1.56,1.36,2.35-.06,1-.33,1.97-1.29,2.5-.09.06-.11.19-.05.27.06.09.18.12.27.06.62-.38,1.32-.62,1.78-1.21.56-.72.91-1.69.39-2.54-.32-.53-.77-.9-1.1-1.42-.09-.14-.11-.39-.03-.51.37-.53.71-1.03.82-1.65.12-.77-.53-1.24-.91-1.86-.11-.16-.18-.34-.07-.49.64-.89,1.45-1.8,1.17-2.91l.04-.05c-.05-.15-.15-.27-.28-.35l-.04-.08c-.23-.31-.15-.79-.71-.92.6-.73,1.38-1.53,1.17-2.58-.15-.77-.64-1.29-1.18-1.83-.36-.37-.15-.87-.05-1.32.04-.04.04-.1,0-.13-.04-.04-.1-.04-.13,0h0Z"/>
    <path class="cls-2" d="M50.4,180.54s5.6-.4,8.76-.78c3.46-.42,10.18-.03,16.14-.25,6.47-.24,14.89-1.01,14.89-1.01,0,0,.73-6.32.05-10.36-.67-4.05-.22-12.81-.22-12.81,0,0,1.35,5.28,1.57,8.54.22,3.26.56,7.53.79,9.55.22,2.02.11,1.91.45,4.05.34,2.14.39,4.97.39,4.97,0,0-3.73,1.3-6.33,1.14-2.6-.16-9.12-.61-12.15-.04-3.03.56-5.17.9-9.33.67-4.16-.22-8.2-.11-8.88.45-.67.56-2.25-1.57-2.25-1.57,0,0,6.07-.9,9.55-.67,3.48.22,11.22-.42,13.47-.65,2.25-.22,6.17.49,8.11.31,4.63-.44,5.28-1.57,5.28-1.57,0,0-3.69-.21-8.52.01-4.83.22-8.78.5-12.49.5s-9.49.02-11.74.25c-2.25.22-5.49.62-5.49.62l-2.04-1.33Z"/>
    <path class="cls-2" d="M67.84,183.97s.35,1.66.65,3.27c.64,3.39,4.59,6.39,4.59,6.39l2.11.67-.59-1.52s-3.63-3.07-4.18-5.36c-.29-1.19-.05-3.45-.05-3.45h-2.53Z"/>
    <path class="cls-2" d="M86.42,182.96s.21,1.81.85,4.37c.67,2.7,4.96,6.18,4.58,5.59.59.93,1.89,1.54,1.89,1.54l1.23-.11-.49-1.4s-4.18-3.46-4.92-5.17c-1.69-3.88-.36-3.87-.91-4.92-.35-.67-2.23.09-2.23.09Z"/>
    <path class="cls-2" d="M38.45,126.49l.25.73s5.96-1.35,9.61-1.97c3.65-.62,5.11-.51,11.07-1.74,5.96-1.24,13.6-1.91,13.6-1.91,0,0,3.03,6.01,4.33,8.93,1.29,2.92,5.06,9.78,5.06,9.78,0,0-.79-5.06-1.85-6.69-1.07-1.63-3.37-6.24-4.16-8.15-.79-1.91-2.44-6.41-2.44-6.41,0,0-4.44,1.2-4.76,1.24-.31.04-.39-.17-.39-.17,0,0,.11-2.42-.23-3.48-.34-1.07-4.61-7.81-4.61-7.81l-1.63-1.07.67,2.42s2.64,3.71,3.26,5.51c.62,1.8.62,4.94.62,4.94l-16.63,3.03s-1.24-3.93-2.8-6.77c-.5-.91-3.66-2.39-4-2.84-.34-.45-.9-1.24-.9-1.24l-.9-.62s-.64,1.91,0,2.75c1.24,1.63,2.92,1.46,3.99,3.03,1.93,2.84,2.3,5.96,2.3,5.96l-8.37,1.85-1.1.68Z"/>
    <path class="cls-2" d="M72.47,123.47l.45-.79s-3.46.42-4.89.51c-1.43.08-6.96,1.13-9.83,1.8-2.87.67-8.09.93-11.21,1.52-3.12.59-8.72,2.23-8.72,2.23,0,0,3.61,7.18,4.7,10.72,1.1,3.54,1.61,9.32,3.46,12.73,2.11,3.88,5.9,4.47,5.9,4.47,0,0,3.42-1.56,7.71-1.9,4.3-.34,8.34-1.94,12.31-2.28,3.96-.34,7.16-1.6,7.16-1.6,0,0-1.9-1.56-4.51-.97-2.61.59-9.16,2.46-10.66,2.74-1.81.34-5.52.72-7.21,1.22-1.28.38-4.09.93-4.09.93,0,0-3.12-.63-4.93-5.35-1.67-4.34-1.73-6.03-3.79-10.54-1.59-3.47-4.11-9.59-4.11-9.59,0,0,3.33-.8,5.52-1.31,2.19-.51,2.61-.08,8.6-1.35,5.98-1.26,11.63-2.31,14.38-2.7,1.03-.15,3.62-.45,3.76-.51Z"/>
    <path class="cls-2" d="M53.03,156.21s-.44,3.6-.34,5.96c.22,5.06,2.36,8.2,1.8,11.58-.56,3.37-2.42,6.86-2.42,6.86l-1.18-.67s1.69-4.61,1.46-7.19c-.22-2.58-1.46-7.53-1.35-10.23.11-2.7.79-6.07.79-6.07l1.24-.23Z"/>
    <path class="cls-2" d="M134.77,76.54c.78-.47,1.3-1.31,1.3-2.28,0-1.48-1.21-2.68-2.7-2.68s-2.7,1.2-2.7,2.68c0,.26.05.5.12.74-.5-.35-1.56-.47-2.63-.14-1.08.34-2.15,1.08-2.15,2.78s.81,2.98,2.53,2.98c.18,0-.17.03,0,0-.11.13.03-.1,0,0-.2.66-1.12,1.68-2.58,1.27-2.18-.61-1.9-2.68-1.9-2.68,0,0-2.04,1.48-3.42.63-1.66-1.01-.74-1.66-.74-1.66,2.12.24,3.75-2.15,3.07-3.9-.66-1.69-2.79-2.62-4.38-1.84,0,0,.3-1.98-2.88-2.39-2.29-.3-3.79,2.72-3.14,4.12.33.71.56.89,2.62,4.4,2.06,3.51,2.67,5.56,2.67,5.56.03.13.09.38.09.7,0,.45.11.73.11.73,0,0,2.98.31,9.78,2.67,6.8,2.36,11.41,4.92,11.41,4.92,0,0,.06-.23.11-.62.01-.09.03-.18.04-.27.1-.46,1.49-1.88,2.93-2.79,4.49-2.84,6.29-3.52,8.55-4.79,1.49-.84.94-3.6-.52-4.31-2.85-1.38-3.8.27-3.8.27-.97-1.33-3.31-1.5-4.78-.4-1.52,1.13-1.38,3.79.6,4.51,0,0,.05.6-1.79,1.05-1.69.41-2.19-2.1-2.19-2.1,0,0-1.31,1.48-3.96.81-.82-.21-1.6-1.11-1.3-2.68.54.91,1.16.77,2.12.71,1.52-.1,2.66-1.12,2.66-2.82,0-1.35-.99-2.62-2.22-3.03M135.71,76.7c-.29-.1-.61-.16-.93-.16M117.57,80.04c-.62-1.57-2.98-5.05-3.41-6.14-.37-.93.86-2.26,2.06-1.87,1.1.35,1.3,2.52,1.3,2.52,0,0,1.25-1.61,3.02-.61,1.19.66.92,1.78.31,2.44-.76.82-2.63.23-2.63.23,0,0-1.4,2.17,1.7,4.32,2.29,1.59,3.61-.05,3.61-.05,0,0,.14,1.59,1.87,2.06.82.22,2.78,1.42,4.5-1.83.39-.73.57-2.01.32-2.06-.25-.05-.55-.02-.96-.02-.82,0-1.48-.63-1.48-1.4s.55-1.52,1.37-1.52c.41,0,.78.16,1.05.42v-.05s.87,1.14,1.96-.1c.43-.48.01-1.69.01-1.69,0,0,0,0,0,0-.06-.14-.09-.28-.09-.44,0-.67.58-1.22,1.29-1.22s1.29.54,1.29,1.22c0,.53-.35.97-.85,1.14-.22.21-.62.66-.71,1.19-.22,1.28,1.67,1.36,1.67,1.36l-.05.09s.05,0,.08,0c.82,0,1.48.63,1.48,1.4s-.67,1.47-1.48,1.4c-1-.09-1.56-1.1-2.11-1,0,0-3.04,3.89.95,5.64,2.29,1.01,3.87-.05,3.87-.05,0,0,.97,1.72,2.9,1.79,2.85.1,4.28-2.98,4.28-2.98,0,0-1.93-.33-2.16-1.33-.18-.81.18-1.83,1.56-1.85,2.07-.04,2.6,1.88,2.6,1.88,0,0,.56-1.11,1.68-1.29,1.15-.18,2.04,1.44,1.22,2.01-.73.51-4.58,2.66-6.5,3.94-2.24,1.5-2.57,1.65-3.52,2.46-.53.45-.91,1.04-1.21,1.24l-1.18-.45s.06,0-2.14-.9c-2.19-.9-2.47-1.07-2.47-1.07,0,0-1.16-.56-3.69-1.46-2.53-.9-4.49-1.56-4.49-1.56,0,0,.31.27-1.94-.46-2.25-.73-2.08-.67-2.08-.67l-1.25-.31c-.03-.07-.06-.12-.1-.2,0,0-.64-2.07-1.45-4.13Z"/>
    <path class="cls-2" d="M121.25,89.66c.35.09,1.82,1.2,2.5,1.94.75.81,1.44,2.12,1.44,2.12,0,0-1.64-.7-3.78.02-1.95.66-2.72.05-2.78-.7-.06-.75.56-1.44.56-1.44,0,0-.58.91.53,1.2,1.08.28,1.64-.12,1.64-.12,0,0-1.17-.15-1.26-.8-.09-.66.36-1.03.8-1.22,0,0-.46-.32-1.83.07-1.05.3-1.08,1.2-1.26,1.45-.19.25-.27.09-.19-.69.14-1.3-.23-2.87,3.64-1.84Z"/>
    <path class="cls-2" d="M131.14,67.81c.97,0,1.76-.79,1.76-1.78s-.79-1.78-1.76-1.78-1.76.79-1.76,1.78.79,1.78,1.76,1.78Z"/>
    <path class="cls-2" d="M118.75,68.74c0-1.46,1.2-2.64,2.68-2.64s2.68,1.18,2.68,2.64-1.2,2.64-2.68,2.64-2.68-1.18-2.68-2.64ZM121.43,69.89c.68,0,1.24-.51,1.24-1.15s-.56-1.15-1.24-1.15-1.24.51-1.24,1.15.56,1.15,1.24,1.15Z"/>
    <path class="cls-2" d="M124.46,66.85c0-1.19.99-2.16,2.21-2.16s2.21.97,2.21,2.16-.99,2.16-2.21,2.16-2.21-.97-2.21-2.16ZM126.66,67.73c.5,0,.9-.38.9-.86s-.4-.86-.9-.86-.9.38-.9.86.4.86.9.86Z"/>
    <path class="cls-2" d="M134.52,57.07s-.44.44-.75,1.25c-.31.81-.31,1.94-.31,1.94,0,0,3.23-.5,3.37.25s-.37,1.27-.37,1.27l1.93.66s-.11-1.31.32-1.43c.44-.12,2.68,1.87,2.68,1.87,0,0,.56-.12,1.12-1.31.49-1.04-.12-1.87-.12-1.87,0,0-3.18.62-3.18-.25s2.25-3,2.25-3c0,0-.63-.9-1.72-1.2-1.37-.37-1.65-.11-1.65-.11,0,0-.12,3.68-.62,3.75s-2.93-1.81-2.93-1.81Z"/>
    <path class="cls-2" d="M119.71,72.35s2.1-1.9,6-3.38c3.9-1.49,6.15-1.44,7.4-1.79,1.26-.35,2.38-.58,2.38-.58,0,0,1.09,1.96.33,2.19-.75.24-1.93-.22-4.12-.08-2.19.15-4.14,1.1-6.53,2.12-2.39,1.02-3.36,2.81-3.36,2.81l-2.1-1.29Z"/>
    <path class="cls-2" d="M139.28,70.14c-.83-.49-1.1-1.58-.6-2.42.5-.84,1.58-1.13,2.42-.63.83.49,1.1,1.58.6,2.42-.5.84-1.58,1.13-2.42.63Z"/>
    <path class="cls-2" d="M146.23,81.31s-.91-3.87-3.38-7.24c-2.47-3.36-4.38-4.55-5.25-5.52-.86-.98-1.69-1.78-1.69-1.78,0,0-1.97,1.05-1.47,1.66.51.61,1.74.86,3.5,2.17,1.76,1.31,2.88,3.17,4.34,5.33,1.45,2.16,1.48,4.79,1.48,4.79l2.46.6Z"/>
    <path class="cls-2" d="M145.45,78.72c-1.27-.75-1.7-2.38-.96-3.63.74-1.25,2.38-1.66,3.65-.9,1.27.75,1.7,2.38.96,3.63-.74,1.25-2.38,1.66-3.65.9ZM146.76,77.6c.69,0,1.24-.51,1.24-1.15s-.56-1.15-1.24-1.15-1.24.51-1.24,1.15.56,1.15,1.24,1.15Z"/>
    <path class="cls-2" d="M133.55,64.69c0-1.61,1.3-2.91,2.91-2.91s2.91,1.3,2.91,2.91-1.3,2.91-2.91,2.91-2.91-1.3-2.91-2.91ZM136.46,66.15c.81,0,1.47-.65,1.47-1.46s-.66-1.46-1.47-1.46-1.47.65-1.47,1.46.66,1.46,1.47,1.46Z"/>
    <path class="cls-2" d="M142.53,73.67c-1.05-.62-1.41-1.96-.8-2.98.61-1.02,1.95-1.35,3-.73,1.05.62,1.41,1.96.8,2.98-.61,1.02-1.95,1.35-3,.73ZM143.63,72.66c.5,0,.9-.38.9-.86s-.4-.86-.9-.86-.9.38-.9.86.4.86.9.86Z"/>
    <path class="cls-2" d="M129.51,86.55c.61,0,.96-.66.96-1.19s-.49-.97-1.1-.97-1.1.43-1.1.97.64,1.19,1.25,1.19Z"/>
  </g>
  <g>
    <path class="cls-1" d="M303.12,130.58c4.15,0,7.02-2.98,7.02-6.7v-53.83c0-5.21-2.66-7.98-6.7-9.04v-2.34c4.04,0,7.98.43,12.02.43s8.09-.43,12.13-.43v2.34c-4.36,1.17-5.74,3.72-5.74,9.36,0,3.19-.32,10-.32,19.57v36.81c2.34.43,4.36.64,11.28.64,18.3,0,21.6-3.3,24.26-10.11l3.83,1.91-4.57,15c-3.4-1.28-6.81-1.7-10.21-1.7h-34.89c-2.66,0-5.43.43-8.09.43v-2.34Z"/>
    <path class="cls-1" d="M370.52,73.43c3.06,0,6.13.34,9.28.34s6.21-.34,9.28-.34v1.87c-3.83.51-4.77,3.06-4.77,8.51,0,8.08-.09,16.17-.09,24.25,0,11.4,5.28,19.49,17.96,19.49,6.89,0,15.66-4,15.66-13.62v-10.04c0-10.04-.77-20.08-.77-24.34,0-2.38-2.3-4-4.34-4.25v-1.87c3.06,0,6.13.34,9.19.34s6.21-.34,9.28-.34v1.87c-2.81.08-4,3.4-4,6.3,0,3.23-.26,12.08-.26,23.32v18.55c0,4.77.94,7.23,4.68,7.49v1.87c-2.38,0-4.85-.34-7.23-.34s-4.77.34-7.15.34c.17-2.89.43-5.53.6-8.08-6.21,5.79-11.49,9.11-20.17,9.11-12.59,0-22.55-7.23-22.55-20v-14.21c0-6.64-.43-12.51-.43-17.79,0-3.32-.6-6.04-4.17-6.55v-1.87Z"/>
    <path class="cls-1" d="M450.34,130.96c3.32-.85,5.28-3.4,5.28-8.17l.26-50.38h3.57l41.61,45.78v-29.27c0-10.55-2.3-13.02-6.38-13.62v-1.87c2.81,0,5.62.34,8.42.34s5.7-.34,8.51-.34v1.87c-3.74.68-5.62,3.66-5.62,10.55l-.26,48h-2.89l-42.29-46.04.34,32.42c.09,6.64,2.13,9.7,6.21,10.72v1.87c-2.81,0-5.62-.34-8.42-.34s-5.53.34-8.34.34v-1.87Z"/>
    <path class="cls-1" d="M528.97,130.96c3.49-.85,4.43-2.38,4.43-6.04v-24.76c0-7.49-.85-14.13-.85-18.3,0-3.57-1.28-6.04-4.43-6.89v-1.53c4,0,7.91.34,11.91.34s7.91-.34,11.91-.34c23.23,0,37.36,10.21,37.36,29.36s-11.06,30.04-34.98,30.04c-4.25,0-8.51-.34-12.68-.34s-8.42.34-12.68.34v-1.87ZM542.5,128.75c4,.51,7.32.68,10.55.68,16.25,0,24.42-9.96,24.42-26.3,0-15.4-10.72-26.3-25.78-26.3-2.72,0-5.36.17-8.77.34-.09,7.49-.43,14.3-.43,21.44v30.12Z"/>
    <path class="cls-1" d="M348.67,183.48c1.56-.4,2.48-1.6,2.48-3.84l.12-23.68h1.68l19.56,21.52v-13.76c0-4.96-1.08-6.12-3-6.4v-.88c1.32,0,2.64.16,3.96.16s2.68-.16,4-.16v.88c-1.76.32-2.64,1.72-2.64,4.96l-.12,22.56h-1.36l-19.88-21.64.16,15.24c.04,3.12,1,4.56,2.92,5.04v.88c-1.32,0-2.64-.16-3.96-.16s-2.6.16-3.92.16v-.88Z"/>
    <path class="cls-1" d="M394.59,157.32c-1.48.24-1.64,1.28-1.64,2.68,0,3.88-.16,8.6-.16,12.84v7.76c0,1.32.44,2.84,1.96,2.88v.88c-1.36,0-2.76-.16-4.12-.16s-2.76.16-4.12.16v-.88c1.28-.04,2-1.16,2-2.88v-5.76c0-4.8-.36-11.84-.36-14.36,0-1.64-.16-2.96-1.8-3.16v-.88c1.36,0,2.72.16,4.12.16s2.76-.16,4.12-.16v.88Z"/>
    <path class="cls-1" d="M414.54,184.84l-11.04-24.28c-.44-1-1.32-2.64-2.88-3.24v-.88c1.52,0,3.04.16,4.56.16s3-.16,4.52-.16v.88c-.76.16-1.48.52-1.48,1.44,0,.36.12,1.04.72,2.48l7.32,17.48,6.24-16.32c.44-1.12.56-2.04.56-2.64,0-1.56-.52-2.2-2.08-2.44v-.88c1.36,0,2.72.16,4.08.16s2.72-.16,4.08-.16v.88c-1.64.24-2.56,1.6-3.36,3.6l-9.48,23.92h-1.76Z"/>
    <path class="cls-1" d="M434.62,183.32c1.56-.16,2.32-1.12,2.32-2.44v-6.76c0-5.44-.32-11.16-.32-14.72,0-1-.76-1.68-2-1.92v-.88h15.8c1.08,0,2.44-.4,3.16-.64,0,1.04-.16,2-.16,3s.16,1.96.16,2.96h-1.52c-.68-1.92-1.64-3.4-3.84-3.4h-7v10.64h6.04c2.32,0,3.08-.2,4.04-2.16h1.28c0,1.16-.16,2.32-.16,3.48s.16,2.36.16,3.52h-1.36c-.88-2.76-1.64-2.92-3.96-2.92h-6.04v11.2h6.8c2.96,0,4.04-.48,5.84-3l1.24.64-1.4,4.92c-1.24-.48-2.48-.64-3.76-.64h-15.32v-.88Z"/>
    <path class="cls-1" d="M463.7,183.48c1.36-.32,2-.96,2-2.32v-10.28c0-3.44-.2-6.88-.2-10.28,0-1.88-.2-2.88-2.24-3.28v-.88c1.28,0,2.6.16,3.88.16,1.2,0,2.4-.16,5.4-.16,7.2,0,10.72,3.6,10.72,7.92,0,4.04-3.68,6.64-7.24,7.52l8.08,9.36c.6.72,1.96,2.04,3.04,2.24v.88c-1.32,0-2.68-.16-4-.16s-2.64.16-3.96.16v-.88c.28-.04.4-.2.44-.48,0-.36-.12-.72-.6-1.28l-6.64-7.76c-.6-.68-1.44-1.72-2.4-1.72v7.92c0,1.68.2,2.88,2.24,3.32v.88c-1.44,0-2.84-.16-4.28-.16s-2.8.16-4.24.16v-.88ZM469.98,171c.6.04,1.08.12,1.56.12,3.68,0,6.84-2.48,6.84-6.28s-1.68-6.96-6.04-6.96c-1.04,0-2.16.12-2.16,1.12l-.2,12Z"/>
    <path class="cls-1" d="M493.01,178.92h1.52c1.08,3.04,3.56,4.24,6.56,4.24,2.72,0,5.2-2.2,5.2-5,0-8.44-13.64-3.24-13.64-14.08,0-5.16,4.52-8.12,9.24-8.12,2.6,0,5.8.96,7.12,1.84l.4,4.28h-1.44c-.64-2.64-3.44-4.44-6.04-4.44-3,0-5.4,2-5.4,5.08,0,7.04,13.64,2.96,13.64,13.4,0,5.32-4.28,8.72-9.36,8.72-2.68,0-5.4-.32-7.8-1.56v-4.36Z"/>
    <path class="cls-1" d="M527.73,157.32c-1.48.24-1.64,1.28-1.64,2.68,0,3.88-.16,8.6-.16,12.84v7.76c0,1.32.44,2.84,1.96,2.88v.88c-1.36,0-2.76-.16-4.12-.16s-2.76.16-4.12.16v-.88c1.28-.04,2-1.16,2-2.88v-5.76c0-4.8-.36-11.84-.36-14.36,0-1.64-.16-2.96-1.8-3.16v-.88c1.36,0,2.72.16,4.12.16s2.76-.16,4.12-.16v.88Z"/>
    <path class="cls-1" d="M559.56,161.6h-1.52c-.4-2.36-1.6-3.08-3.88-3.08h-5.04c0,3.44-.2,7.84-.2,12.64v8.52c0,2.48.76,3.24,2.52,3.8v.88c-1.56,0-3.08-.16-4.6-.16s-3.04.16-4.6.16v-.88c1.84-.6,2.4-1.48,2.4-3.8v-6.28c0-5.76-.32-11.44-.4-14.88h-5.4c-2.28,0-3.48.72-3.88,3.08h-1.52v-5.64c1.52.4,3.08.64,4.64.64h17.68c1.12,0,2.88-.24,3.8-.64v5.64Z"/>
    <path class="cls-1" d="M570.55,183.48c1.92-.32,2.48-1.24,2.48-3.2v-7.68l-7.48-12.44c-.76-1.24-1.16-2.08-2.4-2.84v-.88c1.36,0,2.76.16,4.12.16s2.76-.16,4.12-.16v.88c-.76.16-1.28.56-1.28,1.4,0,.4.24,1.56.8,2.52l5.08,8.96,5-8.6c.76-1.32.88-2.28.88-3,0-.88-.88-1.24-1.68-1.28v-.88c1.2,0,2.4.16,3.64.16s2.4-.16,3.6-.16v.88c-1.32.48-2.04,1.6-3.12,3.32l-7,11.4v8.24c0,1.96.56,2.88,2.32,3.2v.88c-1.52,0-3.04-.16-4.52-.16s-3.04.16-4.56.16v-.88Z"/>
    <path class="cls-1" d="M303.32,149.44c1.8,0,3.6.2,5.45.2s2.91-.2,4.71-.2v1.1c-2.25.3-2.8,1.8-2.8,5,0,4.75-.05,9.5-.05,14.25,0,6.7,3.1,11.45,10.55,11.45,4.05,0,9.2-2.35,9.2-8v-5.9c0-5.9-.45-11.8-.45-14.3,0-1.4-1.35-2.35-2.55-2.5v-1.1c1.8,0,3.33.2,5.13.2s3.15-.2,4.95-.2v1.1c-1.65.05-2.35,2-2.35,3.7,0,1.9-.15,7.1-.15,13.7v10.9c0,2.8.55,4.25,2.75,4.4v1.1c-1.4,0-2.85-.2-4.25-.2s-2.03.2-3.43.2c.1-1.7.25-3.25.35-4.75-3.65,3.4-6.51,5.35-11.61,5.35-6.07,0-12.75-4.25-12.75-11.75v-8.35c0-3.9-.25-7.35-.25-10.45,0-1.95-.35-3.55-2.45-3.85v-1.1Z"/>
  </g>
</svg>