<?xml version="1.0" encoding="UTF-8"?>
<svg id="Layer_1" data-name="Layer 1" xmlns="http://www.w3.org/2000/svg" viewBox="0 0 563.3 357.8">
  <defs>
    <style>
      .cls-1 {
        isolation: isolate;
      }

      .cls-2 {
        fill: #ff4800;
      }
    </style>
  </defs>
  <path d="M-.79,192.69h14l10.83,31.53c1.51,4.39,2.27,7.41,2.27,7.41h.13s.69-3.02,2.2-7.48l10.9-31.53h13.93v52.48h-9.55v-42.4h-.21s-.96,4.05-3.01,10.09l-11.02,32.38h-7.55l-10.9-32.38c-2.06-6.04-3.02-10.09-3.02-10.09h-.21v42.47H-.79v-52.48Z"/>
  <path d="M60.85,219.03c.28-7,5.83-11.39,15.1-11.39,10.84,0,15.03,4.46,15.03,14.21v13.44c0,2.33.68,3.23,3.09,3.23v6.69h-2.61c-5.43,0-7.76-1.37-8.71-5.56h-.21c-2.11,3.75-5.93,5.85-11.25,5.85-7.47,0-12.07-3.97-12.07-10.7-.2-3.89,1.96-7.52,5.48-9.2,3.82-1.99,9.4-2.46,17.29-2.81v-1.85c0-4.94-1.91-7.2-6.11-7.2s-6.04,2.4-6.18,5.28l-8.85.02ZM65.25,192.69h8.3v8.44h-8.3v-8.44ZM82.05,229.18v-1.03c-6.45.34-9.88.9-11.8,2.26-1.27.91-1.97,2.42-1.85,3.98,0,3.02,1.99,4.94,5.35,4.94,4.05,0,8.3-3.02,8.3-10.16M79.24,192.69h8.23v8.44h-8.23v-8.44Z"/>
  <rect x="99.82" y="192.55" width="9.26" height="52.49"/>
  <path d="M115.14,219.03c.28-6.99,5.84-11.39,15.1-11.39,10.84,0,15.03,4.46,15.03,14.21v13.44c0,2.33.69,3.23,3.09,3.23v6.69h-2.61c-5.42,0-7.75-1.37-8.71-5.55h-.24c-2.13,3.76-5.97,5.89-11.25,5.89-7.48,0-12.08-3.98-12.08-10.7-.2-3.89,1.96-7.52,5.48-9.2,3.82-1.99,9.4-2.46,17.29-2.81v-1.85c0-4.94-1.91-7.2-6.11-7.2s-6.04,2.41-6.17,5.28l-8.82-.04ZM136.34,229.18v-1.03c-6.45.34-9.88.9-11.8,2.26-1.27.91-1.97,2.42-1.85,3.98,0,3.02,1.99,4.94,5.35,4.94,4.05,0,8.3-3.02,8.3-10.16"/>
  <path d="M153.84,208.46h8.74v7.41h.13c1.97-4.86,6.69-8.03,11.93-8.03h.62v8.6h-1.71c-6.52,0-10.51,2.74-10.51,9.8v18.74h-9.19l-.02-36.53Z"/>
  <path d="M211.11,245.04h-8.85v-5.63h-.21c-2.17,4.1-6.47,6.63-11.11,6.52-8.99,0-15.29-5.63-15.29-18.8s6.69-19.48,15.92-19.48c4.95,0,8.51,2.54,10.16,5.9h.14v-21.02h9.26l-.02,52.51ZM201.99,225.2c0-6.86-3.3-10.97-8.3-10.97-5.56,0-8.6,4.39-8.6,12.62,0,7.64,2.33,12.62,8.3,12.62,5.49,0,8.6-4.32,8.6-10.09v-4.18Z"/>
  <path d="M217.78,219.03c.28-6.99,5.83-11.39,15.1-11.39,10.84,0,15.03,4.46,15.03,14.21v13.44c0,2.33.69,3.23,3.09,3.23v6.69h-2.61c-5.43,0-7.76-1.37-8.71-5.55h-.21c-2.12,3.76-5.96,5.89-11.25,5.89-7.47,0-12.07-3.98-12.07-10.7-.2-3.89,1.96-7.53,5.48-9.2,3.82-1.99,9.4-2.46,17.29-2.81v-1.85c0-4.94-1.91-7.2-6.11-7.2s-6.04,2.41-6.17,5.28l-8.86-.04ZM239.02,229.18v-1.03c-6.45.34-9.88.9-11.8,2.26-1.27.91-1.98,2.42-1.85,3.98,0,3.02,1.99,4.94,5.35,4.94,4.05,0,8.3-3.02,8.3-10.16"/>
  <rect x="256.48" y="192.55" width="9.26" height="52.49"/>
  <path d="M288.6,245.92c-11.53,0-17.5-7.64-17.5-19.11s6.38-19.21,17.43-19.21c12.01,0,16.88,8.24,16.88,18.46v2.94h-24.97c.41,6.94,3.09,10.57,8.51,10.57,4.94,0,6.37-2.61,6.99-4.78h9.06c-1.17,6.99-6.99,11.18-16.39,11.18M296.01,222.85c-.34-5.48-2.47-9.19-7.55-9.19-4.78,0-7.34,3.64-7.96,9.6h15.51v-.41Z"/>
  <path d="M334.31,223.28c0-2.6-.07-5.01-1.17-6.52-1.23-1.53-3.13-2.35-5.08-2.2-5.48,0-8.23,3.51-8.23,9.06v21.41h-9.27v-36.57h8.85v6.11h.14c2.27-4.42,6.9-7.13,11.87-6.93,8.17,0,12.14,4.18,12.14,13.04v24.35h-9.26v-21.75Z"/>
  <g class="cls-1">
    <rect class="cls-2" x="72.73" y="3.1" width="54.16" height="162.5"/>
    <path class="cls-2" d="M169.02-.58c-15.42,0-28.82,4.22-39.7,8.4v.54c15.52-2.22,51.74.29,51.74,62.5v94.74h54.12v-100.59C235.2,7.2,201.32-.6,168.99-.58"/>
    <path class="cls-2" d="M277.85-.58h0c-19.6.06-39.55,2.87-55.76,11.15v.54c26.75-2.59,67.32-3.75,67.32,61.92v92.57h54.16v-100.6C343.57,7.48,310.02-.44,277.85-.58"/>
  </g>
  <g class="cls-1">
    <path class="cls-2" d="M560.23,192.69v76.43c0,67.25-27.96,88.68-67.71,88.68-42.64,0-67.7-10.6-67.7-77.85v-87.27h-54.17v76.43c0,67.25,27.96,88.68,67.71,88.68,42.64,0,67.71-10.6,67.71-77.85v-87.27h54.16Z"/>
  </g>
  <rect class="cls-2" x="370.65" y="3.1" width="54.16" height="162.5"/>
  <path class="cls-2" d="M427.23,165.33c49.55,0,78.65-31.42,78.65-80.9S476.8,3.37,427.23,3.37v-.55c10.4-1.59,20.92-2.35,31.44-2.27,47.37,0,104.63,17.52,104.63,83.72s-57.24,83.84-104.61,83.84c-10.53.09-21.05-.65-31.46-2.24v-.54Z"/>
  <polyline class="cls-2" points="126.9 165.59 126.9 3.1 72.73 3.1"/>
  <path d="M106.22,288.75c0-2.61-.08-5.01-1.17-6.52-1.23-1.52-3.13-2.35-5.08-2.2-5.48,0-8.24,3.5-8.24,9.06v21.36h-9.31v-36.53h8.85v6.11h.14c2.27-4.42,6.9-7.13,11.87-6.93,8.16,0,12.14,4.18,12.14,13.03v24.32h-9.21v-21.71Z"/>
  <path d="M122.3,258.22h9.4v8.71h-9.4v-8.71ZM122.38,273.94h9.26v36.57h-9.26v-36.57Z"/>
  <path d="M135.08,273.94h9.35l6.5,20.28c.79,2.41,1.46,4.86,2,7.35h.11s.82-3.64,1.99-7.35l6.69-20.24h8.85l-12.9,36.48h-9.55l-13.02-36.53Z"/>
  <path d="M188.61,311.42c-11.52,0-17.49-7.69-17.49-19.11s6.38-19.2,17.43-19.2c12.01,0,16.88,8.23,16.88,18.45v2.95h-24.98c.42,6.93,3.1,10.57,8.51,10.57,4.94,0,6.38-2.61,7-4.78h9.06c-1.17,7-7,11.19-16.4,11.19M196.02,288.36c-.34-5.49-2.47-9.2-7.55-9.2-4.78,0-7.35,3.64-7.96,9.61h15.51v-.41Z"/>
  <path d="M210.85,273.94h8.71v7.4h.13c1.98-4.86,6.7-8.03,11.94-8.03h.62v8.6h-1.72c-6.52,0-10.51,2.74-10.51,9.81v18.74h-9.19v-36.53Z"/>
  <path d="M254.57,283.71c-.2-2.61-2.26-4.53-5.96-4.53s-5.73,1.91-5.73,4.53c0,2.4,1.38,3.63,4.67,4.11l5.97.83c7.06.96,10.51,4.18,10.51,10.7,0,7.89-6.38,12.08-15.29,12.08-9.6,0-14.96-4.12-15.44-11.46h8.6c.27,2.61,1.84,5.28,6.93,5.28,4.05,0,6.69-1.79,6.69-4.78,0-2.47-.96-3.82-4.87-4.33l-5.73-.75c-6.69-.9-10.51-4.12-10.51-10.64s4.87-11.73,14.47-11.73,13.65,4.25,14.2,10.71l-8.5-.02Z"/>
  <path d="M269.59,258.22h9.4v8.71h-9.4v-8.71ZM269.66,273.94h9.26v36.57h-9.32l.07-36.57Z"/>
  <path d="M298.09,263.57v10.37h8.51v6.58h-8.35v18.05c0,3.82,1.43,5.35,5.14,5.35,1.15-.02,2.29-.11,3.43-.28v6.93c-2.21.33-4.45.49-6.69.49-7.21,0-11.05-3.22-11.05-10.84v-19.69h-5.89v-6.45h1.23c4.78,0,5.63-1.03,5.63-7.82v-2.68h8.04Z"/>
  <path d="M33.49,258.02h9.55v30.47c0,4.12.07,8.91,2.2,11.67s5.21,3.82,9.19,3.82,7.27-1.17,9.32-3.82,2.06-7.55,2.06-11.67v-30.47h9.4v34.39c0,13.24-8.37,19.11-20.92,19.11s-20.79-5.73-20.79-19.11l-.02-34.39Z"/>
  <path d="M309.52,273.94h9.39l6.59,20.51c.72,2.19,1.29,4.42,1.71,6.69h.14c.46-2.26,1.03-4.49,1.71-6.69l6.32-20.51h9.06l-13.04,38.14c-2.87,8.45-6.04,12.08-15.02,12.08-1.61.04-3.21-.12-4.78-.48v-6.93c1.17.23,2.37.35,3.56.33,4.26,0,5.73-1.43,7.2-5.21l.49-1.23-13.34-36.71Z"/>
</svg>