<?xml version="1.0" encoding="UTF-8"?>
<svg id="Layer_1" data-name="Layer 1" xmlns="http://www.w3.org/2000/svg" viewBox="0 0 740.81 243.5">
  <defs>
    <style>
      .cls-1 {
        fill: #ed1a3b;
      }

      .cls-2 {
        fill: #231f20;
      }
    </style>
  </defs>
  <g id="Generell">
    <path class="cls-2" d="M237.72,56.74h14.68l11.6,30.6,12.34-30.6h14.8l8.64,57.24h-14.93l-4.19-32.94h-.12l-13.69,32.94h-5.92l-13.08-32.94h-.12l-4.81,32.94h-14.8l9.62-57.24Z"/>
    <path class="cls-2" d="M326.05,103.99l-3.95,9.99h-15.79l22.08-57.24h16.28l21.59,57.24h-15.91l-3.7-9.99h-20.6ZM336.42,74.38h-.12l-6.17,18.26h12.34l-6.05-18.26Z"/>
    <path class="cls-2" d="M387.99,101.27h17.89v12.58h-32.69v-57.24h14.93l-.12,44.66Z"/>
    <path class="cls-2" d="M425.24,56.74h14.68l11.6,30.6,12.34-30.6h14.8l8.64,57.24h-14.93l-4.19-32.94h-.12l-13.69,32.94h-5.92l-13.08-32.94h-.12l-4.81,32.94h-14.8l9.62-57.24Z"/>
    <path class="cls-2" d="M554.91,84.25c0,17.52-14.19,31.71-31.71,31.71s-31.71-14.19-31.71-31.71,15.17-29.49,31.71-29.49,31.71,12.21,31.71,29.49ZM520.98,44.65c0,4.19-3.33,7.53-7.4,7.53s-7.53-3.33-7.53-7.4,3.33-7.53,7.4-7.53h.12c4.07-.12,7.4,3.21,7.4,7.4q0-.12,0,0ZM507.04,84.37c-.49,8.88,6.42,16.53,15.3,17.02,8.88.49,16.53-6.42,17.02-15.3v-1.73c-.62-8.88-8.39-15.67-17.27-15.05-8.02.49-14.56,6.91-15.05,15.05ZM540.47,44.65c0,4.07-3.33,7.53-7.4,7.53s-7.53-3.33-7.53-7.4,3.33-7.53,7.4-7.53h.12c4.07-.12,7.4,3.21,7.4,7.4q0-.12,0,0Z"/>
  </g>
  <g id="SV">
    <path class="cls-2" d="M278.06,135.94v32.2c0,7.4-.25,14.68-6.05,20.23-11.23,8.51-26.77,8.51-38,0-5.68-5.55-6.05-12.83-6.05-20.23v-32.2h14.93v30.23c0,7.4.49,15.54,10.12,15.54s10.12-8.14,10.12-15.54v-30.1h14.93v-.12Z"/>
    <path class="cls-2" d="M288.18,135.94h14.93l27.26,35.04h.12v-35.04h14.93v57.24h-14.93l-27.26-35.04h-.12v35.04h-14.93v-57.24Z"/>
    <path class="cls-2" d="M370.47,193.18h-14.93v-57.24h14.93v57.24Z"/>
    <path class="cls-2" d="M406.49,170.73l13.94-34.79h16.16l-24.43,57.24h-11.6l-24.06-57.24h16.16l13.82,34.79Z"/>
    <path class="cls-2" d="M457.44,148.52v9.62h16.78v12.58h-16.78v9.87h17.64v12.58h-32.57v-57.24h32.57v12.58h-17.64Z"/>
    <path class="cls-2" d="M534.18,193.18h-18.51l-14.06-22.08h-.12v22.08h-14.93v-57.24h22.21c11.35,0,19.86,5.43,19.86,17.64.49,7.77-4.81,14.8-12.58,16.16l18.14,23.44ZM501.49,161.6h1.48c4.81,0,10.36-.86,10.36-7.16s-5.43-7.16-10.36-7.16h-1.48v14.31Z"/>
    <path class="cls-2" d="M571.93,150.74c-2.71-2.34-6.29-3.7-9.87-3.82-2.71,0-6.42,1.6-6.42,4.81s4.07,4.69,6.66,5.43l3.82,1.11c8.02,2.34,14.06,6.42,14.06,15.67.37,5.8-1.73,11.47-5.92,15.42-4.56,3.7-10.36,5.55-16.28,5.43-7.16-.12-14.19-2.34-20.11-6.54l6.42-11.97c3.58,3.58,8.27,5.68,13.2,5.92,3.45,0,7.16-1.73,7.16-5.8s-5.8-5.68-9.01-6.54c-9.38-2.71-15.54-5.06-15.54-16.16-.37-10.24,7.65-18.88,17.89-19.25h1.85c6.29.12,12.46,1.73,17.89,4.69l-5.8,11.6Z"/>
    <path class="cls-2" d="M604.5,193.18h-14.93v-57.24h14.93v57.24Z"/>
    <path class="cls-2" d="M639.78,193.18h-14.93v-44.66h-12.34v-12.58h39.48v12.58h-12.34l.12,44.66Z"/>
    <path class="cls-2" d="M675.19,148.52v9.62h16.78v12.58h-16.78v9.87h17.64v12.58h-32.57v-57.24h32.57v12.58h-17.64Z"/>
    <path class="cls-2" d="M728.24,193.18h-14.93v-44.66h-12.34v-12.58h39.48v12.58h-12.34l.12,44.66Z"/>
  </g>
  <g id="Layer_1-2" data-name="Layer 1">
    <polygon class="cls-1" points=".36 218.1 .36 52.79 162.59 .11 195.04 25.4 32.81 78.08 32.81 243.39 .36 218.1"/>
    <polygon class="cls-1" points="97.7 92.88 97.7 222.42 65.25 197.01 65.25 103.49 97.7 92.88"/>
    <polygon class="cls-1" points="130.14 82.4 162.59 71.91 162.59 201.33 130.14 175.91 130.14 82.4"/>
  </g>
</svg>