<?xml version="1.0" encoding="UTF-8"?>
<svg id="Layer_1" data-name="Layer 1" xmlns="http://www.w3.org/2000/svg" viewBox="0 0 740.81 134.2">
  <defs>
    <style>
      .cls-1 {
        fill: #231f20;
      }

      .cls-2 {
        fill: #ffd420;
      }

      .cls-3 {
        fill: #007ac1;
      }
    </style>
  </defs>
  <g>
    <path class="cls-2" d="M109.72,36.66c.2,1.36.06,2.83-.93,3.99-1.04,1.23-28.22,31.39-28.22,31.39-7.66,8.85-9.28,2.32-12.58-4.82-3.41-7.38-4.98-11.4-7.86-17.63-3.07-6.68-4.8-9.8-11.87-2.07-8.38,9.19-26.8,30.04-28.22,31.09-1.35,1-3.18.37-4.03-.78C7.71,66.75,3.48,60.2,1.26,45.67c-.16-1.04-.55-2.5,1.11-4.57C25.84,13.25,54.91,2.03,91.05.03c1.78-.2,3.03.81,4.01,1.72,5.92,5.52,12.57,21.57,14.66,34.92Z"/>
    <path class="cls-3" d="M18.78,97.52c-.14-1.86-.37-2.44.92-3.99,1.03-1.24,28.29-31.34,28.29-31.34,7.66-8.84,9.27-2.32,12.55,4.83,3.41,7.39,4.98,11.41,7.84,17.64,3.07,6.68,4.8,9.82,11.86,2.09,8.4-9.17,26.19-28.79,27.46-30.01,1.78-1.74,4.1-1.46,4.85-.24,7.63,12.37,9.95,17.99,14.7,32.19.35.99.54,2.49-1.13,4.56-23.5,27.82-52.59,38.99-88.72,40.94-1.79.19-3.04-.82-4.01-1.73-5.91-5.52-13.59-21.47-14.61-34.94Z"/>
  </g>
  <g>
    <g>
      <path class="cls-1" d="M226.62,42.54c-.39-7.37-.86-16.31-.86-22.82h-.15c-1.88,6.12-4,12.78-6.66,20.07l-9.33,25.64h-5.17l-8.63-25.17c-2.51-7.53-4.55-14.27-6.04-20.55h-.15c-.15,6.59-.55,15.37-1.02,23.37l-1.41,22.65h-6.51l3.69-52.84h8.7l9.02,25.56c2.19,6.51,3.92,12.31,5.33,17.8h.16c1.41-5.33,3.29-11.13,5.65-17.8l9.41-25.56h8.7l3.3,52.84h-6.75l-1.26-23.21Z"/>
      <path class="cls-1" d="M250.37,20.82c-2.59,0-4.31-2.04-4.31-4.47s1.8-4.39,4.47-4.39,4.39,1.96,4.39,4.39-1.72,4.47-4.47,4.47h-.08ZM247.08,65.75V27.8h6.9v37.95h-6.9Z"/>
      <path class="cls-1" d="M274.91,18.71v9.09h9.88v5.26h-9.88v20.46c0,4.7,1.34,7.37,5.18,7.37,1.88,0,2.98-.16,4-.46l.31,5.25c-1.33.47-3.45.94-6.11.94-3.21,0-5.8-1.1-7.45-2.9-1.89-2.12-2.67-5.49-2.67-9.96v-20.69h-5.88v-5.26h5.88v-6.98l6.74-2.12Z"/>
      <path class="cls-1" d="M302.04,18.71v9.09h9.88v5.26h-9.88v20.46c0,4.7,1.33,7.37,5.17,7.37,1.88,0,2.98-.16,4-.46l.31,5.25c-1.33.47-3.45.94-6.11.94-3.22,0-5.8-1.1-7.45-2.9-1.88-2.12-2.67-5.49-2.67-9.96v-20.69h-5.88v-5.26h5.88v-6.98l6.74-2.12Z"/>
      <path class="cls-1" d="M352.61,55.4c0,3.92.08,7.37.31,10.35h-6.11l-.39-6.19h-.16c-1.72,3.06-5.8,7.06-12.54,7.06-5.96,0-13.09-3.38-13.09-16.62v-22.19h6.9v20.93c0,7.22,2.28,12.15,8.47,12.15,4.62,0,7.84-3.21,9.09-6.35.4-.94.63-2.2.63-3.53v-23.21h6.9v27.6Z"/>
      <path class="cls-1" d="M365.24,38.08c0-4-.08-7.14-.31-10.27h6.12l.39,6.19h.15c1.89-3.53,6.28-7.06,12.55-7.06,5.25,0,13.41,3.13,13.41,16.15v22.65h-6.9v-21.87c0-6.12-2.27-11.29-8.78-11.29-4.47,0-8,3.21-9.25,7.05-.31.87-.47,2.12-.47,3.21v22.89h-6.9v-27.67Z"/>
      <path class="cls-1" d="M413.22,20.82c-2.59,0-4.31-2.04-4.31-4.47s1.8-4.39,4.47-4.39,4.39,1.96,4.39,4.39-1.73,4.47-4.47,4.47h-.08ZM409.93,65.75V27.8h6.9v37.95h-6.9Z"/>
      <path class="cls-1" d="M432.12,27.8l7.45,21.25c1.25,3.53,2.27,6.66,3.06,9.8h.23c.86-3.14,1.96-6.27,3.21-9.8l7.37-21.25h7.21l-14.9,37.95h-6.59l-14.43-37.95h7.37Z"/>
      <path class="cls-1" d="M471.4,47.95c.15,9.33,6.04,13.17,12.93,13.17,4.94,0,8-.86,10.51-1.88l1.25,4.86c-2.43,1.1-6.66,2.43-12.7,2.43-11.61,0-18.66-7.77-18.66-19.13s6.82-20.54,17.88-20.54c12.39,0,15.6,10.9,15.6,17.88,0,1.41-.08,2.51-.24,3.29l-26.58-.08ZM491.55,43.02c.08-4.32-1.8-11.21-9.49-11.21-7.05,0-10.04,6.43-10.58,11.21h20.07Z"/>
      <path class="cls-1" d="M508.01,39.64c0-4.47-.08-8.31-.31-11.84h6.04l.31,7.45h.23c1.72-5.1,5.96-8.31,10.59-8.31.71,0,1.26.08,1.89.23v6.43c-.79-.08-1.49-.16-2.44-.16-4.86,0-8.31,3.69-9.25,8.79-.15,1.02-.23,2.12-.23,3.29v20.22h-6.9l.08-26.11Z"/>
      <path class="cls-1" d="M533.81,58.77c2.12,1.26,5.73,2.67,9.18,2.67,4.94,0,7.29-2.43,7.29-5.64s-1.96-5.1-6.98-6.98c-6.9-2.51-10.11-6.19-10.11-10.74,0-6.12,5.02-11.13,13.1-11.13,3.84,0,7.21,1.02,9.25,2.35l-1.65,4.94c-1.49-.86-4.24-2.19-7.76-2.19-4.08,0-6.27,2.35-6.27,5.18,0,3.21,2.19,4.62,7.13,6.5,6.51,2.43,9.96,5.73,9.96,11.45,0,6.74-5.25,11.45-14.11,11.45-4.16,0-8-1.1-10.66-2.67l1.64-5.18Z"/>
      <path class="cls-1" d="M570.27,20.82c-2.58,0-4.31-2.04-4.31-4.47s1.8-4.39,4.47-4.39,4.39,1.96,4.39,4.39-1.72,4.47-4.47,4.47h-.08ZM566.97,65.75V27.8h6.9v37.95h-6.9Z"/>
      <path class="cls-1" d="M594.81,18.71v9.09h9.88v5.26h-9.88v20.46c0,4.7,1.34,7.37,5.18,7.37,1.88,0,2.98-.16,4-.46l.31,5.25c-1.33.47-3.45.94-6.12.94-3.21,0-5.8-1.1-7.44-2.9-1.88-2.12-2.67-5.49-2.67-9.96v-20.69h-5.88v-5.26h5.88v-6.98l6.74-2.12Z"/>
      <path class="cls-1" d="M617.09,47.95c.15,9.33,6.03,13.17,12.94,13.17,4.93,0,8-.86,10.5-1.88l1.25,4.86c-2.43,1.1-6.66,2.43-12.7,2.43-11.61,0-18.66-7.77-18.66-19.13s6.82-20.54,17.88-20.54c12.38,0,15.6,10.9,15.6,17.88,0,1.41-.08,2.51-.24,3.29l-26.58-.08ZM637.24,43.02c.08-4.32-1.8-11.21-9.49-11.21-7.06,0-10.04,6.43-10.59,11.21h20.07Z"/>
      <path class="cls-1" d="M661.94,18.71v9.09h9.88v5.26h-9.88v20.46c0,4.7,1.33,7.37,5.17,7.37,1.88,0,2.98-.16,3.99-.46l.31,5.25c-1.33.47-3.45.94-6.12.94-3.21,0-5.8-1.1-7.44-2.9-1.89-2.12-2.67-5.49-2.67-9.96v-20.69h-5.88v-5.26h5.88v-6.98l6.75-2.12Z"/>
      <path class="cls-1" d="M684.22,47.95c.15,9.33,6.03,13.17,12.93,13.17,4.94,0,8-.86,10.5-1.88l1.26,4.86c-2.43,1.1-6.66,2.43-12.7,2.43-11.61,0-18.67-7.77-18.67-19.13s6.82-20.54,17.88-20.54c12.39,0,15.6,10.9,15.6,17.88,0,1.41-.08,2.51-.24,3.29l-26.57-.08ZM704.36,43.02c.08-4.32-1.8-11.21-9.49-11.21-7.06,0-10.04,6.43-10.58,11.21h20.07Z"/>
      <path class="cls-1" d="M729.06,18.71v9.09h9.87v5.26h-9.87v20.46c0,4.7,1.33,7.37,5.17,7.37,1.88,0,2.98-.16,4-.46l.31,5.25c-1.34.47-3.45.94-6.12.94-3.22,0-5.8-1.1-7.45-2.9-1.88-2.12-2.67-5.49-2.67-9.96v-20.69h-5.88v-5.26h5.88v-6.98l6.75-2.12Z"/>
    </g>
    <g>
      <path class="cls-1" d="M204.24,110.8c-.19-3.5-.41-7.75-.41-10.84h-.07c-.89,2.91-1.9,6.07-3.17,9.54l-4.44,12.18h-2.46l-4.1-11.96c-1.19-3.58-2.16-6.78-2.87-9.76h-.07c-.07,3.13-.26,7.3-.49,11.1l-.67,10.77h-3.09l1.75-25.11h4.14l4.28,12.14c1.04,3.09,1.86,5.85,2.53,8.46h.07c.67-2.53,1.56-5.29,2.68-8.46l4.47-12.14h4.14l1.56,25.11h-3.2l-.6-11.03Z"/>
      <path class="cls-1" d="M224.47,96.72v25.11h-3.28v-25.11h3.28Z"/>
      <path class="cls-1" d="M238.29,97.06c2.01-.3,4.36-.52,6.93-.52,4.66,0,7.97,1.04,10.17,3.09,2.27,2.05,3.58,4.99,3.58,9.05s-1.3,7.45-3.61,9.76c-2.38,2.35-6.26,3.61-11.14,3.61-2.35,0-4.25-.08-5.92-.3v-24.7ZM241.56,119.3c.82.15,2.01.15,3.28.15,6.93.04,10.69-3.87,10.69-10.65.04-6-3.32-9.69-10.17-9.69-1.68,0-2.94.15-3.8.34v19.86Z"/>
      <path class="cls-1" d="M284.78,117.88c1.45.93,3.54,1.64,5.77,1.64,3.32,0,5.25-1.71,5.25-4.28,0-2.31-1.34-3.69-4.73-4.95-4.1-1.49-6.63-3.65-6.63-7.15,0-3.91,3.24-6.82,8.12-6.82,2.53,0,4.44.6,5.51,1.23l-.89,2.65c-.78-.49-2.46-1.19-4.73-1.19-3.43,0-4.73,2.05-4.73,3.76,0,2.35,1.53,3.5,4.99,4.84,4.25,1.68,6.37,3.69,6.37,7.38,0,3.87-2.83,7.26-8.76,7.26-2.42,0-5.07-.75-6.41-1.64l.86-2.72Z"/>
      <path class="cls-1" d="M315.85,121.83l-6.37-25.11h3.43l2.98,12.7c.75,3.17,1.42,6.26,1.86,8.68h.07c.41-2.5,1.19-5.48,2.05-8.72l3.35-12.67h3.39l3.05,12.74c.71,3.02,1.38,5.96,1.75,8.61h.07c.52-2.76,1.23-5.55,2.01-8.68l3.32-12.67h3.32l-7.12,25.11h-3.39l-3.17-13.04c-.78-3.24-1.3-5.7-1.64-8.23h-.07c-.41,2.53-1.01,4.95-1.94,8.2l-3.58,13.08h-3.39Z"/>
      <path class="cls-1" d="M364.43,110.06h-9.72v9.05h10.88v2.72h-14.16v-25.11h13.6v2.72h-10.32v7.93h9.72v2.68Z"/>
      <path class="cls-1" d="M377.95,97.06c2.01-.3,4.36-.52,6.93-.52,4.66,0,7.97,1.04,10.17,3.09,2.27,2.05,3.58,4.99,3.58,9.05s-1.3,7.45-3.61,9.76c-2.38,2.35-6.26,3.61-11.14,3.61-2.35,0-4.25-.08-5.92-.3v-24.7ZM381.23,119.3c.82.15,2.01.15,3.28.15,6.93.04,10.69-3.87,10.69-10.65.04-6-3.31-9.69-10.17-9.69-1.68,0-2.94.15-3.8.34v19.86Z"/>
      <path class="cls-1" d="M423.96,110.06h-9.72v9.05h10.88v2.72h-14.16v-25.11h13.6v2.72h-10.32v7.93h9.72v2.68Z"/>
      <path class="cls-1" d="M437.52,121.83v-25.11h3.58l8.01,12.7c1.83,2.94,3.32,5.55,4.47,8.16l.11-.04c-.3-3.35-.37-6.41-.37-10.28v-10.54h3.06v25.11h-3.28l-7.97-12.74c-1.75-2.79-3.43-5.66-4.66-8.38l-.11.04c.19,3.17.22,6.18.22,10.36v10.73h-3.05Z"/>
      <path class="cls-1" d="M487.33,96.72v14.9c0,5.59,2.5,7.97,5.85,7.97,3.69,0,6.11-2.46,6.11-7.97v-14.9h3.28v14.68c0,7.71-4.06,10.84-9.5,10.84-5.14,0-9.01-2.91-9.01-10.73v-14.79h3.28Z"/>
      <path class="cls-1" d="M516.39,121.83v-25.11h3.58l8.01,12.7c1.83,2.94,3.32,5.55,4.47,8.16l.11-.04c-.3-3.35-.37-6.41-.37-10.28v-10.54h3.05v25.11h-3.28l-7.97-12.74c-1.75-2.79-3.43-5.66-4.66-8.38l-.11.04c.19,3.17.22,6.18.22,10.36v10.73h-3.05Z"/>
      <path class="cls-1" d="M552.34,96.72v25.11h-3.28v-25.11h3.28Z"/>
      <path class="cls-1" d="M571.71,121.83l-8.23-25.11h3.54l3.91,12.37c1.04,3.39,1.97,6.48,2.68,9.39h.08c.71-2.91,1.71-6.07,2.87-9.35l4.25-12.41h3.46l-8.98,25.11h-3.58Z"/>
      <path class="cls-1" d="M608.14,110.06h-9.72v9.05h10.88v2.72h-14.16v-25.11h13.6v2.72h-10.32v7.93h9.72v2.68Z"/>
      <path class="cls-1" d="M621.7,97.09c1.64-.34,4.02-.56,6.22-.56,3.46,0,5.74.67,7.3,2.09,1.23,1.08,1.97,2.79,1.97,4.77,0,3.28-2.12,5.48-4.73,6.37v.11c1.9.67,3.05,2.46,3.69,5.07.82,3.5,1.42,5.92,1.9,6.89h-3.35c-.41-.71-.97-2.87-1.64-6-.75-3.46-2.12-4.77-5.07-4.88h-3.05v10.88h-3.24v-24.74ZM624.95,108.49h3.32c3.46,0,5.66-1.9,5.66-4.77,0-3.24-2.35-4.66-5.77-4.66-1.57,0-2.65.15-3.21.3v9.13Z"/>
      <path class="cls-1" d="M649.53,117.88c1.45.93,3.54,1.64,5.77,1.64,3.32,0,5.25-1.71,5.25-4.28,0-2.31-1.34-3.69-4.73-4.95-4.1-1.49-6.63-3.65-6.63-7.15,0-3.91,3.24-6.82,8.12-6.82,2.53,0,4.43.6,5.51,1.23l-.9,2.65c-.78-.49-2.46-1.19-4.73-1.19-3.43,0-4.73,2.05-4.73,3.76,0,2.35,1.53,3.5,4.99,4.84,4.25,1.68,6.37,3.69,6.37,7.38,0,3.87-2.83,7.26-8.75,7.26-2.42,0-5.07-.75-6.41-1.64l.86-2.72Z"/>
      <path class="cls-1" d="M679.75,96.72v25.11h-3.28v-25.11h3.28Z"/>
      <path class="cls-1" d="M698.37,99.48h-7.64v-2.76h18.59v2.76h-7.67v22.35h-3.28v-22.35Z"/>
      <path class="cls-1" d="M727.28,121.83v-10.65l-7.97-14.45h3.73l3.54,6.93c.93,1.9,1.71,3.43,2.49,5.18h.07c.67-1.64,1.57-3.28,2.53-5.18l3.61-6.93h3.65l-8.38,14.42v10.69h-3.28Z"/>
    </g>
  </g>
</svg>