<?xml version="1.0" encoding="UTF-8"?>
<svg id="Layer_1" data-name="Layer 1" xmlns="http://www.w3.org/2000/svg" viewBox="0 0 740.81 121.75">
  <defs>
    <style>
      .cls-1 {
        fill: none;
      }

      .cls-2 {
        fill: #182637;
      }
    </style>
  </defs>
  <polygon class="cls-1" points="307.39 73 345.61 73 334.56 28.92 307.39 73"/>
  <polygon class="cls-2" points="218.09 1.58 203.87 74.57 161.95 13.67 153.25 58.94 195.51 119.12 231.05 119.12 253.95 1.58 218.09 1.58"/>
  <polygon class="cls-2" points="115.87 1.58 92.97 119.12 128.99 119.12 143.35 44.86 143.42 44.96 151.77 1.58 115.87 1.58"/>
  <path class="cls-2" d="M314.18,1.58l-74.26,117.55h38.86l12.79-20.53h60.52l5.21,20.53h37.45L362.84,1.58h-48.66ZM307.39,73l27.18-44.07,11.07,44.07h-38.24Z"/>
  <polygon class="cls-2" points="424.31 1.58 401.42 119.12 438.23 119.12 461.15 1.58 424.31 1.58"/>
  <path class="cls-2" d="M539.52,0h-5.83c-53.73,0-62.24,20.87-62.24,37.29,0,18,9.32,33.18,47.09,34.27l14.7.48c16.11.48,19.6,4.73,19.6,10.76s-3.8,12.95-26.87,12.95h-1.1c-22.75,0-23.54-10.42-23.54-15.63h-39.96c-2.06,16.59,3.01,41.09,60.66,41.09h4.28c55.93,0,66.18-22.44,66.18-40.75,0-20.22-8.84-34.13-48.66-35.23l-14.7-.48c-15.32-.48-18.81-4.11-18.81-9.15,0-5.52,3.01-10.73,24.81-10.73h1.43c21.18,0,23.06,7.1,23.06,12.17h39.17C601.47,18.21,594.21.05,539.54.05l-.02-.05Z"/>
  <path class="cls-2" d="M676.67,24.81h1.43c21.18,0,23.06,7.1,23.06,12.17h39.17c2.68-18.81-4.59-36.98-59.25-36.98h-5.83c-53.73,0-62.24,20.87-62.24,37.29,0,18,9.32,33.18,47.09,34.27l14.7.48c16.11.48,19.6,4.73,19.6,10.76s-3.8,12.95-26.87,12.95h-1.1c-22.75,0-23.54-10.42-23.54-15.63h-39.96c-2.06,16.59,3.01,41.09,60.66,41.09h4.28c55.93,0,66.21-22.44,66.21-40.75,0-20.22-8.84-34.13-48.66-35.23l-14.7-.48c-15.32-.48-18.81-4.11-18.81-9.15,0-5.52,3.01-10.73,24.81-10.73l-.05-.05Z"/>
  <polygon class="cls-2" points="71.77 11.57 52.74 109.16 82.74 109.16 101.76 11.57 71.77 11.57"/>
  <polygon class="cls-2" points="36.97 26.41 23.73 94.29 44.62 94.29 57.83 26.41 36.97 26.41"/>
  <polygon class="cls-2" points=".37 83.08 14.33 83.08 23.2 37.64 9.22 37.64 .37 83.08"/>
</svg>