<?xml version="1.0" encoding="UTF-8"?>
<svg id="Layer_1" data-name="Layer 1" xmlns="http://www.w3.org/2000/svg" viewBox="0 0 740.81 170.89">
  <defs>
    <style>
      .cls-1 {
        fill: #e7af26;
      }

      .cls-2 {
        fill: #1d4e3d;
      }
    </style>
  </defs>
  <path class="cls-2" d="M56.84,92.5c3.14-3.14-13-16.48-16.05-17.66-2.78-1.08-5.75-1.26-8.7-1.12-.85-3.53,6.28-2.1,6.82-2.56-2.46-6.71-6.82-12.92-5.97-20.47,1.8-.27,1.39-.1,1.91,1.07,2.93,6.57,2.99,11.9,7.98,18.48,5.86,7.72,15.04,13.54,20.84,21.4,1.67.17.52-1.57.19-2.32-1.12-2.48-10.14-14.2-8.73-15.59,2.5-2.47,6.94,9.46,8.97,10.23,2.34.34.9-2.91,1.41-4.54.36-1.12,1.24-1.66,2.41-1.42-1.29,22.9,6.9,10.83,6.84-2.57,3.04-.67,1.38,4.62,2.98,5.97,10.69-9.36,17.35-17.66,18.37-32.42,2.23-.35,1.74.4,1.72,2.15-.03,3.32-1.61,6.49-1.73,9.79l6.82-3.4c.37,1.61-.91,2.02-1.7,2.98-4.08,4.94-23.23,24.71-23.91,29.01-.1.62-.17,1.47.43,1.28,6.28-3.76,12.95-8.82,20.78-6.26,1.43.47,3.02.94,2.69,2.84l-6.35-.88-6.44,1.73c5.24.44,13.25,1.75,12.79,8.54-3.36-.69-3.87-3.86-7.62-4.75-10.78-2.56-17.83,1.94-18.82,12.88-.93,10.28.08,37.84,2.97,47.35,2.56,8.45,9.01,11.52,14.94,17.06-10.67.03-20.32-2.31-31.19-1.74-6.91.36-13.92,2.84-20.86,1.33,4.93-3.77,12.76-8.84,15.27-14.6s3.24-18.2,3.54-24.62.91-22.29-.4-27.83c-1.57-6.62-8.95-6.61-14.59-5.93-4.96.6-10.35,7.82-16.62,6.84l2.55-3.84c-3.68-.98-.64-6.94.61-9.6.46-.99,1.81-1.01,1.95-1.66.53-2.44-.85-4.71-.85-7.08,4.66,2.07,7.65-.48,11.94-1.71-.41,4.83,1.97,8.94,0,13.65h12.8Z"/>
  <path class="cls-2" d="M380.29,102.74c3.86,7.14,8.27,14.19,12.78,20.93,1.07,1.59,4.72,8.11,6.41,8.1,1.73,0,17.06-29.03,18.78-29.03h12.37v63.58c0,1.92-11.95,1.92-11.95,0v-43.1c-3.82,2.54-17.6,27.7-19.23,28.2-.53.16-2,.24-2.17-.56l-17.86-26.78v42.24c0,1.92-11.95,1.92-11.95,0v-63.58h12.8Z"/>
  <path class="cls-2" d="M185.28,102.74c23.04,3.1,25.33,33.46,3.85,40.53,1.67,3.06,16.49,21.65,16.21,23.03-.38,1.92-11,1.68-12.79.86-3.42-1.55-12.52-19.6-15.38-21.32-2.39-1.44-10.46.16-13.65-.43v20.91c0,1.92-11.95,1.92-11.95,0v-63.58c10.51,1.02,23.52-1.37,33.71,0ZM162.66,134.32h20.91c.77,0,4.74-2.17,5.59-2.95,3.97-3.64,3.59-11.48-.46-14.99-.52-.45-4.03-2.55-4.28-2.55h-21.76v20.48Z"/>
  <path class="cls-2" d="M642.29,113.84v15.36h32.43v11.09h-32.43v16.22h36.7v11.09h-47.37c-.09,0-1.28-1.19-1.28-1.28v-63.58h47.37c1.91,0,1.91,11.09,0,11.09h-35.42Z"/>
  <path class="cls-2" d="M617.54,102.74v11.09h-35.84v15.36h31.15c1.37,0,1.44,8.77,1.19,9.69-.12.45-.96,1.41-1.19,1.41h-31.15v16.22h36.7c-.21,1.92.81,11.09-1.28,11.09h-46.09c-.09,0-1.28-1.19-1.28-1.28v-63.58h47.79Z"/>
  <path class="cls-2" d="M257.39,102.74v30.72c1.84.13,3.13-1.78,4.29-2.97,8.84-9.04,16.83-19.02,26.01-27.76h13.23l-24.74,27.71c7.2,11.87,16.52,22.76,25.14,33.75l.45,3.39c-4.23-.33-10.57,1.08-14.11-1.68-3.04-3.2-18.6-26.85-21.19-26.41-.66.11-8.72,9.29-8.91,9.93-1.1,3.69.93,15.25-.55,17.37-.82,1.17-12.88,2.31-11.62-2.15l.04-59.78c.73-3.94,8.74-1.48,11.95-2.13Z"/>
  <path class="cls-2" d="M457.1,102.74v40.54c0,2.21,3.25,8.61,5.08,10.28,6.59,5.99,20.55,4.65,24.37-3.87.44-.98,2.12-6.62,2.12-7.27v-39.68c3.21.65,11.22-1.81,11.95,2.13-1.89,20.35,8.1,56.22-19.44,62.49-12.32,2.81-27.31-.19-33.04-12.57-.5-1.08-2.99-8.38-2.99-8.96v-43.1h11.95Z"/>
  <path class="cls-2" d="M326.32,102.11c10.11-1.48,20.55,1.47,28.35,7.95.18.79-5.28,8.6-6.51,8.81-.98.16-4.66-3.03-6.28-3.75-7.1-3.14-23.81-4.33-20.3,7.5,1.99,6.73,24.97,6.47,32.25,16.4,4.03,5.5,3.58,14.75-.14,20.34-9.31,13.98-36.53,9.88-46.74-1.68-.15-.9,5.32-7.63,6.46-7.85,1.05-.2,7.01,4.23,9.11,5.14,7.73,3.35,25.5,4.58,21.73-8.09-2.15-7.24-29.8-5.56-34-18.9-3.9-12.39,3.38-24,16.06-25.86Z"/>
  <path class="cls-2" d="M551.73,118.86c-4.33-1-7.61-4.55-12.67-5.49-6.99-1.29-20.07.35-14.45,10.19,4.18,7.31,28.77,4.48,33.6,19.3,2.3,7.05.45,14.64-5.09,19.64-9.81,8.87-27.71,6.35-38.26-.19-1.52-.95-6.49-3.61-5.34-5.8.36-.68,5.61-6.59,6.2-6.74,2.25-.57,3.02,1.9,4.57,2.84,5.7,3.47,12.3,5.65,19.08,4.66,5.23-.76,10-5.79,6.84-10.94-5.34-8.7-31.34-3.82-34.29-21.18-4.39-25.8,30.34-29.12,44.96-15.07l-5.15,8.77Z"/>
  <path class="cls-2" d="M707.15,113.84h-20.48c.38-2.36-.89-9.54.8-10.72,2.98-2.08,44.55.72,51.57-.25,2.48.82,1.72,10.98.12,10.98h-18.78c-.71,0-1.51,2.07-1.32,2.94l.04,48.69c-.04,3.39-11.16,2.79-11.83.73l-.12-52.37Z"/>
  <path class="cls-2" d="M180.58,71.16v-27.31h7.68v41.39c0,1.78-6.2,1.66-7.44.17-7.17-8.98-13.5-18.94-21.58-27.05v26.88c0,1.78-6.26,1.28-7.68,1.28v-42.67l7.67.43,21.34,26.88Z"/>
  <path class="cls-2" d="M348.28,43.85c4.35.72,9.38,5.9,10.28,10.19,1.75,8.27-2.05,13.01-8.98,16.68,1.07,2.28,11.65,14.4,10.22,15.79-15.36,4.18-12.57-18.84-27.31-15.36v14.08c0,1.86-8.53,1.86-8.53,0v-41.39c7.38.86,17.29-1.17,24.32,0ZM331.64,64.34h14.08c3.69,0,7.4-7.64,3.05-11.59-3.04-2.77-17.13-2.91-17.13-.79v12.37Z"/>
  <path class="cls-2" d="M520.88,43.2c33.69-5.78,35.73,44.44,4.16,44.08-26.9-.3-28.99-39.82-4.16-44.08ZM515.43,54.4c-14.31,15.25,11.51,36.91,22.07,18.23,8.93-15.8-11.33-29.67-22.07-18.23Z"/>
  <path class="cls-2" d="M579.56,43.85c13.78,2.04,15.64,22.3,2.12,26.04.31,3.06,11.33,14.74,9.4,16.63-14.88,3.5-11.92-19.52-27.31-15.36v15.36c-1.42,0-7.68.5-7.68-1.28v-41.39c7.26.76,16.48-1.03,23.47,0ZM563.77,64.34h14.08c3.65,0,6.36-7.36,3.91-10.74-.33-.46-4.48-2.92-4.76-2.92h-13.23v13.65Z"/>
  <path class="cls-2" d="M664.48,43.85v19.63l18.79-19.19,9.37-.44c.38,1.48-.61,1.71-1.27,2.56-4.28,5.58-11.36,9.7-14.97,15.78,0,1.48,14.31,18.2,16.28,21.3.67,1.05,1.08,1.68.82,3.02-2.21-.44-7.62.73-9.2-.18-1.79-1.03-11.51-17.27-13.5-17.7-1.01-.22-5.82,4.64-6.14,5.69-.85,2.85.7,9.61-.55,11.4-1.09,1.56-8.16,1.05-8.16-.48v-41.39h8.53Z"/>
  <path class="cls-2" d="M375.17,43.85v17.07h19.63v-17.07h7.68v41.39c0,1.78-6.26,1.28-7.68,1.28v-16.64c0-.09-1.19-1.28-1.28-1.28h-18.35v17.92h-7.68v-42.67h7.68Z"/>
  <path class="cls-2" d="M286.41,43.85v26.88c0,7.55,11.65,10.88,17.11,6.01.57-.51,2.52-3.04,2.52-3.45v-29.44h8.53v29.44c0,.44-1.46,4.19-1.85,4.98-5.61,11.33-25.88,11.75-32.17.87-.52-.9-2.69-6.96-2.69-7.55v-27.74h8.53Z"/>
  <path class="cls-2" d="M220.56,43.14l18.06,43.38c-11.22,2.16-7.88-4.43-11.86-9.71-1.06-1.41-16.12-.03-19.14-.56-4.12,6.54-2.34,12.2-12.52,10.27-1.62-1.55,16.01-36.22,17.18-41.27,1.54-3.12,5.42-2.41,8.28-2.11ZM223.26,68.6l-6.4-14.49-6.4,14.49h12.8Z"/>
  <path class="cls-2" d="M738.73,86.52c-1.8-.35-6.36.61-7.55-.14-1.2-.75-2.76-9.21-4.97-9.96-1.21-.41-18.15-.53-18.95-.02-.45.29-2.56,8.61-4.37,9.71-1.67,1.02-4.86.19-6.84.42l.41-4.29c3.63-5.01,14.52-37,17.51-38.81,1.39-.84,6.21-.86,7.27.43l17.49,42.67ZM723.37,69.46c.73-1.94-5.79-17.01-6.82-16.21l-5.98,16.21h12.8Z"/>
  <path class="cls-2" d="M229.23,102.74v64.01h-11.95v-62.73c0-2.15,10.1-1.03,11.95-1.28Z"/>
  <path class="cls-2" d="M646.45,47.37c.99,1.58-2.37,6.7-3,6.8-2.42.39-12.62-6.99-17.17-2.43-1.53,1.54-1.61,5.04.31,6.54,7.19,5.62,23.48,1.74,21.69,17.6-1.51,13.39-22.22,13.21-30.31,6.38-4.62-3.9,1.12-8.15,3.24-7.59.99.26,3.38,2.9,5.73,3.74,3.88,1.38,12.94,2.29,13.47-3.54.49-5.45-11.19-6.33-14.91-7.81-17.18-6.82-7.57-28.74,12.91-23.15,1.02.28,7.82,3.09,8.05,3.46Z"/>
  <path class="cls-2" d="M459.37,66.33c6.64,6.95.27,19.13-8.65,20.21-7.72.94-16.16-.79-21.71-6.53,3.93-9.35,6.03-3.65,11.9-1.62,5.12,1.76,14.4,2.01,12.44-5.58-1.36-5.28-20.9-2.86-22.64-14.07-2.33-15.01,13.33-18.79,24.69-13.6,2.33,1.07,5.91,2.53,4.28,5.13-4.65,7.4-5.56,1.72-10.87.61-4.31-.9-13.48.57-9.68,6.26,2.44,3.66,15.72,4.45,20.25,9.19Z"/>
  <path class="cls-2" d="M271.9,43.85c1.87,11.02-5.11,7.08-12.8,7.68v33.71c0,1.86-8.53,1.86-8.53,0v-33.71h-12.37c-1.78,0-1.28-6.26-1.28-7.68h34.99Z"/>
  <path class="cls-2" d="M500.62,43.85c0,1.42.5,7.68-1.28,7.68h-12.37v33.71c0,1.83-7.68,1.83-7.68,0v-33.71h-12.37c-1.78,0-1.28-6.26-1.28-7.68h34.99Z"/>
  <path class="cls-1" d="M73.07,33.61l8.51-5.96-3.35,20.11c-3.88.14-20.49,1.55-22.33-.83-1.65-2.12-1.97-15.75-2.47-19.29,1.82.48,6.11,7.04,7.66,5.97.59-1.61,4.94-8.83,6.4-8.52,1.01.22,5.25,6.85,5.58,8.52Z"/>
  <path class="cls-1" d="M73.05,24.23l-2.55-19.63c7.92,8.3,7.39,4.77,13.22-2.55,1.09,0,5.3,6.83,5.56,8.51l7.66-5.11-2.56,18.77h-21.34Z"/>
  <path class="cls-1" d="M56,10.57l7.66-5.11-3.36,18.39c-3.14.31-19.92,1.19-21.01-.42-1.35-1.99-1.91-15.61-2.07-18.83l6.39,5.96c1.89-.71,5.32-9.22,6.82-8.52.94.44,5.21,6.85,5.57,8.53Z"/>
  <path class="cls-2" d="M22.71,14.84c4.84,1.99,12.79,9.48,14.1,14.48,1.23,4.66.24,12.5-2.11,16.72-2.13,3.84-5.17,1.65-8.16-.48-10.15-7.25-6.37-20.41-3.84-30.72Z"/>
  <path class="cls-2" d="M.51,45.57c15.05-3.7,25.53,1.05,30.66,15.7-4.25,3.94-11.52,4.81-16.76,2.4-3.3-1.52-16.61-15.3-13.9-18.1Z"/>
  <path class="cls-2" d="M135.31,45.61c1.93,2.77-10.69,13.65-13.61,14.89-6.23,2.63-12.56-.65-17.01-5.22,6.27-15.12,16.7-16.93,30.62-9.66Z"/>
  <path class="cls-2" d="M.51,88.23c-2.02-2.14,7.43-13.6,9.82-15.35,6.21-4.55,13.46-2.7,19.69.84-2.41,16.79-15.43,17.88-29.51,14.51Z"/>
  <path class="cls-2" d="M113.16,14.84c1.05,8.9,3.12,22.45-5.17,28.53-1.27.93-7.74,4.09-8.83,3.82-2.44-.61-3.31-12.26-2.98-14.79,1.04-7.94,9.81-14.92,16.99-17.57Z"/>
  <path class="cls-2" d="M421.25,43.85v41.39c0,1.86-8.53,1.86-8.53,0v-41.39h8.53Z"/>
  <path class="cls-2" d="M607.3,43.85v42.67c-1.42,0-7.68.5-7.68-1.28v-41.39h7.68Z"/>
  <path class="cls-2" d="M135.32,76.24c-.85,1.23-13.3,5.17-15.56,4.97-3.04-.27-10.38-5.85-9.92-8.65.57-3.44,10.36-6.87,13.9-6.47,3.28.37,13.5,7.35,11.58,10.15Z"/>
  <path class="cls-2" d="M54.21,69.39c-13.74-.07-15.72-12.7-13.59-23.82,10.7,3.71,18.36,12.14,13.59,23.82Z"/>
  <path class="cls-2" d="M90.12,46.41c1.94,9.8.75,22.51-11.42,23.85-6.43-10.23.47-21.59,11.42-23.85Z"/>
  <path class="cls-2" d="M106.62,95.63c-3.26-3.41-4.3-7.41.25-9.84,9.91-5.29,15.08,2.14,19.92,9.71-5.04,3.36-15.67,4.85-20.17.13Z"/>
  <path class="cls-2" d="M96.09,115.54c-10.38-2.16-16.6-10.41-12.86-20.96,12.29-1.31,13.63,11.61,12.86,20.96Z"/>
  <path class="cls-2" d="M8.19,112.13c.22-6.17,4.6-14.98,11.5-15.21,5.64-.19,7.19,1.36,6.05,6.73-2.08,9.8-9.3,8.69-17.54,8.48Z"/>
  <path class="cls-2" d="M67.06,51.54c4.34,7.66,9.4,18.07-.43,23.68-6.38-5.06-8.22-11.34-4.52-18.84.54-1.1,3.5-5.85,4.95-4.84Z"/>
  <path class="cls-2" d="M48.9,111.87c-1.13,1.27-5.26,3.06-7.05,3.62-1.36.42-5.74,2.13-5.45-.31.55-4.57,3.08-13.6,7.62-15.44.86-.35,5.72-1.37,6.31-1.2,3.3.93.46,11.21-1.44,13.33Z"/>
  <path class="cls-2" d="M108.89,66.05c-.79,9.26-6.37,18.68-17.06,15.35.47-10.78,6.7-15.23,17.06-15.35Z"/>
  <path class="cls-2" d="M114.01,115.54c-5.38-1.69-11.41-4.43-11.92-10.77-.36-4.45,1.07-5.36,5.12-4.18,6.7,1.95,7.2,8.99,6.8,14.95Z"/>
</svg>