<?xml version="1.0" encoding="UTF-8" standalone="no"?>
<svg
   xmlns:dc="http://purl.org/dc/elements/1.1/"
   xmlns:cc="http://creativecommons.org/ns#"
   xmlns:rdf="http://www.w3.org/1999/02/22-rdf-syntax-ns#"
   xmlns:svg="http://www.w3.org/2000/svg"
   xmlns="http://www.w3.org/2000/svg"
   xmlns:xlink="http://www.w3.org/1999/xlink"
   xmlns:sodipodi="http://sodipodi.sourceforge.net/DTD/sodipodi-0.dtd"
   xmlns:inkscape="http://www.inkscape.org/namespaces/inkscape"
   version="1.1"
   id="Layer_1"
   x="0px"
   y="0px"
   width="775"
   height="283"
   viewBox="0 0 775 283"
   enable-background="new 0 0 595.276 841.89"
   xml:space="preserve">
<path
   clip-rule="evenodd"
   d="m 9.1795701,214.74153 c 10.7381389,24.89548 30.1086669,39.07121 41.8174809,46.64547 16.597141,10.74185 63.350399,21.563 63.350399,21.563 0,0 46.89194,-10.82115 63.56701,-21.563 11.72617,-7.55306 31.04463,-21.72739 41.7352,-46.64547 9.42096,-21.948 9.03081,-43.1091 9.03081,-45.15349 V -0.04865767 H 148.2349 V 33.405582 H 112.78738 V -0.04865767 H 74.973962 V 33.405582 H 39.435586 V -0.04865767 H 0.14869409 V 169.58804 c -0.0042,3.41879 -1.71167199,20.2585 9.03087601,45.15349"
   id="path7"
   inkscape:connector-curvature="0"
   style="fill:#da2128;fill-rule:evenodd" /><path
   stroke-miterlimit="5"
   d="m 9.1795701,214.74153 c 10.7381389,24.89548 30.1086669,39.07121 41.8174809,46.64547 16.597141,10.74185 63.350399,21.563 63.350399,21.563 0,0 46.89194,-10.82115 63.56701,-21.563 11.72617,-7.55306 31.04463,-21.72739 41.7352,-46.64547 9.42096,-21.948 9.03081,-43.1091 9.03081,-45.15349 V -0.04865767 H 148.2349 V 33.405582 H 112.78738 V -0.04865767 H 74.973962 V 33.405582 H 39.435586 V -0.04865767 H 0.14869409 V 169.58804 c -0.0042,3.41879 -1.71167199,20.2585 9.03087601,45.15349 z"
   id="path9"
   inkscape:connector-curvature="0"
   style="fill:none;stroke:#da2128;stroke-width:0;stroke-linecap:round;stroke-linejoin:round;stroke-miterlimit:5" /><path
   clip-rule="evenodd"
   d="m 30.508658,161.39258 c 0,45.54948 23.404879,65.15799 63.259374,65.15799 39.854498,0 63.259378,-19.60851 63.259378,-65.15799 v -48.07467 c 0,-45.544888 -23.40488,-65.153398 -63.259378,-65.153398 -39.854495,0 -63.259374,19.60851 -63.259374,65.153398 v 48.07467 z"
   id="path11"
   inkscape:connector-curvature="0"
   style="fill:#ffffff;fill-rule:evenodd" /><path
   stroke-miterlimit="5"
   d="m 30.508658,161.39258 c 0,45.54948 23.404879,65.15799 63.259374,65.15799 39.854498,0 63.259378,-19.60851 63.259378,-65.15799 v -48.07467 c 0,-45.544888 -23.40488,-65.153398 -63.259378,-65.153398 -39.854495,0 -63.259374,19.60851 -63.259374,65.153398 v 48.07467 z"
   id="path13"
   inkscape:connector-curvature="0"
   style="fill:none;stroke:#da2128;stroke-width:0;stroke-linecap:round;stroke-linejoin:round;stroke-miterlimit:5" /><path
   clip-rule="evenodd"
   d="m 93.520982,79.131562 c 14.148728,0 25.597558,11.45735 25.597558,25.579988 v 64.47309 c 0,14.12724 -11.44883,25.57998 -25.575908,25.57998 -14.16595,0 -25.6192,-11.45734 -25.6192,-25.57998 v -64.47309 c 0,-14.127238 11.45325,-25.579988 25.58019,-25.579988 h 0.018 z"
   id="path15"
   inkscape:connector-curvature="0"
   style="fill:#4495d1;fill-rule:evenodd" /><path
   d="m 310.98522,105.10575 c 0,-15.673738 -2.64765,-24.686388 -13.09994,-24.686388 -10.45211,0 -13.10419,9.01265 -13.10419,24.686388 0,15.60543 2.65208,24.69278 13.10419,24.69278 10.45229,0 13.09994,-9.08735 13.09994,-24.69278 m -34.83205,-0.08 c 0,-13.411848 8.70585,-26.356478 21.73211,-26.356478 13.02626,0 21.73648,12.94463 21.73648,26.356478 0,13.40714 -8.71022,26.50697 -21.73648,26.50697 -13.02626,0 -21.73211,-13.09983 -21.73211,-26.50697 M 301.8201,71.381202 c 0,-1.96819 1.44301,-3.63658 3.48834,-3.63658 1.96741,0 3.55777,1.74299 3.55777,3.63658 0,1.96659 -1.66829,3.48888 -3.55777,3.48888 -1.97166,0 -3.48834,-1.52229 -3.48834,-3.48888 m -14.76398,0 c 0,-1.96819 1.43862,-3.63658 3.47967,-3.63658 1.97183,0 3.5622,1.74299 3.5622,3.63658 0,1.96659 -1.66847,3.48888 -3.5622,3.48888 -1.96741,0 -3.47967,-1.52229 -3.47967,-3.48888"
   id="path17"
   inkscape:connector-curvature="0" /><path
   d="m 500.77203,102.20306 h 4.08641 c 8.33311,0 13.55916,-0.68699 13.55916,-11.058448 0,-7.34157 -3.18072,-9.61726 -10.45211,-9.61726 h -7.19346 v 20.675708 z m -13.17804,28.17527 v -1.74119 h 5.8328 V 81.531952 h -5.8328 v -1.74129 h 22.33873 c 14.54313,0 16.74006,7.64896 16.74006,11.05855 0,9.922958 -8.71014,11.816548 -15.82994,12.414748 v 0.159 c 8.71016,2.19179 14.61663,5.37317 13.93621,17.34201 -0.2299,3.63639 0.2253,7.04157 1.89373,7.79957 1.43877,0.98799 4.15141,-0.678 5.91091,-1.89759 l 0.82809,1.42569 c -1.83299,2.30969 -4.77109,3.34578 -6.7385,3.42338 -5.3778,0.08 -8.40678,-2.79928 -9.39056,-6.36107 -0.3776,-1.36089 -0.8356,-7.49666 -1.36492,-12.03894 -0.3775,-3.48428 -1.05746,-9.16495 -10.60388,-9.16495 h -4.54157 v 24.68818 h 5.98455 v 1.74069 h -19.16247 z"
   id="path19"
   inkscape:connector-curvature="0" /><path
   d="m 343.98434,102.27146 h 4.09067 c 8.32885,0 13.55507,-0.68399 13.55507,-11.058448 0,-7.34447 -3.18089,-9.62476 -10.44803,-9.62476 h -7.19771 v 20.683208 z m -13.17804,28.17247 v -1.74239 h 5.8328 V 81.592852 h -5.8328 v -1.73379 h 22.34316 c 14.5387,0 16.73569,7.64436 16.73569,11.05565 0,9.922958 -8.71021,11.811948 -15.82557,12.419348 v 0.152 c 8.70573,2.19659 14.6122,5.37337 13.93195,17.34681 -0.2253,3.63029 0.2299,7.04157 1.89362,7.79497 1.43871,0.98099 4.15152,-0.678 5.91084,-1.89819 l 0.8281,1.43089 c -1.83299,2.30909 -4.77109,3.34868 -6.7385,3.42338 -5.37765,0.08 -8.40678,-2.79928 -9.39039,-6.36277 -0.3776,-1.36379 -0.8327,-7.49666 -1.3651,-12.03724 -0.37749,-3.48888 -1.05728,-9.16496 -10.59963,-9.16496 h -4.54563 v 24.68649 h 5.98437 v 1.74289 h -19.16244 z"
   id="path21"
   inkscape:connector-curvature="0" /><path
   d="m 383.91251,130.40423 v -1.74129 h 6.66481 V 81.557852 h -6.66481 v -1.74129 h 38.39837 v 12.34634 h -1.66828 c -1.28699,-9.01436 -5.98015,-10.60045 -12.87025,-10.60045 h -9.84996 v 21.806608 c 7.65286,0 10.07524,-0.08 11.13261,-8.104068 h 1.66838 V 114.42761 H 409.055 c -0.4506,-8.09947 -3.63135,-9.08736 -11.13261,-9.15746 v 23.39739 h 9.1653 c 9.99714,0 13.32963,-1.2102 15.30129,-12.41644 h 1.96741 l -0.98369,14.16233 h -39.46013 z"
   id="path23"
   inkscape:connector-curvature="0" /><path
   d="m 449.48587,102.98696 h 6.51305 c 7.57494,0 9.62028,-3.029095 9.62028,-11.058558 0,-7.03686 -2.65208,-10.37445 -10.22685,-10.37445 h -5.90648 v 21.433008 z m 0,25.67598 h 6.36145 c 8.78383,0 10.90726,-2.95149 10.90726,-12.49404 0,-9.62006 -4.61948,-11.43895 -13.71093,-11.43895 h -3.55778 v 23.93299 z m -13.17803,1.74129 v -1.74129 h 5.8328 V 81.557852 h -5.8328 v -1.74129 H 455.921 c 14.92,0 17.87545,7.42367 17.87545,12.11644 0,7.49667 -6.73849,10.985558 -12.87467,11.743558 v 0.149 c 10.14892,1.13849 14.54296,7.95496 14.54296,12.64924 0,5.75367 -3.25866,13.93533 -19.61742,13.93533 h -19.53948 z"
   id="path25"
   inkscape:connector-curvature="0" /><path
   d="m 576.64149,105.11035 c 0,-15.678338 -2.64765,-24.690988 -13.09994,-24.690988 -10.45211,0 -13.10419,9.01265 -13.10419,24.690988 0,15.60083 2.65208,24.68358 13.10419,24.68358 10.45229,0 13.09994,-9.08275 13.09994,-24.68358 m -34.83636,-0.08 c 0,-13.403648 8.71015,-26.351878 21.73642,-26.351878 13.02627,0 21.73216,12.94823 21.73216,26.351878 0,13.40714 -8.70589,26.50697 -21.73216,26.50697 -13.02627,0 -21.73642,-13.10443 -21.73642,-26.50697"
   id="path27"
   inkscape:connector-curvature="0" /><path
   d="m 525.52875,197.65981 h 4.0865 c 8.33316,0 13.55923,-0.687 13.55923,-11.05845 0,-7.34606 -3.18073,-9.61725 -10.45213,-9.61725 h -7.1936 v 20.6757 z m -13.1779,28.16686 v -1.74199 h 5.8328 v -47.10057 h -5.8328 v -1.7413 h 22.34317 c 14.5387,0 16.73564,7.64897 16.73564,11.05395 0,9.92465 -8.71016,11.82285 -15.82995,12.41934 v 0.159 c 8.71015,2.19639 14.61662,5.37788 13.9362,17.34202 -0.22529,3.64068 0.2253,7.04617 1.89375,7.80436 1.43875,0.986 4.15141,-0.683 5.91089,-1.89759 l 0.82809,1.42559 c -1.83741,2.30979 -4.77108,3.35029 -6.73848,3.42329 -5.37784,0.09 -8.40679,-2.79919 -9.39058,-6.36107 -0.3812,-1.3563 -0.8356,-7.49207 -1.36491,-12.03894 -0.3776,-3.48759 -1.06172,-9.16036 -10.60389,-9.16036 h -4.54156 v 24.68358 h 5.98457 v 1.74129 h -19.16244 z"
   id="path29"
   inkscape:connector-curvature="0" /><path
   d="m 290.62682,175.26871 v 1.7384 h -5.90648 v 37.56552 c 0,1.73839 1.36509,9.92005 10.52596,9.92005 11.35782,0 12.79657,-7.80126 12.79657,-17.42132 v -30.06425 h -5.8328 v -1.7384 h 13.71094 v 1.7384 h -5.82838 v 32.41294 c 0,11.89124 -5.23049,17.57192 -16.66638,17.57192 -9.76763,0 -16.05098,-5.38198 -16.05098,-13.86234 v -36.12252 h -5.83279 v -1.7384 h 19.08434 z"
   id="path31"
   inkscape:connector-curvature="0" /><polygon
   points="114.085,790.187 114.085,790.589 110.852,790.589 110.852,790.187 112.215,790.187 112.215,779.318 110.852,779.318 110.852,778.916 114.259,778.916 119.223,787.374 119.258,787.374 119.258,779.318 117.895,779.318 117.895,778.916 121.128,778.916 121.128,779.318 119.782,779.318 119.782,790.851 119.328,790.851 112.774,779.667 112.739,779.667 112.739,790.187 "
   id="polygon33"
   transform="matrix(4.3334254,0,0,4.3334254,-155.95433,-3200.105)" /><polygon
   points="124.955,790.187 124.955,779.317 123.452,779.317 123.452,778.916 128.153,778.916 128.153,779.317 126.65,779.317 126.65,790.187 128.153,790.187 128.153,790.589 123.452,790.589 123.452,790.187 "
   id="polygon35"
   transform="matrix(4.3334254,0,0,4.3334254,-155.95433,-3200.105)" /><polygon
   points="137.271,779.317 137.271,778.916 140.592,778.916 140.592,779.317 139.352,779.317 135.646,790.852 135.209,790.852 131.294,779.317 130.019,779.317 130.019,778.916 134.44,778.916 134.44,779.317 133.078,779.317 136.013,788.039 136.048,788.039 138.862,779.317 "
   id="polygon37"
   transform="matrix(4.3334254,0,0,4.3334254,-155.95433,-3200.105)" /><path
   d="m 460.63577,225.85347 v -1.74299 h 6.66482 v -47.10337 h -6.66482 v -1.7384 h 38.39413 v 12.34635 h -1.66405 c -1.29141,-9.01436 -5.9844,-10.60505 -12.87465,-10.60505 h -9.84555 v 21.81129 c 7.64861,0 10.07098,-0.08 11.1327,-8.10416 h 1.66404 v 19.16261 h -1.66404 c -0.4551,-8.10406 -3.63586,-9.09196 -11.1327,-9.16036 v 23.39569 h 9.16087 c 9.99731,0 13.32963,-1.20389 15.30147,-12.41474 h 1.96724 l -0.9835,14.16063 h -39.45586 z"
   id="path39"
   inkscape:connector-curvature="0" /><path
   d="m 568.25207,226.08167 h -1.05743 v -13.02964 h 1.43872 c 2.99016,6.82077 7.26714,12.18945 14.61663,12.18945 6.51321,0 12.72289,-3.96989 12.72289,-10.62925 0,-4.46748 -1.06154,-6.51337 -6.89009,-8.86666 -2.80368,-1.0534 -14.54295,-4.91808 -15.67834,-5.67607 -4.39405,-2.73089 -6.13618,-7.34607 -6.13618,-11.58835 0,-3.10678 0.9103,-6.10077 3.1028,-8.97936 2.27503,-2.95438 5.98441,-5.42957 11.73928,-5.37787 4.37243,0.05 8.40678,2.19819 9.92346,3.33828 l 2.87753,-2.19809 h 1.06154 v 11.81365 h -1.51668 c -2.37466,-6.19217 -6.13601,-11.20625 -12.8745,-11.20625 -5.14813,0 -10.75124,3.90438 -10.75124,9.58506 0,12.57164 28.7002,4.46757 28.7002,25.06858 0,10.37525 -6.51305,16.44552 -16.43228,16.46682 -5.06577,0.009 -8.48062,-1.1385 -11.58767,-4.24228 l -3.25864,3.33198 z"
   id="path41"
   inkscape:connector-curvature="0" /><polygon
   points="178.307,790.187 178.307,779.317 176.804,779.317 176.804,778.916 181.505,778.916 181.505,779.317 180.001,779.317 180.001,790.187 181.505,790.187 181.505,790.589 176.804,790.589 176.804,790.187 "
   id="polygon43"
   transform="matrix(4.3334254,0,0,4.3334254,-155.95433,-3200.105)" /><path
   d="m 648.58908,225.85347 v -1.74299 h 6.28347 v -47.10337 h -5.14787 c -7.19847,0 -7.95187,5.37777 -9.39026,12.87873 h -1.96825 l 0.8261,-14.61713 h 39.00558 l 0.526,14.61713 h -1.96639 c -0.831,-7.19806 -3.33199,-12.87873 -11.21075,-12.87873 h -3.32758 v 47.10337 h 6.28327 v 1.74299 h -19.91691 z"
   id="path45"
   inkscape:connector-curvature="0" /><path
   d="m 686.4546,225.85347 v -1.74299 h 6.66567 v -47.10337 h -6.66567 v -1.7384 h 38.39812 v 12.34635 h -1.6683 c -1.28609,-9.01436 -5.97887,-10.60505 -12.86983,-10.60505 h -9.84996 v 21.81129 c 7.65347,0 10.07526,-0.08 11.13315,-8.10416 h 1.66829 v 19.15801 h -1.66829 c -0.444,-8.09946 -3.63188,-9.08736 -11.13315,-9.15576 v 23.39569 h 9.16496 c 9.99765,0 13.32964,-1.20389 15.29783,-12.41474 h 1.97119 l -0.983,14.16063 H 686.4549 z"
   id="path47"
   inkscape:connector-curvature="0" /><path
   d="m 744.90902,225.85347 v -1.74299 h 6.28707 v -47.10337 h -5.15157 c -7.19377,0 -7.95177,5.37777 -9.39196,12.87873 h -1.96649 l 0.831,-14.61713 h 39.00391 l 0.526,14.61713 h -1.97279 c -0.831,-7.19806 -3.32739,-12.87873 -11.21035,-12.87873 h -3.32788 v 47.10337 h 6.28357 v 1.74299 h -19.91601 z"
   id="path49"
   inkscape:connector-curvature="0" />
</svg>