<?xml version="1.0" encoding="UTF-8"?>
<svg id="Layer_1" data-name="Layer 1" xmlns="http://www.w3.org/2000/svg" viewBox="0 0 512 128">
  <defs>
    <style>
      .cls-1 {
        fill: #3f96b4;
      }

      .cls-1, .cls-2 {
        stroke-width: 0px;
      }

      .cls-2 {
        fill: #333;
      }
    </style>
  </defs>
  <g>
    <path class="cls-1" d="M55.43,9.85l46.89,27.07v54.15l-46.89,27.07-46.89-27.07v-54.15L55.43,9.85M55.43,0L0,32v64l55.43,32,55.43-32V32L55.43,0h0Z"/>
    <polygon class="cls-1" points="83.14 80 55.43 96 27.71 80 27.71 48 83.14 80"/>
    <path class="cls-1" d="M55.43,0L0,32l110.85,64v-64L55.43,0ZM83.14,80l-55.43-32,27.71-16,27.71,16v32Z"/>
  </g>
  <g>
    <path class="cls-2" d="M170.06,103.5V24.14h21.34v13.85h.83c1.45-4.93,3.88-8.65,7.29-11.19,3.41-2.53,7.34-3.8,11.78-3.8,1.1,0,2.29.07,3.56.21,1.28.14,2.39.33,3.36.57v19.53c-1.03-.31-2.46-.59-4.29-.83-1.83-.24-3.5-.36-5.01-.36-3.24,0-6.12.7-8.66,2.09-2.53,1.39-4.53,3.33-5.99,5.81-1.47,2.48-2.2,5.34-2.2,8.58v44.9h-22.01Z"/>
    <path class="cls-2" d="M246.54,105c-5.06,0-9.58-.89-13.54-2.66-3.96-1.77-7.09-4.41-9.38-7.91-2.29-3.49-3.43-7.86-3.43-13.1,0-4.41.81-8.11,2.43-11.11,1.62-3,3.82-5.41,6.61-7.23,2.79-1.83,5.97-3.2,9.53-4.13,3.57-.93,7.31-1.59,11.24-1.96,4.62-.48,8.34-.94,11.16-1.37s4.87-1.08,6.15-1.94c1.27-.86,1.91-2.14,1.91-3.82v-.31c0-3.27-1.02-5.8-3.08-7.6-2.05-1.79-4.95-2.69-8.71-2.69-3.96,0-7.11.87-9.46,2.61-2.34,1.74-3.89,3.92-4.65,6.54l-20.36-1.65c1.03-4.82,3.07-9,6.1-12.53,3.03-3.53,6.95-6.25,11.76-8.16,4.8-1.91,10.38-2.87,16.71-2.87,4.41,0,8.64.52,12.68,1.55s7.65,2.63,10.8,4.8c3.15,2.17,5.64,4.95,7.47,8.35,1.83,3.39,2.74,7.45,2.74,12.17v53.53h-20.88v-11.01h-.62c-1.27,2.48-2.98,4.66-5.12,6.54-2.13,1.88-4.7,3.34-7.7,4.39-3,1.05-6.46,1.57-10.39,1.57ZM252.85,89.81c3.24,0,6.1-.65,8.58-1.94s4.43-3.04,5.84-5.24c1.41-2.2,2.12-4.7,2.12-7.49v-8.42c-.69.45-1.63.85-2.82,1.21s-2.53.69-4.01.98c-1.48.29-2.96.55-4.44.78-1.48.22-2.82.42-4.03.59-2.58.38-4.84.98-6.77,1.81-1.93.83-3.43,1.94-4.49,3.33-1.07,1.39-1.6,3.13-1.6,5.19,0,3,1.09,5.28,3.28,6.85s4.97,2.35,8.35,2.35Z"/>
    <path class="cls-2" d="M349.05,69.71V24.14h22.01v79.37h-21.13v-14.42h-.83c-1.79,4.65-4.76,8.39-8.91,11.21-4.15,2.82-9.21,4.24-15.17,4.24-5.3,0-9.97-1.2-14.01-3.62-4.03-2.41-7.17-5.84-9.43-10.28-2.26-4.44-3.4-9.77-3.44-15.97V24.14h22.01v46.61c.03,4.68,1.29,8.39,3.77,11.11,2.48,2.72,5.81,4.08,9.97,4.08,2.65,0,5.13-.61,7.44-1.83,2.31-1.22,4.18-3.04,5.61-5.45s2.13-5.39,2.09-8.94Z"/>
    <path class="cls-2" d="M379.16,103.5V23.1h22.01v80.4h-22.01ZM399.11,80.66l.05-26.4h3.2l25.42-30.12h25.27l-34.15,39.89h-5.22l-14.57,16.64ZM428.77,103.5l-23.36-34.57,14.67-15.55,34.46,50.12h-25.78Z"/>
    <path class="cls-2" d="M459.61,103.5V24.14h21.34v13.85h.83c1.45-4.93,3.88-8.65,7.29-11.19,3.41-2.53,7.34-3.8,11.78-3.8,1.1,0,2.29.07,3.56.21,1.28.14,2.39.33,3.36.57v19.53c-1.03-.31-2.46-.59-4.29-.83-1.83-.24-3.5-.36-5.01-.36-3.24,0-6.12.7-8.66,2.09-2.53,1.39-4.53,3.33-5.99,5.81-1.47,2.48-2.2,5.34-2.2,8.58v44.9h-22.01Z"/>
  </g>
</svg>