<?xml version="1.0" encoding="utf-8"?>
<!-- Generator: Adobe Illustrator 24.0.2, SVG Export Plug-In . SVG Version: 6.00 Build 0)  -->
<svg version="1.1" id="Lager_1" xmlns="http://www.w3.org/2000/svg" xmlns:xlink="http://www.w3.org/1999/xlink" x="0px" y="0px"
	 viewBox="0 0 2784 600" style="enable-background:new 0 0 2784 600;" xml:space="preserve">
<style type="text/css">
	.st0{fill:#6B6C6A;}
	.st1{fill:#9E1863;}
	.st2{fill:none;}
</style>
<g>
	<path class="st0" d="M820.6,241.9c0,20.1-4.2,34.1-13.1,42.1c-7,6.5-16.4,9.4-30.4,9.4c-1.9,0-4.2,0-6.1,0c-0.5-31.3-0.5-63.6,0-95
		c5.6-0.5,10.8-0.5,15.4-0.5C797.2,197.9,820.6,197.9,820.6,241.9 M838.4,364.4l-18.7-44.9c26.2-10.8,39.8-37.9,39.8-79.1
		c0-79.5-49.6-79.5-68.3-79.5c-4.7,0-10.8,0-16.8,0.5c-6.1,0-12.2,0.5-16.8,0.5c-7.5,0.5-15,0.5-23.4,0.5h-1.9l-4.2,3.3v0.9
		c3.3,49.6,3.3,189,3.3,190.4c0,26.7-3.3,77.6-3.3,77.6v12.2l6.1,0.9h1.9c14.5,2.3,17.8,2.3,31.8,4.7h1.4l5.6-6.5v-0.9
		c-4.2-41.2-4.2-93.1-4.2-116.5c5.1,0,8,0,13.1-0.5l4.2,11.7c5.1,13.6,12.2,32.3,18.7,50.1l9.8,25.7c5.6,15,7.5,20.6,10.8,31.3
		l0.5,0.9h4.7h1.4c13.1,2.8,35.1,4.7,35.1,4.7h1.9l2.8-6.1l-0.5-1.4c-10.3-22-12.2-26.2-34.6-79.5"/>
	<path class="st0" d="M949.7,266.2c2.8,0,18.2,1.4,22.9,29.5c1.4,8,1.4,14.5,1.4,21h-51.9c0.5-9.4,2.3-24.8,9.4-37
		C936.6,270.9,942.7,266.2,949.7,266.2 M977.6,238.1c-6.8-4.7-14.9-7-23.4-7c-8.5,0-17,2.3-24.2,7c-23.8,15.9-37,52.9-37,104.3
		c0,35.1,5.5,61.7,16.6,80.9c16.2,27.6,37,30.9,51.5,30.9c5.5,0,16.2-0.5,26.4-4.7c6.8-2.3,10.2-5.6,12.8-7l2.1-4.2l0.9-10.3
		c0.4-6.5,0.4-10.8,0.9-20.1V406l-5.5-3.3l-1.7,1.4c-5.1,5.1-14,14-29.3,14c-16.6,0-28.9-10.3-35.3-29.9
		c-4.3-12.6-5.1-26.2-5.5-38.8h78.2l3.8-4.2v-1.4C1009.9,301.7,1006.5,256.8,977.6,238.1"/>
	<path class="st0" d="M1236.9,313.9c0-27.1,0.5-50.1,0.9-75.8v-2.8l-3.3-5.1l-2.3,0.5c-14.5,3.7-17.8,4.2-31.3,6.5h0l-0.5,6.1v1.4
		c-1.9,12.6-0.5,31.8-0.5,111.8c0,40.7,0.5,88.4,0.5,88.4v1.4l1.9,1.4h1.9c14,1.9,18.2,1.9,31.3,4.7h1.9l5.1-7v-0.9
		c-0.9-25.7-2.3-57.1-2.3-130.5"/>
	<path class="st0" d="M1200.9,167c0,6.1,0,11.7-0.5,17.3v1.9l4.2,4.7l1.9-0.5c12.6-2.8,17.3-3.7,29-4.7h0l2.3-4.7v-1.4
		c0.9-12.2,4.7-33.7,4.7-33.7v-2.3l-4.5-4.7l-2,0.5c-12.9,2.3-16.3,2.8-30.7,4.2h-1l-4,4.2v2.3c-0.5,6.1-0.5,11.2-0.5,16.8"/>
	<path class="st0" d="M1358.6,402.8c-2.8,7-8,16.4-20.6,16.4c-9.4,0-22.9-4.7-28.1-43.5c-1.4-9.8-2.3-21.5-2.3-35.6
		c0-34.1,5.1-74.8,30.4-74.8c10.8,0,16.4,7.5,20.1,14c6.5,14,9.8,36,9.8,66C1367.4,371,1364.6,389.7,1358.6,402.8 M1339.4,231.1
		c-21,0-37.9,8.4-50.1,24.3c-14,18.7-21.5,48.2-21.5,87c0,14,0,56.1,18.7,83.7c11.7,17.8,29.9,27.6,50.5,27.6
		c22.5,0,40.2-9.8,52.4-29.9c11.7-18.7,17.3-44.9,17.3-78.6c0-42.1-7.5-73-22.5-92.2C1373.1,239,1357.6,231.1,1339.4,231.1"/>
	<path class="st0" d="M1560.6,368.1l-0.5-44.4c0-33.7,0-44-5.1-60.3c-7-22.5-19.6-33.7-38.4-33.7c-18.2,0-32.3,9.8-43.5,21
		c0-3.7,0.5-6.5,0.5-9.4l0.5-6.5l-3.7-5.1l-2.8,0.9c-13.1,3.3-17.3,4.7-29.9,6.5h-0.5l-2.8,6.1v0.9c1.9,40.7,2.3,81.4,2.3,119.3
		c0,39.3-0.5,64.1,2.3,80.9v0.9l0,4.7l6.1-0.5c8.9-0.5,25.3-1.9,25.3-1.9h2.3l3.7-4.7v-1.4c-1.9-36-1.9-120.7-1.9-153.9
		c4.2-5.6,16.4-19.2,29.5-19.2c16.4,0,19.2,18.7,19.6,32.7c0.5,14.5,0.5,40.2,0.5,58c0,13.1-0.5,52.4-0.9,83.7v2.3l2.3,2.3h1.9
		c13.1,1.4,15.4,1.4,29.9,0h1.4l6.5-3.3V443c-0.9-18.2-0.9-24.8-0.9-76.2"/>
	<path class="st0" d="M1824,160c-6.1,0.5-21.5-2.3-21.5-2.3h-1.4l-1.9,7.5v0.9c-0.5,45.8-0.5,92.6-0.5,137.5c0,46.3,0,67.8-5.1,83.7
		c-3.3,10.8-11.7,28.1-33.2,28.1c-17.3,0-29.5-11.2-34.6-31.8c-3.7-15.4-4.2-43-4.2-78.1c0-40.7,0-101.5,2.8-140.8v-0.9l-5.6-6.1
		h-1.4c0,0-17.8,2.3-33.2,0h-1.9l-4.7,7v0.9c2.3,40.7,0,142.2,0,142.2v18.8c0,33.5,0,55.3,7.3,77.1c7.8,24.2,26.7,52.9,71.8,52.9
		c10.7,0,42.7,0,63.5-34.4c16.5-27.2,16.5-60.6,16.5-99.4v-40.2c0,0-2.8-28.1-2.3-42.1c0.5-46.3,0.5-61.7,2.3-76.2v-0.9l-5.1-4.7
		L1824,160z"/>
	<path class="st0" d="M1967.1,333.5c0,23.4-3.7,44.4-10.3,58c-12.2,23.9-31.8,23.9-38.4,23.9c-2.3,0-4.2,0-6.1-0.5
		c-0.5-39.8-0.5-65.5-0.5-129.1c6.5-8.9,14-17.3,25.3-17.3c11.7,0,18.7,9.8,21.5,15.9c3.3,7,5.6,15.9,6.5,25.7
		C1966.7,317.2,1967.1,324.2,1967.1,333.5 M1967.6,235.8c-6.5-3.3-13.1-4.7-19.6-4.7c-17.3,0-29,9.4-36.5,16.8v-13.6l-4.3-4.2
		l-1.9,0.5c-13.9,3.7-17.7,4.2-31.6,6.5h-1.4l-2.4,3.7l-0.5,1.4v2.8c0,0,4.2,62.7,4.2,167.5c0,46.3-0.5,65.5,0.5,103.8v12.2l1.9,3.3
		h3.3c8,0.9,15,0.5,22.9,4.7h7h1.9l3.3-4.7l-0.9-28.1c-0.5-21.5-0.9-30.4-0.9-50.1c1.4,0,2.3,0,3.3,0.5c3.3,0,5.6,0.5,8.4,0.5
		c31.8,0,50.5-17.3,60.3-31.8c14.5-21,21.5-50.5,21.5-87.9c0-47.7-14-82.3-38.4-95.4"/>
	<path class="st0" d="M2128.5,333.5c0,23.4-3.7,44.4-10.3,58c-12.2,23.9-31.8,23.9-38.4,23.9c-2.3,0-4.2,0-6.1-0.5
		c-0.5-39.8-0.5-65.5-0.5-129.1c6.5-8.9,14-17.3,25.3-17.3c11.7,0,18.7,9.8,21.5,15.9c3.3,7,5.6,15.9,6.5,25.7
		C2128,316.7,2128.5,324.2,2128.5,333.5 M2131.3,235.8c-6.5-3.3-13.1-4.7-19.6-4.7c-17.3,0-29,9.4-36.5,16.8v-11.7l-6.5-4.2
		l-1.9,0.5c-13.6,3.7-17.3,4.2-30.9,4.7h-1.4l-2.3,5.6l-3.7,1.4v0.9c0,0,6.5,62.7,6.5,167.5c0,46.3-0.5,66-1.9,104.8v11.2l4.2,3.3
		h3.3c8,0.9,15,0.5,22.9,4.7h7h1.9l3.3-4.7l-0.9-28.1c-0.5-21.5-0.9-29.9-0.9-49.6c1.4,0,2.3,0,3.3,0.5c3.3,0,5.6,0.5,8.4,0.5
		c31.8,0,50.5-17.3,60.3-31.8c14.5-21,21.5-50.5,21.5-87.9c0-48.2-14-82.8-38.4-95.9"/>
	<path class="st0" d="M2251.1,324.6l-10.3-6.5c-9.8-7-18.7-13.1-18.7-28.1c0-15.4,8.9-25.3,22.9-25.3c8,0,20.1,3.7,28.5,13.6
		l1.4,1.4l6.1-2.3v-2.3c0,0,2.3-9.8,2.8-15c0-5.1,1.9-14.5,1.9-14.5v-4.7l-1.5-4.9l-1-0.5c-16.2-8.4-34.5-9.4-39.4-9.4
		c-19.7,0-35.5,6.9-46.3,20.2c-9.4,11.8-14.3,28.1-14.3,46.3c0,36.4,18.7,49.7,38.4,64l9.8,6.9c11.3,8.4,20.2,14.8,20.2,32
		c0,14.8-7.9,30.5-25.6,30.5c-17.2,0-29.1-11.3-35-16.7l-2-1.5l-6.4,3.4v-2.4c0,0,3.7,8.9,3.3,13.6c0,5.1,1.4,15.4,1.4,15.4v0.9
		l2.3,5.1l0.9,0.5c12.2,7,25.7,10.3,41.2,10.3c12.2,0,30.4-2.3,44.9-20.6c7-8.4,15-23.9,15-46.3c1.4-37-19.2-51.5-36.5-63.1"/>
	<path class="st0" d="M2368.9,416.8c-10.8,0-22.9-8.9-22.9-33.2c0-11.7,1.9-28.1,18.2-38.4c6.5-4.2,11.2-5.6,29-10.3v67.8
		C2388.6,408.4,2380.6,416.8,2368.9,416.8 M2430.7,363.5v-43.1V318c0.5-30.7,0.5-44.8-5.7-59.5c-12.3-27.8-39.2-27.8-48.1-27.8
		c-17,0-35.4,4.7-49.1,12.7l-0.9,0.5l-1.9,3.8l-0.5,4.7c-0.5,10.9-0.5,13.7-1.4,25v2.4l5.6,4.2l1.9-1.4c6-5.1,16.7-14.4,37.2-14.4
		c22.8,0,24.6,13,25.1,35.8l-11.6,2.8c-23.2,5.6-71.6,17.7-71.6,80.9c0,38.6,20,65.5,48.8,65.5c16.7,0,27.9-7.4,34.9-13.9v8l4.2,0.5
		h1.9c12.2,3.3,14,3.3,27.6,4.7h1.4l2.3-6.1v-1.4c-2.3-28.1-2.3-45.4-2.3-83.3"/>
	<path class="st0" d="M2500.9,222.2c0-37.4,4.7-78.1,4.7-78.1v-2.3l-5.6-4.7l-6.1,1.4c-9.8,2.3-27.1,5.1-27.1,5.1h-1.4l-1.9,4.7v0.9
		c0,14.5,0.5,25.3,1.4,56.1c0.9,47.7-1.4,142.7-1.4,142.7v95.9v0.9l5.1,2.8h1.9c14,0.5,18.2,0.5,30.9,4.7h1.4l2.8-8.4v-1.4
		c-3.3-65-3.3-218.9-3.3-220.3"/>
	<path class="st0" d="M2593.5,416.8c-10.8,0-22.9-8.9-22.9-33.2c0-11.7,1.9-28.1,18.2-38.4c6.5-4.2,11.2-5.6,29-10.3v67.8
		C2612.6,408.4,2605.2,416.8,2593.5,416.8 M2655.2,443.9c-2.8-27.1-4.7-82.3-4.7-82.3v-41.2V318c0.5-30.7,0.5-44.8-5.7-59.5
		c-12.3-27.8-39.2-27.8-48.1-27.8c-17,0-35.4,4.7-49.1,12.7l-0.9,0.5l-1.9,3.8l-0.5,4.7c-0.5,10.9-0.5,13.7-1.4,25v-2.4l5.9,4.2
		l2-1.4c6.4-5.1,17.8-14.5,39.7-14.5c24.3,0,26.3,13.1,26.8,36l-12.4,2.8c-24.8,5.6-76.3,17.8-76.3,81.4c0,38.8,21.3,66,52,66
		c17.8,0,29.7-7.5,37.2-14v7.5l4,4.7h-0.2c0,0,14,3.3,27.6,4.7h1.4l4.7-6.1V443.9z"/>
	<path class="st0" d="M1125.6,328.4L1125.6,328.4c0,4.2,0,8,0,11.7v64.1c-7,8.9-14.5,13.1-22.9,13.1c-9.4,0-16.4-5.1-22.5-15.4
		c-6.5-12.2-9.8-29.5-9.8-52.4s3.7-63.1,28.5-74.8c1.9-0.9,7-3.3,18.7-3.3c3.3,0,5.6,0,8,0.5L1125.6,328.4L1125.6,328.4z
		 M1163,419.6v-50.1c0,0,1.4-55.7,0-78.6v-7l0,0c0.9-13.6,1.4-28.1,0-44V239l-0.9-6.5h-3.5c-9.4,0.9-15.5,0.9-23.5,0.9
		c-23.5,0-47.6,0-66.9,14c-33.9,23.9-38.6,74.8-38.6,103.4c0,46.3,13.7,80.5,37.7,94c8.9,5.1,18.4,6.5,25,6.5
		c15.5,0,26.4-7,32.5-12.6l0.9-0.5c0,2.3,0,4.2,0,6.5c0,43.5-3.3,50.5-15.5,51.9c-5.2,0.9-9.9,0.5-14.1,0.5
		c-17-0.9-26.8-8.9-32.5-14l-1.9-1.4l-6.1,3.3v3.7c0.5,9.4,0.9,13.6,0.9,20.1l0.9,10.3l2.8,4.2c2.3,1.9,6.5,4.7,14,7
		c10.8,4.2,22.9,4.7,29,4.7c2.8,0,6.1,0,9.4-0.5c9.8-0.5,30.9-2.3,42.6-27.6c8.4-18.2,8.4-37.4,8-88.4"/>
	<path class="st1" d="M531.5,513.2V91.2c0,0,0.5-17.8-17.8-17.8H341.3c0,0,17.2,17.8,17.2,54.7v13.6c89.1,8,112.3,61.7,112.3,109.9
		v123.8c0,81.1-69,117.9-69,117.9S368.7,476.1,358,464c-14,15.8-49.4,51.2-60.6,51.2c-11.2,0-45.2-35.4-58.7-51.2
		c-9.8,11.6-43.3,28.9-43.3,28.9S124.6,456,124.6,374V251.7c0-49.1,22.9-99.2,102.9-108.1c0,0-8.4-36-57.5-36
		c-50.5,0-106.2,41.2-106.2,126.8V516c0,0,0.5,20.6,20.6,20.6h423.8c26.2,0.5,24.3-23.4,24.3-23.4 M395.9,308.8v79.7
		c0,32.3-35.2,56.7-12.2,56.7c23.5,0,45-45.9,45-67.4c0-8.8,0-130,0-139.8c0-31.8-21.5-67.4-45-67.4c-30.8,0,12.2,16.6,12.2,48.9
		V308.8L395.9,308.8z M297.7,458.4c15.3,0,56.1-57.5,56.1-86.1V213.8c0-6.5-12.5-37.4-37.1-37.4h-38c-25.5,0-37.1,30.4-37.1,37.4
		v158.6C241.5,400.9,283.3,458.4,297.7,458.4 M171.4,237.2v140.5c0,21,21.5,67.4,45,67.4c25.4,0-12.2-23.9-12.2-56.7v-79.7v-89.4
		c0-32.3,43.5-48.9,12.2-48.9c-23.5,0.5-45,32.3-45,67.4 M167.2,62.7c102.4,0,109.5,80.9,109.5,80.9h40.8
		c0-56.1-36.3-116.9-132-116.9V22h348.5C561,22,583,44,583,71.1v465c0,28.7-23.2,51.9-51.9,51.9H67.5C35.7,588,17,569.3,17,536.1
		V227.8c0.9-44,20.6-165.6,152.5-165.6"/>
	<rect x="-549" y="-544" class="st2" width="3770.2" height="1698"/>
</g>
</svg>
