<?xml version="1.0" encoding="UTF-8"?>
<svg id="Layer_1" data-name="Layer 1" xmlns="http://www.w3.org/2000/svg" viewBox="0 0 740.81 154.6">
  <defs>
    <style>
      .cls-1 {
        fill: #fff;
      }
    </style>
  </defs>
  <g>
    <path class="cls-1" d="M464.69,130.91v-53.68h-10.9v-8.17h10.9v-1.89c0-3.32.52-6.26,1.56-8.83,1.04-2.57,2.54-4.74,4.5-6.49,1.95-1.75,4.34-3.08,7.14-3.97,2.81-.9,5.97-1.34,9.5-1.34,2.72,0,5.42.32,8.1.97l-.64,8.57c-.89-.15-1.9-.28-3.03-.37-1.13-.09-2.24-.14-3.35-.14-3.83,0-6.78,1-8.86,3-2.08,2-3.12,4.87-3.12,8.6v1.89h11.64v8.17h-11.64v53.68h-11.8Z"/>
    <path class="cls-1" d="M261.65,110.37c0-1.94-.33-3.66-.99-5.15-.66-1.49-1.83-2.85-3.51-4.09-1.68-1.24-3.94-2.4-6.79-3.49-2.85-1.09-6.46-2.2-10.84-3.34-4.59-1.18-8.75-2.52-12.47-4.03s-6.89-3.24-9.5-5.2c-2.61-1.96-4.62-4.2-6.03-6.72-1.4-2.52-2.1-5.39-2.1-8.63s.76-6.24,2.26-9c1.51-2.76,3.65-5.16,6.41-7.2,2.76-2.04,6.08-3.63,9.95-4.77,3.87-1.14,8.18-1.72,12.94-1.72,5.23,0,9.88.71,13.96,2.12,4.08,1.41,7.51,3.28,10.3,5.6,2.78,2.32,4.9,5.01,6.34,8.06,1.45,3.05,2.17,6.19,2.17,9.43h-12.31c0-2.32-.41-4.48-1.24-6.46-.83-1.98-2.09-3.7-3.79-5.15-1.7-1.45-3.83-2.57-6.38-3.37-2.55-.8-5.57-1.2-9.05-1.2-3.27,0-6.12.34-8.55,1.03-2.42.69-4.42,1.63-5.99,2.83-1.57,1.2-2.74,2.62-3.51,4.26-.77,1.64-1.15,3.43-1.15,5.37,0,1.75.41,3.35,1.24,4.8.83,1.45,2.11,2.78,3.86,4,1.74,1.22,3.99,2.34,6.73,3.37,2.74,1.03,6.03,2.02,9.85,2.97,5.27,1.33,9.82,2.81,13.65,4.43,3.83,1.62,6.98,3.46,9.47,5.52,2.49,2.06,4.34,4.36,5.55,6.92,1.21,2.55,1.82,5.45,1.82,8.69s-.77,6.46-2.3,9.2c-1.53,2.74-3.71,5.09-6.53,7.03-2.83,1.94-6.23,3.44-10.2,4.49-3.98,1.05-8.41,1.57-13.3,1.57-2.85,0-5.7-.24-8.55-.71s-5.58-1.19-8.19-2.14c-2.61-.95-5.04-2.13-7.27-3.54-2.23-1.41-4.18-3.05-5.83-4.92-1.66-1.87-2.96-3.96-3.89-6.29-.94-2.32-1.4-4.88-1.4-7.66h12.31c0,2.86.63,5.31,1.88,7.35,1.25,2.04,2.93,3.73,5.04,5.06,2.1,1.33,4.53,2.31,7.27,2.94,2.74.63,5.62.94,8.64.94,6.46,0,11.41-1.18,14.86-3.54,3.44-2.36,5.17-5.58,5.17-9.66Z"/>
    <path class="cls-1" d="M310.24,123.92c2.08,0,4.08-.3,6-.91,1.91-.61,3.6-1.45,5.07-2.52,1.47-1.07,2.66-2.33,3.57-3.8.91-1.47,1.46-3.06,1.63-4.77h11.16c-.17,2.74-1.01,5.37-2.52,7.86-1.51,2.5-3.5,4.69-5.96,6.57-2.47,1.89-5.32,3.39-8.58,4.52-3.25,1.12-6.71,1.69-10.36,1.69-5.19,0-9.7-.83-13.55-2.49s-7.05-3.9-9.6-6.72c-2.55-2.82-4.45-6.1-5.71-9.83-1.26-3.73-1.88-7.68-1.88-11.83v-2.4c0-4.15.63-8.1,1.88-11.83,1.25-3.73,3.16-7.01,5.71-9.83,2.55-2.82,5.74-5.06,9.56-6.72,3.83-1.66,8.33-2.49,13.52-2.49,4.04,0,7.7.57,11,1.72,3.29,1.14,6.14,2.72,8.54,4.72s4.28,4.37,5.64,7.12c1.36,2.74,2.13,5.7,2.3,8.86h-11.16c-.17-1.9-.67-3.69-1.5-5.34s-1.94-3.11-3.35-4.34c-1.4-1.24-3.07-2.22-5.01-2.94-1.94-.72-4.09-1.09-6.47-1.09-3.66,0-6.69.65-9.09,1.94-2.4,1.3-4.34,3-5.8,5.12-1.47,2.12-2.5,4.5-3.09,7.15-.6,2.65-.89,5.31-.89,7.97v2.4c0,2.74.3,5.44.89,8.09.6,2.65,1.62,5.02,3.06,7.12,1.45,2.1,3.38,3.79,5.8,5.09,2.42,1.3,5.48,1.94,9.18,1.94Z"/>
    <path class="cls-1" d="M381.78,122.43h44v8.98h-56.31V47.03h12.31v75.4Z"/>
    <path class="cls-1" d="M520.59,132.05c-4.8,0-9.15-.74-13.04-2.23-3.89-1.49-7.22-3.55-9.98-6.2-2.76-2.65-4.89-5.8-6.38-9.46-1.49-3.66-2.23-7.66-2.23-12.01v-2.4c0-5.03.84-9.53,2.52-13.49,1.68-3.96,3.92-7.3,6.73-10s6.01-4.77,9.63-6.2c3.61-1.43,7.37-2.14,11.29-2.14,4.93,0,9.18.77,12.75,2.32,3.57,1.54,6.51,3.67,8.83,6.37,2.32,2.71,4.03,5.91,5.13,9.6,1.1,3.7,1.66,7.72,1.66,12.06v4.75h-46.74c.09,2.86.61,5.53,1.56,8,.96,2.48,2.32,4.63,4.08,6.46,1.76,1.83,3.89,3.28,6.38,4.34,2.49,1.07,5.3,1.6,8.45,1.6,4.17,0,7.69-.76,10.59-2.29,2.89-1.52,5.42-3.54,7.59-6.06l7.21,5.03c-1.11,1.52-2.45,3-4.02,4.43-1.57,1.43-3.41,2.71-5.52,3.83-2.1,1.12-4.52,2.02-7.24,2.69-2.72.67-5.8,1-9.25,1ZM519.12,76.6c-2.38,0-4.57.39-6.57,1.17-2,.78-3.78,1.91-5.36,3.4-1.57,1.49-2.88,3.34-3.92,5.55-1.04,2.21-1.75,4.75-2.14,7.6h34.56v-.8c-.13-2.06-.5-4.1-1.12-6.12-.62-2.02-1.57-3.83-2.87-5.43-1.3-1.6-2.96-2.9-5.01-3.89-2.04-.99-4.57-1.49-7.59-1.49Z"/>
    <path class="cls-1" d="M568.08,121.93h44v8.98h-56.31V46.53h12.31v75.4Z"/>
    <path class="cls-1" d="M660.63,130.91c-.43-.76-.77-1.72-1.02-2.89-.25-1.16-.47-2.37-.64-3.63-1.11,1.03-2.35,2.01-3.73,2.94-1.38.93-2.89,1.75-4.53,2.46-1.64.71-3.41,1.26-5.32,1.66-1.91.4-3.93.6-6.06.6-3.53,0-6.73-.48-9.6-1.43-2.87-.95-5.32-2.25-7.33-3.89-2.02-1.64-3.58-3.57-4.69-5.8-1.11-2.23-1.66-4.62-1.66-7.17,0-3.32.72-6.24,2.17-8.78,1.45-2.53,3.52-4.66,6.22-6.37,2.7-1.72,5.96-3.01,9.79-3.89,3.83-.88,8.1-1.31,12.82-1.31h11.73v-4.86c0-3.7-1.23-6.64-3.7-8.83-2.47-2.19-6.1-3.29-10.9-3.29-2.21,0-4.23.27-6.06.8-1.83.53-3.39,1.25-4.69,2.14-1.3.9-2.31,1.94-3.03,3.12-.72,1.18-1.08,2.42-1.08,3.72h-11.86c0-2.21.65-4.4,1.94-6.57,1.3-2.17,3.13-4.13,5.52-5.86,2.38-1.73,5.26-3.14,8.64-4.23,3.38-1.09,7.15-1.63,11.32-1.63,3.74,0,7.19.43,10.36,1.29,3.17.86,5.88,2.15,8.13,3.89,2.25,1.73,4.02,3.9,5.29,6.49,1.28,2.59,1.91,5.62,1.91,9.09v28.76c0,2.1.2,4.3.61,6.6.4,2.31,1.01,4.3,1.82,5.97v.91h-12.37ZM641.06,122.85c2.13,0,4.12-.27,5.99-.8,1.87-.53,3.57-1.23,5.1-2.09,1.53-.86,2.86-1.84,3.98-2.94,1.13-1.1,2.01-2.25,2.65-3.43v-12.69h-9.82c-6.76,0-11.97.94-15.62,2.83-3.66,1.89-5.48,4.74-5.48,8.55,0,1.49.28,2.88.83,4.17.55,1.3,1.39,2.41,2.52,3.34,1.13.93,2.51,1.68,4.14,2.23,1.64.55,3.54.83,5.71.83Z"/>
    <path class="cls-1" d="M739.77,100.67c0,4.54-.6,8.72-1.79,12.55-1.19,3.83-2.93,7.15-5.23,9.95-2.3,2.8-5.1,4.98-8.42,6.55s-7.1,2.34-11.35,2.34c-4.55,0-8.48-.71-11.8-2.14-3.32-1.43-6.12-3.48-8.42-6.15l-.57,7.15h-10.84V46.53h11.8v29.33c2.3-2.55,5.06-4.52,8.29-5.89,3.23-1.37,7.04-2.06,11.41-2.06s8.17.76,11.51,2.29c3.34,1.52,6.14,3.67,8.42,6.43,2.27,2.76,4.01,6.08,5.2,9.95,1.19,3.87,1.79,8.17,1.79,12.89v1.2ZM727.97,99.47c0-3.09-.32-5.99-.96-8.72-.64-2.72-1.67-5.12-3.09-7.17s-3.28-3.69-5.58-4.89-5.1-1.8-8.42-1.8c-2.17,0-4.12.25-5.87.74-1.74.5-3.31,1.18-4.69,2.06-1.38.88-2.58,1.91-3.6,3.09-1.02,1.18-1.89,2.46-2.61,3.83v26.75c.77,1.37,1.67,2.65,2.71,3.83,1.04,1.18,2.25,2.21,3.64,3.09,1.38.88,2.94,1.56,4.69,2.06,1.74.5,3.7.74,5.87.74,3.19,0,5.91-.59,8.16-1.77,2.25-1.18,4.1-2.78,5.55-4.8,1.45-2.02,2.51-4.39,3.19-7.12.68-2.72,1.02-5.63,1.02-8.72v-1.2Z"/>
    <g>
      <path class="cls-1" d="M358.58,131.41h-11.8v-61.86h11.8v61.86Z"/>
      <circle class="cls-1" cx="352.67" cy="53.97" r="6.94"/>
    </g>
    <g>
      <circle class="cls-1" cx="440.22" cy="53.47" r="6.94"/>
      <path class="cls-1" d="M446.12,130.91h-11.8v-61.86h11.8v61.86Z"/>
    </g>
  </g>
  <g>
    <path class="cls-1" d="M102.15,90.78c1.2-2.62,1.8-5.43,1.76-8.25-.02-1.88-.32-3.77-.91-5.62,0,0,0,0,0,0-.05-.15-.1-.3-.15-.44l-.05-.15c-.03-.09-.06-.18-.1-.27-.02-.04-.03-.08-.05-.12-1.14-3.66-3.86-6.98-7.01-10.82-3.85-4.7-8.22-10.04-10.48-17.21-2.21-6.99-1.68-13.48-1.22-19.2.4-4.9.77-9.53-.57-13.79,0,0,0-.01,0-.02,0-.03-.02-.07-.03-.1-.03-.09-.05-.19-.08-.28l-.04-.15c-.04-.15-.09-.3-.14-.46-.1-.31-.21-.62-.32-.93-.02-.05-.04-.09-.05-.13-.1-.26-.2-.53-.31-.78,0-.01,0-.02-.01-.03-1.76-4.07-4.83-7.38-8.81-9.45-3.99-2.08-8.48-2.69-12.83-1.78,0,0,0,0,0,0-.28.06-.57.13-.85.2-.04,0-.08.02-.12.03-.32.08-.63.17-.95.27-4.92,1.56-8.95,4.93-11.33,9.52-.3.57-.57,1.16-.8,1.75-.95,2.36-1.42,4.86-1.39,7.37.02,1.88.32,3.77.91,5.62,0,0,0,0,0,.01.05.15.1.29.14.44l.05.15s.02.06.03.08c.02.04.03.09.05.13.01.03.02.06.03.09l.03.09c1.14,3.64,3.85,6.96,6.99,10.8,3.86,4.71,8.23,10.05,10.5,17.24,2.28,7.2,1.77,14.13,1.32,20.23-.36,4.93-.68,9.19.47,12.76,0,0,0,.01,0,.02,0,.04.02.07.03.11.03.09.05.19.08.28l.04.15c.04.15.09.3.14.46.08.26.17.51.26.76,2.82,7.8,10.23,12.75,18.19,12.75,1.92,0,3.88-.29,5.81-.9,4.92-1.56,8.95-4.93,11.33-9.52.15-.29.29-.58.42-.87Z"/>
    <path class="cls-1" d="M160.17,42.18c-3.29-5.16-8.4-8.73-14.38-10.06-12.34-2.73-24.6,5.09-27.33,17.43-.04.18-.08.37-.11.55l-.03.19c-.02.13-.05.25-.07.38h0s0,.07-.01.1c0,0,0,.01,0,.02-.99,4.41-.17,9.44.78,15.26,1.17,7.16,2.5,15.27.56,24.04-1.94,8.79-6.59,15.63-10.69,21.67-3.3,4.86-6.15,9.05-7.1,13.4,0,0,0,.02,0,.03-.01.04-.02.08-.03.12-.03.11-.06.23-.09.34l-.05.18c-.05.18-.09.37-.13.55-1.32,5.98-.24,12.11,3.05,17.28,3.29,5.16,8.4,8.73,14.38,10.06,1.66.37,3.33.55,5,.55,4.32,0,8.55-1.23,12.28-3.6,1.29-.82,2.48-1.76,3.56-2.79,3.24-3.11,5.5-7.1,6.49-11.58,0,0,0,0,0,0,.04-.18.08-.36.11-.54l.03-.19c.02-.13.05-.25.07-.38h0s0-.08.02-.11c0,0,0,0,0,0,1-4.43.17-9.46-.78-15.29-1.17-7.15-2.5-15.25-.56-24.01,1.89-8.53,6.3-14.91,10.19-20.54,3.32-4.81,6.46-9.35,7.61-14.52,0-.01,0-.02.01-.04.01-.04.02-.07.03-.11.03-.11.06-.23.09-.34l.05-.18c.05-.18.09-.37.13-.55,1.32-5.98.24-12.11-3.05-17.28Z"/>
    <path class="cls-1" d="M31.19,50.33c-4.89-2.54-10.47-3.03-15.72-1.37-5.25,1.66-9.54,5.26-12.08,10.15-2.54,4.89-3.03,10.47-1.37,15.72,1.66,5.25,5.26,9.54,10.15,12.08,2.98,1.55,6.22,2.34,9.49,2.34,2.09,0,4.19-.32,6.23-.97,5.25-1.66,9.54-5.26,12.08-10.15,2.54-4.89,3.03-10.47,1.37-15.72-1.66-5.25-5.26-9.54-10.15-12.08Z"/>
  </g>
</svg>