<?xml version="1.0" encoding="UTF-8"?>
<svg id="Layer_1" data-name="Layer 1" xmlns="http://www.w3.org/2000/svg" viewBox="0 0 740.81 137.04">
  <defs>
    <style>
      .cls-1 {
        fill: #036;
      }

      .cls-2 {
        fill: #fc0;
      }
    </style>
  </defs>
  <path class="cls-1" d="M226.58,82.34c-4.32-1.85-9.01-2.96-13.7-2.96s-10.62,1.98-10.62,9.38c0,11.73,29.51,6.79,29.51,29.38,0,14.82-11.73,20.37-25.31,20.25-7.28,0-10.62-.99-17.28-2.59l1.23-12.1c4.69,2.47,9.88,4.2,15.19,4.2s11.98-2.59,11.98-8.64c0-12.84-29.51-7.53-29.51-29.88,0-15.06,11.73-20.5,23.58-20.5,5.8,0,11.24.74,16.05,2.47l-1.11,10.99"/>
  <polyline class="cls-1" points="241.52 64.56 254.49 64.69 254.36 107.16 254.61 107.16 270.04 87.28 285.35 87.4 266.71 109.5 287.58 137.04 271.15 137.04 254.61 112.84 254.36 112.84 254.36 137.04 241.4 136.91 241.52 64.56"/>
  <path class="cls-1" d="M295.97,100.74c4.32-3.21,9.88-5.43,15.31-5.43,7.65,0,11.24,2.72,11.11,10.74h-7.16c-5.43,0-11.73.49-16.67,2.84-4.94,2.47-8.52,6.79-8.52,14.2,0,9.51,8.52,14.82,17.28,14.82,5.93,0,12.35-3.09,15.31-8.52h.25c.12,1.48.12,4.82.62,7.41h11.36c-.25-3.83-.49-7.28-.62-11.11-.12-3.7-.12-7.41-.12-12.47v-6.42c0-14.69-6.17-20.99-21.36-20.99-5.56,0-12.22,1.36-17.28,3.7l.49,11.24ZM302.51,122.47c0-7.65,8.64-8.52,14.32-8.52h5.56c0,3.83-.62,7.41-2.72,10.25-1.98,2.72-5.06,4.44-9.14,4.44-4.44-.12-8.03-1.98-8.03-6.17"/>
  <path class="cls-1" d="M349.06,96.79h-9.51v-9.38h9.51v-10l12.96-4.07v14.07h11.48v9.51h-11.48v23.09c0,4.2,1.11,8.15,6.05,8.15,2.35,0,4.57-.49,5.93-1.36l.37,10.25c-2.72.74-5.68,1.11-9.51,1.11-10.12,0-15.68-6.3-15.68-16.17l-.12-25.19"/>
  <path class="cls-1" d="M387.33,96.79h-9.51v-9.51h9.51v-9.88l12.96-4.2v14.07h11.48v9.51h-11.48v23.09c0,4.2,1.11,8.15,6.05,8.27,2.35,0,4.57-.49,5.93-1.36l.37,10.25c-2.72.74-5.68,1.11-9.51,1.11-10.12,0-15.68-6.3-15.68-16.17l-.12-25.19"/>
  <path class="cls-1" d="M460.43,123.82c-4.82,2.72-10.25,4.94-16.54,4.94-8.03,0-13.58-4.57-14.2-12.59l34.32.12c0-17.41-5.19-30-23.58-30-15.43,0-23.09,11.85-23.09,26.17,0,16.3,9.51,25.8,25.93,25.8,6.91,0,12.35-1.36,17.04-3.95l.12-10.49ZM429.68,107.4c.62-6.67,4.32-11.61,11.48-11.61s10.12,5.43,10.49,11.73l-21.98-.12"/>
  <polyline class="cls-1" points="465.98 87.28 479.81 87.4 492.16 123.58 492.4 123.58 504.38 87.4 517.34 87.4 498.95 137.04 484.38 137.04 465.98 87.28"/>
  <path class="cls-1" d="M562.16,123.82c-4.82,2.72-10.25,4.94-16.54,4.94-8.03,0-13.58-4.57-14.2-12.59l34.32.12c0-17.41-5.19-30-23.58-30-15.43,0-23.09,11.85-23.09,26.17,0,16.3,9.51,25.8,25.93,25.8,6.91,0,12.35-1.36,17.04-3.95l.12-10.49ZM531.42,107.4c.62-6.67,4.32-11.61,11.48-11.61s10.12,5.43,10.49,11.73l-21.98-.12"/>
  <path class="cls-1" d="M574.14,87.53h11.48v11.24h.12c.62-4.57,5.93-12.47,13.58-12.47,1.23,0,2.59,0,3.95.37v12.96c-1.11-.62-3.46-1.11-5.8-1.11-10.49,0-10.49,13.09-10.49,20.25v18.27h-12.96l.12-49.51"/>
  <polyline class="cls-1" points="610.43 64.44 623.4 64.44 623.27 106.91 623.52 106.91 638.95 87.16 654.26 87.16 635.62 109.26 656.49 136.79 640.07 136.79 623.52 112.71 623.27 112.71 623.27 136.79 610.31 136.79 610.43 64.44"/>
  <path class="cls-1" d="M700.19,124.07c-4.82,2.72-10.25,4.94-16.54,4.94-8.03,0-13.58-4.57-14.2-12.59h34.32c0-17.41-5.19-30-23.58-30-15.43,0-23.09,11.85-23.09,26.17,0,16.3,9.51,25.8,25.93,25.8,6.91,0,12.35-1.36,17.04-3.95l.12-10.37ZM669.57,107.65c.62-6.67,4.2-11.73,11.48-11.61,7.28,0,10.12,5.43,10.49,11.73l-21.98-.12"/>
  <path class="cls-1" d="M715.5,97.16h-9.51v-9.51h9.51v-10l12.96-4.07v14.2h11.48v9.51h-11.48v23.09c0,4.2,1.11,8.15,6.05,8.15,2.35,0,4.57-.49,5.93-1.36l.37,10.25c-2.72.74-5.68,1.11-9.51,1.11-10.12,0-15.68-6.3-15.68-16.17l-.12-25.19"/>
  <path class="cls-2" d="M88.8,74.93c16.67,4.94,30.74,18.15,34.32,36.05,1.61,8.4.37,17.53-2.84,25.8h-14.45c3.46-5.93,6.05-12.35,6.67-19.26,1.11-12.22-3.33-26.54-13.58-34.45-3.21-2.59-6.67-4.82-10.62-6.54l.49-1.61"/>
  <path class="cls-1" d="M133.37,136.79c5.43-15.68,3.09-33.58-8.77-46.55-7.78-8.77-18.77-14.32-30-17.53l.37-1.73c24.32,5.68,48.77,20.74,52.72,47.53.99,6.05.74,12.35-.86,18.27h-13.46"/>
  <path class="cls-1" d="M83.24,78.64c4.2,2.22,8.03,5.43,11.11,9.38,9.01,12.72,7.53,26.17,4.69,34.45-2.84,9.38-8.03,14.32-8.03,14.32h-18.52c12.22-7.9,19.75-20.5,20.5-35.31.12-7.65-3.46-17.16-10.37-21.48l.62-1.36"/>
  <path class="cls-2" d="M59.54,81.97c-3.95-16.91.37-35.68,14.07-47.66,6.42-5.56,15.06-9.14,23.83-10.49l7.16,12.59c-6.91,0-13.7.99-20,3.83-11.11,5.06-21.36,16.05-23.09,29.01-.62,4.07-.86,8.15-.37,12.47l-1.61.25"/>
  <path class="cls-1" d="M90.77,12.46c-16.42,3.09-30.62,13.95-35.8,30.74-3.7,11.11-3.09,23.33-.25,34.69l-1.73.62c-7.28-23.95-6.3-52.6,14.82-69.39,4.69-3.83,10.25-6.79,16.17-8.4l6.79,11.73"/>
  <g>
    <path class="cls-1" d="M65.46,84.93c-.12-4.82.62-9.63,2.59-14.32,6.54-14.2,19.01-19.51,27.53-21.24,9.51-2.22,16.54-.25,16.54-.25l9.14,16.05c-12.96-6.67-27.66-6.79-40.74-.25-6.79,3.7-13.21,11.61-13.46,19.75l-1.61.25"/>
    <path class="cls-1" d="M6.57,111.97c11.11,12.47,27.78,19.01,44.82,14.82,11.36-2.47,21.61-9.51,29.75-17.66l1.36,1.11c-16.79,18.52-41.73,32.59-67.16,23.09-5.68-2.1-11.11-5.31-15.43-9.51l6.67-11.85"/>
  </g>
  <path class="cls-1" d="M81.76,96.29c-4.07,2.59-8.52,4.44-13.58,5.19-15.56,1.73-26.54-6.17-32.35-12.59-6.79-7.04-8.77-14.07-8.77-14.07l9.01-16.17c.99,14.57,8.4,27.16,20.87,35.06,6.67,3.83,16.67,5.31,23.83,1.36l.99,1.23"/>
  <path class="cls-2" d="M82.01,103.58c-12.59,11.98-30.87,17.78-48.27,12.1-8.15-2.72-15.43-8.27-21.11-15.19l7.16-12.59c3.46,5.93,7.78,11.36,13.46,15.31,10,7.04,24.69,10.12,36.67,5.06,3.83-1.61,7.53-3.33,10.86-5.93l1.23,1.23"/>
</svg>