<?xml version="1.0" encoding="UTF-8"?>
<svg id="Layer_1" data-name="Layer 1" xmlns="http://www.w3.org/2000/svg" viewBox="0 0 740.81 221.47">
  <defs>
    <style>
      .cls-1 {
        fill: #b52e75;
      }
    </style>
  </defs>
  <g>
    <path class="cls-1" d="M271.64,56.21h20.18c-.12.66.23,2.43-.05,2.77-.24.29-5.56.97-6.52.99v17.82h26.74v-17.82c-.95-.01-6.28-.7-6.52-.99-.29-.34.08-2.1-.05-2.77h20.17c-.13.66.24,2.42-.05,2.77-.25.3-5.56.95-6.51.99l-.03,40.12.33.7c1.03.55,6.04.7,6.26.92.17.16-.1,2.22,0,2.81h-20.17c.1-.58-.15-2.67,0-2.82.24-.23,5.56-.38,6.57-.94v-19.7h-26.74v19.7c.98.44,6.33.71,6.56.94.16.16-.09,2.22,0,2.81h-20.18v-2.82c1.49-.23,5.14-.3,6.27-.91.37-.2.4-.3.33-.7l-.03-40.12-6.56-.94v-2.81Z"/>
    <path class="cls-1" d="M740.81,59.03l-6.57.94v45.02c-1.44-.09-3.15.46-4.25-.68l-35.16-38.72v35.17c2.65.93,7.96-.34,7.04,3.75h-18.3c-.91-4.38,4.55-2.42,7.07-4.04l-.02-39.34c-.12-1.92-6.53-1.6-7.02-2.13-.28-.3-.16-2.43.75-2.73.85-.28,9.93-.26,11.22-.09.52.07,1.02.04,1.42.46l33.04,36.61v-33.3c-.95-.01-6.28-.7-6.52-.99-.28-.34.07-2.11-.05-2.77h17.36v2.82Z"/>
    <path class="cls-1" d="M502,178.61c-2.31.25-7.57.27-9.85,0-28.91-3.47-27.52-49.56,3.03-50.2,34.52-.73,35.53,47.13,6.83,50.2ZM494.41,131.37c-21.16,1.26-19.55,38.23-2.16,43.62,29.68,9.2,29.44-45.24,2.16-43.62Z"/>
    <path class="cls-1" d="M393.63,178.61c-1.94-1.1-6.81-1.51-8.19-3.31-1.14-1.5-.65-5.29-.73-7.24-.1-2.52-2.04-5.44,2.35-4.93.47,6.75,2.12,11.31,9.36,12.45,6.87,1.08,13.75-2.36,12.11-10.23-1.52-7.35-17.41-8.19-21.41-17.05-4.78-10.6,2.78-19.79,13.77-19.91,3.52-.04,7.03,1.53,10.57,1.44l.94,11.26c-3.81.6-2.47-.83-3.67-3.6-4.67-10.69-19.94-4.87-15.79,5.93,3.55,9.25,21.75,7.82,22.3,19.93.25,5.55-2.48,11.11-7.51,13.63l-5.18,1.62h-8.91Z"/>
    <path class="cls-1" d="M576.13,177.67c.04-.76-.27-2.09.45-2.6,1.17-.83,5.96-.09,6.15-1.84l-.04-40.11c-.96-.04-6.26-.69-6.51-.99-.28-.34.07-2.11-.05-2.77,8.33.31,16.81-.41,25.13-.02,16.58.77,29.02,6.18,27.89,25.11-.73,12.2-10.45,23.22-23.22,23.22h-29.79ZM604.05,132.65c-4.43-.53-9.77.39-14.31,0v40.8c11.41,2.45,26.12,2.58,30.51-10.53,4.38-13.07-1.28-28.49-16.2-30.27Z"/>
    <path class="cls-1" d="M502.47,56.21c-.13.66.24,2.42-.05,2.77-.24.29-5.57.97-6.52.99v19.7c1.73.14,3.3,0,4.47-1.39l11.94-17.61c.15-1.02-.15-.55-.68-.71-2.89-.86-5.84.3-4.95-3.74h17.83c-.12.62.2,2.55-.02,2.79-.41.43-6.6.42-7.5,1.64l-12.18,18.32c3.93,4.78,7.83,9.69,11.96,14.3,2.07,2.31,5.94,7.25,8.67,8.21,2.07.73,3.77-.68,3.3,3.03h-20.17c-.9-3.98,3.46-2.57,5.63-3.98l-14.98-17.38c-.86-.96-2.16-.68-3.31-.68v18.29c1.01.56,6.33.71,6.57.94.15.14-.1,2.23,0,2.82h-20.17c.11-.59-.16-2.64,0-2.81.23-.22,5.24-.36,6.26-.92l.33-.7-.03-40.12c-.96-.04-6.26-.69-6.51-.99-.29-.34.08-2.1-.05-2.77h20.17Z"/>
    <path class="cls-1" d="M441.48,129.37c-.13.66.24,2.43-.05,2.77-.22.26-5.62,1.14-6.52.98v19.7c1.43.03,3.3.06,4.43-.96l11.98-18.04c.16-1.01-.14-.55-.67-.71-2.89-.86-5.84.3-4.95-3.74h17.83c-.13.66.24,2.42-.05,2.77-.39.47-5.59.7-6.65,1.09-1.67.61-11.2,16.59-12.94,19.29l18.22,20.71c2.02,2.45,6.63.44,5.64,4.44h-19.71c.11-.59-.16-2.65,0-2.81.21-.2,4.59-.03,5.15-1.18l-15.21-17.61-3.08-.44v18.29c.99.68,6.33.71,6.57.94.15.14-.1,2.23,0,2.82h-20.17c.1-.58-.15-2.68,0-2.82.24-.23,5.59-.19,6.51-1l.07-40.74c-.9.15-6.3-.72-6.52-.98-.28-.34.08-2.11-.05-2.77h20.17Z"/>
    <path class="cls-1" d="M352.25,55.41c19.93-1.7,31.04,12.11,28.59,31.39-3.12,24.64-45.92,25.96-50.03-.86-2.33-15.23,5.21-29.15,21.44-30.53ZM353.19,58.22c-21.27,1.5-18.8,38.61-2.16,43.62,30.11,9.07,29.53-45.55,2.16-43.62Z"/>
    <path class="cls-1" d="M553.99,55.41c18.36-1.83,30.72,10.86,29.13,29.11-2.39,27.28-44.4,27.93-49.92,3.59-3.57-15.74,3.78-31.01,20.8-32.71ZM554.92,58.23c-21.65,1.76-18.89,41.13.54,44.2,28.71,4.54,25.4-46.32-.54-44.2Z"/>
    <path class="cls-1" d="M433.51,99.83c.16.16,3.07-.12,3.76,0-.11.62.19,2.56-.03,2.79-.29.31-7.22,1.56-8.33,1.76-13.09,2.36-30.49,1.94-38.01-10.97-5.96-10.24-4.12-25.36,5.58-32.69,10.56-7.98,24.17-5,36.25-3.49,1.79.58,1.18,7.27,1.24,9.07.07,2.32,1.76,3.8-2.35,3.52.05-10.63-14.2-12.17-22.23-10.73-22.04,3.96-17.54,38.02,3.46,42.86,4.25.98,9.69,1.29,13.61-.48v-10.32c-2.22-1.92-7.47.52-6.57-3.99h19.71c.86,4.39-3.94,2.19-6.1,3.99.23,1.24-.31,8.37,0,8.68Z"/>
    <path class="cls-1" d="M629.15,104.51c.12-.62-.2-2.56.02-2.79.34-.35,5.47-.23,5.99-1.75l17.4-44.41c.46-.6,3.8-.59,4.23.45l18.3,44.43c.85,1.03,5.91,1.04,6.13,1.26.17.17-.1,2.22,0,2.81h-20.17c.1-.58-.15-2.67,0-2.82.24-.23,5.57-.37,6.57-.94l-5.58-13.77c-.57-.74-15.09-.09-17.34-.22l-4.79,13.72c2.41,1.75,7.48-.35,6.6,4.03h-17.36ZM660.12,82.94l-7.27-17.83-6.33,17.83h13.61Z"/>
    <path class="cls-1" d="M666.21,129.37l.94,10.78c-.61-.11-2.58.19-2.8-.02-.24-.23-1.11-5.62-1.43-6.54h-15.01v17.35h12.67c.5-2.46,0-6.11,3.29-5.16-.33,4.73-.49,9.33,0,14.07-3.33.91-3.02-2.66-3.29-5.16h-12.67v18.76h18.77c.6-1.01,2.09-7.2,2.39-7.46.33-.28,2.11.07,2.77-.05l-2.35,11.72h-35.19c.1-.58-.15-2.68,0-2.82.24-.23,5.59-.19,6.51-1l.06-40.73c-.96-.04-6.26-.69-6.51-.99-.29-.34.08-2.1-.05-2.77h31.9Z"/>
    <path class="cls-1" d="M546.11,129.37c-.13.66.24,2.42-.05,2.77-.36.43-5.55.71-6.51,1.21l12.67,33.07.98-.66,11.68-31.95c.12-1.04-.09-.53-.69-.68-.95-.24-5.58-.7-5.82-.99-.76-.92-.04-2.6,1.57-2.79s13.78-.19,14.36.23c.51.36.67,2.1.38,2.55-.43.67-4.84.48-5.22,2.05-5.81,14.49-11.4,29.1-16.35,43.91-1.35.08-3.24.53-3.81-1.02l-16.73-43.67c-.38-.47-6.16-.78-6.57-1.27-.28-.34.08-2.11-.05-2.77h20.17Z"/>
    <path class="cls-1" d="M472.45,56.68l.94,11.26c-3.85.86-2.81-1.82-4.14-4.54-4.07-8.3-16.98-5.19-16.04,4.78,1.15,12.24,27.13,8.47,22.3,26.98-2.4,9.19-11.2,11.1-19.66,10.25-2.23-.23-9.66-1.94-10.13-4.41.69-1.87-1.54-10.37.27-10.97,2.49-.82,2.27,3.19,2.88,5.01,1.16,3.44,1.39,4.74,4.96,6.3,4.67,2.05,11.93,2.16,14.66-2.88,6.05-11.19-10.96-13.74-16.9-18.79-6.64-5.66-6.86-16.27.54-21.48,6.52-4.59,13.13-2.34,20.33-1.49Z"/>
    <path class="cls-1" d="M609.44,56.21c-.13.66.24,2.42-.05,2.77-.24.29-5.57.97-6.52.99v40.33h16.66c1.44-1.03,3.45-8.81,4.04-9.33.34-.29,2.1.06,2.76-.05l-2.82,13.6h-34.25c.11-.59-.16-2.64,0-2.81.23-.22,5.24-.36,6.26-.92l.33-.7-.03-40.12c-.96-.04-6.26-.69-6.51-.99-.29-.34.08-2.1-.05-2.77h20.17Z"/>
    <path class="cls-1" d="M360.32,129.37c-.13.66.24,2.42-.05,2.77-.25.3-5.56.95-6.51.99l-.04,40.11c.19,1.75,4.98,1.01,6.15,1.84.72.51.41,1.84.45,2.6h-20.64c-.91-4.38,4.55-2.42,7.07-4.04l-.02-39.34c-.23-2.03-6.36-1.39-6.99-2.15-.36-.43.04-2.77.66-2.77h19.94Z"/>
    <path class="cls-1" d="M364.39,49.03c-2.72,2.97-7.89-.3-6.17-4.06,2.4-5.26,10.07-.19,6.17,4.06Z"/>
    <path class="cls-1" d="M349.42,42.7c4.85-.62,5.63,6.92.77,7.42s-5.61-6.8-.77-7.42Z"/>
    <path class="cls-1" d="M490.15,115.84c4.78-.92,6.2,6.77,1.25,7.42s-5.49-6.6-1.25-7.42Z"/>
    <path class="cls-1" d="M502.35,115.86c4.58-.6,5.54,6.92.79,7.41-4.86.51-5.48-6.79-.79-7.41Z"/>
  </g>
  <g>
    <path class="cls-1" d="M79.07.46c-.38,11.22-7.91,28.22-19.13,32.18-.96.34-2.35.78-3.35.77-.57,0-.93.25-.85-.51.29-2.64,2.1-7.68,3.07-10.32,3.36-9.11,8.85-19.38,18.89-22.12h1.37Z"/>
    <path class="cls-1" d="M157.68.46c10.28,6.47,21.82,18.77,18.02,31.91-1.05-.02-9.59-8.4-10.82-9.77-5.17-5.82-10.27-14.09-7.89-22.14h.69Z"/>
    <path class="cls-1" d="M104.47.46c-1.01,12.62-16.92,15.67-27.12,16.81,1.41-8.47,10.42-13.36,18.05-15.41l6.32-1.4h2.75Z"/>
    <path class="cls-1" d="M89.37,73.2c.12-.11.23-.23.34-.34-.05.17-.24.23-.34.34Z"/>
    <path class="cls-1" d="M89.03,73.54c.12-.11.22-.23.34-.34-.1.1-.28.33-.34.34Z"/>
    <path class="cls-1" d="M77.7,97.56c-.41-.2-.32-.31-.34-.69.4.35.23.37.34.69Z"/>
    <path class="cls-1" d="M129.19,46.44c.25,1.09-1.01.62-1.54,1.4-.22.32-.15.97-.18,1.01-.79.8-1.05-1.23-.68-2.06.8-.11,1.58-.37,2.4-.34Z"/>
    <path class="cls-1" d="M174.11,43.74l.06,64.64c-.41,37.1-20.29,68.94-60.96,66.73-33.85-1.83-51.05-29.53-53.03-60.9l.17-70.54c37.02-8.41,76.76-8.35,113.77.07ZM126.78,46.78c-2.16.3-1.24-.22-2.96-.99-1.96-.88-3.83-1.29-5.98-.92-1.85.33-3.15,1.72-5.08,1.95l-.05,1.32c2.3-.49,1.46.74,2.04,1.23.82.69,3.47-1.86,4.82-2.11,1.09-.21,1.73,0,2.76.2.12.67-.78.15-1,.36-.35.35.37,3.87-2.95,4.11-2.51.18-2.17-1.14-3-1.65-.32-.19-.89-.03-1.26-.27-.92-.58-.58-1.95-3.02-.93-.14.06-2.34,1.72-2.42,1.85-.62,1.01.65,1.03.96,1.49.62.91-.75-.21-.7.69.12,2.1,1.87,3.32,3.93,3.23,2.87-.13,3.04-3.58,5.97.26,1.37,1.79,2.83,5.2.39,6.79s-7.41-1.25-6.85,2.59c.47.48,6-1.54,7.58.83,2.28,3.42-5.95,2.47-7.37,2.63s-3.02.76-4.16,1.68l.59.44,6.79,1.62c-3.38,1.3-7.18.02-10.48,1.36-.46.19-2.41,1.25-1.87,1.73l2.15.08,5.4,1.63c-3.76,1.03-10.55.02-12.01,4.46,2.06-.56,4.74-.52,6.73.31,1.78.74-.72.67-1.32.81-1.12.26-2.37.59-3.44,1.02-1.51.61-2.87,1.93-4.03,2.32,1.41-2.58,3.43-2.98,6.18-3.78.06-.5-1.26-.62-1.54-.61-1.27.04-2.41.64-3.6.96.24-1.2.78-2.81,1.72-3.6.37-.31.96-.35,1.15-.5.83-.63-.3-.76-.63-1.05-1.78-1.56-3.71-2.94-5.5-4.47-.71-.61-2.6-2.86-3.1-3.08-.72-.31-.54,1.19-1.03,1.72-.3.32-.79.27-.85.33.1-.34-.07-.97,0-1.37.74-.25,1.42-.68.88-1.71-.24-.46-3.21-2.41-3.87-2.68-1.25-.51-5.93-1.39-6.96-.92-1.87.84-.37,3.09-.69,4.62.39-.41,1.71-1.06,1.91-1.38.39-.6-.31-1.26-.19-1.37.76-.71,1,1.71,1.54,1.71.15,0,1.09-1.46,1.89-1.02l-.35.68c1.29.25,1.85-.27,2.75-1.03-.18,1.03.19,2.35,1.28,2.67.64.19,1.74-.24,1.81.41-.6.21-1.29-.12-1.65.92s-.06,1.35.96,1.13c-.41.38-2.1,1.81-2.03,2.18.3,1.17,3.55,3.36,3.71,3.89.4,1.33-1.25,1.66-.97,2.64.56,1.94,4.6.38,4.78.56.25,1.61-1.4,2.37-1.37,3.77,1.33.27,2.43.8,3.77.35-.29.53-.68,1.46-.86,2.05,1.04-.96,2.5-.67,3.78-.68l5.31,1.37c-5.75-.7-10.11,2.15-15.11,3.95-1.36.49-1.56-.41-1.37,1.88l-.51-1.03c-.39.55-1.55.76-1.56,1.54-.02,1.38,2.32.28,1.72,1.71-.27.64-3.19,1.81-3.77.69l2.4-.51c.24-1.02-.85-.65-1.21-1.37-.22-.44-.12-1.32-.17-1.37-.12-.13-1.58.33-2.06.35.97-1.71,4.05.52,3.44-1.83-.09-.34-.83-.32-.99-.79-.14-.41-.16-2.5.02-2.81.17-.28,1.63-.45,1.29-1.6-.21-.71-2.16,0-1.74-2.78.14-.94,1.06-.26,1.36-1.05.74-2-1.21-1.52-1.35-2.07-.09-.36-.07-1.95-.01-2.36.13-.85,1.61-.89,1.4-1.7-.19-.75-1.49.28-1.39-1.72s2.89-2.84,1.19-5.63c-1.02-1.69-5.01-1.27-6.67-.54.01.47,5.98-.64,6.46,2.14.23,1.35-1.47,2.15-2.51,2.15h-12.19l-.35,20.59c3.99-.11,8.03.15,12.02,0-.25.44-.18,1.92-1,1.33-.18-.13-.08-1.13-1.75-.65-.03,1.21.45,2-1.03,1.72,1.56-.64-.95-2.5-2.41-1.71,0,.23-.01.46,0,.68-.06-.06-1.45-.71-1.54-.69-.61.13-.23,1.44-.86,1.37.54-1.52-2.34-1.91-2.06-.86.43,1.59,1.69.88,1.7,1.03-1.04,2.14,1.91,2.3,3.44,1.89.07-.07-.24-1.77-.35-2.06.16.08,1.96.39,2.06.34-.13.66-1.73-.04-1.37.85.46,1.13,2.53,1.35,3.58,1.19.64-.09,1.16-.63,1.73-.64,1.7-.03,5.79,1.29,8.23,1.36,3.26.09,9.21-1.38,11.83.18.66.4,1.08,1.52,1.25,1.54,1.68.27,1.8-2.51,2.38-3.45,1.56,1.3,3.49,1.53,4.12,3.77,1.39-.91,2.24-1.77,1.89-3.59-.09-.46-1.35-1.81-.19-1.54,1.55.36,4.14,1.82,5.52,2.72.87.57,3.84,3.44,4.11,3.44h15.28c-3.89-5.38-9.01-9.64-13.71-14.29-.06-.33,2.18-3.11,2.57-3.2.48-.11,2.24,3.01,3.92,2.04-1.14-3.58,1.39-6.74,1.38-10.29,1.76,1.05,3.65,1.57,5.14-.17-3.56-1.19-2.72-5.78-3.43-8.75,1.07-.04,2.57.25,3.42-.53,1.08-.98-.34-.83-1.01-1.38-2.21-1.81-1.73-5.51-3.79-7.54.82,0,4.06-.85,3.77-2.05-.08-.34-1.93-.85-2.59-1.53-.22-.22-3.31-4.88-3.43-5.17-.32-.77.69-2.24-.5-4.22-.19-.31-.64-.19-.69-.24-.07-.06.38-1-1.18-.68-.65.13-.96.44-1.22,1.03ZM82.85,49.53c-.44.27-4.24-.2-5.15,0,.31,1.17,2.41,3.5,2.33,4.58-.08.99-2.08,3.13-2.33,4.35h4.98c.35,0,1.98,3.73,2.75,4.11.85-.36,2-4.11,2.23-4.11h5.49c-.45-1.05-2.34-3.34-2.4-4.31-.1-1.51,1.98-3.06,2.06-4.61-1.18-.22-3.89.37-4.8-.18-.54-.32-2.14-3.45-2.41-4.29-.49-.37-2.52,4.32-2.74,4.46ZM141.2,58.45h5.15c.21,0,1.6,3.1,1.98,3.67.13.19-.05.65.59.45.54-.17,2-4.12,2.23-4.12h5.15c-.12-1.6-2.11-3.06-2.09-4.64.01-.92,2.37-4.03,2.08-4.28-1.3-.21-3.7.37-4.81-.17-.88-.43-2-4.17-2.91-3.95-.51.12-1.64,3.49-2.58,3.95-1.11.54-3.51-.04-4.81.17-.33.29,2.29,3.77,2.35,4.34.06.64-2.75,4.22-2.35,4.58ZM144.29,92.07c-2.23-5.87-1.06-13.07,4.49-16.61,8.28-5.29,23.36-.01,21.6-15.81-.28-2.49-2.21-5.2-2.38-7.6-.11-1.53.71-2.74.66-4.24-4.1,2.52-1.91,8.01-2.03,11.84-.03.99-.8,5.18-2.08,4.28,1.69-4.24-1.12-8.65-.86-13.03-3.51,2.7.23,7.78-1.75,11.29-1.76,3.12-9.11,5.73-12.27,7.98-4.21,2.99-8.16,8.05-9.07,13.24-1.23,6.99,1.66,11.38,4.44,17.35.34.74.62,2.34.93,2.77.37.53,4.24.03,5.19.21-.54-3.98,2.06-7.31,5.25-9.33,3.3-2.09,11.38-4.26,11.92-8.68.04-.36.18-.96-.35-.86-2,3.83-7.69,3.8-11.42,5.23s-7.2,4.29-8.15,8.49l-.68-2.57c-.82-6.69,2.95-12.43,9.03-14.98,3.97-1.66,10.4-1.97,11.74-6.79-5.24,3.81-12.49,1.61-17.99,5.34-4.11,2.79-4.43,7.2-5.63,11.53-.1.35-.09,1.04-.58.96ZM120.6,48.15c-2.01.08-2.98,1.12-3.09,3.08,1.97.27,3.01-1.33,3.09-3.08ZM119.88,60.54c-.11-.13-2.83-.84-3.32-.97-4.92-1.22-8.67-.93-13.46-3.36-.7-.35-3.5-2.76-3.77-1.37-.2,1.05,1.86,3.51,2.76,4.09,2.61,1.68,8.88,1.55,12.13,1.95,1.66.21,3.62.89,5.2.99.84.05.63-1.15.47-1.34ZM73.92,66.68c-.11-.28.15-.91-.32-1.22-2.02-1.32-3.41,1.79-3.8,3.27,1.07-.47,3.42,1.26,4.12.34.21-.27-.89-1.45,0-2.39.28.75-.05.87,1.03,1.03-.23.38-.89,2.2-.69,2.4.33-.02.7.05,1.03,0-.09.23-.26.45-.35.68h3.78c.15-.9-.14-.61-.74-.78-1.49-.42-1.52-.08-2.69.1.07-.17-.07-.62,0-.68.22-.22,1.86.24,1.38-1.72-.55-.06-1.18.08-1.72,0,.34-.55,1.49-.53,2.08-.18.84.5-1.04,2.37,1.01,1.9-.29-1,.55-2.58.04-3.27-1.17-1.58-3.1-.59-4.16.53ZM73.92,69.77h-7.89l.34,7.55c1.14.32,1.24-.53,1.33-1.59.16-1.72-.51-3.22-.31-4.94h6.52v-1.03ZM66.37,80.06h4.81c.25-2.28-.05-2.36-2.22-2.42s-2.84-.18-2.59,2.42ZM67.4,80.75h-1.03v5.83h1.03v-5.83ZM70.78,87.32c-.35-.57-3.61-.35-4.42-.39v2.41s4.47,0,4.47,0c-.09-.54.18-1.63-.05-2.01ZM66.37,90.01v4.98c0,.3,1.4,1.13,1.39,0-.02-1.54-.67-3.3-.36-4.97h-1.03ZM69.8,97.56c.07.39-.21.68.22,1.06s2.88.95,3.22.65c-1.37-5.25-1.96-2.06-3.43-1.71-.05-.27.13-.72-.05-.97s-1.87-.54-2.01-.4c-.31,1.34.99,1.62,2.06,1.37ZM173.12,105.11H61.22c-1.34,31.52,13.37,64.63,47.93,68.58,30.58,3.5,52.54-12.4,60.71-41.47,2.52-8.97,3.12-17.81,3.26-27.1Z"/>
    <path class="cls-1" d="M174.15,188.83c-6.89,1.43-13.67,2.83-20.78,2.42-9.66-.56-18.81-5.16-28.65-4.13l9.5,5.08c5.79,3.39,16.02,10.6,19.27,16.42,2.18,3.89-2.58,7.41-5.07,5.41-7.33-8.76-14.49-19.27-25.58-23.49-1.34-.51-4.57-1.74-5.84-1.74-1.55,0-5.69,1.68-7.27,2.37-7.51,3.31-13.03,9.61-18.3,15.68-1.65,1.9-3.8,5.37-5.48,6.87-2.55,2.26-6.21-.73-6.16-3.46.04-2.04,7.26-8.93,9.07-10.45,4.3-3.61,9.17-6.5,14.01-9.33l6.75-3.37c-9.86-1.12-19.04,3.53-28.65,4.13-5.99.37-14.26-.6-20.03-2.32-.49-.15-.87.13-.75-.61.1-.63,3.11-2.88,3.82-3.39,13.7-9.84,29.98-7.98,45.27-3.47,1.92.57,6.48,2.67,8.06,2.6,1.75-.08,7.51-2.64,9.79-3.28,14.85-4.21,34.11-5.13,46,6.51.44.43,1.11.84,1.02,1.55Z"/>
    <path class="cls-1" d="M151.16,173.74c4.78-3.26,10-5.16,15.72-6.08,10.63-1.72,23.75-.97,32.67,5.56-.88.78-1.92,1.33-2.96,1.84-10.56,5.16-29.71,6.29-40.62,1.93-.75-.3-5.42-2.36-4.81-3.25Z"/>
    <path class="cls-1" d="M34.79,174.41c-.43-.59,2.25-2.54,2.78-2.88,10.55-6.88,32.64-5.42,43.45.42,2.86,1.54,1.73,2.09-.6,3.63-11.42,7.54-33.47,3.48-45.62-1.18Z"/>
    <path class="cls-1" d="M221.52,149.72c.41.34-2.36,2.91-2.74,3.26-11.4,10.47-28.56,14.03-43.6,11.49-.48-.44,3.45-4.37,3.94-4.81,11.13-10.16,28-11.95,42.4-9.94Z"/>
    <path class="cls-1" d="M59.5,164.47c-16.54,3.09-34.18-2.31-46.34-13.72,13.44-3.99,30.78-1.11,41.54,8.05.59.5,5.4,5.09,4.8,5.66Z"/>
    <path class="cls-1" d="M48.18,150.74c-16.24-1.94-30.49-13.6-34.67-29.5,16.49,2.23,29.23,14.14,34.67,29.5Z"/>
    <path class="cls-1" d="M220.83,120.89c-4.76,15.9-18.43,27.66-35.01,29.5,5.66-15.31,18.42-27.39,35.01-29.5Z"/>
    <path class="cls-1" d="M203.68,63.25c-8.65-12.41-11.55-29.88-5.15-43.92.77-.56,4.26,4.27,4.73,5.04,5.72,9.43,7.55,26.38,2.53,36.36-.26.53-1.53,2.92-2.11,2.51Z"/>
    <path class="cls-1" d="M33.59,20.7c.44-.1,1.23.87,1.55,1.19,8.15,8.52,2.7,31.09-2.58,40.33-.27.47-1.09,2.17-1.7,2.04-7.69-8.11-5.74-22.01-2.69-31.82.5-1.62,4.33-11.49,5.42-11.75Z"/>
    <path class="cls-1" d="M170.38,162.06c-.17-5.91.32-11.92,2.16-17.57,3.03-9.32,10.11-16.99,17.06-23.6,2.01,14.64-2.94,29.49-14.79,38.56-.61.47-3.96,3.09-4.43,2.61Z"/>
    <path class="cls-1" d="M64.31,162.06c-4.75-2.22-9.06-6.5-12.09-10.73-6.26-8.74-8.19-19.86-7.82-30.44,13.11,9.97,21.24,24.25,19.9,41.17Z"/>
    <path class="cls-1" d="M26.89,80.4c-.91.96-6.48-4.78-7.2-5.67-6.12-7.51-8.14-19.34-7.56-28.81.06-.9.65-6.24,1.21-6.35,12.79,8.83,15.59,26.34,13.55,40.83Z"/>
    <path class="cls-1" d="M220.15,39.58c2.67,8.28,2.24,17.48-.59,25.65-2.08,6.01-6.41,13.22-13.14,14.49-.66-13.19,1.4-27.54,10.63-37.58.42-.46,2.66-2.88,3.09-2.56Z"/>
    <path class="cls-1" d="M226.33,69.08c-.1,14.91-6.98,29.75-20.59,36.71.03-14.55,4.28-33.01,20.59-36.71Z"/>
    <path class="cls-1" d="M26.55,105.8c-13.63-6.96-20.46-21.79-20.59-36.71,16.33,3.74,20.49,22.14,20.59,36.71Z"/>
    <path class="cls-1" d="M32.04,125.01c-14.68-4.41-26.99-16.44-31.23-31.22,16.18,2.7,28.26,15.19,31.23,31.22Z"/>
    <path class="cls-1" d="M233.19,93.1c-2.78,9.97-9.83,19.23-18.29,25.12-1.46,1.02-11.33,6.97-12.26,6.1,1.39-16.42,14.98-28.17,30.55-31.22Z"/>
    <path class="cls-1" d="M196.34,89.7c.78-.13,2.53,2.5,2.93,3.18,5.01,8.46,4.69,25.81-1.44,33.67-.51.65-3.17,3.41-3.9,3.24-.64-.15-1.51-3.31-1.75-4.09-2.79-9.33-3.46-25.21,2.09-33.59.36-.54,1.54-2.31,2.08-2.41Z"/>
    <path class="cls-1" d="M40.28,129.81c-1.05.74-4.62-3.59-5.21-4.56-5.07-8.29-4.91-22.95-1.02-31.69.3-.68,1.8-3.73,2.33-3.86,1.53-.37,4.33,4.42,4.89,5.68,4.49,10.02,2.55,24.33-.98,34.43Z"/>
    <path class="cls-1" d="M204.7,93.1c-.41.47-6.41-4.22-7.04-4.79-9.03-8.12-13.13-19.95-13.55-31.92,15.33,5.32,21.55,21.47,20.59,36.71Z"/>
    <path class="cls-1" d="M49.2,56.39c-.67,10.07-3.5,20.33-10.12,28.14-1.07,1.27-8.59,8.61-9.62,8.57-.38-.02-.49-.82-.53-1.17-.94-9.1,1.06-18.87,6.89-26.08,3.36-4.15,8.2-7.88,13.38-9.44Z"/>
    <path class="cls-1" d="M41.66,43.35c-.09-11.08,1.1-30.75,11.83-37.07,3.14-1.85,2.83-.98,3.27,2.24,1.41,10.36-2.06,28.46-12.13,33.85-.93.5-1.86,1.11-2.97.97Z"/>
    <path class="cls-1" d="M193.37,43.35c-5.56-1.01-10.09-6.91-12.42-11.77-3.75-7.83-4.81-17.07-3.71-25.63,8.01,2.31,12.05,11.35,13.97,18.8,1.55,5.97,2.24,12.44,2.16,18.6Z"/>
    <path class="cls-1" d="M72.89,34.43c.25.21-1.19,2.16-1.43,2.51-.48.69-2.39,3.32-2.89,3.63-1.44.91-8.9,1.38-9.59,2.42-.59,1.8.28,4.64-.22,6.3-.29.96-5.08,3.23-6.23,3.73-4.78,2.06-9.84,3.12-14.99,3.71,4.64-14.64,19.89-24.87,35.35-22.3Z"/>
    <path class="cls-1" d="M197.84,55.7c-5.88.9-11.98.08-17.4-2.34-.81-.36-4.65-2.34-5.04-2.77-.66-.74.05-6.48-.24-7.91-.32-.33-7.82-1.27-8.9-1.91-.44-.26-4.09-7.08-3.79-7.36,12.56.93,22.89,6.39,31.07,15.78.64.73,4.86,5.98,4.29,6.52Z"/>
    <path class="cls-1" d="M169.35,30.99c-9.01,2.74-26.13-.06-31.38-8.6-2.18-3.54-1.56-3.78,2.38-4.09,8.61-.66,17.76,2.54,24.5,7.75.76.59,5.24,4.07,4.5,4.94Z"/>
    <path class="cls-1" d="M100.35,17.27c-.94,7.43-9.59,11.56-16.06,13.28-5.02,1.34-11.3,2.24-16.2.27,4.18-5.47,10.59-9.93,17.15-12.01,1.31-.42,5.21-1.54,6.35-1.54h8.75Z"/>
    <path class="cls-1" d="M155.96,18.3c-9.61-1.37-25.21-5.4-25.06-17.5,10.07,1.43,23.36,6.03,25.06,17.5Z"/>
    <path class="cls-1" d="M113.74,215.59c-2.82,1.55-6.67.43-7.14-3.01-.08-.56.47-4.07,1.31-3.16.18.2-1.95,4.44.69,4.8-.39-2.41-1.34-6.41,1.91-6.84,8.16-1.08,8.15,14.82-.37,14.06-2.54-.22-2.98-2.96-1.37-3.12s.88,1.76,1.89,2.28c1.64.84,3.5-3.72,3.09-5ZM110.55,208.11c-2.1.64-2.08,8.53,2.53,6.99,1.77-.59.83-4.03.25-5.43-.54-1.32-1.22-2.03-2.78-1.55ZM114.43,210.96c.2,1.71,0,4.03,0,5.83,0,.14-1.36,3.46,0,2.23.44-.4,1.01-3.48,1.05-4.27.11-2.32-.26-3.7-1.39-5.67-.86.11.31,1.59.35,1.88ZM108.76,214.57c-.34.24.18.47.35.67.34-.23-.16-.45-.35-.67Z"/>
    <path class="cls-1" d="M126.78,207.7c-.55,2.09-2.16,3.7-2.84,5.91-.39,1.27-.76,7.43-1.13,7.49-.73.13-1.76-.12-2.55-.02l.35-3.43c.58.02.73-.23.61.43-.22,1.22-.94,2.67.76,2.31l.68-5.83c-.57-.08-1.3,3.31-1.71,2.74-.03-.38-.01-.75.08-1.12.58-2.38,2.77-4.22,3.69-6.43l-4.21.08c-.64-.24-1.99,1.67-2.31,1.29-.21-.24.83-3.43,1.2-3.43h7.38ZM125.75,208.04h-6.18l.18,1.03c1.84-.88,4.65.45,6-1.03Z"/>
    <path class="cls-1" d="M100.35,209.41c-.45-.14-2.73-.18-1.89-1.04.68-.7,3.29-.61,4.3-1.02v11.84c0,.81,1.97,1.12,2.06,1.21.02.02.03.68,0,.68h-6.52c-.17-1.06.94-.58,1.58-1.34.25-.3.4-.49.47-.9.44-2.34-.06-6.77,0-9.43.21.07.69-.2.7.2-.25,2.86.28,6.11,0,8.91-.08.86-.15,1.16-.71,1.86h2.06c-.36-.57-.61-.77-.71-1.52-.2-1.56.4-10.12.02-10.49-.05-.05-1.32-.04-1.37,0-.05.04,0,.77,0,1.03Z"/>
    <path class="cls-1" d="M136.05,207.7c-.84,2.27-2.41,3.94-3.07,6.37-.6,2.21-.75,4.74-.71,7.02h-2.55c-.44-.06-.3-2.11.32-2.4l-.17,1.71h1.37s.34-5.14.34-5.14c-.72-.01-.55,1.58-.69,1.71-.66.69-.73-.45-.53-1.04.72-2.15,2.5-4.21,3.62-6.16-2.35.04-4.71-.5-6.52,1.37-.2-.27.84-3.43,1.2-3.43h7.38ZM134.68,208.04h-5.84c-.05,0-.39.99-.34,1.03.28.21,1.69-.31,2.23-.34,1.11-.06,2.39.13,3.43,0,.5-.06,1.07-.26.51-.69Z"/>
    <path class="cls-1" d="M100.01,128.96c.24-1.82,2.04.59,2.55,1.23,2.98,3.77,3.83,8.66,4.15,13.35,2.98,2.03,6.64,2.74,9.43,5.15-.13-.67.23-2.23-.05-2.69-.12-.2-3.34-1.56-4.18-2.17-3.07-2.25-5.53-6.41-6.38-10.1-.19-.81.53-.48,1.01-.32,3.47,1.18,7.74,5.44,9.26,8.76,1.11-.36.61-3.93.27-4.39-.11-.14-2.59-1.01-3.25-1.39-3.36-1.95-6.88-5.72-8-9.51-.16-.55.04-.53.51-.51,2.08.11,5.31,2.39,6.87,3.77l4.28,4.81c-.14-.76-.15-3.24-.41-3.7-.08-.15-2.32-1.37-2.84-1.79-2.93-2.39-6.97-6.46-8.01-10.18-.15-.54-.27-.87.44-.79,4.45.49,7.64,6.38,10.48,9.26.42-2.91-3.14-4.57-4.79-6.7-2.56-3.28-4.1-8.01-3.78-12.17l2.54,2.43,4.66,7.52c-.55-3.19-.25-9.84,1.71-12.49.31-.41.37-.27.71-.04,2.47,1.67,1.7,10.46,1.37,13.22,1.24-1.31,1.75-3.39,2.68-5.03,1.16-2.05,3.02-5.4,5.55-5.6-.39,5.08-2.46,10.12-5.49,14.06l4.3-3.76c2.72-1.8,4.13-3.13,2.58,1.21-1.25,3.5-3.49,6.42-6.19,8.91-1.74,1.61-3.73,1.85-3.43,4.97.44.5,2.61-2.76,2.91-3.09,1.51-1.65,5.54-5.58,7.57-6.16.78-.22.52.63.42,1.11-.59,2.92-3.47,6.81-5.78,8.63-.94.74-4.58,2.43-4.72,2.66-.35.57.14,3.48-.05,4.41,2.17-2.96,4.39-6.1,7.66-7.95.67-.38,1.92-1.24,2.64-.8-.71,4.05-2.56,7.45-5.68,10.11-2.03,1.73-5.35,2.31-4.11,5.5,2.6-2.36,5.78-3.91,9.04-5.2-.07-5.63,1.4-11.27,5.38-15.38.82-.15.42.38.49.86.64,4.39-.63,8.99-2.73,12.85.5.38,4.51-2.11,4.97-2.75,1.22-1.71-.15-2.45-.42-4.02-.66-3.75,1.45-9.36,3.01-12.78.81-.11.55-.02.72.47,1.52,4.26.46,10.32-.56,14.62.87-.57,3.67-2.38,3.9-3.32.17-.72-.89-4.21-.97-5.43-.25-3.83,1.26-9.2,4.11-11.83.54,3.46.93,6.96.7,10.48-.09,1.44-.83,2.83-.53,4.28.64-.65,2.04-2.13,2.17-2.98.19-1.21-.44-4.3-.28-6.1.2-2.27,1.25-5.61,2.33-7.62.34-.62,2.81-4.37,3.49-3.88.82,3.22.32,6.4-.59,9.53-.4,1.36-1.51,2.74-1.3,4.19,2.84-3.59,4.18-8.26,7.05-11.83,1.35-1.68,3.84-4.38,6.17-3.95-.3,4.38-2.38,8.51-5.16,11.83-1.11,1.33-2.68,2.46-3.77,3.78-.32.39-.83.55-.68,1.2,3.39-1.08,7.53-3.44,11.15-3.44.42,0,1.12-.17.86.52-1.14,3.05-7.53,6.43-10.56,7.28-3.23.91-7.65.33-9.34,3.36,4.99-.41,11.02.1,15.1,3.25-4.72,1.1-9.14,2.61-14,1.14-1.16-.35-3.34-1.84-4.31-1.73-1.1.12-2.72,2.47-3.65,3.18l9.6,3.1,4.47,2.56c-6.23,2.11-11.95-.35-17.18-3.62-1.78,1.09-4.07,1.65-5.47,3.28,4.75,1.17,9.88,3.38,13.04,7.2-4.03.95-9.16-.36-12.47-2.8-3.06-2.25-2.28-4.34-6.65-1.72-3.33,1.99-4.94,5.67-4.94,9.5,0,7.44,9.23,2.12,12.99,1.64,3.27-.42,5.79.74,7.29,3.68-2.07-.35-3.82-.88-5.97-.64-3.99.43-7.63,4.2-11.88,3.05-.03.51,1.23.61,1.58.64,2.74.29,8.51-1.06,8.71,2.79h-11.5c-.65,0-2.68-1.2-3.26-1.72.2,2.29-.28,4.59-2.4,5.83.24-2.16-1.38-3.8-1.72-5.83-4.56,2.39-9.64.56-14.41,2.06,1.33-4.37,5.25-3.12,8.66-3.52.52-.06,2.12-.35,2.32-.94-6.74.89-14.11-4.4-19.9.68,1.13-4.03,5.12-5.72,9.09-5.48s12.78,4.41,12.74-3.21c-.02-3.64-2.08-6.19-5.13-7.84-4.45-2.39-3.27-.75-6.57,1.44-2.44,1.62-6.08,2.8-8.98,3.04-2.26.18-6.18.73-3.56-2.18,3.09-3.42,7.48-4.14,11.67-5.16.24-.06.94-.08.52-.51-.39-.4-5.05-2.79-5.48-2.75-.58.06-3.74,2.05-4.76,2.47-3.51,1.43-7.82,2.31-11.56,1.65-.35-.39,1.53-2.1,1.9-2.39,3.15-2.54,7.27-3.31,11.15-3.95-.58-.31-2.62-2.43-2.91-2.46-.5-.05-4.2,1.42-5.54,1.56-4.08.43-9.13-.05-12.82-1.84,3.89-3.28,9.64-2.87,14.41-2.74-1.96-2.94-3.44-1.91-6.25-2.33-5.08-.75-9.82-3.18-12.91-7.34-.26-.34-1.8-2.36-.62-2.13,4.11.81,7.69,3.14,11.54,4.59-4.49-4.75-8.06-10.73-8.92-17.33,7.27,2.13,9.41,11.03,12.36,17.15.61.09.34-.77.26-1.12-1.02-4.68-2.9-9.4-1.63-14.32,3.5,2.98,5.64,9.37,5.84,13.88.16,3.44-1.69,6.4,3.07,7.57-1.43-4.02-2.11-9.76-.77-13.83.11-.34-.06-1.03.6-.76,1.61.66,3.38,6.7,3.57,8.45s.14,4.07.04,5.79c-.05.87-.78,2.28-.52,2.91.23.55,3.14,2.57,3.27,2.41-.88-2.02-1.51-13.89-.34-14.75.49-.36.89.49,1.09.79,2.94,4.34,3.02,10.77,2.39,15.78.29.99,4.66,2.98,5.1,2.64-1.07-1.81-3.43-6.05-3.43-8.06,0-1.56-.2-3.69,0-5.15ZM120.26,124.67c-.92-.28-2.08,1.94-1.71,2.4.49.62,1.92-2.18,1.71-2.4ZM152.18,125.01c-.48-.25-.92.22-.68.34.48.25.92-.22.68-.34ZM155.62,125.7c-.48-.25-.92.22-.68.34.48.25.92-.22.68-.34Z"/>
    <path class="cls-1" d="M129.19,50.22c-.58.92-1.92,1.01-1.72,2.4-2.27-.4.01-3.03,1.72-2.4Z"/>
  </g>
</svg>