<?xml version="1.0" encoding="UTF-8"?>
<svg id="Layer_1" data-name="Layer 1" xmlns="http://www.w3.org/2000/svg" viewBox="0 0 740.81 164.47">
  <defs>
    <style>
      .cls-1 {
        fill: #860038;
      }

      .cls-2 {
        stroke: #006a51;
        stroke-miterlimit: 10;
      }

      .cls-2, .cls-3 {
        fill: #006a51;
      }
    </style>
  </defs>
  <g>
    <path class="cls-1" d="M256.04,139.06c-17.58,11.65-34.29,25.42-59.71,25.42-29.38,0-54.11-13.6-58.85-43.1-3.45-21.51-3.88-78.63-3.88-98.01V1.03h.43c11.63,24.14,32.31,38.49,32.31,63.4,0,12.33-4.05,20.32-10.17,32.05-3.19,6.12-7.93,13.94-7.93,21.17,0,4.25,1.98,8.33,9.31,8.33,14.39,0,22.49-7.48,41.18-7.48,21.37,0,36.62,7.74,57.3,20.06v.51h0Z"/>
    <path class="cls-3" d="M.85,138.55c20.68-12.33,35.93-20.06,57.3-20.06,18.7,0,26.8,7.48,41.18,7.48,7.32,0,9.31-4.08,9.31-8.33,0-7.23-4.74-15.05-7.93-21.17-6.12-11.73-10.17-19.72-10.17-32.05,0-24.91,20.68-39.26,32.31-63.4h.43v22.17c0,19.55-.43,76.67-3.88,98.18-4.74,29.5-29.47,43.1-58.85,43.1-25.42,0-42.13-13.77-59.71-25.42v-.51h0Z"/>
  </g>
  <g>
    <path class="cls-2" d="M319.27,38.82h-.86c-.21-.6-.54-1.28-1-2.03-.46-.75-1.05-1.46-1.8-2.13s-1.64-1.22-2.7-1.66c-1.05-.44-2.3-.66-3.73-.66-1.28,0-2.41.2-3.4.59-.99.39-1.82.94-2.48,1.64s-1.17,1.54-1.5,2.5c-.34.96-.51,2.03-.51,3.2,0,1.88.53,3.67,1.58,5.37,1.05,1.71,2.38,3.39,3.96,5.06,1.59,1.67,3.31,3.33,5.16,5,1.85,1.67,3.57,3.4,5.16,5.2,1.59,1.8,2.91,3.68,3.96,5.64,1.05,1.97,1.58,4.08,1.58,6.35,0,1.69-.29,3.39-.88,5.1-.59,1.71-1.49,3.24-2.71,4.59-1.22,1.35-2.8,2.46-4.73,3.3-1.93.85-4.22,1.27-6.88,1.27-1.48,0-2.9-.14-4.24-.41-1.34-.27-2.58-.61-3.71-1.02s-2.15-.84-3.05-1.31-1.63-.9-2.21-1.29l.9-8.63h.98c.29,1.22.75,2.39,1.41,3.5.65,1.11,1.45,2.08,2.4,2.93.95.85,2.04,1.52,3.26,2.03,1.22.51,2.56.76,4.02.76,1.33,0,2.52-.2,3.57-.61,1.05-.4,1.96-.96,2.71-1.68.75-.72,1.33-1.57,1.74-2.56.4-.99.61-2.07.61-3.24,0-1.64-.3-3.16-.9-4.55-.6-1.39-1.39-2.71-2.36-3.96s-2.08-2.46-3.32-3.63c-1.24-1.17-2.51-2.35-3.81-3.54-1.3-1.18-2.57-2.4-3.81-3.65-1.24-1.25-2.34-2.58-3.32-4-.98-1.42-1.76-2.94-2.36-4.57-.6-1.63-.9-3.42-.9-5.37,0-2.06.4-3.91,1.19-5.57.79-1.65,1.85-3.07,3.16-4.24,1.31-1.17,2.81-2.07,4.47-2.7,1.67-.62,3.38-.94,5.16-.94,1.3,0,2.5.1,3.59.31,1.09.21,2.08.46,2.95.74.87.29,1.63.57,2.29.86.65.29,1.18.52,1.6.7l-.27,7.3Z"/>
    <path class="cls-2" d="M351.83,29.91v.16c-.05.13-.09.33-.12.59-.03.26-.04.5-.04.7,0,.81.11,1.7.33,2.68.22.98.64,2.19,1.27,3.65l17.3,39.02,16.72-38.71c.39-.96.81-2.02,1.25-3.16.44-1.15.66-2.3.66-3.48,0-.31-.03-.58-.08-.8-.05-.22-.1-.38-.16-.49v-.16h8.01v.16c-.5.5-1.09,1.38-1.8,2.66-.7,1.28-1.47,2.85-2.3,4.73l-22.38,49.69h-3.12l-21.21-47.77c-.5-1.12-1.01-2.2-1.54-3.24-.53-1.04-1.04-1.99-1.5-2.83-.47-.85-.88-1.56-1.25-2.13-.36-.57-.61-.94-.74-1.09v-.16h10.7Z"/>
    <path class="cls-2" d="M426.68,29.87c3.22-.03,6.17-.06,8.85-.1,2.68-.04,4.97-.1,6.88-.18,1.9-.08,3.19-.18,3.87-.31l-1.91,5.2c-.86-.23-1.86-.44-3.01-.62-.99-.16-2.19-.31-3.61-.45-1.42-.14-3.05-.21-4.9-.21-.62,0-1.37.02-2.25.06-.87.04-1.71.08-2.52.14-.94.05-1.89.1-2.85.16v21.33c2.68-.03,5.1-.1,7.27-.23,2.16-.13,4-.26,5.51-.39,1.77-.16,3.33-.34,4.69-.55l-1.21,5.66c-1.8-.23-3.63-.46-5.51-.66-1.62-.18-3.37-.34-5.27-.49-1.9-.14-3.72-.21-5.47-.21v24.49c3.07,0,5.9-.13,8.48-.39,2.58-.26,4.83-.56,6.76-.9,2.24-.36,4.28-.79,6.13-1.29l-1.13,6.33c-.31-.03-.78-.05-1.41-.08-.62-.03-1.32-.05-2.09-.08-.77-.03-1.58-.05-2.42-.06-.85-.01-1.65-.03-2.4-.04-.76-.01-1.43-.03-2.01-.04-.59-.01-1.01-.02-1.27-.02h-16.88v-.16c.16-.55.31-1.22.45-2.03.14-.81.27-1.81.37-3.01.1-1.2.18-2.62.23-4.28.05-1.65.08-3.59.08-5.8v-25.43c0-2.21-.03-4.15-.08-5.8-.05-1.65-.13-3.09-.23-4.3-.1-1.21-.23-2.22-.37-3.03-.14-.81-.29-1.48-.45-2.03v-.16c3.25,0,6.49-.01,9.71-.04Z"/>
    <path class="cls-2" d="M480.43,70.65c0,2.21.03,4.15.1,5.8.06,1.65.14,3.08.23,4.28.09,1.2.21,2.2.35,3.01.14.81.29,1.48.45,2.03v.16h-9.38v-.16c.16-.55.31-1.22.45-2.03.14-.81.27-1.81.37-3.01.1-1.2.18-2.62.23-4.28.05-1.65.08-3.59.08-5.8v-25.43c0-2.21-.03-4.15-.08-5.8-.05-1.65-.13-3.09-.23-4.3-.1-1.21-.23-2.22-.37-3.03-.14-.81-.29-1.48-.45-2.03v-.16c.52.05,1.07.1,1.64.16.49.05,1.05.08,1.66.1.61.01,1.24.02,1.89.02,1.02,0,2.39-.12,4.12-.37,1.73-.25,3.94-.37,6.62-.37,2.5,0,4.81.34,6.93,1.02,2.12.68,3.96,1.67,5.53,2.97,1.56,1.3,2.78,2.9,3.65,4.79.87,1.89,1.31,4.03,1.31,6.43,0,1.88-.24,3.61-.72,5.21-.48,1.6-1.16,3.05-2.03,4.36-.87,1.3-1.92,2.46-3.14,3.46-1.22,1-2.59,1.84-4.1,2.52l13.71,19.26c.68.96,1.31,1.8,1.89,2.5s1.15,1.3,1.68,1.8c.53.5,1.05.91,1.54,1.23.49.33,1,.59,1.52.8v.16h-11.29c-.08-.49-.33-1.15-.76-1.97s-.93-1.63-1.5-2.44l-13.83-19.49c-1.28.13-2.59.2-3.95.2s-2.73-.12-4.14-.35v8.79ZM480.43,58.82c2.55.47,4.89.53,7.01.2,2.12-.34,3.95-1.08,5.47-2.23,1.52-1.15,2.71-2.7,3.55-4.67.85-1.97,1.27-4.36,1.27-7.17,0-1.95-.22-3.72-.66-5.31-.44-1.59-1.1-2.94-1.97-4.04-.87-1.11-1.97-1.97-3.3-2.58-1.33-.61-2.88-.92-4.65-.92-1.12,0-2.1.05-2.93.14-.83.09-1.54.19-2.11.29-.68.13-1.24.27-1.68.43v25.86Z"/>
    <path class="cls-2" d="M535.81,85.77c.16-.55.3-1.22.43-2.03.13-.81.25-1.81.35-3.01.1-1.2.18-2.62.23-4.28.05-1.65.08-3.59.08-5.8v-25.43c0-2.21-.03-4.15-.08-5.8-.05-1.65-.13-3.09-.23-4.3-.1-1.21-.22-2.22-.35-3.03-.13-.81-.27-1.48-.43-2.03v-.16h9.34v.16c-.16.55-.31,1.22-.45,2.03-.14.81-.26,1.82-.35,3.03-.09,1.21-.17,2.64-.23,4.3-.07,1.65-.1,3.59-.1,5.8v25.43c0,2.21.03,4.15.1,5.8.06,1.65.14,3.08.23,4.28.09,1.2.21,2.2.35,3.01.14.81.29,1.48.45,2.03v.16h-9.34v-.16Z"/>
    <path class="cls-2" d="M621.96,79.36c0,.29-.03.59-.1.9-.07.31-.21.57-.45.78-1.17.89-2.44,1.7-3.81,2.44s-2.85,1.39-4.43,1.93c-1.59.55-3.3.97-5.14,1.27-1.84.3-3.81.45-5.92.45-4.74,0-9.06-.7-12.97-2.09s-7.26-3.37-10.06-5.92c-2.8-2.55-4.97-5.62-6.5-9.2-1.54-3.58-2.3-7.56-2.3-11.93,0-2.47.32-4.91.96-7.3.64-2.4,1.57-4.67,2.79-6.84,1.22-2.16,2.73-4.15,4.53-5.96,1.8-1.81,3.85-3.38,6.15-4.71s4.84-2.36,7.62-3.11,5.77-1.11,9-1.11c1.25,0,2.53.06,3.83.18,1.3.12,2.59.29,3.87.51,1.28.22,2.51.49,3.69.8,1.18.31,2.31.66,3.38,1.05l2.66,7.23-.31.16c-1.02-.91-2.19-1.76-3.52-2.54s-2.75-1.46-4.26-2.03c-1.51-.57-3.09-1.02-4.75-1.35-1.65-.33-3.33-.49-5.02-.49-3.28,0-6.29.51-9.02,1.54-2.73,1.03-5.08,2.52-7.05,4.47-1.97,1.95-3.5,4.35-4.59,7.19-1.09,2.84-1.64,6.07-1.64,9.69,0,3.98.52,7.68,1.56,11.09,1.04,3.41,2.59,6.37,4.65,8.87,2.06,2.5,4.63,4.46,7.71,5.88,3.09,1.42,6.69,2.13,10.8,2.13,1.82,0,3.45-.14,4.88-.43,1.43-.29,2.64-.64,3.63-1.07.99-.43,1.74-.9,2.25-1.41s.76-.97.76-1.39v-1.52c0-1.82-.03-3.4-.08-4.73-.05-1.33-.13-2.48-.23-3.46-.1-.98-.22-1.82-.35-2.52-.13-.7-.29-1.35-.47-1.95v-.16h9.38v.16c-.16.55-.31,1.19-.45,1.93-.14.74-.27,1.62-.37,2.64-.1,1.02-.18,2.21-.23,3.57-.05,1.37-.08,2.95-.08,4.75v1.6Z"/>
    <path class="cls-2" d="M657.75,29.87c3.22-.03,6.17-.06,8.85-.1,2.68-.04,4.97-.1,6.88-.18,1.9-.08,3.19-.18,3.87-.31l-1.91,5.2c-.86-.23-1.86-.44-3.01-.62-.99-.16-2.19-.31-3.61-.45-1.42-.14-3.05-.21-4.9-.21-.62,0-1.37.02-2.25.06-.87.04-1.71.08-2.52.14-.94.05-1.89.1-2.85.16v21.33c2.68-.03,5.1-.1,7.27-.23,2.16-.13,4-.26,5.51-.39,1.77-.16,3.33-.34,4.69-.55l-1.21,5.66c-1.8-.23-3.63-.46-5.51-.66-1.62-.18-3.37-.34-5.27-.49-1.9-.14-3.72-.21-5.47-.21v24.49c3.07,0,5.9-.13,8.48-.39,2.58-.26,4.83-.56,6.76-.9,2.24-.36,4.28-.79,6.13-1.29l-1.13,6.33c-.31-.03-.78-.05-1.41-.08-.62-.03-1.32-.05-2.09-.08-.77-.03-1.58-.05-2.42-.06-.85-.01-1.65-.03-2.4-.04-.76-.01-1.43-.03-2.01-.04-.59-.01-1.01-.02-1.27-.02h-16.88v-.16c.16-.55.31-1.22.45-2.03.14-.81.27-1.81.37-3.01.1-1.2.18-2.62.23-4.28.05-1.65.08-3.59.08-5.8v-25.43c0-2.21-.03-4.15-.08-5.8-.05-1.65-.13-3.09-.23-4.3-.1-1.21-.23-2.22-.37-3.03-.14-.81-.29-1.48-.45-2.03v-.16c3.25,0,6.49-.01,9.71-.04Z"/>
    <path class="cls-2" d="M726.62,38.82h-.86c-.21-.6-.54-1.28-1-2.03-.46-.75-1.05-1.46-1.8-2.13s-1.64-1.22-2.7-1.66c-1.05-.44-2.3-.66-3.73-.66-1.28,0-2.41.2-3.4.59-.99.39-1.82.94-2.48,1.64s-1.17,1.54-1.5,2.5c-.34.96-.51,2.03-.51,3.2,0,1.88.53,3.67,1.58,5.37,1.05,1.71,2.38,3.39,3.96,5.06,1.59,1.67,3.31,3.33,5.16,5,1.85,1.67,3.57,3.4,5.16,5.2,1.59,1.8,2.91,3.68,3.96,5.64,1.05,1.97,1.58,4.08,1.58,6.35,0,1.69-.29,3.39-.88,5.1-.59,1.71-1.49,3.24-2.71,4.59-1.22,1.35-2.8,2.46-4.73,3.3-1.93.85-4.22,1.27-6.88,1.27-1.48,0-2.9-.14-4.24-.41-1.34-.27-2.58-.61-3.71-1.02s-2.15-.84-3.05-1.31-1.63-.9-2.21-1.29l.9-8.63h.98c.29,1.22.75,2.39,1.41,3.5.65,1.11,1.45,2.08,2.4,2.93.95.85,2.04,1.52,3.26,2.03,1.22.51,2.56.76,4.02.76,1.33,0,2.52-.2,3.57-.61,1.05-.4,1.96-.96,2.71-1.68.75-.72,1.33-1.57,1.74-2.56.4-.99.61-2.07.61-3.24,0-1.64-.3-3.16-.9-4.55-.6-1.39-1.39-2.71-2.36-3.96s-2.08-2.46-3.32-3.63c-1.24-1.17-2.51-2.35-3.81-3.54-1.3-1.18-2.57-2.4-3.81-3.65-1.24-1.25-2.34-2.58-3.32-4-.98-1.42-1.76-2.94-2.36-4.57-.6-1.63-.9-3.42-.9-5.37,0-2.06.4-3.91,1.19-5.57.79-1.65,1.85-3.07,3.16-4.24,1.31-1.17,2.81-2.07,4.47-2.7,1.67-.62,3.38-.94,5.16-.94,1.3,0,2.5.1,3.59.31,1.09.21,2.08.46,2.95.74.87.29,1.63.57,2.29.86.65.29,1.18.52,1.6.7l-.27,7.3Z"/>
    <path class="cls-2" d="M296.89,138.29c1.46,0,2.8-.06,4.03-.19,1.22-.12,2.29-.27,3.21-.43,1.06-.17,2.03-.38,2.91-.61l-.54,3.01c-.15-.01-.37-.03-.67-.04-.3-.01-.63-.03-.99-.04-.37-.01-.75-.02-1.15-.03-.4,0-.78-.01-1.14-.02-.36,0-.68-.01-.96-.02-.28,0-.48,0-.6,0h-8.02v-.07c.07-.26.15-.58.21-.96.07-.38.13-.86.18-1.43.05-.57.09-1.25.11-2.03.02-.79.04-1.7.04-2.75v-12.08c0-1.05-.01-1.97-.04-2.76-.02-.79-.06-1.46-.11-2.04-.05-.57-.11-1.05-.18-1.44-.07-.38-.14-.71-.21-.96v-.07h4.45v.07c-.07.26-.15.58-.21.96-.07.38-.12.86-.17,1.44-.04.58-.08,1.26-.11,2.04-.03.79-.05,1.71-.05,2.76v17.7Z"/>
    <path class="cls-2" d="M329.81,139.92v-.07c.02-.06.04-.15.06-.28.01-.12.02-.23.02-.33,0-.38-.05-.81-.16-1.27-.11-.46-.31-1.04-.6-1.74l-2.25-5.05c-.69-.02-1.61-.04-2.76-.04h-6.56c-.91,0-1.73.01-2.46.04l-2.13,4.9c-.19.46-.38.96-.59,1.5-.21.54-.32,1.09-.32,1.65,0,.16.01.29.04.4.02.1.05.18.07.21v.07h-3.79v-.07c.22-.23.5-.65.83-1.25.33-.6.7-1.35,1.09-2.25l10.63-23.58h1.48l10.08,22.67c.23.53.48,1.05.73,1.55.25.5.49.95.71,1.35.22.4.42.73.59,1,.17.27.29.45.35.52v.07h-5.08ZM317.79,129.55c.72,0,1.45,0,2.21,0,.75,0,1.49-.01,2.22-.02.72,0,1.42-.01,2.09-.02.67,0,1.27-.02,1.82-.03l-5.21-11.78-5.12,11.86h2Z"/>
    <path class="cls-2" d="M339.17,113.32l19.11,20.34v-13.06c0-1.05-.01-1.97-.04-2.76-.02-.79-.06-1.46-.11-2.04-.05-.57-.11-1.05-.18-1.44-.07-.38-.14-.71-.21-.96v-.07h3.3v.07c-.07.26-.14.58-.2.96-.06.38-.12.86-.17,1.44-.05.58-.09,1.26-.11,2.04-.02.79-.04,1.71-.04,2.76v19.71h-.65l-19.11-20.32v12.69c0,1.05.01,1.97.04,2.75.02.79.06,1.46.11,2.03.05.57.1,1.05.17,1.43.06.38.13.71.2.96v.07h-3.3v-.07c.07-.26.15-.58.21-.96.07-.38.13-.86.18-1.43.05-.57.09-1.25.11-2.03.02-.79.04-1.7.04-2.75v-12.08c0-1.05-.01-1.97-.04-2.76-.02-.79-.06-1.46-.11-2.04-.05-.57-.11-1.05-.18-1.44-.07-.38-.14-.71-.21-.96v-.07h1.19Z"/>
    <path class="cls-2" d="M374.15,114.95c-1.46,0-2.78.06-3.95.2-1.18.13-2.19.27-3.04.42-.99.19-1.87.39-2.65.61l.54-3.01c.15.01.37.03.67.04.3.01.63.03.99.04.36.01.75.02,1.15.03.4,0,.78.01,1.14.02.36,0,.68.01.96.02.28,0,.48,0,.6,0h10.59c.12,0,.32,0,.6,0,.28,0,.6-.01.96-.02.36,0,.74-.01,1.14-.02.4,0,.79-.01,1.15-.03.36-.01.7-.02.99-.04.3-.01.52-.02.67-.04l.54,3.01c-.79-.22-1.68-.43-2.67-.61-.85-.15-1.87-.29-3.04-.42-1.18-.13-2.49-.2-3.95-.2v17.72c0,1.05.02,1.97.05,2.75.03.79.07,1.46.11,2.03.04.57.1,1.05.17,1.43.07.38.14.71.21.96v.07h-4.43v-.07c.07-.26.14-.58.2-.96.06-.38.12-.86.17-1.43.05-.57.09-1.25.11-2.03.02-.79.04-1.7.04-2.75v-17.72Z"/>
    <path class="cls-2" d="M391.33,120.59c0-1.05-.01-1.97-.04-2.76-.02-.79-.06-1.46-.11-2.04-.05-.57-.11-1.05-.18-1.44-.07-.38-.14-.71-.21-.96v-.07c.25.01.51.02.78.02.23.01.5.02.79.02h.9c.45,0,1.05-.04,1.81-.13.76-.09,1.74-.13,2.94-.13,1.11,0,2.14.15,3.08.44.94.29,1.75.71,2.44,1.25.69.54,1.22,1.22,1.61,2.01.39.8.58,1.71.58,2.72,0,.85-.12,1.62-.35,2.29-.24.67-.57,1.26-.99,1.76-.43.5-.94.92-1.54,1.26-.6.34-1.26.61-1.98.81,1.05.16,2.01.43,2.88.81.87.38,1.61.85,2.24,1.42.62.57,1.11,1.23,1.45,1.99.34.76.51,1.61.51,2.53,0,2.61-.86,4.57-2.58,5.87-1.72,1.3-4.29,1.96-7.72,1.96-.37,0-.8-.02-1.3-.05-.5-.03-1-.06-1.51-.1-.51-.04-1.02-.07-1.51-.1-.5-.03-.93-.05-1.3-.05h-1.22v-.07c.07-.26.15-.58.21-.96.07-.38.13-.86.18-1.43.05-.57.09-1.25.11-2.03.02-.79.04-1.7.04-2.75v-12.08ZM394.71,125.38c.35.04.66.06.93.06.27,0,.56,0,.87,0,.84,0,1.61-.12,2.3-.36.69-.24,1.28-.6,1.77-1.09.49-.48.87-1.09,1.14-1.81.27-.72.41-1.57.41-2.53,0-.8-.1-1.53-.3-2.19-.2-.66-.49-1.21-.88-1.68-.39-.46-.87-.82-1.44-1.07-.57-.25-1.22-.37-1.95-.37-.47,0-.88.02-1.23.06s-.65.08-.9.13c-.28.05-.53.11-.72.19v10.65ZM398.14,126.77c-.84,0-1.55.03-2.12.09-.57.06-1.01.12-1.32.19v5.62c0,1.45.02,2.64.07,3.58.05.94.12,1.71.2,2.3.47.06.94.12,1.41.17.47.05.85.07,1.13.07,2.31,0,4-.52,5.07-1.55,1.07-1.03,1.6-2.62,1.6-4.76,0-.84-.13-1.61-.38-2.31-.25-.7-.63-1.3-1.13-1.81-.5-.51-1.13-.9-1.89-1.18-.76-.28-1.65-.42-2.66-.42Z"/>
    <path class="cls-2" d="M416.98,132.67c0,1.05.02,1.97.05,2.75.03.79.07,1.46.11,2.03.04.57.1,1.05.17,1.43.07.38.14.71.21.96v.07h-4.45v-.07c.07-.26.15-.58.21-.96.07-.38.13-.86.18-1.43.05-.57.09-1.25.11-2.03.02-.79.04-1.7.04-2.75v-12.08c0-1.05-.01-1.97-.04-2.76-.02-.79-.06-1.46-.11-2.04-.05-.57-.11-1.05-.18-1.44-.07-.38-.14-.71-.21-.96v-.07c.25.03.51.05.78.07.23.03.5.04.79.05.29,0,.59,0,.9,0,.48,0,1.13-.06,1.96-.18.82-.12,1.87-.18,3.15-.18,1.19,0,2.29.16,3.29.48,1.01.32,1.88.79,2.63,1.41.74.62,1.32,1.38,1.73,2.27.41.9.62,1.91.62,3.05,0,.89-.11,1.72-.34,2.48-.23.76-.55,1.45-.96,2.07-.41.62-.91,1.17-1.49,1.64-.58.48-1.23.88-1.95,1.2l6.51,9.15c.32.46.62.85.9,1.19s.54.62.8.85c.25.24.5.43.73.58.23.16.48.28.72.38v.07h-5.36c-.04-.23-.16-.55-.36-.94-.2-.39-.44-.78-.71-1.16l-6.57-9.26c-.61.06-1.23.09-1.87.09s-1.3-.06-1.97-.17v4.17ZM416.98,127.05c1.21.22,2.32.25,3.33.09,1.01-.16,1.87-.51,2.6-1.06.72-.54,1.29-1.28,1.69-2.22.4-.93.6-2.07.6-3.41,0-.93-.11-1.77-.32-2.52-.21-.75-.52-1.39-.94-1.92-.41-.53-.94-.93-1.57-1.22-.63-.29-1.37-.44-2.21-.44-.53,0-1,.02-1.39.06-.4.04-.73.09-1,.14-.32.06-.59.13-.8.2v12.28Z"/>
    <path class="cls-2" d="M455.5,120.59c0-1.05-.01-1.97-.04-2.76-.02-.79-.06-1.46-.11-2.04-.05-.57-.11-1.05-.17-1.44-.06-.38-.13-.71-.2-.96v-.07h3.3v.07c-.07.26-.15.58-.21.96-.07.38-.12.86-.17,1.44-.04.58-.08,1.26-.11,2.04-.03.79-.05,1.71-.05,2.76v10.02c0,1.77-.25,3.28-.76,4.53-.51,1.25-1.21,2.27-2.12,3.07-.9.8-1.99,1.38-3.25,1.74-1.26.37-2.64.55-4.14.55s-2.89-.17-4.18-.52c-1.29-.35-2.42-.91-3.38-1.68-.96-.77-1.71-1.78-2.25-3.01-.54-1.23-.82-2.73-.82-4.5v-10.21c0-1.05-.01-1.97-.04-2.76-.02-.79-.06-1.46-.11-2.04-.05-.57-.11-1.05-.18-1.44-.07-.38-.14-.71-.21-.96v-.07h4.45v.07c-.07.26-.15.58-.21.96-.07.38-.13.86-.18,1.44-.05.58-.09,1.26-.11,2.04-.02.79-.04,1.71-.04,2.76v10.41c0,1.47.22,2.69.66,3.65.44.96,1.02,1.72,1.73,2.28.72.56,1.53.96,2.45,1.18.92.22,1.85.33,2.8.33s1.89-.11,2.8-.33c.92-.22,1.73-.62,2.44-1.18.71-.56,1.29-1.32,1.73-2.28.44-.96.66-2.17.66-3.65v-10.41Z"/>
    <path class="cls-2" d="M464.39,139.85c.07-.26.15-.58.21-.96.07-.38.13-.86.18-1.43.05-.57.09-1.25.11-2.03.02-.79.04-1.7.04-2.75v-12.08c0-1.05-.01-1.97-.04-2.76-.02-.79-.06-1.46-.11-2.04-.05-.57-.11-1.05-.18-1.44-.07-.38-.14-.71-.21-.96v-.07h4.45v.07c-.07.26-.15.58-.21.96-.07.38-.12.86-.17,1.44-.04.58-.08,1.26-.11,2.04-.03.79-.05,1.71-.05,2.76v4.14l10.84-8.85c1.21-.99,1.82-1.84,1.82-2.56h5.21v.07c-.73.17-1.47.5-2.22.99-.75.49-1.54,1.09-2.38,1.79l-9.57,8.02,11.52,12.65c.48.5.89.91,1.23,1.23.34.33.64.6.9.82.26.22.5.4.71.54.22.14.44.28.68.42v.07h-5.44c-.05-.11-.13-.25-.25-.43-.12-.17-.25-.35-.41-.54-.15-.19-.32-.38-.5-.58-.18-.2-.35-.38-.51-.56l-11.63-12.77v7.61c0,1.05.02,1.97.05,2.75.03.79.07,1.46.11,2.03.04.57.1,1.05.17,1.43.07.38.14.71.21.96v.07h-4.45v-.07Z"/>
    <path class="cls-2" d="M500.99,117.55h-.41c-.1-.28-.26-.61-.47-.96-.22-.36-.5-.7-.85-1.01-.35-.31-.78-.58-1.28-.79-.5-.21-1.09-.32-1.77-.32-.61,0-1.14.09-1.61.28-.47.19-.86.45-1.18.78s-.55.73-.71,1.19c-.16.46-.24.96-.24,1.52,0,.89.25,1.74.75,2.55.5.81,1.13,1.61,1.88,2.4.75.79,1.57,1.58,2.45,2.38.88.79,1.69,1.61,2.45,2.47.75.85,1.38,1.75,1.88,2.68.5.93.75,1.94.75,3.02,0,.8-.14,1.61-.42,2.42-.28.81-.71,1.54-1.29,2.18-.58.64-1.33,1.17-2.25,1.57-.92.4-2,.6-3.27.6-.71,0-1.38-.07-2.01-.19-.64-.13-1.22-.29-1.76-.48-.54-.19-1.02-.4-1.45-.62s-.78-.43-1.05-.61l.43-4.1h.46c.14.58.36,1.13.67,1.66.31.53.69.99,1.14,1.39.45.4.97.72,1.55.96.58.24,1.22.36,1.91.36.63,0,1.2-.1,1.7-.29.5-.19.93-.46,1.29-.8.36-.34.63-.75.83-1.22.19-.47.29-.98.29-1.54,0-.78-.14-1.5-.43-2.16-.28-.66-.66-1.29-1.12-1.88s-.99-1.17-1.58-1.73c-.59-.56-1.19-1.12-1.81-1.68-.62-.56-1.22-1.14-1.81-1.74-.59-.59-1.11-1.23-1.58-1.9-.46-.67-.84-1.4-1.12-2.17-.28-.77-.43-1.62-.43-2.55,0-.98.19-1.86.57-2.64.38-.79.88-1.46,1.5-2.01.62-.56,1.33-.98,2.12-1.28.79-.3,1.61-.45,2.45-.45.62,0,1.19.05,1.71.15.52.1.99.22,1.4.35.41.14.78.27,1.09.41.31.14.56.25.76.33l-.13,3.47Z"/>
    <path class="cls-2" d="M527.17,120.59c0-1.05-.01-1.97-.04-2.76-.02-.79-.06-1.46-.11-2.04-.05-.57-.11-1.05-.17-1.44-.06-.38-.13-.71-.2-.96v-.07h3.3v.07c-.07.26-.15.58-.21.96-.07.38-.12.86-.17,1.44-.04.58-.08,1.26-.11,2.04-.03.79-.05,1.71-.05,2.76v10.02c0,1.77-.25,3.28-.76,4.53-.51,1.25-1.21,2.27-2.12,3.07-.9.8-1.99,1.38-3.25,1.74-1.26.37-2.64.55-4.14.55s-2.89-.17-4.18-.52c-1.29-.35-2.42-.91-3.38-1.68-.96-.77-1.71-1.78-2.25-3.01-.54-1.23-.82-2.73-.82-4.5v-10.21c0-1.05-.01-1.97-.04-2.76-.02-.79-.06-1.46-.11-2.04-.05-.57-.11-1.05-.18-1.44-.07-.38-.14-.71-.21-.96v-.07h4.45v.07c-.07.26-.15.58-.21.96-.07.38-.13.86-.18,1.44-.05.58-.09,1.26-.11,2.04-.02.79-.04,1.71-.04,2.76v10.41c0,1.47.22,2.69.66,3.65.44.96,1.02,1.72,1.73,2.28.72.56,1.53.96,2.45,1.18.92.22,1.85.33,2.8.33s1.89-.11,2.8-.33c.92-.22,1.73-.62,2.44-1.18.71-.56,1.29-1.32,1.73-2.28.44-.96.66-2.17.66-3.65v-10.41Z"/>
    <path class="cls-2" d="M537.1,113.32l19.11,20.34v-13.06c0-1.05-.01-1.97-.04-2.76-.02-.79-.06-1.46-.11-2.04-.05-.57-.11-1.05-.18-1.44-.07-.38-.14-.71-.21-.96v-.07h3.3v.07c-.07.26-.14.58-.2.96-.06.38-.12.86-.17,1.44-.05.58-.09,1.26-.11,2.04-.02.79-.04,1.71-.04,2.76v19.71h-.65l-19.11-20.32v12.69c0,1.05.01,1.97.04,2.75.02.79.06,1.46.11,2.03.05.57.1,1.05.17,1.43.06.38.13.71.2.96v.07h-3.3v-.07c.07-.26.15-.58.21-.96.07-.38.13-.86.18-1.43.05-.57.09-1.25.11-2.03.02-.79.04-1.7.04-2.75v-12.08c0-1.05-.01-1.97-.04-2.76-.02-.79-.06-1.46-.11-2.04-.05-.57-.11-1.05-.18-1.44-.07-.38-.14-.71-.21-.96v-.07h1.19Z"/>
    <path class="cls-2" d="M565.25,139.85c.07-.26.14-.58.2-.96.06-.38.12-.86.17-1.43.05-.57.09-1.25.11-2.03.02-.79.04-1.7.04-2.75v-12.08c0-1.05-.01-1.97-.04-2.76-.02-.79-.06-1.46-.11-2.04-.05-.57-.11-1.05-.17-1.44-.06-.38-.13-.71-.2-.96v-.07h4.43v.07c-.07.26-.15.58-.21.96-.07.38-.12.86-.17,1.44-.04.58-.08,1.26-.11,2.04-.03.79-.05,1.71-.05,2.76v12.08c0,1.05.02,1.97.05,2.75.03.79.07,1.46.11,2.03.04.57.1,1.05.17,1.43.07.38.14.71.21.96v.07h-4.43v-.07Z"/>
    <path class="cls-2" d="M577.78,113.32v.07c-.02.06-.04.16-.06.28-.01.12-.02.24-.02.33,0,.38.05.81.16,1.27.1.46.31,1.04.6,1.74l8.22,18.54,7.94-18.39c.19-.46.38-.96.59-1.5.21-.54.32-1.09.32-1.65,0-.15-.01-.28-.04-.38-.02-.11-.05-.18-.07-.23v-.07h3.8v.07c-.24.24-.52.66-.85,1.26-.33.61-.7,1.35-1.09,2.25l-10.63,23.6h-1.48l-10.08-22.69c-.24-.53-.48-1.04-.73-1.54-.25-.49-.49-.94-.71-1.34-.22-.4-.42-.74-.59-1.01-.17-.27-.29-.45-.35-.52v-.07h5.08Z"/>
    <path class="cls-2" d="M606.68,113.3c1.53-.01,2.93-.03,4.2-.05,1.27-.02,2.36-.05,3.27-.08.9-.04,1.52-.09,1.84-.15l-.91,2.47c-.41-.11-.88-.21-1.43-.3-.47-.07-1.04-.15-1.72-.21-.67-.07-1.45-.1-2.33-.1-.3,0-.65,0-1.07.03-.41.02-.81.04-1.2.07-.45.03-.9.05-1.35.07v10.13c1.27-.01,2.42-.05,3.45-.11,1.03-.06,1.9-.12,2.62-.19.84-.07,1.58-.16,2.23-.26l-.58,2.69c-.85-.11-1.73-.22-2.62-.32-.77-.09-1.6-.16-2.5-.23-.9-.07-1.77-.1-2.6-.1v11.63c1.46,0,2.8-.06,4.03-.19,1.22-.12,2.29-.27,3.21-.43,1.06-.17,2.03-.38,2.91-.61l-.54,3.01c-.15-.01-.37-.03-.67-.04-.3-.01-.63-.03-.99-.04-.37-.01-.75-.02-1.15-.03-.4,0-.78-.01-1.14-.02-.36,0-.68-.01-.96-.02-.28,0-.48,0-.6,0h-8.02v-.07c.07-.26.15-.58.21-.96.07-.38.13-.86.18-1.43.05-.57.09-1.25.11-2.03.02-.79.04-1.7.04-2.75v-12.08c0-1.05-.01-1.97-.04-2.76-.02-.79-.06-1.46-.11-2.04-.05-.57-.11-1.05-.18-1.44-.07-.38-.14-.71-.21-.96v-.07c1.55,0,3.08,0,4.61-.02Z"/>
    <path class="cls-2" d="M625.57,132.67c0,1.05.02,1.97.05,2.75.03.79.07,1.46.11,2.03.04.57.1,1.05.17,1.43.07.38.14.71.21.96v.07h-4.45v-.07c.07-.26.15-.58.21-.96.07-.38.13-.86.18-1.43.05-.57.09-1.25.11-2.03.02-.79.04-1.7.04-2.75v-12.08c0-1.05-.01-1.97-.04-2.76-.02-.79-.06-1.46-.11-2.04-.05-.57-.11-1.05-.18-1.44-.07-.38-.14-.71-.21-.96v-.07c.25.03.51.05.78.07.23.03.5.04.79.05.29,0,.59,0,.9,0,.48,0,1.13-.06,1.96-.18.82-.12,1.87-.18,3.15-.18,1.19,0,2.29.16,3.29.48,1.01.32,1.88.79,2.63,1.41.74.62,1.32,1.38,1.73,2.27.41.9.62,1.91.62,3.05,0,.89-.11,1.72-.34,2.48-.23.76-.55,1.45-.96,2.07-.41.62-.91,1.17-1.49,1.64-.58.48-1.23.88-1.95,1.2l6.51,9.15c.32.46.62.85.9,1.19s.54.62.8.85c.25.24.5.43.73.58.23.16.48.28.72.38v.07h-5.36c-.04-.23-.16-.55-.36-.94-.2-.39-.44-.78-.71-1.16l-6.57-9.26c-.61.06-1.23.09-1.87.09s-1.3-.06-1.97-.17v4.17ZM625.57,127.05c1.21.22,2.32.25,3.33.09,1.01-.16,1.87-.51,2.6-1.06.72-.54,1.29-1.28,1.69-2.22.4-.93.6-2.07.6-3.41,0-.93-.11-1.77-.32-2.52-.21-.75-.52-1.39-.94-1.92-.41-.53-.94-.93-1.57-1.22-.63-.29-1.37-.44-2.21-.44-.53,0-1,.02-1.39.06-.4.04-.73.09-1,.14-.32.06-.59.13-.8.2v12.28Z"/>
    <path class="cls-2" d="M656.15,117.55h-.41c-.1-.28-.26-.61-.47-.96-.22-.36-.5-.7-.85-1.01-.35-.31-.78-.58-1.28-.79-.5-.21-1.09-.32-1.77-.32-.61,0-1.14.09-1.61.28-.47.19-.86.45-1.18.78s-.55.73-.71,1.19c-.16.46-.24.96-.24,1.52,0,.89.25,1.74.75,2.55.5.81,1.13,1.61,1.88,2.4.75.79,1.57,1.58,2.45,2.38.88.79,1.69,1.61,2.45,2.47.75.85,1.38,1.75,1.88,2.68.5.93.75,1.94.75,3.02,0,.8-.14,1.61-.42,2.42-.28.81-.71,1.54-1.29,2.18-.58.64-1.33,1.17-2.25,1.57-.92.4-2,.6-3.27.6-.71,0-1.38-.07-2.01-.19-.64-.13-1.22-.29-1.76-.48-.54-.19-1.02-.4-1.45-.62s-.78-.43-1.05-.61l.43-4.1h.46c.14.58.36,1.13.67,1.66.31.53.69.99,1.14,1.39.45.4.97.72,1.55.96.58.24,1.22.36,1.91.36.63,0,1.2-.1,1.7-.29.5-.19.93-.46,1.29-.8.36-.34.63-.75.83-1.22.19-.47.29-.98.29-1.54,0-.78-.14-1.5-.43-2.16-.28-.66-.66-1.29-1.12-1.88s-.99-1.17-1.58-1.73c-.59-.56-1.19-1.12-1.81-1.68-.62-.56-1.22-1.14-1.81-1.74-.59-.59-1.11-1.23-1.58-1.9-.46-.67-.84-1.4-1.12-2.17-.28-.77-.43-1.62-.43-2.55,0-.98.19-1.86.57-2.64.38-.79.88-1.46,1.5-2.01.62-.56,1.33-.98,2.12-1.28.79-.3,1.61-.45,2.45-.45.62,0,1.19.05,1.71.15.52.1.99.22,1.4.35.41.14.78.27,1.09.41.31.14.56.25.76.33l-.13,3.47Z"/>
    <path class="cls-2" d="M663.46,139.85c.07-.26.14-.58.2-.96.06-.38.12-.86.17-1.43.05-.57.09-1.25.11-2.03.02-.79.04-1.7.04-2.75v-12.08c0-1.05-.01-1.97-.04-2.76-.02-.79-.06-1.46-.11-2.04-.05-.57-.11-1.05-.17-1.44-.06-.38-.13-.71-.2-.96v-.07h4.43v.07c-.07.26-.15.58-.21.96-.07.38-.12.86-.17,1.44-.04.58-.08,1.26-.11,2.04-.03.79-.05,1.71-.05,2.76v12.08c0,1.05.02,1.97.05,2.75.03.79.07,1.46.11,2.03.04.57.1,1.05.17,1.43.07.38.14.71.21.96v.07h-4.43v-.07Z"/>
    <path class="cls-2" d="M681.32,114.95c-1.46,0-2.78.06-3.95.2-1.18.13-2.19.27-3.04.42-.99.19-1.87.39-2.65.61l.54-3.01c.15.01.37.03.67.04.3.01.63.03.99.04.36.01.75.02,1.15.03.4,0,.78.01,1.14.02.36,0,.68.01.96.02.28,0,.48,0,.6,0h10.59c.12,0,.32,0,.6,0,.28,0,.6-.01.96-.02.36,0,.74-.01,1.14-.02.4,0,.79-.01,1.15-.03.36-.01.7-.02.99-.04.3-.01.52-.02.67-.04l.54,3.01c-.79-.22-1.68-.43-2.67-.61-.85-.15-1.87-.29-3.04-.42-1.18-.13-2.49-.2-3.95-.2v17.72c0,1.05.02,1.97.05,2.75.03.79.07,1.46.11,2.03.04.57.1,1.05.17,1.43.07.38.14.71.21.96v.07h-4.43v-.07c.07-.26.14-.58.2-.96.06-.38.12-.86.17-1.43.05-.57.09-1.25.11-2.03.02-.79.04-1.7.04-2.75v-17.72Z"/>
    <path class="cls-2" d="M702.57,113.3c1.53-.01,2.93-.03,4.2-.05,1.27-.02,2.36-.05,3.27-.08.9-.04,1.52-.09,1.84-.15l-.91,2.47c-.41-.11-.88-.21-1.43-.3-.47-.07-1.04-.15-1.72-.21-.67-.07-1.45-.1-2.33-.1-.3,0-.65,0-1.07.03-.41.02-.81.04-1.2.07-.45.03-.9.05-1.35.07v10.13c1.27-.01,2.42-.05,3.45-.11,1.03-.06,1.9-.12,2.62-.19.84-.07,1.58-.16,2.23-.26l-.58,2.69c-.85-.11-1.73-.22-2.62-.32-.77-.09-1.6-.16-2.5-.23-.9-.07-1.77-.1-2.6-.1v11.63c1.46,0,2.8-.06,4.03-.19,1.22-.12,2.29-.27,3.21-.43,1.06-.17,2.03-.38,2.91-.61l-.54,3.01c-.15-.01-.37-.03-.67-.04-.3-.01-.63-.03-.99-.04-.37-.01-.75-.02-1.15-.03-.4,0-.78-.01-1.14-.02-.36,0-.68-.01-.96-.02-.28,0-.48,0-.6,0h-8.02v-.07c.07-.26.15-.58.21-.96.07-.38.13-.86.18-1.43.05-.57.09-1.25.11-2.03.02-.79.04-1.7.04-2.75v-12.08c0-1.05-.01-1.97-.04-2.76-.02-.79-.06-1.46-.11-2.04-.05-.57-.11-1.05-.18-1.44-.07-.38-.14-.71-.21-.96v-.07c1.55,0,3.08,0,4.61-.02Z"/>
    <path class="cls-2" d="M724.54,114.95c-1.46,0-2.78.06-3.95.2-1.18.13-2.19.27-3.04.42-.99.19-1.87.39-2.65.61l.54-3.01c.15.01.37.03.67.04.3.01.63.03.99.04.36.01.75.02,1.15.03.4,0,.78.01,1.14.02.36,0,.68.01.96.02.28,0,.48,0,.6,0h10.59c.12,0,.32,0,.6,0,.28,0,.6-.01.96-.02.36,0,.74-.01,1.14-.02.4,0,.79-.01,1.15-.03.36-.01.7-.02.99-.04.3-.01.52-.02.67-.04l.54,3.01c-.79-.22-1.68-.43-2.67-.61-.85-.15-1.87-.29-3.04-.42-1.18-.13-2.49-.2-3.95-.2v17.72c0,1.05.02,1.97.05,2.75.03.79.07,1.46.11,2.03.04.57.1,1.05.17,1.43.07.38.14.71.21.96v.07h-4.43v-.07c.07-.26.14-.58.2-.96.06-.38.12-.86.17-1.43.05-.57.09-1.25.11-2.03.02-.79.04-1.7.04-2.75v-17.72Z"/>
  </g>
</svg>