<?xml version="1.0" encoding="UTF-8"?>
<svg id="Layer_1" data-name="Layer 1" xmlns="http://www.w3.org/2000/svg" viewBox="0 0 740.81 309.83">
  <defs>
    <style>
      .cls-1 {
        fill: #2f3238;
      }

      .cls-2 {
        fill: #ffd616;
      }
    </style>
  </defs>
  <path class="cls-2" d="M133.6,41.48c-50.51,0-91.55,41.04-91.55,91.55s41.04,91.55,91.55,91.55,91.55-41.04,91.55-91.55-41.04-91.55-91.55-91.55h0ZM133.6,266.21C60.12,266.21.43,206.51.43,133.04S60.12-.13,133.6-.13s133.17,59.7,133.17,133.17-59.7,133.17-133.17,133.17h0Z"/>
  <path class="cls-2" d="M185.26,133.04c0,28.41-22.96,51.66-51.66,51.66s-51.66-22.96-51.66-51.66,22.96-51.66,51.66-51.66c28.41.29,51.66,23.25,51.66,51.66h0Z"/>
  <path class="cls-2" d="M409.98,133.04c0,28.41-22.96,51.66-51.66,51.66s-51.66-22.96-51.66-51.66,22.96-51.66,51.66-51.66c28.7.29,51.66,23.25,51.66,51.66h0Z"/>
  <path class="cls-1" d="M167.17,299.5c-4.31,0-8.32-2.01-10.91-4.59l2.3-2.58c2.58,2.3,5.17,4.02,8.61,4.02,4.31,0,6.89-2.01,6.89-5.45,0-3.16-1.72-4.59-7.75-6.89-6.89-2.58-9.47-4.88-9.47-9.47,0-5.17,4.02-8.32,10.05-8.32,4.31,0,7.18,1.44,9.76,3.44l-2.3,2.87c-2.3-2.01-4.59-3.16-7.75-3.16-4.59,0-6.31,2.3-6.31,4.88s1.15,4.31,7.75,6.6c7.18,2.58,9.47,4.88,9.47,9.76.57,4.88-3.44,8.9-10.33,8.9h0Z"/>
  <polygon class="cls-1" points="196.74 269.94 196.74 298.92 193.01 298.92 193.01 269.94 183.53 269.94 183.53 266.49 206.21 266.49 206.21 269.94 196.74 269.94"/>
  <path class="cls-1" d="M224.86,269.36c-5.74,0-9.76,5.17-9.76,13.49s4.31,13.49,10.05,13.49,9.76-5.17,9.76-13.49c-.29-8.04-4.59-13.49-10.05-13.49h0ZM224.86,299.5c-8.04,0-13.49-6.89-13.49-16.65s5.45-16.93,13.49-16.93,13.49,6.89,13.49,16.65c0,10.05-5.45,16.93-13.49,16.93h0Z"/>
  <path class="cls-1" d="M257.29,299.5c-8.04,0-13.2-7.18-13.2-16.65s5.45-16.93,13.2-16.93c4.59,0,7.75,1.72,10.33,5.17l-2.87,2.3c-2.01-2.87-4.02-4.02-7.46-4.02-5.45,0-9.47,5.45-9.47,13.49s4.02,13.49,9.47,13.49c3.44,0,6.03-1.44,8.04-4.31l2.58,2.3c-2.58,3.16-6.03,5.17-10.62,5.17h0Z"/>
  <path class="cls-1" d="M294.89,298.92l-9.47-17.22-6.03,8.04v9.18h-3.73v-32.43h3.73v18.37c.86-1.15,3.44-4.59,4.59-6.31l9.47-12.05h4.02l-9.47,12.34,11.19,20.38h-4.31v-.29Z"/>
  <polygon class="cls-1" points="325.89 298.92 325.89 283.71 309.82 283.71 309.82 298.92 306.37 298.92 306.37 266.49 309.82 266.49 309.82 280.56 325.89 280.56 325.89 266.49 329.62 266.49 329.62 298.92 325.89 298.92"/>
  <path class="cls-1" d="M350,269.36c-5.74,0-9.76,5.17-9.76,13.49s4.31,13.49,10.05,13.49,9.76-5.17,9.76-13.49-4.31-13.49-10.05-13.49h0ZM350.28,299.5c-8.04,0-13.49-6.89-13.49-16.65s5.45-16.93,13.49-16.93,13.49,6.89,13.49,16.65-5.45,16.93-13.49,16.93h0Z"/>
  <polygon class="cls-1" points="369.8 298.92 369.8 266.49 373.53 266.49 373.53 295.77 389.6 295.77 389.6 298.92 369.8 298.92"/>
  <path class="cls-1" d="M422.03,298.92v-25.54c-.29,1.15-1.15,3.73-2.01,5.45l-8.61,20.95-8.61-20.95c-.57-1.72-1.44-4.02-2.01-5.45v25.54h-3.44v-32.43h4.02l7.75,19.52c.86,2.01,2.01,4.88,2.3,6.31.29-1.44,1.44-4.31,2.3-6.31l7.75-19.52h4.02v32.43h-3.44Z"/>
  <polygon class="cls-1" points="136.47 309.83 133.31 309.83 133.31 205.36 136.47 205.36 136.47 309.83"/>
  <path class="cls-1" d="M170.91,248.7c-5.45,0-10.05-2.3-12.63-6.03l4.59-4.31c2.3,2.58,5.17,3.73,8.32,3.73,3.73,0,5.74-1.15,5.74-3.44,0-2.01-1.15-3.16-7.18-4.31-6.03-1.44-10.05-3.16-10.05-9.76,0-6.03,5.17-9.47,11.48-9.47,5.17,0,8.9,2.01,11.77,5.17l-4.59,4.59c-2.01-2.01-4.31-3.44-7.46-3.44-3.44,0-4.59,1.44-4.59,2.87,0,2.01,1.44,2.58,6.6,4.02,5.17,1.15,10.91,2.87,10.91,10.05-.29,6.31-4.02,10.33-12.92,10.33h0Z"/>
  <path class="cls-1" d="M206.78,213.68c-2.01,0-3.73-1.72-3.73-3.44,0-2.01,1.72-3.73,3.73-3.73s3.44,1.72,3.44,3.73c.29,1.72-1.44,3.44-3.44,3.44h0ZM201.9,221.72c-5.17,0-7.46,4.59-7.46,10.33s2.3,10.33,7.46,10.33,7.46-4.59,7.46-10.33c0-5.74-2.3-10.33-7.46-10.33h0ZM196.74,213.68c-2.01,0-3.73-1.72-3.73-3.44,0-2.01,1.72-3.73,3.73-3.73s3.73,1.72,3.73,3.73c0,1.72-1.72,3.44-3.73,3.44h0ZM201.9,248.7c-8.9,0-14.06-6.89-14.06-16.65s5.17-16.65,14.06-16.65,14.06,6.89,14.06,16.65-5.17,16.65-14.06,16.65h0Z"/>
  <path class="cls-1" d="M231.75,222.01h-3.44v19.8h3.16c6.89,0,10.05-4.02,10.05-10.05-.29-6.31-2.87-9.76-9.76-9.76h0ZM231.46,248.12h-9.76v-32.43h10.05c9.18,0,16.07,4.31,16.07,16.36.29,11.48-8.04,16.07-16.36,16.07h0Z"/>
  <polygon class="cls-1" points="254.42 248.12 254.42 215.69 277.1 215.69 277.1 222.01 261.03 222.01 261.03 227.75 270.21 227.75 270.21 234.06 261.03 234.06 261.03 241.81 277.67 241.81 277.67 248.12 254.42 248.12"/>
  <path class="cls-1" d="M299.77,222.01h-8.61v8.32h8.61c3.16,0,4.59-1.44,4.59-4.31s-1.72-4.02-4.59-4.02h0ZM303.5,248.12l-5.74-11.77h-6.6v11.77h-6.6v-32.43h15.21c6.03,0,11.19,3.44,11.19,10.33,0,4.88-2.01,8.04-6.31,9.47l6.31,12.63h-7.46Z"/>
  <polygon class="cls-1" points="331.63 222.01 331.63 248.12 325.03 248.12 325.03 222.01 315.84 222.01 315.84 215.69 340.81 215.69 340.81 222.01 331.63 222.01"/>
  <path class="cls-1" d="M363.49,213.68c-2.01,0-3.73-1.72-3.73-3.44,0-2.01,1.72-3.73,3.73-3.73s3.44,1.72,3.44,3.73c.29,1.72-1.44,3.44-3.44,3.44h0ZM358.61,221.72c-5.17,0-7.46,4.59-7.46,10.33s2.3,10.33,7.46,10.33,7.46-4.59,7.46-10.33-2.3-10.33-7.46-10.33h0ZM353.44,213.68c-2.01,0-3.73-1.72-3.73-3.44,0-2.01,1.72-3.73,3.73-3.73s3.73,1.72,3.73,3.73c0,1.72-1.72,3.44-3.73,3.44h0ZM358.61,248.7c-8.9,0-14.06-6.89-14.06-16.65s5.17-16.65,14.06-16.65,14.06,6.89,14.06,16.65-5.17,16.65-14.06,16.65h0Z"/>
  <path class="cls-1" d="M393.33,222.01h-8.61v8.32h8.61c3.16,0,4.59-1.44,4.59-4.31s-1.72-4.02-4.59-4.02h0ZM397.35,248.12l-5.74-11.77h-6.6v11.77h-6.6v-32.43h15.21c6.03,0,11.19,3.44,11.19,10.33,0,4.88-2.01,8.04-6.31,9.47l6.31,12.63h-7.46Z"/>
  <path class="cls-1" d="M432.08,248.12l-12.05-17.79c-.86-1.15-1.72-2.87-2.3-3.73v21.53h-6.31v-32.43h6.31l11.48,17.22c.86,1.15,1.72,2.87,2.3,3.73v-20.95h6.31v32.43h-5.74Z"/>
  <path class="cls-1" d="M472.55,248.7c-7.75,0-13.2-5.17-13.2-14.64v-18.37h6.6v18.08c0,5.17,2.58,8.61,6.6,8.61s6.6-3.16,6.6-8.32v-18.37h6.6v18.08c0,9.47-4.88,14.92-13.2,14.92h0Z"/>
  <path class="cls-1" d="M513.3,248.12l-12.05-17.79c-.86-1.15-1.72-2.87-2.3-3.73v21.53h-6.31v-32.43h6.31l11.48,17.22c.86,1.15,1.72,2.87,2.3,3.73v-20.95h6.31v32.43h-5.74Z"/>
  <polygon class="cls-1" points="527.94 248.12 527.94 215.69 534.54 215.69 534.54 248.12 527.94 248.12"/>
  <path class="cls-1" d="M558.94,248.12h-6.31l-11.48-32.43h7.18l6.03,18.66c.57,1.72,1.15,4.31,1.44,5.45.29-1.15.86-3.44,1.44-5.45l6.03-18.66h7.18l-11.48,32.43h0Z"/>
  <polygon class="cls-1" points="575.58 248.12 575.58 215.69 597.97 215.69 597.97 222.01 581.9 222.01 581.9 227.75 591.37 227.75 591.37 234.06 581.9 234.06 581.9 241.81 598.83 241.81 598.83 248.12 575.58 248.12"/>
  <path class="cls-1" d="M619.78,222.01h-8.61v8.32h8.61c3.16,0,4.59-1.44,4.59-4.31,0-2.87-1.72-4.02-4.59-4.02h0ZM623.51,248.12l-5.74-11.77h-6.6v11.77h-6.6v-32.43h15.21c6.03,0,11.19,3.44,11.19,10.33,0,4.88-2.01,8.04-6.31,9.47l6.31,12.63h-7.46Z"/>
  <path class="cls-1" d="M647.91,248.7c-5.45,0-10.05-2.3-12.63-6.03l4.59-4.31c2.3,2.58,5.17,3.73,8.32,3.73,3.73,0,5.74-1.15,5.74-3.44,0-2.01-1.15-3.16-7.18-4.31-6.03-1.44-10.05-3.16-10.05-9.76,0-6.03,5.17-9.47,11.48-9.47,5.17,0,8.9,2.01,11.77,5.17l-4.59,4.59c-2.01-2.01-4.31-3.44-7.46-3.44-3.44,0-4.59,1.44-4.59,2.87,0,2.01,1.44,2.58,6.6,4.02,5.17,1.15,10.91,2.87,10.91,10.05,0,6.31-4.02,10.33-12.92,10.33h0Z"/>
  <polygon class="cls-1" points="667.14 248.12 667.14 215.69 673.74 215.69 673.74 248.12 667.14 248.12"/>
  <polygon class="cls-1" points="695.26 222.01 695.26 248.12 688.66 248.12 688.66 222.01 679.48 222.01 679.48 215.69 704.73 215.69 704.73 222.01 695.26 222.01"/>
  <path class="cls-1" d="M727.41,235.5v12.92h-6.6v-12.63l-12.34-19.8h7.46l4.59,7.75c1.15,2.01,2.87,5.17,3.44,6.31.57-1.15,2.3-4.31,3.44-6.31l4.59-7.75h7.46l-12.05,19.52h0Z"/>
</svg>