<?xml version="1.0" encoding="UTF-8"?>
<svg id="Layer_1" data-name="Layer 1" xmlns="http://www.w3.org/2000/svg" viewBox="0 0 740.81 231.54">
  <defs>
    <style>
      .cls-1 {
        fill: #002f5f;
      }
    </style>
  </defs>
  <g id="Group_33" data-name="Group 33">
    <g id="Group_27" data-name="Group 27">
      <path id="Path_1187" data-name="Path 1187" class="cls-1" d="M190.54,23.09c.18.21.09.35-.1.52-.35.28-2.28,3.13-2.51,3.48-.14.23-.17-.18-.09-.41.66-1.91.1-4.03-1.39-5.39-1.56-1.19-3.78-.88-4.95.68-.01.03-.04.05-.05.08-1.21,1.8-1.25,3.44,0,8.16,1.3,4.91.76,6.72-1.03,8.8-2.41,2.38-6.21,2.64-8.92.61-3.49-2.44-3.64-2.99-4.18-3.21-.43-.18-.41-.52,0-1.03.62-.73,2.69-3.55,3.04-4.07.23-.36.28.05.04.58-1.08,2.11-.52,4.69,1.35,6.15,1.52,1.42,3.91,1.33,5.32-.19.08-.09.15-.18.23-.27,1.03-1.24,1.64-2.44.18-8.07-1.55-5.94-.48-7.89,1.77-9.64,2.31-1.88,5.63-1.86,7.92.05.9.71,1.74,1.47,2.54,2.29.28.28.44.59.59.73s.15.04.24.15Z"/>
      <path id="Path_1188" data-name="Path 1188" class="cls-1" d="M4.12,90.26c.08-.21.31-.1.61,0,1.22.34,2.48.55,3.74.66.63,0-.44.48-.76.52-.89.12-2.64.63-3.44,3.57-.54,1.68.37,3.47,2.05,4.01.09.03.17.05.26.08,2.58.52,3.94-.46,7.72-3.51,2.29-2.48,5.72-3.55,9.01-2.82,3.11,1.11,4.89,4.38,4.13,7.59-.35,1.69-1.02,3.3-1.99,4.74-.15.44-.36.59-1.01.41-.83-.23-3.93-.68-4.49-.75-1.01-.12-.58-.52,0-.57,1.6-.21,5.08-.64,5.78-4.06.46-1.78-.61-3.58-2.37-4.05-.1-.03-.22-.05-.32-.06-1.59-.39-3.31-.34-7.77,3.36-4.81,3.98-6.86,3.97-9.45,2.8-2.71-1.19-4.11-4.2-3.29-7.05.27-1.47.76-2.89,1.46-4.2.14-.17.09-.53.14-.67Z"/>
      <path id="Path_1189" data-name="Path 1189" class="cls-1" d="M151.5,230.5c-.34,0-.27-.28-.32-.52,0,0-.85-2.82-.93-3.06-.08-.22.17-.31.34-.1,1.22,1.35,3.08,1.95,4.86,1.55,1.91-.45,3.11-2.35,2.69-4.27-.67-2.06-2.69-3.03-7.13-5.07-4-1.84-5.29-3.69-5.67-5.98-.34-3.45,1.82-6.66,5.16-7.67,3.34-1.03,4.13-.93,4.8-1.26.52-.27.58.79.64.98.32.89,1.19,3.66,1.39,4.18.21.52-.18.66-.43.13-1.15-2.02-3.47-3.07-5.74-2.58-2.98.97-3.42,3.09-3,4.5.46,1.55.73,2.8,6.34,5.16,5.45,2.29,6.52,4.64,6.55,7.28-.18,3.02-2.42,5.52-5.41,6.01-.88.23-1.78.36-2.69.4-.4.06-.71.09-.92.12s-.26.21-.53.21Z"/>
      <path id="Path_1190" data-name="Path 1190" class="cls-1" d="M193.19,29.25c.8-.35,1.56-.79,2.24-1.33.28-.23.83,0,1.16.34.22.22,5.09,5.04,6.05,6.07,1.3,1.38,5.62,5.35,6.17,5.89.55.54,1.08.83.52,1.2-.57.36-1.75,1.03-2.11,1.22-.36.19-.24.04-.24-.36s-.28-1.03-1.5-2.28c-1.21-1.25-2.6-2.71-2.86-2.91s-.35-.24-.57-.05c-.35.31-5.12,5.16-6.17,6.27-2.67,2.5-5.14,5.21-7.4,8.08-.19.99.13,1.2.26,1.38s.28.99-.03.68-2.31-2.49-2.77-2.93-2.41-2.06-2.69-2.33-.08-.41.4-.22c.66.37,1.46.39,2.13.04,2.67-2.14,5.18-4.49,7.52-6.99.76-.76,5.93-6.15,6.07-6.3.23-.26.32-.39,0-.8-1.31-1.38-2.72-2.68-4.19-3.89-.41-.34-.93-.53-1.46-.55-.43,0-.97-.01-.52-.22Z"/>
      <path id="Path_1191" data-name="Path 1191" class="cls-1" d="M15.54,68.01c-.45-.52-1.55-1.43-2.15-1.95-.28-.23-.13-.54.13-.95.15-.26,3.57-6.54,4.36-7.72,1.03-1.6,4.13-6.74,4.5-7.41.39-.67.67-1.17.99-.88.55.55,1.07,1.16,1.55,1.79.27.39.12.19-.28.19s-.93.81-1.87,2.28c-.67,1.07-1.28,2.17-1.82,3.3-.19.41.08.52.31.7.4.26,6.05,3.75,7.39,4.54,3.09,1.91,6.36,3.55,9.72,4.9,1.03-.05,1.01-.22,1.19-.35.28-.21.86-.3.58,0-.75.97-1.42,1.97-2.02,3.03-.48.85-1.57,2.89-1.71,3.21s-.15-.21-.13-.64c.03-.52.35-.99-.43-1.62-1.37-1.12-7.86-4.92-8.75-5.48s-7.26-4.15-7.72-4.31c-.34-.12-.61-.52-.86-.04-1.13,1.75-2.1,3.61-2.87,5.56-.12.43-.12.89-.03,1.31.14.57.17.77-.05.54Z"/>
      <path id="Path_1192" data-name="Path 1192" class="cls-1" d="M44.64,29.85c-.31-.86-.72-1.69-1.21-2.46-.21-.41-.22-.4.34-.85.24-.19,5.93-4.4,7.05-5.26,1.55-1.19,6.77-4.71,7.39-5.16s1.31-.72,1.55-.15c.23.57.85,2.1.97,2.49.15.57-.08.14-.49-.21-.31-.28-.88-.23-2.33.75-1.46.98-3.49,2.32-3.76,2.58s-.23.26-.1.52c.32.64,4.07,6.15,5.13,7.54,2.13,3.13,4.49,6.11,7.04,8.91.39.19.84.21,1.24.05.31-.06.68.04.17.34s-2.06,1.34-2.63,1.71c-.57.37-2.02,1.5-2.53,1.95-.61.52-.44-.04-.17-.4s.46-.59.08-1.5c-1.65-2.94-3.48-5.79-5.48-8.51-.62-.88-5.56-7.48-5.88-7.9-.18-.23-.23-.31-.67,0s-4.28,3.24-4.85,3.76c-.44.43-.67.52-.72,1.08-.03.32-.01,1.15-.12.72Z"/>
      <path id="Path_1193" data-name="Path 1193" class="cls-1" d="M218.64,52.14c4.83,4.92,4.76,12.83-.17,17.66-.23.23-.49.46-.75.67-5.04,4.29-12.53,4.03-17.25-.61-4.73-5.03-4.5-12.93.52-17.66,4.72-4.89,12.5-5.03,17.4-.31.08.09.17.17.24.24ZM203.98,55.16c-4.27,3.09-5.21,9.06-2.1,13.33.06.09.13.17.19.26,4.2,3.18,10.2,2.44,13.48-1.7,4.31-3.31,5.12-9.47,1.8-13.78-.13-.17-.26-.34-.4-.49-2.38-2.09-7.68-2.77-12.98,2.38h0Z"/>
      <path id="Path_1194" data-name="Path 1194" class="cls-1" d="M225.69,170.43c-2.22,6.43-9.24,9.86-15.68,7.63-.44-.15-.86-.32-1.28-.53-5.81-2.67-8.75-9.24-6.85-15.35,2.32-6.38,9.36-9.69,15.77-7.41,6.51,2.17,10.09,9.13,8.03,15.66ZM216.49,158.44c-4.49-2.46-10.12-.83-12.59,3.66-.1.18-.19.37-.28.57-1.11,3.26.18,8.16,7.4,10.87,7,2.62,12.26,0,13.46-4.69.45-1.75.55-7.35-7.98-10.4Z"/>
      <path id="Path_1195" data-name="Path 1195" class="cls-1" d="M216.6,98.58c-1.06-.04-2.11-.15-3.16-.34-.72-.15-.83-.17-1.03-.46-2.09-2.71-3.24-6.03-3.24-9.46-.48-5.79,3.16-11.12,8.71-12.83,4.95-1.35,10.24.43,13.36,4.51,1.73,2.45,2.71,5.35,2.8,8.34.12,1.77.27,2.82.35,3.39.15.95.14,1.21.35,1.47s-.09.52-.45.52-1.75.23-2.46.4c-.52.13-1.61.43-1.75.46-.76.18-.73,0-.14-.46,1.29-.67,2.18-1.91,2.42-3.34.63-3.31-.28-6.73-2.5-9.27-2.99-3.09-7.66-3.87-11.5-1.92-4.25,1.6-7.12,5.62-7.21,10.17-.23,3.6,1.89,6.94,5.26,8.24.8.31,1.26.55.19.58Z"/>
      <path id="Path_1196" data-name="Path 1196" class="cls-1" d="M236.44,101.53c0,.93.43,5.12.59,5.93.21.98-.23.52-.28.18-.15-.54-.62-.93-1.17-.98-3.42.04-6.83.3-10.21.76,2.81,2.51,5.76,4.85,8.87,7,.7.58,1.48,1.03,2.32,1.34.22,0,.1.17.21-.12.13-.39.52-1.64.46.26,0,.45-.04,1.82,0,2.17s.17,1.3.19,1.51c.14,1.03-.03.81-.79-.12-1.34-1.39-2.81-2.63-4.41-3.71-.84-.61-6.15-4.64-6.15-4.64,0,0-7.63,7.24-9.08,8.83-1.13,1.13-2.13,2.4-2.98,3.76-.24.55-.45.83-.36.3.06-.34.3-2.42.35-3.34.05-.8.13-3.27.14-3.52.03-.52.23-.13.52-.05,1.83-1.16,3.48-2.59,4.91-4.23,1.79-1.77,4.77-5,5-5.31-2.49.17-4.96.46-7.41.88-.94.12-1.84.44-2.64.95-.28.26-.46.59-.52.98-.04.31-.34.45-.39.05-.05-.41-.14-2.58-.19-3.35s-.31-2.58-.36-2.84.21-.46.36-.1c.1.35.37.61.71.71.85.34,2,.35,10.42-.64,3.34-.23,6.66-.71,9.93-1.43.89-.23,1.44-.57,1.55-1.31.05-.43.44-1.28.41.09Z"/>
      <path id="Path_1197" data-name="Path 1197" class="cls-1" d="M236.6,130.45c-.17.76-.85,4.91-.85,5.75s-.39.85-.49.28c-.03-.49-.34-.93-.79-1.12-1.34-.55-2.75-.9-4.19-1.03-2.91-.46-4.82-.8-4.82-.8,0,0-.9,3.84-1.41,6.17-.63,2.93-1.33,6.79-1.33,6.79l5.62,1.59c1.51.41,3.82,1.37,4.55.13.52-.88.84-.68.35.26-.17.34-1.2,4.32-1.35,5.12-.31,1.48-.52.54-.44.19.08-.35.35-.95-.95-1.47-1.3-.52-5.7-2-9.58-3.09-3.25-1.16-6.63-1.95-10.06-2.37-.88.08-1.11.27-1.31.57-.3.41-.81.54-.4-.14.68-1.73,1.2-3.51,1.55-5.32.26-1.73.52-.52.49-.19-.05.57.27,1.11.8,1.33,2.9,1.17,5.88,2.14,8.91,2.9,0,0,.9-3.55,1.5-6.28.71-3.22,1.19-6.41,1.19-6.41,0,0-1.78-.28-3.04-.52-2.17-.4-4.36-.64-6.56-.71-.45.13-.83.45-1.01.89-.09.3-.67.85-.35-.21.39-1.74.64-3.49.76-5.27.08-1.48.46-.84.48-.41.06.43.31.8.67,1.03,3.27.97,6.63,1.61,10.03,1.92,3.55.71,7.14,1.1,10.74,1.16.83-.28.77-.59.93-.94.15-.35.61-.88.37.21Z"/>
      <path id="Path_1198" data-name="Path 1198" class="cls-1" d="M213.47,188.94c-1.42,1.41-2.72,2.93-3.89,4.52-.61.83-.52.17-.36-.15.3-.59.12-.79-.12-1.3-2.14-2.36-4.51-4.49-7.06-6.38-2.41-2.36-5.13-4.38-8.1-6.02-.52,0-.94-.06-1.99.89-1.44,1.34-2.73,2.85-3.84,4.47-.39.73-.55,1.57-.48,2.41,0,.57-.17.52-.36,0-.34-1.03-.59-2.09-.79-3.16-.04-.32.09-.63.34-.84.58-.63,5.52-6.23,6.24-7.03.83-.89,1.59-1.83,2.29-2.82.46-.8.62-.23.48.18-.3.49-.37,1.08-.23,1.64,2.27,2.71,4.91,5.08,7.84,7.06,2.6,2.53,5.53,4.71,8.69,6.47.43.06.85-.08,1.16-.36.23-.21.85-.05.18.41Z"/>
      <path id="Path_1199" data-name="Path 1199" class="cls-1" d="M183.23,188.7c.26.64,2.77,4.96,5.39,9.36,2.72,4.54,5.67,9.27,6.06,9.99.8,1.39.83,1.73-.55,1.03-2-.99-10-5.03-11.33-5.67-1.33-.64-7.88-3.97-7.88-3.97,0,0,1.42,10.69,1.55,11.28.13.61,1.26,9.5,1.33,9.95s.06,1.16-.75.4c-.8-.76-13.45-16.89-14.08-17.62-.45-.58-1.12-.97-1.84-1.08-.34-.06-.67-.05-.99.05-.32.12-.57-.18-.1-.36.57-.22,5.08-2.54,5.52-2.82.28-.17.67.05.23.32-.57.35-.64.59-.52,1.11.28,1.22,9.44,12.59,9.44,12.59,0,0-1.55-10.21-1.82-11.51-.27-1.3-1.16-7.32-1.16-7.32,0,0,0-.39.39-.18.39.21,9.33,4.77,10.3,5.23s6.69,3.3,6.69,3.3c0,0-5.03-8.16-7.1-11.41-.3-.57-.77-1.01-1.35-1.25-.71-.14-.93.15-1.34.34-.21.09-.52-.17.09-.52.73-.45,1.43-.95,2.09-1.51.52-.4,1.8-1.64,2.01-1.84s.52.05.3.27c-.63.39-.88,1.19-.55,1.84Z"/>
      <path id="Path_1200" data-name="Path 1200" class="cls-1" d="M128,219.74c-.05.43.08,5.36.13,5.98,0,.28-.23.21-.4-.43-.15-.49-.54-.86-1.03-1.01-1.83-.23-3.69-.27-5.54-.1-.12,2.14.05,4.28.49,6.38.57.62.66.55.9.61.26.05.86.37.46.34-.77-.08-5.08-.08-6.05.03-.71.08-.35-.26.24-.39.59-.13.9-.46,1.12-1.21.17-1.92.21-3.85.12-5.79-1.97-.06-3.96.04-5.92.31-.43.24-.7.7-.71,1.19-.05.41-.49.77-.43.22.13-1.78.14-3.56.05-5.34-.1-.71.06-.61.3-.18.28.52.19.81.8,1.06,1.96.19,3.93.27,5.9.21,0,0,.04-4.86-.1-5.61-.09-.64-.59-1.15-1.25-1.24-.35-.03-.67-.35-.21-.3,1.92.14,3.85.14,5.78,0,.62-.06.26.27-.21.39-.61.12-1.1.58-1.22,1.19-.19.75-.17,5.53-.17,5.53,0,0,4.52.05,5.35-.12.62-.1,1.11-.59,1.21-1.21.1-.41.43-.92.37-.5Z"/>
      <path id="Path_1201" data-name="Path 1201" class="cls-1" d="M86.97,231.37c-2.09-1.02-4.29-1.8-6.56-2.35-.72-.12-.05-.31.4-.27.59.05,1.1.13,1.55-.32,2.53-4.81,4.58-9.84,6.15-15.03,1.17-3.15-.41-6.64-3.56-7.81-.23-.09-.46-.15-.71-.22-5.16-1.84-7.21.97-10.02,6.24-2.04,3.69-3.8,7.53-5.3,11.46-.04.43.15.84.52,1.07.46.37.72.98.28.63-1.79-1.11-3.69-2.04-5.67-2.75-.44-.14-.09-.39.46-.27.46.1.67,0,1.12-.32,2.73-4.29,5.22-8.71,7.49-13.28,1.35-2.5,3.73-4.31,6.5-4.92,4.24-.43,8.38,1.39,10.96,4.78,1.53,2.4,1.92,5.36,1.03,8.08-.52,2.13-5.16,12.49-5.16,13.91-.03.4.17.77.52.98.28.21.45.66,0,.39Z"/>
      <path id="Path_1202" data-name="Path 1202" class="cls-1" d="M54.48,217.53s-.97-10.49-1.26-14.12c-.34-4.22-1.39-12.36-1.39-12.36,0,0-8.24,8.92-9.31,10-1.07,1.08-2.06,2.15-2.06,2.89,0,.43.17.84.46,1.16.1.21.28.93.08.67-.71-.81-1.47-1.57-2.26-2.29-.7-.63-1.42-1.22-2.18-1.77-.57-.37.13-.31.44-.12.32.24.73.34,1.13.24,3.17-2.76,6.15-5.74,8.91-8.91,2.2-2.29,7.14-7.72,7.66-8.43.36-.52.36-.28.4.26.05.67.92,11.46,1.1,12.71.17,1.16.72,8.5.8,9.32s.32,3.57.32,3.57c0,0,3.79-5.44,5.05-7.41,1.53-1.97,2.84-4.13,3.89-6.39.01-.64-.31-1.24-.85-1.59-.17-.18-.31-.62.08-.28,1.61,1.35,3.36,2.51,5.22,3.49.8.37-.4.14-.61.05-.5-.15-1.04-.15-1.55,0-2.41,2.82-4.6,5.83-6.55,8.99-.98,1.43-3.84,5.44-4.51,6.54-.67,1.08-2.2,3.34-2.51,3.91-.3.52-.43.48-.5-.13Z"/>
      <path id="Path_1203" data-name="Path 1203" class="cls-1" d="M43.86,173.6c.57.98,1.21,1.91,1.92,2.8.73.92,1.52,1.77,2.37,2.58.45.43-.18.27-.59-.04-.41-.31-.89-.45-2.2.26-1.55.83-15.06,12.21-15.57,12.88-.63.77-.58,1.16-.31,1.75.21.46.06.86-.12.57-1.17-1.82-2.51-3.52-4.01-5.08-.59-.44.03-.34.41-.1.39.22.52.22.98,0,5.98-4.23,11.68-8.86,17.04-13.86.15-.44.1-.93-.13-1.33-.01-.35-.09-.94.21-.43Z"/>
      <path id="Path_1204" data-name="Path 1204" class="cls-1" d="M32.14,81.65c-1.07,2.13-1.95,4.33-2.62,6.61-.13.59-.43-.03-.34-.46.15-.75.26-1.13-.98-1.96-6.21-2.86-12.62-5.25-19.18-7.17-.54-.05-1.06.23-1.3.71-.26.34-.8.48-.46,0,1.02-2.13,1.89-4.32,2.62-6.56.12-.72.4,0,.32.41-.18.48-.06,1.01.3,1.35,6.45,3.18,13.17,5.78,20.08,7.72.88-.14.79-.44,1.08-.71.28-.27.89-.57.48.05Z"/>
      <path id="Path_1205" data-name="Path 1205" class="cls-1" d="M26.14,169.91l5.12-6.83s-8.97.49-10.89.64c-1.92.15-7.5.4-8.13,1.3-.41.61,0,1.28,0,1.48.08.41,0,1.06-.21.57-.1-.31-.8-2.13-1.35-3.39-.52-1.13-1.16-2.51-1.33-2.77-.28-.41.19-.31.46,0,.3.37.73.63,1.21.72,3.74.14,7.49.09,11.22-.15,1.61-.06,13.47-.84,14.46-.75.52.05,1.01-.21.36.77-.36.55-7.44,9.82-7.98,10.57-2.63,3.3-5.05,6.75-7.26,10.34-.08.46-.05.93.08,1.38.08.36.03,1.35-.1,1.03-1.16-2.24-2.49-4.38-3.98-6.43-.52-.66.17-.21.57-.06.4.15.64.05,1.1-.26,2.44-2.55,4.65-5.29,6.66-8.16Z"/>
      <path id="Path_1206" data-name="Path 1206" class="cls-1" d="M26.88,136.19c.34.97,1.38,5.22,1.91,7.08.18.66,1.35,4.99,1.71,5.71.17.35-.61-.21-.76-.57-.05-.28-.21-.53-.45-.7-.24-.14-.52-.22-.8-.23-3.52.7-6.99,1.66-10.36,2.86-3.39.86-6.7,2.05-9.87,3.55-.41.36-.55.94-.37,1.46.05.34-.21,1.55-.34.79-.19-1.34-.48-2.67-.83-3.97-.52-1.78-2.58-9.13-2.67-9.44-.17-.41-.19-.57.12-.68.93-.31,1.84-.67,2.75-1.08.64-.39.4.17.04.54s-.52.55-.46,1.7c.44,2.17,1.01,4.31,1.71,6.39,0,0,3.03-.8,4.02-1.16.99-.36,4.28-1.33,4.28-1.33-.52-2.08-1.16-4.11-1.95-6.11-.48-.63-.8-.52-1.29-.46-.36.03-.98-.23-.52-.34,1.78-.39,3.51-.93,5.18-1.61.58-.28,0,.44-.27.59-.49.26-.77.79-.72,1.34.1,1.11.36,2.2.75,3.26.22.62.84,2.73.84,2.73,0,0,5.48-1.59,6.39-2.01.92-.44,1.62-.44,1.43-2.26-.31-2.17-.97-4.27-1.95-6.23-.34-.53-.77-.99-1.28-1.35-.21-.17-.93-.77-.52-.63,1.26.4,2.5.88,3.71,1.42.24.14.45.41.55.73Z"/>
      <path id="Path_1207" data-name="Path 1207" class="cls-1" d="M53.8,49.91c-.66.7-5.47,5.9-6.82,7.43-.45.52-1.55,1.74-1.84,2.11-.24.28-.36-.28-.15-.63.32-.37.37-.9.15-1.34-2.55-2.86-5.36-5.47-8.39-7.81-2.4-2.33-5.01-4.43-7.82-6.27-.52-.12-1.04-.04-1.5.24-.31.15-1.03.46-.52-.04.52-.5,1.31-1.38,2.46-2.63,1.25-1.35,6.39-6.69,6.6-6.97s.41-.36.63-.13c.64.68,1.33,1.33,2.06,1.92.77.46.08.41-.32.32-.41-.09-.55-.22-1.39.27-1.64,1.37-3.13,2.89-4.47,4.54l6.15,5.67s4.28-3.98,4.36-4.8c.06-.35.04-.7-.09-1.03-.1-.32-.06-.89.21-.52.99,1.22,2.13,2.35,3.36,3.31.52.39-.09.39-.39.26-.45-.19-.62-.52-1.46-.1-1.53,1.37-2.95,2.85-4.27,4.43,0,0,4.38,3.76,5.21,4.36,1.07.79,1.84.98,2.91,0,1.59-1.37,2.96-2.94,4.13-4.69.26-.59.36-1.25.3-1.89.03-.39.26-.85.32-.54s.97,3.09,1.03,3.55c.05.45-.05.55-.45.98Z"/>
      <path id="Path_1208" data-name="Path 1208" class="cls-1" d="M25.18,124.45c.04.52.17,2.98.34,4.07.09.62-.28-.15-.37-.46-.05-.39-.3-.72-.64-.89-3.44-.23-6.9-.09-10.3.44-3.84.13-7.66.64-11.4,1.55-.4.41-.59.98-.52,1.55,0,.34-.59,1.43-.58.61,0-.52,0-2.71-.13-3.48-.37-2.64-.5-5.31-.39-7.97.59-2.87,3.06-5,5.99-5.16,2.54-.01,4.85,1.44,5.94,3.73.43-.57.95-1.06,1.55-1.44,3.48-2.04,6.75-4.38,9.78-7.04.24-.49.31-1.04.19-1.59-.08-.93.13-1.59.58,0,.44,1.75.19,3.61-.68,5.2-2.02,2.05-4.31,3.82-6.79,5.26-1.03.71-3.44,2.06-3.44,3.48-.01.7.05,1.38.19,2.06,0,0,3.53-.36,4.49-.46,1.77-.04,3.52-.34,5.2-.9.28-.26.45-.64.44-1.03.04-.27.61-1.46.57.08-.09.52-.06,1.89-.01,2.41ZM10.78,118.67c-2.5-1.6-5.81-.94-7.52,1.5-.62,1.59-.79,3.3-.48,4.98l5.08-.34c.8-.05,5.23-.36,5.23-.36,0,0,.45-4.13-2.32-5.79h0Z"/>
      <path id="Path_1209" data-name="Path 1209" class="cls-1" d="M113.32,46.4c-3.08-3.67-4.77-8.31-4.78-13.1.12-3.02,1.26-5.92,3.25-8.2l1.19-1.46c2.94-2.91,4.63-6.87,4.68-11.02.15-2.59-.14-5.2-.86-7.68-1.06,8.3-5.29,15.87-11.81,21.12-2.94,2.55-7.85,6.81-7.85,12.13.34,5.94,2.67,11.59,6.6,16.05-1.17-3.04-1.78-6.27-1.78-9.53-.03-2.22.24-4.42.8-6.56l.09-.3.15.27c2.28,3.96,5.97,6.91,10.33,8.28Z"/>
      <path id="Path_1210" data-name="Path 1210" class="cls-1" d="M114.84,23.59c2.58-.99,11.82-5.04,11.82-11.52-.36-4.13-2.11-8.02-4.99-11.01,2.72,8.2-.01,17.22-6.83,22.53Z"/>
      <path id="Path_1211" data-name="Path 1211" class="cls-1" d="M149.56,11.16c-3.47,3.26-7.55,5.76-12.03,7.37l-.15-.22c3.8-4.42,6.2-9.87,6.9-15.66-7.31,11.51-11.77,13.5-16.93,15.77l-2.26,1.03c-6.17,2.93-13.26,7.1-13.26,13.66-.49,4.77.93,9.54,3.94,13.26-.55-1.89-.84-3.84-.86-5.81-.04-1.33.13-2.67.52-3.94l.19-.52.08.52c1.35,4.15,4.06,7.73,7.7,10.17-.1-1.03-.17-2.08-.15-3.12,0-4.83,1.12-13.39,8.62-16.6,13.54-5.79,16.91-13.26,17.7-15.91Z"/>
      <path id="Path_1212" data-name="Path 1212" class="cls-1" d="M138.34,37.97c-.53-4.68.39-9.41,2.62-13.56-9.67,3.75-16.06,13.03-16.13,23.4,0,.58,0,1.03.05,1.35,1.65-4.56,4.47-8.62,8.19-11.76l.09-.08.09.05s.05.04.05.17c-.57,3.58-1.31,7.14-2.26,10.65,1.31-.83,7.3-4.98,7.3-10.22Z"/>
      <path id="Path_1213" data-name="Path 1213" class="cls-1" d="M151.12,37.1c0-1.89-.35-3.79-1.03-5.57-.62,2.14-1.83,4.06-3.49,5.54h0l-.19-.19c1.19-1.86,1.73-4.06,1.51-6.27-.01-1.56-.15-3.11-.44-4.64-.12-.66-.18-1.33-.18-2,.08-2.75.89-5.41,2.36-7.72-3.74,2.85-6.41,6.87-7.58,11.42-.8,2.81-1.43,5.66-1.91,8.53-.14,1.02-.36,2.04-.66,3.03-1.03,3.62-2.44,7.14-4.19,10.48,2.69-1.7,4.83-4.14,6.17-7.03l.19-.39.08.43c.12.88.17,1.75.15,2.64.03,2.5-.46,4.99-1.43,7.3,1.92-1.53,10.64-8.87,10.64-15.57Z"/>
      <path id="Path_1214" data-name="Path 1214" class="cls-1" d="M166.58,22.61c-2.96-2.18-6.75-2.89-10.3-1.92l-.44.14.28-.36c1.87-2.27,4.14-4.18,6.69-5.62-3.94-.8-8.02.57-10.69,3.56-1.64,2.91-2.42,6.23-2.28,9.57,0,.7,0,1.22.05,1.59,2.99-5.2,3.34-5.18,3.44-5.16l.13.05v.1c.12.66.17,1.33.15,2-.06,2.27-.28,4.52-.67,6.75,5.32-10.17,11.86-10.75,13.63-10.7Z"/>
      <path id="Path_1215" data-name="Path 1215" class="cls-1" d="M122.92,203.01l.55-24.49c.37.53.72,1.08,1.03,1.66.43.93.77,1.91,1.03,2.9.53.57.89,1.26,1.03,2.02.18,1.2.75,5.23.95,6.17.19.95.18,1.7.75,1.7,3.27,0,5.1-5.41,4.41-7.13-.67-1.37-1.52-2.64-2.53-3.78,0,0-1.77-5.61-2.06-6.3s-1.57-1.33-1.95-1.57c-.19-.13-1.34-1.26-2.45-2.37l.15-6.87c-.36.03-.72.03-1.08,0-2.94.04-5.78-1.12-7.85-3.21l1.2,41.24,6.81.03ZM131.17,189.61c-1.44,2.01-1.64,2.06-2.14,2.06s-.52-2.2-.18-3.34c.34-1.13,1.13-2.33,2.2-2.27.88.08,1.57,1.53.12,3.55h0Z"/>
      <path id="Path_1216" data-name="Path 1216" class="cls-1" d="M177.31,109.85c2.66.84,5.41,1.34,8.19,1.51,4.68-.66,9-2.85,12.29-6.24,1.69-1.17,3.45-2.22,5.29-3.15,0,0-3.4-.06-7.68-.44-3.98-.32-7.99.14-11.78,1.38-2.15.79-4.11,2.04-5.74,3.65-.64.73-1.47,1.28-2.4,1.57-1.26.31-2.33.57-2.33.57.3-1.11.89-2.1,1.7-2.9,2.22-1.52,4.27-3.27,6.11-5.23,2.95-3.53,5.45-7.43,7.44-11.58.31-1.2,2.9-7,2.9-7-2.11,1.51-4.33,2.89-6.61,4.13-3.64,1.92-6.73,4.71-9.01,8.13-1.55,2.91-2.37,6.16-2.4,9.46-.18,3.12-1.48,6.07-3.65,8.31-2.02,2.19-4.22,4.24-6.55,6.11-1.15.88-2.45,1.53-3.84,1.95-.86.18-1.77.23-2.64.13,0,0,1.33-1.7,2.14-1.95,2.24-.76,4.27-2.04,5.92-3.71,2.63-3.26,4.45-7.1,5.29-11.22.26-1.2,1.38-4.85,1.38-4.85-1.65,1.57-3.44,2.98-5.36,4.23-3.38,2.24-6.24,5.18-8.38,8.64-1.24,2.01-1.62,4.45-1.07,6.74,0,.52-.18.83-1.03,1.64-.8.63-1.75,1.06-2.77,1.2-2.1.77-4.32,1.21-6.56,1.33-2.62-.26-5.2-.73-7.72-1.44-.88-.06-2.27.76-2.84.83-.53-.03-1.06-.09-1.57-.18-.57,0-2.33.06-2.33.06.34-.93.52-1.91.57-2.9.06-.44.19-1.07.83-1.2,1.07-.48,2.1-1.02,3.09-1.64.57-.28,1.2-.41,1.83-.37,2.44-.05,4.81-.71,6.94-1.89,3.6-2.36,6.61-5.5,8.82-9.2,1.51-1.55,3.16-2.96,4.91-4.23,0,0-3.21.88-6.87,1.95-3.91,1.15-7.58,2.94-10.89,5.3-1.43,1.3-2.64,2.81-3.61,4.47-.52,1.11-1.16,2.17-1.89,3.15-.57.44-2.4,1.38-2.4,1.13.3-.81.67-1.6,1.13-2.33.44-.76,1.83-2.96,2.71-4.28.68-1.07,1.24-2.2,1.64-3.4.37-1.17.93-2.27,1.64-3.27,1.39-2.05,3.7-3.3,6.17-3.34,2.6.03,5.22-.1,7.81-.39,3.39-.54,6.61-1.84,9.45-3.78,1.03-.57,5.48-3.84,5.48-3.84,0,0-4.34.76-5.74.94-3.3.14-6.57.49-9.84,1.03-3.02.97-5.85,2.44-8.38,4.34-1.86,1.28-3.65,2.66-5.35,4.13,0-.8.06-1.6.19-2.4.14-1.06.77-2,1.7-2.53,2.59-1.42,5-3.15,7.18-5.16,2.28-2.51,4.19-5.32,5.67-8.38.39-1.13,2.64-5.67,2.64-5.67-1.52,1.29-3.21,2.35-5.04,3.16-3.73,1.82-7.04,4.38-9.71,7.57-1.47,1.79-2.35,4-2.51,6.3-.04,1.03-.21,2.04-.52,3.03-.5.99-.76,2.1-.76,3.21-.06,1.24-.34,2.46-.83,3.61-.19.79-.46,1.55-.83,2.27-.34.44-.62.93-.83,1.44-.88,1.48-1.87,2.89-2.96,4.23,0,0-.83-1.03.44-3.71,1.44-2.87,2.32-5.99,2.58-9.2-.13-2.62-.62-5.21-1.46-7.68-.57-1.51-2.46-6.87-2.46-6.87-.17,1.7-.53,3.36-1.07,4.98-1.5,3.56-2.48,7.31-2.9,11.15.13,3.11,1.06,6.12,2.72,8.75.8.97,1.15,2.23.94,3.47-.14,1.11-.61,2.17-1.33,3.03-.46.93-.77,1.93-.88,2.96-.55,2.59-2.15,4.85-4.41,6.24-.19.15-.44.34-.71.52l.89-34.57c-.01-7.9,1.93-15.69,5.67-22.66.61-.88.93-1.3.93-1.3,2.8-3.84,7.12-6.32,11.85-6.79v-2.82s-21.72-.04-25.95-.04h-.08c-4.2,0-23.77.04-23.77.04v2.82c4.73.48,9.05,2.95,11.85,6.79,3.71,5.16,6.01,8.21,6.66,24.58l1.2,39.51c-1.74,1.11-2.93,2.91-3.26,4.96-.52-.76-.63-1.71-.31-2.58,1.08-2.36,1.46-4.99,1.07-7.57-1.21-3.8-3.11-7.35-5.61-10.47-1.2-1.38-3.4-4.78-3.4-4.78,0,0,.06,3.16-.13,5.67-.68,3.47-.53,7.05.44,10.45.99,2.82,2.85,5.27,5.29,7,.79.63,1.3,1.53,1.44,2.53.19.85.14,1.74-.13,2.58-.03.93-.14,1.86-.31,2.77-.26.93-1.03,1.44-1.13,2.27-.22,1.3-.53,2.59-.94,3.84-.19.7-.63.83-1.2,1.77-.32.46-.48,1.02-.44,1.57-1.21-.98-2.32-2.1-3.27-3.34-1.39-3.82-4.69-6.63-8.69-7.37-2.71-.44-5.47-.49-8.19-.18-2.29-.05-4.59-.32-6.85-.81,1.97.63,3.73,1.84,5.01,3.47,2.44,2.71,5.41,4.86,8.75,6.3,2.17.64,4.47.62,6.61-.06.94-.24,1.64-.63,2.46-.31.7.4,1.29.93,1.77,1.57,0,0-1.46.83-2.53,1.33-3.69,1.29-6.86,3.74-9.01,7-1.13,2.76-1.96,5.63-2.46,8.57-.36,1.64-.8,3.26-1.33,4.85,0,0,2.14-1.83,3.91-3.03,2.75-1.64,5.18-3.74,7.18-6.24,2-3.07,3.15-6.61,3.34-10.27,0-.73.54-1.35,1.26-1.46.75.23,1.28.92,1.33,1.7.01.9.3,1.79.83,2.53.37.57,1.26,1.33,2.02,2.4.71,1.46,1.31,2.95,1.83,4.47.52,1.03.76.88,1.51,2.27.76,1.38.63,2.14,1.26,3.21.63,1.07.94.95.94.95l-.37-6.69c-.19-.12-.37-.26-.52-.44-.24-.36-.45-.73-.63-1.13,0,0,1.13-.76,1.89-1.13.54-.32,1.21-.27,1.7.13,2.29,1.83,5.08,2.94,8.01,3.21,4.71-.93,9.22-2.63,13.36-5.04,1.7-.72,3.45-1.34,5.23-1.83,0,0-3.78-.37-5.8-.83-3.06-.68-6.15-1.21-9.27-1.57-.86.01-1.73.12-2.58.31l.17-2.02s-1.66,1.41-2.23,1.84c-1.3.85-2.69,1.55-4.16,2.06-.98.37-2,.67-3.03.88,0,0-.26-.26-.44.7s-.31.83-1.38,1.07c-.7.17-1.37.4-2.01.7,0,0,.88-2.27,1.03-2.64.15-.37.31-.75,1.64-1.03,3.36-.68,6.48-2.27,9.01-4.6,2.78-2.66,4.99-5.85,6.48-9.38,1.2-2.06,2.71-3.93,4.47-5.54,0,0-2.9,1.13-8.38,3.03-.26.09-.52.18-.76.28l.19-7.23h0v-.52l-.37.18c-.83.37-3.21,1.07-4.15,1.51-.94.44-1.7,1.44-2.46,1.83-1.33.49-2.54,1.24-3.56,2.2l.06,1.19h0l.24,7.72c-1.42,1.84-2.28,4.06-2.48,6.37-.26,1.44-.44,2.14-.63,2.9-.27.85-.58,1.7-.94,2.53-.59-1.15-1.31-2.23-2.14-3.21-.73-.8-.95-1.95-.57-2.96.3-1.12.7-2.23,1.2-3.27.57-1.44,1.33-4.23,1.77-5.1s.26.83,1.2-4.34c.55-3.16,2.81-5.75,5.87-6.74.76-.39,1.51-1.38,2.46-1.83.94-.44,3.34-1.13,4.15-1.51,1.79-.68,3.4-1.77,4.73-3.16.7-1.08,1.65-1.96,2.77-2.58,1.35-.46,2.78-.68,4.22-.63,2.06-.13,2.51,1.51,2.96,2.06.37.55.55,1.22.52,1.89-.19,3.21,1.2,6.32,3.71,8.31,3.3,2.46,7.19,4.01,11.28,4.47,1.89.52,6.61,2.46,6.61,2.46,0,0-.83-.31-4.03-5.3-2.08-3.57-4.89-6.66-8.24-9.06-2.01-.95-4.14-1.66-6.32-2.1-.75-.13-1.46-.43-2.06-.88-.58-.63-1.1-1.3-1.57-2.02.27-.04.54-.04.83,0,1.99.86,4.14,1.28,6.3,1.2,2.54.01,5.05-.59,7.31-1.77.81-.32,1.73-.23,2.46.26.83.52,1.83,1.2,3.84,2.46,2.78,1.88,6.03,2.99,9.38,3.21,4.06-.24,8.06-1.11,11.85-2.58,1.59-.64,3.24-1.16,4.91-1.51,0,0-3.15-.57-4.91-.95-3.74-1.26-7.61-2.1-11.54-2.51-2.59.01-5.12.76-7.31,2.14-.67.7-1.69.9-2.58.52-.92-.18-1.65-.83-1.95-1.7,2.59-.12,5.08-1.04,7.12-2.64,1.7-1.37,3.27-2.91,4.67-4.6.81-.77,1.47-1.74,3.21-3.34,1.3-1.41,3.25-1.83,4.95-1.15ZM186.48,103.31c4.07-.81,8.24-.97,12.36-.46-1.03.26-7.31,2.96-11.72,4.13-3.13.77-6.32,1.28-9.54,1.51l-.06-.13c2.57-2.32,5.63-4.05,8.96-5.04ZM177,94.3c2.69-3.7,6.36-6.57,10.6-8.29,0,0-5.4,7.18-7.1,9.47-1.71,2.31-6.12,8.82-6.12,8.82-.14-3.52.79-7.01,2.66-10h-.03ZM159.35,110.42c2.35-3.4,5.49-6.17,9.15-8.1,0,0-3.75,6.32-5.85,9.22-2.1,2.9-5.16,6.45-5.16,6.45,0,0-1.21-2.5,1.88-7.57h-.03ZM142.84,107.26c3.6-1.95,7.34-3.62,11.19-5,0,0-6.45,5.72-9.67,8.03-2.26,1.56-4.64,2.95-7.1,4.15,1.06-2.93,3.03-5.44,5.62-7.18h-.04ZM153.31,94.42c3.74-.73,7.53-1.15,11.33-1.25,0,0-7.44,2.63-10.47,3.61-2.75.77-5.54,1.37-8.35,1.78,2.27-1.77,4.81-3.17,7.52-4.14h-.03ZM143.35,88.91c3.15-3.35,6.87-6.11,11-8.16,0,0-4.81,4.8-8.16,8.75-3.35,3.96-5.59,6.65-5.59,6.65l-.06.13c.44-2.63,1.41-5.14,2.85-7.39h-.03ZM131.91,109.17c-1.61-2.54-2.46-5.48-2.44-8.48.21-3.82,1.24-7.54,3.03-10.92,0,0-.13,6.17.06,9.67.01,3.25-.19,6.51-.64,9.73h-.01ZM91.22,145.64c-2.6-1.1-5.09-2.44-7.44-4.02,3.66-.52,7.39-.34,11,.52,2.8,1.12,4.95,3.44,5.85,6.32,0,0-6.36-1.75-9.37-2.82h-.04ZM89.92,169.33c.4-3.78,1.51-7.45,3.27-10.82,1.68-2.28,4.06-3.94,6.79-4.71l-10.07,15.52ZM125.59,155.22c3.65.14,7.27.64,10.82,1.48-4.15,1.01-8.35,1.77-12.59,2.28-2.66.18-5.32.14-7.98-.1,0,0,2.01-2.91,9.8-3.69l-.04.03ZM117.41,144.74c3.69-2.53,7.75-4.46,12.04-5.72,0,0-7.23,6.17-10.13,8.75-2.33,2.19-4.52,4.52-6.57,6.97-.01-3.88,1.71-7.55,4.72-10.03l-.05.03ZM109.39,133.91c-1.42-2.5-2.54-5.14-3.35-7.9-.88-3.2-2.18-10.92-2.18-10.92,2.22,3.12,4.22,6.39,5.99,9.78.84,2.98.68,6.15-.43,9.02h-.04ZM140.65,126.02c2.73.61,5.36,1.59,7.82,2.9,3.53,2.72,6.39,6.2,8.35,10.2-3.15-1.71-6.19-3.62-9.08-5.72-2.63-2.11-5.01-4.52-7.1-7.18v-.19ZM168.67,121.61c3.97.28,7.89,1.08,11.64,2.37,0,0-8.82,1.12-11.64,1.12-2.54-.09-5.07-.34-7.57-.72,2.24-1.57,4.87-2.53,7.61-2.77h-.04Z"/>
      <path id="Path_1217" data-name="Path 1217" class="cls-1" d="M155.11,86.61c-1.17.64-1.86,1.95-1.71,3.29-.15.92.46,1.79,1.39,1.95.3.05.62.01.9-.09,1.3-.39,2.14-1.64,2-2.99.05-1.15-.84-2.14-1.99-2.19-.21-.03-.4,0-.59.04Z"/>
      <path id="Path_1218" data-name="Path 1218" class="cls-1" d="M186.32,96.06c-1.17.64-1.86,1.93-1.71,3.27-.15.92.45,1.79,1.37,1.95.31.05.62.03.92-.09,1.3-.39,2.15-1.65,2-3,.05-1.16-.84-2.13-2-2.19-.18,0-.37.03-.57.06Z"/>
      <path id="Path_1219" data-name="Path 1219" class="cls-1" d="M133.48,125.71c-1.17.66-1.84,1.95-1.71,3.29-.15.92.45,1.78,1.37,1.95.31.05.62.03.92-.1,1.3-.39,2.14-1.64,2-2.99.05-1.16-.84-2.14-2-2.2-.18,0-.37.03-.57.06Z"/>
      <path id="Path_1220" data-name="Path 1220" class="cls-1" d="M170.41,115.8c-.43.83-.1,1.84.72,2.28.27.14.58.21.88.18,1.35.03,2.54-.92,2.81-2.24.41-1.08-.13-2.28-1.21-2.69-.19-.08-.39-.12-.58-.13-1.3.26-2.35,1.29-2.62,2.6Z"/>
      <path id="Path_1221" data-name="Path 1221" class="cls-1" d="M154.53,125.68c-1.17.66-1.84,1.95-1.71,3.29-.15.92.46,1.79,1.38,1.95.31.05.62.03.9-.09,1.3-.39,2.14-1.65,2-3,.05-1.16-.84-2.14-2-2.19-.18,0-.37.01-.57.05Z"/>
      <path id="Path_1222" data-name="Path 1222" class="cls-1" d="M129.42,147.24c-1.17.64-1.86,1.93-1.71,3.27-.17.92.45,1.79,1.37,1.96.31.05.62.03.92-.09,1.3-.39,2.14-1.65,2-3,.05-1.16-.84-2.13-2-2.19-.19-.01-.39.01-.57.05Z"/>
      <path id="Path_1223" data-name="Path 1223" class="cls-1" d="M90.23,156.37c1.3-.39,2.14-1.65,2-3,.05-1.16-.84-2.14-2-2.19-.19-.01-.39.01-.58.05-1.17.66-1.86,1.95-1.71,3.29-.15.92.46,1.79,1.38,1.95.31.05.63.03.92-.09Z"/>
      <path id="Path_1224" data-name="Path 1224" class="cls-1" d="M102.08.13c2.15,2.96,3.36,6.51,3.51,10.17,0,1.38-.15,3.61-.15,3.61-.22,2.15-.62,4.28-1.2,6.36,1.92-2.72,3.4-5.71,4.42-8.88l.08-.35.17.31c.7,1.34,1.15,2.8,1.31,4.31.81-1.87,1.26-3.87,1.31-5.9-.41-5.07-4.38-9.11-9.45-9.62Z"/>
      <path id="Path_1225" data-name="Path 1225" class="cls-1" d="M103.22,15.79h0c-.09-1.59-.27-3.17-.55-4.74-2.19,4.42-5.35,8.29-9.23,11.33-3.6,2.51-5.87,6.52-6.17,10.89.72,6.48,4.05,12.39,9.22,16.36-1.6-4.31-2.44-8.87-2.49-13.46.15-2.41,1.34-4.63,3.26-6.1l.39-.39c1.44-1.37,2.76-2.85,3.93-4.46h0c.62-.93,1.08-1.95,1.37-3.02.12-.5.19-1.03.24-1.55h0c.12-1.62.14-3.25.04-4.87Z"/>
      <path id="Path_1226" data-name="Path 1226" class="cls-1" d="M64.38,90.4c-1.17,0-2.13.95-2.13,2.13v.03c.01.53.23,1.02.61,1.39-.24-.08-.5-.13-.76-.13-1.48,0-2.67,1.21-2.67,2.68s1.2,2.66,2.67,2.67c.23-.01.48-.04.71-.1-.59,1.95-2.41,3.26-4.43,3.24-3.93,0-5.5-4.24-5.67-5.25.41,1.39,1.87,2.2,3.27,1.79,1.39-.41,2.2-1.87,1.79-3.27-.34-1.12-1.37-1.89-2.54-1.89-.27.01-.53.06-.79.15,1.08-.97,1.19-2.63.22-3.73-.97-1.08-2.63-1.19-3.73-.22-.55.49-.88,1.2-.89,1.95.01.77.35,1.51.93,2.02-.27-.1-.57-.17-.86-.18-1.46-.01-2.66,1.16-2.67,2.63-.01,1.46,1.16,2.66,2.63,2.67,1.19.01,2.24-.77,2.57-1.92-.15,1.21-2.37,5.25-5.67,5.25-2.05.08-3.89-1.25-4.46-3.24.23.06.46.09.71.1,1.48,0,2.67-1.21,2.67-2.68s-1.2-2.66-2.67-2.67c-.26,0-.52.04-.76.13.37-.36.59-.86.61-1.39.01-1.17-.94-2.14-2.11-2.14h-.03c-.46-.05-.93.04-1.34.26.55,2.19,1.21,6.59,1.31,7.21l1.84,12h19.83s0-.21.05-.36l1.79-11.65c.4-2.72.88-5.59,1.29-7.21-.4-.22-.86-.31-1.31-.26Z"/>
      <path id="Path_1227" data-name="Path 1227" class="cls-1" d="M101.85,90.4c-1.17,0-2.11.95-2.11,2.13h0c.01.54.23,1.03.61,1.41-.24-.08-.5-.13-.76-.13-1.48,0-2.67,1.21-2.67,2.68s1.2,2.66,2.67,2.67c.23-.01.48-.04.71-.1-.59,1.95-2.41,3.26-4.43,3.24-3.93,0-5.5-4.24-5.67-5.25.41,1.39,1.87,2.2,3.27,1.79,1.39-.41,2.2-1.87,1.79-3.27-.34-1.12-1.37-1.89-2.54-1.89-.27.01-.53.06-.79.15,1.08-.97,1.19-2.63.22-3.73-.97-1.08-2.63-1.19-3.73-.22-.55.49-.88,1.2-.89,1.95.01.77.35,1.51.93,2.02-.27-.1-.57-.17-.86-.18-1.46-.01-2.66,1.16-2.67,2.63-.01,1.46,1.16,2.66,2.63,2.67,1.19.01,2.24-.77,2.57-1.92-.15,1.21-2.37,5.25-5.67,5.25-2.05.08-3.89-1.25-4.46-3.24.23.06.46.09.71.1,1.48,0,2.67-1.21,2.67-2.68s-1.2-2.66-2.67-2.67c-.26,0-.52.04-.76.13.37-.36.59-.86.61-1.39.01-1.17-.94-2.14-2.11-2.14h-.04c-.46-.05-.93.04-1.34.26.55,2.19,1.21,6.59,1.31,7.21l1.84,12h19.83s0-.21.05-.36l1.79-11.65c.4-2.72.93-5.76,1.29-7.21-.39-.21-.85-.3-1.31-.24Z"/>
      <path id="Path_1228" data-name="Path 1228" class="cls-1" d="M84.58,114.39c-1.29,0-2.33,1.04-2.33,2.33v.03c.01.58.24,1.13.67,1.55-1.56-.46-3.2.41-3.66,1.97s.41,3.2,1.97,3.66c.27.08.57.13.85.13.26-.01.53-.05.77-.12-.66,2.14-2.66,3.6-4.9,3.56-4.34,0-6.07-4.68-6.23-5.79.45,1.55,2.08,2.42,3.61,1.97,1.55-.45,2.42-2.08,1.97-3.61-.36-1.24-1.51-2.1-2.8-2.09-.3.01-.58.06-.86.17,1.2-1.07,1.31-2.9.24-4.11-1.07-1.2-2.9-1.31-4.11-.24-.62.54-.97,1.33-.98,2.15.01.85.39,1.66,1.03,2.23-.3-.12-.62-.18-.94-.19-1.61-.01-2.93,1.28-2.94,2.9-.01,1.61,1.28,2.93,2.9,2.94,1.31.01,2.46-.85,2.84-2.11-.17,1.33-2.62,5.79-6.25,5.79-2.27.08-4.29-1.38-4.92-3.56.26.06.52.1.77.12,1.62.06,3-1.2,3.07-2.82.06-1.62-1.2-3-2.82-3.07h-.24c-.28,0-.57.05-.84.14.43-.4.66-.97.67-1.55.01-1.29-1.03-2.36-2.32-2.36h-.04c-.5-.06-1.02.04-1.47.28.62,2.42,1.33,7.26,1.44,7.93l2.02,13.24h21.86s.03-.22.05-.39l1.97-12.88c.44-3,1.03-6.37,1.42-7.93-.46-.26-.98-.35-1.48-.27Z"/>
    </g>
  </g>
  <g>
    <path class="cls-1" d="M314.6,136.67h-6.65c-.09,8.69-.18,17.3-.18,31.84,0,7.72.53,12.07,3.11,15.25,2.49,3.11,7,4.43,13.39,4.43s11-1.51,13.83-5.23c2.58-3.38,2.66-8.69,2.75-17.12l.18-29.17h-7.72v-5.59h21.46v5.59h-6.83l-.18,33.62c0,7.09-.8,12.23-4.87,17.21-3.55,4.34-10.11,6.74-18.89,6.74-10.82,0-16.76-2.75-20.39-7.72-2.93-4-3.45-8.34-3.45-18.72s.09-21.64.18-31.13h-7.18v-5.59h21.46v5.59h-.01Z"/>
    <path class="cls-1" d="M390.58,187.57h5.85c0-7.09.36-14.54.36-21.9,0-4.43-.18-13.3-10.38-13.3-6.47,0-13.57,3.91-13.57,16.32l-.18,18.89h6.65v5.58h-19.87v-5.58h5.85l.36-34.59h-7.36v-5.58h14.63c0,1.78-.09,4.25-.27,5.5l-.71,4.61h.18c1.95-6.92,9.31-11.18,16.23-11.18,12.59,0,15.7,8.51,15.7,17.21,0,7.8-.35,16.94-.35,24.04h6.74v5.58h-19.87v-5.61h-.01Z"/>
    <path class="cls-1" d="M423.65,152.99h-8.34v-5.58h15.61l-.36,40.18h7.27v5.58h-21.81v-5.58h7.27l.36-34.6ZM426.41,124.25c3.02,0,5.5,2.49,5.5,5.5s-2.49,5.5-5.5,5.5-5.5-2.49-5.5-5.5c0-3.03,2.49-5.5,5.5-5.5Z"/>
    <path class="cls-1" d="M438.09,147.39h18.81v5.58h-5.5l10.56,29.35c.44,1.24.71,2.58.98,3.91h.18c.27-1.33.53-2.66.98-3.91l10.82-29.35h-5.94v-5.58h18.27v5.58h-5.05l-15.79,40.18h-7.27l-15.88-40.18h-5.14v-5.58h0Z"/>
    <path class="cls-1" d="M497.55,170.89c.27,9.4,4.34,17.3,17.38,17.3,4.96,0,9.93-1.51,13.74-3.45l-.27,6.29c-3.36,1.69-10.47,3.2-15.08,3.2-14.45,0-23.41-7.89-23.41-23.86,0-13.48,7.27-24.03,21.19-24.03,18.1,0,19.77,16.41,19.77,24.57h-33.32ZM523.26,165.31c0-7.18-4.52-13.39-12.16-13.39s-13.12,5.85-13.56,13.39h25.72Z"/>
    <path class="cls-1" d="M544.91,152.99h-7.8v-5.58h15.08v2.49c0,2.66-.53,8.07-.98,11.8h.27c1.78-6.74,4.16-15.08,15.52-15.08.62,0,4.25.36,4.61.71l-.71,6.56c-1.24-.44-3.2-.71-4.96-.71-9.4,0-13.57,9.23-13.74,17.3l-.36,17.12h7.72v5.58h-21.46v-5.58h6.47l.34-34.6Z"/>
    <path class="cls-1" d="M608.2,160.08h-6.56l-.36-6.47c-1.69-1.42-5.94-1.69-8.07-1.69-4.61,0-10.56,1.51-10.56,7.01,0,4.96,4.43,6.47,11.18,7.63,11.61,1.95,16.5,5.5,16.5,13.03,0,8.16-5.5,14.63-18.72,14.63-4.96,0-12.85-1.24-15.7-2.75l-.35-11.71h6.56l.35,6.83c2.75,1.33,7.36,2.04,10.38,2.04,4.8,0,10.56-2.04,10.56-7.63,0-4.52-4.71-6.12-9.67-7.18-12.23-2.66-18.36-4.8-18.36-13.74,0-7.36,4.89-13.74,18.01-13.74,3.82,0,10.91,1.24,14.45,2.75l.36,10.98Z"/>
    <path class="cls-1" d="M625.02,152.99h-8.34v-5.58h15.61l-.36,40.18h7.27v5.58h-21.81v-5.58h7.27l.36-34.6ZM627.77,124.25c3.02,0,5.5,2.49,5.5,5.5s-2.49,5.5-5.5,5.5-5.5-2.49-5.5-5.5,2.49-5.5,5.5-5.5Z"/>
    <path class="cls-1" d="M642.48,147.39h7.36l.35-11.18,7.27-.44-.35,11.61h14.37v5.58h-14.46c-.18,7.63-.35,15.34-.35,22.97,0,6.56,0,12.25,7.01,12.25,3.73,0,7.09-1.07,9.05-1.86l-.27,5.76c-2.31,1.15-6.56,2.13-10.29,2.13-12.77,0-12.77-9.14-12.77-14.99s.27-19.61.36-26.26h-7.27v-5.58h-.01Z"/>
    <path class="cls-1" d="M675.17,147.39h19.34v5.58h-5.76l10.91,28.46c.53,1.6,1.07,3.73,1.24,4.8h.18c.18-1.07.71-3.2,1.24-4.8l10.2-28.46h-6.47v-5.58h18.27v5.58h-5.05l-14.01,38.58c-6.47,18.01-11.71,24.92-23.24,24.92-2.22,0-4.07-.35-5.41-.8v-6.03c1.07.36,3.36.8,5.14.8,5.23,0,10.65-3.2,14.1-11.52l1.51-3.73-16.76-42.22h-5.41v-5.58h.01Z"/>
    <path class="cls-1" d="M295.12,100.08h7.3v8.46c2.85,1.69,8.28,2.31,12.19,2.31,8.89,0,14.77-4.1,14.77-11.58,0-16.64-34.19-6.77-34.19-29.11,0-7.57,4.45-17.71,23.05-17.71,4.54,0,12.81,1.16,16.73,2.94v12.56h-6.94v-7.75c-2.32-.98-7.48-1.69-10.42-1.69-6.68,0-14.24,2.58-14.24,10.78,0,15.84,34.19,5.97,34.19,28.93,0,13.7-11.76,18.69-23.77,18.69-10.24,0-15.22-2.4-18.69-3.12v-13.7h.01Z"/>
    <path class="cls-1" d="M343.19,69.91h7.39l.36-11.22,7.3-.44-.36,11.65h14.43v5.61h-14.5c-.18,7.66-.36,15.4-.36,23.05,0,6.59,0,12.29,7.04,12.29,3.74,0,7.12-1.07,9.08-1.87l-.27,5.79c-2.31,1.16-6.59,2.14-10.33,2.14-12.81,0-12.81-9.17-12.81-15.04s.27-19.67.36-26.35h-7.3v-5.61h-.01Z"/>
    <path class="cls-1" d="M399.7,68.84c13.97,0,22.25,9.62,22.25,22.79,0,14.61-8.28,25.28-22.25,25.28s-22.25-9.62-22.25-22.78c-.01-14.62,8.28-25.29,22.25-25.29ZM399.7,110.85c9.8,0,14.61-8.01,14.61-17.98s-4.81-17.98-14.61-17.98-14.59,8.01-14.59,17.98c-.01,9.98,4.8,17.98,14.59,17.98Z"/>
    <path class="cls-1" d="M466.36,114.68c-3.56,1.07-8.19,2.23-13.26,2.23-18.16,0-23.95-12.01-23.95-24.03,0-17.53,12.72-24.03,22.97-24.03,5.08,0,10.15.62,14.86,2.31v12.01h-6.59v-7.21c-1.96-.71-5.61-1.07-7.66-1.07-13.26,0-15.93,10.51-15.93,17.98,0,2.49.36,17.98,17.44,17.98,4.54,0,8.19-1.25,12.47-2.58l-.35,6.39Z"/>
    <path class="cls-1" d="M479.73,52.99h-8.91v-5.61h16.2l-.18,42.72,17.53-14.43v-.18h-6.41v-5.61h19.94v5.61h-4.72l-19.05,15.5,20.74,19.23h4.99v5.61h-19.94v-5.61h5.52v-.18l-18.6-17.71-.18,17.89h6.06v5.61h-19.94v-5.61h6.59l.36-57.24Z"/>
    <path class="cls-1" d="M531.62,52.99h-8.91v-5.61h16.2l-.08,24.12c0,2.05-.53,6.59-.89,8.55h.18c1.96-6.95,9.35-11.22,16.29-11.22,12.65,0,15.75,8.55,15.75,17.26,0,7.84-.36,17-.36,24.12h6.77v5.61h-19.94v-5.61h5.88c0-7.13.35-14.61.35-21.99,0-4.45-.18-13.36-10.42-13.36-6.5,0-13.63,3.92-13.63,16.38l-.27,18.96h6.77v5.61h-20.65v-5.61h6.59l.36-57.22Z"/>
    <path class="cls-1" d="M603.68,68.84c13.97,0,22.25,9.62,22.25,22.79,0,14.61-8.28,25.28-22.25,25.28s-22.25-9.62-22.25-22.78c0-14.62,8.28-25.29,22.25-25.29ZM603.68,110.85c9.8,0,14.59-8.01,14.59-17.98s-4.81-17.98-14.59-17.98-14.59,8.01-14.59,17.98c0,9.98,4.8,17.98,14.59,17.98Z"/>
    <path class="cls-1" d="M637.8,52.99h-8.91v-5.61h16.2l-.36,62.84h7.3v5.61h-21.18v-5.61h6.59l.36-57.24Z"/>
    <path class="cls-1" d="M658.52,110.23h5.88l.35-34.72h-7.39v-5.61h14.68c0,1.78-.09,4.28-.27,5.52l-.71,4.63h.18c1.96-6.95,9.35-11.22,16.29-11.22,8.37,0,12.72,4.81,13.88,10.76h.18c.89-1.96,3.74-10.76,15.57-10.76,12.63,0,15.75,8.55,15.75,17.26,0,7.84-.36,17-.36,24.12h6.77v5.61h-19.94v-5.61h5.88c.09-7.48.35-14.86.35-22.25,0-6.68-1.43-13.08-9.96-13.08-5.97,0-13.08,3.92-13.17,16.38l-.18,18.96h6.59v5.61h-20.03v-5.61h5.87c.09-7.48.36-14.86.36-22.25,0-6.68-1.42-13.08-9.96-13.08-5.97,0-13.08,3.92-13.17,16.38l-.18,18.96h6.68v5.61h-19.94v-5.62h.03Z"/>
  </g>
</svg>