<svg id="Lager_1" data-name="Lager 1" xmlns="http://www.w3.org/2000/svg" viewBox="0 0 163.32 26.18"><defs><style>.cls-1{fill:#3c3c3b;}.cls-2{fill:#c1210d;}</style></defs><title>SVA_logo</title><path class="cls-1" d="M74.81,2.2c0-.82-.22-1.32-1.12-1.32-.72,0-1.17.25-1.17,1,0,1,.5,1,1.25,1.56s1.66.76,1.66,2a1.57,1.57,0,0,1-1.77,1.77c-1.3,0-1.88-.7-1.82-2h.61c0,.74,0,1.5,1.24,1.5a1,1,0,0,0,1.15-1.18c0-.9-.6-1.16-1.56-1.75C72,3.07,71.94,2.68,71.93,2c0-1.15.72-1.62,1.8-1.62,1.38,0,1.68.85,1.68,1.81Z"/><path class="cls-1" d="M78.14,1H76.52V.51h3.83V1H78.73V7.16h-.59Z"/><path class="cls-1" d="M83.4.51l2.07,6.65h-.62l-.53-1.75H81.71l-.52,1.75H80.6L82.7.51Zm.76,4.4L83,1.16h0L81.89,4.91Z"/><path class="cls-1" d="M87.16,1H85.54V.51h3.83V1H87.75V7.16h-.59Z"/><path class="cls-1" d="M93.66.51V1H91.24V3.5h2.31V4H91.24V6.66h2.48v.5H90.65V.51Z"/><path class="cls-1" d="M95.21,7.16V.51h.91l2.69,5.84,0,0V.51h.59V7.16h-.89l-2.71-5.9,0,0V7.16Z"/><path class="cls-1" d="M104.07,2.2c0-.82-.22-1.32-1.13-1.32-.71,0-1.16.25-1.16,1,0,1,.49,1,1.25,1.56s1.65.76,1.65,2a1.56,1.56,0,0,1-1.76,1.77c-1.3,0-1.88-.7-1.83-2h.61c0,.74.06,1.5,1.24,1.5a1,1,0,0,0,1.15-1.18c0-.9-.59-1.16-1.55-1.75-1.29-.79-1.34-1.18-1.35-1.85,0-1.15.71-1.62,1.8-1.62,1.38,0,1.67.85,1.67,1.81Z"/><path class="cls-1" d="M75.27,9.72h.57L74,16.36h-.74L71.42,9.72H72l1.57,5.94h0Z"/><path class="cls-1" d="M80.09,9.72v.49H77.67V12.7H80v.5H77.67v2.66h2.49v.5H77.08V9.72Z"/><path class="cls-1" d="M82.69,10.21H81.07V9.72H84.9v.49H83.28v6.15h-.59Z"/><path class="cls-1" d="M89.18,9.72v.49H86.77V12.7h2.3v.5h-2.3v2.66h2.48v.5H86.18V9.72Z"/><path class="cls-1" d="M91.25,13.14v3.22h-.59V9.72h1.83c1.28,0,1.6.42,1.6,1.59,0,.83-.14,1.38-1,1.58v0c.93.19,1,.3,1,2.68,0,.26,0,.51.07.77h-.56a15.5,15.5,0,0,1-.09-1.66c0-.28.18-1.56-1.1-1.56Zm0-.5h1c.89,0,1.3-.23,1.3-1.34,0-.91-.36-1.09-1-1.09h-1.2Z"/><path class="cls-1" d="M96.41,9.72v6.64h-.59V9.72Z"/><path class="cls-1" d="M98.31,16.36V9.72h.9l2.69,5.83,0,0V9.72h.59v6.64h-.89l-2.71-5.9,0,0v5.88Z"/><path class="cls-1" d="M106.6,9.72l2.07,6.64h-.62l-.53-1.75h-2.61l-.52,1.75h-.59l2.1-6.64Zm.76,4.4-1.13-3.76h0l-1.12,3.76Zm-2.14-5.94h.59v.93h-.59Zm1.45,0h.59v.93h-.59Z"/><path class="cls-1" d="M110.47,13.14v3.22h-.59V9.72h1.84c1.27,0,1.59.42,1.59,1.59,0,.83-.13,1.38-1,1.58v0c.92.19,1,.3,1,2.68,0,.26,0,.51.06.77h-.56c0-.19-.08-1.3-.09-1.66s.18-1.56-1.09-1.56Zm0-.5h1c.88,0,1.3-.23,1.3-1.34,0-.91-.36-1.09-1-1.09h-1.21Z"/><path class="cls-1" d="M115,16.36V9.72h1l2,6h0l1.94-6h.93v6.64h-.59V10.29h0l-2,6.07h-.68l-2-6.07h0v6.07Z"/><path class="cls-1" d="M125.64,9.72v.49h-2.42V12.7h2.31v.5h-2.31v2.66h2.48v.5h-3.07V9.72Z"/><path class="cls-1" d="M127.18,9.72h1.75c1.86,0,2.09,1.08,2.09,3.35s-.32,3.29-2.33,3.29h-1.51Zm.58,6.14h.72c1.78,0,2-.47,2-3.19,0-1.9-.26-2.46-1.89-2.46h-.78Z"/><path class="cls-1" d="M133.38,9.72v6.64h-.59V9.72Z"/><path class="cls-1" d="M135.09,13c0-1.8,0-3.45,2-3.45,1.61,0,1.63,1.32,1.63,1.92h-.59c0-.73-.2-1.42-1-1.42-1.4,0-1.42,1.18-1.42,2.95s0,3,1.42,3c.76,0,1-.68,1.05-1.53h.63c0,.48-.11,2-1.68,2C135.11,16.49,135.09,14.83,135.09,13Z"/><path class="cls-1" d="M140.94,9.72v6.64h-.59V9.72Z"/><path class="cls-1" d="M142.84,16.36V9.72h.9l2.7,5.83,0,0V9.72H147v6.64h-.89l-2.7-5.9,0,0v5.88Z"/><path class="cls-1" d="M151.69,11.4c0-.82-.22-1.31-1.12-1.31-.72,0-1.17.24-1.17,1,0,1,.5,1,1.25,1.55s1.66.77,1.66,2.05a1.57,1.57,0,0,1-1.77,1.77c-1.3,0-1.88-.7-1.82-2h.61c0,.74,0,1.5,1.24,1.5a1,1,0,0,0,1.15-1.17c0-.91-.6-1.16-1.56-1.75-1.28-.79-1.34-1.19-1.35-1.85,0-1.15.72-1.63,1.81-1.63,1.37,0,1.67.86,1.67,1.81Z"/><path class="cls-1" d="M154,16.36V9.72h.59v3h0l2.36-3h.7l-2.48,3.1,2.56,3.54H157L154.6,13h0v3.4Z"/><path class="cls-1" d="M161.25,9.72l2.07,6.64h-.61l-.54-1.75h-2.6l-.52,1.75h-.59l2.1-6.64Zm.77,4.4-1.13-3.76h0l-1.12,3.76Z"/><path class="cls-1" d="M74.25,18.92l2.07,6.64H75.7l-.53-1.74h-2.6L72,25.56h-.59l2.1-6.64Zm.76,4.4-1.13-3.75h0l-1.12,3.75Z"/><path class="cls-1" d="M77.62,25.56V18.92h.9l2.7,5.83h0V18.92h.59v6.64h-.89l-2.71-5.89h0v5.88Z"/><path class="cls-1" d="M86.47,20.61c0-.82-.22-1.32-1.12-1.32-.72,0-1.17.25-1.17,1,0,1,.5,1,1.25,1.55s1.66.77,1.66,2.06a1.57,1.57,0,0,1-1.77,1.76c-1.3,0-1.88-.7-1.82-2h.61c0,.73,0,1.5,1.24,1.5A1,1,0,0,0,86.5,24c0-.9-.6-1.16-1.56-1.75-1.28-.79-1.34-1.19-1.35-1.85,0-1.15.72-1.63,1.8-1.63,1.38,0,1.68.86,1.68,1.82Z"/><path class="cls-1" d="M89.8,19.42H88.18v-.5H92v.5H90.39v6.14H89.8Z"/><path class="cls-1" d="M95.06,18.92l2.07,6.64h-.62L96,23.82H93.37l-.52,1.74h-.59l2.1-6.64Zm.76,4.4-1.13-3.75h0l-1.12,3.75Z"/><path class="cls-1" d="M98.33,25.56V18.92h.59v6.15h2.2v.49Z"/><path class="cls-1" d="M102.77,19.42h-1.62v-.5H105v.5h-1.62v6.14h-.59Z"/><path class="cls-2" d="M12.05,5.59a1.42,1.42,0,0,0-1.9,2.08c.34.4,6.67,7.41,7,7.83,2.08,2.85,2.07,5.6,0,8.28-.16.22-.25.32-.1.57s.42.13.68,0a6,6,0,0,0,3-3.48,7.3,7.3,0,0,0-1.24-6.75C19,13.55,12.92,6.5,12.05,5.59ZM14.94,15l-5.73-6a3.23,3.23,0,0,1-.89-3.13,2.79,2.79,0,0,1,2.76-2.22A3.1,3.1,0,0,1,14,5.6l.27.46a2.59,2.59,0,0,0,2,1.18H18.4A.62.62,0,0,0,19,7c.08-.14,0-.36-.09-.6A15.57,15.57,0,0,0,15.39,1.5,6.25,6.25,0,0,0,9.76.19,7.08,7.08,0,0,0,4.87,5a6.14,6.14,0,0,0,1.49,6.11c.92,1,5.32,5.56,5.74,6a3.25,3.25,0,0,1,.92,3.2,3.16,3.16,0,0,1-2.16,2.07C8.92,22.93,6.74,21,6.18,20L4.71,17.38a2.61,2.61,0,0,0-2-1.17H.61a.64.64,0,0,0-.57.22.66.66,0,0,0,.09.6s2,3.6,3,5.23c1.68,2.71,5.33,4.66,8.69,3.67a7,7,0,0,0,4.9-4.58A6.33,6.33,0,0,0,14.94,15Zm15.46-.55c.22.43.57.43.79,0l.91-1.83a2,2,0,0,0,0-1.58L27.05.92A1.58,1.58,0,0,0,25.77.13H24.1a.5.5,0,0,0-.49.79ZM44.77.13H42.3A1.58,1.58,0,0,0,41,.92L32.71,17.66a1.33,1.33,0,0,1-2.36,0L22,.92A1.58,1.58,0,0,0,20.71.13H18.24a.5.5,0,0,0-.49.79l12,24a2,2,0,0,0,3.62-.05L45.26.92A.5.5,0,0,0,44.77.13Zm6.29,11.55c-.22-.43-.58-.43-.8,0l-.91,1.83a2,2,0,0,0,0,1.58l5,10.16a1.6,1.6,0,0,0,1.28.79h1.67a.5.5,0,0,0,.49-.79ZM63.57,25.25l-12-24A2,2,0,0,0,49.79.13,2,2,0,0,0,48,1.31L36.06,25.25a.5.5,0,0,0,.49.79H39a1.58,1.58,0,0,0,1.28-.79L48.61,8.51a1.33,1.33,0,0,1,2.37,0l8.35,16.73a1.58,1.58,0,0,0,1.28.79h2.47A.5.5,0,0,0,63.57,25.25Z"/></svg>