<?xml version="1.0" encoding="UTF-8"?>
<svg id="Layer_1" data-name="Layer 1" xmlns="http://www.w3.org/2000/svg" viewBox="0 0 740.81 165.27">
  <defs>
    <style>
      .cls-1 {
        fill: #006eb3;
      }

      .cls-2 {
        fill: #747476;
      }
    </style>
  </defs>
  <path class="cls-1" d="M.51,124.65V-.23l62.45,62.45L.51,124.65ZM166.5,165.74H32.81l66.84-66.85,66.84,66.85ZM73.83-.3h92.75v92.73L73.83-.3Z"/>
  <path class="cls-2" d="M691.26,3.64v12.19h17.01v54.6h15.29V15.83h16.65V3.64h-48.96ZM650.74,43.13h4.92l12.65,27.3h15.93l-14.56-29.67c9.37-2.82,12.74-9.28,12.74-17.74,0-17.93-13.74-19.38-24.57-19.38h-21.57v66.8h14.47v-27.3ZM650.74,14.01c8.19,0,10.01,0,12.28.82,2.91,1.09,4.37,3.37,4.37,8.01,0,3.64-.36,7.28-5.01,8.92-2.09.73-3.36.73-11.65.73V14.01ZM576.35,45.14c0,2.91.27,8.74,1.73,13.47,3.37,11.28,14.11,13.65,20.66,13.65,4.28,0,12.28-.64,17.84-6.64,4.19-4.55,5.73-10.56,5.73-19.93v-16.2c0-10.74-2.09-16.65-5.83-20.66-4.46-4.82-10.74-6.46-17.56-6.46-6.28,0-12.56,1.73-16.74,6.37-4.64,5.1-5.83,11.65-5.83,18.47v17.93ZM591.28,24.93c0-2.64,0-10.28,8.1-10.28s7.74,5.64,7.74,10.28v23.21c0,4.64,0,12.01-7.92,12.01-6.55,0-7.92-5-7.92-12.01v-23.21ZM519.19,70.44h14.74v-25.03l8.01-.27c5.19-.18,10.46-.46,15.29-3.37,3-1.82,8.74-6.73,8.74-17.11,0-6.64-1.91-12.01-6.1-15.74-3.55-3.19-8.83-5.28-18.66-5.28h-22.02v66.8ZM533.93,14.65c8.83,0,9.92,0,12.29.91,2,.82,4.46,2.19,4.46,8.65,0,6.83-4.19,8.83-5.37,9.28-1.73.73-4.37.73-11.38.73V14.65ZM505.21,14.29c-5.46-8.01-12.38-12.01-22.2-12.01-13.74,0-21.75,7.92-21.75,18.93,0,13.2,8.73,17.66,18.84,21.57,10.01,3.91,12.74,5,12.74,10.01,0,6.1-5.73,7.55-8.92,7.55-5.73,0-10.19-3.46-12.65-9.1l-11.37,7.55c6.01,10.74,12.92,13.56,24.66,13.56,3.37,0,8.92-1,12.83-3.37,9.46-5.73,9.46-14.65,9.46-17.66,0-6.28-2.91-10.65-3.73-11.74-2.64-3.64-7.37-6.37-11.38-7.83l-8.46-3.09c-4.09-1.46-8.46-3.37-8.46-8.1,0-.73.18-6.46,7.82-6.46,5.19,0,9.46,3.46,11.56,7.46l11.01-7.28ZM399.23,70.44h13.47v-31.31c0-1.73-.36-10.19-.46-12.1h.46c3.46,8.1,3.55,8.37,5,11.01l17.75,32.4h12.01V3.64h-13.47v24.84c0,2.55,0,3.1.27,7.65l.37,6.73h-.46c-.27-.45-1.18-2.91-1.46-3.46-.64-1.37-1.55-3.19-2.27-4.55l-17.2-31.21h-14.01v66.8ZM350.7,3.64l-18.84,66.8h14.29l3.46-13.29h20.48l3.37,13.29h14.29L368.44,3.64h-17.74ZM367.17,45.77h-15.02l7.28-30.21h.36l7.37,30.21ZM290.44,43.13h4.91l12.65,27.3h15.92l-14.56-29.67c9.37-2.82,12.74-9.28,12.74-17.74,0-17.93-13.74-19.38-24.57-19.38h-21.57v66.8h14.47v-27.3ZM290.44,14.01c8.19,0,10.01,0,12.28.82,2.91,1.09,4.37,3.37,4.37,8.01,0,3.64-.36,7.28-5,8.92-2.09.73-3.37.73-11.65.73V14.01ZM215.52,3.64v12.19h17.02v54.6h15.29V15.83h16.65V3.64h-48.96Z"/>
  <path class="cls-2" d="M675.79,161.42h13.47v-31.31c0-1.73-.36-10.19-.45-12.1h.45c3.46,8.1,3.55,8.37,5.01,11.01l17.75,32.4h12.01v-66.79h-13.47v24.84c0,2.55,0,3.1.27,7.65l.37,6.73h-.46c-.27-.45-1.18-2.91-1.46-3.46-.64-1.37-1.55-3.18-2.27-4.55l-17.2-31.22h-14.01v66.79ZM615.77,161.42h46.96v-12.47h-32.21v-15.74h20.66v-12.19h-20.84v-14.2h30.3v-12.19h-44.87v66.79ZM602.09,105.27c-5.46-8.01-12.38-12.01-22.21-12.01-13.74,0-21.75,7.92-21.75,18.93,0,13.19,8.74,17.65,18.84,21.57,10.01,3.91,12.74,5.01,12.74,10.01,0,6.1-5.73,7.55-8.92,7.55-5.73,0-10.19-3.46-12.65-9.1l-11.38,7.55c6.01,10.74,12.92,13.56,24.66,13.56,3.37,0,8.92-1,12.83-3.37,9.46-5.74,9.46-14.65,9.46-17.66,0-6.28-2.91-10.65-3.73-11.74-2.64-3.64-7.37-6.37-11.38-7.83l-8.46-3.09c-4.09-1.46-8.46-3.37-8.46-8.1,0-.73.18-6.46,7.83-6.46,5.19,0,9.47,3.46,11.56,7.46l11.01-7.28ZM508.3,161.42h44.32v-12.47h-29.39v-54.33h-14.92v66.79ZM449.13,161.42h46.96v-12.47h-32.21v-15.74h20.66v-12.19h-20.84v-14.2h30.3v-12.19h-44.86v66.79ZM403.31,134.12h4.91l12.65,27.3h15.92l-14.56-29.67c9.37-2.82,12.74-9.28,12.74-17.75,0-17.93-13.74-19.38-24.57-19.38h-21.57v66.79h14.47v-27.3ZM403.31,105c8.19,0,10.01,0,12.28.82,2.91,1.09,4.37,3.37,4.37,8.01,0,3.64-.36,7.28-5.01,8.92-2.09.73-3.36.73-11.65.73v-18.47ZM359.58,161.42v-26.94l20.11-39.86h-15.56l-8.1,16.84c-2.27,4.73-2.55,5.18-3.82,8.01h-.45c-.55-1.18-3.19-6.91-3.82-8.19l-8.46-16.65h-15.74l21.11,40.4v26.39h14.74ZM269.61,94.63v12.19h17.02v54.6h15.29v-54.6h16.65v-12.19h-48.96ZM261.84,105.27c-5.46-8.01-12.38-12.01-22.2-12.01-13.74,0-21.75,7.92-21.75,18.93,0,13.19,8.74,17.65,18.84,21.57,10.01,3.91,12.74,5.01,12.74,10.01,0,6.1-5.73,7.55-8.92,7.55-5.73,0-10.19-3.46-12.65-9.1l-11.37,7.55c6.01,10.74,12.92,13.56,24.66,13.56,3.37,0,8.92-1,12.83-3.37,9.46-5.74,9.46-14.65,9.46-17.66,0-6.28-2.91-10.65-3.73-11.74-2.64-3.64-7.37-6.37-11.38-7.83l-8.46-3.09c-4.1-1.46-8.46-3.37-8.46-8.1,0-.73.18-6.46,7.83-6.46,5.19,0,9.46,3.46,11.56,7.46l11.01-7.28Z"/>
</svg>