<?xml version="1.0" encoding="UTF-8"?>
<svg id="Layer_1" data-name="Layer 1" xmlns="http://www.w3.org/2000/svg" viewBox="0 0 741.13 157.8">
  <defs>
    <style>
      .cls-1 {
        fill: #039;
      }

      .cls-2 {
        fill: #fff;
      }
    </style>
  </defs>
  <path class="cls-1" d="M245.59,41.61c0-5.56-.12-15.93-1.73-18.65-.62-1.11-2.22-1.73-4.45-1.85l-2.22-.12c-.49-.62-.37-1.85.12-2.1,3.46.12,6.79.25,10.25.25,3.83,0,6.17-.12,9.38-.25.74.49.62,1.61.12,2.1l-2.1.12c-2.22.12-3.95.99-4.45,2.1-1.23,2.96-1.23,13.34-1.23,18.28v10.13c0,7.78-1.23,16.05-6.3,21.49-3.83,4.2-10.5,6.54-17.16,6.54-6.17,0-12.35-1.11-16.79-4.94-4.82-3.95-7.04-10.5-7.04-21.24v-21.24c0-9.38-.12-10.87-5.43-11.36l-2.22-.12c-.49-.37-.37-1.85.12-2.1,4.45.12,7.53.25,11.11.25s6.67-.12,10.99-.25c.49.25.74,1.85.12,2.1l-2.1.12c-5.19.49-5.43,1.98-5.43,11.36v19.39c0,14.45,4.45,23.96,18.28,23.96,12.97,0,18.03-10.25,18.03-23.96l.12-10M294.24,54.33c2.1,4.2,4.07,8.4,6.17,12.35h.12c2.47-4.2,4.69-8.89,6.92-13.46l8.4-17.16c4.07-8.15,6.67-13.09,6.79-17.29,3.09.25,4.94.25,6.79.25,2.22,0,5.19-.12,8.03-.25.49.37.49,1.85.12,2.22l-1.85.12c-5.68.49-6.42,2.22-6.3,8.52.12,9.51.25,26.18.99,39.02.25,4.45.12,6.92,4.45,7.29l2.84.25c.49.49.49,1.85-.12,2.22-3.7-.12-7.41-.25-10.62-.25s-7.16.12-10.87.25c-.62-.49-.74-1.73-.12-2.22l2.59-.25c4.45-.49,4.45-1.85,4.45-7.66l-.25-37.42h-.25c-.62.99-4.07,8.15-5.8,11.73l-8.03,15.68c-4.07,7.9-8.03,16.3-9.76,20.5-.12.25-.49.37-.86.37-.12,0-.62-.12-.86-.37-1.48-4.82-5.8-13.58-7.9-18.03l-8.03-17.29c-1.85-4.07-3.83-8.77-5.8-12.97h-.12c-.37,5.56-.62,10.74-.86,16.05-.25,5.43-.62,13.46-.62,21.12,0,6.67.49,8.03,4.07,8.4l3.46.25c.62.49.49,1.98-.12,2.22-3.09-.12-6.54-.25-10-.25-2.84,0-6.05.12-9.14.25-.49-.49-.74-1.85-.12-2.22l1.98-.25c3.83-.49,5.06-1.11,5.56-7.41.49-5.93.99-10.87,1.48-19.76.49-7.41.86-15.06.99-20,.12-5.68-.49-7.04-6.05-7.78l-1.48-.12c-.49-.49-.37-1.85.37-2.22,2.72.12,4.82.25,7.04.25,2.1,0,4.45,0,7.41-.25-.37,3.46,1.85,9.01,4.69,14.82l10.25,20.75M353.76,32.47c0-9.38-.12-10.74-5.43-11.36l-1.48-.12c-.49-.37-.37-1.98.12-2.22,3.83.12,6.92.25,10.62.25h16.92c5.8,0,10.99,0,12.1-.25.49,1.48,1.11,8.03,1.48,11.98-.37.49-1.85.74-2.22.12-1.36-4.2-2.1-7.41-6.79-8.52-1.85-.49-4.82-.49-8.77-.49h-6.42c-2.72,0-2.72.12-2.72,3.58v18.03c0,2.47.25,2.47,2.96,2.47h5.19c3.83,0,6.54-.12,7.66-.49,1.11-.37,1.73-.86,2.1-3.09l.74-3.7c.49-.49,1.98-.49,2.35.12,0,2.1-.37,5.68-.37,9.01s.37,6.67.37,8.64c-.37.62-1.85.62-2.35.12l-.86-3.46c-.37-1.61-.99-2.96-2.84-3.46-1.23-.37-3.46-.49-6.92-.49h-5.19c-2.72,0-2.96.12-2.96,2.47v12.72c0,4.82.25,7.78,1.73,9.38,1.11,1.11,2.96,2.1,10.87,2.1,6.92,0,9.51-.37,11.48-1.36,1.61-.86,4.07-4.07,6.42-8.77.62-.49,1.85-.12,2.22.62-.62,3.09-2.84,10-4.07,12.47-8.03-.12-16.05-.25-24.08-.25h-8.03c-3.83,0-6.92.12-12.22.25-.49-.25-.74-1.73-.12-2.22l2.96-.25c5.06-.49,5.56-1.85,5.56-11.24v-32.6M426.25,12.47c2.35,0,4.07-1.98,4.07-4.82s-1.73-4.69-4.07-4.69c-2.22,0-4.07,1.98-4.07,4.69s1.85,4.82,4.07,4.82ZM433.9,7.65c0,3.83-3.09,7.29-7.66,7.29s-7.66-3.46-7.66-7.29,3.09-7.29,7.66-7.29,7.66,3.46,7.66,7.29ZM416.61,49.51c-.74,2.1-.62,2.1,1.85,2.1h10.99c2.59,0,2.84-.37,1.98-2.84l-4.82-14.69c-.74-2.1-1.48-4.57-2.1-5.68h-.12c-.25.49-1.11,2.59-2.1,5.31l-5.68,15.81ZM434.4,57.54c-.62-1.98-.99-2.22-3.7-2.22h-13.58c-2.22,0-2.84.25-3.46,2.1l-3.09,9.38c-1.36,4.07-1.98,6.42-1.98,7.41,0,1.11.49,1.61,2.59,1.85l2.96.25c.62.49.62,1.85-.12,2.22-2.35-.12-5.06-.12-9.38-.25-2.96,0-6.17.12-8.64.25-.49-.37-.74-1.85-.12-2.22l2.96-.25c2.1-.12,4.07-1.11,5.43-4.45,1.61-4.07,4.07-10,7.9-20l9.14-24.2c1.23-3.21,1.85-4.94,1.48-6.42,2.1-.62,3.7-2.22,4.69-3.46.49,0,1.11.12,1.36.86,1.11,3.95,2.59,8.03,3.95,11.98l12.35,36.06c2.59,7.78,3.83,9.01,7.66,9.51l2.47.25c.62.49.49,1.85,0,2.22-3.7-.12-6.79-.25-10.87-.25-4.32,0-7.78.12-10.37.25-.74-.37-.86-1.85-.12-2.22l2.59-.25c1.85-.12,3.09-.74,3.09-1.61,0-.99-.49-2.59-1.11-4.82l-4.07-11.98M245.59,120.88c0-5.56-.12-15.93-1.73-18.65-.62-1.11-2.22-1.73-4.45-1.85l-2.22-.12c-.49-.62-.37-1.85.12-2.1,3.46.12,6.79.25,10.25.25,3.83,0,6.17-.12,9.38-.25.74.49.62,1.61.12,2.1l-2.1.12c-2.22.12-3.95.99-4.45,2.1-1.23,2.96-1.23,13.34-1.23,18.28v10.13c0,7.78-1.23,16.05-6.3,21.49-3.83,4.2-10.5,6.54-17.16,6.54-6.17,0-12.35-1.11-16.79-4.94-4.82-3.95-7.04-10.5-7.04-21.24v-21.24c0-9.38-.12-10.87-5.43-11.36l-2.22-.12c-.49-.37-.37-1.85.12-2.1,4.45.12,7.53.25,11.11.25s6.67-.12,10.99-.25c.49.25.74,1.85.12,2.1l-2.1.12c-5.19.49-5.43,1.98-5.43,11.36v19.39c0,14.45,4.45,23.96,18.28,23.96,12.97,0,18.03-10.25,18.03-23.96l.12-10M321.53,142.37c0,2.72,0,13.34.25,15.68-.12.49-.74.99-1.73.99-1.11-1.48-3.7-4.69-11.48-13.58l-20.87-23.71c-2.47-2.84-8.52-10.13-10.37-12.1h-.12c-.37,1.11-.49,3.09-.49,5.8v19.63c0,4.2.12,15.93,1.61,18.65.49.99,2.35,1.48,4.57,1.73l2.84.25c.49.74.49,1.85-.12,2.22-4.07-.12-7.16-.25-10.5-.25-3.83,0-6.17.12-9.38.25-.62-.49-.74-1.73-.12-2.22l2.47-.25c2.1-.25,3.46-.86,3.95-1.85,1.23-3.21,1.11-14.2,1.11-18.52v-25.93c0-2.47-.12-4.45-1.98-6.42-1.23-1.23-3.46-1.85-5.56-2.1l-1.48-.12c-.49-.49-.49-1.85.12-2.22,3.83.25,8.52.25,10.13.25,1.48,0,2.96-.12,4.07-.25,1.85,4.57,12.35,16.42,15.31,19.76l8.77,9.76c6.17,6.92,10.62,11.98,14.82,16.3h.12c.37-.49.37-1.85.37-3.83v-19.26c0-4.2-.12-15.93-1.85-18.65-.49-.86-1.98-1.36-5.56-1.85l-1.48-.12c-.62-.49-.49-1.98.12-2.22,4.07.12,7.16.25,10.62.25,3.83,0,6.17-.12,9.26-.25.74.49.74,1.73.12,2.22l-1.23.12c-2.84.49-4.69,1.11-5.06,1.85-1.48,3.21-1.36,14.32-1.36,18.52v21.49M345.36,111.99c0-9.51-.12-10.99-5.43-11.48l-2.22-.12c-.49-.37-.37-1.98.12-2.22,4.45.12,7.53.25,11.36.25,3.58,0,6.67-.12,11.11-.25.49.25.74,1.85.12,2.22l-2.22.12c-5.31.49-5.43,1.98-5.43,11.48v31.98c0,9.51.12,10.74,5.43,11.36l2.22.25c.49.37.37,1.98-.12,2.22-4.45-.12-7.53-.25-11.11-.25-3.83,0-6.79.12-11.36.25-.49-.25-.74-1.73-.12-2.22l2.22-.25c5.31-.62,5.43-1.85,5.43-11.36v-31.98M376.36,107.92c-2.1-5.06-3.46-6.92-7.29-7.41l-1.61-.12c-.62-.49-.49-1.85.12-2.22,2.59.12,5.43.25,9.38.25s7.04-.12,10.87-.25c.62.37.86,1.73.12,2.22l-1.36.12c-3.46.49-4.07.99-4.2,1.73.12.86,1.73,5.8,4.45,12.6,4.07,10.37,8.27,20.75,12.72,30.99,2.84-5.93,6.54-15.19,8.64-20,2.59-6.05,6.79-16.3,8.4-20.13.74-1.85.86-2.84.86-3.46s-.86-1.36-4.07-1.73l-1.61-.12c-.62-.49-.49-1.85.12-2.22,2.47.12,5.93.25,9.38.25,2.96,0,5.8-.12,8.77-.25.62.37.62,1.85.12,2.22l-2.72.12c-2.1.12-3.46,1.23-4.69,3.09-2.47,4.2-6.05,11.48-10,20.62l-4.82,10.99c-3.58,8.27-7.78,18.65-9.38,23.46-.25.12-.62.25-.99.25-.49,0-.86-.12-1.36-.25-.99-3.83-2.59-8.15-4.07-11.98l-15.81-38.77M443.53,111.87c0-9.38-.12-10.74-5.43-11.36l-1.48-.12c-.49-.37-.37-1.98.12-2.22,3.83.12,6.92.25,10.62.25h16.92c5.8,0,10.99,0,12.1-.25.49,1.48,1.11,8.03,1.48,11.98-.37.49-1.85.74-2.22.12-1.36-4.2-2.1-7.41-6.79-8.52-1.85-.49-4.82-.49-8.77-.49h-6.42c-2.72,0-2.72.12-2.72,3.58v18.03c0,2.47.25,2.47,2.96,2.47h5.19c3.83,0,6.54-.12,7.66-.49s1.73-.86,2.1-3.09l.74-3.7c.49-.49,1.98-.49,2.35.12,0,2.1-.37,5.68-.37,9.01s.37,6.67.37,8.64c-.37.62-1.85.62-2.35.12l-.86-3.46c-.37-1.61-.99-2.96-2.84-3.46-1.23-.37-3.46-.49-6.92-.49h-5.19c-2.72,0-2.96.12-2.96,2.47v12.72c0,4.82.25,7.78,1.73,9.38,1.11,1.11,2.96,2.1,10.87,2.1,6.92,0,9.51-.37,11.48-1.36,1.61-.86,4.07-4.07,6.42-8.77.62-.49,1.85-.12,2.22.62-.62,3.09-2.84,10-4.07,12.47-8.03-.12-16.05-.25-24.08-.25h-8.03c-3.83,0-6.92.12-12.22.25-.49-.25-.74-1.73-.12-2.22l2.96-.25c5.06-.49,5.56-1.85,5.56-11.24v-32.6M504.41,124.83c0,1.61,0,2.59.25,2.96.25.25,1.61.49,6.17.49,3.21,0,6.67-.37,9.26-2.35,2.47-1.85,4.45-5.06,4.45-11.11,0-7.04-4.45-13.83-14.32-13.83-5.56,0-5.8.37-5.8,2.84v20.99ZM497,111.99c0-8.52-.25-10-3.95-10.5l-2.84-.37c-.62-.49-.62-1.85.12-2.22,5.06-.49,11.24-.74,20-.74,5.56,0,10.87.49,15.06,2.72,4.32,2.22,7.41,6.3,7.41,12.6,0,8.52-6.79,13.21-11.24,15.06-.49.49,0,1.48.49,2.1,7.16,11.61,11.98,18.77,18.03,23.96,1.48,1.36,3.83,2.35,6.17,2.47.49.12.49.86.12,1.23-.86.25-2.22.49-3.95.49-7.66,0-12.22-2.22-18.65-11.36-2.35-3.33-6.05-9.51-8.77-13.58-1.36-1.98-2.84-2.84-6.42-2.84-4.07,0-4.2.12-4.2,1.98v11.36c0,9.38.12,10.5,5.43,11.24l1.85.25c.49.49.37,1.98-.12,2.22-4.07-.12-7.04-.25-10.74-.25s-7.04.12-11.24.25c-.49-.25-.74-1.61-.12-2.22l2.22-.25c5.19-.62,5.43-1.85,5.43-11.24l-.12-32.35M566.89,159.16c-7.53,0-12.35-2.35-13.95-3.33-1.11-1.98-2.22-8.4-2.47-12.6.49-.62,1.85-.86,2.1-.25,1.36,4.57,5.06,13.34,15.44,13.34,7.53,0,11.24-4.94,11.24-10.37,0-3.95-.86-8.4-7.41-12.6l-8.52-5.56c-4.45-2.96-9.76-8.03-9.76-15.44,0-8.52,6.67-15.44,18.28-15.44,2.84,0,6.05.49,8.4,1.11,1.11.37,2.47.49,3.09.49.86,2.1,1.61,7.16,1.61,10.99-.37.49-1.85.86-2.22.25-1.11-4.32-3.58-10.13-12.22-10.13s-10.74,5.8-10.74,10c0,5.19,4.32,9.01,7.66,10.99l7.16,4.45c5.68,3.46,11.24,8.77,11.24,17.29.25,10-7.29,16.79-18.89,16.79M601.84,111.99c0-9.51-.12-10.99-5.43-11.48l-2.22-.12c-.49-.37-.37-1.98.12-2.22,4.45.12,7.53.25,11.36.25,3.58,0,6.67-.12,11.11-.25.49.25.74,1.85.12,2.22l-2.22.12c-5.31.49-5.43,1.98-5.43,11.48v31.98c0,9.51.12,10.74,5.43,11.36l2.22.25c.49.37.37,1.98-.12,2.22-4.45-.12-7.53-.25-11.11-.25-3.83,0-6.79.12-11.36.25-.49-.25-.74-1.73-.12-2.22l2.22-.25c5.31-.62,5.43-1.85,5.43-11.36v-31.98M655.31,144.22c0,9.38.12,10.74,5.43,11.24l2.84.25c.49.37.37,1.98-.12,2.22-5.06-.12-8.15-.25-11.73-.25s-6.79.12-12.47.25c-.49-.25-.74-1.85,0-2.22l3.21-.25c5.06-.49,5.56-1.85,5.56-11.24v-40.13q0-2.84-2.72-2.84h-4.94c-3.83,0-8.77.12-11.11,2.22-2.1,1.98-3.09,3.95-4.07,6.17-.74.49-1.98.12-2.35-.62,1.48-4.07,2.84-9.76,3.46-13.34.25-.12,1.48-.25,1.73,0,.49,2.84,3.46,2.84,7.66,2.84h36.3c4.82,0,5.68-.12,7.04-2.47.49-.12,1.48-.12,1.61.25-.99,3.7-1.61,10.99-1.36,13.71-.37.74-1.85.74-2.35.12-.25-2.22-.86-5.56-2.22-6.54-2.1-1.48-5.43-2.22-10.37-2.22h-6.42c-2.72,0-2.59.12-2.59,3.09v39.76M716.18,143.97c0,9.63.49,10.99,5.43,11.36l3.46.25c.49.49.37,1.98-.12,2.22-5.56-.12-8.64-.25-12.22-.25-3.83,0-7.04.12-11.73.25-.49-.25-.74-1.73-.12-2.22l2.84-.25c5.19-.49,5.43-1.85,5.43-11.36v-4.57c0-4.94-.25-6.05-2.84-11.11l-10.62-20.62c-3.09-5.93-4.45-6.42-7.04-6.79l-2.47-.49c-.49-.62-.49-1.85.12-2.22,2.84.12,6.05.25,10.37.25,4.07,0,7.41-.12,9.63-.25.86.25.86,1.73.25,2.22l-1.11.12c-3.09.49-3.83.86-3.83,1.61,0,.86,2.35,6.05,2.84,6.92,3.33,6.67,6.67,13.71,10.13,20,2.84-4.82,5.8-10,8.4-15.19,2.47-4.69,5.8-10.74,5.8-11.85,0-.49-1.61-1.11-3.83-1.48l-1.61-.12c-.62-.62-.49-1.85.12-2.22,3.21.12,5.8.25,8.64.25s5.31-.12,8.4-.25c.74.49.86,1.73.12,2.22l-2.47.49c-4.69.86-7.41,6.42-11.85,14.2l-5.68,9.76c-3.95,6.79-4.2,7.66-4.2,14.57v4.57"/>
  <path id="path46" class="cls-2" d="M72.1,93.72c-.49.12-.86-.12-.99-.49-.12-.37.25-.74.62-.86.49-.12.86.12.99.49.12.49-.12.86-.62.86ZM65.18,81.37c1.23.12,1.48.37,1.61.74.12.37,0,.62-.86,2.22-.12.12.25.25.37.25,4.32-5.06,11.36-2.84,12.72-2.22,1.61.62,1.36,1.48,1.11,1.73-.99,1.11-4.69,3.21-5.43,3.58s-.99.25-1.48-.25c-.49-.49-.86-1.98-.86-2.1v-1.73c0-.12-.37-.25-.37,0,0,.12-.37,1.23-.37,1.48-.12.12-.25.37-.49.25-.12,0-1.98-.62-1.98-.62-.12,0-.25.25-.12.37.12.12,1.85,1.23,2.22,1.48s.62.86.74,1.61c0,.25,0,.62-.49.74s-2.22-.49-2.72-.62c-.37-.12-.74-1.11-.86-1.36,0-.12-.49-.12-.49.12,0,.12,0,.99-.12,1.23-.12.37-.86.62-1.85.74-.12,0-.12.49,0,.49.86,0,1.23.37,1.23.62.12.25,0,.37-.49,1.48-.12.25.37.37.37.25,1.36-1.61,2.47-1.98,4.32-1.85.37,0,.62,0,.37.25-.62.74-2.1,2.59-5.93,6.17-.25.25-.37.74-.12,1.11,0,.12,1.11,1.48,1.11,1.61.12.12.25.12.37.12,3.21-1.36,5.31-1.98,5.31-1.98,1.85,3.09,3.33,5.06,4.57,4.69,1.23-.37,1.61-2.1,1.61-2.1,0,0,.86,1.36,2.22,1.73q.12,0,.12-.12v-9.38h-3.83c-.12,0-.25,0-.37-.12-2.84-1.85-3.21-2.22-2.47-2.59.25-.12.37-.12.49-.25,4.69-2.1,7.29-4.2,7.29-5.56,0-1.48-1.61-4.2-3.33-5.56-.12-.12-.37.25-.25.37.12.12,1.11,1.61.86,2.1-.25.49-2.22-.12-2.84-.49-.74-.37-1.48-1.98-1.85-2.72-.37-.62-1.23-1.23-1.23-1.23-.12,0-.25.25-.25.37.37.37,1.48,2.1.99,2.84-.37.74-1.98.86-2.72.25s-1.61-2.96-1.61-3.09c-.12-.12-.37,0-.37.12,0,.25.37,1.73-.37,2.1-.62.49-1.98-.12-2.72-.49-.12-.12-.37.25-.25.25.12.12,1.61,1.48,1.61,1.73,0,.37-.86.49-2.35.86,0,0,.12.37.25.37"/>
  <path id="path48" class="cls-2" d="M52.96,93.72c-.49.12-.86-.12-.99-.49-.12-.37.25-.74.62-.86.49-.12.86.12.99.49.12.49-.25.86-.62.86h0ZM45.92,81.37c1.23.12,1.48.37,1.61.74.12.37,0,.62-.86,2.22-.12.12.25.25.37.25,4.32-5.06,11.36-2.84,12.72-2.22,1.61.62,1.36,1.48,1.11,1.73-.99,1.11-4.69,3.21-5.43,3.58s-.99.25-1.48-.25c-.49-.49-.86-1.98-.86-2.1v-1.73c0-.12-.37-.25-.37,0,0,.12-.37,1.23-.37,1.48-.12.12-.25.37-.49.25-.25,0-1.98-.62-1.98-.62-.12,0-.25.25-.12.37.12.12,1.85,1.23,2.22,1.48s.62.86.74,1.61c0,.25,0,.62-.49.74s-2.22-.49-2.72-.62c-.37-.12-.74-1.11-.86-1.36,0-.12-.49-.12-.49.12,0,.12,0,.99-.12,1.23-.12.37-.86.62-1.85.74-.12,0-.12.49,0,.49.86,0,1.23.37,1.23.62.12.25,0,.37-.49,1.48-.12.25.37.37.37.25,1.36-1.61,2.47-1.98,4.32-1.85.37,0,.62,0,.37.25-.62.74-2.1,2.59-5.93,6.17-.25.25-.37.74-.12,1.11,0,.12,1.11,1.48,1.11,1.61.12.12.25.12.37.12,3.21-1.36,5.31-1.98,5.31-1.98,1.85,3.09,3.33,5.06,4.57,4.69,1.23-.37,1.61-2.1,1.61-2.1,0,0,.86,1.36,2.22,1.73q.12,0,.12-.12v-9.38h-3.83c-.12,0-.25,0-.37-.12-2.84-1.85-3.21-2.22-2.47-2.59.12-.12.37-.12.49-.25,4.69-2.1,7.29-4.2,7.29-5.56,0-1.48-1.61-4.2-3.33-5.56-.12-.12-.37.25-.25.37.12.12,1.11,1.61.86,2.1-.25.49-2.22-.12-2.84-.49-.74-.37-1.48-1.98-1.85-2.72-.37-.62-1.23-1.23-1.23-1.23-.12,0-.25.25-.25.37.37.37,1.48,2.1.99,2.84-.37.74-1.98.86-2.72.25s-1.61-2.96-1.61-3.09c-.12-.12-.37,0-.37.12,0,.25.37,1.73-.37,2.1-.62.49-1.98-.12-2.72-.49-.12-.12-.37.25-.25.25.12.12,1.61,1.48,1.61,1.73,0,.37-.86.49-2.35.86.12,0,.12.37.25.37"/>
  <path id="path50" class="cls-2" d="M91.24,93.72c-.49.12-.86-.12-.99-.49s.25-.74.62-.86c.49-.12.86.12.99.49.12.49-.12.86-.62.86h0ZM84.32,81.37c1.23.12,1.48.37,1.61.74.12.37,0,.62-.86,2.22-.12.12.25.25.37.25,4.32-5.06,11.36-2.84,12.72-2.22,1.61.62,1.36,1.48,1.11,1.73-.99,1.11-4.69,3.21-5.43,3.58-.74.37-.99.25-1.48-.25-.49-.49-.86-1.98-.86-2.1v-1.73c0-.12-.37-.25-.37,0,0,.12-.37,1.23-.37,1.48-.12.12-.25.37-.49.25-.25,0-1.85-.62-1.98-.62s-.25.25-.12.37c.12.12,1.85,1.23,2.22,1.48s.62.86.74,1.61c0,.25,0,.62-.49.74s-2.22-.49-2.72-.62c-.37-.12-.74-1.11-.86-1.36,0-.12-.49-.12-.49.12,0,.12,0,.99-.12,1.23-.12.37-.86.62-1.85.74-.12,0-.12.49,0,.49.86,0,1.23.37,1.23.62.12.25,0,.37-.49,1.48-.12.25.37.37.37.25,1.36-1.61,2.47-1.98,4.32-1.85.37,0,.62,0,.37.25-.62.74-2.1,2.59-5.93,6.17-.25.25-.37.74-.12,1.11,0,.12,1.11,1.48,1.11,1.61.12.12.25.12.37.12,3.21-1.36,5.31-1.98,5.31-1.98,1.85,3.09,3.33,5.06,4.57,4.69,1.23-.37,1.61-2.1,1.61-2.1,0,0,.86,1.36,2.22,1.73q.12,0,.12-.12v-9.38h-3.83c-.12,0-.25,0-.37-.12-2.84-1.85-3.21-2.22-2.47-2.59.12-.12.37-.12.49-.25,4.69-2.1,7.29-4.2,7.29-5.56,0-1.48-1.61-4.2-3.33-5.56-.12-.12-.37.25-.25.37.12.12,1.11,1.61.86,2.1-.25.49-2.22-.12-2.84-.49-.74-.37-1.48-1.98-1.85-2.72-.37-.62-1.23-1.23-1.23-1.23-.12,0-.25.25-.25.37.37.37,1.48,2.1.99,2.84-.37.74-1.98.86-2.72.25-.74-.62-1.61-2.96-1.61-3.09-.12-.12-.37,0-.37.12,0,.25.37,1.73-.37,2.1-.62.49-1.98-.12-2.72-.49-.12-.12-.37.25-.25.25.12.12,1.61,1.48,1.61,1.73,0,.37-.86.49-2.35.86,0,0,.12.37.25.37"/>
  <path id="path52" class="cls-1" d="M45.92,81c1.61-.37,2.35-.62,2.35-.86,0-.37-1.48-1.73-1.61-1.73-.12-.12.12-.37.25-.25.74.37,2.1.99,2.72.49s.37-1.85.37-2.1c0-.12.37-.25.37-.12.12.12.86,2.47,1.61,3.09.74.62,2.35.49,2.72-.25.37-.74-.62-2.47-.99-2.84-.12-.12.12-.37.25-.37s.86.62,1.23,1.23,1.23,2.22,1.85,2.72c.74.37,2.59.99,2.84.49.25-.49-.74-1.98-.86-2.1s.25-.37.25-.37c1.73,1.23,3.33,3.95,3.33,5.56,0,1.48-2.59,3.46-7.29,5.56-.12.12-.37.12-.49.25-.74.37-.37.74,2.47,2.59.12.12.25.12.37.12h3.83v9.38c0,.12,0,.25-.12.12-1.36-.49-2.22-1.73-2.22-1.73,0,0-.37,1.73-1.61,2.1-1.23.37-2.72-1.61-4.57-4.69,0,0-2.1.62-5.31,1.98-.12.12-.25,0-.37-.12-.12-.12-1.11-1.48-1.11-1.61-.25-.37-.12-.74.12-1.11,3.83-3.58,5.31-5.43,5.93-6.17.12-.25,0-.25-.37-.25-1.85-.12-2.96.25-4.32,1.85-.12.12-.49,0-.37-.25.49-1.23.62-1.23.49-1.48s-.37-.62-1.23-.62c-.25,0-.25-.49,0-.49,1.11-.12,1.73-.37,1.85-.74.12-.25.12-1.11.12-1.23,0-.25.37-.25.49-.12,0,.12.49,1.11.86,1.36.37.12,2.22.74,2.72.62.49-.12.49-.49.49-.74-.12-.74-.37-1.36-.74-1.61-.37-.25-2.1-1.36-2.22-1.48-.12-.12,0-.37.12-.37s1.85.62,1.98.62c.25,0,.37-.12.49-.25s.37-1.23.37-1.48c0-.12.37-.12.37,0v1.73c0,.12.37,1.61.86,2.1.49.49.74.49,1.48.25.74-.37,4.45-2.47,5.43-3.58.25-.25.49-1.11-1.11-1.73-1.48-.49-8.4-2.72-12.72,2.22-.12.12-.37-.12-.37-.25.86-1.61.99-1.85.86-2.22-.12-.37-.37-.62-1.61-.74-.37,0-.37-.37-.25-.37h0ZM65.06,81c1.61-.37,2.35-.62,2.35-.86,0-.37-1.48-1.73-1.61-1.73-.12-.12.12-.37.25-.25.74.37,2.1.99,2.72.49s.37-1.85.37-2.1c0-.12.37-.25.37-.12.12.12.86,2.47,1.61,3.09.74.62,2.35.49,2.72-.25.37-.74-.62-2.47-.99-2.84-.12-.12.12-.37.25-.37s.86.62,1.23,1.23,1.23,2.22,1.85,2.72c.74.37,2.59.99,2.84.49.25-.49-.74-1.98-.86-2.1s.25-.37.25-.37c1.73,1.23,3.33,3.95,3.33,5.56,0,1.48-2.72,3.46-7.29,5.56-.12.12-.37.12-.49.25-.74.37-.37.74,2.47,2.59.12.12.25.12.37.12h3.83v9.38c0,.12,0,.25-.12.12-1.36-.49-2.22-1.73-2.22-1.73,0,0-.37,1.73-1.61,2.1-1.23.37-2.72-1.61-4.57-4.69,0,0-2.1.62-5.31,1.98-.12.12-.25,0-.37-.12-.12-.12-1.11-1.48-1.11-1.61-.25-.37-.12-.74.12-1.11,3.83-3.58,5.31-5.43,5.93-6.17.12-.25,0-.25-.37-.25-1.85-.12-2.96.25-4.32,1.85-.12.12-.49,0-.37-.25.49-1.23.62-1.23.49-1.48s-.37-.62-1.23-.62c-.25,0-.25-.49,0-.49,1.11-.12,1.73-.37,1.85-.74.12-.25.12-1.11.12-1.23,0-.25.37-.25.49-.12,0,.12.49,1.11.86,1.36.37.12,2.22.74,2.72.62.49-.12.49-.49.49-.74-.12-.74-.37-1.36-.74-1.61-.37-.25-2.1-1.36-2.22-1.48-.12-.12,0-.37.12-.37s1.85.62,1.98.62c.25,0,.37-.12.49-.25s.37-1.23.37-1.48c0-.12.37-.12.37,0v1.73c0,.12.37,1.61.86,2.1.49.49.74.49,1.48.25.74-.37,4.45-2.47,5.43-3.58.25-.25.49-1.11-1.11-1.73-1.48-.49-8.4-2.72-12.72,2.22-.12.12-.37-.12-.37-.25.86-1.61.99-1.85.86-2.22-.12-.37-.37-.62-1.61-.74-.25,0-.37-.37-.25-.37h0ZM84.32,81c1.61-.37,2.35-.62,2.35-.86,0-.37-1.48-1.73-1.61-1.73-.12-.12.12-.37.25-.25.74.37,2.1.99,2.72.49s.37-1.85.37-2.1c0-.12.37-.25.37-.12s.86,2.47,1.61,3.09,2.35.49,2.72-.25-.62-2.47-.99-2.84c-.12-.12.12-.37.25-.37s.86.62,1.23,1.23,1.23,2.22,1.85,2.72c.74.37,2.59.99,2.84.49s-.74-1.98-.86-2.1c-.12-.12.25-.37.25-.37,1.73,1.23,3.33,3.95,3.33,5.56,0,1.48-2.59,3.46-7.29,5.56-.12.12-.37.12-.49.25-.74.37-.37.74,2.47,2.59.12.12.25.12.37.12h3.83v9.38c0,.12,0,.25-.12.12-1.36-.49-2.22-1.73-2.22-1.73,0,0-.37,1.73-1.61,2.1-1.23.37-2.72-1.61-4.57-4.69,0,0-2.1.62-5.31,1.98-.12.12-.25,0-.37-.12s-1.11-1.48-1.11-1.61c-.25-.37-.12-.74.12-1.11,3.83-3.58,5.31-5.43,5.93-6.17.12-.25,0-.25-.37-.25-1.85-.12-2.96.25-4.32,1.85-.12.12-.49,0-.37-.25.49-1.23.62-1.23.49-1.48s-.37-.62-1.23-.62c-.25,0-.25-.49,0-.49,1.11-.12,1.73-.37,1.85-.74.12-.25.12-1.11.12-1.23,0-.25.37-.25.49-.12,0,.12.49,1.11.86,1.36.37.12,2.22.74,2.72.62s.49-.49.49-.74c-.12-.74-.37-1.36-.74-1.61-.37-.25-2.1-1.36-2.22-1.48s0-.37.12-.37,1.85.62,1.98.62c.25,0,.37-.12.49-.25.12-.12.37-1.23.37-1.48,0-.12.37-.12.37,0v1.73c0,.12.37,1.61.86,2.1.49.49.74.49,1.48.25.74-.37,4.45-2.47,5.43-3.58.25-.25.49-1.11-1.11-1.73-1.48-.49-8.4-2.72-12.72,2.22-.12.12-.37-.12-.37-.25.86-1.61.99-1.85.86-2.22s-.37-.62-1.61-.74c-.37,0-.49-.37-.25-.37h0ZM40.36,115.45h65.69v-50.26H40.36v50.26"/>
  <path id="path54" d="M52.71,92.48c-.49.12-.74.49-.62.86.12.37.49.62.99.49s.74-.49.62-.86c-.25-.37-.62-.62-.99-.49"/>
  <path id="path56" d="M71.85,92.48c-.49.12-.74.49-.62.86.12.37.49.62.99.49s.74-.49.62-.86c-.12-.37-.62-.62-.99-.49"/>
  <path id="path58" d="M90.99,92.48c-.49.12-.74.49-.62.86.12.37.49.62.99.49.49-.12.74-.49.62-.86-.12-.37-.49-.62-.99-.49"/>
  <path id="path60" class="cls-1" d="M106.05,59.76l-32.72-14.32-32.85,14.32v2.47h65.69v-2.47"/>
  <path id="path62" class="cls-1" d="M128.03,52.72c1.73,0,3.21-1.48,3.21-3.21s-1.48-3.21-3.21-3.21-3.21,1.48-3.21,3.21,1.36,3.21,3.21,3.21"/>
  <path id="path64" class="cls-1" d="M18.75,52.72c1.73,0,3.21-1.48,3.21-3.21s-1.48-3.21-3.21-3.21-3.21,1.48-3.21,3.21,1.48,3.21,3.21,3.21"/>
  <path id="path66" class="cls-1" d="M8.01,81.37l3.21.49c1.36.25,4.2.74,4.82,1.23.12.12.25.37.25.99v.99c0,.12.12.25.74.49h.12l.62-.25v-.12s0-.12.25-2.84l.37-2.96h0c0-.12-.12-.25-.49-.49l-.12-.12-.74.12-.12.12s-.12.12-.25.86c-.12.62-.25.86-.37.86-.25.12-1.23.25-5.19-.49l-2.96-.49c-4.32-.74-6.17-2.72-5.68-5.8.25-1.48.86-2.47,1.73-3.09,1.23-.86,3.09-.99,5.56-.62l5.56.99q2.59.49,2.47,1.61l-.12.74v.12c0,.12.25.49.62.49.25,0,.62,0,.86-.25v-.12s0-.12.74-3.33l.86-3.33v-.12c0-.25-.25-.49-.62-.62s-.62,0-.74.12v.12s0,.12-.25.74q-.37,1.11-3.21.74l-6.17-1.11c-3.21-.62-5.31-.25-6.79,1.11-1.23.99-2.1,2.72-2.47,4.94-.37,2.1.12,4.32,1.11,5.68,1.36.99,3.46,1.98,6.42,2.59"/>
  <path id="path68" class="cls-1" d="M20.23,107.79c.12,0,.37.37.74.99l.25.37h.12c.25.12.62.25.86.12s.37-.25.49-.49h0s0-.12-.99-2.72l-.99-2.96v-.12c-.12-.25-.49-.37-.74-.37-.37,0-.62.25-.74.49v.12s0,.12.12.62c.25.99.12,1.23.12,1.36-.12.12-.74.62-4.82,1.73l-5.43,1.48h-.12c.49-.74,1.36-2.1,2.96-4.69h0c.12-.12,2.1-3.21,2.1-3.21l.37-.49c.86-1.23,3.09-4.57,4.07-5.31l.12-.12v-.12s0-.25-.25-1.36l-.49-2.84v-.12c-.12-.25-.37-.37-.74-.37s-.62.25-.74.37v.74c0,.62,0,1.11-.25,1.48-.37.49-.74.62-1.48.86l-7.41,1.98-.37.12c-1.23.37-3.83.99-4.69.99,0,0-.25-.12-.37-.62l-.25-.62-.12-.12c-.12-.12-.25-.12-.74-.25h-.12l-.62.49v.12q0,.12.62,2.72l.49,2.96v.12c0,.12.12.25.62.37h.12l.62-.25.12-.12v-.12c0-.12,0-.62-.12-.99v-.62c0-.25.12-.37.12-.37h0c.49-.49,3.21-1.36,4.94-1.73l5.56-1.48c.25-.12.49-.12.62-.12-.74,1.11-2.1,3.09-2.1,3.09,0,.12-5.19,7.66-5.19,7.66-2.1,3.21-2.72,3.95-2.96,4.2l-.12.12v.12c.12.49.37.86.86.86h.25c.25-.12,1.23-.37,4.32-1.23l6.54-1.73c1.11-.37,3.95-1.11,4.82-.99"/>
  <path id="path70" class="cls-1" d="M28.63,120.64c.25.12.62.12.86-.12.12-.12.37-.37.37-.74v-.12s0-.12-1.98-2.72l-1.85-2.84-.12-.12c-.25-.12-.62-.12-.86,0s-.49.37-.37.62v.12s0,.12.37.74c.49.99.62.99-1.73,2.59l-7.78,5.31c-2.22,1.61-2.35,1.48-3.09.62l-.49-.62h-.12c-.37-.12-.62,0-.86.25s-.25.49-.25.62v.12s0,.12,1.98,2.84l1.73,2.72.12.12c.12.12.25.12.37.12s.37,0,.49-.12c.25-.12.49-.37.37-.62v-.12s0-.12-.37-.74c-.49-.99-.62-1.11,1.73-2.59l7.78-5.31c2.35-1.61,2.35-1.48,3.09-.62l.37.49.25.12"/>
  <path id="path72" class="cls-1" d="M47.28,135.95c.37,0,.62-.25.74-.49h0c.12-.25.12-.49,0-.74v-.12s-.12-.12-2.22-1.48l-2.22-1.61h-.12c-.25,0-.62.12-.86.37-.12.12-.25.37-.25.49v.37s.12.12.49.49c.25.25.49.37.49.49l-.62.49-10.25,5.8c.62-2.35,2.22-8.52,2.22-8.52.49-1.73.86-2.96,1.11-3.46.12,0,.37.12.62.37l.37.25h.12c.25,0,.62-.12.74-.37.12-.25.25-.49.12-.74v-.12s0-.12-2.59-2.1l-2.1-1.85h-.12c-.25-.12-.62,0-.86.25s-.25.49-.25.74v.12s0,.12.37.49c.62.62.62,1.11.25,2.72l-3.21,12.1c-.25,1.11-.74,2.47-1.11,3.46v.25c0,.12,0,.25.37.62l.12.12.49.12.12-.12c1.36-.86,4.32-2.59,6.42-3.83l3.09-1.73c2.72-1.48,4.94-2.59,6.17-3.21.62-.25.99-.25,1.23,0l1.11.37h0"/>
  <path id="path74" class="cls-1" d="M63.95,139.78c-.25,0-1.85-.49-3.21-.86h-.12l-4.69-1.48h0l-2.96-.99h-.12c-.25,0-.49.25-.62.62,0,.12-.12.49.12.74l.12.12s.12,0,.49.25q1.11.49.25,3.09l-2.84,9.01q-.86,2.59-1.98,2.35l-.99-.25h-.12c-.25.12-.49.37-.49.74,0,.25,0,.49.25.74h.12s.12,0,3.58.99l9.14,2.96.12-.12c.74-.62,1.98-2.47,2.35-3.33v-.25c0-.37-.12-.62-.37-.74-.25-.12-.49-.25-.74-.12h-.12l-.12.12c-1.11,1.11-1.98,1.73-2.35,1.73-.62.12-1.36,0-3.09-.62-2.22-.74-2.47-1.11-2.59-1.23-.25-.37,0-1.23.37-2.47l1.11-3.58q0-.12.12-.25c.12,0,.25.12.37.12l1.48.49c.86.25,1.48.49,1.85.62.25.12.25.37.25.74l-.12,1.11v.12c.12.25.37.49.74.62.25,0,.49,0,.74-.12v-.12s0-.12.37-1.11l.37-1.48.86-2.59v-.12c0-.25-.25-.49-.49-.62-.25-.12-.62-.12-.86,0h-.12s-.12.12-.62,1.11c-.25.49-.37.49-.49.49-.25,0-.86-.12-2.1-.49l-1.48-.49c-.12,0-.25-.12-.37-.12q0-.12.12-.25l1.61-5.06c.12-.25.12-.49.12-.49.12,0,.25.12.25.12l1.85.62c1.11.37,1.85.62,2.35.86.99.62.99,1.23.99,2.47v.25c.12.12.25.37.62.49.12,0,.49.12.74-.12l.12-.12s.12-.12.12-.49c.37-1.48.62-2.84.62-3.21v-.37h-.49"/>
  <path id="path76" class="cls-1" d="M81.36,147.93c-.62.62-1.61.74-2.35.86-.86.12-1.23.12-1.48.12v-.49l-.62-6.17v-.25c.12-.12.86-.12,1.23-.12,2.84-.12,3.95,1.48,4.07,3.09,0,1.36-.25,2.35-.86,2.96h0ZM90.5,155.83h0c-.74,0-1.36-.12-1.85-.49-1.98-1.23-3.7-3.21-6.05-6.17h0c.74-.49,3.09-2.1,2.84-5.06-.25-2.35-1.61-3.33-2.84-3.83s-2.59-.49-4.2-.37h-.49c-2.35.12-4.2.25-5.8.49h-.12c-.25.12-.37.37-.37.74,0,.25.12.62.37.74h.12s.12,0,.99.12c.62,0,.74,0,.99,2.59l.86,9.51q.25,2.59-.86,2.84l-.74.12-.12.12c-.25.25-.25.49-.25.86.12.25.25.49.37.49h.12c.12,0,.62,0,3.33-.25l3.09-.12h.12c.12-.12.37-.25.37-.62s-.12-.62-.37-.74h-.12s-.12,0-.74-.12q-1.23-.12-1.48-2.84l-.37-3.33v-.12c.12,0,.49,0,.74-.12.86-.12,1.23.12,1.61.49l3.09,3.58c2.22,2.47,3.7,3.09,6.17,2.72l1.23-.37.12-.12c.25-.25.25-.49.25-.74.37.25.12.12,0,0"/>
  <path id="path78" class="cls-1" d="M101.86,136.69h0ZM101.73,141.38l-2.47-.12c-1.61-.12-2.72-.62-3.21-1.48-.12-.25-.37-.74-.37-1.36,0-.86.49-1.61,1.48-2.22,1.85-1.11,3.09-.25,4.07.74l.12.12c.12.12.49.12.74-.12.25-.12.49-.37.49-.74v-.25c-.62-1.11-1.61-2.22-2.1-2.72l-.12-.12h-.12c-.12,0-.25,0-1.11.37-.74.12-1.61.49-2.47.99-1.48.86-2.47,1.98-2.96,3.33s-.37,2.72.37,3.95c1.23,2.1,3.46,2.59,5.06,2.72l2.96.12c2.1.12,2.84.99,3.33,1.85.37.62.49,1.23.25,1.85-.12.74-.74,1.23-1.48,1.73-1.73.99-3.58.62-5.31-1.11h-.12c-.25-.12-.49-.12-.74,0-.25.12-.49.37-.49.74v.12l.12.12c.62,1.11,1.98,2.59,2.59,3.09h.37c.86,0,2.35-.12,4.2-1.23,1.73-.99,2.72-2.22,3.21-3.83.12-.49.12-.86.12-1.36,0-.86-.25-1.73-.74-2.47-.99-1.73-2.84-2.72-5.68-2.72"/>
  <path id="path80" class="cls-1" d="M124.33,136.69h0q-.12,0-.74.49-.99.74-2.84-1.36l-6.3-6.92q-1.85-2.1-1.11-2.96l.49-.49v-.12c0-.12.12-.49-.25-.86-.12-.12-.49-.37-.74-.25h-.12s-.12,0-2.47,2.35l-2.47,2.1-.12.12c-.12.25-.12.62.12.86.25.37.49.37.74.37h.12s.12,0,.62-.49c.86-.62.99-.74,2.84,1.36l6.3,6.92q1.85,2.1.99,2.96l-.49.62v.12c0,.37.12.62.37.86.12.12.37.25.49.25h.25s.12,0,2.47-2.35h0c.25-.25.86-.74,2.47-2.1l.12-.12c.12-.25.12-.62-.12-.86-.12-.37-.37-.49-.62-.49"/>
  <path id="path82" class="cls-1" d="M138.65,118.29c-.12-.12-.49-.25-.74-.12l-.12.12-.62.74c-.62.86-.74.99-3.09-.37l-10.13-5.8c-.12-.12-.25-.12-.37-.25,0-.12.12-.25.12-.25l.99-1.61c.62-1.11,1.23-1.85,1.85-2.1.12,0,.62,0,1.61.37h.25c.37,0,.62-.25.74-.62.12-.25.12-.62,0-.74v-.12h-.12c-.74-.37-2.47-1.48-3.21-2.22l-.12-.12h-.12c-.49-.12-.86.37-.86.74v.25c.25.49.37.62-.37,1.73l-5.31,9.26c-.74,1.23-.86,1.48-1.23,1.36h-.25c-.49.12-.74.62-.62.86v.12l.12.12c.49.37,1.98,1.73,2.84,2.84l.12.12h.12c.37.12.62,0,.86-.25s.25-.49.25-.74v-.25c-.37-.49-.74-.99-.86-1.73-.12-.74.62-2.22.99-2.84l.74-1.23c0-.12.12-.25.12-.25.12,0,.25.12.37.12l10.25,5.8c2.35,1.36,2.35,1.48,1.85,2.47l-.37.86v.12c0,.37.12.62.49.74.12.12.25.12.49.12.12,0,.25,0,.37-.12h.12s.12-.12,1.85-3.33h0c.25-.25.74-1.11,1.85-2.96v-.12c-.37-.25-.62-.62-.86-.74"/>
  <path id="path84" class="cls-1" d="M147.42,91.37c-.74-.62-2.72-1.73-3.58-1.98h-.25c-.37,0-.49.25-.74.49-.12.25-.12.49,0,.74v.12h.12c1.23.99,1.85,1.73,1.98,2.1.12.49.12,1.36-.25,3.21-.49,2.35-.86,2.59-.99,2.72-.37.25-1.23.12-2.47-.12l-3.58-.74-.25-.12v-.37l.25-1.48c.12-.74.25-1.48.49-1.85.12-.25.25-.37.74-.37h1.23c.25-.12.49-.37.49-.74,0-.25,0-.49-.25-.74h-.12s-.12,0-1.11-.25l-1.48-.25-2.72-.62h-.12c-.25,0-.49.25-.62.62-.12.25-.12.62.12.86h.12s.12,0,1.11.49q.49.25.49.37c0,.25,0,.86-.25,2.1l-.25,1.48c0,.12,0,.25-.12.37h-.25l-5.19-.99c-.25,0-.49-.12-.62-.12v-.37l.37-1.85c.25-1.11.37-1.85.62-2.35.49-.99,1.11-1.11,2.35-1.23h.25c.12-.12.37-.25.49-.62,0-.12,0-.49-.25-.74l-.12-.12s-.12,0-.49-.12c-1.48-.12-2.84-.25-3.33-.25l-.37.12v.37c0,.25-.25,1.98-.62,3.33l-.99,4.94-.74,3.09v.12c.12.25.25.49.62.62s.62,0,.74-.12h0s0-.12.25-.49q.37-1.11,3.09-.62l9.26,1.73c2.72.49,2.72.62,2.59,1.73l-.12.99v.12c.12.25.49.49.74.49h0c.25,0,.49-.12.62-.25v-.12s0-.12.62-3.7l1.85-9.51.62-.12"/>
  <path id="path86" class="cls-1" d="M129.27,71.86c0-.12,0-.25-.12-.25h0c0-.12-.12-.49-.37-1.85-.25-1.36-.25-2.22,0-2.84,0-.12.37-.37,1.48-.74h.12l.12-.12c.25-.25.25-.49.12-.86-.12-.25-.25-.49-.49-.62h-.25c-.74.25-2.84.37-3.95.37h-.12l-.12.12c-.12.12-.25.25-.25.49s0,.49.12.74l.12.12h.12q.62.25.86,1.61l2.22,10.5c.25,1.36.25,1.73,0,1.85h-.12v.12c-.25.37-.12.99.12,1.11l.12.12h.12c1.23,0,2.84.12,4.07.25h.25c.25-.12.49-.49.49-.74s-.12-.49-.25-.74h-.25c-.62-.12-1.23-.25-1.85-.74-.62-.37-.86-1.73-1.11-2.72l-.25-1.48v-.25c.12,0,.25,0,.37-.12l11.48-2.22c2.72-.49,2.72-.37,2.96.62l.25.86.12.12c.25.25.49.37.86.25.37-.12.49-.25.62-.49v-.12s0-.12-.74-3.7l-.62-3.46v-.12c-.12-.25-.49-.37-.86-.37s-.62.25-.62.37v.12s0,.12.12.99q.12,1.11-2.59,1.73l-11.61,2.22c-.37-.12-.62-.12-.74-.12"/>
  <path id="path88" class="cls-1" d="M25.05,32.1h0c.12,0,.25,0,.74-.49q.99-.62,2.47,1.48c0,.12,3.7,5.06,3.7,5.06,1.98,2.59,3.7,3.83,5.68,3.95h.37c1.48,0,2.96-.62,4.69-1.85,1.85-1.23,2.84-2.84,3.09-4.57.25-1.98-.37-4.07-2.1-6.54l-1.61-2.47c-1.11-1.73-2.35-3.7-2.47-4.45,0-.12.12-.37.62-.74l.49-.37.12-.12c.12-.12.12-.25-.12-.86v-.12l-.62-.25h-.12s-.12,0-2.47,1.48h0c-.25.12-.86.49-2.59,1.48l-.12.12c-.12.12-.12.25-.12.74v.12l.62.49h.12q.12,0,.74-.37c.62-.37.99-.25.99-.25.62.37,2.1,2.47,2.84,3.7l1.98,2.96c1.11,1.61,1.73,3.09,1.73,4.32.12,1.48-.62,2.72-1.98,3.7-2.84,1.98-5.19,1.23-7.78-2.47l-3.33-4.57-.12-.12q-1.48-2.1-.74-2.84l.49-.49.12-.12c.12-.12.12-.49-.25-.86-.25-.25-.49-.37-.74-.25h-.12s-.12,0-2.59,2.1l-2.59,1.98-.12.12c-.12.25-.12.62.12.86.49.37.74.49.99.49"/>
  <path id="path90" class="cls-1" d="M74.81,29.63h0c.25-.12.49-.37.49-.74,0-.25-.12-.62-.37-.74h-1.11c-.74,0-.86-.25-1.11-1.48l-2.35-11.48c-.25-1.73-.25-1.85.99-2.1l.62-.12.12-.12c.25-.12.25-.49.25-.74,0-.12-.12-.49-.37-.74h-.12q-.12,0-2.47.25l-2.47.12v.86c0,1.11-.49,2.72-1.11,4.82,0,.12-1.73,5.8-1.73,5.8,0,0-.62,1.98-.99,2.96-.25-.37-.74-1.11-1.48-2.1l-4.32-6.17c-.49-.74-1.85-2.59-1.98-3.7v-.49l-2.59.74c-.12,0-2.1.37-2.1.37h-.12c-.25.12-.37.37-.37.74,0,.25.12.62.25.74l.12.12h.62c1.36-.12,1.48-.12,1.61,1.36l.74,5.8.49,5.31.12.86c.12,1.61-.12,1.73-.99,2.1h0c-.12,0-.25.12-.62.25l-.12.12c-.25.25-.25.49-.25.74.12.25.25.49.49.62h.12c.12,0,.37,0,2.84-.74l2.84-.62h.12c.25-.12.37-.49.37-.74s-.12-.62-.49-.74h-.12s-.12,0-1.23.12h-.49c-.25-.12-.37-1.23-.49-1.73l-.74-5.8-.37-3.46,1.36,1.98h0c.25.37.86,1.23,3.21,4.69l.49.62c.74,1.11,2.1,2.96,2.72,4.07v.12c.25.25.49.25.74.25s.49-.25.62-.37v-.12c.25-1.23.99-3.7,1.85-6.42l2.1-6.92,1.73,9.14c.12.49.12.86.12,1.23s0,.49-.74.62l-.74.12h-.12c-.12.12-.25.12-.25.74v.12l.37.62h.12q.12,0,3.33-.25l2.96-.49"/>
  <path id="path92" class="cls-1" d="M95.81,29.75h0v-.25c0-.37-.12-.62-.49-.74-.25-.12-.49-.12-.74-.12h-.12v.12c-.99,1.23-1.85,1.85-2.22,1.85-.62.12-1.36,0-3.21-.49-2.35-.62-2.59-.99-2.59-1.11-.25-.37-.12-1.23.25-2.47l.86-3.58.12-.25c.12,0,.25,0,.37.12l1.48.37c.86.25,1.48.37,1.85.62.25.12.37.37.25.74h0v1.36c.12.25.37.49.74.49.25,0,.49,0,.74-.25l.12-.12s0-.12.25-1.11l.37-1.48.74-2.59v-.12c0-.25-.25-.49-.49-.62s-.62-.12-.86.12l-.12.12s0,.12-.49,1.11q-.25.49-.49.49c-.12,0-.49,0-2.1-.37l-1.48-.37c-.12,0-.25-.12-.37-.12q0-.12.12-.25l1.36-5.19c0-.25.12-.37.12-.49.12,0,.25,0,.25.12l1.85.49c1.11.25,1.85.49,2.35.74.99.49.99,1.23,1.11,2.35v.25c.12.25.37.37.62.49.12,0,.49.12.74-.12l.12-.12s.12-.12.12-.49c.25-1.48.49-2.84.37-3.21v-.37h-.37c-.25,0-1.98-.37-3.33-.74l-4.82-1.23-3.09-.86h-.12c-.25,0-.49.25-.62.62-.12.25-.12.62.12.74l.12.12s.12,0,.49.25c1.11.37,1.11.49.49,3.09l-2.35,9.14c-.62,2.59-.74,2.59-1.85,2.47l-.99-.12h-.12c-.25.12-.49.37-.49.74,0,.25.12.49.25.62h.12s.12,0,3.58.86l2.35.62c.12,0,6.79,1.85,6.79,1.85h.25l.12-.12c.37-.86,1.48-2.72,1.98-3.58"/>
  <path id="path94" class="cls-1" d="M107.66,31.98q0-.12,0,0l4.57-3.21.49-.25-1.73,5.56q0,.12-.12.25l-.12-.12h0c-.25-.37-.99-.86-3.09-2.22q.12,0,0,0h0ZM115.44,23.58h0c.25-.37.62-.62.99-.62.25,0,.37,0,.49.12.49.37.49.99.12,1.61-.25.37-.49.49-.86.62-.25,0-.49,0-.74-.12-.25-.12-.37-.37-.37-.62.12-.37.12-.74.37-.99h0ZM97.66,35.06s.12.12.62.37l1.61.99,2.22,1.48h.12c.37.12.62,0,.86-.37.25-.25.25-.62.12-.86v-.12s-.12-.12-.74-.62c-.12-.12-.25-.12-.25-.25.12-.12.37-.49,1.61-1.36l1.85-1.23q.25-.25.62.12l3.58,2.47c.25.12.37.25.37.37v.25l-.86,2.96c-.12.25-.25.86-.37,1.11-.12,0-.25-.12-.37-.25l-.74-.49h-.12c-.37,0-.62.12-.74.37s-.25.62-.12.86v.12s0,.12.49.49l1.98,1.48,2.47,2.1h.25c.25,0,.49-.12.74-.37.12-.25.25-.49.12-.74v-.12s0-.12-.62-.62c-.62-.62-.74-.99,0-3.21l3.21-10.87.74-2.47c.99.12,1.98-.37,2.59-1.11.86-1.36.62-3.09-.74-4.07s-3.21-.74-4.07.62c-.62.86-.62,2.1-.12,2.96l-1.23.86h0c-.12.12-6.3,4.2-6.3,4.2l-.86.62h0c-.86.62-2.22,1.48-2.72,1.73h0l-1.73,1.11c-.62.37-1.11.49-1.61.25l-.86-.37h-.12c-.25,0-.49.12-.74.49-.12.37-.25.74-.12,1.11h0"/>
</svg>