<?xml version="1.0" encoding="UTF-8"?>
<svg id="Layer_1" data-name="Layer 1" xmlns="http://www.w3.org/2000/svg" viewBox="0 0 740.81 209.14">
  <defs>
    <style>
      .cls-1 {
        fill: #004b8a;
      }
    </style>
  </defs>
  <g>
    <path class="cls-1" d="M52.51,48.21c-14.97,14.34-23.47,33.65-23.92,54.38-.93,42.79,33.13,78.36,75.93,79.29,20.73.45,40.39-7.2,55.36-21.54,14.98-14.34,23.47-33.65,23.92-54.39.93-42.79-33.13-78.36-75.93-79.28-20.72-.46-40.38,7.19-55.36,21.54ZM104.63,175.98c-39.53-.86-71-33.72-70.14-73.26.41-19.15,8.26-37,22.1-50.25,13.84-13.25,32.01-20.32,51.15-19.9,39.54.85,71.01,33.72,70.15,73.26-.41,19.15-8.26,37-22.1,50.25-13.84,13.25-32.01,20.33-51.16,19.91Z"/>
    <path class="cls-1" d="M33.67,28.53C13.43,47.91,1.96,73.99,1.35,101.99c-1.25,57.82,44.76,105.87,102.56,107.12,57.81,1.25,105.86-44.77,107.11-102.58h0c.61-28-9.73-54.57-29.09-74.8C162.55,11.51,136.47.03,108.46-.58c-28-.61-54.57,9.73-74.8,29.11ZM104.02,204.38c-55.2-1.19-99.13-47.07-97.92-102.27.57-26.73,11.53-51.65,30.85-70.14C56.26,13.46,81.63,3.6,108.36,4.17c26.73.58,51.64,11.54,70.14,30.85,18.5,19.31,28.36,44.68,27.78,71.41h0c-1.2,55.2-47.08,99.13-102.27,97.94Z"/>
    <path class="cls-1" d="M127.06,166.63c-38.93,6.98-70.13-8.17-75.84-26.86-3.69-12.09,1.67-14.71,2.53-23.44-6.74,3.6-7.98-5.76-2.03-6.56,6.3-.84,9.12,5.77,6.05,14.57-4.4,12.65,3.33,18.52,5.51,17.87.09-.66.89-2.27,1.27-2.99-5.3-6.77-3.09-16.65,5.95-17.45,3.68-.33,3.32,2.35.76,2.73-6.93,1-6.6,8.74-3.72,9.72.51,0,1.1-.13,1.61-.65-.12-1.57.97-3.82,2.77-3.38,3.99,1.01,2.47,6.1-.27,6.51-1.03,3.13-3,7.5-2.57,9.77.41,2.26,2,2.71,3.31,1.4.96-.96,1.43-3.3,2.05-5.83-.66-2.86.73-5.03,3.15-4,1.68.72,1.87,3.29.21,5.29-.21,2.46-1.29,5.24-1.05,7.12.24,1.89,2.81,1.76,3.74.73.93-1.02,1.88-7.67,2.26-9.14-1.45-1.28-.87-5.2,2.09-5.44,3.49-.28,2.68,4.46,1.69,5.66.98,3.7-.61,7.88.1,9.53s3.43,2.05,4.66.7c1.23-1.36-.32-4.22.36-7.55-1.18-2.88.19-5.19,1.91-5.32,3.89-.31,2.78,3.19,2.07,5.66.19,2.52.63,5.53,1.5,7.85.56,1.51,3.05,1.85,3.88-.09.52-1.21-.67-4.64-.94-7.07-1.68-3.92-.26-4.99,1.25-5.11,1.43-.11,3.38.69,3.12,4.56.78,2.61,1.46,5.77,2.43,7.82.44,1.64,2.44,1.81,3.08.1.62-1.7-.55-3.7-1.81-6.44-2.79-2.71-.26-4.8,1.34-4.93,1.58-.12,4.07.31,3.55,4.52.86,2.56,1.43,4.9,2,6.26.66,1.56,2.84,1.75,3.77.73.93-1.03-.85-2.84-1.32-5.07-2.11-2.04-1.72-4.84.68-5.03,1.23-.1,3.63.04,3.41,3.63.71,1.55.72,3.53,1.75,5.21,1.26,2.06,3.2,1.28,3.98-.57.76-1.86-4.06-7.25-.29-7.55,3.77-.3,4.43,4.65,5.66,5.83,1.22,1.18,2.16.39,2.74-.25.99-1.09-1.64-4.05.19-4.89,3.7-1.7,3.64,2.53,6.26,2.57,11.47.18,20.49-18.64,19.15-23.95-3.83-2.27-2.49-7.96.73-8.02,7.9-.14,6.78,11.02.79,23.98-7.87,17-27.19,25.74-35.44,27.23Z"/>
    <path class="cls-1" d="M143.76,77.2c-.13-.05-.16-.27-.13-.37,1.77-6.8,3.06-9.79,3.7-16.57.15-1.62-1-2.93-2.08-3.2-4.19-1.05-6.12-1.01-7.75-1.14-.17,0-.56-.09-.68-.32-.48-.98-1.2-3.94-1.21-5.45,2.45-5.18-1.92-6.98-6.04-6.91-2.7-.13-5.46,1.12-5.78,3.14-.37,3.92,3.97,5.36,5.52,5.5.26.56.9,3.3,1,4.38,0,.14-.12.3-.31.3-6.95.13-15.98,1.35-20.54,1.7-.66.1-.97-.28-1.11-.66-.85-2.34-4.47-13.41,2.33-13.2,4.04.13,7.41-3.17,3.58-5.69-.98-.65-6.14-1.28-8.93-.8-2.31.4-3.43,3.01-3.14,5.29.46,3.58-8.45,3.94-11.09,2.88-1.87-.75-4.18-2.99-4.99-4.43-1.71-3.06-4.67-.73-4.14.91,3.69,11.13,15.47,9.36,18.55,9.52.15,0,.42.21.43.29.74,4.02,3.14,8.26,3.14,9.83-1.47,1.63-.84,5.11,1.23,5.71-2.53,2.42-3.66,10.9-3.25,17.92.52,8.96,4.13,17.64,9.82,16.71,7.24-1.18,4.39-17.93,6.14-19.36.88-.71,3.23-.51,4.09-.41.2.02.3.25.29.35-.58,6.57-2.13,17.11-2.52,19.92-.39,2.86-.63,4.35.82,6.99,1.59,2.92,4.5,12.18,1.1,21.98-.1.38-.43.51-.53.53-3.07.71-4.71,1.66-5.83,2.42-1.21.82-2.51,2.54-1.62,3.58,1.29,1.17,9.55.72,12.1-3.1.06-.09.24-.46.27-.54.88-2.46,1.99-4.26,2.82-5.84,3.81-7.28,4.37-16.21-.86-20.25-1.46-1.13-2.97-2.2-1.54-5.04,2.77-5.48,3.06-11.46,3.41-16.51.14-2.03,3.52-3.2,4.8-1.28,3.17,7.5.68,13.97.63,16.63-.06,2.67.94,3.9,1.29,5.5,2.16,9.78,1.07,17.69-.88,27.79,0,.21-.18.36-.38.43-2.29.77-3.7,1.25-5.13,2.25-1.46,1.02-2.02,2.32-1.39,3.03,1.92,2.17,10.61-.18,11.26-2.67,1.63-6.19,13.33-20.53,5.19-29.69-3.71-4.18-3.71-2.5-3.75-4.61-.02-1.01,2.33-6.56,2.92-10.86.62-4.46-2.31-8.72-1.58-11.19.02-.07.21-.19.29-.18,1.21.23,4.07,1,5.92,2.06.57.32,1.56.07,1.71-2.15.14-2.4-5.96-4.73-7.18-5.16ZM110.38,95.82c-3.36-.07-4.61-21.04-1.14-20.97,3.11.06,3.46,21.01,1.14,20.97ZM121.51,64.82c.28,1.07,1.33,5.79,1.57,8.62.13,1.06-.24,2.34-.88,2.59-1.58.61-4.21.46-5.64-.09-1.56-.6-.51-6.85-6.26-7.97.79-.56,1.21-1.14,1.37-2.51.1-.9,1.21-1.87,2.57-2.03,2.63-.3,4.28-.37,5.16-.34.89.03,1.83.64,2.12,1.73ZM137.27,74.07c-1.28,1.23-5.29,1.48-7.35.28-1.7-1-2.1-8.48-1.24-10.5s9.65-2.11,10.35-.72c.7,1.4-.49,9.72-1.76,10.94Z"/>
    <path class="cls-1" d="M99.45,84.43c-.66-7.93-8.05-18.41-18.86-20.2-11.73-1.95-29.97,2.76-31.94,19.99-2.05,17.84,11.62,31.09,28.01,29.84,17.79-1.37,23.71-18.4,22.78-29.63ZM88.88,97.15c.96-.09,2.78.13,3.3,1.45.57,1.44-3.4,5.92-5.23,6.45-1.12.32-2.81-1.37-2.5-3.04.2-1.08,3.65-4.78,4.43-4.86ZM94.96,91.47c-.93.62-2.69.73-3.43-.39-.51-.77-.68-6.46-.33-7.31.35-.87,2.26-1.52,3.34-.93,1.24.68,1.93,7.62.42,8.63ZM91.45,76.65c-.21,1.09-2.01,1.52-2.8,1.43-.96-.11-5.06-3.31-5.31-4.43-.35-1.47.64-2.4,1.58-2.64,2.54-.64,6.82,4.07,6.53,5.65ZM77.66,68.63c.37.8.81,1.86-.02,2.78-.7.76-6.96.98-7.9.92-1.98-.13-2.9-2.16-2.24-3.17,1.19-1.85,9.48-2.01,10.17-.53ZM82.73,80.21c0,1.69-5.91,4.52-7.09,3.83-1.73-1.02-5.25-6.24-4.51-7.15,2.54-3.16,11.6.67,11.6,3.32ZM66.68,78.76c.75-.16,4.3,5.33,3.65,7.36-.55,1.72-7.08,4.15-7.73,3.5-1.99-1.99-.25-9.95,4.08-10.86ZM65.35,94.95c0-1.03,5.32-4.64,7.41-3.85,1.68.63,4.33,7.26,2.9,7.93-3.86,1.82-10.31-2.38-10.31-4.08ZM81.9,96.03c-1.55-.68-5.6-6-4.16-7.45,1.35-1.36,7.03-4.24,7.95-3.38,3.53,3.28-.72,12.16-3.78,10.83ZM58.38,79.98c-1.49.74-2.89-.27-3.03-2.12-.16-1.84,4.19-6.35,5.76-5.92.77.21,1.92,1.67,1.79,2.97-.08.91-3.64,4.63-4.52,5.07ZM57.33,92.56c-.83.99-2.71,1.62-3.61.9-1.35-1.08-1.76-5.52-.88-7.4.59-1.27,3.68-1.97,4.25-.52.39,1,.86,6.29.24,7.03ZM56.61,100.28c-.11-1.42,1.8-3.01,3.26-2.71,1.18.25,4.81,4.09,4.98,4.99.31,1.65-1.01,2.95-2.11,3.03-1.71.13-6-3.77-6.13-5.31ZM70.26,107.84c-1.19-.66-.26-3.03,1.46-3.3,1.21-.19,5.29-.68,6.71-.06,1.1.48,1.87,2.78,1.25,3.45-1.18,1.31-7.73.85-9.42-.09Z"/>
    <polygon class="cls-1" points="73.8 15.22 73.28 19.22 70.7 22.31 74.69 22.82 77.79 25.41 78.29 21.41 80.88 18.32 76.88 17.8 73.8 15.22"/>
    <polygon class="cls-1" points="148.62 188.51 145.37 186.12 141.34 185.88 143.72 182.62 143.97 178.59 147.22 180.98 151.24 181.22 148.86 184.48 148.62 188.51"/>
    <polygon class="cls-1" points="63.47 188.36 66.72 185.99 70.75 185.76 68.39 182.49 68.15 178.45 64.89 180.84 60.87 181.07 63.23 184.33 63.47 188.36"/>
    <path class="cls-1" d="M41.2,171.05l4.11-4.81c1.86-2.19,4.84-2.03,7.69.39,2.86,2.44,3.5,5.37,1.63,7.55l-4.1,4.82c-.5.59-.52.92.15,1.49l-1.46,1.11-3.96-3.38.88-1.6c.68.58,1,.5,1.5-.09l4.12-4.83c.82-.96.74-2.13-.54-3.22-1.31-1.12-2.5-1.03-3.32-.07l-4.12,4.83c-.5.59-.52.92.13,1.48l-1.46,1.12-3.62-3.08.86-1.62c.68.57,1,.5,1.5-.09Z"/>
    <path class="cls-1" d="M28.02,155.02l8.68-6.5,1.63,2.18-2.72,9.17c-.19.64-.68,1.64-.68,1.64,0,0,.78-.73,1.17-1.02l3.82-2.87c.6-.45.73-.76.19-1.47l1.66-.77,2.61,3.49-1.19,1.39c-.53-.71-.88-.7-1.48-.24l-6.37,4.78c-.62.46-.72.78-.18,1.49l-1.67.75-2.35-3.13,2.46-8.34c.2-.65.71-1.67.71-1.67,0,0-.8.74-1.24,1.07l-3.26,2.44c-.62.46-.71.78-.18,1.49l-1.66.77-2.63-3.51,1.21-1.38c.53.72.85.7,1.47.23Z"/>
    <path class="cls-1" d="M31.36,138.4l2.25,4.56-1.44,1.13c-.39-.79-.74-.84-1.41-.51l-7.14,3.54c-.7.34-.84.64-.45,1.43l-1.77.46-2.25-4.56,1.44-1.13c.39.79.72.85,1.42.51l7.14-3.54c.68-.33.84-.64.45-1.43l1.77-.46Z"/>
    <path class="cls-1" d="M15.17,124.76l11.73,1.06,1.03,3.5-9.29,7.2c-.68.52-.75.8-.52,1.58l-1.83.12-1.44-4.86,1.6-.89c.23.7.51.8,1.1.37l4.49-3.38c.74-.52,2.32-1.26,2.32-1.26,0,0-1.74.19-2.66.14l-5.65-.55c-.75-.05-.91.27-.7.99l-1.82.15-1.28-4.33,1.61-.87c.23.8.44.95,1.29,1.03Z"/>
    <path class="cls-1" d="M23.85,106.39l.96,10.51-1.75.56c-.08-.88-.39-1.06-1.14-.99l-7.93.73c-.77.07-1.02.29-.94,1.17l-1.82-.23-.92-10.04,3.24-.3.42,1.39c-1.04.25-1.26.56-1.12,2.08l.21,2.33,3.28-.3-.19-2.12c-.08-.9-.27-1.22-.97-1.16l.22-1.48,3.24-.29.51,1.42c-.73.07-.85.41-.77,1.32l.19,2.12,3.57-.32-.3-3.24c-.13-1.41-.55-1.63-1.53-1.73l.15-1.5,3.39.09Z"/>
    <path class="cls-1" d="M25.31,87.96l-.45,4.02c-2.14,1.76-5.47-.05-5.78,2.69l-.18,1.63,2.59.29c.74.09,1.05-.06,1.15-.94l1.74.58-.56,5.01-1.83.2c.1-.9-.16-1.11-.91-1.19l-7.91-.89c-.74-.08-1.05.08-1.15.96l-1.74-.6.76-6.86c.37-3.32,1.96-5.12,4.48-4.85,1.65.19,2.69,1.2,3.14,2.96.65-1.64,2.25-1.88,3.22-1.97,1.13-.1,1.52-.28,1.64-1.31l.03-.31,1.74.57ZM13.06,93.6l-.22,2.02,3.89.43.22-1.96c.16-1.47-.5-2.32-1.68-2.46-1.19-.13-2.04.51-2.2,1.96Z"/>
    <path class="cls-1" d="M28.13,79.2c-.82,2.55-2.24,4.14-2.94,4.82l-2.57-1.61.38-1.18c1.62.01,2.64-1.29,3.08-2.63.33-1.03.2-2.26-.9-2.61-.95-.31-1.6.27-2.66,2.28-1.06,2.06-2.77,3.9-5.4,3.05-2.57-.83-3.28-3.59-2.34-6.52.72-2.23,1.89-3.78,2.55-4.45l2.43,1.55-.37,1.16c-1.42.15-2.26,1.32-2.6,2.37-.37,1.16-.11,2.15.75,2.43.84.27,1.46-.34,2.24-1.84,1.44-2.72,2.98-4.5,5.87-3.57,2.82.9,3.41,3.9,2.49,6.76Z"/>
    <path class="cls-1" d="M34.17,64.56l-2.32,4.53-1.76-.49c.4-.78.24-1.09-.43-1.44l-7.09-3.63c-.69-.35-1.02-.3-1.42.49l-1.43-1.15,2.32-4.53,1.76.48c-.4.78-.26,1.09.43,1.44l7.09,3.64c.67.34,1.02.3,1.42-.49l1.43,1.15Z"/>
    <path class="cls-1" d="M34.8,45.8c-.84-.42-1.35-.47-2.2.69l-.78,1.07,6.85,5.02c.61.45.94.48,1.47-.24l1.22,1.36-2.98,4.07-1.68-.73c.54-.73.41-1.04-.19-1.49l-6.85-5.03-.78,1.07c-.85,1.16-.65,1.63,0,2.31l-1.1,1.01-2.51-2.3,7.21-9.83,2.96,1.68-.63,1.34Z"/>
    <path class="cls-1" d="M55.36,39.3l-3.66,3.41-1.49-1.05c.49-.45.53-.76-.18-1.13l-.98-.51-3.56,3.32.42,1.03c.32.76.68.67,1.2.18l.95,1.56-3.15,2.94-1.49-1.06c.58-.54.67-.83.34-1.61l-3.43-8.08c-.22-.49-.54-.65-1.17-.05l-.93-1.58,5.26-4.91,1.51,1.04c-.65.61-.56.89-.05,1.14l7.87,4c.73.38,1.02.35,1.62-.21l.95,1.57ZM43.73,37.08c-.68-.4-2.06-1.55-2.06-1.55,0,0,.99,1.55,1.33,2.23l1.46,3.45,2.56-2.38-3.29-1.74Z"/>
    <path class="cls-1" d="M62.99,34.61c-2.27,1.41-4.39,1.7-5.36,1.76l-.91-2.9,1.05-.65c1.23,1.06,2.85.73,4.05-.01.92-.57,1.61-1.6,1.01-2.58-.53-.84-1.4-.82-3.51.01-2.13.88-4.63,1.18-6.09-1.17-1.43-2.29-.18-4.86,2.44-6.49,1.99-1.24,3.89-1.66,4.83-1.74l.85,2.75-1.03.64c-1.18-.8-2.58-.46-3.52.12-1.03.64-1.47,1.56-1,2.34.47.75,1.33.68,2.9.05,2.86-1.15,5.19-1.5,6.78,1.08,1.56,2.52.06,5.19-2.49,6.77Z"/>
    <path class="cls-1" d="M101.28,16.58c-.92.12-1.08.44-.98,1.16l.14,1.05c.1.71.27.86.73.79l-.12,1.74c-1.94.39-2.26,1.24-5.22,1.64-3.97.54-7.58-.94-8.26-5.98-.62-4.63,2.07-7.37,6.38-7.96,2.59-.35,4.58.41,5.44.76l-.36,3.13-1.18.16c-.59-1.37-1.85-1.78-3.25-1.59-2.48.33-3.61,1.92-3.19,5.01.42,3.11,1.74,4.32,4.18,3.99.59-.08,1.31-.35,1.7-.63l-.22-1.66c-.1-.73-.31-.99-1.25-.86l-.24.03.13-1.83,5.22-.7.61,1.72-.24.03Z"/>
    <path class="cls-1" d="M112.84,22.58c-4.1-.33-6.84-2.46-6.43-7.57.41-5.11,3.45-6.78,7.55-6.45,4.17.33,6.86,2.46,6.45,7.57s-3.41,6.78-7.57,6.45ZM113.77,11.02c-2.13-.17-3.23.92-3.5,4.29s.65,4.62,2.77,4.79c2.17.17,3.22-.92,3.5-4.29.27-3.38-.6-4.62-2.76-4.8Z"/>
    <path class="cls-1" d="M135.36,16.71c.1-.93-.04-1.43-1.44-1.81l-1.28-.35-2.23,8.19c-.2.73-.1,1.05.75,1.28l-.83,1.63-4.87-1.33.09-1.84c.87.24,1.12,0,1.32-.72l2.23-8.19-1.28-.35c-1.39-.38-1.76-.02-2.16.83l-1.33-.67,1.25-3.17,11.75,3.21-.51,3.37-1.48-.1Z"/>
    <path class="cls-1" d="M149.61,34.15l-4.49-2.29.46-1.78c.8.41,1.1.23,1.44-.43l1.39-2.72-4.59-2.34-1.38,2.72c-.35.67-.31,1,.47,1.41l-1.15,1.43-4.49-2.28.46-1.78c.8.41,1.1.24,1.44-.44l3.62-7.1c.35-.69.31-1.01-.5-1.42l1.17-1.42,4.49,2.28-.48,1.77c-.79-.4-1.07-.25-1.42.44l-1.12,2.19,4.6,2.34,1.11-2.19c.35-.69.31-1.01-.49-1.42l1.16-1.42,4.49,2.29-.48,1.77c-.78-.4-1.07-.24-1.42.44l-3.62,7.1c-.34.67-.31,1.01.48,1.41l-1.15,1.43Z"/>
    <path class="cls-1" d="M158.23,40.95c-3.18-2.61-4.21-5.92-.94-9.89,3.26-3.96,6.71-3.59,9.88-.97,3.22,2.66,4.22,5.94.96,9.9-3.27,3.96-6.67,3.62-9.9.96ZM165.6,32.01c-1.64-1.35-3.17-1.09-5.32,1.52-2.16,2.61-2.11,4.17-.47,5.52,1.67,1.38,3.17,1.09,5.32-1.52s2.15-4.14.47-5.51Z"/>
    <path class="cls-1" d="M170.8,53.47l-4.19-5.2,1.14-1.44c.56.69.91.66,1.49.19l6.2-5c.61-.49.69-.8.13-1.49l1.64-.81,3.91,4.86c2.11,2.62,2.35,4.86.5,6.36-.86.7-2.26.72-3.31.19.66,1.69.13,3.19-1.04,4.14-1.98,1.59-4.38.8-6.48-1.8ZM174.02,47.89l-3.06,2.47,1.22,1.52c.93,1.15,1.99,1.24,2.92.49.91-.73,1.03-1.85.07-3.04l-1.15-1.43ZM175.73,46.51l1.03,1.28c.84,1.05,1.75,1.12,2.52.49.75-.61.9-1.43.02-2.52l-1.04-1.29-2.53,2.04Z"/>
    <path class="cls-1" d="M191.85,67.56l-5.63,2.88c-2.57,1.31-5.26.02-6.95-3.31-1.71-3.35-1.18-6.3,1.38-7.61l5.64-2.88c.69-.35.83-.65.43-1.44l1.78-.46,2.36,4.63-1.43,1.15c-.4-.78-.73-.84-1.42-.49l-5.66,2.89c-1.12.57-1.49,1.68-.73,3.18.78,1.54,1.92,1.9,3.03,1.33l5.66-2.89c.69-.35.83-.65.44-1.42l1.76-.48,2.17,4.24-1.42,1.17c-.41-.79-.73-.85-1.43-.5Z"/>
    <path class="cls-1" d="M187.47,90.1l-1.04-3.91c1.35-2.41,5.12-1.93,4.41-4.6l-.42-1.58-2.52.67c-.73.19-.96.44-.73,1.29l-1.83.09-1.29-4.88,1.63-.84c.23.87.55.97,1.28.78l7.7-2.04c.73-.19.95-.46.73-1.31l1.83-.07,1.76,6.67c.85,3.23.03,5.48-2.43,6.13-1.6.42-2.94-.13-4-1.62-.01,1.76-1.43,2.57-2.29,3-1.01.5-1.32.81-1.06,1.81l.08.3-1.83.1ZM196.85,80.41l-.52-1.97-3.79,1,.5,1.9c.38,1.44,1.31,1.99,2.46,1.68,1.16-.3,1.72-1.2,1.35-2.62Z"/>
    <path class="cls-1" d="M193.98,106.84c-.04-.93-.34-1.12-1.07-1.08l-1.06.05c-.71.03-.88.2-.85.66l-1.72-.27c-.23-1.96-1.05-2.36-1.2-5.35-.19-4,1.58-7.47,6.66-7.73,4.66-.23,7.18,2.68,7.39,7.04.12,2.6-.79,4.53-1.22,5.35l-3.08-.62-.06-1.19c1.42-.47,1.93-1.69,1.86-3.1-.12-2.5-1.6-3.75-4.72-3.6-3.14.15-4.45,1.37-4.33,3.82.03.6.24,1.34.49,1.75l1.68-.08c.73-.04,1.01-.23.96-1.18v-.24s1.8.29,1.8.29l.26,5.26-1.77.47v-.25Z"/>
    <path class="cls-1" d="M186.59,122.2l1.59-10.43,1.83-.12c-.13.88.12,1.12.86,1.23l7.88,1.21c.76.11,1.06-.04,1.19-.92l1.71.67-1.52,9.97-3.21-.49-.07-1.45c1.07,0,1.35-.24,1.58-1.75l.35-2.32-3.26-.5-.31,2.1c-.14.9-.04,1.25.67,1.36l-.57,1.39-3.21-.49-.15-1.5c.73.11.93-.19,1.07-1.09l.32-2.1-3.55-.54-.49,3.21c-.21,1.4.14,1.72,1.08,2.04l-.51,1.43-3.26-.89Z"/>
    <path class="cls-1" d="M191.02,142.88l-10.14-3.83.96-2.55,9.2-2.63c.64-.19,1.75-.31,1.75-.31,0,0-1.03-.27-1.49-.45l-4.47-1.68c-.71-.26-1.03-.2-1.35.63l-1.54-.98,1.54-4.08,1.82.26c-.31.83-.11,1.12.59,1.38l7.45,2.81c.73.27,1.04.18,1.35-.65l1.54,1.01-1.38,3.66-8.35,2.4c-.66.18-1.79.29-1.79.29,0,0,1.05.28,1.56.47l3.81,1.44c.73.27,1.04.18,1.35-.65l1.54.98-1.54,4.1-1.81-.28c.31-.8.12-1.06-.61-1.34Z"/>
    <path class="cls-1" d="M175.58,147.91c1.43-2.26,3.2-3.45,4.05-3.93l2.09,2.2-.67,1.05c-1.56-.42-2.88.58-3.64,1.78-.58.92-.75,2.15.22,2.76.84.53,1.61.13,3.14-1.54,1.54-1.72,3.65-3.09,5.99-1.61,2.28,1.45,2.28,4.3.64,6.89-1.25,1.98-2.78,3.19-3.58,3.67l-1.97-2.1.65-1.03c1.42.21,2.52-.71,3.11-1.65.65-1.03.65-2.05-.12-2.54-.74-.47-1.5-.03-2.63,1.22-2.07,2.27-4.01,3.62-6.57,2-2.51-1.57-2.33-4.63-.72-7.18Z"/>
    <path class="cls-1" d="M165.92,160.77l3.39-3.8,1.58.91c-.59.66-.51,1,.05,1.5l5.95,5.29c.58.52.91.54,1.49-.11l1.09,1.47-3.38,3.8-1.59-.91c.59-.67.52-.99-.05-1.5l-5.95-5.29c-.56-.5-.91-.54-1.5.12l-1.09-1.47Z"/>
    <path class="cls-1" d="M157.46,168.22c2.09-1.67,4.15-2.21,5.11-2.39l1.25,2.77-.96.77c-1.35-.9-2.92-.38-4.02.51-.85.68-1.41,1.78-.69,2.68.62.77,1.48.65,3.48-.44,2.01-1.13,4.45-1.73,6.18.43,1.69,2.11.76,4.81-1.64,6.72-1.83,1.46-3.66,2.12-4.58,2.31l-1.17-2.63.95-.77c1.27.66,2.61.15,3.48-.54.94-.76,1.28-1.73.71-2.44-.55-.69-1.41-.52-2.88.3-2.7,1.48-4.97,2.11-6.86-.26-1.86-2.31-.69-5.14,1.65-7.02Z"/>
    <path class="cls-1" d="M84.09,198.19l-6.78-1.94.14-1.85.87.25c.89.26,1.18.06,1.39-.66l1.98-6.92c-.49.25-1.3.37-2.68.13l.57-2c1.48.05,2.38-.1,3.9-1.48l2.77.79-3,10.48c-.2.73-.02,1.05.85,1.3l.87.25-.86,1.64Z"/>
    <path class="cls-1" d="M97.03,200.51c-3.74-.35-5.98-2.07-5.77-4.34.19-1.96,1.85-2.92,3.66-3.5-1.47-.85-2.71-1.9-2.57-3.46.19-2,2.52-3.16,6-2.83,3.32.31,5.49,1.89,5.3,3.9-.15,1.56-1.53,2.37-3.14,2.92,1.67.91,3.13,2.17,2.94,4.12-.21,2.26-2.79,3.53-6.43,3.19ZM97.64,194.08c-1.52.55-2.63,1.31-2.74,2.43-.09.99.87,1.81,2.32,1.95,1.41.13,2.56-.47,2.65-1.46.11-1.15-.86-2.1-2.23-2.92ZM98.17,188.42c-1.24-.11-2.1.31-2.18,1.17-.08.88.67,1.64,1.85,2.31,1.24-.44,2.12-1.05,2.2-1.93.08-.85-.71-1.45-1.87-1.55Z"/>
    <path class="cls-1" d="M114.18,200.55c-.9.08-2.63-.06-3.22-.43l-.19-1.94c.67.18,1.63.27,2.49.18,2.42-.23,3.82-1.46,4.12-3.86-.45.73-1.71,1.43-3.05,1.56-3.32.32-5.41-1.44-5.67-4.22-.28-2.84,1.77-5.08,5.36-5.43,4.16-.4,6.33,2.11,6.68,5.69.41,4.3-1.46,7.95-6.53,8.44ZM114.23,188.54c-1.63.15-2.47,1.33-2.31,3,.15,1.56,1.08,2.52,2.65,2.37,1.43-.14,2.67-1.14,2.49-2.95-.11-1.19-.89-2.6-2.83-2.41Z"/>
    <path class="cls-1" d="M135.57,196.26l-6.82,1.8-.82-1.66.87-.23c.9-.24,1.04-.55.85-1.28l-1.84-6.95c-.29.47-.93.97-2.23,1.48l-.53-2.01c1.3-.71,1.99-1.3,2.59-3.27l2.78-.73,2.79,10.55c.19.73.52.91,1.39.68l.88-.23.09,1.85Z"/>
  </g>
  <g>
    <path d="M243.35,75.12c0-2.48.06-3.98.06-10.44,0-5.16-.06-9.27-.13-15.15l-.26-.26-6.27-.32v-2.22h18.68v2.22l-5.29.32-.26.26c-.06,4.9-.13,15.48-.13,25.34,0,8.22,1.89,13.78,10.58,13.78s11.69-5.29,11.69-15.02c0-8.49-.13-17.69-.26-24.1l-.26-.26-6.01-.32v-2.22h17.3v2.22l-6.4.32-.26.26c-.2,6.99-.2,16.59-.13,24.68.07,11.23-5.22,17.24-16.19,17.24s-16.46-5.55-16.46-16.33Z"/>
    <path d="M287.37,88.57l6.4-.32.26-.27c.2-6.98.2-12.14.2-18.68s0-10.12-.2-19.79l-.26-.26-6.4-.32v-2.22h12.47c7.97,11.17,17.05,24.22,23.57,33.57h.13c-.13-12.54-.26-24.36-.39-30.76l-.26-.26-6-.32v-2.22h17.3v2.22l-6.4.32-.26.26c-.19,6.99-.19,12.15-.19,28.54v13.06h-3.2c-8.09-11.49-17.76-25.01-25.99-36.77h-.13c.07,15.28.26,27.1.39,33.63l.26.27,6,.32v2.22h-17.3s0-2.22,0-2.22Z"/>
    <path d="M338.77,88.57l6.4-.32.26-.27c.13-2.02.19-10.84.19-19.65s-.06-16.59-.19-18.81l-.26-.26-6.4-.32v-2.22h19.85v2.22l-6.33.32-.26.26c-.13,1.76-.2,10.84-.2,19.65s.13,16.59.2,18.81l.26.27,6.33.32v2.22h-19.85v-2.22Z"/>
    <path d="M366.13,49.13l-3.92-.19v-2.22h17.11v2.22l-5.81.26-.26.27c3.65,9.46,7.97,20.9,12.27,31.93h.13c3.2-8.88,8.75-24.68,10.9-32l-.19-.2-5.29-.26v-2.22h14.44v2.22l-3.79.19c-3.4,8.62-11.23,28.93-16.39,42.31h-1.76c-6.72-16.33-12.53-30.56-17.43-42.31Z"/>
    <path d="M409.11,88.57l6.4-.32.26-.27c.07-3,.19-10.84.19-19.65s-.13-16.19-.19-18.81l-.26-.26-6.4-.32v-2.22h28.67l2.54-1.11h.98l.46,14.3h-1.31c-2.35-6.59-4.44-9.86-5.55-9.92l-12.34-.65-.2.32c-.07,3-.2,9.92-.2,17.24,2.94,0,9.34-.2,11.03-.32l.26-.26,2.35-4.57h1.24c-.06,1.83-.13,4.64-.13,6.4s.07,5.35.13,7.31h-1.24l-2.35-5.42-.26-.26c-2.03-.07-7.84-.19-11.03-.19,0,8.29.13,14.95.2,18.28l.2.32,13.32-.72c1.11-.06,4.05-2.74,6.4-10.45h1.5c-.85,12.74-1.04,13.78-2.15,13.78h-32.52s0-2.21,0-2.21Z"/>
    <path d="M450.32,88.57l6.53-.32.26-.27c.06-1.89.19-10.84.19-19.65s-.13-15.87-.19-18.81l-.26-.26-6.53-.32v-2.22c5.87,0,12.14-.13,15.47-.13,5.16,0,8.17.33,10.58,1.05,6.27,1.89,9.01,5.94,9.01,10.38,0,6.46-4.38,9.54-9.73,11.23v.13c1.7,1.96,4.64,7.32,8.42,13.98,1.63,2.87,3.2,5.03,5.35,5.16l1.43.07v2.22h-9.79l-.26-.26c-2.42-4.9-4.11-8.88-8.23-16.19-.85-1.5-1.63-2.74-2.61-3.85-2.35.32-4.57.46-6.46.46-.07,7.77.13,15.09.2,17.04l.26.27,6,.32v2.22h-19.65v-2.22h0ZM478.33,58.07c0-3.59-1.57-6.27-4.5-7.64-1.63-.78-3.66-1.24-7.77-1.24h-2.16l-.2.2c-.06,2.81-.13,11.36-.2,19,11.37-.32,14.83-3.98,14.83-10.32Z"/>
    <path d="M498.06,77.01h1.5c2.29,8.3,6.01,11.76,10.58,11.76,5.35,0,8.75-3.59,8.75-8.29,0-11.36-20.05-8.49-20.05-22.86,0-6.07,4.77-11.62,13.06-11.62,4.24,0,7.64,1.31,8.36,1.51l1.96-1.89h1.24l.39,14.3h-1.37c-2.74-7.97-6.34-11.23-10.78-11.23-3.85,0-7.18,2.54-7.18,6.86,0,10.91,20.37,9.21,20.37,22.98,0,6.6-4.96,12.93-15.15,12.93-2.81,0-6.14-.65-9.01-2.54l-1.31,2.54h-1.37s0-14.44,0-14.44Z"/>
    <path d="M532.41,88.57l6.4-.32.26-.27c.13-2.02.19-10.84.19-19.65s-.06-16.59-.19-18.81l-.26-.26-6.4-.32v-2.22h19.85v2.22l-6.33.32-.26.26c-.13,1.76-.2,10.84-.2,19.65s.13,16.59.2,18.81l.26.27,6.33.32v2.22h-19.85v-2.22Z"/>
    <path d="M565.85,88.57l6.98-.32.26-.27c.07-2.41.2-10.84.2-19.65s0-16.06-.2-18.35l-.19-.32h-7.77c-1.37,0-3,2.35-5.68,10.25h-1.31l.52-14.3h1.17l1.89,1.11h29.32l1.89-1.11h1.18l.52,14.3h-1.31c-2.74-7.97-4.31-10.25-5.68-10.25h-7.77l-.2.32c-.07,1.57-.19,10.38-.19,19.19s.13,16.46.19,18.81l.26.27,7.18.32v2.22h-21.29v-2.22h.01Z"/>
    <path d="M611.31,88.57l6.46-.32.26-.27c.13-4.89.2-7.9.2-16.84-5.42-8.23-11.36-17.7-14.3-22.01l-4.38-.19v-2.22h16.65v2.22l-4.7.26-.26.27c3.2,5.35,7.7,12.86,11.16,18.22h.13c3.59-6.34,7.77-14.04,9.86-18.28l-.19-.2-4.57-.26v-2.22h14.11v2.22l-3.98.19c-3.79,5.55-8.75,14.3-13.32,21.81,0,9.01.13,11.17.19,17.04l.26.27,6.66.32v2.22h-20.25v-2.22Z"/>
    <path d="M660.36,69.37c0-14.82,9.08-23.38,20.63-23.38,13,0,20.5,9.14,20.5,22.07,0,14.82-9.08,23.38-20.63,23.38-12.99,0-20.5-9.14-20.5-22.07ZM694.44,68.72c0-13.19-5.16-19.79-13.45-19.79s-13.58,6.6-13.58,19.79,5.16,19.79,13.45,19.79,13.58-6.6,13.58-19.79Z"/>
    <path d="M708.04,88.57l6.4-.39.26-.26c.07-2.29.2-10.78.2-19.59s-.13-16.52-.2-18.81l-.26-.26-6.4-.32v-2.22h28.79l2.54-1.11h.98l.46,14.3h-1.31c-2.35-6.59-4.44-9.92-5.55-9.99l-12.47-.59-.2.32c-.06,1.89-.19,9.92-.19,17.24,2.94,0,9.34-.2,10.9-.32l.26-.26,2.35-4.57h1.24c-.06,1.83-.13,4.64-.13,6.4s.07,5.81.13,7.77h-1.24l-2.48-5.88-.26-.26c-1.89-.07-7.57-.19-10.77-.19,0,8.29,0,15.67.19,18.35l.26.26,7.06.39v2.22h-20.57v-2.21h0Z"/>
  </g>
  <g>
    <path d="M241.55,145.4c0-14.3,9.66-22.72,22.39-22.72,4.84,0,7.64.79,10.12,1.51l2.16-1.89h.98l.46,14.3h-1.37c-3.27-8.75-7.9-11.23-12.73-11.23-7.57,0-14.95,5.68-14.95,19.39,0,10.71,5.35,20.44,16.46,20.44,3.2,0,6.66-.91,6.66-1.95,0-2.22.07-8.17-.13-13.2l-.26-.26-6.4-.32v-2.22h18.28v2.22l-4.7.32-.27.26c-.13,4.18-.19,8.88-.13,13.91-.79,1.63-7.05,4.18-13.65,4.18-13.32,0-22.92-8.3-22.92-22.73Z"/>
    <path d="M290.4,146.05c0-14.82,9.08-23.38,20.63-23.38,13,0,20.51,9.14,20.51,22.07,0,14.82-9.08,23.38-20.64,23.38-12.99,0-20.5-9.14-20.5-22.07ZM324.48,145.4c0-13.19-5.16-19.79-13.45-19.79s-13.58,6.6-13.58,19.79,5.15,19.79,13.45,19.79,13.58-6.6,13.58-19.79Z"/>
    <path d="M347.08,165.25l6.99-.32.26-.27c.07-2.41.2-10.84.2-19.65s0-16.06-.2-18.35l-.19-.32h-7.77c-1.37,0-3,2.35-5.68,10.25h-1.31l.52-14.3h1.18l1.9,1.11h29.32l1.89-1.11h1.18l.52,14.3h-1.31c-2.74-7.97-4.31-10.25-5.68-10.25h-7.77l-.19.32c-.07,1.57-.2,10.38-.2,19.19s.13,16.46.2,18.81l.26.27,7.18.32v2.22h-21.29v-2.22h0Z"/>
    <path d="M381.77,165.25l6.4-.32.26-.27c.07-2.48.2-10.84.2-19.65s-.13-16.78-.2-18.81l-.26-.26-6.4-.32v-2.22h18.94v2.22l-5.42.32-.27.26c-.13,2.03-.19,9.73-.19,17.05h21.61c.07-8.1-.13-15.54-.19-17.05l-.26-.26-5.42-.32v-2.22h18.94v2.22l-6.4.32-.26.26c-.07,1.96-.2,10.84-.2,19.65s.13,15.94.2,18.81l.26.27,6.4.32v2.22h-18.94v-2.22l5.42-.32.26-.27c.07-2.21.19-10.32.19-18.02h-21.61c0,8.3.07,14.3.19,18.02l.27.27,5.42.32v2.22h-18.94v-2.22Z"/>
    <path d="M434.08,165.25l6.4-.32.26-.27c.07-3,.19-10.84.19-19.65s-.13-16.19-.19-18.81l-.26-.26-6.4-.32v-2.22h28.67l2.54-1.11h.98l.46,14.3h-1.31c-2.35-6.59-4.43-9.86-5.55-9.92l-12.34-.65-.2.32c-.06,3-.19,9.92-.19,17.24,2.94,0,9.34-.2,11.03-.32l.27-.26,2.35-4.57h1.24c-.07,1.83-.13,4.64-.13,6.4s.07,5.35.13,7.31h-1.24l-2.35-5.42-.27-.26c-2.03-.07-7.84-.19-11.03-.19,0,8.29.13,14.95.19,18.28l.2.32,13.32-.72c1.11-.06,4.05-2.74,6.4-10.45h1.5c-.85,12.74-1.04,13.78-2.15,13.78h-32.52v-2.21h0Z"/>
    <path d="M475.29,165.25l6.4-.32.26-.27c.19-6.98.19-12.14.19-18.68s0-10.12-.19-19.79l-.26-.26-6.4-.32v-2.22h12.47c7.97,11.17,17.05,24.22,23.57,33.57h.13c-.13-12.54-.26-24.36-.39-30.76l-.27-.26-6-.32v-2.22h17.3v2.22l-6.4.32-.26.26c-.19,6.99-.19,12.15-.19,28.54v13.06h-3.2c-8.1-11.49-17.76-25.01-25.99-36.77h-.13c.07,15.28.26,27.1.39,33.63l.27.27,6,.32v2.22h-17.3v-2.22Z"/>
    <path d="M526.69,165.25l6.4-.32.26-.27c.07-2.28.19-10.84.19-19.65s-.13-15.93-.19-18.81l-.26-.26-6.4-.32v-2.22c4.83,0,10.38-.13,14.24-.13,4.77,0,8.43.39,11.37,1.31,5.16,1.63,8.29,4.96,8.29,9.73,0,5.62-3.72,8.95-7.97,10v.13c6.92.32,11.03,4.38,11.03,9.67,0,8.88-7.97,13.51-20.63,13.51-4.24,0-11.1-.13-16.33-.13v-2.22h0ZM543.87,143.44c7.7,0,9.66-3.65,9.66-8.68,0-3.46-1.24-6.07-3.92-7.44-1.7-.91-4.12-1.44-7.7-1.44-.33,0-1.05,0-1.7.07l-.27.32c-.06,3.4-.26,9.79-.19,17.17h4.12ZM556.6,154.93c0-6.2-4.24-8.62-9.99-8.62h-6.86c-.07,8.29.13,14.89.19,18.34l.32.27c1.25.07,2.42.07,3.2.07,8.82,0,13.13-3.66,13.13-10.06Z"/>
    <path d="M576.78,151.8c0-2.48.07-3.98.07-10.44,0-5.16-.07-9.27-.13-15.15l-.27-.26-6.27-.32v-2.22h18.68v2.22l-5.29.32-.26.26c-.06,4.9-.13,15.48-.13,25.34,0,8.22,1.89,13.78,10.58,13.78s11.69-5.29,11.69-15.02c0-8.49-.13-17.69-.26-24.1l-.26-.26-6.01-.32v-2.22h17.3v2.22l-6.4.32-.26.26c-.19,6.99-.19,16.59-.13,24.68.07,11.23-5.22,17.24-16.19,17.24s-16.46-5.55-16.46-16.33Z"/>
    <path d="M620.81,165.25l6.53-.32.25-.27c.07-1.89.2-10.84.2-19.65s-.13-15.87-.2-18.81l-.26-.26-6.53-.32v-2.22c5.88,0,12.14-.13,15.47-.13,5.16,0,8.16.33,10.58,1.05,6.27,1.89,9.01,5.94,9.01,10.38,0,6.46-4.38,9.54-9.73,11.23v.13c1.7,1.96,4.64,7.32,8.42,13.98,1.63,2.87,3.19,5.03,5.35,5.16l1.43.07v2.22h-9.79l-.26-.26c-2.42-4.9-4.12-8.88-8.23-16.19-.85-1.5-1.63-2.74-2.61-3.85-2.35.32-4.57.46-6.47.46-.06,7.77.14,15.09.2,17.04l.27.27,6,.32v2.22h-19.64v-2.22ZM648.82,134.76c0-3.59-1.57-6.27-4.51-7.64-1.63-.78-3.66-1.24-7.77-1.24h-2.16l-.19.2c-.06,2.81-.13,11.36-.2,19,11.37-.32,14.83-3.98,14.83-10.32Z"/>
    <path d="M666.91,145.4c0-14.3,9.66-22.72,22.4-22.72,4.83,0,7.64.79,10.12,1.51l2.15-1.89h.98l.46,14.3h-1.37c-3.27-8.75-7.9-11.23-12.73-11.23-7.57,0-14.95,5.68-14.95,19.39,0,10.71,5.35,20.44,16.46,20.44,3.2,0,6.66-.91,6.66-1.95,0-2.22.06-8.17-.13-13.2l-.26-.26-6.4-.32v-2.22h18.28v2.22l-4.71.32-.26.26c-.13,4.18-.2,8.88-.13,13.91-.78,1.63-7.05,4.18-13.65,4.18-13.32,0-22.92-8.3-22.92-22.73Z"/>
  </g>
</svg>