<?xml version="1.0" encoding="UTF-8"?>
<svg id="Layer_1" data-name="Layer 1" xmlns="http://www.w3.org/2000/svg" viewBox="0 0 740.81 268.55">
  <defs>
    <style>
      .cls-1 {
        fill: #79573f;
      }
    </style>
  </defs>
  <path class="cls-1" d="M131.89,245.26c-.2-2.1-.46-4.15-.89-6.22-.17-.82-.47-1.66-.78-2.44-.53-1.36-1.02.71-1.2,1.18-.82,2.2-1.62,4.42-2.41,6.63-.29.81-.63,1.64-.82,2.47-.24,1.02-.83,1.95-1.1,2.97-.76-2.42-1.8-4.72-2.72-7.09-.47-1.19-.92-2.43-1.36-3.64-.23-.61-.43-1.23-.65-1.85-.09-.24-.47-1.11-.68-.45-.37,1.13-.55,2.45-.79,3.62-.33,1.66-.63,3.32-.72,5.01-.06,1.28-.29,2.71.14,3.95.47,1.37.74,2.82,1.22,4.19.5,1.44,1.1,2.85,1.64,4.28.23.62.46,1.24.71,1.85.3.75-.32,1.01-.69,1.58-1.43,2.22-.93,5.38,1.22,6.98,1.69,1.26,4.11,1.16,5.84.03,2.06-1.35,2.99-4.55,1.59-6.69-.26-.39-.96-.94-.94-1.45.02-.55.83-1.48,1.07-1.98.71-1.47,1.38-3.08,1.64-4.69.1-.61.15-1.25.44-1.8.25-.47.1-1.33.15-1.86.08-.75.12-1.52.07-2.27-.06-.78.1-1.52.02-2.3ZM124.7,267.59c-2.82-.3-4.09-3.58-2.31-5.74.31-.38.94-.54,1.15-.98.31-.65.25-1.44.29-2.14.08-1.6.52-2.98,1.05-4.48.89,1.09,1.63,2.86,1.66,4.28,0,.35,0,.7,0,1.06,0,.4-.21.6-.28.95-.1.5,1.14,1.08,1.43,1.42,1.96,2.29.03,5.96-2.98,5.64ZM117.48,254.08c-.22-.67-.49-1.33-.71-2-.5-1.52-.95-3.07-1.58-4.54-.25-.58-.4-1.17-.63-1.75-.21-.53-.64-.85-.19-1.41.88-1.1,1.48-2.18,1.45-3.64-.04-2.41-2-4.68-4.45-4.93-2.14-.22-4.98,1.21-5.44,3.5-.25,1.27-.42,2.39.17,3.64.49,1.04,1.66,1.49.77,2.67-1.51,2-2.22,5-2.67,7.43-.23,1.23-.36,2.66-.27,3.9.11,1.46-.11,2.94.05,4.42.24,2.18.68,4.3,1.29,6.44.09.33.2.86.52,1.06.38.25.61-.63.68-.85.49-1.4,1.07-2.77,1.51-4.18.46-1.46,1.11-2.86,1.55-4.31.43-1.41,1.12-2.75,1.52-4.16.68,2.09,1.62,4.04,2.38,6.1.42,1.14.88,2.26,1.31,3.39.38,1.01.69,2.66,1.45,3.46.3.32.62-1.51.64-1.64.18-1.2.58-2.35.74-3.55.15-1.13.25-2.27.4-3.4.08-.61.08-1.23.07-1.85,0-.58.11-1.45-.12-1.99-.23-.56-.27-1.22-.45-1.8ZM113.2,243.39c-.32.23-.75.39-.94.76-.3.56-.23,1.32-.27,1.93-.08,1.56-.53,3.03-1.22,4.42-.59-.96-1.09-1.78-1.38-2.88-.12-.44-.12-.76-.16-1.21-.03-.29-.09-.91-.01-1.18.1-.34.43-.7.26-1.08-.43-.38-.95-.63-1.37-1.02-.86-.8-1-2.21-.67-3.29.63-2.09,3.02-3.07,4.94-2.01,1.81,1,2.78,4.13.82,5.55ZM153.46,253.45c-2.37-1.64-4.62-3.39-7.01-5-2.5-1.67-5.14-3.03-7.79-4.45-1.22-.66-2.46-1.36-3.83-1.65-.36.07.54,2.83.6,3.19.49,2.99.46,6.02,1.13,8.98.32,1.4.68,2.8,1.29,4.11.24.51.51,1.05.72,1.57.26.65.76,1.17,1.11,1.76.72,1.2,1.58,2.2,2.44,3.3.29.37.7,1.04,1.19,1.17.49.12.46-1.17.49-1.4.08-.65-.13-1.32-.05-1.94.08-.65.06-1.06-.1-1.71-.36-1.55-.5-3.1-.96-4.64-.46-1.55-.95-3.22-1.68-4.68-.68-1.35.22-.69.79-.09,1.79,1.87,3.49,3.86,5.6,5.42,2.64,1.94,5.71,2.43,8.87,2.93.81.13,1.62.16,2.44.23.73.06,1.43.38,2.13.54.15.04.94.3.94-.05-.01-.66-1.11-1.63-1.52-2.08-1.97-2.16-4.38-3.86-6.78-5.52ZM229.55,168.9c-1.09.34-2.27,1.47-3.18,2.15-1.26.95-2.49,1.98-3.65,3.04-2.22,2.03-4.12,4.48-6.42,6.4-.88.74-1.82,1.77-2.46,2.72-.32.47-.92.84-1.32,1.25-.57.59-1.11,1.21-1.68,1.8-2.18,2.26-4.31,4.58-6.44,6.9-2.14,2.33-4.27,4.68-6.48,6.95-.98,1-1.86,2.1-2.84,3.11-.45.46-.92.88-1.33,1.38-.07.09-.86,1.12-.99.68-.21-.69.68-1.56.68-2.24,0-.46.38-1.01.48-1.47.12-.58.51-1.13.69-1.69.86-2.57,1.47-5.24,2.02-7.9.63-3.03.92-6.28.95-9.37.03-2.88,0-5.97-.53-8.8-.27-1.47-.36-2.97-.7-4.43-.31-1.34-.78-2.69-1.03-4.02-.06-.33-.37-2.18-.75-2.3-.44-.14-1.56,2.69-1.73,3.03-1.38,2.84-2.34,5.77-3.46,8.71-.41,1.08-.78,2.38-.98,3.52-.22,1.29-.77,2.53-.89,3.84-.3,3.22-.81,6.36-.77,9.61.02,1.44-.08,2.9-.01,4.33.07,1.38-.09,2.8.02,4.16.1,1.28-.15,2.59-.19,3.87-.05,1.24-.11,2.54-.42,3.76-.07.28.03.51-.01.77-.04.23-.19.43-.17.67.04.65-.27,1.36-.34,2.01-.08.69-.27,1.32-.43,1.99-.16.66-.18,1.38-.38,2.03-.29.92-.42,1.83.93,1.31,1.42-.55,2.73-1.33,4.02-2.12,2.55-1.58,5.26-2.87,7.89-4.32,2.69-1.48,4.96-3.58,7.47-5.35,1.14-.8,2.34-1.52,3.41-2.41,1.14-.94,2.12-2.02,3.31-2.92,2.32-1.76,4.05-4.1,5.74-6.44.89-1.23,1.79-2.44,2.6-3.72.79-1.25,1.94-2.52,2.46-3.89.28-.72.84-1.35,1.19-2.04.43-.83.84-1.67,1.28-2.49.83-1.56,1.57-3.19,2.28-4.81.7-1.59,1.26-3.26,1.88-4.89.07-.18,1-2.62.27-2.39ZM102.35,242.34c-.56.08-1.09.33-1.62.52-.62.23-1.27.34-1.88.59-1.27.52-2.56.98-3.85,1.47-2.39.92-4.75,1.98-6.92,3.33-2.18,1.35-4.29,2.91-6.34,4.44-2.1,1.57-4.24,3.09-6.13,4.91-.62.6-1.23,1.24-1.75,1.94-.67.91-.16.91.68.66,2.7-.79,5.6-.78,8.34-1.38,2.61-.57,4.78-1.91,6.73-3.7.45-.41,4.84-5.2,4.92-5.14.27.22-.5,1.69-.6,1.94-.42,1-.73,2-1.03,3.04-.58,2.01-.86,3.98-1.24,6.02-.24,1.3-.23,2.81.02,4.13.12.66.39.55.84.11.69-.68,1.36-1.43,1.92-2.22,2.4-3.32,4.24-6.94,5.13-10.97.41-1.84.71-3.69,1.34-5.48.34-.97.68-1.92,1.19-2.81.11-.19,1.05-1.54.25-1.42ZM234.01,135.3c-.3.12-.8.86-1.05,1.11-.47.47-.89.98-1.34,1.47-1.08,1.16-2.13,2.31-3.13,3.53-.94,1.14-1.87,2.28-2.76,3.46-.45.59-.88,1.18-1.3,1.79-.42.61-.99,1.2-1.35,1.83-.67,1.16-1.69,2.24-2.22,3.47-.22.52-.65.93-.93,1.42-.41.73-.8,1.47-1.23,2.19-1.59,2.63-2.93,5.4-4.3,8.14-.67,1.33-1.39,2.63-1.99,3.99-.55,1.25-1.24,2.41-1.79,3.66-.38.86-.72,1.73-1.18,2.56-.02.04-.39.72-.47.64-.33-.33-.15-1.38-.14-1.77.15-6.18.16-12.43-.77-18.56-.84-5.48-3.16-10.57-5.65-15.49-.25-.5-1.06-2.42-1.38-1.03-.28,1.27-.56,2.54-.83,3.81-.64,2.98-.89,6.04-1.08,9.07-.19,2.97-.08,5.94.2,8.9.12,1.29.4,2.58.59,3.87.08.57.16,1.21.28,1.75.14.64.48,1.25.53,1.91.03.42.18,1.03.3,1.44.15.53.37,1.05.51,1.58.39,1.48.68,2.97,1.07,4.44.32,1.18.69,2.39.83,3.62.07.64.29,1.31.27,1.95-.02.6-.05,1.66.24,2.2-.07.63-.04,1.32-.02,1.95.02.57-.2,1.16-.14,1.74.07.68,1.54-.69,1.7-.81,2.47-1.79,4.79-3.88,6.94-6.06,4.24-4.3,8.39-8.73,11.61-13.87,3.08-4.92,5.82-9.92,7.78-15.42,1.06-2.97,2-6.03,2.44-9.15.03-.2.38-5.6-.22-5.36ZM195.87,232.59c-1.17.09-2.39.57-3.5.86-1.5.38-3.03.93-4.49,1.46-2.93,1.05-5.94,1.95-8.95,2.75-3.01.79-6.03,1.37-9.1,1.86-1.24.2-2.49.23-3.72.32-1.38.1-2.82-.04-4.19.12-.58.06-1.33-.02-1.92-.08-.68-.06-1.35.09-2.04,0-.67-.09-1.35.04-2.03-.03-.88-.09-1.77-.13-2.66-.2-1.44-.12-2.85-.05-4.29-.24-1.58-.21-3.21-.25-4.8-.46-.19-.02-2.66-.36-1.31-.67,1.44-.32,2.8-.94,4.13-1.56,2.71-1.26,4.97-2.85,7.07-4.97,4-4.03,6.63-9.73,8.32-15.1.09-.28.2-.59.19-.88-.01-.38-.92.33-1.06.41-1.31.77-2.52,1.65-3.76,2.53-2.25,1.61-4.41,3.26-6.57,5-2.46,1.98-4.71,4.2-7.26,6.07-2.26,1.66-4.72,3.98-7.57,4.52-.59.11-1.2.35-1.79.5-.39.1-1.55.22-1.79.55-.35.49,1.84,2.21,2.15,2.49,2.27,1.93,4.99,3.26,7.67,4.5,4.35,2.02,8.92,3.81,13.62,4.82,1.37.3,2.75.59,4.14.8,1.27.2,2.51.3,3.78.45,2.64.31,5.19.13,7.83,0,5.09-.24,10.05-2.46,14.08-5.49,2.07-1.56,4.11-3.16,5.92-5.03.94-.97,1.83-2,2.7-3.04.23-.28,2.15-2.33,1.16-2.26ZM216.53,204.95c-1.24.4-2.45,1.1-3.67,1.58-1.38.54-2.72,1.27-4.01,1.99-.59.33-1.22.53-1.81.83-.52.26-.96.64-1.5.89-1.4.65-2.65,1.53-3.99,2.29-5.1,2.89-10.11,6.09-15.14,9.2-2.68,1.65-5.32,3.4-8.07,4.94-1.22.68-2.47,1.41-3.73,2.01-.53.25-.97.65-1.54.84-.29.1-.44.2-.69.38-.28.2-.75.18-1.07.33-1.13.53-2.18,1.2-3.42,1.45-.21.04-2.86,1.08-2.56.44.3-.65,1.09-1.21,1.57-1.74.96-1.06,1.79-2.29,2.77-3.32.89-.94,1.75-2,2.41-3.11.81-1.36,1.88-2.6,2.73-3.95,1.45-2.31,2.82-4.83,3.74-7.41,1.93-5.41,2.89-11.05,3.12-16.75.04-1.02-.03-2.19-.23-3.2-.21-1.11-1.48.89-1.77,1.2-.46.49-.75,1.06-1.17,1.56-.42.5-.87.96-1.24,1.5-.78,1.11-1.69,2.1-2.4,3.28-1.37,2.25-2.79,4.42-3.83,6.86-1.23,2.89-2.13,5.88-3.08,8.87-.9,2.85-1.92,5.56-3.14,8.28-1.18,2.61-2.88,5.08-4.49,7.44-.83,1.22-1.73,2.35-2.68,3.48-.14.17-1.02,1.11-.65,1.33.43.25,1.47-.09,1.91-.14,3.24-.33,6.46-.52,9.69-.97,6.32-.87,12.76-1.98,18.87-3.87,2.79-.86,5.37-1.81,7.92-3.25,2.52-1.42,4.86-3.19,7.13-4.97,1.65-1.29,3.23-2.66,4.72-4.13.76-.75,1.48-1.54,2.23-2.31.32-.33.65-.49.87-.88.28-.5.72-.93,1.09-1.37,1.45-1.69,2.71-3.45,3.88-5.35.59-.95,1.13-1.93,1.6-2.95.29-.64.76-1.66-.35-1.3ZM218.85,127.46c-.33,1.42-.71,2.84-.98,4.27-.24,1.29-.41,2.65-.76,3.91-.32,1.16-.7.31-.9-.34-.36-1.11-.68-2.22-1.13-3.29-.54-1.28-.91-2.6-1.52-3.86-.65-1.34-1.38-2.72-2.19-3.97-.75-1.15-1.48-2.3-2.33-3.37-.82-1.04-1.83-1.82-2.75-2.76-.85-.86-.79,1.12-.83,1.57-.12,1.65-.13,3.37-.05,5.02.13,2.65.46,5.15,1.11,7.73.33,1.31.57,2.56,1.12,3.79.26.6.37,1.28.6,1.89.29.77.68,1.5.99,2.26,1.01,2.4,2.23,4.68,3.23,7.08.56,1.34,1.12,2.69,1.51,4.09.37,1.33.48,2.69.72,4.05.02.11.11.77.32.71.37-.1.91-1.27,1.11-1.58.87-1.34,1.66-2.73,2.45-4.11,1.48-2.58,3.16-5.1,4.4-7.8.59-1.3,1.33-2.52,1.98-3.79.32-.62.62-1.25.86-1.91.09-.23.75-1.15.71-1.37-.1-.47.47-1.25.63-1.7.23-.68.53-1.34.78-2,.59-1.51.91-3.03,1.26-4.61.62-2.84.81-5.69,1.04-8.59.22-2.78.23-5.57.2-8.35-.03-2.31-.33-4.56-.6-6.84-.04-.32-.18-1.78-.74-1-.61.84-1.16,1.87-1.68,2.78-.6,1.06-1.25,2.13-1.76,3.24-.23.49-.53.95-.75,1.44-.23.51-.4,1.28-.73,1.72-.75.99-1.17,2.55-1.62,3.71-.51,1.31-.98,2.63-1.42,3.96-.88,2.65-1.65,5.3-2.28,8.02ZM12.53,103.3c-.15,1.56.34,3.25.72,4.74.72,2.79,1.76,5.46,2.37,8.28.29,1.38.75,2.79.89,4.2.04.42.18,2.66.74,2.81.42.12.88-.63,1.15-.85.52-.42.87-.92,1.34-1.39,1.06-1.05,2.08-2.08,3.05-3.23,3.81-4.51,7.49-9.24,10.26-14.47.69-1.3,1.36-2.59,2.02-3.9.34-.68.69-1.37,1.01-2.06.25-.54.97-1.57.92-2.18-.03-.41.5-1.23.64-1.62.25-.68.5-1.36.72-2.06.09-.29,1.09-3.01.63-3.02-.59,0-1.3.72-1.77,1.04-1.3.9-2.53,1.89-3.66,2.98-2.17,2.1-4.06,4.37-5.83,6.81-1.76,2.42-3.33,4.83-4.88,7.38-.76,1.25-1.61,2.52-2.21,3.86-.08.17-.41,1.06-.74.87-.27-.16-.05-1.4-.06-1.68-.02-1.41.14-2.83.17-4.25.03-1.05.05-2.08.06-3.14.03-3.21.23-6.36-.11-9.57-.28-2.64-.73-5.34-1.53-7.86-.16-.5-.85-3.57-1.5-3.17-.91.56-1.15,2.06-1.56,2.97-.71,1.58-1.25,3.28-1.69,4.95-.44,1.7-.78,3.44-.95,5.19-.14,1.42-.43,2.96-.35,4.34.04.68.02,1.34-.04,2.02-.06.67.25,1.32.19,1.99ZM22.93,100.39c.52-.27.83-.82,1.25-1.22.53-.5,1.03-1.02,1.52-1.55,1.06-1.16,2.04-2.39,2.98-3.64,1.69-2.26,3.16-4.62,4.66-6.99,3.18-5.04,5.5-10.84,7.23-16.53.41-1.35.74-2.71,1.02-4.09.11-.54.16-1.07.29-1.61.04-.15.18-.93-.19-.63-.4.32-1.05.59-1.51.82-.6.3-1.07.72-1.63,1.09-1.05.7-1.82,1.52-2.76,2.33-4.37,3.77-7.4,9.12-9.71,14.34-1.44,3.25-2.34,6.61-3.06,10.07-.37,1.8-.43,3.74-.47,5.58,0,.27-.06,2.24.38,2.02ZM51.14,107.31c.17.57.12,1.43.17,2.03.04.58.13,1.14.18,1.71.06.67.08,1.34.13,2.01.06.75.3,1.52.28,2.27-.04,1.36.28,2.72.39,4.08.11,1.43.06,2.93.29,4.35.48,2.94.48,6.04.76,9.02.26,2.76.27,5.52.41,8.28.56,11.17-.34,22.63,2.71,33.49.17.62.18,1.28.39,1.9.22.64.45,1.25.6,1.91.15.67.45,1.3.65,1.96.23.76.38,1.58.71,2.31.53,1.18.87,2.45,1.43,3.63.61,1.26,1.18,2.55,1.72,3.84.5,1.19,1.28,2.22,1.84,3.37.61,1.26,1.36,2.45,2.08,3.66.69,1.16,1.59,2.18,2.32,3.33.77,1.21,1.62,2.43,2.61,3.47.87.9,1.54,2.01,2.38,2.93.93,1.02,1.9,2.09,2.93,3,1.84,1.63,3.44,3.55,5.41,5.05,1.06.8,2.06,1.7,3.14,2.47,1.17.84,2.39,1.67,3.52,2.55,2.05,1.61,4.44,2.74,6.62,4.15,1.12.73,2.34,1.27,3.51,1.92.55.31,1.13.57,1.67.9.56.33,1.27.75,1.88.96,1.18.41,2.34,1,3.48,1.51,1.21.53,2.47,1,3.65,1.61,1.14.58,2.45.95,3.64,1.38,1.23.44,2.48.79,3.72,1.2.55.18,1.27.69,1.82.41.56-.28,1.33-.44,1.95-.6,1.29-.33,2.61-.89,3.85-1.38,3.51-1.39,6.95-2.82,10.34-4.47,1.17-.57,2.39-1.04,3.51-1.7,1.18-.7,2.38-1.45,3.59-2.09,2.23-1.17,4.45-2.55,6.43-4.12,1.05-.83,2.3-1.45,3.29-2.36.94-.87,2.01-1.6,2.99-2.45.95-.82,1.89-1.81,2.92-2.53.99-.7,1.7-1.78,2.62-2.54.95-.77,1.78-1.84,2.62-2.74.94-1.01,1.7-2.15,2.6-3.19.83-.95,1.57-1.96,2.32-2.97.76-1.03,1.69-2.17,2.29-3.3.54-1.03,1.15-2.23,1.86-3.16.83-1.09,1.22-2.43,1.89-3.61,1.29-2.29,2.25-4.8,3.19-7.25.47-1.24.84-2.51,1.35-3.74.54-1.29.74-2.76,1.14-4.1.74-2.51.97-5.11,1.63-7.65.14-.54.19-1.35.2-1.91.01-.63.21-1.33.27-1.96.16-1.49.19-3.03.41-4.5.22-1.5-.04-3.06.15-4.56.09-.66.03-1.38.02-2.04-.01-.77.07-1.56.01-2.33-.09-1.19-.1-2.49.06-3.67.19-1.41-.22-2.93.1-4.32.29-1.3.12-2.78.14-4.1.03-1.41.22-2.82.32-4.24.21-2.93.39-5.84.63-8.76.11-1.3.22-2.56.33-3.85.13-1.44.13-2.9.4-4.33.25-1.29.15-2.64.37-3.94.24-1.42.21-2.89.4-4.31.1-.72.18-1.46.2-2.19.02-.65.19-1.29.2-1.92,0-.65.03-1.28.13-1.93.09-.59.26-1.51.21-2.1-.02-.24-3.39-.78-3.78-.89-.63-.18-1.29-.28-1.91-.47-.68-.21-1.5-.26-2.14-.57-1.19-.58-2.62-.62-3.84-1.15-1.41-.61-2.91-.96-4.3-1.62-1.14-.54-2.37-.98-3.52-1.5-.56-.25-1.16-.41-1.7-.7-.62-.33-1.38-.81-2.06-1-1.1-.31-2.14-1.04-3.2-1.47-1.32-.53-2.55-1.31-3.87-1.85-4.98-2.06-10.27-3.74-15.56-4.67-1.23-.22-2.44-.63-3.67-.83-1.35-.22-2.71-.4-4.07-.59-2.62-.37-5.28-.76-7.93-.94-2.46-.16-4.8-.11-7.18-.15-2.94-.06-5.85.4-8.77.66-5.54.51-11.14,1.61-16.49,3.07-2.71.73-5.47,1.53-8.06,2.65-2.64,1.14-5.27,2.26-7.87,3.48-2.42,1.13-4.87,2.19-7.28,3.34-1.14.54-2.38.91-3.57,1.32-1.26.44-2.54,1.13-3.87,1.3-1.32.17-2.62.87-3.94,1.16-1.38.3-2.75.62-4.12.94-.62.15-1.25.32-1.87.45.06.68.15,1.37.23,2.05.15,1.37-.01,2.92.38,4.24ZM55.81,104.83c.04-.22,1.15-.56,1.36-.59,1.14-.2,2.31-.85,3.39-1.25,1.26-.46,2.58-.84,3.8-1.4,2.4-1.09,4.98-1.79,7.38-2.9,2.5-1.15,5.06-2.15,7.48-3.46,2.29-1.24,4.84-1.77,7.24-2.75,2.4-.97,5.17-1.29,7.67-1.98.71-.19,1.47-.22,2.19-.38.71-.15,1.4-.37,2.12-.46.68-.09,1.33-.22,2-.36.32-.07.65,0,.97-.07.45-.09.86-.28,1.32-.3,1.3-.06,2.59-.47,3.88-.56,1.42-.1,2.84-.19,4.24-.4,1.31-.19,2.62-.13,3.94-.23,1.26-.1,2.61-.22,3.8-.14,2.73.18,5.45.24,8.17.51,5.45.55,10.94,1.48,16.25,2.71,5.12,1.18,10.31,2.74,14.98,5.17,4.81,2.53,10.04,4.35,15.12,6.26,1.25.47,2.5.93,3.77,1.38.56.19,1.18.38,1.72.62.4.18,1.29.28,1.06.85-.11.27.04.5.02.78-.02.29-.12.55-.13.84-.03.64-.06,1.26-.14,1.9-.09.64-.13,1.29-.19,1.93-.07.73.14,1.54-.07,2.27-.36,1.21-.06,2.54-.3,3.78-.15.75-.11,1.52-.16,2.28-.05.79-.21,1.58-.19,2.38.02,1.34-.12,2.73-.21,4.07-.1,1.41-.19,2.84-.27,4.27-.08,1.31-.14,2.67-.34,3.95-.1.63.04,1.23-.02,1.85-.09.78-.12,1.56-.2,2.33-.27,2.68-.24,5.39-.41,8.07-.08,1.34-.2,2.75-.16,4.09.02.61-.04,1.18-.1,1.79-.07.68.1,1.42.01,2.08-.38,2.53.13,5.23-.37,7.76-.27,1.36-.26,2.89-.37,4.27-.12,1.6-.57,3.18-.86,4.75-.5,2.78-1.21,5.55-2.16,8.21-.89,2.47-1.82,4.9-2.8,7.34-.24.6-.58,1.13-.89,1.7-.29.52-.45,1.13-.77,1.63-.75,1.16-1.36,2.4-2.1,3.57-1.95,3.06-3.94,6.21-6.43,8.86-2.8,2.97-5.44,6.12-8.75,8.57-3.15,2.34-6.12,5.06-9.62,6.89-1.57.82-3.01,1.86-4.57,2.69-1.53.82-3.13,1.52-4.7,2.29-2.39,1.17-4.83,2.15-7.34,3.05-1.21.44-2.39.93-3.61,1.33-.64.21-1.29.4-1.93.63-.7.24-1.53.62-2.26.44-1.22-.3-2.35-.81-3.53-1.24-1.29-.47-2.81-.71-4.02-1.37-1.11-.61-2.41-1.05-3.59-1.52-1.43-.57-2.77-1.33-4.18-1.92-1.15-.48-2.17-1.12-3.28-1.68-1.14-.58-2.35-1.14-3.45-1.81-1.04-.64-2.02-1.34-3.08-1.97-1.05-.64-2.27-1.3-3.16-2.15-.87-.82-1.98-1.43-2.9-2.23-.45-.39-.94-.67-1.39-1.1-.44-.42-.98-.86-1.47-1.21-2.05-1.48-3.73-3.55-5.56-5.29-1.92-1.83-3.59-4.05-5.21-6.15-1.53-1.97-2.65-4.18-4.07-6.22-1.5-2.16-2.41-4.75-3.52-7.13-1.23-2.63-1.95-5.37-2.98-8.06-.45-1.19-.67-2.45-.97-3.69-.3-1.26-.62-2.56-.82-3.84-.4-2.62-.79-5.21-.93-7.87-.07-1.33-.16-2.68-.27-4-.11-1.44.06-2.88-.08-4.33-.27-2.71-.05-5.5-.29-8.22-.26-2.88-.29-5.76-.44-8.66-.16-2.99-.44-5.97-.63-8.95-.04-.71-.12-1.41-.17-2.11-.04-.66.05-1.38-.1-2.02-.13-.54-.2-1.3-.15-1.86.08-.77-.13-1.5-.08-2.27.04-.65-.19-1.25-.14-1.9.04-.67-.23-1.3-.19-1.98.08-1.41-.28-2.9-.36-4.31-.08-1.32-.07-2.65-.2-3.97-.05-.56-.38-1.36-.27-1.9ZM198.4,90.67c-.51-.4-1.04-.78-1.6-1.12-.44-.27-1.13-.92-1.62-1.03-.39-.09.04,1.59.12,1.78.5,1.28.78,2.61,1.34,3.88.6,1.36,1.13,2.74,1.73,4.1,2.28,5.22,5.58,10.01,8.86,14.64,1.73,2.43,3.74,4.65,5.74,6.85.89.98,1.85,1.94,2.85,2.8.12.1,1.05,1.01,1.17.77.23-.45.27-1.16.33-1.65.15-1.4.65-2.75.86-4.14.22-1.4.64-2.87,1.01-4.24.32-1.22.87-2.34,1.26-3.53.48-1.48.85-3.21,1.04-4.75.06-.47-.01-.95.08-1.44.12-.67.07-1.39.12-2.07.12-1.6.06-3.24-.1-4.84-.14-1.44-.32-2.94-.53-4.37-.1-.65-.43-1.24-.51-1.89-.09-.68-.21-1.44-.51-2.07-.6-1.28-.89-2.69-1.48-3.99-.12-.26-1.46-2.98-1.68-2.63-1.11,1.77-1.43,3.99-1.93,5.97-1.41,5.52-1.14,11.42-.87,17.07.07,1.56,0,3.15.16,4.71.02.15.11,2.22-.16,2.01-.4-.31-.7-1-.93-1.44-.37-.7-.76-1.38-1.12-2.09-.71-1.4-1.67-2.79-2.56-4.08-3.23-4.74-6.51-9.63-11.05-13.2ZM193.71,71.02c.43,1.34.92,2.62,1.35,3.96.81,2.51,2.02,4.95,3.15,7.36,1.25,2.66,2.88,5.08,4.34,7.61.66,1.14,1.42,2.2,2.24,3.22.81,1,1.77,2.12,2.45,3.19.62.98,1.77,1.84,2.57,2.67.12.12,1.47,1.72,1.67,1.28.22-.5.11-1.41.09-1.95-.02-.72-.04-1.43-.12-2.15-.16-1.42-.21-2.91-.56-4.29-.16-.62-.23-1.25-.41-1.87-.17-.54-.17-1.21-.36-1.72-.44-1.16-.86-2.32-1.26-3.48-.99-2.82-2.34-5.4-3.84-7.98-2.04-3.52-4.52-6.62-7.57-9.32-.83-.73-1.69-1.4-2.6-2.02-.82-.55-1.5-1.13-2.48-1.35-.31-.07.25,2.79.39,3.11.51,1.13.59,2.53.97,3.73ZM3.89,119.82c.15,1.3.09,2.78.4,4.04.32,1.34.25,2.88.69,4.18.5,1.51.84,3.04,1.43,4.53,2.28,5.84,5.24,11.32,8.38,16.73.76,1.31,1.61,2.56,2.36,3.86.35.6.66,1.22,1.08,1.78.16.21.9,1.44,1.07,1.01.17-.43.2-1.12.25-1.59.06-.69.25-1.39.41-2.07.35-1.51.9-2.94,1.48-4.38,1.11-2.75,2.61-5.32,3.69-8.08,1.1-2.82,2.13-5.6,2.8-8.57.62-2.77.84-5.65.78-8.5-.02-.71-.02-1.41-.04-2.12-.01-.58-.21-1.1-.21-1.67,0-.27.24-1.14-.26-1.14-.42,0-.93.69-1.22.96-4.13,3.84-6.62,9.26-8.4,14.49-.23.69-.53,1.37-.71,2.07-.03.12-.26,1.36-.51,1.16-.21-.17-.23-.59-.29-.84-.16-.67-.25-1.35-.41-2.01-.33-1.37-.58-2.76-.86-4.14-.3-1.47-.8-2.92-1.13-4.39-1.37-6.12-3.92-12.14-6.84-17.65-.79-1.5-1.74-2.92-2.52-4.43-.15-.29-.68-1.15-.88-.43-.17.6-.14,1.3-.21,1.92-.21,1.76-.38,3.45-.47,5.22-.1,1.94-.21,3.94-.03,5.88.13,1.38.02,2.77.18,4.15ZM84.42,246.33c2.79-.87,5.62-1.91,8.16-3.38,1.18-.69,2.37-1.34,3.47-2.15,1.18-.87,2.55-1.78,3.44-2.97.31-.42,2.21-1.82,1.66-2.5-.31-.39-1.12-.46-1.58-.54-.75-.13-1.48-.25-2.2-.5-1.36-.47-2.62-1.21-3.82-2-1.2-.8-2.52-1.62-3.58-2.59-2.08-1.9-4.35-3.62-6.51-5.46-2.2-1.87-4.45-3.75-6.85-5.36-1.14-.76-2.36-1.47-3.45-2.29-.22-.16-1.24-.98-1.52-.9-.53.15.17,1.49.27,1.76,2.06,5.4,4.4,10.97,8.73,14.99,2.12,1.97,4.59,3.54,7.27,4.63,1.09.44,2.2.77,3.3,1.14,1.2.4-.41.64-.83.68-5.77.48-11.56,1.25-17.37,1.03-1.38-.05-2.77-.02-4.15-.02-1.48,0-2.96-.24-4.43-.38-1.26-.12-2.45-.33-3.69-.5-.72-.1-1.41-.28-2.11-.47-.42-.11-1.46-.64-1.88-.41-.51-.32-1.22-.43-1.8-.56-.52-.12-1.27-.47-1.79-.45-.48.02-1.2-.32-1.64-.51-.76-.33-1.6-.48-2.39-.71-2.69-.8-5.31-1.78-8-2.59-.39-.12-3.53-.92-3.31-.39.17.4.59.69.83,1.04.38.55.79,1.04,1.24,1.53.98,1.09,1.93,2.31,3.04,3.29,1.95,1.72,3.95,3.76,6.25,5,1.09.59,2.08,1.32,3.2,1.87,1.37.66,2.71,1.1,4.13,1.59,2.85.99,5.93,1.24,8.94,1.31.93.02,1.92.12,2.84.04,1.14-.1,2.4-.24,3.55-.17.47.03.98-.03,1.44-.12.71-.14,1.53.04,2.23-.16,2.91-.85,6.01-.9,8.93-1.81ZM55.95,234.14c3.16.72,6.32,1.56,9.55,1.87,1.55.15,3.11.23,4.67.35,1.65.12,3.27-.08,4.91.01.55.03,1.11.04,1.65.08.4.03.65,0,.37-.44-.76-1.2-1.76-2.3-2.6-3.46-1.62-2.24-3.16-4.46-4.46-6.91-1.43-2.71-2.6-5.54-3.53-8.46-.84-2.64-1.42-5.46-2.55-7.98-.55-1.22-1-2.44-1.6-3.64-.72-1.43-1.51-2.81-2.36-4.17-1.68-2.66-3.65-5.1-5.6-7.56-.3-.38-.59-.76-.89-1.14-.28-.34-.53-.69-.73-.2-.51,1.25-.32,2.97-.27,4.29.21,5.89,1.39,11.74,3.71,17.15,2.38,5.56,5.88,10.79,9.98,15.24.72.79,1.38,1.66,2.15,2.39,1.24,1.17-.62.57-1.3.39-2.92-.78-5.51-2.28-8.17-3.65-10.36-5.32-19.63-12.52-29.99-17.84-1.1-.56-2.12-1.24-3.23-1.79-1.45-.73-2.94-1.38-4.41-2.08-1.2-.57-2.48-1.34-3.77-1.67-.44-.11-.91-.18-.6.34.38.66.65,1.42.97,2.11,1.14,2.46,2.76,4.54,4.44,6.65.78.98,1.49,2.07,2.42,2.91,1.04.94,2.17,1.93,3.07,3.01,1.09,1.33,2.72,2.44,4.08,3.49,1.56,1.2,3.17,2.31,4.8,3.42,3.2,2.18,6.66,3.51,10.28,4.81,2.9,1.04,6.02,1.8,9.02,2.49ZM24,201.17c1.07.83,2.27,1.46,3.3,2.35,1.2,1.03,2.45,2.02,3.71,2.97,2.49,1.88,5.3,3.29,7.86,5.09,2.52,1.77,5.12,3.16,7.97,4.32.66.27,1.32.54,1.97.85.26.12,1.15.49.76-.14-.29-.45-.24-1.25-.41-1.77-.24-.74-.31-1.52-.47-2.28-.62-2.95-1.11-6.01-1.25-9.02-.04-.71-.02-1.43-.07-2.14-.04-.53.03-1.2-.09-1.7-.14-.59,0-1.29-.02-1.89-.02-.71-.06-1.54.06-2.24.24-1.36-.03-2.9,0-4.29.04-1.54-.06-3.07-.21-4.6-.27-2.76-.61-5.37-1.36-8.06-.83-3-1.91-5.9-2.83-8.87-.4-1.29-1.18-2.47-1.78-3.68-.31-.63-.61-1.27-.93-1.9-.13-.24-.34-1.02-.61-1.12-.47-.17-2,7.26-2.14,7.99-.59,3.05-.79,6.17-.89,9.27-.05,1.45.06,2.91-.02,4.36-.07,1.27.29,2.66.46,3.92.36,2.73.86,5.39,1.56,8.06.1.36-.01.48.17.81.16.29.28.6.38.91.22.67.38,1.35.57,2.03.39,1.44.95,2.96,1.52,4.34.47,1.13-.59.25-.93-.07-1.04-.98-1.99-2.13-2.96-3.18-3.94-4.29-7.92-8.53-11.86-12.84-2.16-2.37-4.39-4.67-6.62-6.96-2.11-2.17-4.12-4.43-6.3-6.52-2.18-2.08-4.57-4.13-7.13-5.72-.19-.12-.97-.78-1.21-.58-.23.2.07.8.15,1.01.5,1.27.91,2.59,1.34,3.88.96,2.88,2.43,5.83,3.91,8.48,1.42,2.55,2.91,5.05,4.51,7.5,2.73,4.19,5.92,8.36,9.9,11.43ZM14.18,170.89c3.88,4.83,8.27,9.03,12.97,13.03.45.38.89.75,1.35,1.12.43.35.93.96,1.49,1.07.58.12.22-2.67.21-2.92-.15-2.95.55-6.12,1.36-8.93.41-1.43.59-2.92,1.04-4.34.48-1.54.8-3.09,1.16-4.67.61-2.69,1.16-5.59,1.22-8.36.03-1.35-.07-2.78.09-4.12.17-1.44-.09-3.05-.23-4.5-.29-3.15-.86-6.22-1.46-9.32-.06-.31-.15-1.7-.61-1.72-.37-.02-.72.93-.86,1.18-.7,1.2-1.34,2.54-1.91,3.82-1.12,2.53-2.28,5.08-2.99,7.77-1.53,5.82-1.9,11.79-1.79,17.78.03,1.43,0,2.87.02,4.3,0,0,.12,2.71-.19,2.57-.36-.16-.62-1.06-.77-1.39-.26-.6-.5-1.2-.79-1.79-.64-1.3-1.26-2.61-1.92-3.89-2.67-5.19-5.11-10.47-8.25-15.43-3.27-5.17-6.89-10.08-11.07-14.55-.57-.61-1.31-1.95-2.13-2.22-.56-.18-.49.89-.5,1.2-.04,1.71.18,3.44.43,5.12.2,1.34.63,2.66.97,3.97.15.58.39,1.12.46,1.71.04.37.28,1.04.43,1.39.51,1.17.88,2.38,1.36,3.58.6,1.5,1.27,2.95,2,4.39,2.51,4.97,5.39,9.77,8.91,14.15ZM95.83,140.04c-.02.56-.05,1.15.66,1.2.53.03.51-.79.78-1.08.14-.15.33-.16.33.09,0,.33-.3.57-.31.9-.02.47.48,1.01.91.58.21-.21.7-.75.65-.09-.03.44.19.98.72.74.33-.15.79-.89.97-.15.09.39.26.8.74.83.79.04.23-3.26.21-3.74-.01-.29.03-.59-.1-.86-.16-.34-.48-.31-.76-.47-.24-.13-.34-.39-.55-.55-.23-.18-.55-.03-.8-.1-.45-.12-.66-.59-1.09-.76-.41-.16-1.07.02-1.45.2-1.01.48-.89,2.35-.91,3.27ZM111,136.92c-.3-.73-.58-1.49-.84-2.23-.46-1.3-.58-2.6-.82-3.94-.08-.47-.22-.96-.53-1.33-.41-.49-1.06-.57-1.66-.63-.78-.08-1.38.26-1.98.73-.28.22-.55.45-.83.67-.24.19-.67.56-.8.83-.16.32.37.43.56.49.33.11.68.36.97.55.67.45.97,1.13,1.21,1.87.5,1.55.93,3.13,1.44,4.69.25.78.59,1.53.85,2.31.28.86.5,1.73.75,2.59.46,1.56.77,3.21.92,4.83.15,1.64.15,3.27.35,4.9.1.8.17,1.61.22,2.42.05.82.26,1.61.31,2.43.03.38.09.75.15,1.12.06.34-.02.67.11,1,.22.6.29,1.31.62,1.86.35.6,1.22.68,1.81.97.52.26,1.2.57.96-.33-.16-.59-.32-1.29-.27-1.9.07-.85-.19-1.7-.1-2.56.09-.84.2-1.69.23-2.53.03-.84.15-1.67.15-2.5,0-.84-.05-1.74.08-2.57.13-.81.24-1.65.15-2.47-.2-1.68-.73-3.24-1.37-4.8-.3-.74-.63-1.45-.99-2.16-.36-.72-.55-1.5-.92-2.2-.17-.32-.21-.68-.31-1.03-.12-.37-.27-.72-.41-1.08ZM101.75,132.42c-.26.02-.52-.02-.78.02-.22.03-.29.17-.51.13-.37-.07-.76.42-.99.65-.48.48-1.2,1.04-1.45,1.68-.09.23-.19.47-.21.72-.02.28.33.25.5.37.26.17.49.39.79.49.35.12.74.07,1.07.26.13.08,1.1,1.02.94.39-.09-.33-.91-1.51-.69-1.76.27-.29.99.72,1.09.88.48.74.55,1.42.69,2.26.12.74.25,1.58.19,2.33-.03.36-.04.67,0,1.03.04.45-.08.89-.04,1.35.07.79-.02,1.59-.03,2.38-.02.93-.06,1.87-.1,2.81-.07,1.77-.27,3.52-.31,5.28-.02.8-.05,1.6-.05,2.4,0,.39.04.77.03,1.16-.01.44-.08.79-.03,1.23.04.29-.05.56-.01.86.05.4,0,.82,0,1.22-.01.38.08.67.01,1.06-.06.41.07.86.07,1.27,0,.79.04,1.46.5,2.12.36.52.61,1.57,1.35,1.64.67.06,1.09-.63,1.27-1.17.22-.66.3-1.45.33-2.14.01-.34-.09-.62-.03-.97.07-.4.06-.79.06-1.19,0-.51-.1-.97-.13-1.46-.02-.29.11-.57.07-.87-.04-.33-.06-.56-.02-.89.05-.34-.03-.68-.04-1.02-.01-.45,0-.89,0-1.34-.03-1.61.03-3.27-.13-4.89-.17-1.65-.27-3.3-.33-4.97-.01-.4,0-.81-.08-1.21-.03-.17.01-.28,0-.45,0-.09-.08-.15-.08-.25-.02-.64.11-1.28-.02-1.92-.15-.76-.2-1.58-.24-2.35-.02-.38-.04-.76-.08-1.14-.03-.3-.15-.61-.11-.92.07-.47.35-.23.45.04.16.43.23.89.3,1.33.05.33.09.67.17,1,.1.41.2.82.28,1.24.08.43.07.87.17,1.3.17.77.09,1.55.19,2.32.11.84.14,1.67.16,2.52.04,1.77,0,3.51.09,5.27.04.78-.02,1.56.02,2.34.04.76.17,1.52.17,2.28,0,1.55-.12,3.2.23,4.72.37,1.54,1,2.98,2.25,4.02.55.46,2.66,2.43,2.81.69.11-1.33-.2-2.79-.62-4.03-.06-.18.02-.33-.02-.48-.05-.19-.13-.37-.2-.56-.14-.4-.23-.81-.29-1.23-.12-.76-.07-1.58-.36-2.29-.11-.26.03-.47.02-.75-.02-.38-.04-.73-.11-1.11-.14-.74-.16-1.5-.26-2.25-.06-.41-.04-.83-.06-1.24-.02-.38-.14-.71-.19-1.09-.11-.81.05-1.7-.2-2.48-.1-.31-.04-.57-.07-.89-.05-.39-.14-.78-.19-1.18-.11-.87-.17-1.76-.34-2.62-.31-1.5-.64-2.98-1.03-4.46-.09-.33-.32-.6-.43-.93-.12-.39-.21-.8-.33-1.19-.25-.87-.54-1.7-.87-2.54-.3-.76-.59-1.45-1.07-2.12-.43-.61-1.3-.63-1.97-.76-.41-.07-.75,0-1.16.03ZM137.85,198.21c-.4-.65-.75-1.31-1.24-1.9-.53-.65-.79-1.43-1.15-2.18-.74-1.55-1.58-3.09-2.16-4.72-.11-.32-.31-.61-.42-.93-.13-.38-.21-.78-.31-1.17-.1-.37-.23-.74-.33-1.11-.08-.3-.13-.65-.4-.84-.52-.38-.61-1.18-.74-1.79-.13-.64-.31-1.25-.51-1.87-.13-.39-.33-.87-.26-1.29.04-.25.27-.27.49-.26.41.03.84.03,1.25.08.59.07,1.51-.13,2.02-.44.61-.38-.03-1.16-.15-1.64-.19-.71-.43-1.41-.62-2.12-.21-.83-.28-1.64-.38-2.48-.11-.83-.31-1.65-.41-2.49-.09-.74-.56-1.39-.58-2.12-.02-.91-.31-1.76-.41-2.66-.05-.43-.1-.85-.14-1.28-.06-.49.06-.85.11-1.33.46.32.61.93.72,1.44.15.72.31,1.44.42,2.16.12.83.2,1.67.41,2.48.24.9.43,1.78.59,2.7.14.84.29,1.69.46,2.52.08.37.12.82.27,1.17.15.34.45.16.71.11.13-.02.27.03.4,0,.17-.03.32-.11.49-.15.28-.07.58-.04.86-.09.55-.11,1.42-.6,1.05-1.29-.16-.3-.1-.68-.13-1.01-.04-.39-.14-.78-.2-1.16-.15-.89-.43-1.75-.61-2.64-.31-1.59-.36-3.18-.57-4.77-.1-.76-.1-1.52-.26-2.27-.07-.36-.2-.71-.27-1.08-.06-.31-.02-.66-.17-.95-.31-.59-1.3-.88-1.86-1.16-.82-.42-1.64-.83-2.46-1.24-2.71-1.33-5.4-2.74-8.11-4.1-1.43-.72-2.86-1.45-4.3-2.16-.7-.35-1.42-.65-2.12-1-.26-.13-1.05-.83-1.14-.23-.1.68,0,1.41-.08,2.1-.04.37-.08.75-.03,1.12.06.46-.08.89-.06,1.34.02.57.13,1.08,0,1.67-.16.77-.25,1.61-.25,2.4,0,.76.07,1.51.06,2.27,0,.82.31,1.61.29,2.43,0,.33.23.93-.31.69-.33-.15-.62-.38-.92-.59-.49-.34-1.18-.88-1.82-.85-.37.02-.11,1.78-.08,2.04.11,1.18.18,3.31-1.61,2.86-1.56-.39-2.56-1.66-3.73-2.66-.47-.4-.97-.9-1.32-.13-.13.29-.3.57-.42.86-.12.33-.13.69-.47.89-.93.56-1.91-.49-2.6-.97-.02-.02-.24-.19-.27-.15-.15.18-.15.55-.08.76.11.33.02.63.03.97.01.46.11.91.13,1.37.01.38.02.74.07,1.12.06.4-.02.81.06,1.21.07.34.1.68.16,1.02.07.43.26.85.34,1.29.13.66.3,1.33.57,1.94.13.29.52.99.11,1.23-.55.32-1.52-.11-2.09-.21-.61-.1-.69.31-.6.83.09.54.21,1.11.45,1.6.34.68,1.1.92,1.28,1.69.17.75.22,1.47.23,2.23.02.83.19,1.69.28,2.52.04.32-.07.54-.36.7-.34.19-.36.4-.36.78,0,.88.12,1.79.19,2.67.15,1.75.46,3.5.36,5.27-.04.82-.16,1.64-.29,2.46-.12.74-.48,1.31-.64,2.04-.15.66-.67,1.1-1.27,1.35-.65.27-1.09.66-1.51,1.22-.37.5-.71,1-1.14,1.44-.54.56-1,.85-1.75,1.08-.36.11-.75.11-1.12.17-.4.06-.77.21-1.16.3-.27.06-.63.02-.86.2-.3.24-.36.68-.2,1.01.32.69,1.01.78,1.67.9.81.15,1.6.26,2.39.47,1.28.33,3.07.59,4.19-.27.56-.43,1.22-.8,1.9-1,.23-.07.53-.16.71.05.26.29.1.83.4,1.06.19.15.5.07.72.04.34-.04.68,0,1.02-.08.42-.11,1.7-.02,1.82-.63.11-.59.09-1.25.14-1.85.08-.92.14-1.86.26-2.78.1-.76.25-1.39-.14-2.08-.36-.63-.33-1.55-.02-2.19.34-.69.57-1.4.86-2.11.14-.35.24-.71.38-1.06.07-.19.2-.34.29-.52.11-.2.06-.45.19-.67.36-.64.63-1.36.9-2.05.29-.76.67-1.53.93-2.29.05-.15-.01-.3.05-.45.06-.15.14-.3.21-.44.12-.25.47-.69.39-.98-.06-.24-.28-.36-.29-.65-.01-.35.19-.66.35-.95.31-.54.31-1.16.51-1.74.27-.8.86-.8,1.6-.8.39,0,.79-.05,1.17,0,.36.05.72.16,1.09.16.79,0,.59-.5.97-.94.37-.41,1.39-.26,1.87-.25.34,0,.66-.22.99-.04.29.16.39.52.52.8.64,1.41,1.54,2.7,2.54,3.87.21.25.32.49.2.81-.12.31-.05.52.18.76.58.6,1.13,1.2,1.67,1.84.5.59.96,1.21,1.54,1.74.61.57,1.24,1.07,1.73,1.77.39.56.67,1.14.92,1.77.22.56.54,1.11.65,1.71.11.6-.32,1.07-.22,1.65.05.32.18.62.19.95,0,.37-.19.72-.24,1.09-.15,1.19-.14,2.6-.67,3.7-.2.42-.5.8-.9,1.06-.49.33-1.06.37-1.6.56-.48.16-1.02.05-1.52.2-.48.14-.69.52-.69,1.01-.01,1.42,1.72,1.01,2.62.96.62-.04,1.21-.12,1.82-.23.24-.04.52-.08.76.02.29-.12.61-.15.93-.19.66-.09,1.24-.25,1.79-.62.23-.16.49-.25.74-.39.2-.11.6-.32.74-.49.41-.5.56-1.25,1.1-1.64.53-.38,1.23.13,1.82-.02.72-.17,1.44-.78,2.09-1.14.59-.33.95-.6.89-1.32-.05-.71-.58-1.35-.89-1.97-.42-.81-.8-1.64-1.28-2.43ZM73.99,123.88c.32-.03.56-.61.67-.87.13-.33.33-.63.55-.91.15-.2.42-.64.67-.72.29-.09.29.21.16.37-.21.27-.45.45-.6.77-.3.59-.55,1.2-.85,1.79-.16.33-.38,1.24.32,1.03.43-.13.82-.67.93-1.08.19-.73.61-1.48,1.12-2.04.36-.4.8-.72,1.29-.92.75-.31-.27.69-.42.82-.76.66-1.17,1.48-1.56,2.38-.16.37-.88,1.84-.29,2.12.52.25.94-.43,1.07-.83.21-.64.43-1.43.78-2.01.08-.13.21-.35.37-.38.26-.05.18.48.15.6-.18.61-.85,1.36-.28,1.98.39.42.92.48,1.01,1.13.09.66.24,1.61-.16,2.18-.36.52-.97.79-1.35,1.3-.47.63-.55,1.42-.64,2.18-.09.8-.06,1.62-.2,2.41-.06.36-.19.68-.36,1-.17.33-.02.39.29.39.49,0,.97-.1,1.46-.06.24.02.5.08.68.25.24.23.32.61.67.73.53.18,1,0,1.34-.4.47-.56.85-.55,1.56-.55.16,0,.25-.02.4-.05s.28.09.43.1c.24,0,.15-.3.1-.43-.09-.25-.17-.49-.23-.74-.11-.47,0-.92,0-1.4,0-.74-.14-1.64-.31-2.36-.19-.77-.56-1.33-1.19-1.81-.54-.42-.96-.72-.86-1.46.07-.54.31-1.73-.43-1.88-.52-.11-.88-.14-1.32-.48-.34-.27-.67-.67-.25-1.03.57-.48,1.37-.43,1.97-.84.31-.21.3-.47.1-.76-.28-.41-.54-.62-1.03-.44-.15.06-.77.4-.81.06-.04-.31.66-.6.9-.64.6-.12,2.08.91,1.87,1.64-.06.21-.28.33-.47.41-.23.09-.39.3-.6.44-.35.25-1.05.16-1.31.52-.27.37.78.6.96.62.55.06,1.14.06,1.63-.21.49-.28.95-.67,1.39-1.02.27-.21.53-.43.81-.64.29-.21.64-.3.92-.52.69-.51,1.1.06,1.72.43.73.43,1.55.76,2.22,1.29.56.45,1.32.78,1.95,1.12.74.4,1.41.93,2.17,1.3.75.36,1.51.71,2.27,1.05.28.12.67.23.79.54.13.36.06.85.07,1.23,0,.87-.04,1.74-.04,2.6,0,.72-.14,1.86.21,2.51.1.18.67-.81.71-.87.38-.62.76-1.25,1.24-1.79.45-.51.99-.9,1.63-1.13.33-.12.69-.15,1.02-.27.38-.13.7-.38,1.03-.59.28-.18.41-.53.59-.79.21-.31.45-.6.71-.86.61-.61,1.36-.98,2.17-1.25.7-.23,1.44-.4,2.15-.6.71-.2,1.47.2,1.98.68.59.56.78,1.11.87,1.9.08.67.12,1.31.19,1.98.06.63.18,1.24.23,1.87.06.72.99.3,1.4.16,1.51-.5,3.16-.66,4.62-1.3.57-.25,1.35-.53,1.09-1.27-.28-.79-.5-1.58-.61-2.41-.22-1.75-.51-3.49-.29-5.25.18-1.47,1.29-2.48,2.32-3.44.46-.44.97-.85,1.57-1.1.64-.26,1.38-.22,2.05-.38.33-.08.65.02.97-.05.37-.08.7-.17,1.09-.17.87,0,1.65.11,2.44.5,1.35.67,2.75,1.39,3.77,2.53,1.08,1.21,1.33,2.71,1.7,4.23.2.81.35,1.62.62,2.42.14.4.29.79.45,1.18.17.39.43.75.58,1.14.23.61.61,1.12.93,1.69.38.67.84,1.33,1.37,1.9.37.4.83.69,1,1.23.19.59-.39.78-.76.37-.34-.37-.53-.87-.84-1.27-.51-.67-.97-1.33-1.38-2.07-.23-.41-.46-.83-.71-1.23-.21-.34-.48-.6-.43.02.07.8.19,1.61.29,2.41.11.9.33,1.88.29,2.79-.03.71.12,1.48.24,2.18.05.33.2.57.15.91-.06.41.14.88.22,1.28.29,1.6.36,3.21.72,4.8.18.79.42,1.55.67,2.32.12.35.17.68.23,1.05.07.41.34.77.43,1.18.03.14-.02.27-.02.41,0,.13.14.22.2.32.17.31.17.48.46.73.27.23.54.48.79.73.25.24.56.38.81.62.25.24.5.36.83.48.29.1.54.32.84.39.8.19,1.61.4,2.44.44.76.04,1.59.11,2.35.06.82-.05,1.66-.27,2.44-.53,1.57-.52,2.79-1.34,3.87-2.57.23-.26.32-.55.49-.84.17-.29.37-.53.51-.85.32-.73.46-1.55.65-2.32.1-.39.17-.78.26-1.17.07-.31.25-.62.21-.94-.1-.78-.04-1.59,0-2.39.02-.31.14-.65.12-.96-.03-.31-.04-.57-.04-.89,0-.37-.14-.76-.16-1.13-.03-.4.1-.89-.07-1.26-.13-.29-.06-.66-.17-.98-.12-.34-.09-.71-.19-1.06-.22-.79-.55-1.6-.89-2.34-.64-1.36-1.48-2.77-2.5-3.87-.5-.55-.91-1.17-1.44-1.7-.63-.64-1.27-1.28-1.88-1.95-.52-.58-1.13-1.1-1.7-1.63-.55-.51-1-1.09-1.56-1.59-.51-.45-.87-1.04-1.36-1.52-.57-.56-.91-1.28-1.47-1.84-.52-.53-.88-1.23-1.33-1.83-.51-.68-1.07-1.33-1.7-1.9-.6-.55-1.22-1.06-1.96-1.41-.72-.35-1.34-.9-2.02-1.32-.3-.19-.66-.21-.99-.32-.33-.11-.66-.08-.97-.17-.35-.1-.7,0-1.06-.02-.51-.01-1.02-.01-1.53.02-.61.03-.83-.07-1.04-.67-.08-.21-.13-.43-.15-.65-.02-.28.18-.47.2-.73.02-.32-.02-.67,0-1,.03-.38.13-.75.19-1.12.12-.72-.3-1.19-1.04-.83-.68.33-1.17.08-1.38-.66-.19-.67.09-1.6-.44-2.14-.41-.42-1.2,0-1.51-.6-.31-.6.3-1.23-.05-1.85-.2-.35-.77-.97-.18-1.23.19-.08.4-.13.58-.24.3-.18.62-.17.93-.33.54-.27,1.07-.64,1.58-.97.55-.35,1.1-.76,1.47-1.3.68-.98.32-1.96-.75-2.38-1.12-.44-2.34-.64-3.47-1.04-.75-.26-1.54-.35-2.29-.61-.36-.12-.65-.15-1.02-.16-.44-.01-.64.18-1.03.33-.73.28-1.42.7-2.19.9-.75.2-1.58.09-2.34.04-.38-.03-.71-.12-1.1-.11-.4,0-.81-.06-1.21-.1-.83-.07-1.71-.26-2.54-.06-.7.16-1.33.79-1.9,1.2-.67.49-1.39.85-2.13,1.22-1.37.68-2.54,1.76-3.81,2.6-.55.36-1.06.78-1.59,1.16-.21.15-.59.23-.76.4-.29.28-.64.47-.95.73-.28.24-.54.49-.8.75-.12.11-.13.29-.24.41-.1.11-.23.2-.27.36-.14.59.55.9.99.96.5.07,1,.02,1.5,0,.7-.02,1.4.13,2.1.14.73,0,1.4-.02,2.12-.17.82-.17,1.72-.15,2.55-.16.62,0,.9.58,1.26,1.03.41.51-.25,1.57-.37,2.11-.11.49-.37,1.63.07,2.02.42.38,1.02-.25,1.46.09.44.34,0,1.04.42,1.36.09.06.52.07.43.24-.17.32-.25.43-.04.78.35.59.04,1.22.28,1.82.26.63.92.61,1.45.43.47-.15,1-.38,1.47-.11.29.17.46.46.63.73.17.27.56.5.58.84.04.46-.51.93-.82,1.2-.47.42-1.14.7-1.72.95-.37.15-.71.16-1.1.21-.38.04-.73.2-1.09.31-.85.26-1.73.47-2.61.63-.21.04-.8-.03-.88.23-.05.18.02.38.06.55.1.42.2.84.26,1.26.05.32.14.81-.05,1.1-.21.31-.48-.08-.55-.27-.32-.81-.22-1.72-.5-2.54-.17-.49-.69-.54-1.11-.69-.7-.24-1.37-.53-2.09-.68-.68-.14-1.26-.1-1.9.15-.21.08-.56.16-.6.44-.04.34.23.66.36.94.28.59.21,1.21.26,1.86.08.94.19,1.87.25,2.81.11,1.58.23,3.26-.13,4.81-.02.1-.21.57-.39.39-.12-.12-.14-.48-.16-.63-.13-.76.12-1.61.04-2.38-.07-.71-.09-1.44-.11-2.16,0-.23,0-.45,0-.68,0-.18-.09-.42-.04-.59.07-.24-.07-.7-.13-.94-.1-.35-.16-.63-.14-1,.04-.7-.18-1.65-.64-2.21-.81-1-2.14-.93-3.15-.3-.32.2-.98.68-.44,1,.19.12.41.18.61.27.31.13.44.37.62.65.27.43.5.84.69,1.32.12.29.09.65.15.96.09.44.05.94.03,1.39-.02.33-.27,3.01-1.05,2.65-.28-.13.02-.84.08-1.03.22-.64.2-1.29.17-1.96-.03-.67.08-1.42-.16-2.06-.22-.61-.68-1.32-1.26-1.65-.34-.19-.68-.15-1.05-.16-.41-.02-.81-.04-1.21-.06-.4-.01-.8-.1-1.2-.1-.47,0-.92.08-1.39,0-.78-.12-1.57-.08-2.36-.06-.38,0-.75.09-1.13.08-.46-.01-.92-.09-1.38-.13-.68-.06-1.38-.13-2.06-.15-.3,0-.53.05-.83-.03-.39-.1-.8-.13-1.2-.17-1.56-.14-3.2-.9-4.76-.4-.71.23-1.42.49-2.03.93-.61.44-.94,1.06-1.31,1.7-.12.2-.61,1.46.02,1.4ZM121.32,110.87c-.72.37-1.25-.53-1.42-1.11-.1-.34-.06-.67-.08-1.02-.04-.52-.37-.64-.82-.78-.47-.15-1-.34-1.2-.83-.16-.4-.06-.84-.04-1.26.02-.45-.07-.9-.43-1.21-.26-.22-.85-.32-.95-.67-.1-.36.6-.29.78-.29.54,0,.89.32,1.22.72.37.45.47.96.37,1.53-.06.33-.29.83.04,1.08.36.28.91.29,1.31.52.46.26.6.72.58,1.23-.01.49-.12,1.04.28,1.42.19.17.96.37.34.68ZM122.99,110.4c-.79.35-1.49-.68-1.57-1.36-.05-.4.18-.93-.13-1.27-.28-.31-.79-.27-1.12-.56-.39-.35-.71-.73-.68-1.28.03-.56.14-1.04-.17-1.55-.19-.31-.64-.34-.91-.59-.4-.38.22-.62.56-.57.83.12,1.54,1.06,1.62,1.85.04.42-.2.81-.1,1.23.09.39.5.5.84.61.91.29,1.09.69,1.06,1.63-.01.42.02.92.38,1.19.25.18.71.46.22.68ZM125.12,109.72c-.58.85-1.65-.67-1.8-1.14-.14-.44.17-1.1-.18-1.43-.32-.3-.83-.24-1.2-.44-1.13-.6-.28-1.69-.64-2.64-.15-.39-.57-.54-.91-.72-.38-.2-.44-.61.08-.64.94-.06,1.8.7,1.9,1.62.05.5-.23.89-.23,1.36,0,.42.51.35.78.38,1.11.13,1.31,1.04,1.28,1.99-.01.39-.03.87.37,1.07.18.09.74.28.54.58ZM123.79,103.96c-.05.45-.44.96.07,1.3.38.26.89.14,1.28.4.41.28.48.77.53,1.23.05.46.02,1.43.44,1.74.15.11.35.15.48.29.18.2-.15.42-.3.46-.42.11-1.01-.34-1.2-.69-.41-.77.4-1.96-.53-2.44-.55-.28-1.5-.25-1.77-.92-.32-.8.68-1.55-.3-2.19-.19-.12-.98-.4-.83-.72.15-.31.72-.4,1.01-.33.71.19,1.2,1.18,1.12,1.87ZM111.02,106.77c0,.27-.29.9-.64.76-.38-.16-.31-.73-.68-.82-.22-.06-.06-.31.09-.34.24-.05.52,0,.76.02.15.02,1.14.18,1.08.38-.04.14-.54-.1-.61,0ZM114.25,99c-.71-.08-1.49.38-2.14.62-.86.32-1.66.76-2.49,1.13-1.57.7-3.07,1.54-4.64,2.22-.74.32-1.48.62-2.21.97-.36.18-.72.36-1.09.53-.35.17-.78.26-1.1.46-.24.16-1.27.16-1.12-.34.07-.22.36-.27.55-.26.43.01.83-.14,1.21-.32.68-.33,1.38-.58,2.08-.88.69-.29,1.36-.71,2-1.09.27-.16.45-.39.75-.51.3-.11.49-.29.76-.45.67-.4,1.43-.67,2.13-1,.74-.35,1.44-.79,2.18-1.14.35-.17.71-.34,1.05-.53.16-.09.32-.18.48-.27.15-.08.29-.25.45-.31.09-.03.18.03.27,0,.15-.04.28-.12.43-.16.42-.09.85-.11,1.28-.11.4,0,.81.06,1.21.07.41,0,.8.22,1.21.3.56.1,1.13.13,1.69.23.57.1,1.12.27,1.68.39,1.11.25,2.3.47,3.44.49.25,0,.5.09.76.07.21-.02.44-.1.65-.13.45-.07.61-.22.97-.48.17-.12.65-.46.56.05-.06.37-.37.76-.68.95-.74.42-1.79.43-2.63.39-1.17-.05-2.38-.31-3.54-.49-2-.31-4.13-.72-6.16-.44ZM115.11,104.25c.77-.39,1.55.76,1.64,1.41.08.59-.47,1.66.25,1.97.62.27,1.12.32,1.22,1.12.1.81-.09,1.51.58,2.1.25.21.18.69-.22.63-.39-.05-.7-.5-.86-.82-.25-.49-.17-.9-.16-1.43.02-.6-.51-.71-.95-.93-1.06-.53-.47-1.49-.58-2.4-.05-.4-.32-.69-.63-.93-.18-.14-.68-.52-.29-.72ZM151.24,165.26c-.62-.39-1.25-.72-1.89-1.08-.31-.17-.57-.25-.89-.36-.37-.13-.69-.49-1.04-.67-.76-.38-1.52-.74-2.27-1.14-.74-.39-1.54-.67-2.22-1.16-.57-.41-1.19-.58-1.78-.94-.72-.44-1.52-.84-2.29-1.2-1.53-.73-3.04-1.53-4.53-2.33-1.44-.76-2.93-1.42-4.31-2.28-.33-.2-.68-.28-1.03-.43-.38-.16-.73-.4-1.1-.58-.36-.17-.75-.29-1.1-.49-.37-.2-.69-.45-1.06-.64-1.52-.75-3.07-1.44-4.54-2.27-.7-.39-1.44-.73-2.16-1.1-.67-.34-1.33-.79-2.03-1.06-.18-.07-.33-.06-.49-.19-.11-.1-.23-.22-.39-.24-.22-.03-.17.42-.17.54-.03.68-.26,1.35.08,2,.3.55,1,.73,1.53.97.73.32,1.35.89,2.11,1.15.72.25,1.45.64,2.11,1.02.74.43,1.47.77,2.24,1.13.65.3,1.29.71,1.91,1.07.29.17.64.25.95.4.41.21.8.45,1.2.67,1.51.84,3.1,1.55,4.64,2.33,1.47.75,2.92,1.5,4.41,2.2.7.33,1.34.77,2.05,1.1.81.37,1.59.81,2.4,1.19,1.44.68,2.81,1.48,4.22,2.2,1,.51,1.99,1.07,3.01,1.54.53.24,1.07.41,1.58.7.51.29,1.01.61,1.54.87,1.06.53,2.13,1.05,3.19,1.58.47.23,1.02.71,1.52.84.48.12.79.44,1.24.64.63.29,2.29.48,2.18-.69-.09-1.06-1.27-1.46-2.08-1.83-1.15-.52-2.26-1.15-3.37-1.75-.57-.31-1.14-.62-1.72-.92-.53-.27-1.14-.47-1.64-.78ZM96.64,175.85c.68.03,1.38-.02,2.03.08.28.04.66-.06.95-.06.45,0,.87.03,1.31.13.26.06,1.49.44,1.51-.08.02-.44-.36-.84-.47-1.26-.18-.71-.39-1.58-.4-2.32,0-.74-.33-1.57-.18-2.29.07-.32-.11-.67-.15-.99-.05-.42-.04-.84-.07-1.26-.03-.4-.13-.78-.15-1.17-.02-.44.03-.87-.02-1.31-.2-1.77-.12-3.63-.09-5.41.03-1.79-.02-3.61.09-5.39.05-.81.19-1.62.24-2.43.06-.86-.02-1.73.06-2.6.08-.79.25-1.57.33-2.36.08-.71-.03-1.42.04-2.12.07-.7-.02-1.05-.79-1.06-.37,0-.62-.26-.87-.51-.27-.27-.64-.05-.95-.07-.31-.02-.53-.22-.73-.44-.27-.29-.44-.18-.77-.26-.27-.06-.41-.32-.64-.45-.31-.17-.65.01-.96-.14-.4-.2-.56-.34-.73.17-.13.39-.18.82-.23,1.23-.08.66-.26,1.32-.35,1.98-.05.38-.14.78-.29,1.14-.17.42-.12.87-.22,1.31-.19.79-.33,1.57-.51,2.36-.19.86-.32,1.77-.57,2.61-.11.37-.15.72-.22,1.1-.06.32-.2.56-.18.89.05.81-.45,1.66-.63,2.44-.37,1.6-.93,3.15-1.23,4.76-.14.74-.32,1.46-.45,2.2-.04.24,0,.69-.13.88-.19.27-.23.82-.29,1.14-.14.78-.25,1.6-.36,2.38-.04.3.03.75-.13,1.01-.19.32-.35.73-.43,1.1-.15.66-.58,1.26-.78,1.9-.16.52.83.29,1.07.31.32.03.71.03,1.03.12.14.04.51.35.62.13.35-.65.16-1.54.36-2.24.23-.82.24-1.73.34-2.57.11-.93.34-1.83.47-2.76.25-1.69.63-3.35,1.03-5.01.05-.21.32-1.38.73-.87.26.33-.05.95-.15,1.29-.47,1.61-.76,3.36-.96,5.03-.21,1.76-.39,3.52-.61,5.28-.09.76-.18,1.53-.17,2.29.01.46-.25,1.25.3,1.47.59.24,1.31.27,1.93.36.81.12,1.62.31,2.43.34ZM159.02,80.59c-.15-.34-.31-.67-.43-1.02-.07-.19-.15-.5-.38-.57-.31-.09-.62.2-.89.29-.4.13-.83.25-1.24.34-.24.05-.49.33-.74.27-.38-.09-.69-.17-1.04-.34-.33-.16-.71-.22-1.03-.39-.34-.18-.6-.38-.99-.47-.75-.18-1.43-.41-2.15-.68-.77-.29-1.55-.48-2.33-.73-1.52-.48-3.05-.95-4.61-1.3-.79-.18-1.57-.44-2.37-.57-.38-.06-.78-.04-1.15-.15-.42-.12-.84-.25-1.25-.38-.3-.09-.53-.07-.82-.09-.28-.02-.67-.15-.94-.21-.89-.19-1.78-.26-2.67-.41-3.37-.56-6.82-.91-10.21-1.04-.41-.02-.81-.05-1.22-.07-.3-.02-.62.08-.91-.02-.3-.1-.76.03-1.08.02-.34-.01-.68-.01-1-.13-.85-.32-1.39-2.38-2.4-1.09-.12.15-.23.31-.34.46-.15.04-.27.15-.37.27-.19.21-.38.43-.68.46-.81.06-1.59-.02-2.4.1-.37.05-.73-.03-1.1,0-.38.04-.74.06-1.12.05-.38-.01-.72.13-1.1.14-.46.01-.87.01-1.32.11-.76.17-1.54.08-2.31.19-.35.05-.67.05-1.02.06-.17,0-.28.09-.44.14-.23.07-.48.04-.72.07-.39.03-.8.12-1.19.14-.36.01-.65-.04-.99.11-.76.33-1.67.26-2.47.43-.81.18-1.64.31-2.45.48-.39.08-.79.17-1.18.23-.39.05-.81.26-1.21.23-.31-.02-.66.2-.97.27-.38.08-.75.25-1.14.32-.87.15-1.71.37-2.56.61-1.64.46-3.32.92-4.92,1.51-.31.11-.57.36-.88.44-.39.11-.81.16-1.17.32-.32.14-.64.26-.97.38-.31.12-.81.19-1.07.4-.65.5-1.17.19-1.85-.03-.52-.17-1.64-.95-2.15-.62-.23.15-.33.71-.4.96-.09.36-.29.67-.38,1.03-.21.79-.54,1.55-.77,2.34-.17.57-.49,1.07-.67,1.64-.22.68.32.79.88.91.35.08.66.18,1,.28.33.1.66.05.99.16.79.25,1.62.34,2.41.59.39.12,1.29.59,1.65.2.34-.37.24-.95.47-1.37.37-.67.95-.74,1.61-.95.85-.28,1.64-.79,2.52-.96.4-.08.75-.22,1.12-.39.35-.16.72-.16,1.06-.31.79-.35,1.62-.57,2.45-.76.39-.09.78-.19,1.15-.36.16-.08.35-.01.52-.07.15-.05.31-.1.47-.15.81-.27,1.65-.35,2.45-.66.33-.13.71-.02,1.05-.1.36-.08.7-.23,1.06-.3.82-.17,1.68-.35,2.52-.42.37-.03.69-.18,1.05-.23.39-.05.76-.09,1.15-.16.85-.17,1.72-.26,2.59-.31.84-.06,1.67-.26,2.51-.29.87-.04,1.75-.16,2.62-.23.75-.07,1.47-.1,2.22-.08.34.01.7,0,1.03-.11.42-.15.85.03,1.28.02.79-.02,1.17.33,1.74.83.27.24.57.45.84.69.29.24.46.56.81.26.18-.15.43-.2.59-.36.18-.18.33-.37.54-.53.48-.39.91-.98,1.6-.97.75,0,1.5.11,2.26.07.37-.02.64.07,1.01.11.39.04.75-.07,1.15,0,1.7.28,3.47.33,5.18.54.42.05.84.13,1.26.07.37.08.7.15,1.08.18.38.03.75.14,1.13.21.46.09.94.1,1.4.17.66.11,1.28.24,1.92.36.76.15,1.61.21,2.34.48.73.28,1.58.28,2.33.53.81.27,1.67.4,2.49.65,1.42.44,2.88.76,4.28,1.27.7.26,1.37.5,2.06.77.7.28,1.48.48,2.12.88.64.41,1.07,1.06,1.65,1.54.62.51,1.3.13,1.98-.04.85-.22,1.7-.38,2.55-.57.48-.11,1.79-.13,1.61-.88-.17-.73-.51-1.46-.79-2.16-.32-.81-.43-1.7-.77-2.5ZM80.9,83.29c-.25.39-.38.86-.73,1.18-.45.42-1.21.18-1.74.1-.35-.06-1,.04-1.31-.18-.32-.23.53-1.19.68-1.4.21-.31.37-.95.7-1.15.2-.11.45.04.65.05.19,0,.34-.08.54-.02.15.04.31.09.47.1.32.03,1.26-.2,1.36.27.08.39-.43.76-.61,1.05ZM99.95,78.5c-1.28.84-2.92,1.23-4.42,1.15-.67-.03-1.62.01-2.04-.63-.44-.67.34-1.28.85-1.57,1.39-.79,3.2-1.18,4.78-1.08.67.04,1.26.29,1.64.84.37.52-.45,1.05-.81,1.29ZM120.1,76.5c-.5.44-1.16.62-1.72.96-.3.18-.54.43-.92.39-.33-.04-.63-.25-.9-.44-.58-.41-1.23-.66-1.81-1.05-.66-.45.2-.76.55-.98.55-.34,1.1-.69,1.67-1,.26-.14.5-.33.81-.25.33.09.61.35.9.53.59.38,1.32.61,1.88,1.04.52.4-.21.59-.47.81ZM141.12,79.49c-.35.11-.71.22-1.08.18-.19-.02-.37-.08-.56-.09-.25,0-.49.08-.74.03-.75-.14-1.5-.28-2.21-.57-.68-.28-1.36-.63-1.77-1.27-.42-.66.47-1.25,1.05-1.35.32-.06.64,0,.96,0,.29,0,.54-.12.84-.09.72.1,1.48.28,2.17.5.74.24,1.54.59,2.03,1.19.52.63-.04,1.26-.68,1.46ZM157.89,84.41c-.28.22-.77.16-1.1.15-.53-.02-1.06.14-1.59.1-.46-.03-.75-.87-.92-1.22-.17-.35-.54-.73-.63-1.11-.09-.37,1.24-.39,1.5-.41.23-.02.43.1.67,0,.24-.11.34-.06.58.02.55.18.77.83,1.07,1.28.15.23.73.95.42,1.2ZM130.88,137.01c-.49,1.4-.96,2.95-2.21,3.88-.58.43-1.18.62-1.84.89-.13.05-.3.19-.45.18-.15,0-.25-.07-.4,0-.39.18-.74.32-1.16.4-1.69.32-3.44.43-5.15.59-.36.03-.78.26-1.13.23-.37-.03-.73-.01-1.1.01-.42.02-.84.07-1.26.11-.33.03-.9-.03-1.17.19-.34.27.12.92.22,1.21.2.59.25,1.22.87,1.54,3.24,1.67,6.54,3.23,9.79,4.87,1.56.79,3.17,1.51,4.71,2.32,1.38.73,2.89,1.3,4.21,2.13.17.11.9.59.87.08-.04-.85-.12-1.74-.25-2.58-.23-1.58-.37-3.15-.58-4.72-.1-.77.06-1.56-.15-2.3-.09-.32-.07-.65-.13-.97-.07-.4-.16-.7-.16-1.12,0-.83-.3-1.65-.36-2.47-.03-.34.05-.69.02-1.03-.04-.39-.11-.79-.19-1.18-.07-.35.06-.72-.05-1.07-.12-.38-.07-.7-.11-1.1-.02-.17-.09-.33-.13-.5-.04-.19.03-.32.04-.49.02-.4-.1-.87-.14-1.27-.2-1.75-.37-3.49-.79-5.21-.1-.4-.08-.82-.19-1.21-.08-.28-.16-.55-.21-.84-.01-.06-.12-.5-.27-.34-.12.13-.05.48-.04.63.05.65-.08,1.33-.14,1.98-.08.89-.1,1.81-.23,2.69-.05.34-.13.67-.07,1.01.05.3-.18.62-.22.92-.12.84-.19,1.74-.46,2.54ZM90.23,136.71c.22.23.58.31.86.47.31.18.61.35.96.44.34.09.62.2.91.41.32.24.72.32,1.04.56.66.52-.09.92-.36,1.36-.35.55.48.82.87.8.72-.02.57-.77.56-1.3-.02-.86.28-1.57.46-2.39.11-.5-.5-.73-.85-.88-.78-.34-1.51-.79-2.25-1.19-.7-.38-1.38-.8-2.1-1.14-.31-.15-.62-.22-.93-.35-.37-.16-.72-.48-1.08-.67-.66-.34-1.33-.67-1.98-1.03-.51-.28-1.1-.49-1.62-.09-.36.27-.54.74-.5,1.18.06.66.64,1.05,1.15,1.37.61.38,1.34.5,1.92.91.59.42,1.35.77,2.02,1.03.33.13.68.26.93.52ZM119.36,133.21c-.72.04-1.28.35-1.96.54-.74.21-1.49.48-2.22.74-.35.13-.71.13-1.07.23-.39.11-.77.23-1.16.33-.54.13-1.66.24-1.38,1.03.49,1.41,1.26,2.69,1.87,4.05.24.53.43,1.11.69,1.62.37.72,1.16.58,1.85.56.63-.03,1.24.06,1.86-.09.8-.21,1.76-.1,2.59-.18,1.65-.16,3.39-.43,4.99-.89,1.39-.4,2.58-1.14,3.26-2.44.33-.62.54-1.31.8-1.96.14-.35.17-.75.32-1.08.15-.34.06-.69.21-1.02.3-.65.34-1.48.49-2.17.17-.81.33-1.62.39-2.44.13-1.6.32-3.29,0-4.87-.16-.77-.3-1.55-.66-2.26-.29-.57-.79-1.5-1.43-1.73-.26-.09-.42-.34-.7-.4-.38-.09-.76-.22-1.14-.32-.85-.22-1.84-.24-2.71-.16-.41.04-.82.06-1.22.13-.38.06-.7.3-1.06.39-.69.18-1.5.53-2.07.96-1.04.8-1.82,2.54-1.72,3.85.03.39.11.77.09,1.16-.01.38-.13.79-.09,1.17.04.35.1.63.1.99,0,.44.16.89.3,1.3.14.37.29.73.49,1.07.17.3.21.68.43.95.32.39.55.9-.16.94ZM58.02,60.72c.54.38,1.19.76,1.83.92.21.05,1.14.16,1.07.5-.07.35-.2.7-.27,1.05-.08.38-.01.68.03,1.05.04.4.04.73.18,1.12.15.41.39.79.5,1.21.09.37-.02.76-.01,1.13,0,.35.01.7.03,1.05.03.68.4,1.43.82,1.94.88,1.08,2.51,2.1,3.96,1.95.73-.07,1.24.26,1.58.92.13.26.4.35.59.58.27.33.58.59.92.83.26.18.5.39.63.68.32.18.59.45.88.67.61.45,1.43.77,2.18.88,1.61.23,3.24-.09,4.77-.62.8-.27,1.58-.6,2.37-.91.72-.28,1.61-.45,2.27-.85.33-.2.64-.18.98-.32.34-.14.65-.28,1.01-.38.79-.21,1.55-.5,2.34-.71.76-.2,1.57-.39,2.3-.69.31-.13.58-.15.9-.2.35-.05.64-.26,1-.31.71-.09,1.38-.35,2.09-.49.84-.16,1.68-.5,2.53-.59,1.53-.16,3.03-.63,4.56-.82.77-.1,1.51-.33,2.29-.39.76-.06,1.51-.17,2.27-.27.39-.05.71-.12,1.11-.09.35.02.64-.14.97-.19.4-.07.81-.04,1.21-.09.4-.05.86-.16,1.27-.15,1.58.03,3.21-.17,4.81-.25,1.67-.09,3.32.01,4.99,0,.83,0,1.68-.01,2.51.07.36.04.68,0,1.03,0,.48,0,.95.16,1.44.18,1.65.05,3.31.14,4.93.39.74.12,1.53.11,2.26.27.8.17,1.65.16,2.45.33.34.07.71.06,1.04.14.36.08.65.23,1.02.28.76.09,1.47.28,2.22.43.62.12,1.27.16,1.89.25.36.06.71.26,1.08.31.42.07.89.09,1.29.26.66.28,1.39.32,2.09.52.89.25,1.78.53,2.68.78,1.6.45,3.25.8,4.82,1.36.35.12.66.31,1.02.42.35.11.71.19,1.06.32.34.13.73.11,1.05.31.33.2.7.18,1.01.37.24.15.67.27.95.34.33.08.64.22.96.32.74.23,1.47.41,2.24.57.4.08.72.18,1.12.15.35-.03.62.09.95-.02.82-.27,1.48-.47,2.18-1.02,1.25-.98,2.4-2.1,3.42-3.32.38-.46.9-.33,1.43-.36.73-.04,1.55-.36,2.18-.7,1.25-.68,2.21-1.98,2.36-3.41.04-.37.04-.74.02-1.11-.02-.37-.13-.69.04-1.04.38-.77.65-1.55.64-2.42,0-.42-.08-.83-.15-1.24-.03-.2-.18-.53,0-.7.18-.18.5-.14.73-.22.41-.13.83-.32,1.21-.53,1.41-.75,2.24-2.06,2.49-3.62.23-1.46,0-2.9-.92-4.1-.4-.51-.91-1.05-1.46-1.41-.69-.45-1.62-.61-2.42-.77-.65-.13.28-1,.44-1.22.47-.66.83-1.27.88-2.11.08-1.24-.35-3.26-1.5-3.96-.26-.16-.4-.43-.67-.58-.33-.19-.69-.32-1.04-.45-.83-.3-1.58-.28-2.45-.17-.15.02-.86.21-.83-.11.02-.25.31-.6.41-.84.35-.8.39-1.46.33-2.31-.05-.68-.45-1.43-.91-1.93-.41-.45-1.08-1.09-1.68-1.26-1.37-.4-2.91-.22-4.01.75-.09.08-.56.63-.66.33-.08-.25.16-.57.17-.83.03-.85.05-1.59-.43-2.33-.18-.28-.37-.54-.54-.82-.17-.26-.51-.42-.74-.62-.25-.21-.52-.16-.8-.27-.38-.15-.79-.22-1.2-.19-.69.04-1.36.35-1.87.8-.1.08-.53.53-.67.33-.12-.18-.03-.46-.09-.66-.21-.74-.28-1.44-.85-2.01-.27-.27-.58-.49-.9-.68-.37-.22-.76-.24-1.17-.36-1.37-.39-2.9.86-3.39,2.06-.36.88-.65.08-.95-.4-.39-.63-.91-1.32-1.57-1.69-.29-.16-.65-.17-.93-.35-.27-.16-.62-.08-.9-.21-.5-.22-1.08.08-1.58.21-.75.2-.49-.85-.52-1.27-.05-.75-.48-1.57-.97-2.12-.95-1.06-2.62-1.57-3.98-1.18-.33.1-.58.31-.88.44-.28.12-.45-.48-.5-.66-.25-.79-.62-1.24-1.21-1.81-.76-.75-2.36-1-3.3-.49-.28.15-.57.22-.82.43-.2.17-.4.48-.64.59-.26.12-.37-.1-.42-.31-.07-.34-.21-.62-.45-.88-.8-.89-2.12-1.68-3.36-1.16-.57.24-1.2.48-1.58.98-.25.33-.5,1.4-.94,1.44-.76.07-.22-.55-.08-.9.35-.82.52-1.65.5-2.54-.01-.71-.14-1.31-.49-1.94-.41-.72-.83-1.44-1.35-2.1-.44-.56-1.02-1-1.44-1.57-.44-.6-.45-1.48-.37-2.19.04-.34.03-.64.05-.97.02-.36.28-.41.57-.48.72-.15,1.66-.22,2.11-.89.36-.54.29-1.15.34-1.75.03-.35,0-.7.02-1.06.04-.46-.04-.83-.12-1.28-.11-.59-.22-1.18-.75-1.56-.27-.19-.56-.1-.86-.13-.34-.04-.76-.13-1.08-.24-.59-.2-.64-1.25-.88-1.73-.3-.6-.79-1.01-1.4-1.26-1.21-.5-3.26-.35-4.08.79-.4.55-.43,1.18-.68,1.78-.19.44-.68.55-1.11.6-.42.05-.89.03-1.28.21-.64.3-.51.94-.7,1.49-.23.66-.22,1.28-.12,1.98.09.7-.11,1.51.35,2.12.4.52.96.76,1.6.85.31.04.7.07.92.32.24.27.15.8.17,1.13.03.67.24,1.59-.22,2.15-.51.62-1.11,1.16-1.62,1.78-.4.48-.8,1.04-1.14,1.56-.18.27-.16.52-.26.81-.14.41-.26.77-.3,1.21-.06.72-.09,1.39.14,2.09.16.47.57.92.58,1.42,0,.43-.45.37-.63.11-.22-.33-.29-.75-.53-1.06-.81-1.06-2.45-1.49-3.69-1.06-.64.22-1.22.68-1.55,1.27-.15.26-.23.55-.37.82-.17.34-.79-.2-.95-.32-1.23-.9-2.68-.99-4.01-.18-.64.39-.84.93-1.17,1.56-.24.32-.22.49-.3.85-.09.38-.54.19-.73.04-.5-.38-1.4-.4-2-.36-.76.06-1.48.36-2.06.86-.48.42-.85.95-1.11,1.53-.14.32-.24.64-.25.99-.01.3.1.92-.11,1.18-.22.26-.93,0-1.2-.06-.65-.12-1.41.05-2.02.28-1.27.48-2.34,1.49-2.64,2.82-.18.79-.43,0-.48-.39-.09-.74-.86-1.43-1.47-1.79-1.2-.71-2.85-.47-3.86.46-.47.44-.98,1.14-.99,1.81,0,.19.11,1.1-.19,1.11-.28.01-.47-.29-.66-.45-.25-.22-.61-.33-.91-.46-.61-.29-1.28-.39-1.94-.19-1.11.34-2.39,1.11-2.57,2.35-.1.7-.3,1.4-.05,2.09.09.25.33.47.3.75-.03.23-.36-.07-.41-.14-.46-.53-1.03-.96-1.71-1.17-.34-.11-.69-.09-1.04-.17-.49-.11-.72.05-1.19.17-.26.06-.49.05-.77.15-.32.12-.58.31-.85.52-.45.37-1.14,1.06-1.29,1.64-.18.69-.37,1.5-.21,2.2.08.33.25.62.27.96.02.29.37.55.5.8.26.51-.64.26-.86.21-.61-.13-1.19-.26-1.79-.07-.98.3-1.88.52-2.58,1.34-.35.41-.64.88-.84,1.37-.19.47-.46.98-.47,1.5-.02,1.05.16,2.17.78,3.04.15.21.96.82.83,1.1-.13.28-.93.32-1.18.38-1.94.45-3.43,1.91-3.88,3.85-.43,1.83.14,4.21,1.73,5.35ZM69.2,67.64c.05.19.04.39,0,.59-.36,1.64-1.83,2.32-3.37,2.19-1.65-.14-2.85-2.02-2.44-3.57.21-.77.68-1.51,1.41-1.87.38-.19.77-.24,1.16-.38.26-.09.26-.16.54-.09.21.06.44.05.66.12.73.22,1.42.75,1.77,1.42.18.34.38.77.36,1.16,0,.15-.13.28-.09.44ZM113.65,45.62c-.09-.3.22-.78.36-1.03.25-.45.58-.83.96-1.17.75-.66,1.94-1.25,2.97-.93,1.01.32,1.97.55,2.63,1.47.56.78.92,1.89.72,2.82,0,.21.1.28,0,.51-.12.28-.2.58-.31.87-.15.38-.41.4-.76.24-1.13-.52-2.19-.74-3.44-.63-.57.05-1.05.2-1.55.49-.32.19-.88.59-1.15.13-.18-.31-.35-.73-.45-1.08-.08-.28-.12-.58-.1-.87.01-.26.19-.56.11-.81ZM116.53,25.23c.05-.11.19-.11.28-.17.16-.11.16-.24.39-.29.37-.08.81-.11,1.16.06.79.4,1,1.43.61,2.18-.18.34-.56.51-.91.6-.18.05-.37.09-.56.12-.21.04-.34-.17-.5-.27-.89-.52-.9-1.36-.46-2.23ZM116.5,22.11c.14-1.46,2.17-1.3,2.09.14-.07,1.42-2.22,1.18-2.09-.14ZM117.32,28.84c1.03-.03,2.3.54,2.66,1.56.11.32.07.58,0,.9-.06.31.06.54-.08.85-.29.64-.78,1.11-1.43,1.36-1.17.45-2.98-.27-3.18-1.62-.19-1.31.5-3,2.02-3.05ZM115.46,35.89c1.15-1.24,3.2-1.21,4.36.06,1.09,1.19.95,3.09-.18,4.2-1.15,1.14-2.94,1.19-4.12.07-1.34-1.27-1.27-3.02-.06-4.33ZM114.84,54.89c.24-.33.54-.61.86-.85.35-.26.78-.29,1.13-.53.88-.01,1.75.21,2.43.79.7.6.95,1.36,1.03,2.25.15,1.56-1.43,2.9-2.9,2.97-1.44.07-2.82-1.1-3.06-2.5-.12-.7.08-1.55.5-2.12ZM173.37,53.66c1.29.31,2.56.92,2.78,2.4.23,1.55-.83,2.72-2.23,3.14-.45,0-.9-.02-1.35-.06-.35-.04-.69-.38-.95-.59-.51-.43-1.02-1.31-.95-2,.01-.13.1-.27.09-.4-.01-.16-.12-.28-.05-.44.13-.31.4-.76.63-.98.27-.25.51-.55.85-.72.37-.18.78-.24,1.18-.34ZM168.23,47.52c-.02-.65.12-1.31.61-1.77.4-.38.96-.32,1.36-.69.46.14.89.02,1.31.32.35.25.68.48.85.87.17.39.36.67.37,1.11,0,.43-.15.85-.39,1.21-.49.72-1.35,1.21-2.23,1.05-.88-.16-1.51-.98-1.92-1.7.04-.13.05-.27.05-.4ZM169.52,64.61c.85.23,1.39.87,1.86,1.56.1.14.08.31.11.47.05.22.18.38.2.61.03.48-.15,1-.25,1.47-.12.58-.92,1.18-1.41,1.4-.3.14-.54.33-.89.34-.46,0-.91.04-1.35-.11-1.54-.5-2.46-2.23-1.88-3.77.56-1.48,2.04-2.39,3.61-1.97ZM163.59,39.99c.12-.73.71-1.74,1.54-1.74.78,0,1.82.68,1.97,1.47.2,1.05-.62,2.05-1.66,2.14-.97.08-2.03-.86-1.85-1.87ZM157.62,35.6c.16-.67.71-1,1.31-1.22.78.1,1.26.75,1.44,1.45-.23.67-.85,1.46-1.65,1.3-.63-.13-1.27-.87-1.1-1.53ZM152.1,32.05c.54-.04,1.13.31,1.24.86.13.65-.47,1.19-1.1,1.15-1.1-.08-1-1.64-.14-2.01ZM152.16,38.88c-.16-.4-.36-.74-.62-1.08-.07-.09-.59-.75-.28-.78.35-.03.68.08,1,.2.3.11.64.12.93.24.32.13.63.29.95.44.39.18.88.2,1.23.46.29.21.51.35.86.43.36.08.61.32.91.51.74.46,1.48.92,2.17,1.46,1.17.94,2.22,1.95,3.21,3.08.49.56.88,1.16,1.3,1.77.42.62.96,1.21,1.3,1.88,1.47,2.93,2.49,6.16,2.7,9.45.04.6.33,1.64,0,2.18-.3.48-1.1.63-1.52,1.02-.24.22-.5.47-.69.74-.15.21-.25.51-.49.65-.3.17-.68-.13-.95-.24-.41-.18-.78-.08-1.19-.18-1.45-.35-2.92.41-3.95,1.38-.53.49-.86,1.13-1.1,1.8-.3.84-.24,1.49-.16,2.35.14,1.53,1.16,2.81,2.53,3.51.63.32,1.34.52,2.05.55.31.01.63.02.94,0,.32-.02.57-.22.9-.23.51-.02.98.29.59.79-.39.5-.99.99-1.53,1.32-1.33.81-3.18.98-4.66.57-1.33-.36-2.65-1.43-3.34-2.6-.34-.58-.68-1.38-.71-2.06,0-.13-.12-1.2-.35-1.09-.26.12-.48.54-.66.76-.23.29-.46.58-.74.83-.55.49-1.32.91-2.02,1.12-1.52.45-3.01.2-4.43-.45-1.33-.61-2.41-1.98-2.9-3.34-.21-.59-.31-1.21-.28-1.84,0-.15.02-1.02.3-.95.21.05.35.43.44.59.19.32.39.63.63.91.51.58,1.23,1.02,1.95,1.3,1.4.54,3.04.34,4.31-.46.62-.4,1.13-.94,1.53-1.56.21-.32.36-.63.43-1.01.08-.4.3-.74.33-1.16.05-.71-.15-1.42-.39-2.08-.27-.75-.68-1.22-1.19-1.82-.44-.51-1.02-.76-1.63-1.01-.41-.17-.89-.15-1.27-.37-.37-.21-.22-.76-.23-1.12-.03-.71.79-.81,1.33-.98,2.72-.88,4.1-4.25,3.26-6.89-.35-1.1-1.13-2.51-2.22-3.02-.54-.25-.3-.63.05-.92.46-.38.84-.66,1.13-1.2.64-1.19.74-2.61.25-3.85ZM143.39,49.51c-.02-.16.08-.31.07-.48-.01-.21.05-.41.12-.6.17-.51.42-1.01.76-1.43.64-.79,1.67-1.02,2.57-1.36.83-.05,1.65.25,2.38.6.82.39,1.23,1.24,1.63,1.99.16.3.05.61.19.9.17.35.02.92-.02,1.3-.26.29-.31.75-.52,1.07-.21.33-.48.64-.75.93-.23.25-.52.52-.85.61-.31.08-.43-.23-.57-.43-.42-.59-1.2-1.18-1.84-1.5-.3-.15-.62-.25-.94-.34-.25-.07-.68-.29-.93-.25-.46.08-1.33.01-1.2-.66-.03-.12-.11-.23-.12-.35ZM148.65,37.68c.33.16.67.31.97.52.62.43,1.01,1.11,1.12,1.83.11.69-.15,1.37-.56,1.91-.49.65-.98.99-1.78,1.12-1.61.27-3-.93-3.15-2.55-.06-.71.21-1.72.78-2.19.57-.46,1.06-.6,1.77-.67.32-.04.54-.11.84.03ZM142.74,32.66c.34-.96,1.16-1.83,2.28-1.61.65-.32,1.69.93,1.91,1.38.46.94.21,2-.6,2.65-1.68,1.35-4.34-.28-3.59-2.42ZM142.39,56.07c.74,0,1.54.02,2.21.39.74.42,1.28,1.3,1.31,2.13.04.87.1,1.49-.5,2.22-.48.59-1.17,1.05-1.91,1.23-.71.18-1.57-.22-2.17-.56-.7-.39-1.12-1.18-1.25-1.95-.12-.68-.08-1.58.38-2.13.42-.51,1.22-1.33,1.93-1.34ZM139.39,26.91c.5-.12.92.25,1.33.47.15.08.26.21.32.38.03.1.05.21.06.31.03.22.12.22.18.41.06.19.04.43-.11.57-.02.27-.1.56-.28.77-.3.35-.83.58-1.29.65-.93.13-1.76-.75-1.89-1.62-.14-.97.84-1.74,1.68-1.95ZM132.73,24.7c.43-.46,1.33-.57,1.79-.15.54.49.69,1.26.22,1.85-1.17,1.48-3.29-.33-2.01-1.7ZM127.12,22.74c.85.06,1.57,1.26.72,1.84-.51.35-1.19.17-1.51-.34-.34-.55.06-1.55.79-1.5ZM123.17,26.77c.79.06,1.72.05,2.49.27.8.23,1.65.25,2.46.49.36.11.71.23,1.08.31.32.07.55.25.85.35.72.25,1.44.39,2.12.75,2.85,1.48,5.62,3.32,7.41,6.05.94,1.44,1.53,2.91,1.79,4.61.26,1.69.17,3.39.02,5.09-.07.78-.1,1.64-.37,2.39-.11.29-.06.62-.19.89-.19.38-.16.71-.23,1.12-.06.34-.25.65-.33.98-.1.4-.18.8-.28,1.2-.18.77-.34,1.66-.72,2.35-.21.39-.06.9-.56,1.13-.21.09-.93.02-1.09-.14-.22-.21-.77-.04-1.05,0-.59.07-1.12.38-1.66.58-.94.34-1.5,1.19-2.02,2-.27.41-.54,1.06-.6,1.55-.06.44.12.89.05,1.3-.14.92.7,2.09,1.29,2.72.37.39.79.71,1.25.99.48.29.91.36,1.42.52.96.31,2.33-.13,3.21-.5.62-.26,1.43-1.75,1.99-.68-.38.69-.6,1.46-1.04,2.11-.44.64-1.05,1.18-1.73,1.56-1.27.71-2.84.99-4.27.66-.71-.17-1.4-.46-2.01-.86-.3-.2-.6-.42-.86-.66-.12-.11-.13-.27-.24-.38-.18-.17-.37-.3-.51-.51-.2-.29-.29-.62-.45-.93-.15-.28-.32-.52-.32-.85,0-.21,0-.39-.14-.56-.22-.27-.47.42-.54.56-1.41,2.81-4.95,4.1-7.79,2.7-1.27-.62-2.27-1.69-2.87-2.97-.16-.35-.15-.67-.3-1.01-.14-.31-.16-.65-.17-.99,0-.13-.02-.46.16-.51.3-.08.45.49.59.64.52.55.96,1.05,1.66,1.36.8.35,1.49.59,2.38.6.39,0,.7-.04,1.05-.22.31-.16.67-.13.99-.31.63-.35,1.26-.77,1.65-1.38.42-.65.75-1.2.89-1.97.15-.82.09-1.65-.13-2.45-.19-.71-.57-1.35-1.06-1.9-.24-.27-.51-.51-.81-.71-.16-.11-.33-.21-.51-.31-.12-.07-.39-.05-.48-.12-.59-.48-1.46-.25-2.15-.34-.52-.07-.71-.75-.65-1.22.06-.5,1.01-.63,1.37-.85.47-.29,1.05-.43,1.03-1.07-.03-.83-.12-1.65-.18-2.48-.05-.87,0-1.79-.16-2.64-.08-.38-.03-.7,0-1.08.02-.39-.13-.77-.15-1.16-.03-.41-.03-.83-.06-1.24-.03-.43.05-.87-.04-1.29-.22-1.15-.3-2.36-.4-3.53-.1-1.22-.36-2.39-.52-3.6-.15-1.16-.36-2.31-.54-3.47-.09-.56-.19-1.15-.31-1.7-.1-.41-.28-1.14.16-1.38.39-.04.76.12,1.15.15ZM121.74,21.9c-.11.34-.2.75-.49.99-.23.19-.63.13-.89.06-.29-.08-.33-.33-.32-.61,0-.12.02-.23.05-.35.03-.14-.08-.25-.15-.39-.1-.23-.21-.59.14-.65.42-.07,1.48-.22,1.79.11.22.23-.06.6-.13.83ZM120.96,17.63c.16.19.33.4.42.63.18.45-.45.45-.75.44-.23,0-.45-.08-.67-.08-.27,0-.54.07-.81.07-.46,0-.57-.37-.58-.75-.02-.41-.31-1.47.15-1.73.37-.2.78.25,1.04.44.42.32.87.55,1.21.97ZM113.36,8.09c-.26-.04-.31-.16-.3-.4.01-.32-.11-.62-.12-.93-.01-.74.41-.89,1.06-.81.19.03.71-.1.83,0,.18.15.62.07.85.07.89-.04.7-1.02.66-1.66-.04-.52-.17-1.33.54-1.37.34-.02,1.36-.13,1.56.19.14.23.08.76.09,1.02.01.34.02.68,0,1.03-.03.83.61.74,1.28.71.44-.02,1.33-.15,1.71.15.35.26.32,1.54.05,1.85-.22.25-.68.16-.97.18-.38.03-.7.08-1.08.02-.26-.04-.67-.15-.91.03-.22.17-.09.65-.09.87.03.77.02,1.55.01,2.32,0,.76-.12,1.56-.04,2.32.06.57-.04.9-.65.96-.46.05-1.54.3-1.51-.45.03-.73.15-1.55-.05-2.27.06-.4.01-.72-.03-1.12-.04-.43.05-.87.03-1.3-.03-.61.31-1.4-.59-1.43-.39-.01-.68.05-1.06-.03-.41-.09-.86.1-1.28.04ZM113.43,18.16c.15-.16.2-.38.33-.56.14-.18.34-.34.49-.51.36-.39.84-.62,1.33-.81.31-.12.56-.26.67.14.08.29.08.6.07.9-.01.33.06,1.01-.21,1.24-.3.25-1.01.1-1.36.09-.28,0-1.93.18-1.32-.49ZM113,20.89c.17,0,.34.06.51.05.15,0,.29-.11.45-.09.27.04.55,0,.81.1.32.12.2.42.11.67-.15.4.07.87-.14,1.25-.14.25-.51.12-.73.1-.45-.05-.68-.06-.84-.52-.07-.2-.78-1.56-.16-1.56ZM106.9,23.03c.72-.55,2.13.05,1.69,1.06-.49,1.09-1.8.72-2-.36.12-.25.07-.51.31-.69ZM100.98,24.27c.65-.03,1.37.34,1.5,1.02.15.73-.3,1.5-1.05,1.64-.71.14-1.48-.33-1.58-1.07-.11-.79.41-1.35,1.12-1.59ZM94.22,27.31c.68-.75,1.95-.48,2.5.25.58.77.53,1.88-.26,2.49-.7.54-1.8.52-2.4-.16-.73-.82-.52-1.82.16-2.58ZM93.34,41.04c-.15-.89.03-2.21.41-3.03.49-1.05.87-2.05,1.51-3.02.65-.98,1.37-1.84,2.25-2.64.41-.38.91-.66,1.31-1.04.15-.14.34-.2.51-.3.23-.14.4-.37.62-.51,1.81-1.16,3.82-2.19,5.9-2.77,1.19-.34,2.4-.46,3.61-.68.61-.11,1.21-.2,1.83-.27.55-.06,1.11,0,1.64-.17.44.11.2.87.13,1.15-.19.72-.31,1.48-.41,2.22-.2,1.65-.58,3.26-.85,4.9-.29,1.75-.29,3.52-.54,5.28-.12.77-.04,1.54-.18,2.3-.06.37.02.69,0,1.04-.02.39-.08.83-.12,1.22-.04.33-.01.67-.06.99-.04.24-.12.5-.06.74.08.31-.04.77-.05,1.11,0,.47-.1.93-.12,1.39-.01.4.04.8.02,1.21-.02.26-.08.53.16.71.41.29.95.43,1.4.66.51.26.37,1.03.17,1.47-.14.29-.31.36-.62.34-.4-.03-.83.07-1.22.16-1.43.32-2.79,1.26-3.31,2.66-.45,1.23-.67,2.42-.15,3.71.56,1.4,1.49,2.29,2.86,2.88,1.34.59,2.93.34,4.18-.38.58-.33,1.09-.78,1.46-1.34.1-.15.27-.6.52-.57.36.04.13.79.12.99-.08,1.44-1.08,2.86-2.17,3.77-1.22,1.02-2.85,1.46-4.43,1.24-.69-.1-1.33-.25-1.93-.61-.61-.37-1.23-.78-1.71-1.32-.35-.4-.63-.84-.85-1.32-.08-.17-.41-.92-.56-.42-.43,1.42-.98,2.59-2.17,3.54-1.06.85-2.42,1.27-3.77,1.22-1.41-.05-2.6-.6-3.68-1.47-.61-.49-1.03-1.07-1.35-1.78-.12-.26-.74-1.5.11-1.26.47.14.82.64,1.26.85.73.35,1.61.55,2.41.53.61-.02,1.52-.25,2.03-.59.66-.43,1.3-.82,1.73-1.5.2-.31.29-.66.44-.99.13-.31.33-.6.37-.94.05-.37.02-.77.04-1.15.02-.32-.2-.7-.25-1.02-.26-1.44-1.4-2.63-2.74-3.19-.62-.26-1.26-.38-1.93-.36-.66.02-1.13.13-1.42-.57-.29-.69-.38-1.43-.58-2.15-.22-.81-.51-1.6-.72-2.42-.09-.35-.08-.66-.19-1.01-.1-.32-.13-.62-.2-.93-.07-.31-.22-.57-.26-.9-.04-.43-.09-.84-.18-1.27-.06-.31-.23-.68-.19-1,.05-.36-.05-.62-.08-.98-.03-.37-.03-.76-.03-1.13,0-.43.15-.84.08-1.28ZM93.91,57.43c.14.3.42.51.52.84.1.35.21.82.19,1.19-.05.88-.49,1.66-1.16,2.22-1.22,1.02-3.2.71-4.18-.48-1.04-1.26-.74-3.15.47-4.16.66-.56,1.48-.81,2.35-.69.67.1,1.51.44,1.82,1.09ZM90.97,50.16c-.61.12-1.23.09-1.83.27-.52.15-.97.39-1.44.66-.45.26-.71.59-1.05.98-.2.24-.63.88-.99.82-.61-.09-1.36-1.13-1.61-1.62-.09-.19-.1-.35-.13-.55-.05-.31-.19-.6-.24-.92-.08-.55.12-1.12.29-1.63.64-1.97,3.04-3.02,4.94-2.27.92.36,2.02,1.22,2.22,2.23.04.22.18.38.24.59.06.24.02.47.03.71.02.39.01.65-.44.74ZM88.02,32.14c.63-1.06,2.19-1.44,3.19-.7.99.73,1.29,2.05.71,3.14-.61,1.13-2.18,1.25-3.15.58-.5-.34-.8-.63-.99-1.21-.19-.57-.06-1.31.24-1.81ZM84.14,39.99c.14-.76.43-1.19.96-1.7.52-.5,1.24-.67,1.95-.74,1.12.33,2.01.79,2.44,1.96.2.53.09,1.07.02,1.6-.07.51-.43.99-.81,1.32-.86.73-2.21,1-3.18.37-.93-.6-1.58-1.69-1.38-2.81ZM81.49,32.68c.34-1.05,2.26-.67,2.02.52-.29,1.45-2.46.81-2.02-.52ZM76.08,34.37c1.11.24,1.5,1.48.81,2.34-.8,1.01-2.54.11-2.37-1.09.12-.83.84-1.11,1.56-1.25ZM69.67,38.3c.91.11,1.74.97,1.61,1.92-.07.49-.36,1.02-.75,1.33-.36.3-.81.26-1.25.24-.92-.03-1.56-.93-1.55-1.8.01-.96.98-1.81,1.94-1.69ZM66.9,58.27c.13-1.53.2-3.05.59-4.53.21-.8.39-1.61.62-2.4.23-.78.59-1.51.89-2.26.27-.67.52-1.43.94-2.03.48-.68.93-1.4,1.45-2.05.46-.58.81-1.14,1.36-1.65.61-.57,1.19-1.18,1.79-1.75,1.14-1.09,2.5-2.09,3.91-2.81.67-.34,1.4-.58,2.09-.89.76-.34,1.54-.49,2.33-.73.11-.03.73-.35.8-.27.09.12-.02.41-.08.52-.15.28-.41.49-.57.76-.22.37-.38.78-.48,1.2-.36,1.49,0,2.92.93,4.11.17.22.39.44.66.53.22.07.39.23.28.47-.24.52-.93.76-1.29,1.2-.82,1.02-1.53,2.43-1.42,3.76.12,1.44.41,2.72,1.38,3.85.46.53,1.07.82,1.6,1.26.4.33,1.18.19,1.23.86.03.28.06.66.03.94-.04.32-.35.32-.6.34-.67.04-1.47.31-1.97.76-.24.22-.53.37-.76.6-.24.24-.42.55-.61.84-.43.63-.63,1.42-.78,2.17-.07.34.06.7.08,1.04,0,.28.05.56.11.83.15.62.61,1.13.95,1.66.38.59,1.02.98,1.64,1.29.33.16.62.24.98.27.42.03.86.27,1.28.16.33-.08.67.01,1.03-.09.35-.1.67-.25.99-.43.61-.32,1.19-.72,1.62-1.26.26-.32.66-1.46,1.25-1.14.63.33.22,1.58.13,2.09-.27,1.55-1.09,2.83-2.37,3.75-.31.22-.65.43-.97.64-.25.17-.69.18-.98.29-.72.26-1.64.21-2.38.09-1.43-.23-2.82-.98-3.64-2.21-.21-.33-.71-1.01-.77-.26-.05.58-.09,1.1-.29,1.66-1.05,2.88-4.45,4.77-7.45,3.72-.88-.31-1.93-.86-2.49-1.65-.28-.4.17-.83.58-.9.31-.05.61.12.91.18.34.07.69.09,1.04.09,1.34-.03,2.7-.63,3.57-1.66.42-.49.71-1,.96-1.59.26-.61.32-1.34.27-1.99-.09-1.21-.64-2.48-1.57-3.27-1.09-.93-2.45-1.28-3.86-1.19-.35.02-.68.14-1,.27-.3.12-.6.38-.94.25-.48-.18-.55-.82-.92-1.13-.48-.4-1.08-.71-1.62-1.03-.49-.29-.52-.74-.48-1.26ZM62.24,46.92c.02-1.29,1.6-2.01,2.71-1.72,1.21.32,2.01,1.47,1.68,2.71-.29,1.1-1.35,1.93-2.51,1.73-.59-.1-1.14-.44-1.52-.91-.19-.23-.33-.5-.41-.79-.1-.35.04-.65.05-1.01ZM59.49,54.47c.26-.28.62-.44.98-.56.34-.12.75-.07,1.08-.22,1.25.08,2.52,1.08,2.63,2.39.05.67,0,1.26-.38,1.84-.2.29-.45.51-.7.75-.1.1-.21.21-.34.26-.16.06-.34.03-.48.15-.41.38-1.23.1-1.69-.03-.64-.19-1.17-.54-1.43-1.16-.23-.55-.55-1.02-.46-1.64.09-.65.36-1.31.8-1.79Z"/>
  <g>
    <path class="cls-1" d="M321.26,98.94c0-4.34-.14-12.39-1.33-14.49-.49-.84-1.75-1.33-3.5-1.47l-1.75-.14c-.42-.49-.28-1.4.14-1.68,2.66.14,5.25.21,7.98.21,2.94,0,4.83-.07,7.35-.21.56.35.49,1.26.14,1.68l-1.68.14c-1.75.14-3.15.77-3.5,1.68-1.05,2.31-.98,10.36-.98,14.28v7.91c0,6.09-.98,12.53-4.9,16.73-3.01,3.29-8.19,5.11-13.37,5.11-4.83,0-9.66-.91-13.09-3.85-3.71-3.08-5.46-8.19-5.46-16.52v-16.52c0-7.28-.14-8.47-4.2-8.82l-1.75-.14c-.42-.28-.28-1.47.14-1.68,3.5.14,5.88.21,8.68.21s5.18-.07,8.61-.21c.42.21.56,1.4.14,1.68l-1.68.14c-4.06.35-4.2,1.54-4.2,8.82v15.12c0,11.27,3.5,18.69,14.21,18.69,10.15,0,14-7.98,14-18.62v-8.05Z"/>
    <path class="cls-1" d="M382.86,115.67c0,2.1,0,10.43.21,12.25-.14.42-.56.77-1.33.77-.84-1.19-2.87-3.64-8.96-10.57l-16.24-18.48c-1.89-2.17-6.65-7.91-8.12-9.45h-.14c-.28.84-.35,2.45-.35,4.55v15.26c0,3.29.14,12.39,1.26,14.49.49.77,1.82,1.19,3.57,1.33l2.17.21c.42.56.35,1.4-.14,1.75-3.15-.14-5.6-.21-8.19-.21-2.94,0-4.83.07-7.28.21-.49-.35-.56-1.33-.14-1.75l1.89-.21c1.61-.14,2.73-.63,3.08-1.4.98-2.52.91-11.06.91-14.42v-20.23c0-1.96-.07-3.43-1.54-5.04-.98-.98-2.66-1.47-4.34-1.68l-1.19-.14c-.42-.42-.42-1.47.14-1.75,2.94.21,6.65.21,7.91.21,1.12,0,2.31-.07,3.22-.21,1.4,3.57,9.73,12.81,11.97,15.4l6.79,7.63c4.76,5.46,8.26,9.31,11.55,12.67h.14c.28-.35.28-1.47.28-2.94v-14.98c0-3.29-.07-12.39-1.4-14.49-.42-.63-1.54-1.05-4.34-1.4l-1.19-.14c-.49-.42-.42-1.54.14-1.75,3.22.14,5.6.21,8.26.21,3.01,0,4.83-.07,7.21-.21.56.35.56,1.33.14,1.75l-.98.14c-2.24.35-3.64.91-3.92,1.47-1.19,2.52-1.05,11.2-1.05,14.42v16.73Z"/>
    <path class="cls-1" d="M405.54,92.01c0-7.42-.14-8.61-4.27-8.96l-1.75-.14c-.42-.28-.28-1.54.14-1.75,3.5.14,5.88.21,8.82.21s5.18-.07,8.68-.21c.42.21.56,1.47.14,1.75l-1.75.14c-4.13.35-4.27,1.54-4.27,8.96v24.92c0,7.42.14,8.4,4.27,8.89l1.75.21c.42.28.28,1.54-.14,1.75-3.5-.14-5.88-.21-8.68-.21-2.94,0-5.32.07-8.82.21-.42-.21-.56-1.33-.14-1.75l1.75-.21c4.13-.49,4.27-1.47,4.27-8.89v-24.92Z"/>
    <path class="cls-1" d="M432.63,88.78c-1.61-3.92-2.66-5.39-5.67-5.74l-1.26-.14c-.49-.42-.42-1.4.14-1.75,2.03.14,4.27.21,7.28.21s5.53-.07,8.47-.21c.49.28.63,1.33.14,1.75l-1.05.14c-2.66.35-3.22.77-3.29,1.33.14.7,1.33,4.48,3.5,9.8,3.22,8.12,6.44,16.17,9.94,24.15,2.17-4.62,5.18-11.83,6.72-15.54,2.1-4.76,5.32-12.67,6.51-15.68.56-1.47.63-2.24.63-2.73s-.7-1.05-3.15-1.33l-1.26-.14c-.49-.42-.35-1.47.14-1.75,1.96.14,4.62.21,7.28.21,2.31,0,4.48-.07,6.79-.21.49.28.49,1.4.14,1.75l-2.1.14c-1.68.14-2.73.98-3.64,2.45-1.96,3.29-4.69,8.96-7.84,16.1l-3.78,8.61c-2.8,6.44-6.09,14.56-7.28,18.27-.21.14-.49.21-.77.21-.35,0-.7-.07-1.05-.21-.77-2.94-1.96-6.37-3.22-9.31l-12.32-30.38Z"/>
    <path class="cls-1" d="M487.16,91.86c0-7.28-.14-8.33-4.27-8.82l-1.12-.14c-.42-.28-.28-1.54.14-1.75,3.01.14,5.39.21,8.26.21h13.16c4.48,0,8.61,0,9.45-.21.42,1.19.84,6.23,1.12,9.31-.28.42-1.4.56-1.75.14-1.05-3.29-1.68-5.74-5.32-6.65-1.47-.35-3.71-.42-6.79-.42h-5.04c-2.1,0-2.1.14-2.1,2.8v14c0,1.96.21,1.96,2.31,1.96h4.06c2.94,0,5.11-.14,5.95-.42.84-.28,1.33-.7,1.68-2.45l.56-2.87c.35-.42,1.54-.42,1.82.07,0,1.68-.28,4.41-.28,7.07,0,2.52.28,5.18.28,6.72-.28.49-1.47.49-1.82.07l-.63-2.73c-.28-1.26-.77-2.31-2.17-2.66-.98-.28-2.66-.35-5.39-.35h-4.06c-2.1,0-2.31.07-2.31,1.89v9.87c0,3.71.21,6.09,1.33,7.28.84.84,2.31,1.61,8.47,1.61,5.39,0,7.42-.28,8.96-1.05,1.26-.7,3.15-3.15,4.97-6.79.49-.35,1.47-.14,1.75.49-.49,2.45-2.24,7.84-3.15,9.73-6.3-.14-12.53-.21-18.76-.21h-6.3c-3.01,0-5.39.07-9.52.21-.42-.21-.56-1.33-.14-1.75l2.31-.21c3.99-.35,4.34-1.4,4.34-8.75v-25.2Z"/>
    <path class="cls-1" d="M533.85,91.93c0-6.65-.21-7.84-3.08-8.19l-2.24-.28c-.49-.35-.49-1.47.07-1.75,3.92-.35,8.75-.56,15.61-.56,4.34,0,8.47.35,11.69,2.1,3.36,1.75,5.81,4.9,5.81,9.8,0,6.65-5.25,10.29-8.75,11.69-.35.42,0,1.12.35,1.68,5.6,9.03,9.31,14.63,14.07,18.62,1.19,1.05,2.94,1.82,4.83,1.96.35.14.42.7.07.98-.63.21-1.75.35-3.08.35-5.95,0-9.52-1.75-14.49-8.82-1.82-2.59-4.69-7.42-6.86-10.57-1.05-1.54-2.17-2.24-4.97-2.24-3.15,0-3.29.07-3.29,1.54v8.82c0,7.35.14,8.19,4.2,8.75l1.47.21c.42.35.28,1.54-.14,1.75-3.15-.14-5.53-.21-8.33-.21-2.94,0-5.46.07-8.75.21-.42-.21-.56-1.26-.14-1.75l1.75-.21c4.06-.49,4.2-1.4,4.2-8.75v-25.13ZM539.59,101.95c0,1.26,0,2.03.21,2.31.21.21,1.26.35,4.83.35,2.52,0,5.18-.28,7.21-1.82,1.89-1.47,3.5-3.92,3.5-8.68,0-5.53-3.43-10.78-11.2-10.78-4.34,0-4.55.28-4.55,2.24v16.38Z"/>
    <path class="cls-1" d="M591.88,128.69c-5.88,0-9.59-1.82-10.92-2.59-.84-1.54-1.75-6.51-1.89-9.8.35-.49,1.4-.63,1.68-.21,1.05,3.57,3.92,10.43,12.04,10.43,5.88,0,8.75-3.85,8.75-8.05,0-3.08-.63-6.51-5.74-9.8l-6.65-4.34c-3.5-2.31-7.56-6.3-7.56-12.04,0-6.65,5.18-12.04,14.28-12.04,2.17,0,4.69.35,6.51.91.91.21,1.89.42,2.45.42.63,1.68,1.26,5.6,1.26,8.54-.28.42-1.4.63-1.75.21-.91-3.36-2.8-7.91-9.52-7.91s-8.33,4.55-8.33,7.77c0,4.06,3.36,6.93,5.95,8.61l5.6,3.5c4.41,2.73,8.75,6.79,8.75,13.44,0,7.7-5.81,12.95-14.91,12.95Z"/>
    <path class="cls-1" d="M625.97,92.01c0-7.42-.14-8.61-4.27-8.96l-1.75-.14c-.42-.28-.28-1.54.14-1.75,3.5.14,5.88.21,8.82.21s5.18-.07,8.68-.21c.42.21.56,1.47.14,1.75l-1.75.14c-4.13.35-4.27,1.54-4.27,8.96v24.92c0,7.42.14,8.4,4.27,8.89l1.75.21c.42.28.28,1.54-.14,1.75-3.5-.14-5.88-.21-8.68-.21-2.94,0-5.32.07-8.82.21-.42-.21-.56-1.33-.14-1.75l1.75-.21c4.13-.49,4.27-1.47,4.27-8.89v-24.92Z"/>
    <path class="cls-1" d="M672.24,117.07c0,7.35.14,8.33,4.2,8.75l2.24.21c.42.28.28,1.54-.14,1.75-3.99-.14-6.37-.21-9.17-.21s-5.25.07-9.73.21c-.42-.21-.56-1.4,0-1.75l2.52-.21c3.99-.35,4.34-1.4,4.34-8.75v-31.29c0-2.17,0-2.24-2.1-2.24h-3.85c-3.01,0-6.86.14-8.61,1.75-1.68,1.54-2.38,3.08-3.15,4.83-.56.42-1.54.07-1.82-.49,1.12-3.15,2.17-7.63,2.66-10.43.21-.14,1.12-.21,1.33,0,.42,2.24,2.73,2.17,5.95,2.17h28.35c3.78,0,4.41-.14,5.46-1.96.35-.14,1.12-.07,1.26.21-.77,2.87-1.26,8.54-1.05,10.64-.28.56-1.47.56-1.82.14-.21-1.75-.7-4.34-1.75-5.11-1.61-1.19-4.27-1.75-8.12-1.75h-4.97c-2.1,0-2.03.07-2.03,2.38v31.15Z"/>
    <path class="cls-1" d="M721.52,116.93c0,7.49.42,8.61,4.2,8.89l2.66.21c.42.42.28,1.54-.14,1.75-4.34-.14-6.72-.21-9.52-.21-2.94,0-5.46.07-9.17.21-.42-.21-.56-1.33-.14-1.75l2.17-.21c4.06-.42,4.2-1.4,4.2-8.89v-3.57c0-3.85-.21-4.76-2.24-8.68l-8.26-16.1c-2.38-4.62-3.43-4.97-5.53-5.32l-1.96-.35c-.42-.49-.35-1.47.14-1.75,2.24.14,4.76.21,8.12.21s5.74-.07,7.49-.21c.63.21.63,1.33.21,1.75l-.91.14c-2.45.42-2.94.7-2.94,1.26,0,.7,1.82,4.69,2.17,5.39,2.59,5.18,5.18,10.71,7.91,15.54,2.17-3.71,4.48-7.77,6.58-11.83,1.96-3.64,4.55-8.4,4.55-9.24,0-.42-1.26-.91-2.94-1.12l-1.26-.14c-.49-.49-.42-1.47.14-1.75,2.52.14,4.55.21,6.72.21s4.13-.07,6.51-.21c.56.35.63,1.33.14,1.75l-1.96.35c-3.64.56-5.74,5.04-9.24,11.06l-4.41,7.63c-3.15,5.25-3.29,5.95-3.29,11.34v3.64Z"/>
    <path class="cls-1" d="M282.19,176.96c0-14,10.5-24.71,24.92-24.71,16.17,0,24.29,11.69,24.29,24.01,0,14.14-10.78,24.43-24.29,24.43-15.54,0-24.92-11.13-24.92-23.73ZM324.4,178.43c0-11.55-5.11-24.01-18.48-24.01-7.28,0-16.73,4.97-16.73,20.3,0,10.36,5.04,23.8,18.83,23.8,8.4,0,16.38-6.3,16.38-20.09Z"/>
    <path class="cls-1" d="M351.21,173.11c0,1.89.21,1.89,2.31,1.89h4.76c2.87,0,5.11-.14,5.95-.42.77-.28,1.33-.63,1.75-2.45l.63-2.8c.35-.42,1.54-.42,1.82,0,0,1.68-.28,4.48-.28,7.07s.28,5.18.28,6.79c-.28.42-1.33.42-1.82,0l-.7-2.73c-.28-1.26-.91-2.24-2.24-2.66-.98-.28-2.73-.35-5.39-.35h-4.76c-2.1,0-2.31.07-2.31,1.89v9.73c0,7.35.14,8.4,4.27,8.75l2.38.21c.42.28.28,1.54-.14,1.75-4.13-.14-6.51-.21-9.31-.21-3.08,0-5.46.07-8.75.21-.42-.21-.56-1.33-.14-1.75l1.75-.21c4.06-.49,4.2-1.4,4.2-8.75v-25.2c0-7.35-.14-8.33-4.2-8.82l-1.12-.14c-.42-.28-.28-1.54.14-1.75,2.94.14,5.32.21,8.12.21h12.88c4.48,0,8.54,0,9.45-.21,0,3.22.07,6.58.21,9.24-.21.42-1.19.63-1.68.21-.56-3.15-1.4-5.67-4.9-6.65-1.54-.35-3.85-.42-6.79-.42h-4.27c-2.1,0-2.1.14-2.1,2.8v14.77Z"/>
    <path class="cls-1" d="M406.37,162.47c0-5.18-.28-6.44-3.43-6.79l-2.24-.21c-.56-.42-.49-1.47.07-1.75,3.78-.35,8.54-.56,15.05-.56,4.41,0,8.61.35,11.76,1.96,3.01,1.47,5.32,4.27,5.32,8.75,0,5.04-2.94,7.63-7.14,9.59,0,.7.56.91,1.33,1.05,3.78.7,9.38,4.2,9.38,11.69,0,8.12-6.02,13.58-18.62,13.58-2.03,0-5.46-.21-8.4-.21s-5.46.14-8.05.21c-.42-.21-.56-1.33-.14-1.75l1.26-.21c3.71-.56,3.85-1.4,3.85-8.75v-26.6ZM412.11,171.78c0,1.96.07,2.1,3.64,1.96,7.14-.28,10.99-2.38,10.99-8.96s-5.11-9.45-10.43-9.45c-1.54,0-2.59.14-3.22.42-.7.21-.98.56-.98,1.82v14.21ZM412.11,188.02c0,2.52.14,6.09,1.47,7.63,1.33,1.61,3.43,1.96,5.53,1.96,6.23,0,10.99-2.8,10.99-9.8,0-5.53-2.8-11.97-13.93-11.97-3.78,0-4.06.42-4.06,1.82v10.36Z"/>
    <path class="cls-1" d="M445.36,176.96c0-14,10.5-24.71,24.92-24.71,16.17,0,24.29,11.69,24.29,24.01,0,14.14-10.78,24.43-24.29,24.43-15.54,0-24.92-11.13-24.92-23.73ZM487.57,178.43c0-11.55-5.11-24.01-18.48-24.01-7.28,0-16.73,4.97-16.73,20.3,0,10.36,5.04,23.8,18.83,23.8,8.4,0,16.38-6.3,16.38-20.09Z"/>
    <path class="cls-1" d="M507.94,163.93c0-6.65-.21-7.84-3.08-8.19l-2.24-.28c-.49-.35-.49-1.47.07-1.75,3.92-.35,8.75-.56,15.61-.56,4.34,0,8.47.35,11.69,2.1,3.36,1.75,5.81,4.9,5.81,9.8,0,6.65-5.25,10.29-8.75,11.69-.35.42,0,1.12.35,1.68,5.6,9.03,9.31,14.63,14.07,18.62,1.19,1.05,2.94,1.82,4.83,1.96.35.14.42.7.07.98-.63.21-1.75.35-3.08.35-5.95,0-9.52-1.75-14.49-8.82-1.82-2.59-4.69-7.42-6.86-10.57-1.05-1.54-2.17-2.24-4.97-2.24-3.15,0-3.29.07-3.29,1.54v8.82c0,7.35.14,8.19,4.2,8.75l1.47.21c.42.35.28,1.54-.14,1.75-3.15-.14-5.53-.21-8.33-.21-2.94,0-5.46.07-8.75.21-.42-.21-.56-1.26-.14-1.75l1.75-.21c4.06-.49,4.2-1.4,4.2-8.75v-25.13ZM513.68,173.95c0,1.26,0,2.03.21,2.31.21.21,1.26.35,4.83.35,2.52,0,5.18-.28,7.21-1.82,1.89-1.47,3.5-3.92,3.5-8.68,0-5.53-3.43-10.78-11.2-10.78-4.34,0-4.55.28-4.55,2.24v16.38Z"/>
    <path class="cls-1" d="M567.09,181.58c-1.75,0-2.17.21-2.66,1.68l-2.45,7.35c-1.05,3.15-1.54,5.04-1.54,5.81,0,.84.35,1.26,2.03,1.4l2.31.21c.49.35.49,1.47-.14,1.75-1.82-.14-3.99-.14-7.28-.21-2.31,0-4.83.14-6.72.21-.42-.28-.56-1.4-.14-1.75l2.31-.21c1.68-.14,3.22-.91,4.2-3.43,1.26-3.22,3.22-7.77,6.16-15.61l7.14-18.9c.91-2.31,1.4-3.57,2.03-5.6-3.01-.84-4.97-3.5-4.97-6.37,0-3.5,2.87-6.65,7-6.65s7,3.15,7,6.65c0,2.8-1.89,5.39-4.83,6.3.77,2.45,1.82,5.32,2.73,8.05l9.59,28.14c2.03,6.02,2.94,7.07,5.95,7.42l1.89.21c.49.35.35,1.47,0,1.75-2.87-.14-5.32-.21-8.47-.21-3.36,0-6.02.14-8.05.21-.56-.28-.63-1.4-.14-1.75l2.03-.21c1.47-.14,2.45-.56,2.45-1.26,0-.77-.35-2.03-.91-3.71l-3.08-9.52c-.49-1.54-.77-1.75-2.87-1.75h-10.57ZM566.67,177.1c-.56,1.61-.49,1.68,1.47,1.68h8.61c2.03,0,2.17-.28,1.54-2.17l-3.78-11.41c-.56-1.68-1.19-3.57-1.61-4.41h-.14c-.21.35-.91,2.03-1.68,4.13l-4.41,12.18ZM574.37,152.24c2.17,0,3.71-1.82,3.71-4.34s-1.54-4.34-3.71-4.34-3.71,1.89-3.71,4.34,1.61,4.34,3.71,4.34Z"/>
    <path class="cls-1" d="M616.86,200.69c-5.88,0-9.59-1.82-10.92-2.59-.84-1.54-1.75-6.51-1.89-9.8.35-.49,1.4-.63,1.68-.21,1.05,3.57,3.92,10.43,12.04,10.43,5.88,0,8.75-3.85,8.75-8.05,0-3.08-.63-6.51-5.74-9.8l-6.65-4.34c-3.5-2.31-7.56-6.3-7.56-12.04,0-6.65,5.18-12.04,14.28-12.04,2.17,0,4.69.35,6.51.91.91.21,1.89.42,2.45.42.63,1.68,1.26,5.6,1.26,8.54-.28.42-1.4.63-1.75.21-.91-3.36-2.8-7.91-9.52-7.91s-8.33,4.55-8.33,7.77c0,4.06,3.36,6.93,5.95,8.61l5.6,3.5c4.41,2.73,8.75,6.79,8.75,13.44,0,7.7-5.81,12.95-14.91,12.95Z"/>
  </g>
</svg>