<?xml version="1.0" encoding="UTF-8"?>
<svg id="Layer_1" data-name="Layer 1" xmlns="http://www.w3.org/2000/svg" viewBox="0 0 740.81 245.81">
  <defs>
    <style>
      .cls-1, .cls-2 {
        fill: #231f20;
      }

      .cls-2, .cls-3 {
        fill-rule: evenodd;
      }

      .cls-4, .cls-3 {
        fill: #bf2f38;
      }
    </style>
  </defs>
  <path class="cls-2" d="M553.36,188.69c-2.1-.96-3.78-2.03-5.03-3.94-2.41-3.78-10.74-15.75-12.15-18.1-.19-.31-.23-.93.17-1.17l2.29-.64c2.71-.48,5.07-2.79,5.98-5.34,1.08-3.04.83-6.78.04-9.87-.56-2.16-2.15-4.22-4.08-5.57-.71-.49-1.35-.73-2.31-.95-1.05-.25-2.03-.44-3.41-.43-7,.01-13.12.07-20.05.01-.33,0-.74.31-.7.68.06.53.75.44,1.35.67,1.19.46,1.86,1.95,1.84,3.71l-.04,36.58c.14,2.35-1.54,3.78-2.97,3.78-.71,0-.87,1.19.33,1.12,3.71-.22,7.95-.18,11.63.23.32.04.84-.22.84-.69,0-.27-.16-.45-.63-.59-2.02-.6-2.83-.82-3.07-3.43l.09-14.3c0-.28.09-2.69.09-3,0-1.02,3.55-.57,4.99-.47,1.23.09,1.81,1.17,2.44,2.07,4.44,6.37,7.07,10.65,10.61,16.07,1.03,1.57,2.31,2.57,3.93,3.39,2.39,1.21,4.62,1.45,7.37,1.69.23.02.61-.21.71-.41.15-.31.26-.89-.23-1.11h0ZM529.24,163.42c-1.63.09-3.52-.13-5.11-.54-.44-.11-.53-.43-.52-1.05.04-7.35.13-13.63.13-14.77,0-1.01,2.01-.83,3.13-.86,3.44-.08,7.19-.39,9.35,1.03,1.36.89,2.09,2.36,2.56,3.48.7,1.68.55,4.16.43,6.01-.13,2.08-1.52,3.95-3.34,5.27-.54.39-3.75,1.28-6.63,1.44h0Z"/>
  <path class="cls-2" d="M508.34,104.34c-1.53-.39-2.75-1.28-3.42-2.62-4.38-8.79-14.38-34.23-14.38-34.23-1.69-4.02-3.69-9.16-4.3-10.6-.23-.79-.82-.15-1.13.16-4.63,10.52-18.19,39.61-20.1,43.02-1.21,2.15-2.74,3.27-3.39,3.79-.82.67-1.92.55-1.93,1.19,0,.27.31.64.6.64,1.59,0,6.95-.57,10.8-.13.42.05.66-.4.66-.76,0-.48-.9-.63-1.37-1.1-.99-.99-1.14-1.96-.81-2.93,1.48-4.32,3.4-8.15,5.15-12.16.19-.43.59-.85,1.06-.85l16.62.02c.36,0,.4.21.52.45l3.81,9.46c.48,1.79,1.33,3.62.83,5.65-.37,1.34-2.18.8-2.18,1.85,0,.29.31.46.74.45,4.42-.11,8.27-.54,12.53-.08.35.04.56-.27.56-.55,0-.36-.38-.56-.87-.69h0ZM488.69,83.92h-11.41c-.25-.08-.25-.36-.11-.53,2.33-5.18,4.78-10.33,7.02-15.56.13-.16.46-.54.58-.25.91,2.31,5.58,14.05,5.96,15.02.51,1.27-.05,1.31-2.03,1.31h0Z"/>
  <path class="cls-2" d="M597.22,104.34c-1.53-.39-2.75-1.28-3.42-2.62-4.38-8.79-14.38-34.23-14.38-34.23-1.69-4.02-3.69-9.16-4.3-10.6-.23-.79-.82-.15-1.13.16-4.63,10.52-18.19,39.61-20.1,43.02-1.21,2.15-2.74,3.27-3.39,3.79-.82.67-1.92.55-1.93,1.19,0,.27.31.64.6.64,1.59,0,6.95-.57,10.8-.13.42.05.66-.4.66-.76,0-.48-.9-.63-1.37-1.1-.99-.99-1.14-1.96-.81-2.93,1.48-4.32,3.4-8.15,5.16-12.16.19-.43.59-.85,1.06-.85l16.62.02c.36,0,.4.21.52.45l3.81,9.46c.48,1.79,1.33,3.62.83,5.65-.37,1.34-2.18.8-2.18,1.85,0,.29.31.46.74.45,4.42-.11,8.27-.54,12.53-.08.35.04.56-.27.56-.55,0-.36-.38-.56-.87-.69h0ZM577.57,83.92h-11.41c-.25-.08-.25-.36-.11-.53,2.33-5.18,4.78-10.33,7.02-15.56.13-.16.46-.54.58-.25.91,2.31,5.58,14.05,5.96,15.02.51,1.27-.05,1.31-2.03,1.31h0Z"/>
  <path class="cls-1" d="M450.94,58.75c1.1.25.97.96.97,1.8,0,2.21.03,3.79.1,6.4.01.5.11,1.21-.45,1.21-1.13,0-1.19-2.53-1.97-3.5-1.13-1.41-4.11-3.56-7.73-3.56-4.38,0-7.53,2.58-7.53,6.15,0,4.45.83,5.83,6.59,8.54,3.62,1.71,11.84,4.05,14.72,8.52,1.46,2.25,1.81,4.68,1.8,7.4-.13,3.44-1.33,6.76-3.52,9.52-4.89,6.16-17.13,5.19-23.4,4.51-.85-.09-1.91.44-2.03-.66.17-3.11.1-5.98.1-9.06,0-.87.46-1.12.78-.83.37.49.41,1.07.69,1.58,2.2,4.14,5.56,5.7,12.02,5.7,4.08,0,8.32-2.26,9.83-6.56.91-2.61.34-5.68-1.56-7.56-3.6-4.31-8.97-5.83-13.86-7.8-2.86-1.15-7.64-4.26-7.64-12.01,0-3.37,2.07-6.91,4.43-8.46,4.78-3.15,12.68-2.49,17.66-1.36h0Z"/>
  <path class="cls-1" d="M526.63,58.83c.36-.05.47.67-.02,1.01-1,.68-2.12.72-2.66,2.05-.9,2.76-.5,5.89-.64,8.73l-.06,17.57c.13,6.79-.83,9.83,3.17,12.93,1.53,1.18,9.26.85,11.28.65,4.28-.41,5.8-2.69,6.7-4.29.2-.36.35-.89.82-.89.63,0,.6.47.52,1.13-.28,2.22-.58,5.08-.79,6.75-.12.49-.66,1-1.1,1.01-8.8.36-22.2-.29-29.23.13-.34.02-.88-.08-.88-.55s.45-.79.89-1.02c.99-.54,1.78-.48,2.48-1.78.63-1.17.8-2.47.83-3.89.3-14.43.18-31.45-.36-36.21-.16-1.42-1.9-1.76-3.04-2.32-.47-.23-.23-1.07.4-1.01,1.5.14,8.93.36,11.69.01h0Z"/>
  <path class="cls-1" d="M387.73,179.03l.07-28.81c-.04-1.27-.21-1.79-.52-2.69-.54-1.54-1.3-2.66-2.85-3.48-.6-.32-.51-1.17-.08-1.14,3.52.24,6.61.1,9.82-.01.37,0,.71.12.71.36,0,.87-.98.9-1.57,1.51-.93.96-1.61,1.77-1.72,3.24-.43,6.07-.07,33.92-.07,33.92.07,2.73.02,4.8.13,7.61.03.82-.6,1.19-.85.93-1.73-1.78-3.79-3.48-5.86-5.88-7.68-7.1-24.35-23.74-32.2-30.75-.19-.17-.52.08-.52.25,0,0-.16,27.02.62,31.58.17.99,1.83,2.65,2.94,3.08.19.07.43.14.45.47.02.25-.11.42-.57.37-3.81-.39-7.57-.64-11.18-.09-.37.05-.48-.27-.48-.52,0-.99,2.38-.67,3.43-3.05.85-1.92.65-40.82.65-40.82v-4.29c0-.4.46-.43.71-.2,0,0,35.42,35.38,38.98,38.44h0Z"/>
  <path class="cls-1" d="M654.77,142.74c.21,0,.41.17.49.37v7.7c.01,1.59-1.07,1.27-1.44.14-.4-1.25-.87-2.35-1.22-2.79-1.28-1.58-2.91-2.45-4.77-2.61h-8.74c-1.13,0-1.6.47-1.62,1.48-.23,13.94-.64,34.7.27,37.73.85,2.84,2.46,3.02,3.49,3.44.63.26.95,1.1-.32,1.1-3.39,0-13.29.02-13.29.02-1.1,0-.95-.99-.19-1.19,1.25-.33,2.21-.64,2.81-1.69.56-.98.84-1.68.9-3.28.08-2.15.18-25.88.12-33.93-.02-2.61-.39-3.33-.92-3.5-1.6-.5-8.76-.56-12.17.53-1.99.72-3.1,2.61-3.1,4.64,0,.39-.27.71-.69.71-.3,0-.49-.11-.49-.58l.1-7.76c0-.4.39-.7,1.38-.7l39.41.15h0Z"/>
  <path class="cls-1" d="M501.38,143.7c0,2.09-.04,3.38.07,5.29.01.17-.18.39-.38.39-.6,0-1.25-1.93-2.53-2.63-3.48-1.9-7.6-1.24-12.04-1.22,0,0-2.49.08-2.53.59-.01.18-.23,10.71-.23,16.15,0,.15.14.33.46.33.67,0,14.09-.08,14.09-.08,1.16-.04,1.46-1.22,1.59-1.57.25-.66,1.14-.75,1.09-.04-.21,2.68-.3,5.23-.31,7.79,0,.19-.36.3-.63-.12-1.03-1.66-2.52-2.6-4.6-2.61-4.02-.01-7.57-.24-11.53.2-.26.03-.28.25-.28.58,0,4.92-.2,8.83-.1,13.78.04,1.69.48,3.33,1.82,4.43,2.67,1.76,6.33,1.26,9.37,1.12,2.45-.11,5.3.24,6.79-1.95.83-1.23.38-1.88,1.5-3.29.17-.21.7-.13.68.24-.18,3.35-.12,4.17-.21,7.88-.01.52-.55.45-.55.45,0,0-27.2.1-28.34.02-.43-.03-.71-.81-.07-1.01,1.51-.48,3.29-.57,3.28-3.68l.08-14.25c.15-7.55.75-15.5-.2-23.17-.15-1.23-.56-2.57-1.98-3.02-.44-.15-1.33-.08-1.33-.7s.25-.9,1.18-.89c8.13.09,16.33-.06,24.41-.1.76,0,1.44.22,1.44,1.07h0Z"/>
  <path class="cls-1" d="M467.18,142.74c.68,0,.87.59.4.89-.93.58-2.56.98-3.17,2.44-6.05,14.95-12.36,29.34-18.58,44.17-.08.22-.5.4-.69-.09,0,0-11.84-25.89-20.86-44.3-.74-1.5-2.38-1.35-3.56-2.01-.21-.12-.29-.38-.27-.61.01-.1.06-.46.61-.44,2.9.07,8.54.09,11.87-.11.27-.02.63.23.56.65-.18,1.21-2.56,1.24-1.55,3.61,2.75,6.45,7.03,16.89,14.34,31.23.25.48.7-.8.98-1.42,3.97-9.03,7.41-18.4,11.14-27.52.34-.82,1.27-3.93-.75-5-.45-.24-1.26-.45-1.26-.85,0-.27.08-.63.54-.63,3.65,0,6.57,0,10.26,0h0Z"/>
  <path class="cls-1" d="M415.85,142.83c.55.01.79,1.12,0,1.21-2.2.25-2.99,1.41-3.08,5.37-.11,4.84-.11,32.42-.11,32.42,0,2.25.68,4.52,1.14,5.09,1.18,1.47,2.77,1.27,2.78,1.99,0,.25-.05.69-.45.65-4.14-.55-8.4.27-12.42.16-.34,0-.45-.4-.45-.57,0-1.03,1.56-.41,2.3-1.17.7-.72,1.04-1.7,1.06-2.6.31-18.38.4-24.91.12-37.95-.06-2.61-3.2-3.14-4.13-3.62-.25-.13-.15-1.11.49-1.1,4.28.05,8.46.02,12.76.11h0Z"/>
  <path class="cls-1" d="M339.43,58.71c.52,0,.57.29.57.46,0,.28-.25.46-.56.56-2.71.88-3.33,3.71-3.45,6.19,0,7.39-.02,15.71.07,23.34-.25,4.13-.87,7.85-3.46,10.91-2,2.37-5.14,4.58-10.28,5.43-3.49.58-6.96.89-10.51.32-5.12-.81-6.87-1.84-10.1-4.99-2.94-2.87-3.47-6.24-3.77-11.13l.02-25.84c-.14-2.32-.44-3.77-2.83-4.63-.13-.07-.18-.45-.13-.57.16-.35,1.3-.17,1.95-.15,3.61.05,6.86.03,10.55.06.17,0,.4.13.4.37,0,.51-.86.49-1.33.74-3.02,1.58-2.29,4.59-2.43,7.73l.02,16.07c-.02,6.25-.85,14.71,6.15,17.63,2.45,1.02,5.33.91,7.58.91,10.06,0,13.37-6.48,13.54-10.64.29-7,.19-25.72-.14-27.3-.51-2.39-2.56-3.71-4.06-4.64-.24-.42-.1-.98.61-.93,2.2.17,9.76.25,11.58.09h0Z"/>
  <path class="cls-2" d="M371.23,58.88c-7.07-.79-14.78.1-21.96-.12-.57,0-1.42,0-1.42.55,0,.93,1.09.69,1.75.91,1.13.38,2.6,1.91,2.71,5.28.09,2.68.14,25.08.05,29.43-.07,2.96.35,8.57-3.11,9.7-.38.12-1,.41-1,.69,0,.3.1.49.37.49,2.85,0,8.15-.4,12.67.06.44.05.53-.2.51-.6-.03-.47-1.06-.58-1.71-.94-1.68-.93-1.86-3.57-1.86-5.57,0-5.47-.24-9.82-.15-14.46.02-.95.47-1.08.94-1.04,17.98,1.56,20.46-6.95,20.37-13.39-.08-5.3-2.23-10.33-8.14-10.99h0ZM367.58,79.71c-1.64.03-5.91.12-8.24.06-.75-.02-.91-.84-.93-1.25-.25-5.41-.41-11.46-.07-16.04.06-.79,1.01-.64,1.63-.68,3.62-.22,6.28-.27,9.28.18,1.22.18,2.6,1.08,3.28,2.3,1.06,1.9,1.12,4.09,1.32,6.29.48,5.24-3.14,9.08-6.28,9.14h0Z"/>
  <path class="cls-2" d="M411.23,58.88c-7.07-.79-14.78.1-21.96-.12-.57,0-1.42,0-1.42.55,0,.93,1.09.69,1.75.91,1.13.38,2.6,1.91,2.71,5.28.09,2.68.14,25.08.04,29.43-.07,2.96.35,8.57-3.11,9.7-.38.12-1,.41-1,.69,0,.3.1.49.37.49,2.85,0,8.15-.4,12.67.06.44.05.53-.2.51-.6-.03-.47-1.06-.58-1.71-.94-1.68-.93-1.86-3.57-1.86-5.57,0-5.47-.24-9.82-.15-14.46.02-.95.47-1.08.94-1.04,17.98,1.56,20.46-6.95,20.37-13.39-.08-5.3-2.23-10.33-8.14-10.99h0ZM407.59,79.71c-1.64.03-5.91.12-8.24.06-.75-.02-.91-.84-.93-1.25-.25-5.41-.41-11.46-.07-16.04.06-.79,1.01-.64,1.63-.68,3.62-.22,6.28-.27,9.28.18,1.22.18,2.6,1.08,3.28,2.3,1.06,1.9,1.12,4.09,1.32,6.29.48,5.24-3.14,9.08-6.28,9.14h0Z"/>
  <path class="cls-1" d="M338.64,143.14c.52,0,.57.29.57.46,0,.28-.25.46-.56.56-2.71.88-3.33,3.71-3.45,6.19,0,7.39-.02,15.71.07,23.34-.25,4.13-.87,7.85-3.46,10.91-2,2.37-5.14,4.58-10.28,5.43-3.49.58-6.96.89-10.51.32-5.12-.81-6.87-1.84-10.1-4.99-2.94-2.87-3.47-6.24-3.77-11.13l.02-25.84c-.14-2.32-.44-3.77-2.83-4.63-.13-.07-.18-.45-.13-.57.16-.35,1.3-.17,1.95-.15,3.61.05,6.86.03,10.55.06.17,0,.4.13.4.37,0,.51-.86.49-1.33.74-3.02,1.58-2.29,4.59-2.43,7.73l.02,16.07c-.02,6.25-.85,14.71,6.15,17.63,2.45,1.02,5.33.91,7.58.91,10.06,0,13.37-6.48,13.54-10.64.29-7,.19-25.72-.14-27.3-.51-2.39-2.56-3.71-4.06-4.64-.24-.42-.1-.98.61-.93,2.2.17,9.76.25,11.58.09h0Z"/>
  <path class="cls-1" d="M580.31,142.44c1.1.25.97.96.97,1.8,0,2.21.03,3.79.1,6.4.01.5.11,1.21-.45,1.21-1.13,0-1.19-2.53-1.97-3.5-1.13-1.41-4.11-3.56-7.73-3.56-4.38,0-7.53,2.58-7.53,6.15,0,4.45.83,5.83,6.59,8.54,3.62,1.71,11.84,4.05,14.72,8.52,1.46,2.25,1.82,4.68,1.8,7.4-.13,3.44-1.33,6.76-3.52,9.52-4.89,6.16-17.13,5.19-23.4,4.51-.85-.09-1.91.44-2.03-.66.17-3.11.1-5.98.1-9.06,0-.87.46-1.12.78-.83.37.49.41,1.07.69,1.58,2.2,4.14,5.56,5.7,12.02,5.7,4.08,0,8.32-2.26,9.83-6.56.91-2.61.34-5.68-1.56-7.56-3.6-4.31-8.97-5.83-13.86-7.8-2.86-1.15-7.64-4.26-7.64-12.01,0-3.37,2.07-6.91,4.43-8.46,4.77-3.15,12.68-2.49,17.66-1.36h0Z"/>
  <path class="cls-1" d="M606.11,142.62c.55.01.79,1.12,0,1.21-2.2.25-2.99,1.41-3.08,5.37-.11,4.84-.11,32.42-.11,32.42,0,2.25.68,4.52,1.14,5.09,1.18,1.47,2.77,1.28,2.78,1.99,0,.25-.05.69-.45.65-4.14-.55-8.4.27-12.42.16-.34,0-.45-.4-.45-.57,0-1.03,1.56-.41,2.3-1.17.7-.72,1.04-1.7,1.06-2.6.31-18.38.4-24.91.12-37.95-.06-2.61-3.2-3.14-4.13-3.62-.25-.13-.15-1.11.49-1.1,4.28.05,8.46.02,12.76.11h0Z"/>
  <path class="cls-1" d="M690.51,143.69c0,2.09-.04,3.38.07,5.29.01.17-.18.39-.38.39-.6,0-1.25-1.93-2.53-2.63-3.48-1.9-7.6-1.24-12.04-1.22,0,0-2.49.08-2.53.59-.01.18-.23,10.71-.23,16.15,0,.15.14.33.46.33.67,0,14.09-.08,14.09-.08,1.16-.04,1.46-1.22,1.59-1.57.25-.66,1.14-.75,1.09-.04-.21,2.68-.3,5.23-.31,7.79,0,.19-.36.3-.63-.12-1.03-1.66-2.52-2.6-4.6-2.61-4.02-.01-7.57-.24-11.53.2-.26.03-.28.25-.28.58,0,4.92-.2,8.83-.1,13.78.04,1.69.48,3.33,1.82,4.43,2.67,1.76,6.33,1.26,9.37,1.12,2.45-.11,5.3.24,6.79-1.95.83-1.23.38-1.88,1.5-3.29.17-.21.7-.13.68.24-.18,3.35-.12,4.17-.21,7.88-.01.52-.55.45-.55.45,0,0-27.2.1-28.34.02-.43-.03-.71-.81-.07-1.01,1.51-.48,3.29-.57,3.28-3.68l.08-14.25c.15-7.55.75-15.5-.2-23.17-.15-1.23-.56-2.57-1.98-3.02-.44-.15-1.33-.08-1.33-.7s.25-.9,1.18-.89c8.13.09,16.33-.06,24.41-.1.76,0,1.44.22,1.44,1.07h0Z"/>
  <path class="cls-1" d="M739.62,142.6c.21,0,.41.17.49.37v7.7c.01,1.59-1.07,1.27-1.44.14-.4-1.25-.87-2.35-1.22-2.79-1.28-1.58-2.91-2.45-4.77-2.61h-8.74c-1.13,0-1.6.47-1.62,1.48-.23,13.94-.64,34.7.27,37.73.85,2.84,2.46,3.02,3.49,3.44.63.26.95,1.1-.32,1.1-3.39,0-13.29.02-13.29.02-1.1,0-.95-.99-.19-1.19,1.25-.33,2.21-.64,2.81-1.69.56-.98.84-1.68.9-3.28.08-2.15.18-25.88.12-33.93-.02-2.61-.39-3.33-.92-3.5-1.6-.5-8.76-.56-12.17.53-1.99.72-3.1,2.61-3.1,4.64,0,.39-.27.71-.69.71-.3,0-.49-.11-.49-.58l.1-7.76c0-.4.39-.7,1.38-.7l39.41.15h0Z"/>
  <path class="cls-3" d="M75.19,201.22c-1.95-1.46-4.01-2.76-6.17-3.77-2.35-.33-4.87,0-6.16,2.07-1.38,1.54-1.1,3.98-.4,5.72.53,1.1-2.52,1.8-2.77,2.74-1.21,1.54,0,4.11,1.1,5.01,1.18.97,2.24,1.66,3.37,2.47,1.79,1.46,3.85,2.15,5.88,3,.28.08.84.19,1.1-.17.68-.93.06-.7-.58-1.6-.94-1.58.98-4.07,1.55-5.33,1.13-2.31,1.78-4.59,4.14-5.89,1.01-.45,2.68.36,3.16-.85-.93-1.66-2.92-2.02-4.22-3.4h0ZM66.3,213.41c-1.21.58-2.25-1.12-3.19-1.66-.05-.63.1-1.57.37-2.15.44-.36,1.57-1.55,2.15-1.29.49.67,1.49,1.39,2.25,1.75.18.89-1.18,2.62-1.58,3.34h0ZM70.16,205.75c-.27.45-.8,1.82-1.38,2-.93-.31-1.82-1.11-2.58-1.94-1.59-1.71.18-3.21.45-4.28,1.42-.98,4.17-.91,5.41.03.89,1.48-1.54,2.98-1.89,4.18h0Z"/>
  <path class="cls-3" d="M111.07,127.06c-1.09.41-.11,2.11-1.94,2.27-1.46.13-3.5-1.21-4.31-2.63.64-.8,2.59-1.14,2.54-3.62-.04-2.21-.57-3.54-3.22-4.38-1.83-.57-4.02-.2-6.05-.32-.77.12-1.98-.18-2.47.55-.28.61.68.61,1.04,1.14.45,2.68,0,7.17-.2,9.84,0,.81-1.72,1.18-.94,1.99.56.97,2.43.18,3.36.34.49.08.89.28,1.34,0,.85-.61.08-1.46.16-2.31.07-.76-.88-2.85,2.01-1.05,1.6,1,2.83,2.63,4.71,3.08,1.13.2,3.2.59,4.01-.59.69-1.14,1.23-2.16.94-3.58-.28-.45-.42-.99-.98-.74h0ZM103.2,124.84c-.43.93-1.5,1.02-2.43.93-.83-.39-.1-2.82-.45-3.46-.2-.48-.08-1.3.21-1.74.88-.34,2.21-.4,2.69.72.29.73.32,2.87-.02,3.55h0Z"/>
  <path class="cls-3" d="M102.88,54.52c-.57-.69-4.08.4-4.77.73-1.74,1.22-.77,3.45-.45,5.07l-.16,5.03c-.25,1.66-.73,3.25-1.34,4.79.81.81,2.07-.02,3.04-.35.61-.48,1.58-.43,1.78-1.24-.04-.45-.57-.32-.85-.49-.2-.32-.48-.57-.4-1.01.04-1.06.98-1.67,1.7-2.31.81-.33,3.87-2,4.77-1.35.49.37.73.8.76,1.37.24.81-2,1.95-.28,2.44,1.71.49,4.12-1.76,5.78-2.41l.08-.32c-1.46-1.34-1.2-.31-2.33-1.98,0,0-5.68-6.96-7.34-7.98h0ZM103.94,61.85c-.53.28-3.46,1.84-4.03,1.39-.48-1.22-.8-4.36-.06-5.7,1.62-.73,3.2,2.24,4.1,3.01.2.36.2.97,0,1.3h0Z"/>
  <path class="cls-3" d="M87.24,71.12c-.69-.16-1.38.04-1.83.57-.33.57-.28,1.34-.2,1.99-.2.73-.65,1.5-1.46,1.7-.73,0-2.31-.09-2.31-.09.59-1.72.66-4.33-.81-5.75-1.06-1.12-2.03-1.95-3.61-1.62-1.78-.04-3.49.61-4.38,2.23-1.38,1.33-3.31,2.36-4.69,3.66-.28.4.08.85.37,1.06,1.34-.29,2.31.61,3.28,1.3,1.26,1.58,2.76,3.81,4.05,5.39,1.14,1.01-.4,2.48.78,3.49.28.28.81.33,1.14.16l3.88-3.9c.28-.69-.2-1.61-1.06-1.25-.5-.06-1.09-.25-1.21-.9,1.87-1.1,4.51-.41,6.53-1.22,1.26-.57,2.56-1.79,2.88-3.16.2-1.34,0-2.88-1.34-3.65h0ZM77.23,76.87c-1.26,0-2.76-3.21-3.85-3.7.08-.49,1.12-1.55,1.56-1.71,1.9-1.37,3.52,1.36,3.68,2.78.16.85-.95,2.17-1.4,2.64h0Z"/>
  <path class="cls-3" d="M114.47,220.44c-.52,1.68-1.18,3.3-2.33,4.73-1.22,1.58-3,2.28-4.74,2.76-2.55.77-3.45-1.13-5.48,1.02-.2.48.08.93.45,1.22,2.15,1.02,2.84.68,5.39.73,1.62.28,3.49.2,5.19.24,1.54-.73,3.28-.85,4.75-1.63,1.54-.57,3.89-2.67,5.68-2.47l4.89,2.5c4.74,1.3,6.83.98,10.39.79,1.46-.17,2.51-1.43,3.29-2.64.08-.57.32-1.42-.2-1.87-.65-.73-1.42.08-2.23-.12-2.6-.57-5.43-.77-7.22-3.25-.54-.62-1.05-1.29-1.5-2h-3.22c1.09,1.99,2.47,3.79,3.78,5.45.25.36,1.06.57.73,1.14-.97.32-2.97-1.31-3.77-1.83-2.31-1.16-4.48-4.3-8.05-2.35-.81.44-1.31.76-2.11,1.29-.45.28-2.4,2.03-2.97,1.83l1.7-3c.22-.87.54-1.71.85-2.54h-3.27Z"/>
  <path class="cls-3" d="M103.98,209.7c.06.02.12.04.18.05,2.51.32,5.4.16,7.78.73,1.18,1.1,2.97,1.19,3.65,2.84.33.79.41,1.83.16,2.68-.47,1.46-.82,2.97-1.28,4.44h3.27c.5-1.3,1-2.6,1.17-4.03.2-1.43.62-3.11-.32-4.53-.37-.71-.99-1.45-1.7-2.17h-12.92ZM127.22,209.7c-.94,1.66-1.56,3.44-1.58,4.92.23,2.11.97,4.05,1.94,5.83h3.22c-1.46-2.31-2.3-5.03-1.3-7.73.86-1.46,2.64-1.46,4.22-1.58,2.09-.58,4.25-.99,6.4-1.43h-12.9Z"/>
  <path class="cls-3" d="M61.02,188.23s.06.08.09.12c2.59,3.37,6.25,5.15,9.16,8.03,4.31,2.84,8.84,5.15,13.39,7.38,2.63,1.3,5.43,2.11,8.27,2.96,3.68,1.84,8.14,1.75,12.03,2.99h12.92c-1.75-1.77-4.1-3.48-5.05-4.45.04-.53.36-.52.85-.73,2.03,0,7.03,3.13,8.61,1.47.49-.45.86-1.46,1.63-1.3,1.09,1.87,3.41,1.26,5.11,1.01.73-.08,2.28-.94,3.01-1.1.12.16.29.41.16.61-1.45.91-2.92,2.62-3.99,4.5h12.9c3.46-.71,6.91-1.49,9.99-3.12,4.26-1.14,8.15-3.12,12.13-4.91,3.45-2.03,6.9-4.02,10.18-6.33,2.8-1.98,5.25-4.54,7.69-7.13h-4.35c-3.31,3.36-7.41,5.24-11.14,7.78-5.39,3.08-10.91,5.88-16.75,7.95-3.37,1.79-7.3,2.19-10.88,3.53-.89.12-1.95.16-2.43-.65-.17-.41-.36-.97-.04-1.38,1.09-.89,2.92-.73,3.56-2.43.13-1.09-.78-1.36-1.67-1.81-1.62-.57-3.24.37-4.87.53-1.87.61-3.47,1.48-5.75.79-.69-.49-1.34-.98-1.87-1.62l.04-.32c1.7.32,3.37-.28,5.15-.24,3.12.2,5.84-.97,9.01-.77,5.11-.29,9.77-1.62,13.99-4.01,4.42-1.95,8.72-4.22,12.69-7.31.02-.01.04-.03.07-.04h-5.63c-3.1,1.87-6.23,3.67-9.4,5.32l-6.78,2.31-1.95.45-16.63,1.67c-2.07.41-4.06-.2-6.12-.25-2.8-.49-5.72-.65-8.48-1.22-9.54-1.32-18.83-3.33-26.9-8.26h-5.67c3.73,2.72,7.56,5.21,11.93,6.36,4.46,1.67,9.21,2.6,13.87,3.78,6,1.34,12.49,1.58,18.82,2.15l.16.2c-1.94.73-1.98,4.38-4.62,3.08-2.72-.89-4.67-2-7.35-3.05-1.26.08-3.56-.72-4.17.66-.32.77-.65,1.67-.36,2.56.2.4.69.61,1.14.45.45-.69,1.46-.2,2.11-.04.28.16.33.65.16.94-2.07,1.42-4.62.12-6.94.16-3.08-.97-6.44-1.21-9.29-2.72-1.91-.61-3.69-1.5-5.64-1.95-4.18-2.23-8.48-4.14-12.46-6.78-2.69-1.64-5.4-3.58-7.9-5.79h-5.78Z"/>
  <path class="cls-3" d="M37.88,145.27c1.06,3.83,2.35,7.57,3.77,11.27,1.82,2.92,2.44,6.37,4.14,9.33,4.76,7.62,9.44,15.21,15.24,22.36h5.78c-2.81-2.49-5.34-5.31-7.23-8.41-4.99-6.16-8.8-12.77-11.97-19.67-.77-2.39-2.31-4.54-3.13-6.94-1.12-2.57-2.01-5.24-2.79-7.94h-3.81ZM48.65,145.27l1.23,4.58c1.06,3.45,2.76,6.66,3.81,10.1,1.82,5.27,5.96,9.61,9.17,14.27,2.6,3.86,6.45,7.1,9.81,10.55,1.56,1.14,3.1,2.32,4.66,3.46h5.67c-1.09-.67-2.15-1.38-3.19-2.16-4.46-3.08-8.92-6.81-12.41-11.07-2.68-2.8-4.87-5.92-7.1-9.01-2.27-2.31-3.04-5.32-4.58-7.95-1.44-4.12-2.77-8.32-3.37-12.78h-3.7ZM67.98,145.27c1.29,2.34,2.75,4.62,3.97,7.01,2.15,3.97,5.96,7.34,8.8,10.91,2.19,2.19,4.66,4.1,6.81,6.17,6.54,5.36,14.32,7.63,21.99,10.26,4.22,1.22,8.68,1.74,13.26,2.07,4.22.08,8.11-.65,12.01-1.34,1.63.24,2.8-.69,4.22-1.01,3.28-.32,5.88-2.35,8.96-3.32,3.41-1.58,6.65-3.69,10.05-5.32,4.06-2.92,6.98-7.3,10.67-10.79,1.63-3.08,4.62-5.55,5.84-8.8.82-2.04,2.1-3.89,3.1-5.83h-3.62c-.86,1.76-2.15,3.35-3.37,4.94-1.46.32-2.48-1.22-3.41-2.19-.79-.91-1.54-1.84-2.32-2.75h-4.59c1.76,1.78,3.53,3.53,5.41,5.23,1.01,1.5,2.88,3.24,1.5,5.23-1.42,3.25-4.74,5.48-7.3,8.03-.5.45-1.18.61-1.87.45-2.24-3.73-3.94-7.75-5.92-11.6-1.06-1.62-1.58-3.53-2.48-5.23-.34-.73-.8-1.42-1.25-2.1h-3.54c.51,1.05,1.02,2.1,1.58,3.12,1.75,2.84,2.72,6,4.22,8.96,1.79,2.76,3.2,5.68,5.19,8.4.16.37.2.73,0,1.09-2.03,1.95-4.58,2.96-7.06,4.02-1.98.61-3.93,1.46-6.12,1.42-.61-.16-1.13-.61-1.17-1.3-1.3-6.73-1.41-14.03-2.59-20.85-.22-1.58-.29-3.23-.44-4.86h-8.11s.9.6.9.6c1.74,1.5,4.25,2.8,4.13,5.4.81,2.96,1.26,7.14-.73,9.69-1.17,3.04-3.45,6.53-6.69,7.82-2.92,1.79-9.13,1.95-11.8-.04-4.37-2.55-6.49-12.58-4.3-16.84.91-2.19,3.48-4.99,6.23-6.64h-7.58c-3.92,3.65-5.86,8.36-6.16,13.61l-.75,5.08c-1.58,1.79-1.8,4.22-3.42,5.88-2.4.33-4.14-1.42-6.05-2.56-1.26-1.18-1.09-3.24-.49-4.7,1.26-3.41,4.06-6.17,5.19-9.61,1.54-2.48,2.39-5.21,3.92-7.7h-3.07c-1.34,2.93-2.68,5.88-4.3,8.71-1.3,1.66-1.66,3.73-2.88,5.44-1.1,1.14-1.13,3.37-3.12,3.53-3.04-.93-5.64-3.49-7.74-6-.57-2.76,1.34-4.91,2.59-7.1,1.29-1.48,2.44-3.03,3.6-4.58h-4.01c-.86.99-1.75,1.94-2.76,2.76-1.22.61-1.95,2.35-3.53,1.82-1.23-1.29-2.28-2.88-3.04-4.58h-6.56ZM193.19,145.27c-.08.36-.15.73-.21,1.09-.98,2.55-1.74,5.19-2.84,7.66-1.38,2.64-2.07,5.56-3.9,8.03-2.11,3.08-3.93,6.29-6.57,9.09l-3.29,3.69c-3.08,2.03-5.56,5.35-8.64,7.46-1.78,1.26-3.28,2.92-5.19,3.94-1.09.67-2.19,1.34-3.29,2h5.63c2.36-1.47,4.5-3.51,6.83-5.12,4.71-5.43,11.04-9.98,14.68-16.02,3.98-5.07,6.61-10.7,8.89-16.47.92-1.7,1.55-3.51,2.1-5.36h-4.21ZM203.05,145.27c-.32.97-.66,1.94-.99,2.92-2.07,5.27-4.14,10.55-7.26,15.41-2.64,5.36-6.28,10.26-9.73,15.25-2.31,3-5.56,5.27-8.03,7.95-.41.5-.83.98-1.27,1.42h4.35c1.65-1.75,3.31-3.51,5.08-5.12,1.62-2.11,3.29-4.26,5.12-6.29,2.71-3.65,5.39-7.42,7.25-11.44,1.34-2.31,2.68-4.62,3.78-7.06,2.4-4.01,3.72-8.5,4.92-13.05h-3.21ZM107.57,167.21c1.42,3.08,4.69,4.01,7.37,5.31,2.27.36,4.22,1.46,6.53,1.79.57.2.49.81.52,1.3-.65,1.83-3.04.73-4.62.97-2.6-.81-5.39-1.02-7.83-2.19-2.19-.44-4.3-1.17-6.13-2.6-.41-.24-.16-.73-.08-1.09.52-1.54,1.09-3.08,1.91-4.5.16-.52.58-1.1.58-1.1l1.74,2.12h0ZM138.14,164.41c.33,3,.85,5.92,1.13,8.92,0,.77-.77,1.22-1.33,1.54-1.66.93-3.61,1.14-5.56,1.42-1.94.08-4.14.81-5.96-.04-.65-.81-.37-1.95.16-2.72,2.03-1.87,4.83-1.78,6.74-3.97,2.02-1.46,2.63-3.65,3.89-5.52.32-.65.94-.08.94.36h0Z"/>
  <path class="cls-3" d="M35.59,134.53c.54,3.67,1.33,7.24,2.29,10.73h3.81c-1.03-3.54-1.89-7.16-2.87-10.72h-3.23ZM46.13,134.53c.09.5.12.94.06,1.28-.37,1.42,1.5,5.16,1.66,6.49l.8,2.97h3.7c-.04-.33-.08-.66-.12-.98-.41-1.99-1.06-3.85-1.22-5.92.4-1.95,2.55-.97,3.97-1.14,1.3,0,2.36-.65,3.65-.65,2.19.28,5.47-.93,6.45,1.83.61,2.43,1.68,4.67,2.89,6.86h6.56c-.65-1.45-1.09-2.99-1.24-4.5.17-.89.21-2.11,1.26-2.35,2.48-1.06,6.07.48,8.78.03l2.19.12c.89.12,1.87.24,2.47.85-.08,1.3-1.21,2.15-1.82,3.24-.8.84-1.55,1.73-2.31,2.6h4.01c1.23-1.63,2.47-3.25,3.9-4.79,2.6-2.51,6.65-3.04,10.06-1.91.33.24.41.69.41,1.05-.2,1.42-1.3,2.47-1.7,3.85-.27.59-.54,1.19-.81,1.78h3.07c.2-.31.4-.62.62-.93,1.26-2.19,2.23-4.66,4.58-6.16,2.52-1.14,5.6-.37,7.26,1.82.77.37,1.1-.52,1.7-.61,1.26-.41,2.52-.57,3.69.08.49.61,1.1,1.01,1.91.89,1.46-.04,2.52-1.09,3.86-1.5,2.06-.28,4.62-.61,6.48.41.98,1.14.93,2.68,1.26,4.1.09.41.09.93-.2,1.26-1.06.49-.79-.62-2.56-1.24,0,0-2.88-1.24-4.01-1.72-2.07-.93-4.54-.16-6.81-.29-3.04.81-6.67,1.08-9.23,3.19-.28.23-.55.47-.81.71h7.58c1.32-.8,2.68-1.32,3.92-1.39,2.8-.16,5.52.29,7.99,1.14l.37.25h8.11c-.07-.8-.16-1.59-.29-2.36-.28-.97-.2-2.19.12-3.08,1.02-1.1,2.88-.65,3.77.41,1.11,1.59,1.96,3.31,2.8,5.03h3.54c-.82-1.26-1.62-2.53-1.67-4.1.04-.61.57-1.05,1.1-1.34,2.02-.28,4.26-.12,6.28.04l1.51.69c1.6,1.58,3.14,3.16,4.7,4.72h4.59c-1.13-1.34-2.32-2.64-3.76-3.75-.57-.77-1.54-1.46-1.46-2.47l.61-.41c4.26-.2,8.56-1.34,12.74-.2l1.5.57.33.57c.42,2.15-.01,4-.84,5.69h3.62c.43-.84.81-1.7,1.08-2.61.89-1.91,1.29-3.97,2.55-5.72,2.59-.89,5.68-.65,8.52-.89l5.07.08c.77.69.12,1.83-.04,2.68-.53,2.16-1.2,4.26-1.66,6.46h4.21c.79-2.65,1.39-5.35,2.4-7.88.44-.31.76-1.62.97-2.87H46.13ZM205.54,134.53c-.03.15-.06.28-.06.39-.35,3.64-1.32,7.01-2.42,10.34h3.21c.16-.59.31-1.19.47-1.79.7-2.93,1.16-5.94,1.65-8.94h-2.84Z"/>
  <path class="cls-3" d="M34.18,123.78c.13,3.48.08,7.02,1.3,10,.03.25.07.49.11.74h3.23c-.14-.48-.28-.98-.42-1.47-.2-.85-.57-2.07.25-2.76,1.13-.69,2.1,2,3.32.9.77-1.1,2.67-2.51,3.01-1.14.38,1.56.95,3.22,1.16,4.47h154.63c.17-1.02.26-2.01.29-2.37.03-.5,0-1.01.33-1.42.76-.37,1.53.54,2.39.67.84.12,1.77-.55,2.39-.25.46.67-.38,2.37-.62,3.38h2.84c.26-1.57.52-3.13.83-4.68.58-1.93.61-3.98.69-6.07h-4.02c.14.09.27.19.38.3l.27,1.11c.32.77-.09,1.5-.53,2.07-.69.61-1.46,1.13-2.39.93-.98-.08-1.66-1.01-2.16-1.78-.16-.44.39-2.24.67-2.61,0,0,.01-.01.02-.02h-5.15c.18,2.51.92,4.79.57,7.37-.28.69-1.09.98-1.74,1.18-1.38.41-2.76-.12-4.22.04-4.42.16-8.89.81-13.26.41-2.03.2-4.39.04-6.41.36-1.98.65-4.38.2-6.49.57-1.99-.33-3.94.16-5.97-.04-3.16-.45-6.73-.33-9.89.08-5.31-.4-10.74-.08-16.18-.24-3.04-.45-6.45.12-9.69.08-4.95-.36-9.86.33-14.69,0-7.95-.2-16.14,0-24.13-.12-3.41.08-6.45-1.05-9.98-.57-5.44-.44-11.2-.2-16.26-1.58-2.11.2-4.46.08-6.53.12-.57-.04-.73-.69-.85-1.14-.4-2.18-1.32-4.32-1.77-6.52h-5.54c.23.51.32.92.14.99l-1.37,1.82c-.61.57-2,.5-2.94.34-.65.04-.89-.73-1.21-1.18-.18-.27-.37-1.19-.47-1.97h-3.92Z"/>
  <path class="cls-3" d="M34.55,113.05c-.46,2.25-.51,4.7-.64,7.06.16,1.2.23,2.43.28,3.68h3.92c-.07-.5-.1-.94-.06-1.13.2-.32.7-1.29,1.06-1.37.82-.12,2.37-.1,3.02.23.57.15,1.42,1.36,1.83,2.26h5.54c-.33-1.62-.39-3.27.19-5,.33-.65.97-1.34,1.67-1.5,5.43.04,10.99-.29,16.51-.08,1.14-.49,2.39.12,3.61-.16,4.01-.57,7.95.25,12.04.12,3.77-.69,7.14,1.02,10.92.85,3.28-1.1,7.42-.49,10.91-.37,2.03,0,4.1-.65,6.04-.04,2.15.29,4.46.12,6.49-.32,4.06.2,8.07-.25,12.09-.37,1.13-.2,2.15.28,3.28.04,3.21-.32,6.25,0,9.37-.44,5.19.36,10.75,0,15.9.48,1.58-.33,3.36-.04,4.95-.04,7.5-.61,15.54-.57,23.16-.57,2.39-.36,4.99-.12,7.42-.4.69.08,1.37.28,1.9.73.97,1.62.85,3.73,1.01,5.72-.01.46,0,.92.03,1.36h5.15c1-.82,2.68-.69,3.73-.01h4.02c.03-.67.06-1.35.12-2.04-.12-2.93-.31-5.84-.62-8.69h-3.1c.48,3.64.79,7.84.79,7.84,0,0-1.22-.97-2.05-.89-.84.09-2.91,1.22-2.98,1.05.04-2.07-.1-4.26-.51-6.28-.24-.53-.32-1.11-.39-1.71h-8.06c-.2.08-.39.17-.56.29-1.91.17-3.94.12-5.72.41-1.99-.44-3.9.24-5.88,0l-.25-.24c-.01-.15-.02-.31-.03-.46h-2.84c-.02.18-.05.35-.08.5-.61.89-1.83.69-2.72.57-.65-.04-1.14-.45-1.75-.61l-2.67-.2c-.21-.06-.41-.15-.61-.26h-3.98c.51.32,1.01.64,1.46,1.07.25.52-.41.45-.64.57-1.87-.28-3.85-.32-5.84-.36-1.14-.4-2.23-1.01-3.53-1.01-.17-.08-.35-.17-.52-.26h-3.56c.5.35,1.02.67,1.57.9-.17.33-.69.2-1.02.33-1.62-.16-3.36-.04-4.87-.53-.53-.21-1.05-.44-1.55-.7h-6.1c0,.11,0,.21-.05.29-.64.44-1.38.61-2.19.65-.69,0-1.45.08-1.95-.44-.13-.17-.26-.33-.39-.5h-3.57c-.18.45-.5.94-1.07.9-.76-.11-1.58-.25-2.09-.91h-2.84c0,.22-.02.44-.05.66-.2.61-.85.53-1.34.65-.71,0-1.03-.71-1.28-1.3h-2.35c0,.76-.2,1.52-.83,1.95-.57,0-1.46.16-1.75-.53-.4-.42-.46-.92-.39-1.42h-2.48c-.24.82-.64,1.53-1.55,1.91-1.18.12-2.23-.04-3.29-.37-.24-.2-.2-.65-.04-.89.15-.22.31-.44.46-.66h-3.11c-.14.2-.27.41-.4.62-.85,1.34-2.56.45-3.81.73-.41,0-.29-.57-.24-.85.07-.17.14-.33.22-.49h-3.16c-.27.3-.53.6-.79.89-1.94,1.02-4.62.81-6.85.57-.36-.2-.56-.65-.32-1.01.23-.15.47-.3.7-.46h-7.12c-2.25.69-4.94.72-7.14,0h-16.32c-.51.19-1.22-.09-1.71.13-1.99.41-4.18.12-6.21.08-.93-.02-1.84-.09-2.74-.2h-7.56c-.36,1.87-.7,3.75-1.06,5.6-.69.45-1.3-.37-1.99-.61-.65-.69-1.42-1.62-2.47-1.14-.69.16-1.42.33-1.87.93-.28.08-.52-.08-.61-.36.05-1.51.21-2.98.41-4.43h-3.66Z"/>
  <path class="cls-3" d="M36.45,102.31c-.3,1.29-.49,2.62-.45,4.05-1.05,1.5-.93,3.49-1.13,5.35-.13.43-.24.88-.33,1.33h3.66c.4-2.85,1-5.62,1.46-8.47.2-.75.38-1.51.55-2.27h-3.76ZM47.74,102.31c-.48,2.27-.97,4.53-1.19,6.89-.27,1.27-.52,2.56-.76,3.85h7.56c-.98-.13-1.93-.31-2.86-.57-.57-.73-1.06-1.46-.85-2.47-.09-2.78.54-5.27,1.31-7.7h-3.2ZM67.68,102.31c-1.27,3.39-1.99,7-3.28,10.38-.1.18-.24.29-.4.35h16.32c-.07-.02-.15-.04-.22-.07-.36-.24-.12-.73,0-1.01,3.53-2.84,7.91-3.65,11.8-5.64,2.47-.61,4.47-2.39,6.9-3.16.68-.22,1.3-.51,1.9-.85h-4.84c-.94.46-1.91.86-2.9,1.18-3.61,1.38-7.18,2.84-10.63,4.58-2.76,1.14-5.27,3.21-8.48,2.76-.4-.25-.69-.65-.4-1.06,2.84-2.47,6.57-3,9.82-4.62,1.04-.42,3.76-1.56,6.84-2.84h-7.05c-2.89.79-5.57,2.27-8.7,2.39-.45-.2-1.1-.48-1.18-1.05-.06-.53.06-.95.27-1.33h-5.75ZM105.29,102.31c-.62.42-1.31.85-2.12,1.37-4.46,3.57-9.53,5.68-14.2,8.76-.47.24-.98.44-1.52.6h7.12c3.97-2.7,7.52-6.44,11.47-9.2.67-.99,1.45-1.21,1.88-1.55h-2.65ZM110.51,102.31c-.06.04-.12.1-.18.17-.94,1.18-1.76,2.42-2.45,3.72-1.72,2.4-3.98,4.61-6.02,6.86h3.16c.81-1.58,2.33-2.62,3.59-4.02.94-1.42,1.97-2.51,2.79-4.01.57-.37.89-1.01.85-1.74,0-.49-.11-.38-.43-.75-.23-.05-.42-.15-.61-.22h-.7ZM115.42,102.31c1.22.63,2.48,1.15,3.86,1.37,1.3-.08,2.68.16,3.85-.2.69.52,1.83-.25,2.27.65.16,1.3.85,2.35,1.3,3.53-.36,1.93.58,3.53.54,5.39h2.84c-.06-.09-.12-.18-.18-.28-.61-2.27-1.34-4.54-1.46-7.02-.32-.77-.81-1.5-.77-2.31.57-.44,1.1.28,1.38.69,1.3,2.96,4.41,5.19,4.26,8.72-.02.06-.04.12-.07.19h3.57c-2.46-3.23-4.14-6.77-6.3-10.12-.11-.29.06-.5.29-.61h-15.38ZM131.55,102.31c.47.3.5,1.19,1.27,1.26,1.62,1.33,3.25,3.04,4.79,4.71,1.42,1.34,2.52,2.88,3.65,4.26.05.16.12.35.13.53h6.1c-1.58-.82-3.06-1.84-4.53-2.88-3.04-2.37-5.43-5.62-8.55-7.86h-2.86ZM137.04,102.31c2.57,1.01,4.49,3.38,6.95,4.7,2.39,1.66,5.19,2.31,7.34,4.54.68.5,1.35,1.03,2.04,1.5h3.56c-3.07-1.58-5.8-3.74-8.53-6.04-2.8-.53-4.87-2.8-7.22-4.46-.14-.07-.28-.15-.42-.23h-3.72ZM144.88,102.31c.39.19.78.36,1.17.44,2.11.69,4.22,1.22,6.05,2.56,1.37.49,2.43,1.78,3.81,2.35,2.39,1.62,5.6,1.17,7.67,3.57.71.84,1.58,1.31,2.43,1.82h3.98c-1.04-.59-1.79-1.72-2.88-2.27-.89-.28-1.78-.81-2.43-1.54-1.66-.24-2.92-1.46-4.42-2.07-1.5-.89-3.12-1.5-4.66-2.23-1.36-1.24-3-1.79-4.49-2.64h-6.22ZM154.35,102.31c.22.08.44.16.66.24l1.21.16c.94,1.18,2.56.65,3.69,1.26,2.03.69,4.22.89,5.92,2.27,2.64.49,4.99,1.59,7.55,2.15,1.42,1.01,3,1.91,4.27,3.08.24.43.23,1.03.16,1.57h2.84c-.19-2.61-.45-5.22-1.87-7.33-.45-1.12-.81-2.27-1.24-3.4h-4.56c1.03.8,1.14,2.07,1.3,3.28-.2.4-.57.77-1.1.61-3.96-.76-7.38-2.79-11.2-3.89h-7.63ZM193.39,102.31c.2.48.42.95.64,1.41.52,2.6,2.15,4.75,2.27,7.51-.17,1.64-1.97,1.39-3.21,1.83h8.06c-.1-.94-.13-1.89-.55-2.68-.7-2.7-1.39-5.41-2.22-8.07h-4.99ZM204.3,102.31c.57,2.32,1.04,4.68,1.37,7.09.23.95.43,2.26.62,3.65h3.1c-.33-2.96-.79-5.85-1.45-8.67-.15-.69-.32-1.38-.51-2.06h-3.14ZM112.36,113.05c1.52-2.11,3.26-4.13,4.32-6.44.57-1.02-.49-1.63-.65-2.48-.33-.28-.73-.49-1.18-.41-.93,1.1-1.21,2.48-1.86,3.69-.95,1.97-2.5,3.75-3.74,5.62h3.11ZM119.25,113.05c.08-.55.31-1.12.39-1.62.65-1.54.57-3.41,1.06-5.03.04-.49-.37-.93-.82-1.1-.73-.08-1.46.04-1.78.73-.81,1.1-.16,2.56-.49,3.81-.5.93-.54,2.15-.84,3.19h2.48ZM124.57,113.05c-.05-.11-.1-.22-.14-.32-.53-1.91.12-3.85.41-5.68-.08-.69-.49-1.46-1.26-1.67-.56-.08-1.17.08-1.38.61-.24,1.06-.65,2.48.16,3.41.12.93-.2,1.66-.28,2.48.08.36.14.77.15,1.17h2.35Z"/>
  <path class="cls-3" d="M38.25,95.6c-.03.1-.06.2-.09.3-.41,2.19-1.2,4.24-1.71,6.42h3.76c.31-1.4.58-2.8.87-4.19l.95-2.53h-3.78ZM49.34,95.6c-.24.81-.49,1.61-.76,2.41-.24,1.46-.54,2.88-.84,4.31h3.2c.7-2.22,1.52-4.4,2.01-6.72h-3.61ZM71.17,95.6c-.94,1.45-1.58,3.04-2.55,4.48-.35.73-.66,1.47-.94,2.23h5.75c.18-.31.42-.6.66-.89,1.38-.36,2.52-1.29,3.9-1.74,4.28-.15,13.2-2.82,17.96-4.08h-10.96c-2.27.42-4.59.74-6.96.95-.65-.24-1.42-.16-2.03-.45.04-.18.09-.35.15-.49h-4.99ZM102.93,95.6c-.89.25-1.69.49-1.97.46-2.56.53-15.26,5.15-17.61,6.17-.1.03-.2.05-.3.08h7.05c4.72-1.96,10.27-4.27,11.92-4.83.47-.43,3.03-1.27,3.86-1.87h-2.94ZM108.92,95.6c.52,1.98,1.57,3.76,3.43,5.04,1.03.54,2.04,1.14,3.08,1.68h15.38c.09-.05.19-.08.28-.09.2-.02.35.01.47.09h2.86c-.08-.06-.17-.12-.25-.17-.45-.24-.81-.77-.81-1.29.04-.28.29-.49.57-.57,1.06.04,1.63,1.38,2.52,1.83.2.06.4.13.59.2h3.72c-1.86-1.04-3.54-2.54-5.54-3.33-.36-.28-.77-.77-.45-1.22.29-.74.69-1.45,1.01-2.17h-2.23c-.49,1.23-1.26,2.34-2.36,3.3-1.34,1.17-3.16,1.05-4.83,1.46-3.94.94-7.59-.32-10.51-2.6-1.1-.46-1.81-1.24-2.33-2.15h-4.61ZM144.57,95.6c.68.17,1.36.37,2,.62,3.66,1.06,7.74,1.14,11.36,2.35,2.84.45,5.4,1.54,8.23,2.06,2.16.57,4.34,1.1,6.57,1.5.09.05.17.11.25.17h4.56c-.45-1.21-.97-2.39-1.72-3.45-.33-1.16-.88-2.22-1.51-3.25h-3.58c.64,1.12,1.34,2.22,1.48,3.58-.13.37-.53.57-.9.57-1.86-.28-3.57-1.05-5.35-1.5-2.64-.41-4.96-1.62-7.71-1.62-1.46-.14-2.77-.62-4.1-1.03h-9.58ZM190.92,95.6c.82,2.25,1.54,4.53,2.47,6.71h4.99c-.72-2.3-1.54-4.55-2.58-6.71h-4.88ZM202.38,95.6c.71,2.21,1.36,4.45,1.92,6.72h3.14c-.63-2.3-1.46-4.52-2.34-6.72h-2.72ZM100.7,102.31c1.61-.92,3-2.14,4.62-2.89.83-.39-.07-1.75-.75-1.49-3.04,1.14-5.78,2.99-8.71,4.39h4.84ZM107.94,102.31c.24-.2.37-.43.31-.85-.53-.53-1.16-.74-1.42-.32-.47.42-.97.79-1.54,1.17h2.65ZM111.21,102.31c-.24-.1-.46-.16-.7,0h.7ZM151.1,102.31c-.11-.07-.23-.14-.34-.2-2.03-.41-3.94-1.1-5.72-2.11-1.66-.2-3.08-.97-4.7-1.26-.53,0-1.22-.12-1.29.53.16,1.74,1.92,1.36,3.1,1.93.96.09,1.85.67,2.74,1.11h6.22ZM161.98,102.31s-.1-.03-.15-.04c-3.04-1.05-6.17-1.95-9.25-2.92-2.64-.65-5.4-.89-7.79-2.15-.65-.24-1.5-.16-2.07.12-.32.16-.49.61-.24.89,1.41,1.26,3.53.85,5.03,1.87,2.25.81,4.57,1.46,6.84,2.24h7.63Z"/>
  <path class="cls-3" d="M40.87,88.86c-1.01,2.19-1.89,4.43-2.62,6.74h3.78s1.32-3.51,1.32-3.51c.64-1.05,1.2-2.13,1.74-3.23h-4.22ZM51.54,88.86c-.88,2.18-1.52,4.47-2.2,6.75h3.61s0-.05.01-.07c.4-2.37,1.39-4.52,2.35-6.67h-3.78ZM76.2,88.86c-.43.5-.83,1.01-1.21,1.52-1.17,1.18-2.39,2.43-2.88,3.98-.35.4-.66.82-.94,1.25h4.99c.39-.98,1.12-1.37,1.93-2.29.97-1.13,22.62-.97,23.02-2.76.73-1.14-21.19.48-19.23-1.59.03-.03.07-.07.1-.1h-5.79ZM108.53,88.86c-.05.28-.04.59.04.91-.17,1.98-.14,4,.35,5.82h4.61c-.62-1.1-.96-2.38-1.36-3.52-.09-1.15.09-2.21.42-3.22h-4.05ZM115.71,88.86c-.21.27-.44.52-.5.83-.44.61-.48,1.98-1.58,1.74-.92-.89-.3-1.73.18-2.58h1.91ZM119.05,88.86c-.32.27-.76.27-1.16.14-.05-.04-.1-.08-.15-.13h1.32ZM124.82,88.86c-.18.8-.63,1.56-.81,2.37-.24.2-.57.2-.89.2-.33-.83-.39-1.73-.58-2.58h2.28ZM130.38,88.86s0,0,0,.02c-.08.77-.37,1.58-1.06,1.99-.97-.2-.16-1.62-1.3-1.87-.89-.4-.89,1.22-1.7.29-.13-.12-.21-.26-.27-.42h4.33ZM132.2,88.86c.11.64.22,1.29.57,1.84.52.16,1.46-.04,1.5.81,0,1.46-.22,2.83-.72,4.09h2.23c.22-.51.41-1.02.49-1.57.65-.85,1.42.04,2.07.17,2.01.64,4.18.89,6.23,1.4h9.58c-.97-.29-1.96-.54-3.04-.59-1.9-.61-3.89-1.05-6.04-1.14-2.96-.77-6.44-.57-8.47-3.28-.16-.65.16-1.22.77-1.38,2.72-.11,5.35-.26,7.98-.34h-13.14ZM152.22,88.86c.98.04,1.96.1,2.96.19l3.12-.16c.34,0,.68-.01,1.03-.02h-7.11ZM163.8,88.86c.94.06,1.85.22,2.69.51.29.32.94.69.81,1.22-3.08.45-6.77.89-9.98.2-2.07.12-4.02-.08-6.16.12-1.54.45-3.45-1.14-4.5.57-.09.4.08.97.57,1.05,2.76.36,5.63.57,8.56.61,1.42-.32,2.96-.08,4.46-.08,3.53.08,7.79-1.22,10.22,2.07.08.16.17.32.26.48h3.58c-.69-1.14-1.46-2.25-2.1-3.4-1.04-1.1-2.08-2.21-3.07-3.36h-5.34ZM188.19,88.86c.25.63.48,1.27.66,1.93.83,1.55,1.48,3.17,2.08,4.82h4.88c-.1-.22-.21-.43-.31-.64-.69-2.17-1.91-4.11-2.97-6.12h-4.34ZM199.55,88.86c.94,2.08,1.75,4.19,2.68,6.27.05.15.1.31.15.46h2.72c-.9-2.24-1.86-4.46-2.73-6.73h-2.82ZM95.95,95.6c.43-.12.82-.22,1.18-.31.61-.93,8.48-.84,8.07-2.67-.12-.53-15.29,1.81-16.79,2.26-1.13.26-2.27.49-3.42.71h10.96ZM105.87,95.6c.1-.07.17-.14.21-.2-.17-.62-1.77-.21-3.16.19h2.94Z"/>
  <path class="cls-3" d="M45.28,80.84c-1.66,2.6-3.14,5.27-4.41,8.03h4.22c1.34-2.74,2.52-5.55,4.45-8.04h-4.25ZM56.43,80.84c-.57.8-1.13,1.61-1.69,2.41-1.41,1.72-2.41,3.62-3.21,5.61h3.78c.12-.27.25-.55.37-.82,1.33-2.46,2.78-4.88,4.47-7.19h-3.72ZM84.6,80.84c-.57.49-1.13.96-1.7,1.4-2.24,2.07-4.7,4.28-6.7,6.63h5.79c1.69-1.62,4.9-.99,7.29-.95l10.8.36c1.89,0,3.2.41,5.19,0,.4-.4,1.07.03,1.07-.77,0-.98-2.51-.3-3.77-.95-3.04-.12-6.03-.75-8.99-.55-2.59.21-5.03-.49-7.58-.61-.28-.16-.82-.46-.45-.85,2.3-2.37,13.05-.3,15.12-.38.25-.08.42-.49.54-.73-.06-.6-6.7-1.46-8.94-2.59h-7.65ZM100.35,80.84c1.14.53,2.24,1.05,3.23,1.4l1.66.69c1.33.85,3,.97,4.38,1.82.78,1.6-.86,2.63-1.1,4.11h4.05c.4-1.22,1.01-2.37,1.62-3.51,1.13-1.66,2.54-3.46,4.3-4.52h-5.7c-.86.96-1.67,2.22-3.05,1.69-1.04-.53-2.03-1.21-3.1-1.69h-6.3ZM129.21,80.84c.5.29.98.63,1.46.98,1.06.57,1.98,1.58,2.88,2.39.37.28.2.85.16,1.22-.61.69-2.19.77-1.87,1.99.19.46.28.95.37,1.44h13.14c2.28-.06,4.55-.08,6.87,0h7.11c1.48-.05,3.02-.12,4.47,0h5.34c-.94-1.09-1.84-2.21-2.65-3.38-1.71-1.36-2.99-3.19-4.58-4.65h-4.41c-2.01.37-4,.85-5.93,1.44l-4.12.25c-1.79-.09-3.58.08-5.25.44-2.19.12-3.94,1.3-5.96,1.78-1.22-.41-.53-2.07-1.38-2.88-.11-.37-.06-.72.09-1.03h-5.74ZM138.53,80.84c-.27.11-.53.23-.8.34-.24.12-.28.44-.16.69.37.45.93.36,1.46.45,1.06-.54,2.14-1.01,3.23-1.48h-3.74ZM184.06,80.84l1.94,2.86c.62,1.76,1.49,3.43,2.18,5.17h4.34c-.05-.11-.1-.21-.15-.3-.89-2.7-2.15-5.27-3.62-7.72h-4.69ZM195.54,80.84c.55,1.13,1.09,2.26,1.58,3.43.94,1.49,1.72,3.03,2.43,4.6h2.82c-.13-.34-.26-.69-.39-1.03-1.53-2.14-2.25-4.65-3.39-6.99h-3.05ZM113.81,88.86c.18-.32.34-.64.39-.96.49-.2,1.66-.69,1.87.21-.02.3-.18.54-.35.76h-1.91ZM117.74,88.86c-.62-.6-.65-1.67-1.63-2.05-.44.08-1.05.12-1.42-.17-.25-.2-.21-.65-.04-.89.97-.65,2.23-.69,3.45-.57l.49.57c.81.73.97,1.9.65,2.92-.05.07-.11.14-.18.19h-1.32ZM122.54,88.86c-.04-.21-.09-.4-.15-.59-.32-.86-1.26-1.7-.85-2.68.12-.2.32-.45.57-.49,1.34-.12,2.07,1.3,2.6,2.23.23.54.23,1.04.12,1.53h-2.28ZM126.06,88.86c-.15-.4-.09-.9.03-1.28.12-.81.85-1.42,1.62-1.62.77-.16,1.34.2,1.91.61.64.6.77,1.4.77,2.28h-4.33ZM150.52,84.18c1.87-.36,3.68-.81,5.55-1.22,1.58.08,3.37-.81,4.7.2,1.06.69,2.43,1.42,2.23,2.84-1.17.89-2.92,1.1-4.38.81-6.58-.2-12.86.4-19.35.49l-2.88.2c-.41-.2-.49-.61-.37-.97,1.34.08,2.15-1.02,3.41-1.13.89-.45,2.07-.2,3.08-.49l4.86-.61,3.14-.12h0Z"/>
  <path class="cls-3" d="M52.7,70.1s-.04.09-.06.13c-1.26,2.39-3.37,4.38-4.71,6.73-.92,1.28-1.81,2.57-2.65,3.89h4.25c.23-.31.46-.6.71-.88,1.86-3.33,4.74-6.04,6.77-9.29.16-.2.33-.39.5-.58h-4.81ZM64.62,70.1c-3.03,3.38-5.67,7.1-8.19,10.73h3.72c1.09-1.48,2.28-2.93,3.6-4.31,1.66-1.95,2.8-4.38,4.87-5.92.23-.16.47-.32.7-.49h-4.7ZM101.57,70.1c-4.01,1.49-7.63,3.92-11.34,6.09-1.95,1.27-3.79,3.05-5.64,4.65h7.65c-.66-.33-.94-.68-.56-1.06,1.97-1.99,5.44-.43,8.66,1.06h6.3c-.73-.34-1.5-.59-2.34-.64-2.11-1.46-4.54-2.19-6.94-3-.36-.12-.2-.53-.16-.73.65-1.01,1.62-.04,2.43-.08,1.09.69,2.48.73,3.73,1.05,1.7,1.14,3.73,1.46,5.51,2.35.36,0,.65-.28.77-.57.08-.49-.28-.85-.65-1.06-1.01,0-1.62-.93-2.6-1.01-1.1-.97-2.31-1.62-3.49-2.44-.29-.28-.37-.81-.08-1.09.41-.57,1.01-1.13,1.75-1.17,1.95-.53,2.6,1.82,4.1,2.31,2.19,1.17,2.84,3.65,4.71,5.11l-.04.41c-.19.16-.38.35-.56.55h5.7c.13-.09.27-.16.4-.23,2.55-1.14,6-1.14,8.8-.49.52.18,1.02.43,1.5.72h5.74c.11-.22.28-.44.47-.63,3.28-3.24,7.3-7.3,12.17-4.87l.65.65c.03,1.3-1.67.94-2.4,1.62-2.49.92-4.88,2.13-7.32,3.22h3.74c1.94-.81,3.91-1.6,5.81-2.61,3.32-1.18,6.89,0,9.53,2.07,0,.16.16.36.04.53-.05,0-.1.02-.16.03h4.41c-.59-.56-1.23-1.05-1.95-1.45-2.35-2.07-5.07-3.41-7.67-4.95-2.35-1.34-5.03-1.78-7.3-3.2-.89-.56-1.88-.88-2.9-1.15h-11.7s.03.06.04.09c-.21,2.15-1.1,3.97-1.83,5.92-.24.16-.28.41-.57.36-.89-2.31.73-4.06.61-6.29.02-.03.04-.06.06-.08h-2.66c.03,1.54-.3,2.96-.69,4.34-.61.77.2,2.03-.94,2.51-1.3.45-2.92.4-4.3.08l-.4-.45c-.33-1.99-.2-4.09-.29-6.04-.06-.14-.11-.29-.14-.45h-17.73ZM121.77,70.1c.09.12.17.24.22.37.04,1.17-.81,3.08.57,3.69.53-.04.94-.45,1.06-.89l.08-2.31.43-.86h-2.36ZM174.59,70.1c3.24,2.75,5.65,6.22,8.78,9.38l.24.69.45.67h4.69c-.21-.35-.42-.69-.64-1.04-1.21-1.3-1.9-2.8-2.8-4.26-1.68-1.75-2.87-3.68-4.43-5.44h-6.29ZM189.09,70.1c1.54,2.08,2.93,4.26,4.34,6.38.66,1.47,1.39,2.91,2.11,4.37h3.05c-.16-.33-.32-.65-.5-.96-.89-1.46-.85-3.36-2.14-4.7-.4-1.67-1.86-2.96-2.88-4.38-.29-.22-.56-.45-.8-.69h-3.18ZM115.35,73.63c-.2-.93-.98-2.11-.12-3,.2-.16.45-.28.65-.37.45.08.97,0,1.17.49-.45,1.98-.08,4.18.45,6.04-.24.73-1.13,1.01-1.75,1.34-1.41.25-1.7-1.5-2.84-1.99-1.26-1.26-2.11-2.8-3.61-3.81-.17-.28-.08-.69,0-1.01.48-.57,1.17-.69,1.86-.53l.61.4c1.1,1.54,1.7,3.49,3.37,4.55.36.16.93,0,1.01-.45.21-.77-.64-1.05-.81-1.66h0ZM133.97,75.87c.24.08.57.24.81.04,1.5-1.58,2.47-5.07,5.36-4.21.36.28.85.44,1.05.93.13.85-.76.77-1.26,1.09-2.07,2.27-4.54,3.86-6.73,6.04-.61.29-1.02-.28-1.47-.56-1.78-1.99-.12-4.54.37-6.57.81-.89,1.1-2.6,2.63-2.44.69-.12,1.22.16,1.82.36l-.08.49c-1.1,1.18-2.07,2.39-2.88,3.69-.16.41.04.82.36,1.14h0Z"/>
  <path class="cls-3" d="M62.43,59.36c-.28.3-.56.61-.82.93-1.58,2.11-3.33,3.81-5.27,5.6-.95,1.5-2.78,2.62-3.63,4.22h4.81c2.76-3.16,6.19-5.8,8.71-9.04.77-.51,1.52-1.1,2.24-1.71h-6.05ZM79.71,59.36c-2.59,1.49-5.14,3.1-7.88,4.26-2.67,1.87-5.04,4.09-7.2,6.49h4.7c3.07-2.17,6-4.69,9.36-6.16,1.79-1.26,3.65-2.35,5.48-3.49.74-.37,1.48-.74,2.22-1.09h-6.67ZM161.3,59.36c.3.2.59.4.89.61,4.18,1.91,7.14,6.25,10.95,9.01.5.36.98.74,1.44,1.13h6.29c-.28-.32-.57-.63-.88-.93-1.91-1.17-3.12-3.41-5.2-4.34-2.47-1.51-4.6-3.75-6.96-5.47h-6.55ZM178.55,59.36c1.53,1.51,3.03,3.09,4.69,4.46,2.29,1.82,4.15,3.99,5.84,6.27h3.18c-1.37-1.35-2.17-3.09-3.83-4.4-1.72-2.29-3.77-4.34-5.91-6.32h-3.97ZM119.3,70.1c-.04-.19-.05-.38.02-.56.29-.37.81-.33,1.18-.33.44.25.96.5,1.28.89h2.36s.58-1.17.58-1.17c.45-.24,1.17-.12,1.3.49.02.23.03.45.04.67h2.66c.18-.27.35-.64.72-.72.45-.04.8.31.98.72h11.7c-1.35-.36-2.73-.64-3.96-1.29-3.32-.81-6.78-1.42-10.3-1.83l-10.02.04c-3.45.32-6.73.97-9.98,1.78l-3.89.53c-.81.21-1.6.46-2.38.75h17.73Z"/>
  <path class="cls-3" d="M101.36,37.88c-1.56.28-3.15.5-4.63.95-2.43.49-4.59,1.7-6.86,2.6-4.22,2.27-8.88,3.41-12.81,6.37-2.76,1.75-5.23,4.22-7.99,6.05-2.2,1.84-4.65,3.41-6.64,5.51h6.05c.61-.51,1.21-1.04,1.81-1.54l7.71-6.04c2.59-1.75,5.39-3.04,7.99-4.79,2.11-1.05,4.46-1.5,6.61-2.51.81-.2,1.91-.28,2.56.24,1.83,2.48,4.5,4.75,7.75,4.02,1.91-.57,3.94-1.02,5.48-2.55.49-.49,2.22-2.01,2.91-2.17.89-.08,2.24.9,3.04,1.11,2.64-.21,3.53.23,5.92-.83,1.42-.73,2.72-1.15,3.94-2.28.77,0,2.17,1.27,2.78,1.59,1.94,1.26,6.14,1.27,8.41,1.8.12.04.12.16.12.28-.61.61-4.15-.39-4.83-.19-6.13-1.05-12.33.28-18.22,1.38-5.11,1.58-10.63,2.23-15.53,4.3-3.77,1.3-7.26,3.33-10.87,5.11-2.22.77-4.3,1.89-6.35,3.08h6.67c2.9-1.39,5.83-2.68,8.77-3.97,1.66-1.06,3.69-1.42,5.31-2.6,6.45-2.68,13.83-3.08,20.85-4.38,1.66.28,2.92-.45,4.5-.36,5.55-.2,10.71.81,15.74,1.95,1.9.69,3.77,1.5,5.68,2.19,2.76,1.54,5.72,2.76,8.56,4.22,1.94.7,3.74,1.78,5.52,2.97h6.55c-1.01-.74-2.05-1.38-3.18-1.83-3.98-2.11-8.07-3.94-11.93-6.29-2.35-1.09-4.79-1.91-7.3-2.63-.28-.2-.48-.57-.24-.85.93-.65,2.11-.73,3.05-1.38.93-1.06,2.22-1.74,2.87-2.96,3.49,1.46,6.82,3.25,10.19,5.03,4.26,1.66,8.35,3.81,12.08,6.73,1.93,1.1,3.57,2.6,5.17,4.17h3.97c-1.5-1.37-3.05-2.72-4.55-4.09-1.87-.89-3.37-2.72-5.19-3.77-2.23-.73-4.06-2.39-6.17-3.37-3.08-1.66-6.04-3.49-9.29-4.79-.97-.61-2.11-.81-3.08-1.5-2.31-1.01-4.42-2.47-6.94-3.04-1.3-.41-2.72.41-3.89-.28-.07-.21-.11-.42-.14-.63h-2.81c.25,2.22.9,4.47,1.71,6.23.52.41,1.13.89,1.82.57.29-.12.61-.12.81-.49-.16-1.18-.73-2.19-1.17-3.28,0-.33.36-.41.61-.45,1.26-.08,2.02.93,3.21,1.01.16.12.08,1.34-.16,2.11-.04.73-1.22.85-1.63,1.42-.41.53-.93.69-1.58.69-2.35-.2-3.9-2.15-5.19-4.01l-1.09-3.8h-6.63c.52.86,1.02,1.45,1.34,1.82.9,1.07,2.62,3.29.81,2.77-2.54-.74-5.27-2.88-6.8-4.6h-2.64c-1.74,1.76-4.69,3.94-6.62,4.6-1.79.61.26-2.08,1.16-3.15.28-.33.68-.79,1.08-1.44h-4.72c-.13.07-.27.13-.39.18-.64.24-1.27-.01-1.83-.17h-1c-.22.12-.42.36-.59.8-.2,2.6-2.46,5.37-5.01,6.34-1.42.21-3.25.85-4.58-.04-.97-.97-1.34-2.27-1.06-3.61.2-1.5,1.83-1.71,2.96-1.99.53-.04,1.3-.16,1.54.41.45,1.82-3.49,1.95-1.38,3.69,1.75.12,3.13-1.14,4.26-2.39.6-.86,1.02-1.98,1.24-3.21h-7.61Z"/>
  <path class="cls-3" d="M108.96,37.88c.36-2.04.15-4.35-.81-6.2.65-.4,4.15.86,4.51,1.79,0,1.18-.2,2.6.98,3.17.73.25,1.54-.73,1.87.28.06.52-.31.78-.71.97h4.72c.89-1.45,1.84-3.85,1.78-8.03-.09-6.08-4.08-7.46-5.78-7.55-1.7-.09-2.9-.14-2.27-.87.63-.72,3.48-.8,5.55-.36,2.06.45,6.51,4.34,6.51,4.34,0,0,4.44-3.9,6.51-4.34,2.06-.45,5.9-.72,6.53,0,.63.72-.47.65-2.17.74-1.7.09-6.77,1.94-6.86,8.02-.06,3.93.93,6.45,1.87,8.03h6.63s-.1-.34-.1-.34c-.8-.77-1.98-.2-2.95-.53-.77-.29-1.83-.36-2.15-1.34-.12-.61-.3-1.48.39-1.72l.61-.51c.08-.36.92-.37,1.4-.33,1.14-.08,1.38,1.74,2.63,1.38,1.42.12,1.78-2.21,2.83-2.73,2.3-1.84,2.81-1.24,4.23-1.93l.08.16v.16c-2.03,1.38-4.19,2.58-4.39,5.09-.04.85-.01,1.74.09,2.63h2.81c-.18-1.59.9-2.94,1.19-4.45,1.3-2.19,4.14-.77,5.92-2.03.61-.53.57-1.46.49-2.11-1.22-1.54-2.68-2.8-4.7-2.56-3.08.48-5.64,2.07-8.03,4.14-1.38,1.13-2.63-.49-3.98-.73-1.17-.32-1.94-1.62-2.06-2.8,0-1.3,1.37-2.11,2.3-2.84,1.95-1.66,4.71-.93,6.9-.24.8-.12,1.46-1.01,1.62-1.79.16-.98-.04-2.03-.61-2.84-.89-.53-1.83-.97-2.88-1.13-3.45-.28-7.34-.73-10.14,1.25-1.42.69-2.4,2.6-4.18,2.43-1.7-1.34-3.73-1.7-5.47-2.84l-2.8-1.17c-2.84-.53-5.48.97-6.9,3.37-.36,1.34-1.26,3.28,0,4.54.45.61,1.14.77,1.82.61,1.02-.12,1.26-1.26,1.82-1.87.41-.4,1.01-.33,1.54-.25.97.25,1.99,1.14,2.35,2.11.45,1.34-.61,2.39-1.46,3.28-.77.69-2.03.61-3.04.45-3.37-2.03-7.02-5.15-11.36-3.25-1.82.89-4.14,2.72-4.14,4.91.94,1.54,2.4-.04,3.61,0,1.98-.2,3.89.16,5.15,1.62.4,1.13-.17,2.31-1.01,3.04-1.21.57-2.54.87-3.89,1.12h7.61ZM112.58,37.88c-.37-.1-.71-.15-1,0h1ZM123.89,37.88c.82-.83,1.37-1.57,1.41-2,.04.43.5,1.17,1.23,1.99h-2.64ZM114.61,33.46c.69-1.01,1.91-2.03,3.2-1.66l.37.41c.12.73.14,2.01-.43,2.58-.73.57-2.09.38-3.06-.02-.33-.32-.2-.93-.08-1.3h0Z"/>
  <path class="cls-3" d="M235.57,115.74c-.49-2.64-.45-5.56-.77-8.2-1.18-9.45-3.16-18.54-6.7-26.97-.48-2.03-1.42-3.81-2.55-5.52-.57-1.9-1.78-3.49-2.75-5.19l-.25-.65c-4.54-6.04-7.26-12.86-12.77-18.42-5.8-5.88-11.52-12.69-18.42-17.2-4.42-3.93-9.17-6.98-14.03-9.81-2.68-1.22-5.15-2.8-7.75-4.18-2.64-1.21-5.39-2.19-8.15-3.24-4.58-1.99-10.02-1.99-14.72-3.73-3.17-.37-6.41-.45-9.53-.89-4.95-.33-9.95-.53-14.77-.41-3.69-.69-7.66-.36-11.07.69-2.27.04-4.34.69-6.58.81-3.77-.12-6.81,1.5-10.34,1.91-1.26.28-2.23,1.26-3.57,1.22-2.8,1.3-5.89,1.75-8.89,2.56-2.39.36-4.29,1.94-6.61,2.55-1.5,1.79-3.89,1.5-5.47,3.13-6.28,2.71-11.72,7.58-17.97,10.42-5.07,4.34-11.11,7.55-14.97,13.18-1.99,1.87-3.25,4.18-5.07,6.13-1.63,1.91-2.19,4.18-3.7,6.12-1.05,2.96-3.61,5.31-4.54,8.28-.89.97-.85,2.35-1.86,3.28-.89,2.31-2.23,4.42-3.25,6.65-.41,1.91-1.66,3.41-2.03,5.27-1.25,2.39-2.27,4.91-2.75,7.67-1.18,1.62-1.42,3.61-1.87,5.56-1.09,5.36-2.96,10.47-3.29,16.1-1.13,4.3-.16,8.68-.44,13.18-.81,1.38.28,2.75-.16,4.26.85,2.39.65,5.19.98,7.79l.36.57c.57,2.31.85,4.71,1.3,7.1.61,4.22,2.11,8.07,3.29,12.09,2.02,4.5,3.09,9.41,5.03,13.95,1.42,2.6,2.31,5.36,4.1,7.83,2.31,4.75,5.64,9.13,8.28,13.79,3.53,4.26,7.54,8.44,11.6,12.25,5.47,5.64,11.6,9.74,17.93,13.43,5.24,3.69,11.12,5.76,16.75,8.56,3.49,1.22,6.9,2.6,10.42,3.69,3.12.41,5.6,2.4,8.84,2.56,2.39,0,4.22,1.37,6.57,1.37,8.48.89,17.28,1.34,25.84.4,4.18-.45,8.48-.69,12.53-1.38,7.55-.81,14.57-2.88,21.34-5.6,3.57-2.23,7.55-3.61,11.43-5.07,6.21-3.28,12.62-6.24,18.22-11.03,3.16-1.99,5.92-4.74,9.01-7.09,3.15-4.18,7.26-7.87,10.58-12.09.24-.97.85-1.82,1.42-2.71,2.8-3.24,4.91-6.81,7.38-10.22,1.14-2.47,3.25-4.55,3.65-7.34,1.02-2.07,5.1-13.42,6.4-16.79,1.05-5.03,2.65-9.62,3.18-14.85.29-4.95,1.42-9.69,1.13-14.76-.24-3.65.25-7.3.05-10.99h0ZM231.08,139.02c-.41.97-.04,2.07-.32,3.08-.57,2.96-.89,6-2.11,8.72-1.83,7.1-4.09,14-6.98,20.69-1.66,3.2-3.48,6.32-5.51,9.37-2.6,4.18-5.64,8.19-8.56,12.17-1.01,1.58-2.64,2.47-3.85,3.85-1.71,3.61-5.56,5.84-8.44,8.47-3.29,3.82-7.51,5.52-11.16,8.56-4.13,3.49-9.2,4.87-13.58,7.71-2.18,1.34-4.66,1.94-6.74,3.44-1.82.49-3.36,1.58-5.23,1.95-5.06,1.66-10.58,2.27-15.97,3.12-3,.86-5.96,1.87-9.33,1.87-2.6.28-5.36.48-7.87.61-2.07.16-4.18.85-6.25.2-2.15-.73-4.63-.28-6.94-.2-4.66.16-9.33-.25-13.42-1.74-3.53-.82-6.77-2.23-10.47-2.73-4.17-1.9-8.76-2.83-12.89-4.9-5.48-2.23-10.91-4.67-15.7-8.64-2.84-2.35-6.21-3.78-8.97-6.49-3.69-2.76-7.78-5.84-10.22-9.86-1.79-1.26-2.92-3.2-3.97-4.95-.4-.89-1.58-.65-1.79-1.62-1.99-3.61-4.5-6.98-6.57-10.55-1.09-.77-1.09-2.11-1.86-3.08-2.35-4.18-4.71-8.31-6.08-12.86-1.38-2.6-1.95-5.48-3.25-8.07-.68-2.51-1.33-5.03-1.62-7.71-.12-1.17-1.1-1.99-1.46-3.08-1.14-4.95-1.3-10.1-2.03-15.21-.28-2.19-.93-4.46-.81-6.81-.32-3.12-.28-6.32.37-9.37-.04-4.5,1.95-8.32,2.47-12.66,1.18-4.5,1.99-9.17,4.18-13.26-.04-1.62,1.26-2.72,1.34-4.3,2.07-4.18,3.12-8.8,5.56-12.85,1.46-3.89,4.58-7.06,5.88-11.03,1.3-3,3.77-5.44,5.52-8.23,1.86-1.99,3.65-4.34,5.96-5.72,1.33-1.01,2.55-2.27,3.65-3.45,4.1-2.47,7.46-6.45,11.64-8.76,1.95-.77,3.36-2.84,5.35-3.45,2.8-1.95,5.8-3.29,8.76-4.79,4.38-1.66,8.19-4.7,12.9-5.51,3.49-.85,6.94-1.66,10.5-2.23,2.15-.65,4.54-.89,6.65-1.66,3.2-.36,6.41-.93,9.61-1.3,4.5-.81,9.29-.89,14.03-1.1,3.37.28,6.69.2,9.98.65l5.96,1.01c1.94-.41,3.69.28,5.51.41,5.8.61,11.19,2.27,16.27,4.66,2.92,1.62,6,2.8,9,4.3,6.24,2.19,11.72,6.33,17.04,10.83,2.15,2.23,4.54,4.26,6.9,6.12,4.66,4.54,9.13,9.08,13.46,13.75,1.54,2.19,3.17,4.34,4.5,6.61,2.44,3.41,5.04,6.89,6.73,10.67,3.69,6.49,5.72,13.67,7.63,20.89,3.6,9.33,3.57,19.99,3.77,30.46-.77,4.5-1.02,9.25-1.18,13.99h0Z"/>
  <path class="cls-4" d="M145.36,118.56c.37.73-.33.71-.2,1.48.08.57.31,1.5-.41,1.79-1.38.28-.98-1.96-2.44-1.35l-2.05.37c-.16,2.51-.07,5.91-.44,8.34.08,1.01,1.33.54,1.45,1.56,0,.53,0,1.2-.57,1.24-.65.04-1.1.25-1.58-.07-1.26.37-2.88.58-4.18-.03-.4-.32-.45-.89-.28-1.34.52-.73,1.66-.56,1.71-1.54-.04-2.55.6-5.8,0-8.2-.45-.65-1.72-.57-2.17-.41-1.01.2-.51,2.27-1.48,2.03l-.53-.69-.2-2.98.33-.28c3.77,0,7.78.24,11.44-.21.53.04,1.22-.16,1.62.29h0Z"/>
  <path class="cls-4" d="M180.8,119.09c0,1.05.2,2.27-.16,3.2-.44.32-1.05.04-1.59.04-.32-.21.25-1.17.05-1.41-.4-.69-1.1-1.26-1.87-1.22-.44.08-2.05.97-2.13,1.41.08,2.92,4.8,2.33,6.03,4.58,1.11,2.03.59,3.58-.67,4.95-1.62,1.54-4.7,1.54-6.61.61-1.14-.04-2.31,1.26-3.25.12l1.08-1.71c.69-1.05.46-1.62,1.43-2.43l.37.04c.52,1.95.95,2.85,3.05,2.91,1.4.04,2.3-.23,2.5-.92.33-.45.08-1.01,0-1.46-1.37-1.94-5.68-1.67-6.66-3.9-.44-1.58-.59-3.67.79-4.8,1.7-1.14,5.37-1.67,7.31-.57l.32.57h0Z"/>
  <path class="cls-4" d="M87.69,118.71c.52.93.32,2.31.2,3.37-.2.57-.89.53-1.42.45-.89-.28-.37-1.38-1.3-1.5-.73-.16-1.7-.24-2.27.33-.37.36-.48,1.67-.4,2.15.36.65,1.83.32,2.36.56.85.81.55.78.31,1.95-.21,1.1-1.46,0-2.39.2-.57.69-.4,3.1-.04,3.79,1.45.4,3.4-.2,4.1-.8.7-.59.87-1.51,1.61-1.74.45,0,.98.2,1.01.69-.49,1.13-.17,2.89-1.34,3.66-3.09,1.25-7.06-.06-10.46.27-.61-.2-.53-.77-.45-1.26,2.47-2.27,1.5-6.87,1.58-9.95-.08-.81-1.4-1.5-.95-2.27l.41-.24c2.15-.17,5.09.3,7.24.01.77-.04,1.58,0,2.19.32h0Z"/>
  <path class="cls-4" d="M124.9,119.22c.08.45.08.89-.17,1.26-.61.2-1.26.53-1.7,1.14.28,2.39.07,4.97.03,7.28.44.61,1.5.45,1.66,1.34.32.77.17,1.4-.4,1.77-1.14.53-3.36-.12-4.7-.04-.77.41-1.77.17-2.58-.16-.53-.45-.56-.8-.24-1.45.4-1.01,1.79-.41,2.15-1.5.85-2.03.17-5.5.46-7.73-.29-.93-1.44-.16-2.06-.93-.28-.32-.91-1.62-.42-1.62,2.39,0,4.76-.36,7.31-.08.33.08.53.45.65.73h0Z"/>
  <path class="cls-4" d="M63.87,118.92c.08.53-.25.54-.77.71-.33-.04-.61.2-.77.4.16,1.62.69,3.72,1.74,4.97.61.17,1.01-.48,1.26-.89l3.23-4.67c-1.26-.64-.58-1.38-.58-1.38,1.33-.2,3.52-.32,4.54,0,.32.16,1.55-.35,1.24.62-.27.84-1.29.64-1.85,1.43-2.48,3.51-4.81,7.9-6.8,11.15-.65-.04-1.5.16-1.7-.53l-.04-1.34-4.17-9c-.32-.37-.93-.12-1.3-.41-.53-.44-.44-.58-.32-1.23.57-.77,1.66-.53,2.47-.81,1.33.16,3.24-.49,3.81.97h0Z"/>
  <path class="cls-3" d="M164.67,129.31c-1.87-3.45-4.02-6.73-5.35-10.39-.24-.49-.69-1.05-1.26-1.05-.56.08-1.89.32-2.06.93-.6,4.02-3.03,7.26-4.98,10.71-.69.49-1.26,1.18-1.99,1.5-.28.28-.16.57.08.81,1.58-.12,4.12,0,5.83-.08.2-.08.56-.2.48-.53-.08-.36-.4-.49-.64-.69-.2-.2-.08-.5,0-.69.86-2.03,2.32-1.46,3.73-1.29.94.32,2.46-.36,2.68,1.38.06.51-.77.12-1.1.28-.41.2-.74.61-.62,1.14,0,.53.49.51.98.55,1.79-.24,3.34-.22,5.41-.29.84-.03-.78-1.68-1.18-2.28h0ZM159.26,126.66c-.59.48-2.78.41-3.6.37-1.03-.24,1-2.75.7-3.43.19-.63.08-1.73.87-1.88.68,0,.58,1.15.78,1.88.3.68,1.4,2.37,1.25,3.06h0Z"/>
  <path class="cls-3" d="M165.95,64.78c-.28-.85-.64-.78-1.86-.82-1.71.49-3.25,1.38-4.39,2.96-1.94,1.42-3.85,3.08-6.04,3.94-.73.52-1.54.2-2.31.57-.08.24,0,.49.12.65.78.36,1.47.94,2.31,1.14.94.36,1.34,1.99,2.56,1.09-.04-.57-.61-1.22-.13-1.74,2.12-.65,2.98.4,4.53,1.62.32.37.41.69.08,1.17-.69.16-1.46.46-2.07-.02-.16,0-.33.2-.33.4.04,1.14,2.04,2.38,2.69,3.03.53,1.01,2.18,2.01,3.27,2.21.33-.12.61-.49.57-.85-.73-2.03-1.34-.39-.41-2.38.32-.61,1.1-9.54,1.47-10.11-.2-1.7-.08-2.85-.08-2.85h0ZM161.79,71.58c-.11.69-2.7-.86-3.19-1.47-.25-.24,1.74-1.63,1.82-1.87.93-.65,1.08-1.12,2.09-1.61l.16.16c-.08,1.09-.63,3.23-.88,4.78h0Z"/>
  <path class="cls-4" d="M132.18,51.89c-.08,1.34-.28,2.72-.49,4.06-.08.28-.37.49-.65.45-.66-.07-1.58-.08-1.4-2.93-1.28-1.43-3.05-.68-3.1.82-.15,4.36-.81,4.99-.37,7.95.64.77.64,1.86,1.62,2.43.2.41-.12.85-.52.93-1.14.2-2.03-.49-3.13-.53-1.38-.12-2.8.28-4.06-.16-.4-.2-.24-.69-.08-.97,2.84-1.87,2.23-5.56,2.47-8.64-.04-.49-.3-.98-.77-1.18-2.38-1-1.91.77-3,1.01-.24.25-.77.25-1.01,0-.81-.57-.29-1.58-.29-2.35.2-.61.12-1.54.89-1.62,3.09-.37,6.37.28,9.41-.2,1.54.25,3.57-.45,4.46.93h0Z"/>
  <path class="cls-4" d="M148.28,55.56c.73.25,1.45.65,1.94,1.26-.16,1.58-2.23.64-2.84,1.86-.93,2.96-4.35,6.36-1.88,9.61.08.32-.08.65-.41.73-1.26.04-3.14-1.62-4.19-2.19-1.1-.24-2.39-.2-3.09-1.21.12-1.22,1.7-.89,2.48-1.58,1.83-.77,1.97-3.16,2.61-4.7.21-1.13,1.06-2.19.81-3.41-.53-.65-1.82-.97-1.25-2.07.53-.93,1.58-.08,2.35-.16.65.85,2.7,1.38,3.47,1.86h0Z"/>
  <path class="cls-4" d="M182.51,81.5c1.5,1.42,2.19,3.29,3.16,4.99.16.69.77,1.42.24,2.15-.53.73-1.38.85-2.23.85-.41-.21-.3-.73-.2-1.05.66-2.23-.28-3.49-2.07-3.61-.33,1.18-2.24.64-1.72,2.06.41.57,1.15,1.31.95,2.08.08.85-.77,1.26-1.38,1.58l-.53-.04c-.64-.89-1.54-1.62-1.74-2.64-.16-.2-.49-.36-.73-.16-.36.73-1.71,1.18-1.3,2.23.97.93.89,2.35,2.11,3.12.57.16,1.02-.24,1.62-.24.85.36,2.19-.16,2.76.65.12.89-.93.81-1.46,1.09-1.34.49-2.92,1.18-4.34.53-1.5-1.34-1.54-3.25-2.96-4.58l-.08-.49c-1.05-1.05-1.95-2.19-3.24-2.72-.36-.21-.29-.73-.16-1.01.64-1.46,1.78.04,2.79-.29,2.11-1.09,4.3-1.87,6.21-3.41.81-.12,1.37-.89,1.82-1.5-.12-.73-.39-1.46-.15-2.19.33-.2.77-.48,1.09-.16.85.77.97,1.87,1.55,2.76h0Z"/>
  <path class="cls-4" d="M62.44,85.71c.24,1.25-1.23,2.05-2.04,2.9-.61,1.17-.85,3.36-.12,4.62.69,1.09,1.59,2.52,2.97,2.64l2.72-.28c.28-.69,1.01-1.1.93-1.99-.19-2.21-2.23.28-2.76-.81-.08-1.25.59-3.06,1.48-3.87,1.33-.24,2.57.63,3.67,1.44.49.2,1.3.12,1.42.85v.77c-.41,1.7-.57,3.65-1.42,5.23-1.13,1.42-2.28,1.89-4.14,2.64-1.08.44-2.43.75-3.45.35-1.5-1.42-4.05-2.15-4.46-4.46-1.78-3.12-.11-7.83,1.71-10.39.97-.53,2.92-1.3,3.49.37h0Z"/>
  <path class="cls-3" d="M86.83,171.67c-.2-.45-.69-1.01-1.26-.93-2.56,1.1-4.83,2.8-7.55,3.57-1.1.57-2.15,1.3-3.45,1.5-1.1.36-2.03-.2-3.09-.25-.28.12-.4.41-.45.69,1.74,1.3,3.2,3.24,4.7,4.78.69-.61.25-1.73.9-2.39.77-.32,1.58.16,2.35.37,1.38.77,3,2.19,2.96,3.93-.12.37-1.09.19-1.42.27-.08.41-.72.37-.23.85l2.59,1.51c1.1.69,1.74,2.15,2.96,2.48.49-.08.37-.74.33-1.14-2.72-5.15,1.46-9.94.65-15.25h0ZM82.14,179.13c-.82.16-2-1.34-2.53-1.99-.25-.24-.33-.61-.2-.98.98-.61,2.94-2.49,4.08-2.57l.17.21c-.08,1.34-1.24,4.03-1.52,5.33h0Z"/>
  <path class="cls-3" d="M172.83,175.2c-2.09-.54-.93.42-3.01-.16-1.52-.42-6.28-2.37-7.78-2.84-.93-.37-2.07-1.3-3.08-.45-.52,1.58.5,2.83.33,4.5.66,2.31,1.76,6.44.97,7.25-.98,1.01-1.58,1.89-.81,2.86.74.24,1.01-.41,1.54-.74,1.17-.93,2.67-1.5,3.57-2.8-.16-.77-1.17-.25-1.54-.85-.4-1.14,1.3-1.58,1.86-2.35.93-.45,1.42-1.71,2.56-1.71,1.26.4-.08,1.34.04,2.11.08.12.25.36.45.32,1.91-.89,3.36-2.96,5.11-4.18.08-.33.08-.73-.2-.97h0ZM162.18,179.31c-.77-.77-1.28-3.64-1.15-4.7.2-.32,1.05.46,1.29.58l2.55,1.14c.17.12.67.26.71.42-.81.97-2.14,2.93-3.4,2.56h0Z"/>
  <path class="cls-4" d="M71.46,154.43l.08.73c-.81,2.27-2.01,6.69-2.17,9.21.2.36,1.5-1.02,1.78-1.18,1.42-.57,2.36-2.14,3.82-2.55.85.28,1.03.69,1.56,1.42.45.93,1.62,1.79,1.22,2.92-.97.85-1.34-.93-2.35-.61-1.99.41-3.57,1.75-5.31,2.8-.97,1.3-2.43,1.7-3.57,2.76-.53-.24-1.54.08-1.58-.77.16-3.04,1.89-6.34,1.61-9.5-.33-.44-3.39,2.26-3.76,2.46-1.58,1.1-.81,1-1.3,2.87-.44.16-.89-.32-1.21-.61-.41-.85-.57-1.82-1.06-2.63-.45-.45-1.05-.85-.85-1.58,2.07.2,2.27.14,4.05-.54,1.34-.97,6.5-4.55,6.55-5.12.08-.49-.66-.87-.37-1.36.36-.48,1.05-.36,1.5-.12.61.28,1.14.81,1.38,1.42h0Z"/>
  <path class="cls-4" d="M178,156.01c.36.33.77.77.44,1.22-1.49.53-3.2.53-4.54,1.54-.53.49-1.38.97-1.47,1.74.48.93,1.69,2,2.63,1.92,1.26-.52-.45-2.39,1.34-2.39,1.3.04,1.74.22,2.38,1.23.09.2.29.52.09.77-.53.45-1.54-.04-1.79.89-.04.44.06,1.43.55,1.76.45.65,1.26.81,1.98.65.94-.24,1.3-1.26,1.83-1.91.65-1.34-.85-2.19-1.58-3.13-.04-.52.29-1.01.77-1.22,1.79.37,2.86,1.68,4.48,2.37.12.53-.16,1.02-.41,1.42-2.47,2.96-4.09,5.65-7.01,8.29-.32.2-.63.67-.99.47-.77-.73.98-2.01.5-2.67-1.05-1.43-3.87-4.33-6.15-5.23-1.3-.36-1.52.2-2.29,1.13-.45.37-.99.52-1.48.32-.53-.24-.51-.75-.35-1.2.49-1.3,2.07-2.15,2.77-3.33,1.29-2.27,2.83-3.62,4.42-5.82,1.49-.97,2.53.79,3.88,1.16h0Z"/>
  <path class="cls-4" d="M97.83,177.91c3.36,1.13,6.65,2.39,10.1,3.37.49.2.97.56,1.26.97.2,1.22-.77,2.07-1.05,3.16-.32.28-.77.24-1.1,0-.89-.93-.73-3.2-2.64-2.76-1.34.37-1.45,2.29-2.06,3.3-.4,1.63-1.62,3-1.58,4.74.41.98,1.05,1.36,1.79,2.09.16.33-.12.69-.45.81-1.01.08-1.66-.73-2.6-.89-1.66-.61-3.65-.53-5.15-1.54-.2-.2,0-.45,0-.65.69-.32,1.46-.4,2.15-.77,1.54-1.83,1.66-4.22,2.76-6.25.2-.77,1.01-1.38.77-2.23-.57-.49-1.22-.69-1.94-.81-1.01.65-1.58,1.79-2.52,2.43-.32-.08-.77-.12-.89-.52-.08-1.79.61-3.25,1.42-4.67.61-.16,1.22.04,1.75.2h0Z"/>
  <path class="cls-4" d="M125.34,183.57c-.13.47.16.87.53,1.12.39.24,1.07.31,1.01.92.19,2.88.2,5.47-1.47,7.77-.78.86-1.91,1.03-2.97.63-2.65-1.58-.8-4.31-1.4-6.82.1-.93-.43-2.17.46-2.85.27-.21.72-.25.8-.65-.1-.22-.11-.54-.42-.65-1.52-.24-3.47.42-5.02-.03-.36-.08-.79.12-.91.52-.29.42.12.79.47.9.62-.02.92.55,1.16,1.02.94,3.45-.83,6.99.99,10.16,1.61,1.39,5.2,1.48,7.29,1.05,4.34-2.11,2.11-7.28,3.65-11.08.53-.39,1.48-.28,1.7-.65.25-.42.5-.89.19-1.41-1.45-.52-3.33-.2-4.8-.23-.5.07-1.03-.18-1.29.29h0Z"/>
  <path class="cls-3" d="M155.22,186.44c-.4-.37-.93-.57-1.5-.41-.77.2-.89,1.01-1.09,1.62-.28.86-1.26.65-2.03.77-.65-.2-2.77-1.52-2.37-2.15.84-1.31,1.72-3.33.3-5.07-1.34-2.84-5.07-2.15-7.26-1.26-1.66,1.13-3.65,1.5-5.31,2.55-.16.45.07.93.39,1.25.61.57,1.48-.24,2.17-.2.89.81,1.22,1.9,1.78,2.88.65,1.74,1.38,3.45,1.79,5.31.15,1.05-.86,2.19.08,2.92,1.01-.53,2.19-.77,3.28-1.1,1.17-.69-.87-3.31-.67-4.24.16-.32.49-.48.85-.4.77.53,3.44,1.88,4.34,2.08,2.71,0,4.33.05,5.54-2.67,0-.65.37-1.42-.28-1.91h0ZM145.69,185.75c-.4.41-1.24.82-1.76.61-.57-.49-2.56-4.1-1.51-4.63,1.34-.28,2.92-.04,3.65,1.38.29.89-.05,1.94-.38,2.63h0Z"/>
  <path class="cls-4" d="M85.29,23.05c.04,1.87,1.28,2.85.71,4.52-.41.48-.31.65-.96.65-.28-.12-.73.08-.85-.32-.12-.81-.97-1.67-1.7-1.95-.85-.04-3.64,1.14-4.21,2.15-.28.65-.16,1.38.33,1.95,2.35,2.39,5.4.08,7.95-.2,1.05.12,1.98.73,2.88,1.42,1.54,1.7,2.43,4.1,1.66,6.37-1.25,2.39-3.49,5.15-6.53,4.87-1.1.33-1.95-1.05-2.8-.2-.04.65.16,1.42-.52,1.66-.53.12-1.14.08-1.54-.32-.65-.93.17-1.95-.08-2.96-.16-1.1-1.08-1.76.31-2.57,1.66-.2,3.28,2.15,4.69,1.67,1.33-.45,2.03-.78,2.55-2.23.23-.64.36-1.42-.08-2.03-.41-.49-.97-.81-1.66-.81-1.7.16-2.76,1.86-4.71,1.54-1.82-.2-3.57-.81-4.66-2.56-.89-1.46-1.82-3.24-1.14-5.07.57-1.62,1.99-3.04,3.57-3.73,1.14-.41,2.61-.83,3.79-.62,1.34-.28.79-2.51,2.65-1.66l.37.45h0Z"/>
  <path class="cls-4" d="M174.77,29.71c.65.65.69,1.99,1.87,2.11.61.04,1.5-.2,1.66.61-.56,1.3-2.06,1.74-2.99,2.72l-1.39,1.11c-.32.12-.61-.2-.68-.45-.78-1.66.81-1.88-.2-3.38-.49-.69-1.02-1.62-1.91-1.79-.61-.04-1.14.44-1.42.93-1.1,2.07.52,3.61,1.01,5.36.81.97,1.13,2.15,1.46,3.33.48,1.74-.2,3.32-1.46,4.42-1.87,1.42-3.77,1.78-6.16,1.06-1.14-.65-2.43-1.05-3.37-2.11l-1.3-2.07c-.77-.2-1.78-.04-2.35-.73-.25-.45.08-.93.33-1.3l3.45-3.81c.24-.24.77-.2,1.05-.04.41.21.45.69.57,1.06-.08,1.13-1.34,1.78-1.13,3.04-.16,1.5,1.41,2.35,2.43,3.04.69.32,1.79.36,2.47.04.9-.53,1.34-1.54.98-2.52-.12-1.91-2.43-2.88-2.72-4.67-.28-1.62-.89-3.69.29-5.07,1.58-2.35,4.42-2.84,7.01-2.52.97.24,1.87.81,2.51,1.62h0Z"/>
  <path class="cls-4" d="M62.98,35.1c.24,1.5-1.26,2.22-.13,3.56,1.3,2.31,4.12,4.21,5.18,6.57.69.89,1.17,1.99,2.27,2.47,1.18.69,2.54-1.18,3.03.49-.49,1.21-2.3,1.84-3.15,2.69-1.25.89-2.72,2.11-3.45,3.45-.33.29-.85.53-1.22.2-.97-1.42.98-3.11.25-4.69-.37-1.09-1.5-1.9-2.07-2.92-1.5-2.51-3.77-4.95-6.32-6.37-.89-.45-2.14.84-2.67-.17.04-.77.81-1.38,1.42-1.78,1.74-1.34,3.69-2.23,5.31-3.89.49-.24,1.38-.24,1.54.4h0Z"/>
  <path class="cls-4" d="M184.29,41.86c1.13.98,1.17,2.35.98,3.81-.2,1.46-1.62,2.31-2.96,2.64-1.42,0-3.16,0-3.81-1.54-.49-1.18-.12-2.64.65-3.65.65-.69,1.29-1.5,2.14-1.82,1.1-.04,2.15,0,3,.57h0Z"/>
  <path class="cls-4" d="M48.69,47.93c.28.44.12,1.06-.04,1.5-.45.49-.93,1.05-1.62.77-.49-.2-1.29-1.2-1.78-.67-.36.33-1.47,2.54-1.19,2.91.53.4,1.68.99,2.37.95,2.15-.29,5.08-2.84,7.55-2.03,1.34,0,5.44.77,5.44,5.01,0,1.26.07,2.66-.53,3.79-.94,1.74-2.48,3.89-4.59,4.3-.4-.08-.94-.12-1.34.04-.57.61-.24,1.71-1.05,2.11-1.54.45-1.82-1.46-2.51-2.31-.49-1.13-.82-1.71-1.02-2.97.04-.28.34-.32.57-.41,2.65-1.05,2.33,2.81,6.41-.23.69-.51.81-1.38.81-2.27-.61-.97-.15-2.77-2.8-2.27-2.63.5-4.58,1.7-7.02,2.19-1.82.12-3.41-.81-4.62-2.15-.77-1.54-1.14-3.77-.24-5.39.81-1.05,2.78-5.12,3.72-4.55,1.38.45,2.47.75,3.49,1.69h0Z"/>
  <path class="cls-4" d="M35.4,60.97c.49.93-.52,1.62-.32,2.64.41,1.95,2.07,3.66,3.97,4.14,3.16,2.03,5.67,4.22,9,5.88.28.2.28.61.2.89-1.46,1.63-3.36,1.14-5.34,1.18-3.2.04-6.61.16-9.49,1.22.97.81,1.7,1.98,3.09,2.23,1.13,1.38,2.72,2.03,4.42,1.7.77-.04.97-1.38,1.82-1.01.53.24.69.85.53,1.38-1.54,2.43-2.35,5.15-3.81,7.63-.2.45-.73.73-1.1.32-.81-.73.04-1.66-.2-2.6.04-1.99-1.95-2.96-3.29-4.02-2.35-1.58-4.99-2.92-7.95-2.76-1.01-.08-1.46,1.42-2.55,1.02-.77-.49-.08-1.43.12-2.04.97-1.74,1.75-3.18,3.91-3.62,3.16-.89,6.87-1.68,10.37-1.84.61-.03.97-.37,1.34-.81-1.3-1.22-2.8-2.27-4.34-3.17-.97-.61-1.59-1.07-2.73-1.27-.61.32-1.14,1.05-1.91.61-.37-.28-.89-.53-.97-1.02-.08-.57.57-.81.69-1.3,1.1-1.99,1.35-4.32,3.29-5.79.49-.04.89.08,1.26.4h0Z"/>
  <path class="cls-4" d="M22.54,92.74c.65.93,2.63.29,2.31,1.83-.57.81-2.63.07-3.44.35-1.1.73-1.71,1.96-1.59,3.54.04.61.35,1.63.87,1.87.94.21,2.91,1.13,3.55.03.04-.77-.1-3.21.23-3.46.81-.2.9.26,1.67.22.94-.08,2.18-.01,1.97.36-.97,1.73-.98,2.73-1.91,3.66,0,.24.2.32.36.36,1.95-.16,3.97,1.11,5.76,1.31.36-1.26.39-3.5.68-4.84.24-2.07-3.33-2.88-2.6-4.95.37-.61,1.05-.57,1.62-.41,1.42.61,2.54.66,3.52,1.88,1.38,1.86.3,5.42-.47,7.2-1.05,2.19-1.26,8.6-1.62,9.09-.33.24-.85.33-1.22.08-1.58-1.18-.22-4.23-3.82-4.46-3.08-.19-5.92-1.42-9-2.11-1.82-.16-1.38,2.88-3.29,2.07-1.22-1.67,1.69-11.29,2.42-13.85.28-.36.3-.35.7-.47,1.26-.16,2.15.61,3.29.69h0Z"/>
  <path class="cls-4" d="M16.29,120.65c2.68.73,5.88.24,8.68.61,1.71,0,3.81.4,4.83-1.14.16-.41.33-1.17.85-1.3.45-.04,1.09-.2,1.46.16l.2.41c-.16,2.56-.36,4.99.2,7.42.04.69.08,1.42-.61,1.74-1.62.32-2.3-2.39-3.81-2.67-2.76-.77-6-.41-9.04-.49-1.87-.12-2.93,1.25-4.11,2.63-.28.2-1.49.1-1.54-.89-.11-2.29-.72-3.77-.19-6.31.17-.79.11-1.96,1.04-2.25,1.13.04,1.01,1.66,2.03,2.07h0Z"/>
  <path class="cls-4" d="M31.89,136.54c.61.12,1.54-.12,1.79.61-.29,1.38.36,2.1.53,3.32.56,2.48,2.84,9.25,2.84,10.19-.16.45-.57.93-1.02,1.1-2.19.16-.98-1.94-3.25-1.45-2.35.65-7.74,2.23-10.34,2.27-.41.12-.98.2-1.01.65-.04.57.16,1.53-.57,1.74-.85.04-1.34-.85-1.78-1.42-.89-2.27-3.01-4.3-2.24-6.98.25-.53.77-.53,1.26-.57,1.3.08,1.09,2.15,2.47,1.9,1.38-.36,3.7-.53,5.2-.69,1.78-1.14,6.77.24,6.42-2.27-1.01-7.15-3.23-5.48-5.53-8-.69-.75.77-.65,1.13-.97,1.54-.24,2.72.41,4.1.57h0Z"/>
  <path class="cls-4" d="M213.51,139.94c2.68,1.87,6.12,1.81,9.36,2.38,1.22.12,2.57,1.4,3.65.35.37-.61.57-1.38,1.26-1.78.61-.08,1.21.33,1.34.89-.24,1.62-1.17,2.92-1.42,4.46-1.09,2.15-1.82,4.5-1.95,7.06-.2.49-.49,1.14-1.09,1.3-1.66.17-3.08-.2-4.54-.49-.53-.24-1.17-1.37-.57-1.38,3.76-.04,5.59-4.96,5.29-5.56-.28-.57-3.57-.69-4.87-1.11-.95-.31.57,2.81-1.06,3.38-1.38.24-.57-.23-1.94-.11-.45-.2-.85-.57-1.01-1.05-.17-.57-.04-1.22.45-1.62.25-.16.53-.31.61-.64.16-.61-.61-.86-1.17-1.02-1.54-.16-3.97-2.19-4.9-.77-.44,1.91-1.49,4.36,1.27,7.25.2.21-.07.61-.41.73l-.85-.12-3.29-2.27c-.56-.73-.24-1.83-.08-2.6.57-2.31,1.34-4.46,2.11-6.69.41-.93.65-1.99,1.54-2.64,1.63-.08,1.01,1.57,2.27,2.05h0Z"/>
  <path class="cls-4" d="M205.51,159.02l.08,1.26c2.02,2.11,4.42,3.77,7.01,4.7,1.87,1.54,3.97,2.6,6.09,3.65.57.36,1.02.97.73,1.7-1.99,2.27-5.76,1.38-8.52,1.38-.33-.12-1.73-.44-2.06-.36-.4.49.68,1.99.84,2.43,1.05,2.11,2.28,3.57,3.21,5.72.08.49-.28.77-.49,1.09-2.02.2-3.52-1.42-5.31-2.11-1.11-.43-1.67-1.22-2.68-1.59-2.03-.69-4.72-3.37-6.57-1.95-.68.53-1.3.08-1.99-.41.08-1.58,1.1-3,1.82-4.42.77-.4.45-2.15,1.7-1.62,1.3.57-.22,2.39,1.24,2.59,1.34.61,6.66,3.11,7.72,4.36.53.25-4.4-6.39-4.45-7.97.04-.61,9.03.62,9.12.17-.12-.69-5.28-2.82-5.77-3.11-1.38-.04-2.85-2.18-4.69.79-.26.42-1.17.08-1.39-.49.13-.61.65-1.05.81-1.66.93-1.54.49-3.85,2.4-4.87.48-.04.85.28,1.13.69h0Z"/>
  <path class="cls-4" d="M192.53,182.41c.61,1.7,2.91,2.16,4.25,3.54,2.24,1.46,3.54,4.92,6.43,4.92,1.05-.04,2.35-.67,2.91.26.49,1.5-1.3,1.58-2.07,2.27-1.06,1.34-2.44,2.52-3.45,3.73-.32.2-.73.12-1.02-.08-.48-.69.62-1.67.22-2.4-.61-1.09-3.21-3.02-4.39-3.63-1.94-1.46-2.68-3.22-4.99-4.15-1.34-.37-2.57,1.56-3.62.06-.04-1.91,2.04-2.78,2.77-4.4.85-.69,1.22-1.79,2.15-2.35,1.18.12.49,1.54.81,2.23h0Z"/>
  <path class="cls-4" d="M58.85,187.55c.12,1.98,1.78,3.45,3.53,4.05.17.44-.16.89-.57,1.01-.89.41-1.98.32-3,.45-.94.85-1.01.53-2.18.81-.45.17-.97,0-1.14-.45v-.48c.77-.61,1.27-.93,1.56-1.99.12-1.75-1.49-3.21-2.94-4.14-.73-.24-1.36-.14-2.09.21-.93.74-.37,1.67-.08,2.77.61,1.58.72,2.86.87,4.6,0,2.15-.4,4.09-1.99,5.56-1.29.73-2.63,1.54-4.29,1.05-1.42.04-2.31-1.29-3.33-2.15-.93-1.5-1.99-2.88-2.6-4.46.04-1.01,1.17-1.3,1.82-1.79l2.52-.65c1.22.93-.65,1.54-.73,2.44-.12,1.3.36,2.39,1.46,3.16.97.32,1.91.16,2.76-.33.73-.52.32-1.42.37-2.19-.37-2.96-2.39-5.55-1.58-8.72.32-1.09.89-2.23,1.99-2.88,2.88-1.05,5.96.12,8.15,2.03.73.61,1.17,1.34,1.5,2.07h0Z"/>
  <path class="cls-4" d="M162.87,205.58c-.25.85-1.75,1.08-1.06,2.09.69,1.54.52,3.33,1.74,4.67.61,1.66,1.27,4.94,2.88,6.08.89,1.01,1.95-.23,3.17.02.44.32.69.85.65,1.42-.36,1.3-1.91.85-2.84,1.38-2.76,1.01-6.11,2.36-8.78,3.53-.77.28-.86,1.66-1.91,1.13-1.18-1.13-1.13-2.96-2.15-4.25-.08-.37-.12-.9.28-1.1.69-.24,1.01.49,1.58.61.81.08.88,1.23,1.78.87.61-.73,3.1-1.55,3.1-1.55l-1.26-3.82c-.36-.36-.85-.49-1.34-.36-.81.61-.45,1.74-1.25,2.27-.49.09-.77-.48-.93-.81-.69-1.3-.9-1.86-.69-3.4.85-.97,1.82.36,2.83.12.45-.32.2-.93.04-1.34-1.34-1.01-.93-4.79-3.44-3.74-1.02.41-2.73.85-3.06,2.11-.4.73-.28,1.95-1.3,2.15-.41.08-.86-.04-.98-.45-.16-.81.33-1.34.37-2.07,0-.73-.74-1.95.25-2.31,2.59-1.1,5.51-1.5,8.1-2.6.94-.53,2.82-1.89,3.91-1.4l.3.75h0Z"/>
  <path class="cls-3" d="M226.65,95.33c-.32-.41-.73-.97-1.3-.97-1.7.65-3.25-.33-4.99-.28-.64-.2-7.13-.45-9.57-1.58-2.2-1.03-2.72-2.8-2.72-2.8-.2-.73-1.5-1.15-1.75-.45-.28.81-.12,2.26.37,3.31.73,1.56.89,2.65,1.5,4.07.12.48.6.65,1.01.53.49-.04.35-1.84.23-2.28.2-.41,1.15.29,1.56.17.85-.08,1.05.19,1.66.67.48,1.14.73,2.97,1.01,4.11.04.89.36,1.74.28,2.64-.19.45-1.39,1.3-1.92,1.17-.89-.2-.99-1.61-1.92-1.61-.57.16-.45.81-.49,1.3.45,1.06.29,5.52.78,6.69.24.45.57,1.14,1.21.85,1.95-1.26.01-1.37,1.86-2.92,1.95-1.63,9.07-7.82,10.44-8.63.65-.32,1.94-1.8,2.47-2.36.32-.45.48-1.09.28-1.62h0ZM215.81,100.92c-.45.04-.52-.49-.69-.77l-.61-4.33c1.14-.81,5.27.53,6.96.49,1.35-.03-4.61,3.8-5.66,4.61h0Z"/>
  <path class="cls-3" d="M202.01,51.35c-.12-.69-.97-.73-1.58-.77-4.38,1.22-8.28,3.61-12.62,4.99-1.34,0-2.76.24-3.89-.41-.53-.08-1.27-.53-1.75,0-.16.57.04,1.1.33,1.54,1.7,1.05,2.78,3.91,4.71,3.91.82,0-.29-1.29,1.21-2,2-.95,3.73,1.7,4.79,3.2.2.65.04,1.38-.29,1.95-.25.49-.88.09-1.46,0-.52.04-.95-.56-1.3.04-.08.12-.12.93-.04,1,1.46.69,2.39,2.19,3.32,3.45.57.53,1.08,1.9,1.7,1.46,1.14-.8.39-1.46.53-2.31.31-1.9,2.02-4.42,2.86-7.14.7-2.88,3.02-5.96,3.46-8.92h0ZM194.52,59.41c-1.17-.04-2.29-1.5-2.82-2.36.61-.81,3.86-2.42,4.71-2.86.93-.29-1.17,4.73-1.89,5.22h0Z"/>
  <path class="cls-3" d="M186.65,208.46c-.9-3.41-1.91-6.77-2.48-10.3-.16-1.42-.53-3-.29-4.42.49-.94,1.39-1.71,1.51-2.8-.17-.4-.65-.65-1.14-.57-1.05,1.14-2.35,1.83-3.69,2.43-.61,1.06-1.26.51-1.67,1.72.24.65,1.05.57,1.7.65.64.12.36.85.44,1.3-.93,1.79-2.84,2.82-4.46,3.71-.52.08-.94-.32-1.17-.73-.85-.97-.28-1.13-.4-2.13-.13-.29-.45-.37-.77-.33-1.55,1.38-3.53,2.03-4.99,3.57-.37.36-1.06.48-.97,1.14.2.52.36,1.14.89,1.5.45.2,1,.22,1.42,0,3.19-1.65,5.2,2.93,7.96,4.4,2.02.53,4.74,3.93,6.05,3.78,1.06-.12,1.81-.52,2.54-1.25.33-.65-.29-1.13-.49-1.66h0ZM183.24,206.38c-.81-.16-3.66-3.65-4.31-4.01-.2-.16-.49-.08-.61-.36l.04-.41c.73-.69,3.35-3.39,4-1.33.29.77,1.28,4.73,1.45,5.54-.08.28-.28.53-.56.57h0Z"/>
  <path class="cls-3" d="M47.73,174.1c-.89-1.83-2.04-5.34-3.05-5.27-1.53.1-.04,2.52-1.33,3.29-.57.36-1.38.53-2.07.29-1.5-.73-1.47-1.37-2.43-3.37-.43-.88-1.5-1.87-.65-2.88.65-.57.94-1.79,1.99-1.79.44.08.44.57.61.89.24.49.49,1.3,1.26,1.01.28-.08.69-.32.69-.69-.24-1.91-1.74-3.25-2.31-5.03-.81-.97-.53-2.92-2.19-3.04-1.01.45-.32,1.82-.61,2.72-1.25,1.62-2.23,3.36-3.77,4.91-1.42,1.62-2.6,3.53-4.26,4.99l-1.63,2.68c-.12.61-.93,1.86-.08,1.95,4.93.53,8.92.28,13.38.2,1.79.04,4.06-.48,5.35,1.02.53.36.65,1.1,1.22,1.3.49.16.93.2,1.3-.24.09-1.13-.89-1.98-1.42-2.92h0ZM36.86,172.45c-1.26-.04-3.21.09-4.47.12-.28-.16,3.08-3.29,3.16-3.53.89-.93,1.46,1.03,1.46,1.03,0,0,.43,1.68,1,2.01.13.28-.87.42-1.15.37h0Z"/>
  <path class="cls-4" d="M200.75,81.12c-.97-1.78-1.4-3.18-1.37-4.25.05-1.07.97-2.28,1.1-3.22.54-1.31,1.79-2.38,2.89-3.3,1.09-.93,2.41-1.61,3.94-2.06,1.4-.08,2.78-.72,3.92-.65,1.15.07,2.21.36,3.17.86.99.51,1.54,1.36,2.47,2.11,2.74,3.52,3.14,7.42,1.65,8.21l-.43.29-1.63.77c-.66.43-1.12.46-1.38.61-.25.15-.44.25-.57.29-.18.05-.34.05-.49,0-.14-.05-.23-.14-.25-.26-.03-.18.15-.55.56-1.1.2-.27.35-.48.46-.64.54-.8,1.13-.96,1.33-1.63.2-.67.03-1.9-.09-2.53-.24-1.26-1.1-2.34-2.43-2.83-1.33-.49-2.88-.11-4.68.41-2.03.59-3.3,1.2-4.31,2.4-1,1.2-1.47,2.91-.96,4.37.11.59.3.98.56,1.17.17.98,2.72,3.88,3.2,3.74.7.43-.49,1.22-.49,1.22-.31.09-4.89-1.44-6.18-3.97h0Z"/>
  <path class="cls-4" d="M89.7,225.9c-.34-.12-.75-.34-.88-.56-.13-.21-.14-.44-.04-.72.15-.41,1.55-.51,1.63-.54.38-.1.88-.88,1.51-2.36.12-.29,1-3.16,1.34-4.29.04-.12.37-1.92.45-2.16.47-1.29.08-2.15-.22-2.89-.31-.74-.86-1.27-2.02-1.69-1.22-.44-1.73-.28-2.53.05-.81.34-1.43.67-1.84,1.79-.1.28-.93,1.47-.99,1.69l-2.22,4.14c-.55,1.83-1.01,3.01-.8,3.33.08.12.21.28.38.47.36.39.88,1.05.77,1.36-.09.25-.23.41-.41.48-.19.07-.42.06-.7-.04l-4.8-2.09c-.31-.11-.52-.27-.63-.47-.12-.19-.13-.42-.04-.68.11-.31.43-.48.94-.52,0,0,1.38.23,1.52.12.14-.11,3.05-5.69,3.05-5.69.04-.14,1.43-3,1.6-3.46.57-1.57,1.54-2.57,2.9-2.97,1.36-.4,2.8-.34,4.93.43,2.45.89,3.89,1.71,4.74,2.98.85,1.27,1.1,5.55.6,6.61-.23.47-.5,1.67-.62,1.94l-.68,3.47c-.06.13-.23,1.12-.28,1.25-.06.13-.3.93-.27,1.09.02.17.53.73.53.73.39.37.53.72.41,1.04-.09.24-.24.4-.45.49-.22.09-.46.08-.72-.01l-6.16-2.32h0Z"/>
  <path class="cls-3" d="M243.6,112.57c-.85-4.7-.85-9.73-2.56-14.11-1.26-7.38-3.93-14.24-6.37-21.13-1.26-2.55-2.11-5.27-3.93-7.54-.94-1.83-2.07-3.53-2.88-5.35-1.91-2.52-2.76-5.48-4.62-7.95-2.36-2.52-4.02-5.48-6.21-8.07-2.02-2.92-4.87-5.31-6.94-8.24-1.98-.93-2.6-3.32-4.58-4.42-.77-1.5-2.63-1.82-3.45-3.37-2.47-2.11-4.66-4.71-7.3-6.61-3.9-3.33-8.8-4.21-12.62-7.67l-3.24-1.62c-2.84-2.11-6.21-2.96-9.25-4.62-2.6-1.3-5.27-2.31-7.86-3.53-2.15-.61-4.14-1.67-6.41-2.03-.61,0-1.02-.57-1.63-.49-5.23.04-9.61-1.95-14.52-2.6-4.42-.12-8.77-.89-13.1-1.46-1.94.25-3.89-.12-5.76.29-3.53.24-7.1.32-10.5.81-5.12.89-10.42,1.3-14.97,3.49-5.07,1.7-10.14,3.44-15.13,5.27-1.06.65-2.23,1.01-3.45,1.25-3.04.81-5.47,2.96-8.52,3.69-3.2,1.95-6.81,2.76-9.65,5.52-3.24,1.34-6.21,3.33-9.08,5.64-3.37,1.5-6.33,4.14-9.25,6.61-2.96,3.45-6.61,6.04-9.57,9.33-1.01,1.54-2.39,3.01-3.28,4.59-1.5,1.78-2.92,3.57-4.22,5.43-1.87,1.78-3.04,3.93-4.34,6-1.46,2.96-3.49,5.64-4.99,8.56-.65,2.15-1.78,4.1-2.55,6.2-1.5,2.48-2.39,5.19-3.44,7.87-.85,2.96-2.15,5.72-2.76,8.76-.32,1.06-1.17,1.87-.93,3.13-.89,2.27-1.05,4.87-1.5,7.3-.12,3.98-1.54,7.46-1.54,11.44,0,3.33-.24,6.78-.28,10.02.16,5.6,0,11.32.69,16.83.44,2.39.33,4.87,1.14,7.1,1.62,6.25,2.84,12.62,5.19,18.54,1.17,4.38,3.32,8.36,4.91,12.58,1.3,2.27,3.2,4.26,4.02,6.73,1.7,2.68,2.84,5.68,5.11,8.07.33.85,1.5,1.38,1.58,2.36,1.25,1.38,2.15,3,3.24,4.54,1.59,1.54,2.72,3.41,4.34,4.91.36,1.38,1.99,2.11,2.6,3.33,1.34,1.26,3.08,2.14,3.98,3.81,2.47.98,3.89,3.41,6.08,4.99,5.36,4.67,11.12,8.48,17.12,11.77,2.71,1.09,5.19,2.8,7.87,3.97,3.53,1.78,7.26,3.12,10.83,4.74,3.24.33,6,2.03,9.32,1.95,1.26.08,2.23.81,3.53.81,4.42.97,8.76,2.11,13.22,2.96,7.06.25,14.44,1.46,21.5.28,9.65.2,18.62-1.42,27.3-3.69,4.02-1.5,8.23-2.47,12.29-3.94,4.79-2.63,10.02-4.14,14.76-6.85,1.26-.52,2.31-1.46,3.61-1.82,3.49-1.7,6.49-4.66,9.85-6.73,4.75-3,9.33-6.65,13.67-10.38,3.77-4.22,7.7-8.6,10.58-13.31,3.57-4.38,6.78-8.96,9.17-13.91.49-.37.62-1.01.9-1.5.16-1.26.84-2.27,1.38-3.36,1.17-3.65,3.44-6.86,4.7-10.5.93-1.99,1.41-4.18,1.9-6.37,1.38-3.85,2.68-7.71,3.57-11.76,1.21-7.3,2.8-14.48,3.53-22.02.89-4.71-.12-9.65-.28-14.48h0ZM240.45,132c-.7,6.51-1.77,13.24-3.29,19.38-.49,4.75-3.39,8.1-4.17,12.74-1.15,2.7-1.54,6.18-3.22,8.68-1.97,3.81-3.81,6.99-5.56,10.85-2.47,4.71-12.62,21.05-22.35,27.34-3.77,2.54-7.41,5.24-11.02,8.24l-4.75,2.91c-2.33.37-3.85,2.66-5.89,3.69-1.53,1.02-3.29,1.47-4.92,2.25-4.92,2.58-9.83,5.2-15.24,6.64-4.05,1.72-8.6,2.29-12.65,4.05-5.33.82-10.61,1.64-16.02,2.21-5.53-.08-11.02,1.15-16.35.13-3.15-.78-6.84-.62-10.11-.74-1.47.12-2.54-.7-3.9-.86-3.68-.66-7.08-1.97-10.93-2.26-4.47-.86-8.56-2.54-12.83-3.81-.9-.57-1.96-.57-2.95-.99-4.26-2.58-9.01-4.06-13.15-6.88l-.82-.37c-3.24-2.66-6.72-4.67-10.16-6.85-3.81-3.07-7.99-5.49-11.68-9.01-2.46-2.05-4.3-4.75-6.43-7.09-1.8-1.39-3.03-3.24-4.67-4.84-3.03-3.32-4.63-7.37-7.58-10.77-2.42-3.2-3.48-6.92-5.41-10.32-1.07-2.66-2.58-5.12-3.52-7.83-1.64-4.26-2.46-8.85-4.35-12.99-.69-2.95-1.72-5.78-2.05-8.89-.61-4.59-1.81-9.13-1.23-14.01-.37-2.74-.62-5.9-.21-8.6-.41-1.06.08-2.21.21-3.24-.41-2.25.57-4.47-.04-6.68,0-3.93,1.35-7.13,1.23-11.14.45-2.5,1.02-5.04,1.23-7.66.74-1.43.98-3.07,1.72-4.5.21-2.74,1.55-5,2.21-7.54,1.02-3.03,2.33-5.94,4.01-8.69,1.68-3.07,3.07-6.26,4.3-9.54,2.42-3.24,3.97-6.84,6.96-9.91,1.51-2.83,3.85-5.41,5.98-7.95.9-2.5,3.48-3.89,5.24-5.9,3.73-3.73,7.79-6.68,12.09-9.05,2.7-1.6,5.16-3.73,7.91-5.2.45-.74,1.35-.7,1.96-1.19,4.51-2.82,8.97-5.86,13.85-7.87,6.06-3.4,12.78-5.12,19.37-7.29,2.38-.49,4.76-1.02,7-1.88,2.13-.12,3.94-.98,5.9-1.39,2.05-.53,4.3-.53,6.27-1.23,4.51-.7,8.89.41,13.48.33,1.85.16,3.48-.37,5.37-.17,1.1.08,2.25.04,3.28-.16,3.56-.08,6.8.61,10.12,1.19,1.6.49,3.2.86,4.88,1.23,2.17.08,3.89,1.35,6.02,1.68,2.13.78,4.51.94,6.68,1.64,5.32,2.21,10.82,4.1,16.02,6.68,3.81,2.79,8.24,4.02,11.92,7.17,3.07,1.88,6.06,4.1,9.01,6.35,1.52.98,2.62,2.7,4.05,3.85,1.89,1.93,3.9,3.69,5.78,5.57,1.72,1.47,2.99,3.32,4.8,4.67,1.47,1.8,2.78,3.69,4.34,5.49,3.2,4.34,6.35,8.69,8.85,13.31,2.42,2.91,3.93,6.19,5.4,9.46,1.68,4.96,4.22,9.59,5.33,14.79,1.1,4.34,2.94,8.35,3.81,12.82.74,3.61,1.03,7.41,1.31,11.18.45,3.07.69,6.6.2,9.71.08,3.03.16,6.31-.65,9.05h0Z"/>
  <path class="cls-3" d="M230.05,114.6c-1.32-2-1.53,1.02-2.06,1.73-1.4.53-3.1.95-4.63.87-3-.71-5.23.72-8.27,0-.53-.31-1.55.35-1.8-.36-.37-.62-.9-1.38-1.69-1.29-.2.09-.41.22-.41.53.58,2.36.38,5.83.58,8.41-.04,1.6,3.12,5.86,4.11,6.62,1.65,1.2,3.67,1.25,5.92,1.25,1.99,0,3.67-1.51,5.27-2.89l1.64-2.27c.38-.62.25-1.42.7-2,.25-1.56.7-3.49.7-5.48,0-1.53.35-3.62-.06-5.13h0ZM226.74,125.43c-2.22,3.06-6.33,2.45-9.54,2.09-.99-.49-2.19-1.25-2.56-2.49-.12-.58-.4-2.4-.03-2.94,1.44-.84,3.48-.5,5.12-.27,1.44.18,6.59-.74,7.21-.07-.04.67,0,3.01-.21,3.68h0Z"/>
</svg>