<?xml version="1.0" encoding="UTF-8"?>
<svg id="Layer_1" data-name="Layer 1" xmlns="http://www.w3.org/2000/svg" viewBox="0 0 661.85 357.8">
  <defs>
    <style>
      .cls-1 {
        fill: #272424;
      }

      .cls-2 {
        fill: #1583a7;
      }
    </style>
  </defs>
  <path class="cls-1" d="M.3,301.66h11.33v19.78h19.84v-18.37c0-1.77,11.23-2.61,12.15.13-1.03,7.36,1.96,49.94-.28,53.15-1.14,1.64-11.87,1.34-11.87-.53v-24.02H11.64v25.44H.3v-55.58Z"/>
  <polygon class="cls-1" points="661.48 301.66 661.48 312.02 645.42 312.02 645.42 357.24 634.09 357.24 634.09 312.02 618.03 312.02 618.02 301.65 661.48 301.66"/>
  <path class="cls-2" d="M307.28-.74c9.82,10.63-12.53,13-4.72,0h4.72Z"/>
  <path class="cls-2" d="M452.74,149.99c-5.33-4.5-9.37-6.53-7.11-15.1,3.42-12.94,26.57-8.74,21.78,7.61-2.15,7.32-8.7,7.05-14.67,7.5,4.76,4.02,10.62,6.18,9.45,14.13,8.44-10.08,26.5-5.43,25.5,8.47,2.51.54,1.76-1.71,4-3.05,19.77-11.88,30.51,22.3,6.39,23.79,3.26,3.97,6.8,6.3,5.67,12.23,2.48.76,1.72-1.37,2.87-2.26,3.26-2.5,6-4.04,10.34-3.39-.32-2.75-3.08-4.09-3.99-6.84-3.49-10.58,4.19-19.82,15.33-17.66-1.78-2.23-5.1-3.53-6.49-6.23-5.58-10.86,6-22.78,17.38-16.4,12.08,6.77,4.72,25.31-9,22.65,1.77,2.22,5.12,3.54,6.49,6.23,1.05,2.05,1.26,3.73,1.07,6l5.97-3.94,7.24-1.72c-1.46-1.75-2.92-2.61-3.93-5-4.85-11.45,5.86-21.66,17.21-16.24,11.85,5.66,6.52,24.39-6.66,23.14,3.43,3.93,6.56,7.48,5.68,13.18,4.22-3.85,8.04-6.61,14.16-5.66-17.78-12.24,3.81-35.65,16.05-19.29,7.05,9.43-.69,20.07-11.32,20.71,3.45,3.16,6.92,6.66,6.62,11.78,22.78-19.5,37.81,20.96,8.5,21.68l5.5,5.33c9.69,19.39-22.59,28.26-23.46,5.96-9.21,10.75-24.31,8.54-27.85-5.65-3.98,3.5-9.4,5.89-14.64,3.77.07,1.61,2.47,1.21,3.72,2.39,7.08,6.65,3.77,18.81-6.07,19.33-12.57.67-16.71-13.17-7.06-20.27l8.45-2.39c-5.61-.82-8.03-6.32-8.98-11.33-4.54,2.81-8.06,4.63-13.68,3.79,1.53,2.05,4.09,2.71,5.53,5.3,9.88,17.7-22.18,27.83-23.49,6-8.39,10.51-25.48,7.55-26.44-6.59-2.28-.18-3.05,2.15-4.99,3.02-8.77,3.93-19.22-.96-20.52-10.56-3.5,2.56-6.75,4.45-11.32,3.77,2.01,4.41,4.97,6.76,4.34,12.26-1.79,15.53-24.06,15.24-26.08-.01-9.01,9.91-23.61,6.65-26.45-6.59-9.81,8.53-23.43,2.02-24.56-10.36-3.67,3.07-7.16,5.48-12.26,4.71l4.23,6.6c7.19,18.88-23.12,24.41-24.08,4.7-8.24,10.65-24.26,8.34-26.44-5.65-3.27.96-5.36,3.25-9.06,3.69-8.68,1.03-15.73-4.52-16.45-13.11-3.97,2.65-8.13,5.5-13.21,4.72,1.23,1.88,3.09,1.99,4.57,4.37,10.98,17.69-22.4,29.2-22.53,5.98-8.41,12.9-28.13,8.41-27.39-7.53l-5.96,3.92c-17.81,7.3-25.55-17.99-11.42-23.62,10.53-4.19,17.63,2.28,19.74,12.15,2.42-4.35,7.11-5.74,11.81-6.6-17.14-20.19,18.63-34.8,20.79-9.41,1.58-.48,1.65-2.46,3.28-3.78,5.79-4.7,15.95-3.82,20.33,2.37,1.83,2.57,1.42,4.88,3.3,7.05,2.6-3.93,6.27-3.95,9.9-6.1-14.92-19.88,17.98-34.25,22.7-9.89,3.59-3.23,7.05-5.88,12.27-5.66-18.43-21.22,19.52-36.06,20.79-9.41,6.18-7.86,10.58-4.9,18.88-5.65-2.42-1.77-5.34-2.02-7.55-4.24-6.3-6.34-3.24-18.66,5.6-20.79,17.79-4.27,24.12,23.01,1.96,25.03,4.4,3.21,6.97,7.73,7.08,13.18,4.06-5.27,8.03-6.42,14.64-5.66-23.87-18.57,16.2-39.55,17.95-10.36,2.54.66,1.95-1.91,3.71-3.34,2.75-2.24,5.84-3.68,9.51-3.26-20.96-19.58,15.47-39.94,20.79-12.24,5.46-6.04,8.93-5.12,16.05-5.65ZM439.51,174.47c-2.38-3.35-4.48-7.07-4.73-11.29-3.64,3.03-7.01,6.39-12.27,5.66-.19,2.58,2.3,2.14,3.98,4.98.97,1.64,1.7,3.44,1.69,5.38,3.91-1.51,6.59-4.94,11.33-4.72ZM461.23,170.72l-6.71,5.08-5.57,1.52c1.65,4.11,4.98,6.07,3.78,11.29,4.37-1.55,6.83-6.42,12.27-5.65.12-2.48-2.64-3.33-3.35-5.59-.69-2.18-.42-4.42-.42-6.64ZM403.62,175.43c-1.48-1.67-2.97,4.11-3.77,5.18-3.56,4.79-7.68,4.51-13.22,4.23-.52,2.25.38,1.52,1.23,2.1,4.4,2.97,6.49,4.14,7.28,10.14,3.58-3.91,7.9-3.93,12.25-6.12-7.13-2.49-3.19-14.89-3.76-15.54ZM486.73,180.14c-4.08,1.53-6.38,5.52-11.33,5.66,1.5,3.75,3.8,7.02,3.79,11.29,3.71-3.14,8.13-5.71,13.21-5.66.11-1.48-1.94-1.13-2.87-2.3-1.99-2.52-3.18-5.72-2.8-8.99ZM347.89,200.85c-1.96-4.59-5.91-7.44-4.73-13.18-4,3.1-6.38,7.2-12.27,6.6l3.93,5.96,1.75,5.34c3.24-2.83,6.8-4.87,11.32-4.71ZM426.28,189.56c-4.13,1.63-6.09,4.97-11.32,3.77-.34,1.42-.1,1.23.62,1.96,2.55,2.59,4.77,4.1,5.05,8.39,3.69-.93,6.11-4.43,10.38-3.77l-4.29-6.56-.44-3.79ZM456.51,207.44c-2.72-3.36-5.36-6.63-4.73-11.29-3.1,2.68-6.06,5.23-10.38,5.66,2.13,2.83,4.75,5.58,4.73,9.41l10.38-3.78ZM541.52,208.39c-1.78-4.31-5.95-6.85-5.67-12.24-3.37,2.71-6.65,5.36-11.32,4.71-.78,2.48,1.44,1.73,2.27,2.87,1.82,2.49,3.39,5.23,3.4,8.43,3.69-1.43,6.38-4.65,11.32-3.77ZM372.45,209.33c-1.45-4.14-4.74-7.55-4.73-12.24l-5.44,4.45c-10.08,2.25-4.66,1.41-1.6,7.75l.44,4.74c4-1.28,6.47-5.43,11.33-4.71ZM562.3,203.69c-2.48-.76-1.72,1.37-2.87,2.26-3.26,2.5-6.01,4.04-10.34,3.39-.2,2.58,2.29,2.14,3.98,4.98.97,1.64,1.7,3.44,1.69,5.38,3.8-1.3,6.94-4.27,11.32-3.77.12-2.48-2.64-3.33-3.35-5.59-.69-2.18-.42-4.42-.42-6.64ZM477.29,204.63l-10.37,6.12c2.56,2.72,4.62,6.05,4.71,9.89,3.16-2.33,6.33-4.33,10.38-4.72-2.71-3.36-5.37-6.63-4.72-11.29ZM309.16,206.52c-.78-.84-7.8,5.99-10.38,4.71,1.19,3.83,5.24,5.6,4.73,10.35.63.58,4.16-2.09,5.38-2.63,1.35-.6,4.82-.97,5-1.15,1.1-1.07-4.24-4.36-3.81-6.07l-.91-5.22ZM393.23,206.52c-.77-.85-7.82,6-10.38,4.72,2.13,2.83,4.75,5.58,4.73,9.41,3.71-.69,6.23-3.7,10.38-2.83-1.29-3.99-5.44-6.46-4.72-11.3ZM594.42,225.34c-4.43-3.59-7.4-7.14-7.57-13.18-3.05,3.38-6.34,6.34-11.32,5.66.45,2.93,3.46,4.47,4.27,7.5.6,2.25.53,4.34.45,6.62,4.18-3.81,7.91-7.19,14.16-6.6ZM502.79,213.11c-2.47-.5-1.78,1.64-4.01,3.04-2.02,1.27-4.88,2.48-7.32,2.62,3.24,3.58,5.89,7.04,5.68,12.24,4.04-2.99,7.86-5.43,13.21-4.72l-5.85-5.92c-1.47-2.23-1.94-4.6-1.7-7.25ZM250.6,214.05c-2.49-.78-1.73,1.43-2.87,2.26-2.76,2.01-5.82,3.64-9.4,3.39,3.82,4.17,7.21,7.89,6.62,14.12,3.94-3.42,7.5-6.54,13.21-5.66-4.65-3.86-8.52-7.45-7.56-14.12ZM340.34,227.23c-3.18-3.69-6.62-6.87-6.62-12.24-3.06,2.37-6.15,5.12-10.38,4.71.04,2.89,3.48,3.86,4.3,6.54.67,2.19.43,4.41.43,6.64,2.49.78,1.73-1.43,2.87-2.26,2.76-2.02,5.82-3.64,9.4-3.39ZM423.45,226.28c-2.58-3.39-5.68-6.7-5.68-11.29-1.46,2.44-9.72,4.06-10.38,4.72-1.01,1.01,4.51,4.9,4.29,6.54l.44,4.74c3.91-1.5,6.6-4.93,11.33-4.72Z"/>
  <polygon class="cls-1" points="420.62 301.66 438.57 333.69 438.57 301.66 449.9 301.66 449.9 357.24 438.76 357.04 417.79 320.5 417.79 357.24 406.45 357.24 406.45 301.66 420.62 301.66"/>
  <path class="cls-1" d="M150.49,357.24c-4.65-.27-10.37,1.97-9.45-4.71-2.26-.15-3.06,2.12-5,3.01-7.03,3.25-20.17,2.35-25.85-3.33-7.69-7.7-7.61-30.5-3.32-39.88,7.45-16.28,42.1-14.78,42.69,5.79-.11.62-11.56,2.11-12.25,1.39-.15-.16-.02-2.63-.94-4.23-2.59-4.52-13.05-4.49-16.61-1.39-6.31,5.5-6.79,31.15,3.85,32.94,6.15,1.03,12.22.47,15.06-5.59,4.62-9.89-5.32-5.85-11.81-6.59.3-2.19-.84-7.81.89-9.01,2.35-1.63,18.82.04,22.73.53v31.09Z"/>
  <path class="cls-1" d="M274.92,301.88c24.71-3.82,32.59,10.84,30.45,33.2-1.8,18.82-18.88,27.73-35.92,19.84-17.62-8.15-17.13-49.56,5.47-53.04ZM272.65,314.23c-4.49,4.36-4.2,22.46-1.46,27.65,3.96,7.49,16.4,8.09,20.55.34,3.41-6.36,4.25-25.3-3.01-29.14-4.33-2.3-12.45-2.38-16.09,1.15Z"/>
  <path class="cls-1" d="M68.06,301.88c26.34-4.43,32.76,12.38,30.46,35.09-2.71,26.79-43.25,28.14-46.97.71-1.87-13.75-.32-32.97,16.51-35.8ZM74.6,311.43c-12.59.25-12.89,12.98-12,22.76,1.69,18.53,22.93,17.45,24.6,1.85,1.12-10.44,1.38-24.89-12.6-24.61Z"/>
  <path class="cls-1" d="M613.31,316.73c-3.52-.94-8.61,1.75-11.66,1-1.03-.25-1.12-3.05-2.54-4.27-6.21-5.35-24.01,1.16-14.1,7.47,7.67,4.88,26.97,2.24,29.17,16.12,4.21,26.53-43.6,27.62-45.23,3.28.56-.67,10.29-1.41,11.66-1.04.8.21.91,4.39,3.43,6.17,6.93,4.9,24.11.73,18-7.6-4.85-6.61-27.56-1.93-30.82-17.3-5.12-24.2,40.62-26.04,42.08-3.83Z"/>
  <path class="cls-1" d="M201.49,316.73c-3.39-.98-8.9,1.81-11.71,1.01-.9-.26-.14-4.96-6.69-5.74-5.08-.6-14.32-.58-11.68,6.93,1.93,5.48,29.32,3.89,31.04,18.03,2.1,17.27-12.34,21.74-26.93,20.27-9.93-1-17.27-6.77-18.43-16.94.53-.6,10.36-1.37,11.7-1.01.8.21.91,4.39,3.43,6.17,5.74,4.05,22.74,2.54,18.38-7.04-3.1-6.82-29.73-2.42-31.42-19.6-2.2-22.37,41.04-23.82,42.3-2.08Z"/>
  <path class="cls-1" d="M221.33,301.66v19.78c6.06-3.18,13.58-16.88,18.91-19.29,3.28-1.48,9.48.05,13.2-.48.43,1.63-.68,1.88-1.41,2.83-2.61,3.39-15.35,13.82-15.62,16.52l17.99,35.75c0,.65-11.48,1.15-12.77-.45l-14.15-26.37c-.8,1.08-6.14,5.67-6.14,6.11v21.2h-11.33v-55.58h11.33Z"/>
  <path class="cls-1" d="M548.04,301.75l18.04,55.48c-2.6-.47-9.59.87-11.39-.41-.95-.68-3.03-10.24-3.85-10.77s-18.32-.35-18.87.43c-4.55,6.51,1.42,13.13-14.06,10.74l17.85-54.99,12.28-.49ZM542.45,319.56c-1.59-1.55-1.59.48-1.97,1.32-.72,1.6-5.22,15.07-4.63,15.63h11.33c.63-.62-4.11-16.33-4.74-16.95Z"/>
  <path class="cls-1" d="M400.78,357.23c-2.72-.48-9.37.9-11.37-.43-1.07-.71-3.18-8.85-3.85-10.76-4.24.5-17.59-1.76-19.57,1.46-4.32,6.99,1.78,11.62-13.38,9.73l17.91-55.15c2.52-.5,10.39-1.26,11.86.5l18.4,54.65ZM381.89,336.51c.7-.66-4.51-16.67-6.6-17.89l-4.73,17.89h11.33Z"/>
  <path class="cls-1" d="M495.25,340.28c1.55,1.65,1.6-.39,1.9-1.39,1.52-5.03,10.02-34.56,11.76-36.32,1.93-1.96,8.03-.49,10.89-.91l-19.32,55.64-10.81-.16-18.04-55.48c2.82.46,10.14-1.09,11.82.92l11.8,37.7Z"/>
  <path class="cls-1" d="M325.22,346.88h24.56v10.36h-36.84v-55.58c2.13.23,12.28-.89,12.28,1.41v43.81Z"/>
  <path class="cls-2" d="M181.33,232.27c10.48,10.45-4.69,29.51-17.2,17.62-12.88-12.24,6.44-28.34,17.2-17.62Z"/>
  <path class="cls-2" d="M506.32,142.66c16.76-1.5,18.22,26.64-1.07,24.21-13.81-1.74-13.17-22.93,1.07-24.21Z"/>
  <path class="cls-2" d="M156.78,224.73c9.07,9.31-2.42,25.85-15.12,18.38-14.83-8.71,2.25-31.6,15.12-18.38Z"/>
  <path class="cls-2" d="M478.93,135.13c19.6-3.95,20.09,25.43,1.77,23.27-13.38-1.58-13.17-20.97-1.77-23.27Z"/>
  <path class="cls-2" d="M393.9,136.06c17.5-4.03,21.06,19.67,6.96,22.94-17.02,3.95-19.44-20.07-6.96-22.94Z"/>
  <path class="cls-2" d="M564.91,134.15c15.33-1.75,18.14,21.44,3.44,23.29-16.67,2.11-18.09-21.62-3.44-23.29Z"/>
  <path class="cls-2" d="M427.9,120.04c20.11-4.62,18.72,27.06-.72,21.04-9.21-2.85-8.73-18.87.72-21.04Z"/>
  <path class="cls-2" d="M523.26,137.42c-9.83,10.26-26.16-4.66-16.11-15.6,9.49-10.33,26.72,4.53,16.11,15.6Z"/>
  <path class="cls-2" d="M548.76,129.58c10.43,9.92-5.23,26.44-15.67,16.1-10.19-10.1,4.97-26.27,15.67-16.1Z"/>
  <path class="cls-2" d="M487.43,110.63c15.05-3.07,18.35,18.56,5.23,21.24-14.64,2.99-18.43-18.54-5.23-21.24Z"/>
  <path class="cls-2" d="M403.37,111.57c17.61-3.55,17.64,22.89,1.79,21.41-11.89-1.11-13.51-19.05-1.79-21.41Z"/>
  <path class="cls-2" d="M445.85,236.86c15.33-3.52,19.35,18.53,5.24,21.27s-17.05-18.56-5.24-21.27Z"/>
  <path class="cls-2" d="M277.72,238.74c18.09-4.12,19.07,22.36,1.8,20.46-11.65-1.29-11.35-18.28-1.8-20.46Z"/>
  <path class="cls-2" d="M193.66,239.69c17.57-4.05,17.77,21.42,2.67,20.56-12.77-.73-12.93-18.19-2.67-20.56Z"/>
  <path class="cls-2" d="M461.91,103.09c14.71-3.37,18.24,17.08,6.92,20.07-16.02,4.23-18.76-17.36-6.92-20.07Z"/>
  <path class="cls-2" d="M177.61,205.76c17.45-3.94,17.79,25.11-.92,20.29-9.47-2.44-8.13-18.25.92-20.29Z"/>
  <path class="cls-2" d="M361.78,238.74c16.07-3.72,18.49,18.73,4.28,20.35-12.79,1.45-15.61-17.73-4.28-20.35Z"/>
  <path class="cls-2" d="M370.31,128.53c16.3-3.33,17.13,23.8,0,20.3-10.6-2.17-10.64-18.12,0-20.3Z"/>
  <path class="cls-2" d="M107.71,237.79c12.38-2.8,18.12,13.13,7.75,19.03-13.46,7.67-21.64-15.89-7.75-19.03Z"/>
  <path class="cls-2" d="M615.92,235.89c12.63-1.44,15.67,19.61,1.62,20.61-12.94.92-15.46-19.03-1.62-20.61Z"/>
  <path class="cls-2" d="M432.28,97.56c10.3-10.37,25.29,6.56,13.89,15.26-10.66,8.14-21.86-7.23-13.89-15.26Z"/>
  <path class="cls-2" d="M605.47,178.45c16.1-3.69,18.2,20.15,2.63,19.66-12.09-.38-12.77-17.34-2.63-19.66Z"/>
  <path class="cls-2" d="M618.35,214.37c9.03-8.91,23.99,5.56,13.39,14.77-8.65,7.52-22.76-5.53-13.39-14.77Z"/>
  <path class="cls-2" d="M271.16,180.31c13.52-1.65,15.19,22.18-1.14,19.56-10.43-1.67-9.14-18.31,1.14-19.56Z"/>
  <path class="cls-2" d="M413.67,87.17c11.75-.71,13.63,17.68,2.65,19.43-15.02,2.38-15.59-18.64-2.65-19.43Z"/>
  <path class="cls-2" d="M471.39,78.57c12.69-2.41,15.93,18.3,2.5,19.6-11.6,1.12-15.02-17.22-2.5-19.6Z"/>
  <path class="cls-2" d="M541.85,119.52c-7.61-7.66,2.48-22.3,12.94-14.32,10.88,8.29-3.59,23.72-12.94,14.32Z"/>
  <path class="cls-2" d="M497.77,86.23c14.26-.22,11.76,22.86-2.56,19.03-10.69-2.86-8.03-18.87,2.56-19.03Z"/>
  <path class="cls-2" d="M79.94,232.24c7.74-7.15,21.98,3.08,14.39,12.94-8.62,11.21-24.09-3.97-14.39-12.94Z"/>
  <path class="cls-2" d="M445.86,69.15c12.93-2.85,15.85,16.04,5.26,18.46-14.84,3.39-16.17-16.05-5.26-18.46Z"/>
  <path class="cls-2" d="M530.84,97.52c8.8,9.93-7.06,22.45-14.83,12.44-7.59-9.77,6.9-21.39,14.83-12.44Z"/>
  <path class="cls-2" d="M420.35,61.63c13.1-2.97,16.38,15.93,5.26,18.45-13.26,3.01-16.73-15.85-5.26-18.45Z"/>
  <path class="cls-2" d="M589.44,144.49c12-2.43,16.54,16.84,3.48,18.64s-13.7-16.57-3.48-18.64Z"/>
  <path class="cls-2" d="M387.33,79.5c13.59-2.23,14.81,20.86-.17,18.64-10.3-1.52-10.06-16.97.17-18.64Z"/>
  <path class="cls-2" d="M335.33,147.36c15.14-4.47,17.93,17.37,4.54,17.78-12.51.38-12.27-15.5-4.54-17.78Z"/>
  <path class="cls-2" d="M299.1,166.33c9.67-9.57,23.15,8.21,11.53,14.8-9.76,5.53-19.49-6.92-11.53-14.8Z"/>
  <path class="cls-2" d="M377.85,104.97c16.71-3.8,15.28,20.27.98,17.49-9.53-1.85-9.06-15.65-.98-17.49Z"/>
  <path class="cls-2" d="M121.87,216.13c16.4-3.75,14.74,20.14.98,17.5-9.12-1.75-9.85-15.47-.98-17.5Z"/>
  <path class="cls-2" d="M555.42,246.27c13.31-3,15.55,15.4,4.28,17.52-11.16,2.1-14.78-15.16-4.28-17.52Z"/>
  <path class="cls-2" d="M571.47,113.45c15.74-3.57,15.74,20.12,0,16.55-8.12-1.84-8.13-14.71,0-16.55Z"/>
  <path class="cls-2" d="M393.9,54.1c15.55-4.62,15.77,21.16.23,16.33-7.67-2.38-6.89-14.35-.23-16.33Z"/>
  <path class="cls-2" d="M68.01,222.82c6.99,7.63-3.58,19.64-12.03,12.48-9.55-8.09,4.44-20.77,12.03-12.48Z"/>
  <path class="cls-2" d="M472.31,247.2c14.87-3.27,13.19,21.98-1.39,16.06-7.29-2.96-6.18-14.39,1.39-16.06Z"/>
  <path class="cls-2" d="M388.25,248.14c11.79-2.59,14.31,14.81,3.33,16.61-10.39,1.7-13.37-14.4-3.33-16.61Z"/>
  <path class="cls-2" d="M304.18,249.09c12.38-2.72,14.33,15.91,2.47,16.5-9.76.48-12.11-14.38-2.47-16.5Z"/>
  <path class="cls-2" d="M222.02,249.1c10.52-1.02,12.35,16.26.56,16.45-10.04.16-10.96-15.44-.56-16.45Z"/>
  <path class="cls-2" d="M369.35,45.62c12.33-2.8,14.71,13.64,4.28,15.64s-12.87-13.69-4.28-15.64Z"/>
  <path class="cls-2" d="M133.23,249.99c9.87-1.79,12.95,12.83,5.03,15.45-13.19,4.37-15.07-13.63-5.03-15.45Z"/>
  <path class="cls-2" d="M210.67,191.64c14.2-3.22,14.3,17.85,0,14.67-7.25-1.61-6.56-13.18,0-14.67Z"/>
  <path class="cls-2" d="M475.71,68.67c-7.03-7.67,4.72-17.67,11.05-10.56,6.82,7.65-4.61,17.58-11.05,10.56Z"/>
  <path class="cls-2" d="M428.87,38.99c10.44-2.12,12.75,13.85,2.52,14.9-9.72,1-10.68-13.25-2.52-14.9Z"/>
  <path class="cls-2" d="M454.38,47.45c11.68-2.09,11.48,17.12,0,14.76-7.93-1.63-7.61-13.4,0-14.76Z"/>
  <path class="cls-2" d="M247.55,259.44c8.03-1.04,11.08,10.35,4.34,13.83-10.95,5.66-15.64-12.36-4.34-13.83Z"/>
  <path class="cls-2" d="M34.99,235.9c10.73-2.33,13.05,12.87,3.14,14.49-8.5,1.4-12.28-12.51-3.14-14.49Z"/>
  <path class="cls-2" d="M604.53,123.89c6.89,5.53-2.01,17.85-9.67,11.04-7.36-6.54,2.47-16.82,9.67-11.04Z"/>
  <path class="cls-2" d="M497.81,260.4c9.81-2.19,12.29,11.93,3.35,13.78-9.44,1.96-12.09-11.83-3.35-13.78Z"/>
  <path class="cls-2" d="M580.93,260.4c9.81-2.19,12.29,11.93,3.35,13.78-9.44,1.96-12.09-11.83-3.35-13.78Z"/>
  <path class="cls-2" d="M344.81,38.05c9.61-1.97,12.41,11.92,3.33,13.8-9.59,1.99-11.96-12.04-3.33-13.8Z"/>
  <path class="cls-2" d="M328.73,260.39c9.64-2.89,13.14,11.01,5.03,13.54-9.93,3.1-12.99-11.15-5.03-13.54Z"/>
  <path class="cls-2" d="M412.8,260.39c9.43-2.8,13.54,10.87,5.03,13.54-9.99,3.14-12.47-11.34-5.03-13.54Z"/>
  <path class="cls-2" d="M98.29,208.56c10.23-2.08,10.98,13.41,1.5,13.72-7.99.26-9.55-12.09-1.5-13.72Z"/>
  <path class="cls-2" d="M60.51,246.24c9.28-1.9,11.38,10.7,4.3,12.83-9.95,2.98-13.24-11-4.3-12.83Z"/>
  <path class="cls-2" d="M157.77,261.35c10.55-3.11,12.94,10.11,5.04,12.59-9.44,2.95-11.97-10.54-5.04-12.59Z"/>
  <path class="cls-2" d="M361.79,73.86c11.12-3.33,12.45,15.55.01,12.82-6.43-1.41-5.56-11.16-.01-12.82Z"/>
  <path class="cls-2" d="M616.76,155.92c8.6-.48,9.41,12.82.66,13.6-8.06.72-10.15-13.07-.66-13.6Z"/>
  <path class="cls-2" d="M530.89,73.83c8.12-1.47,11.12,11.15,3.34,12.86-10.91,2.39-11.07-11.46-3.34-12.86Z"/>
  <path class="cls-2" d="M654.59,234.49c-5.5,4.43-14.37-1.75-10.17-8.73,5.36-8.92,17.68,2.68,10.17,8.73Z"/>
  <path class="cls-2" d="M631.93,189.73c9.78-2.93,12.16,11.25,3.35,12.87-7.8,1.43-10.9-10.61-3.35-12.87Z"/>
  <path class="cls-2" d="M504.45,64.44c7.59-.66,9.8,11.63,2.56,13-10.2,1.92-11.76-12.19-2.56-13Z"/>
  <path class="cls-2" d="M640.43,248.15c8.69-2.6,12.26,10.41,4.32,12.81-8.77,2.66-11.7-10.6-4.32-12.81Z"/>
  <path class="cls-2" d="M555.41,83.3c10.67-3.2,11.68,11.52,3.39,12.82-8.08,1.27-10.27-10.76-3.39-12.82Z"/>
  <path class="cls-2" d="M293.78,21.12c11.67-3.49,11.67,15.34,0,11.85-5.39-1.61-5.41-10.23,0-11.85Z"/>
  <path class="cls-2" d="M341.04,122.82c9.99-1.82,10.69,15.33-.97,11.9-5.22-1.54-4.62-10.88.97-11.9Z"/>
  <path class="cls-2" d="M320.26,29.55c9.99-1.82,10.69,15.33-.97,11.9-5.22-1.54-4.62-10.88.97-11.9Z"/>
  <path class="cls-2" d="M404.31,32.4c5.5-1.15,10.06,5.21,5.93,9.74-7.87,8.63-15.61-7.72-5.93-9.74Z"/>
  <path class="cls-2" d="M156.85,200.06c8.46-1.53,9.67,11.56,1.59,12.09-7.29.48-8.23-10.89-1.59-12.09Z"/>
  <path class="cls-2" d="M7.57,227.42c10.51-3.22,11.87,12.11,1.8,11.11-6.55-.65-6.57-9.65-1.8-11.11Z"/>
  <path class="cls-2" d="M493.11,36.24c5.22,4.94-1.69,13.64-7.86,9.24-6.6-4.71,2.01-14.78,7.86-9.24Z"/>
  <path class="cls-2" d="M467.61,27.76c5.22,4.94-1.69,13.64-7.86,9.24-6.6-4.71,2.01-14.78,7.86-9.24Z"/>
  <path class="cls-1" d="M554.75,289.41c.79,10.58.22,11.17-10.4,10.37v-10.37s10.4,0,10.4,0Z"/>
  <path class="cls-1" d="M88.15,289.41c.79,10.58.22,11.17-10.4,10.37v-10.37s10.4,0,10.4,0Z"/>
  <path class="cls-2" d="M354.25,100.23c10.23-2.14,8.45,15.09-1.41,10.44-4.67-2.2-3.68-9.37,1.41-10.44Z"/>
  <path class="cls-2" d="M310.74,142.61c8.98-3.07,11.71,8.72,4.13,10.75-7.23,1.94-8.72-9.18-4.13-10.75Z"/>
  <path class="cls-2" d="M274.92,23.51c-4.5,4.26-12.4-2.12-8.32-7.83,4.66-6.53,14.1,2.36,8.32,7.83Z"/>
  <path class="cls-2" d="M436.42,18.27c4.33-1.26,9.03,3.57,6.76,7.68-5.8,10.47-16.02-4.99-6.76-7.68Z"/>
  <rect class="cls-1" x="529.24" y="289.41" width="9.46" height="9.43"/>
  <rect class="cls-1" x="62.64" y="289.41" width="9.46" height="9.43"/>
  <path class="cls-2" d="M378.8,23.9c7.04-1.06,8.27,10.35,1.53,10.96-5.87.53-8.69-9.87-1.53-10.96Z"/>
  <path class="cls-2" d="M284.38,169.54c-3.98,3.97-12.73-1.58-7.76-7.27s12.14,2.91,7.76,7.27Z"/>
  <path class="cls-2" d="M327.77,8.85c9.44-2.92,9.45,11.99,0,9.07-4.1-1.27-4.12-7.8,0-9.07Z"/>
  <path class="cls-2" d="M580.91,92.68c6.6-2,8.91,7.43,3.4,9.11-6.79,2.07-9.08-7.4-3.4-9.11Z"/>
  <path class="cls-2" d="M245.6,177.46c8.85-2.7,8.2,12.72-.43,8.57-3.72-1.79-3.57-7.35.43-8.57Z"/>
  <path class="cls-2" d="M416.61,11.74c2.54,2.58,1.59,8.11-3.05,8.3-10.22.43-2.59-14.02,3.05-8.3Z"/>
  <path class="cls-2" d="M354.26,17.29c5.85-.79,6.5,9.03.74,9.26-5.4.22-6.25-8.52-.74-9.26Z"/>
  <path class="cls-2" d="M512.93,46.52c5.77-.83,6.75,6.87,2.41,8.15-6.64,1.96-8.43-7.29-2.41-8.15Z"/>
  <path class="cls-2" d="M244.67,6.93c5.56-1.54,6.84,6.99,2.43,8.21-5.56,1.54-6.84-6.99-2.43-8.21Z"/>
  <path class="cls-2" d="M384.03,13.15c-2.23-2.22-1.05-5.88,2.17-6.37,8.28-1.25,3.16,11.66-2.17,6.37Z"/>
  <path class="cls-2" d="M358.37,2.17c1.41-1.96,6.52-.2,5.58,3.18-1.02,3.66-8.14.39-5.58-3.18Z"/>
</svg>